<!DOCTYPE svg PUBLIC "-//W3C//DTD SVG 1.1//EN" "http://www.w3.org/Graphics/SVG/1.1/DTD/svg11.dtd">
<?xml-stylesheet type="text/css" href="../../../../pixelegg/less/svg.css" ?>
<svg version="1.1" id="resources_navbar" xmlns="http://www.w3.org/2000/svg" xmlns:xlink="http://www.w3.org/1999/xlink" x="0px"
	 y="0px" width="28.347px" height="28.347px" viewBox="0 0 28.347 28.347" enable-background="new 0 0 28.347 28.347"
	 xml:space="preserve">
<g>
	<path fill-rule="evenodd" clip-rule="evenodd" fill="#009966" d="M14.664,2.714V1.837c0-0.217-0.176-0.393-0.393-0.393h-0.208
		c-0.217,0-0.392,0.176-0.392,0.393v0.88C6.858,8.991,8.077,17.628,10.705,22.85h6.959C20.298,17.365,21.524,8.938,14.664,2.714z
		 M17.051,12.328c-1.365,0.627-4.366,0.626-5.728,0c-0.138-0.953-0.183-1.689,0.061-2.752c1.746,0.344,3.858,0.344,5.606,0
		C17.233,10.639,17.188,11.375,17.051,12.328z"/>
	<path fill-rule="evenodd" clip-rule="evenodd" fill="#009966" d="M8.946,23.727c-0.747-1.483-1.366-3.159-1.772-4.944l-2.748,4.752
		c-0.4,0.689-0.51,1.508-0.307,2.277l0.287,1.09l4.677-2.881c-0.001-0.006-0.004-0.021-0.01-0.041L8.946,23.727z"/>
	<polygon fill-rule="evenodd" clip-rule="evenodd" fill="#009966" points="12.398,25.775 15.928,25.775 17.134,24.034
		11.191,24.034 	"/>
	<path fill-rule="evenodd" clip-rule="evenodd" fill="#009966" d="M23.921,23.534l-2.78-4.808c-0.384,1.684-0.967,3.36-1.739,4.968
		l-0.065,0.138c-0.021,0.09-0.036,0.161-0.047,0.206l4.651,2.863l0.288-1.09C24.431,25.042,24.32,24.224,23.921,23.534z"/>
</g>
</svg>
