<?xml version="1.0" encoding="utf-8"?>
<!-- Generator: Adobe Illustrator 15.0.0, SVG Export Plug-In . SVG Version: 6.00 Build 0)  -->
<!DOCTYPE svg PUBLIC "-//W3C//DTD SVG 1.1//EN" "http://www.w3.org/Graphics/SVG/1.1/DTD/svg11.dtd">
<svg version="1.1" id="Ebene_1" xmlns="http://www.w3.org/2000/svg" xmlns:xlink="http://www.w3.org/1999/xlink" x="0px" y="0px"
	 width="32px" height="32px" viewBox="0 0 32 32" enable-background="new 0 0 32 32" xml:space="preserve">
<g>
	<g>
		<path fill="#FFFFFF" d="M26.231,0.709H5.997c-2.793,0-5.059,2.266-5.059,5.059v20.236
			c0,2.795,2.266,5.06,5.059,5.06h20.236c2.795,0,5.061-2.265,5.061-5.06V5.768C31.292,2.975,29.026,0.709,26.231,0.709z
			 M28.257,24.991c0,1.676-1.359,3.036-3.035,3.036H7.008c-1.676,0-3.035-1.36-3.035-3.036V6.78c0-1.676,1.359-3.035,3.035-3.035
			h18.213c1.676,0,3.035,1.358,3.035,3.035V24.991z"/>
	</g>
</g>
</svg>
