<?xml version="1.0" encoding="utf-8"?>
<!-- Generator: Adobe Illustrator 15.0.0, SVG Export Plug-In . SVG Version: 6.00 Build 0)  -->
<!DOCTYPE svg PUBLIC "-//W3C//DTD SVG 1.1//EN" "http://www.w3.org/Graphics/SVG/1.1/DTD/svg11.dtd">
<svg version="1.1" id="Ebene_1" xmlns="http://www.w3.org/2000/svg" xmlns:xlink="http://www.w3.org/1999/xlink" x="0px" y="0px"
	 width="32px" height="32px" viewBox="0 0 32 32" enable-background="new 0 0 32 32" xml:space="preserve">
<g>
	<g>
		<path fill="#616463" d="M12.538,27.752c0.612,0.326,1.237,0.549,1.815,0.756c0.538,0.191,1.03,0.367,1.449,0.596
			c-0.288,0.309-0.64,0.465-1.05,0.465c-0.789,0-1.695-0.586-2.063-1.334C12.608,28.07,12.559,27.91,12.538,27.752 M12.023,26.203
			c-1.49,1.936,0.663,4.365,2.729,4.365c0.926,0,1.835-0.488,2.39-1.727C15.799,27.559,13.619,27.59,12.023,26.203L12.023,26.203z"
			/>
	</g>
	<g>
		<path fill="#616463" d="M29.362,6.643c0.636,1.625-0.224,4.162-1.057,6.617c-0.383,1.131-0.78,2.301-1.033,3.398
			c-1.108,4.838-1.096,7,1.138,12.762c-0.056,0.318-0.391,0.93-0.653,1.223c-0.787-0.061-1.559-0.361-2.37-0.678l-0.151-0.059
			c-3.223-1.107-6.618-2.652-9.92-4.154l-0.966-0.439c-0.781-0.354-1.569-0.711-2.358-1.074L29.362,6.643 M29.476,5.105
			L10.281,24.547c1.55,0.729,3.099,1.424,4.62,2.115c3.366,1.531,6.735,3.064,10.009,4.189c1.009,0.393,2.018,0.803,3.137,0.803
			c0.015,0,0.028,0,0.043,0c0.678-0.383,1.439-1.875,1.314-2.438c-2.242-5.744-2.23-7.652-1.157-12.334
			C29.061,13.358,31.439,9,30.26,6.195C30.068,5.751,29.783,5.413,29.476,5.105L29.476,5.105z"/>
	</g>
	<g>
		<path fill="#616463" d="M25.781,1c0.269,0,0.517,0.104,0.785,0.339c0.387,0.318,0.436,0.643,0.503,1.29
			c0.034,0.34,0.073,0.712,0.199,1.091L8.639,22.592c-2.275-1.135-4.161-2.195-5.85-3.291c0.148-0.646,0.501-1.262,0.819-1.553
			c0.167-0.143,0.657-0.287,1.09-0.414c0.47-0.137,1.003-0.295,1.526-0.529c2.533-1.063,4.637-2.638,6.613-4.947
			c1.179-1.354,2.02-2.922,2.833-4.439c1.151-2.147,2.238-4.176,4.032-4.948c0.432-0.18,0.91-0.267,1.465-0.267
			c0.643,0,1.275,0.118,1.818,0.229l0.945-0.312C24.57,1.408,25.244,1,25.781,1 M25.781,0c-0.871,0-1.783,0.548-2.594,1.452
			c-0.588-0.12-1.286-0.249-2.02-0.25c-0.605,0-1.236,0.088-1.85,0.343c-3.482,1.501-4.398,6.4-7.234,9.654
			c-2.096,2.449-4.16,3.807-6.246,4.682c-1.135,0.51-2.303,0.616-2.877,1.104c-0.666,0.607-1.209,1.775-1.24,2.807
			c2.301,1.541,4.705,2.834,7.123,4.016L28.486,3.91c-0.053-0.074-0.105-0.147-0.148-0.228c-0.5-0.916,0.031-2.158-1.137-3.117
			C26.759,0.177,26.277,0,25.781,0L25.781,0z"/>
	</g>
</g>
<line fill="none" stroke-linecap="round" stroke-linejoin="bevel" x1="1.594" y1="30.438" x2="30.531" y2="1.175"/>
</svg>
