<?xml version="1.0" encoding="utf-8"?>
<!-- Generator: Adobe Illustrator 15.0.0, SVG Export Plug-In . SVG Version: 6.00 Build 0)  -->
<!DOCTYPE svg PUBLIC "-//W3C//DTD SVG 1.1//EN" "http://www.w3.org/Graphics/SVG/1.1/DTD/svg11.dtd">
<svg version="1.1" id="Ebene_1" xmlns="http://www.w3.org/2000/svg" xmlns:xlink="http://www.w3.org/1999/xlink" x="0px" y="0px"
	 width="32px" height="32px" viewBox="0 0 32 32" enable-background="new 0 0 32 32" xml:space="preserve">
<g id="XMLID_2_">
	<g>
		<path fill="#696969" d="M17.111,28.904c-1.793,4.004-7.277,0.166-5.119-2.639C13.588,27.652,15.767,27.622,17.111,28.904z"/>
		<path fill="#696969" d="M29.373,29.28c0.125,0.562-0.637,2.054-1.314,2.438c-1.136,0.01-2.158-0.406-3.18-0.803
			c-3.273-1.126-6.643-2.659-10.009-4.191c-4.431-2.013-9.081-4.035-13.376-6.912c0.031-1.031,0.574-2.199,1.241-2.805
			c0.574-0.49,1.741-0.594,2.877-1.105c2.085-0.875,4.15-2.231,6.245-4.681c2.836-3.253,3.753-8.153,7.236-9.654
			c1.355-0.563,2.794-0.313,3.868-0.094c1.271-1.418,2.794-1.96,4.014-0.886c1.168,0.959,0.637,2.2,1.137,3.117
			c0.521,0.959,1.627,1.418,2.117,2.554c1.178,2.805-1.199,7.163-2.013,10.687C27.143,21.627,27.131,23.535,29.373,29.28z"/>
	</g>
</g>
</svg>
