<?xml version="1.0" encoding="utf-8"?>
<!-- Generator: Adobe Illustrator 15.0.0, SVG Export Plug-In . SVG Version: 6.00 Build 0)  -->
<!DOCTYPE svg PUBLIC "-//W3C//DTD SVG 1.1//EN" "http://www.w3.org/Graphics/SVG/1.1/DTD/svg11.dtd">
<?xml-stylesheet type="text/css" href="../../../less/svg.css" ?>
<svg version="1.1" id="pixelegg_star" xmlns="http://www.w3.org/2000/svg" xmlns:xlink="http://www.w3.org/1999/xlink" x="0px" y="0px"
	 width="32px" height="32px" viewBox="0 0 32 32" enable-background="new 0 0 32 32" xml:space="preserve">
<g>
	<g>
		<polygon fill="#FFFFFF" points="-11.008,53.88 -17.128,47.996 -24.014,54.616 -30.9,47.996 -37.021,53.88 -30.135,60.5 
			-37.021,67.12 -30.9,73.004 -24.014,66.384 -17.128,73.004 -11.008,67.12 -17.894,60.5 		"/>
	</g>
</g>
<g>
	<g>
		<path fill="#FFFFFF" d="M-39.014,11.14v6.521h30V11.14H-39.014z M-39.014,29.401h30v-6.522h-30V29.401z M-39.014,41.14h30v-6.521
			h-30V41.14z"/>
	</g>
</g>
<g>
	<g>
		<polygon fill="#FFFFFF" points="-9.848,-2.729 -27.181,-2.729 -27.181,-5.778 -38.181,-0.667 -27.181,4.445 -27.181,1.396 
			-9.848,1.396 		"/>
	</g>
</g>
<g>
	<g>
		<path fill="#FFFFFF" d="M61.135,19.511l0.601-0.601c0.332-0.332,0.87-0.332,1.202,0
			l0.182,0.182c1.473-1.862,2.358-4.209,2.358-6.768c0-6.036-4.893-10.929-10.928-10.929c-6.036,0-10.929,4.893-10.929,10.929
			c0,6.035,4.893,10.929,10.929,10.929c2.558,0,4.906-0.886,6.768-2.359l-0.182-0.182C60.803,20.381,60.803,19.843,61.135,19.511z
			 M54.549,20.674c-4.612,0-8.35-3.738-8.35-8.35s3.738-8.35,8.35-8.35c4.611,0,8.349,3.738,8.349,8.35S59.16,20.674,54.549,20.674z
			 M63.119,19.092c-0.529,0.669-1.133,1.273-1.802,1.802l1.718,1.719l1.802-1.803L63.119,19.092z M70.333,24.742l-4.041-4.04
			c-0.372-0.372-0.975-0.372-1.347,0l-0.109,0.109l1.104,1.104c0.332,0.332,0.332,0.87,0,1.202l-0.601,0.601
			c-0.332,0.332-0.87,0.332-1.202,0l-1.104-1.104l-0.109,0.109c-0.372,0.371-0.372,0.975,0,1.347l4.041,4.041
			c0.372,0.371,0.975,0.371,1.347,0l2.021-2.021C70.705,25.717,70.705,25.114,70.333,24.742z"/>
	</g>
</g>
<path fill-rule="evenodd" clip-rule="evenodd" fill="#FFFFFF" d="M30.194,12.042
	c0,0-3.288,4.354-7.375,7.422c-0.003-0.012,0.003-0.008,0,0l0.277,0.908c1.671,5.563,1.774,9.413,1.774,9.413l-8.856-5.383
	c0,0-0.012,0.005-0.015,0.005c-0.006,0-0.023-0.009-0.031-0.011c-4.323,2.991-8.84,5.389-8.84,5.389s0.366-4.755,2.034-10.31
	c0.003,0.002,0.002-0.009,0,0c-4.084-3.063-7.357-7.433-7.357-7.433l9.758-0.887L16,1.396l4.436,9.758L30.194,12.042z"/>
</svg>
