<?xml version="1.0" encoding="utf-8"?>
<!-- Generator: Adobe Illustrator 15.0.0, SVG Export Plug-In . SVG Version: 6.00 Build 0)  -->
<!DOCTYPE svg PUBLIC "-//W3C//DTD SVG 1.1//EN" "http://www.w3.org/Graphics/SVG/1.1/DTD/svg11.dtd">
<svg version="1.1" id="Ebene_1" xmlns="http://www.w3.org/2000/svg" xmlns:xlink="http://www.w3.org/1999/xlink" x="0px" y="0px"
	 width="32px" height="32px" viewBox="0 0 32 32" enable-background="new 0 0 32 32" xml:space="preserve">
<g>
	<path fill="#62686A" d="M8.593,7.533c1.167,0,2.119-0.947,2.119-2.116V2.242c0-1.168-0.952-2.117-2.119-2.117
		S6.475,1.074,6.475,2.242v3.174C6.475,6.586,7.426,7.533,8.593,7.533z"/>
	<path fill="#62686A" d="M23.409,7.533c1.168,0,2.116-0.947,2.116-2.116V2.242c0-1.168-0.948-2.117-2.116-2.117
		c-1.171,0-2.117,0.949-2.117,2.117v3.174C21.292,6.586,22.24,7.533,23.409,7.533z"/>
	<path fill="#62686A" d="M27.643,3.301h-1.059h-0.002v3.174c0,0.48-0.166,0.919-0.436,1.276c-0.387,0.509-0.994,0.841-1.681,0.841
		H22.35c-1.168,0-2.115-0.948-2.115-2.116V3.303h-8.467h-0.003v3.173c0,1.169-0.946,2.116-2.113,2.116H7.533
		c-0.688,0-1.291-0.333-1.678-0.841c-0.27-0.357-0.438-0.796-0.438-1.277V3.3H5.416H4.358c-1.166,0-2.116,0.947-2.116,2.115v11.92
		v12.422c0,1.167,0.95,2.117,2.116,2.117h5.587h12.112h5.584c1.17,0,2.117-0.95,2.117-2.117V17.335V5.417
		C29.759,4.248,28.811,3.301,27.643,3.301z M26.584,16.003h-0.002v1.008h0.002v5.347h-0.002v1.051v5.291h-6.35h-1.059h-6.35h-1.062
		H5.418v-5.291v-1.051v-5.347v-1.008v-5.291h6.346h1.062h6.35h1.059h6.35h0.002v5.291H26.584z"/>
</g>
<g enable-background="new    ">
	<path fill="#62686A" d="M19.568,17.405h-4.095l-0.228,1.625c0.228-0.033,0.422-0.033,0.683-0.033c1.007,0,2.047,0.228,2.779,0.765
		c0.797,0.536,1.283,1.413,1.283,2.648c0,1.966-1.689,3.705-4.533,3.705c-1.284,0-2.356-0.292-2.941-0.602l0.455-1.853
		c0.455,0.228,1.414,0.521,2.373,0.521c1.023,0,2.112-0.487,2.112-1.609c0-1.089-0.861-1.755-2.973-1.755
		c-0.585,0-0.991,0.032-1.414,0.098l0.683-5.541h5.818V17.405z"/>
</g>
</svg>
