<?xml version="1.0" encoding="utf-8"?>
<!-- Generator: Adobe Illustrator 16.2.1, SVG Export Plug-In . SVG Version: 6.00 Build 0)  -->
<!DOCTYPE svg PUBLIC "-//W3C//DTD SVG 1.1//EN" "http://www.w3.org/Graphics/SVG/1.1/DTD/svg11.dtd">
<svg version="1.1" id="Ebene_1" xmlns="http://www.w3.org/2000/svg" xmlns:xlink="http://www.w3.org/1999/xlink" x="0px" y="0px"
	 width="28.347px" height="28.347px" viewBox="0 0 28.347 28.347" enable-background="new 0 0 28.347 28.347" xml:space="preserve">
<path fill-rule="evenodd" clip-rule="evenodd" fill="#ECEDED" d="M24.803,0.001H3.543C1.586,0.001,0,1.587,0,3.544v21.259
	c0,1.957,1.586,3.543,3.543,3.543h21.26c1.957,0,3.543-1.586,3.543-3.543V3.544C28.346,1.587,26.76,0.001,24.803,0.001z
	 M24.266,19.312l-4.749,4.565l-5.344-5.137l-5.345,5.137l-4.749-4.565l5.344-5.138L4.079,9.037l4.749-4.566l5.345,5.137l5.344-5.137
	l4.749,4.566l-5.344,5.137L24.266,19.312z"/>
</svg>
