<?xml version="1.0" encoding="utf-8"?>
<!-- Generator: Adobe Illustrator 16.2.1, SVG Export Plug-In . SVG Version: 6.00 Build 0)  -->
<!DOCTYPE svg PUBLIC "-//W3C//DTD SVG 1.1//EN" "http://www.w3.org/Graphics/SVG/1.1/DTD/svg11.dtd">
<svg version="1.1" id="Ebene_1" xmlns="http://www.w3.org/2000/svg" xmlns:xlink="http://www.w3.org/1999/xlink" x="0px" y="0px"
	 width="28.347px" height="28.347px" viewBox="0 0 28.347 28.347" enable-background="new 0 0 28.347 28.347" xml:space="preserve">
<g>
	<path fill-rule="evenodd" clip-rule="evenodd" fill="#ECEDED" d="M24.804,0.001H3.544c-1.957,0-3.543,1.586-3.543,3.543v21.259
		c0,1.957,1.586,3.543,3.543,3.543h21.26c1.957,0,3.543-1.586,3.543-3.543V3.544C28.347,1.587,26.761,0.001,24.804,0.001z
		 M19.552,24.206l-0.092,0.057c-1.609,0.828-3.407,1.274-5.23,1.274c-4.331,0-8.105-2.42-10.035-5.973
		c-0.88-1.607-1.38-3.451-1.38-5.41c0-4.897,3.122-9.066,7.49-10.645c1.225-0.447,2.547-0.693,3.925-0.693c0.002,0,0.004,0,0.006,0
		h0.004h7.953l2.73,7.644l-0.006,0.014c0.397,1.154,0.617,2.391,0.617,3.68C25.534,18.484,23.139,22.302,19.552,24.206z"/>
	<path fill="#ECEDED" d="M19.741,20.319c-0.68,0.517-1.553,0.921-2.623,1.209c-1.07,0.289-2.136,0.434-3.195,0.434
		c-2.302,0-4.125-0.701-5.473-2.104c-1.348-1.405-2.022-3.258-2.022-5.56c0-2.306,0.733-4.175,2.203-5.616
		c1.469-1.439,3.444-2.161,5.928-2.161c1.762,0,3.259,0.488,4.492,1.468l-1.192,2.13c-0.337-0.279-0.855-0.557-1.557-0.831
		c-0.702-0.276-1.304-0.414-1.808-0.414c-1.579,0-2.825,0.499-3.738,1.494c-0.913,0.996-1.37,2.329-1.37,4
		c0,1.59,0.449,2.86,1.344,3.813c0.895,0.95,2.113,1.427,3.654,1.427c1.015,0,1.853-0.257,2.51-0.775v-2.935h-2.225v-2.262h5.072
		V20.319z"/>
	<path fill="#ECEDED" d="M14.509,4.383h6.547l2.008,6.078C21.666,7.045,18.388,4.592,14.509,4.383z"/>
</g>
</svg>
