<?xml version="1.0" encoding="utf-8"?>
<!-- Generator: Adobe Illustrator 16.2.1, SVG Export Plug-In . SVG Version: 6.00 Build 0)  -->
<!DOCTYPE svg PUBLIC "-//W3C//DTD SVG 1.1//EN" "http://www.w3.org/Graphics/SVG/1.1/DTD/svg11.dtd">
<svg version="1.1" id="Ebene_1" xmlns="http://www.w3.org/2000/svg" xmlns:xlink="http://www.w3.org/1999/xlink" x="0px" y="0px"
	 width="28.347px" height="28.347px" viewBox="0 0 28.347 28.347" enable-background="new 0 0 28.347 28.347" xml:space="preserve">
<g>
	<path fill="#ECEDED" d="M0,0v28.347h28.346V0H0z M19.547,24.202l-0.092,0.057c-1.609,0.828-3.407,1.274-5.23,1.274
		c-4.331,0-8.105-2.42-10.035-5.973c-0.88-1.607-1.38-3.451-1.38-5.41c0-4.897,3.122-9.066,7.49-10.645
		c1.225-0.447,2.547-0.693,3.925-0.693c0.002,0,0.004,0,0.006,0h0.004h7.953l2.73,7.644l-0.006,0.015
		c0.397,1.153,0.617,2.392,0.617,3.68C25.529,18.48,23.134,22.298,19.547,24.202z"/>
	<path fill="#ECEDED" d="M14.664,15.894h2.225v2.935c-0.657,0.519-1.495,0.775-2.51,0.775c-1.541,0-2.76-0.477-3.654-1.427
		c-0.895-0.953-1.344-2.223-1.344-3.812c0-1.671,0.457-3.004,1.37-4c0.913-0.995,2.159-1.494,3.738-1.494
		c0.504,0,1.105,0.139,1.808,0.414c0.701,0.273,1.22,0.553,1.557,0.831l1.192-2.13c-1.233-0.98-2.73-1.468-4.492-1.468
		c-2.483,0-4.459,0.722-5.928,2.16c-1.47,1.441-2.203,3.311-2.203,5.617c0,2.302,0.675,4.154,2.022,5.56
		c1.348,1.403,3.171,2.104,5.473,2.104c1.06,0,2.125-0.145,3.195-0.434c1.07-0.288,1.943-0.692,2.623-1.209v-6.684h-5.072V15.894z"
		/>
	<path fill="#ECEDED" d="M14.504,4.379c3.879,0.208,7.157,2.662,8.555,6.079l-2.008-6.079H14.504z"/>
</g>
</svg>
