<?xml version="1.0" encoding="utf-8"?>
<!-- Generator: Adobe Illustrator 16.2.1, SVG Export Plug-In . SVG Version: 6.00 Build 0)  -->
<!DOCTYPE svg PUBLIC "-//W3C//DTD SVG 1.1//EN" "http://www.w3.org/Graphics/SVG/1.1/DTD/svg11.dtd">
<svg version="1.1" id="Ebene_1" xmlns="http://www.w3.org/2000/svg" xmlns:xlink="http://www.w3.org/1999/xlink" x="0px" y="0px"
	 width="28.347px" height="28.347px" viewBox="0 0 28.347 28.347" enable-background="new 0 0 28.347 28.347" xml:space="preserve">
<g>
	<circle fill-rule="evenodd" clip-rule="evenodd" fill="#ECEDED" cx="18.889" cy="9.616" r="1.74"/>
	<path fill-rule="evenodd" clip-rule="evenodd" fill="#ECEDED" d="M24.804,0H3.544C1.587,0,0.001,1.586,0.001,3.543v21.259
		c0,1.957,1.586,3.543,3.543,3.543h21.26c1.957,0,3.543-1.586,3.543-3.543V3.543C28.347,1.586,26.761,0,24.804,0z M18.256,16.656
		c-1.035,0-1.731-0.198-2.309-0.421l-0.731,2.154c-0.09,0.261-0.338,0.435-0.615,0.428l-2.401-0.052l-0.168,2.417
		c-0.022,0.323-0.286,0.579-0.61,0.589L8.536,21.86l-0.42,1.893c-0.064,0.291-0.321,0.497-0.618,0.497H4.967
		c-0.349,0-0.633-0.284-0.633-0.633v-2.531c0-0.153,0.056-0.302,0.157-0.418l7.658-8.735c-0.096-0.452-0.222-1.151-0.222-1.605
		C11.928,6.839,14.767,4,18.256,4s6.328,2.839,6.328,6.328C24.584,13.817,21.745,16.656,18.256,16.656z"/>
</g>
</svg>
