<?xml version="1.0" encoding="utf-8"?>
<!-- Generator: Adobe Illustrator 16.2.1, SVG Export Plug-In . SVG Version: 6.00 Build 0)  -->
<!DOCTYPE svg PUBLIC "-//W3C//DTD SVG 1.1//EN" "http://www.w3.org/Graphics/SVG/1.1/DTD/svg11.dtd">
<?xml-stylesheet type="text/css" href="../less/svg.css" ?>
<svg version="1.1" id="pixelegg_accounts" xmlns="http://www.w3.org/2000/svg" xmlns:xlink="http://www.w3.org/1999/xlink" x="0px" y="0px"
	 width="28.347px" height="28.347px" viewBox="0 0 28.347 28.347" enable-background="new 0 0 28.347 28.347" xml:space="preserve">
<path fill-rule="evenodd" clip-rule="evenodd" fill="#ECEDED" d="M0.001,0v28.347h28.346V0H0.001z M8.568,7.494
	c0.408-2.758,2.896-4.727,5.687-4.727c2.754,0,5.234,2.022,5.687,4.727c0.054,0.319,0,1.241,0,1.575
	c0,1.353-2.205,4.728-5.687,4.728s-5.687-3.375-5.687-4.728C8.568,8.772,8.525,7.779,8.568,7.494z M14.255,26.763l-2.438-2.439
	l1.625-4.879h1.625l1.625,4.879L14.255,26.763z M12.63,18.225v-1.22c0-0.449,0.363-0.813,0.812-0.813h1.625
	c0.449,0,0.812,0.364,0.812,0.813v1.22c0,0.449-0.363,0.812-0.812,0.812h-1.625C12.993,19.037,12.63,18.674,12.63,18.225z
	 M17.827,23.125l-1.465-3.436c0.407-0.36,0.669-0.88,0.669-1.465v-1.22c0-1.083-0.881-1.965-1.964-1.965h-1.625
	c-1.083,0-1.964,0.882-1.964,1.965v1.22c0,0.585,0.262,1.104,0.669,1.465l-1.465,3.438c-3.438-0.224-6.177-0.672-6.177-0.672
	l2.438-6.361c0,0,3.95-1.591,7.312-1.591c3.619,0,7.312,1.591,7.312,1.591l2.438,6.361C24.004,22.455,21.25,22.901,17.827,23.125z"
	/>
</svg>
