<?xml version="1.0" encoding="utf-8"?>
<!-- Generator: Adobe Illustrator 16.2.1, SVG Export Plug-In . SVG Version: 6.00 Build 0)  -->
<!DOCTYPE svg PUBLIC "-//W3C//DTD SVG 1.1//EN" "http://www.w3.org/Graphics/SVG/1.1/DTD/svg11.dtd">
<svg version="1.1" id="Ebene_1" xmlns="http://www.w3.org/2000/svg" xmlns:xlink="http://www.w3.org/1999/xlink" x="0px" y="0px"
	 width="28.347px" height="28.347px" viewBox="0 0 28.347 28.347" enable-background="new 0 0 28.347 28.347" xml:space="preserve">
<g>
	<path fill-rule="evenodd" clip-rule="evenodd" fill="#ECEDED" d="M24.803,0.001H3.543C1.586,0.001,0,1.587,0,3.545v21.259
		c0,1.957,1.586,3.543,3.543,3.543h21.26c1.957,0,3.543-1.586,3.543-3.543V3.545C28.346,1.587,26.76,0.001,24.803,0.001z
		 M14.173,24.739c-5.836,0-10.565-4.729-10.565-10.564c0-5.836,4.729-10.565,10.565-10.565c5.835,0,10.565,4.729,10.565,10.565
		C24.738,20.01,20.008,24.739,14.173,24.739z"/>
	<path fill-rule="evenodd" clip-rule="evenodd" fill="#ECEDED" d="M21.226,15.938h-5.29v5.29h-3.526v-5.29h-5.29V12.41h5.29V7.12
		h3.526v5.29h5.29V15.938z"/>
</g>
</svg>
