<?xml version="1.0" encoding="utf-8"?>
<!-- Generator: Adobe Illustrator 16.2.1, SVG Export Plug-In . SVG Version: 6.00 Build 0)  -->
<!DOCTYPE svg PUBLIC "-//W3C//DTD SVG 1.1//EN" "http://www.w3.org/Graphics/SVG/1.1/DTD/svg11.dtd">
<?xml-stylesheet type="text/css" href="../less/svg.css" ?>
<svg version="1.1" id="pixelegg_add" xmlns="http://www.w3.org/2000/svg" xmlns:xlink="http://www.w3.org/1999/xlink" x="0px" y="0px"
	 width="28.347px" height="28.347px" viewBox="0 0 28.347 28.347" enable-background="new 0 0 28.347 28.347" xml:space="preserve">
<g>
	<path fill-rule="evenodd" clip-rule="evenodd" fill="#ECEDED" d="M0-0.001v28.348h28.346V-0.001H0z M14.169,24.737
		c-5.836,0-10.565-4.729-10.565-10.564c0-5.836,4.729-10.565,10.565-10.565c5.835,0,10.565,4.729,10.565,10.565
		C24.734,20.008,20.004,24.737,14.169,24.737z"/>
	<polygon fill-rule="evenodd" clip-rule="evenodd" fill="#ECEDED" points="15.932,7.118 12.405,7.118 12.405,12.408 7.115,12.408 
		7.115,15.936 12.405,15.936 12.405,21.226 15.932,21.226 15.932,15.936 21.222,15.936 21.222,12.408 15.932,12.408 	"/>
</g>
</svg>
