<?xml version="1.0" encoding="utf-8"?>
<!-- Generator: Adobe Illustrator 15.0.0, SVG Export Plug-In . SVG Version: 6.00 Build 0)  -->
<!DOCTYPE svg PUBLIC "-//W3C//DTD SVG 1.1//EN" "http://www.w3.org/Graphics/SVG/1.1/DTD/svg11.dtd">
<?xml-stylesheet type="text/css" href="../less/svg.css" ?>
<svg version="1.1" id="pixelegg_addressbook" xmlns="http://www.w3.org/2000/svg" xmlns:xlink="http://www.w3.org/1999/xlink" x="0px" y="0px"
	 width="32px" height="32px" viewBox="0 0 32 32" enable-background="new 0 0 32 32" xml:space="preserve">
<g>
	<g>
		<path fill="#696969" stroke="#E6E6E6" stroke-miterlimit="10" d="M6.067,16.362h0.534c0.505,1.021,2.34,1.947,3.386,1.947
			s2.881-0.926,3.387-1.947h0.534l0.584-1.947l-0.584-0.649c0-0.633,0-0.649,0-0.649s0.041-1.426-0.584-1.947
			C12.827,10.756,12.735,9.537,10,9.5c-1.95-0.026-2.57,0.804-3.349,1.669c-0.356,0.396-0.533,1.192-0.584,1.947
			c-0.013,0.121,0,0.534,0,0.649l-0.584,0.649L6.067,16.362z M12.908,19.309c0,0-0.928,1.191-2.908,1.191
			c-1.793,0-2.933-1.191-2.933-1.191s-0.731,0.236-1.337,0.947C4.864,21.273,5.146,23.5,5.146,23.5l9.683,0.01
			c0,0,0.333-2.283-0.585-3.254C13.514,19.48,12.908,19.309,12.908,19.309z M28,4.5H4c-1.657,0-3,1.343-3,3v18c0,1.656,1.343,3,3,3
			h24c1.656,0,3-1.344,3-3v-18C31,5.844,29.656,4.5,28,4.5z M17,24.5c0,0.553-0.447,1-1,1H4c-0.553,0-1-0.447-1-1v-16
			c0-0.552,0.447-1,1-1h12c0.553,0,1,0.448,1,1V24.5z M28,21.5h-7c-0.553,0-1-0.447-1-1s0.447-1,1-1h7c0.553,0,1,0.447,1,1
			S28.553,21.5,28,21.5z M28,16.5h-7c-0.553,0-1-0.448-1-1c0-0.553,0.447-1,1-1h7c0.553,0,1,0.447,1,1
			C29,16.052,28.553,16.5,28,16.5z M28,11.5h-7c-0.553,0-1-0.448-1-1c0-0.552,0.447-1,1-1h7c0.553,0,1,0.448,1,1
			C29,11.052,28.553,11.5,28,11.5z"/>
	</g>
</g>
</svg>
