<?xml version="1.0" encoding="utf-8"?>
<!-- Generator: Adobe Illustrator 16.0.0, SVG Export Plug-In . SVG Version: 6.00 Build 0)  -->
<!DOCTYPE svg PUBLIC "-//W3C//DTD SVG 1.1//EN" "http://www.w3.org/Graphics/SVG/1.1/DTD/svg11.dtd">
<svg version="1.1" id="Ebene_1" xmlns="http://www.w3.org/2000/svg" xmlns:xlink="http://www.w3.org/1999/xlink" x="0px" y="0px"
	 width="28.347px" height="28.347px" viewBox="0 0 28.347 28.347" enable-background="new 0 0 28.347 28.347" xml:space="preserve">
<g>
	<path fill-rule="evenodd" clip-rule="evenodd" fill="#ECEDED" d="M10.137,21.631c1.2,0.65,2.576,1.02,4.036,1.02
		c4.683,0,8.478-3.795,8.478-8.478c0-1.46-0.371-2.834-1.021-4.034L10.137,21.631z"/>
	<path fill-rule="evenodd" clip-rule="evenodd" fill="#ECEDED" d="M24.803,0H3.543C1.586,0,0,1.586,0,3.543v21.259
		c0,1.957,1.586,3.543,3.543,3.543h21.26c1.957,0,3.543-1.586,3.543-3.543V3.543C28.346,1.586,26.76,0,24.803,0z M14.173,26.041
		c-6.555,0-11.867-5.312-11.867-11.869c0-6.553,5.312-11.867,11.867-11.867s11.868,5.313,11.868,11.867
		C26.041,20.729,20.728,26.041,14.173,26.041z"/>
	<path fill-rule="evenodd" clip-rule="evenodd" fill="#ECEDED" d="M14.173,5.696c-4.681,0-8.477,3.796-8.477,8.476
		c0,1.682,0.496,3.246,1.34,4.564l11.7-11.7C17.418,6.192,15.854,5.696,14.173,5.696z"/>
</g>
</svg>
