<?xml version="1.0" encoding="utf-8"?>
<!-- Generator: Adobe Illustrator 16.2.1, SVG Export Plug-In . SVG Version: 6.00 Build 0)  -->
<!DOCTYPE svg PUBLIC "-//W3C//DTD SVG 1.1//EN" "http://www.w3.org/Graphics/SVG/1.1/DTD/svg11.dtd">
<svg version="1.1" id="Ebene_1" xmlns="http://www.w3.org/2000/svg" xmlns:xlink="http://www.w3.org/1999/xlink" x="0px" y="0px"
	 width="28.347px" height="28.347px" viewBox="0 0 28.347 28.347" enable-background="new 0 0 28.347 28.347" xml:space="preserve">
<path fill-rule="evenodd" clip-rule="evenodd" fill="#ECEDED" d="M24.437,0.001H3.909C1.751,0.001,0,1.751,0,3.911v20.528
	c0,2.158,1.751,3.908,3.909,3.908h20.527c2.16,0,3.91-1.75,3.91-3.908V3.911C28.347,1.751,26.597,0.001,24.437,0.001z
	 M23.625,11.888l-10.872,9.06c-0.364,0.303-0.805,0.482-1.265,0.602c-0.28,0.094-0.565,0.148-0.857,0.141
	c-0.805,0.01-1.612-0.23-2.226-0.742c-0.996-1.006-2.999-3.506-2.999-3.506c-0.976-0.975-0.976-2.557,0-3.531s2.556-0.975,3.53,0
	l1.62,1.619l8.72-7.265c1.2-1.001,3.146-1.001,4.349,0C24.825,9.265,24.825,10.887,23.625,11.888z"/>
</svg>
