<?xml version="1.0" encoding="utf-8"?>
<!-- Generator: Adobe Illustrator 16.2.1, SVG Export Plug-In . SVG Version: 6.00 Build 0)  -->
<!DOCTYPE svg PUBLIC "-//W3C//DTD SVG 1.1//EN" "http://www.w3.org/Graphics/SVG/1.1/DTD/svg11.dtd">
<?xml-stylesheet type="text/css" href="../less/svg.css" ?>
<svg version="1.1" id="pixelegg_agt_action_fail" xmlns="http://www.w3.org/2000/svg" xmlns:xlink="http://www.w3.org/1999/xlink" x="0px" y="0px"
	 width="28.347px" height="28.347px" viewBox="0 0 28.347 28.347" enable-background="new 0 0 28.347 28.347" xml:space="preserve">
<g>
	<path fill-rule="evenodd" clip-rule="evenodd" fill="#ECEDED" d="M10.138,21.627c1.2,0.65,2.576,1.02,4.036,1.02
		c4.683,0,8.478-3.793,8.478-8.477c0-1.46-0.371-2.834-1.021-4.033L10.138,21.627z"/>
	<path fill-rule="evenodd" clip-rule="evenodd" fill="#ECEDED" d="M0.001,0v28.348h28.346V0H0.001z M14.174,26.037
		c-6.555,0-11.867-5.311-11.867-11.868c0-6.553,5.312-11.866,11.867-11.866s11.868,5.313,11.868,11.866
		C26.042,20.727,20.729,26.037,14.174,26.037z"/>
	<path fill-rule="evenodd" clip-rule="evenodd" fill="#ECEDED" d="M14.174,5.694c-4.681,0-8.477,3.796-8.477,8.476
		c0,1.682,0.496,3.247,1.34,4.565l11.7-11.7C17.419,6.19,15.855,5.694,14.174,5.694z"/>
</g>
</svg>
