<?xml version="1.0" encoding="utf-8"?>
<!-- Generator: Adobe Illustrator 16.2.1, SVG Export Plug-In . SVG Version: 6.00 Build 0)  -->
<!DOCTYPE svg PUBLIC "-//W3C//DTD SVG 1.1//EN" "http://www.w3.org/Graphics/SVG/1.1/DTD/svg11.dtd">
<?xml-stylesheet type="text/css" href="../less/svg.css" ?>
<?xml-stylesheet type="text/css" href="../less/svg.css" ?>
<svg version="1.1" id="pixelegg_alarm" xmlns="http://www.w3.org/2000/svg" xmlns:xlink="http://www.w3.org/1999/xlink" x="0px" y="0px"
	 width="28.347px" height="28.347px" viewBox="0 0 28.347 28.347" enable-background="new 0 0 28.347 28.347" xml:space="preserve">
<g>
	<circle fill-rule="evenodd" clip-rule="evenodd" fill="#ECEDED" cx="16.446" cy="10.277" r="0.953"/>
	<path fill-rule="evenodd" clip-rule="evenodd" fill="#ECEDED" d="M0,0v28.348h28.348V0H0z M22.076,24.707
		c0,0.922-0.629,1.668-1.407,1.668h-8.444c-0.779,0-1.408-0.746-1.408-1.668v-3.036c-3.122-1.638-5.449-4.583-6.235-8.114
		c-1.339-0.002-2.422-1.086-2.422-2.425c0-1.34,1.085-2.426,2.426-2.426S7.01,9.792,7.01,11.132c0,0.78-0.374,1.468-0.947,1.911
		c0.589,2.878,2.348,5.324,4.754,6.839v-1.507c1.567,1.184,3.513,1.895,5.63,1.895s4.062-0.711,5.63-1.895V24.707z M16.446,18.419
		c-4.5,0-8.142-3.646-8.142-8.142c0-4.496,3.642-8.141,8.142-8.141s8.142,3.646,8.142,8.141
		C24.588,14.773,20.946,18.419,16.446,18.419z"/>
</g>
</svg>
