<?xml version="1.0" encoding="utf-8"?>
<!-- Generator: Adobe Illustrator 16.2.1, SVG Export Plug-In . SVG Version: 6.00 Build 0)  -->
<!DOCTYPE svg PUBLIC "-//W3C//DTD SVG 1.1//EN" "http://www.w3.org/Graphics/SVG/1.1/DTD/svg11.dtd">
<svg version="1.1" id="Ebene_1" xmlns="http://www.w3.org/2000/svg" xmlns:xlink="http://www.w3.org/1999/xlink" x="0px" y="0px"
	 width="28.347px" height="28.347px" viewBox="0 0 28.347 28.347" enable-background="new 0 0 28.347 28.347" xml:space="preserve">
<g>
	<path fill-rule="evenodd" clip-rule="evenodd" fill="#ECEDED" d="M21.505,14.713c-0.418-3.349-3.552-6.411-6.927-6.729
		c0.047,0.452-0.1,0.908-0.573,0.908s-0.62-0.456-0.572-0.908c-3.376,0.318-6.51,3.38-6.927,6.729
		c0.475-0.034,0.985,0.195,0.985,0.696c0,0.505-0.519,0.735-0.998,0.695c0.359,3.361,3.472,6.464,6.851,6.83
		c-0.053-0.482,0.152-1.009,0.661-1.009s0.714,0.526,0.661,1.009c3.379-0.366,6.491-3.469,6.851-6.83
		c-0.479,0.04-0.998-0.19-0.998-0.695C20.519,14.908,21.029,14.679,21.505,14.713z M15.68,19.271
		c-0.332,0.347-0.881,0.359-1.226,0.029l-3.122-2.99c-0.264-0.253-0.33-0.634-0.197-0.953c0.008-0.02,0.019-0.038,0.027-0.057
		c0.015-0.029,0.028-0.059,0.046-0.086c0.024-0.038,0.055-0.074,0.086-0.109c0.006-0.007,0.01-0.014,0.016-0.021
		c0.001-0.001,0.002-0.001,0.003-0.002c0.006-0.006,0.01-0.013,0.015-0.019l3.071-3.043c0.34-0.336,0.889-0.33,1.227,0.01
		c0.338,0.342,0.337,0.891-0.003,1.227l-2.439,2.417l2.475,2.37C16.002,18.375,16.012,18.924,15.68,19.271z"/>
	<path fill-rule="evenodd" clip-rule="evenodd" fill="#ECEDED" d="M24.803,0.001H3.543C1.586,0.001,0,1.587,0,3.544v21.259
		c0,1.957,1.586,3.543,3.543,3.543h21.26c1.957,0,3.543-1.586,3.543-3.543V3.544C28.346,1.587,26.76,0.001,24.803,0.001z
		 M2.978,9.688c0-0.877,0.207-1.704,0.566-2.443C3.345,6.946,3.229,6.586,3.229,6.2c0-1.045,0.847-1.892,1.893-1.892
		c0.393,0,0.757,0.119,1.059,0.324c0.729-0.346,1.54-0.546,2.4-0.546c1.204,0,2.316,0.383,3.229,1.029
		C7.942,5.936,4.861,8.88,3.843,12.669C3.298,11.806,2.978,10.785,2.978,9.688z M7.039,24.581L7.039,24.581
		c-0.384,0.392-1.01,0.42-1.425,0.053s-0.463-0.993-0.119-1.419l-0.002-0.002l0.685-0.773l1.546,1.369L7.039,24.581z M22.738,24.634
		c-0.414,0.367-1.041,0.339-1.423-0.054l-0.002,0.001l-0.685-0.772l1.546-1.369l0.685,0.773l-0.002,0.002
		C23.201,23.641,23.153,24.267,22.738,24.634z M14.005,24.958c-5.274,0-9.549-4.275-9.549-9.549c0-5.039,3.904-9.165,8.853-9.521
		c-0.304-0.225-0.504-0.583-0.504-0.991c0-0.682,0.554-1.235,1.236-1.235c0.682,0,1.235,0.553,1.235,1.235
		c0,0.41-0.202,0.771-0.51,0.996c4.918,0.389,8.788,4.499,8.788,9.517C23.555,20.683,19.279,24.958,14.005,24.958z M24.267,12.669
		c-1.019-3.789-4.1-6.733-7.967-7.554c0.913-0.646,2.025-1.029,3.229-1.029c0.86,0,1.672,0.2,2.4,0.546
		c0.302-0.205,0.666-0.324,1.059-0.324c1.046,0,1.893,0.847,1.893,1.892c0,0.387-0.116,0.746-0.315,1.045
		c0.359,0.739,0.566,1.566,0.566,2.443C25.132,10.785,24.812,11.806,24.267,12.669z"/>
</g>
</svg>
