<?xml version="1.0" encoding="utf-8"?>
<!-- Generator: Adobe Illustrator 16.2.1, SVG Export Plug-In . SVG Version: 6.00 Build 0)  -->
<!DOCTYPE svg PUBLIC "-//W3C//DTD SVG 1.1//EN" "http://www.w3.org/Graphics/SVG/1.1/DTD/svg11.dtd">
<?xml-stylesheet type="text/css" href="../less/svg.css" ?>
<?xml-stylesheet type="text/css" href="../less/svg.css" ?>
<svg version="1.1" id="pixelegg_apply" xmlns="http://www.w3.org/2000/svg" xmlns:xlink="http://www.w3.org/1999/xlink" x="0px" y="0px"
	 width="28.347px" height="28.347px" viewBox="0 0 28.347 28.347" enable-background="new 0 0 28.347 28.347" xml:space="preserve">
<g>
	<path fill-rule="evenodd" clip-rule="evenodd" fill="#ECEDED" d="M0,0v28.348h28.348V0H0z M10.107,18.477
		c-0.288,0.098-0.581,0.154-0.881,0.146C8.4,18.635,7.57,18.383,6.939,17.85c-1.022-1.049-3.081-3.653-3.081-3.653
		c-1.001-1.016-1.001-2.66,0-3.677c1.003-1.015,2.626-1.015,3.628,0l1.664,1.687l8.957-7.568c1.234-1.042,3.234-1.042,4.469,0
		c1.233,1.042,1.233,2.732,0,3.775l-2.494,2.107c-0.695-0.205-1.43-0.32-2.191-0.32c-4.271,0-7.733,3.463-7.733,7.733
		c0,0.176,0.015,0.346,0.026,0.518C10.157,18.457,10.134,18.471,10.107,18.477z M17.891,23.725c-3.199,0-5.791-2.592-5.791-5.791
		c0-3.198,2.592-5.792,5.791-5.792c3.198,0,5.791,2.594,5.791,5.792C23.682,21.133,21.089,23.725,17.891,23.725z"/>
	<polygon fill-rule="evenodd" clip-rule="evenodd" fill="#ECEDED" points="18.856,14.068 16.924,14.068 16.924,16.967 
		14.024,16.967 14.024,18.9 16.924,18.9 16.924,21.801 18.856,21.801 18.856,18.9 21.757,18.9 21.757,16.967 18.856,16.967 	"/>
</g>
</svg>
