<?xml version="1.0" encoding="utf-8"?>
<!-- Generator: Adobe Illustrator 16.2.1, SVG Export Plug-In . SVG Version: 6.00 Build 0)  -->
<!DOCTYPE svg PUBLIC "-//W3C//DTD SVG 1.1//EN" "http://www.w3.org/Graphics/SVG/1.1/DTD/svg11.dtd">
<svg version="1.1" id="Ebene_1" xmlns="http://www.w3.org/2000/svg" xmlns:xlink="http://www.w3.org/1999/xlink" x="0px" y="0px"
	 width="28.347px" height="28.347px" viewBox="0 0 28.347 28.347" enable-background="new 0 0 28.347 28.347" xml:space="preserve">
<g>
	<path fill-rule="evenodd" clip-rule="evenodd" fill="#ECEDED" d="M24.803,0.001H3.543C1.586,0.001,0,1.587,0,3.544v21.259
		c0,1.957,1.586,3.543,3.543,3.543h21.26c1.957,0,3.543-1.586,3.543-3.543V3.544C28.346,1.587,26.76,0.001,24.803,0.001z
		 M10.107,18.48c-0.288,0.097-0.581,0.154-0.881,0.146c-0.826,0.012-1.656-0.24-2.287-0.773C5.917,16.805,3.858,14.2,3.858,14.2
		c-1.001-1.016-1.001-2.66,0-3.677c1.003-1.015,2.626-1.015,3.628,0L9.15,12.21l8.957-7.568c1.234-1.042,3.234-1.042,4.469,0
		c1.233,1.042,1.233,2.732,0,3.775l-2.494,2.107c-0.695-0.205-1.43-0.32-2.191-0.32c-4.271,0-7.733,3.463-7.733,7.733
		c0,0.175,0.015,0.345,0.026,0.517C10.157,18.461,10.134,18.474,10.107,18.48z M17.891,23.729c-3.199,0-5.791-2.593-5.791-5.791
		s2.592-5.792,5.791-5.792c3.198,0,5.791,2.594,5.791,5.792S21.089,23.729,17.891,23.729z"/>
	<path fill-rule="evenodd" clip-rule="evenodd" fill="#ECEDED" d="M21.757,18.904h-2.9v2.899h-1.933v-2.899h-2.899v-1.934h2.899
		v-2.899h1.933v2.899h2.9V18.904z"/>
</g>
</svg>
