<?xml version="1.0" encoding="UTF-8" standalone="no"?>
<!-- Generator: Adobe Illustrator 15.0.0, SVG Export Plug-In . SVG Version: 6.00 Build 0)  -->

<?xml-stylesheet type="text/css" href="../less/svg.css" ?><svg
   xmlns:dc="http://purl.org/dc/elements/1.1/"
   xmlns:cc="http://creativecommons.org/ns#"
   xmlns:rdf="http://www.w3.org/1999/02/22-rdf-syntax-ns#"
   xmlns:svg="http://www.w3.org/2000/svg"
   xmlns="http://www.w3.org/2000/svg"
   xmlns:sodipodi="http://sodipodi.sourceforge.net/DTD/sodipodi-0.dtd"
   xmlns:inkscape="http://www.inkscape.org/namespaces/inkscape"
   version="1.1"
   id="pixelegg_dots"
   x="0px"
   y="0px"
   width="32px"
   height="32px"
   viewBox="0 0 32 32"
   enable-background="new 0 0 32 32"
   xml:space="preserve"
   inkscape:version="0.91 r13725"
   sodipodi:docname="apps_3.svg"><metadata
     id="metadata4389"><rdf:RDF><cc:Work
         rdf:about=""><dc:format>image/svg+xml</dc:format><dc:type
           rdf:resource="http://purl.org/dc/dcmitype/StillImage" /><dc:title></dc:title></cc:Work></rdf:RDF></metadata><defs
     id="defs4387" /><sodipodi:namedview
     pagecolor="#ffffff"
     bordercolor="#666666"
     borderopacity="1"
     objecttolerance="10"
     gridtolerance="10"
     guidetolerance="10"
     inkscape:pageopacity="0"
     inkscape:pageshadow="2"
     inkscape:window-width="1535"
     inkscape:window-height="876"
     id="namedview4385"
     showgrid="false"
     inkscape:zoom="14.75"
     inkscape:cx="13.16348"
     inkscape:cy="18.28217"
     inkscape:window-x="65"
     inkscape:window-y="24"
     inkscape:window-maximized="1"
     inkscape:current-layer="pixelegg_dots"
     showguides="false" /><circle
     fill="#696969"
     stroke="#e6e6e6"
     stroke-miterlimit="10"
     cx="16.419"
     cy="4.306"
     r="3.458"
     id="circle4379" /><circle
     fill="#696969"
     stroke="#e6e6e6"
     stroke-miterlimit="10"
     cx="16.419"
     cy="15.94"
     r="3.458"
     id="circle4381" /><path
     fill="#696969"
     stroke="#e6e6e6"
     stroke-miterlimit="10"
     d="M19.864,27.721c0,1.911-1.55,3.459-3.459,3.459  c-1.91,0-3.458-1.548-3.458-3.459c0-1.907,1.548-3.457,3.458-3.457C18.314,24.264,19.864,25.813,19.864,27.721z"
     id="path4383" /><circle
     style="fill:#696969;stroke:#e6e6e6;stroke-miterlimit:10"
     stroke-miterlimit="10"
     cx="27.332001"
     cy="4.3059998"
     r="3.4579999"
     id="circle4379-3" /><circle
     style="fill:#696969;stroke:#e6e6e6;stroke-miterlimit:10"
     stroke-miterlimit="10"
     cx="27.332001"
     cy="15.939998"
     r="3.4579999"
     id="circle4381-3" /><path
     inkscape:connector-curvature="0"
     style="fill:#696969;stroke:#e6e6e6;stroke-miterlimit:10"
     stroke-miterlimit="10"
     d="m 30.777,27.721 c 0,1.911 -1.55,3.459 -3.459,3.459 -1.91,0 -3.458,-1.548 -3.458,-3.459 0,-1.907 1.548,-3.457 3.458,-3.457 1.909,0 3.459,1.549 3.459,3.457 z"
     id="path4383-1" /><circle
     style="fill:#696969;stroke:#e6e6e6;stroke-miterlimit:10"
     stroke-miterlimit="10"
     cx="5.1660004"
     cy="4.3059993"
     r="3.4579999"
     id="circle4379-7" /><circle
     style="fill:#696969;stroke:#e6e6e6;stroke-miterlimit:10"
     stroke-miterlimit="10"
     cx="5.1660004"
     cy="15.94"
     r="3.4579999"
     id="circle4381-8" /><path
     inkscape:connector-curvature="0"
     style="fill:#696969;stroke:#e6e6e6;stroke-miterlimit:10"
     stroke-miterlimit="10"
     d="m 8.611,27.721 c 0,1.911 -1.55,3.459 -3.459,3.459 -1.91,0 -3.458,-1.548 -3.458,-3.459 0,-1.907 1.548,-3.457 3.458,-3.457 1.909,0 3.459,1.549 3.459,3.457 z"
     id="path4383-4" /></svg>
