<?xml version="1.0" encoding="utf-8"?>
<!-- Generator: Adobe Illustrator 16.2.1, SVG Export Plug-In . SVG Version: 6.00 Build 0)  -->
<!DOCTYPE svg PUBLIC "-//W3C//DTD SVG 1.1//EN" "http://www.w3.org/Graphics/SVG/1.1/DTD/svg11.dtd">
<svg version="1.1" id="Ebene_1" xmlns="http://www.w3.org/2000/svg" xmlns:xlink="http://www.w3.org/1999/xlink" x="0px" y="0px"
	 width="28.347px" height="28.347px" viewBox="0 0 28.347 28.347" enable-background="new 0 0 28.347 28.347" xml:space="preserve">
<g>
	<path fill-rule="evenodd" clip-rule="evenodd" fill="#ECEDED" d="M24.803,0.001H3.543C1.586,0.001,0,1.587,0,3.544v21.259
		c0,1.957,1.586,3.543,3.543,3.543h21.26c1.957,0,3.543-1.586,3.543-3.543V3.544C28.346,1.587,26.76,0.001,24.803,0.001z
		 M23.588,20.511c0,1.742-1.413,3.155-3.155,3.155H7.809c-1.742,0-3.155-1.413-3.155-3.155V7.888c0-1.743,1.413-3.155,3.155-3.155
		h12.624c1.742,0,3.155,1.413,3.155,3.155V20.511z"/>
	<path fill-rule="evenodd" clip-rule="evenodd" fill="#ECEDED" d="M19.801,6.626H8.439c-1.045,0-1.893,0.848-1.893,1.894v2.524
		c0,1.045,0.848,1.893,1.893,1.893h11.361c1.046,0,1.894-0.848,1.894-1.893V8.52C21.694,7.474,20.847,6.626,19.801,6.626z
		 M15.563,11.044h-2.886c-0.598,0-1.082-0.424-1.082-0.947c0-0.522,0.484-0.946,1.082-0.946h2.886c0.597,0,1.082,0.424,1.082,0.946
		C16.646,10.62,16.16,11.044,15.563,11.044z"/>
	<path fill-rule="evenodd" clip-rule="evenodd" fill="#ECEDED" d="M19.801,15.463H8.439c-1.045,0-1.893,0.847-1.893,1.892v2.525
		c0,1.045,0.848,1.893,1.893,1.893h11.361c1.046,0,1.894-0.848,1.894-1.893v-2.525C21.694,16.31,20.847,15.463,19.801,15.463z
		 M15.563,19.88h-2.886c-0.598,0-1.082-0.424-1.082-0.947c0-0.522,0.484-0.946,1.082-0.946h2.886c0.597,0,1.082,0.424,1.082,0.946
		C16.646,19.456,16.16,19.88,15.563,19.88z"/>
</g>
</svg>
