<?xml version="1.0" encoding="utf-8"?>
<!-- Generator: Adobe Illustrator 16.2.1, SVG Export Plug-In . SVG Version: 6.00 Build 0)  -->
<!DOCTYPE svg PUBLIC "-//W3C//DTD SVG 1.1//EN" "http://www.w3.org/Graphics/SVG/1.1/DTD/svg11.dtd">
<svg version="1.1" id="Ebene_1" xmlns="http://www.w3.org/2000/svg" xmlns:xlink="http://www.w3.org/1999/xlink" x="0px" y="0px"
	 width="28.347px" height="28.347px" viewBox="0 0 28.347 28.347" enable-background="new 0 0 28.347 28.347" xml:space="preserve">
<g>
	<path fill-rule="evenodd" clip-rule="evenodd" fill="#ECEDED" d="M-0.001,0v28.348h28.348V0H-0.001z M23.585,20.51
		c0,1.742-1.413,3.155-3.155,3.155H7.806c-1.742,0-3.155-1.413-3.155-3.155V7.887c0-1.743,1.413-3.155,3.155-3.155H20.43
		c1.742,0,3.155,1.413,3.155,3.155V20.51z"/>
	<path fill-rule="evenodd" clip-rule="evenodd" fill="#ECEDED" d="M19.798,6.625H8.437c-1.045,0-1.893,0.848-1.893,1.894v2.524
		c0,1.045,0.848,1.893,1.893,1.893h11.361c1.046,0,1.894-0.848,1.894-1.893V8.519C21.691,7.473,20.844,6.625,19.798,6.625z
		 M15.561,11.043h-2.886c-0.598,0-1.082-0.424-1.082-0.947c0-0.522,0.484-0.946,1.082-0.946h2.886c0.597,0,1.082,0.424,1.082,0.946
		C16.643,10.619,16.157,11.043,15.561,11.043z"/>
	<path fill-rule="evenodd" clip-rule="evenodd" fill="#ECEDED" d="M19.798,15.462H8.437c-1.045,0-1.893,0.847-1.893,1.892v2.525
		c0,1.045,0.848,1.893,1.893,1.893h11.361c1.046,0,1.894-0.848,1.894-1.893v-2.525C21.691,16.309,20.844,15.462,19.798,15.462z
		 M15.561,19.879h-2.886c-0.598,0-1.082-0.424-1.082-0.947c0-0.522,0.484-0.946,1.082-0.946h2.886c0.597,0,1.082,0.424,1.082,0.946
		C16.643,19.455,16.157,19.879,15.561,19.879z"/>
</g>
</svg>
