<?xml version="1.0" encoding="utf-8"?>
<!-- Generator: Adobe Illustrator 16.2.1, SVG Export Plug-In . SVG Version: 6.00 Build 0)  -->
<!DOCTYPE svg PUBLIC "-//W3C//DTD SVG 1.1//EN" "http://www.w3.org/Graphics/SVG/1.1/DTD/svg11.dtd">
<svg version="1.1" id="Ebene_1" xmlns="http://www.w3.org/2000/svg" xmlns:xlink="http://www.w3.org/1999/xlink" x="0px" y="0px"
	 width="28.347px" height="28.347px" viewBox="0 0 28.347 28.347" enable-background="new 0 0 28.347 28.347" xml:space="preserve">
<path fill-rule="evenodd" clip-rule="evenodd" fill="#ECEDED" d="M0-0.001v28.348h28.348V-0.001H0z M23.995,13.401L13.961,23.437
	l-0.002-0.002c-2.466,2.428-6.432,2.418-8.883-0.033s-2.461-6.416-0.033-8.883l-0.002-0.002l7.805-7.805l1.115-1.115l1.115-1.115
	c1.847-1.847,4.842-1.847,6.689,0s1.848,4.843,0,6.69l-1.115,1.113l-1.115,1.115l-3.911,3.912l-1.405,1.406l-2.488,2.486
	l-0.004-0.002c-1.232,1.195-3.201,1.188-4.42-0.033c-1.22-1.219-1.228-3.188-0.032-4.42l-0.004-0.004l1.115-1.115l1.373-1.373
	l1.405-1.404l1.682-1.682l1.31-1.311l1.265-1.264l0.771-0.771l1.114,1.115l-1.081,1.08l-1.148,1.15l-2.342,2.34l-1.204,1.205
	l-1.189,1.189L9.5,16.747l-1.114,1.115c-0.616,0.615-0.616,1.613,0,2.229c0.616,0.617,1.614,0.617,2.229,0l1.956-1.955l1.189-1.189
	l1.204-1.203l1.227-1.227l1.971-1.971l0.259-0.26l1.114-1.113l1.115-1.115l-0.003-0.004c0.012-0.01,0.026-0.02,0.038-0.031
	c1.231-1.231,1.231-3.229,0-4.46s-3.229-1.231-4.461,0c-0.011,0.012-0.02,0.025-0.031,0.038l-0.002-0.003l-1.115,1.115l-1.115,1.115
	l-0.258,0.258l-1.973,1.972l-2.597,2.596l-2.978,2.979c-1.848,1.848-1.848,4.842,0,6.689s4.843,1.848,6.689,0l2.979-2.977
	l7.056-7.059l1.115-1.113l1.115,1.113L23.995,13.401z"/>
</svg>
