<?xml version="1.0" encoding="utf-8"?>
<!-- Generator: Adobe Illustrator 16.2.1, SVG Export Plug-In . SVG Version: 6.00 Build 0)  -->
<!DOCTYPE svg PUBLIC "-//W3C//DTD SVG 1.1//EN" "http://www.w3.org/Graphics/SVG/1.1/DTD/svg11.dtd">
<svg version="1.1" id="Ebene_1" xmlns="http://www.w3.org/2000/svg" xmlns:xlink="http://www.w3.org/1999/xlink" x="0px" y="0px"
	 width="28.347px" height="28.347px" viewBox="0 0 28.347 28.347" enable-background="new 0 0 28.347 28.347" xml:space="preserve">
<g>
	<path fill-rule="evenodd" clip-rule="evenodd" fill="#ECEDED" d="M24.804,0.001H3.544c-1.957,0-3.543,1.586-3.543,3.543v21.259
		c0,1.957,1.586,3.543,3.543,3.543h21.26c1.957,0,3.543-1.586,3.543-3.543V3.544C28.347,1.587,26.761,0.001,24.804,0.001z
		 M24.7,15.917c0,2.175-1.761,3.938-3.933,3.938h-4.263l-0.009,2.418l-1.336,1.336c-1.488,1.487-3.897,1.491-5.382,0.006
		l-5.136-6.763c-1.484-1.484-1.481-3.894,0.006-5.382l5.159-6.786c1.487-1.487,3.896-1.49,5.381-0.006l1.365,1.365l-0.009,2.42
		h4.223c2.172,0,3.933,1.763,3.933,3.938V15.917z"/>
	<path fill-rule="evenodd" clip-rule="evenodd" fill="#ECEDED" d="M19.981,10.825h-5.878l0.007-3.994
		c-0.891-0.891-2.336-0.889-3.229,0.004L6.8,12.544c-0.893,0.893-0.894,2.338-0.003,3.229l4.061,5.688
		c0.891,0.891,2.336,0.89,3.229-0.004l0.007-3.965h5.889c1.304,0,2.359-1.058,2.359-2.362v-1.942
		C22.341,11.883,21.285,10.825,19.981,10.825z"/>
</g>
</svg>
