<?xml version="1.0" encoding="utf-8"?>
<!-- Generator: Adobe Illustrator 16.2.1, SVG Export Plug-In . SVG Version: 6.00 Build 0)  -->
<!DOCTYPE svg PUBLIC "-//W3C//DTD SVG 1.1//EN" "http://www.w3.org/Graphics/SVG/1.1/DTD/svg11.dtd">
<svg version="1.1" id="Ebene_1" xmlns="http://www.w3.org/2000/svg" xmlns:xlink="http://www.w3.org/1999/xlink" x="0px" y="0px"
	 width="28.347px" height="28.347px" viewBox="0 0 28.347 28.347" enable-background="new 0 0 28.347 28.347" xml:space="preserve">
<g>
	<path fill-rule="evenodd" clip-rule="evenodd" fill="#ECEDED" d="M-0.001,0v28.348h28.348V0H-0.001z M24.696,15.914
		c0,2.174-1.761,3.938-3.933,3.938h-4.263l-0.009,2.418l-1.336,1.336c-1.488,1.486-3.897,1.49-5.382,0.006l-5.136-6.764
		c-1.484-1.484-1.481-3.893,0.006-5.381L9.804,4.68c1.487-1.487,3.896-1.49,5.381-0.006L16.55,6.04l-0.009,2.42h4.223
		c2.172,0,3.933,1.763,3.933,3.938V15.914z"/>
	<path fill-rule="evenodd" clip-rule="evenodd" fill="#ECEDED" d="M19.978,10.822H14.1l0.007-3.994
		c-0.891-0.891-2.336-0.889-3.229,0.004l-4.081,5.708c-0.893,0.893-0.894,2.338-0.003,3.229l4.061,5.688
		c0.891,0.891,2.336,0.891,3.229-0.004l0.007-3.965h5.889c1.304,0,2.359-1.057,2.359-2.362v-1.942
		C22.337,11.879,21.281,10.822,19.978,10.822z"/>
</g>
</svg>
