<?xml version="1.0" encoding="utf-8"?>
<!-- Generator: Adobe Illustrator 16.2.1, SVG Export Plug-In . SVG Version: 6.00 Build 0)  -->
<!DOCTYPE svg PUBLIC "-//W3C//DTD SVG 1.1//EN" "http://www.w3.org/Graphics/SVG/1.1/DTD/svg11.dtd">
<?xml-stylesheet type="text/css" href="../less/svg.css" ?>
<?xml-stylesheet type="text/css" href="../less/svg.css" ?>
<svg version="1.1" id="pixelegg_billed" xmlns="http://www.w3.org/2000/svg" xmlns:xlink="http://www.w3.org/1999/xlink" x="0px" y="0px"
	 width="28.347px" height="28.347px" viewBox="0 0 28.347 28.347" enable-background="new 0 0 28.347 28.347" xml:space="preserve">
<g>
	<path fill-rule="evenodd" clip-rule="evenodd" fill="#ECEDED" d="M18.212,17.285c-0.419-0.197-2.129-0.395-2.924-0.594v4.396
		c0.293-0.031,1.648-0.082,1.857-0.146c1.422-0.396,2.133-1.121,2.133-2.174C19.278,18.143,18.923,17.646,18.212,17.285z"/>
	<path fill-rule="evenodd" clip-rule="evenodd" fill="#ECEDED" d="M9.242,10.123c0,0.691,0.397,1.201,1.191,1.531
		c0.294,0.132,0.795,0.28,1.506,0.445V7.9c-0.586,0.131-1.088,0.296-1.506,0.494C9.64,8.789,9.242,9.365,9.242,10.123z"/>
	<path fill-rule="evenodd" clip-rule="evenodd" fill="#ECEDED" d="M0,0v28.348h28.346V0H0z M21.6,22.768
		c-1.298,0.857-4.137,1.4-6.312,1.631v1.926h-3.349V24.35c-2.05-0.23-3.722-0.742-5.02-1.531c-1.797-1.121-2.695-2.652-2.695-4.594
		h4.767c0.125,0.789,0.438,1.414,0.94,1.877c0.461,0.428,1.129,0.74,2.008,0.938v-5.137c-2.384-0.428-4.016-0.889-4.894-1.383
		c-1.63-0.889-2.445-2.256-2.445-4.101c0-1.712,0.794-3.128,2.383-4.248c1.212-0.856,2.865-1.383,4.956-1.581V2.021h3.349v2.667
		c1.589,0.231,4.073,0.691,5.245,1.383c1.797,1.053,2.739,2.569,2.821,4.544h-4.83c-0.082-1.119-0.731-1.91-1.943-2.371
		c0-0.033-0.021-0.05-0.063-0.05c-0.041,0-1.188-0.016-1.229-0.049v4.792l2.547,0.247c1.841,0.362,3.22,0.823,4.141,1.383
		c1.421,0.89,2.132,2.174,2.132,3.854C24.107,20.166,23.272,21.615,21.6,22.768z"/>
</g>
</svg>
