<?xml version="1.0" encoding="utf-8"?>
<!-- Generator: Adobe Illustrator 16.2.1, SVG Export Plug-In . SVG Version: 6.00 Build 0)  -->
<!DOCTYPE svg PUBLIC "-//W3C//DTD SVG 1.1//EN" "http://www.w3.org/Graphics/SVG/1.1/DTD/svg11.dtd">
<?xml-stylesheet type="text/css" href="../less/svg.css" ?>
<svg version="1.1" id="pixelegg_bookable" xmlns="http://www.w3.org/2000/svg" xmlns:xlink="http://www.w3.org/1999/xlink" x="0px" y="0px"
	 width="28.347px" height="28.347px" viewBox="0 0 28.347 28.347" enable-background="new 0 0 28.347 28.347" xml:space="preserve">
<path fill-rule="evenodd" clip-rule="evenodd" fill="#ECEDED" d="M-0.001-0.001v28.348h28.348V-0.001H-0.001z M3.507,4.999H5.32
	c0.462,0,0.836,0.394,0.836,0.879S5.783,6.757,5.32,6.757H3.507c-0.464,0-0.839-0.392-0.839-0.879
	C2.668,5.392,3.043,4.999,3.507,4.999z M3.507,9.907H5.32c0.463,0,0.836,0.396,0.836,0.881s-0.374,0.878-0.836,0.879H3.507
	c-0.464,0-0.839-0.394-0.839-0.879C2.668,10.302,3.043,9.907,3.507,9.907z M3.507,14.167H5.32c0.463,0,0.836,0.394,0.836,0.879
	c0,0.486-0.374,0.88-0.836,0.88H3.507c-0.464,0-0.839-0.394-0.839-0.88S3.043,14.167,3.507,14.167z M2.668,19.955
	c0-0.485,0.375-0.877,0.839-0.878H5.32c0.463,0,0.836,0.393,0.836,0.878c0,0.486-0.374,0.88-0.836,0.88H3.507
	C3.043,20.835,2.668,20.441,2.668,19.955z M10.037,23.327H5.392c-0.531,0-0.963-0.43-0.963-0.961v-0.838h0.89
	c0.826,0,1.5-0.705,1.5-1.57c0-0.866-0.674-1.571-1.5-1.571h-0.89v-1.769h0.89c0.826,0,1.5-0.705,1.5-1.571s-0.674-1.571-1.5-1.571
	h-0.89V12.36h0.89c0.826,0,1.5-0.706,1.5-1.572s-0.674-1.571-1.5-1.571h-0.89V7.449h0.89c0.826,0,1.5-0.704,1.5-1.571
	c0-0.866-0.674-1.57-1.5-1.57h-0.89V3.47c0-0.531,0.431-0.961,0.963-0.961h16.336c0.53,0,0.962,0.429,0.962,0.961v4.64
	L10.678,20.123L10.037,23.327z M10.779,26.225l1.485-5.137l3.717,3.669L10.779,26.225z M22.689,22.366
	c0,0.529-0.432,0.961-0.963,0.961h-2.044l3.007-2.83V22.366z M16.498,24.245l-3.716-3.668l8.175-8.072l3.716,3.668L16.498,24.245z
	 M26.354,14.513l-1.115,1.102l-3.716-3.669l1.115-1.101c0.41-0.406,1.055-0.426,1.439-0.047l2.323,2.293
	C26.784,13.472,26.765,14.108,26.354,14.513z"/>
</svg>
