<?xml version="1.0" encoding="utf-8"?>
<!-- Generator: Adobe Illustrator 16.2.1, SVG Export Plug-In . SVG Version: 6.00 Build 0)  -->
<!DOCTYPE svg PUBLIC "-//W3C//DTD SVG 1.1//EN" "http://www.w3.org/Graphics/SVG/1.1/DTD/svg11.dtd">
<?xml-stylesheet type="text/css" href="../less/svg.css" ?>
<?xml-stylesheet type="text/css" href="../less/svg.css" ?>
<svg version="1.1" xmlns="http://www.w3.org/2000/svg" xmlns:xlink="http://www.w3.org/1999/xlink" x="0px" y="0px"
	 width="28.347px" height="28.347px" viewBox="0 0 28.347 28.347" enable-background="new 0 0 28.347 28.347" xml:space="preserve">
<g id="Ebene_1">
</g>
<g id="bookable">
	<g>
		<path fill-rule="evenodd" clip-rule="evenodd" fill="#ECEDED" d="M-0.001,0v28.348h28.348V0H-0.001z M14.173,26.499
			c-6.807,0-12.325-5.519-12.325-12.325c0-6.808,5.519-12.326,12.325-12.326c6.808,0,12.326,5.519,12.326,12.326
			C26.499,20.98,20.98,26.499,14.173,26.499z"/>
		<path fill-rule="evenodd" clip-rule="evenodd" fill="#ECEDED" d="M14.173,4.587c-5.294,0-9.586,4.292-9.586,9.587
			s4.292,9.586,9.586,9.586c5.295,0,9.588-4.291,9.588-9.586S19.468,4.587,14.173,4.587z M14.173,21.934
			c-4.286,0-7.76-3.475-7.76-7.76c0-4.287,3.474-7.761,7.76-7.761s7.761,3.474,7.761,7.761
			C21.934,18.459,18.459,21.934,14.173,21.934z"/>
		<circle fill-rule="evenodd" clip-rule="evenodd" fill="#ECEDED" cx="14.173" cy="14.173" r="4.108"/>
	</g>
</g>
</svg>
