<?xml version="1.0" encoding="utf-8"?>
<!-- Generator: Adobe Illustrator 15.0.0, SVG Export Plug-In . SVG Version: 6.00 Build 0)  -->
<!DOCTYPE svg PUBLIC "-//W3C//DTD SVG 1.1//EN" "http://www.w3.org/Graphics/SVG/1.1/DTD/svg11.dtd">
<?xml-stylesheet type="text/css" href="../less/svg.css" ?>
<svg version="1.1" id="pixelegg_bullet" xmlns="http://www.w3.org/2000/svg" xmlns:xlink="http://www.w3.org/1999/xlink" x="0px" y="0px"
	 width="32px" height="32px" viewBox="0 0 32 32" enable-background="new 0 0 32 32" xml:space="preserve">
<g>
	<g>
		<path fill="#696969" d="M16,8c-4.694,0-8.5,3.806-8.5,8.5c0,4.695,3.806,8.5,8.5,8.5
			c4.694,0,8.5-3.805,8.5-8.5C24.5,11.806,20.693,8,16,8z M16,21c-2.485,0-4.5-2.014-4.5-4.5c0-2.485,2.015-4.5,4.5-4.5
			c2.485,0,4.5,2.015,4.5,4.5C20.5,18.986,18.484,21,16,21z M16,3C8.543,3,2.5,9.044,2.5,16.5C2.5,23.957,8.543,30,16,30
			c7.456,0,13.5-6.043,13.5-13.5C29.5,9.044,23.455,3,16,3z M16,27c-5.799,0-10.5-4.701-10.5-10.5C5.5,10.702,10.201,6,16,6
			c5.799,0,10.5,4.701,10.5,10.5C26.5,22.299,21.799,27,16,27z"/>
	</g>
</g>
</svg>
