<?xml version="1.0" encoding="utf-8"?>
<!-- Generator: Adobe Illustrator 16.2.1, SVG Export Plug-In . SVG Version: 6.00 Build 0)  -->
<!DOCTYPE svg PUBLIC "-//W3C//DTD SVG 1.1//EN" "http://www.w3.org/Graphics/SVG/1.1/DTD/svg11.dtd">
<svg version="1.1" id="cake" xmlns="http://www.w3.org/2000/svg" xmlns:xlink="http://www.w3.org/1999/xlink" x="0px" y="0px"
	 width="28.347px" height="28.347px" viewBox="0 0 28.347 28.347" enable-background="new 0 0 28.347 28.347" xml:space="preserve">
<path fill-rule="evenodd" clip-rule="evenodd" fill="#ECEDED" d="M0,0v28.348h28.346V0H0z M19.264,4.385c0,0,3.41,0.347,3.722,3.557
	c0,0.931-0.198,2.234-0.529,2.914c-0.376-2.29-1.951-2.914-1.951-2.914s-1.538,0.687-1.878,3.062
	c-0.376-0.701-0.603-1.617-0.603-2.617C19.612,5.565,19.264,4.385,19.264,4.385z M21.744,11.66v2.646h-2.48V11.66H21.744z
	 M13.063,4.385c0,0,3.41,0.347,3.721,3.557c0,0.931-0.197,2.234-0.529,2.914c-0.376-2.29-1.951-2.914-1.951-2.914
	s-1.538,0.687-1.876,3.062c-0.376-0.701-0.604-1.617-0.604-2.617C13.412,5.565,13.063,4.385,13.063,4.385z M15.544,11.66v2.646
	h-2.48V11.66H15.544z M6.863,4.385c0,0,3.411,0.347,3.72,3.557c0,0.931-0.197,2.234-0.527,2.914C9.68,8.565,8.103,7.941,8.103,7.941
	s-1.537,0.687-1.876,3.062c-0.376-0.701-0.604-1.617-0.604-2.617C7.212,5.565,6.863,4.385,6.863,4.385z M9.344,11.66v2.646h-2.48
	V11.66H9.344z M24.225,22.916c0,0.725-0.555,1.311-1.239,1.311H5.623c-0.685,0-1.24-0.586-1.24-1.311v-0.674l19.842,0.021V22.916z
	 M24.225,20.92H4.383v-2.646h19.842V20.92z M24.225,16.932l-19.842,0.02v-0.676c0-0.723,0.556-1.309,1.24-1.309h17.362
	c0.685,0,1.239,0.586,1.239,1.309V16.932z"/>
</svg>
