<?xml version="1.0" encoding="utf-8"?>
<!-- Generator: Adobe Illustrator 16.2.1, SVG Export Plug-In . SVG Version: 6.00 Build 0)  -->
<!DOCTYPE svg PUBLIC "-//W3C//DTD SVG 1.1//EN" "http://www.w3.org/Graphics/SVG/1.1/DTD/svg11.dtd">
<svg version="1.1" id="Ebene_1" xmlns="http://www.w3.org/2000/svg" xmlns:xlink="http://www.w3.org/1999/xlink" x="0px" y="0px"
	 width="28.347px" height="28.347px" viewBox="0 0 28.347 28.347" enable-background="new 0 0 28.347 28.347" xml:space="preserve">
<path fill-rule="evenodd" clip-rule="evenodd" fill="#ECEDED" d="M24.803,0.001H3.543C1.586,0.001,0,1.587,0,3.544v21.259
	c0,1.957,1.586,3.543,3.543,3.543h21.26c1.957,0,3.543-1.586,3.543-3.543V3.544C28.346,1.587,26.76,0.001,24.803,0.001z
	 M19.268,4.388c0,0,3.41,0.347,3.722,3.557c0,0.931-0.198,2.234-0.529,2.914c-0.376-2.29-1.951-2.914-1.951-2.914
	s-1.538,0.687-1.878,3.062c-0.376-0.701-0.603-1.617-0.603-2.617C19.616,5.568,19.268,4.388,19.268,4.388z M21.748,11.663v2.646
	h-2.48v-2.646H21.748z M13.067,4.388c0,0,3.41,0.347,3.721,3.557c0,0.931-0.197,2.234-0.529,2.914
	c-0.376-2.29-1.951-2.914-1.951-2.914s-1.538,0.687-1.876,3.062c-0.376-0.701-0.604-1.617-0.604-2.617
	C13.416,5.568,13.067,4.388,13.067,4.388z M15.548,11.663v2.646h-2.48v-2.646H15.548z M6.867,4.388c0,0,3.411,0.347,3.72,3.557
	c0,0.931-0.197,2.234-0.527,2.914c-0.376-2.29-1.953-2.914-1.953-2.914S6.569,8.632,6.23,11.007C5.854,10.306,5.627,9.39,5.627,8.39
	C7.216,5.568,6.867,4.388,6.867,4.388z M9.348,11.663v2.646h-2.48v-2.646H9.348z M24.229,22.92c0,0.724-0.555,1.31-1.239,1.31H5.627
	c-0.685,0-1.24-0.586-1.24-1.31v-0.675l19.842,0.021V22.92z M24.229,20.923H4.387v-2.646h19.842V20.923z M24.229,16.935
	L4.387,16.955v-0.676c0-0.723,0.556-1.31,1.24-1.31h17.362c0.685,0,1.239,0.587,1.239,1.31V16.935z"/>
</svg>
