<?xml version="1.0" encoding="utf-8"?>
<!-- Generator: Adobe Illustrator 16.2.1, SVG Export Plug-In . SVG Version: 6.00 Build 0)  -->
<!DOCTYPE svg PUBLIC "-//W3C//DTD SVG 1.1//EN" "http://www.w3.org/Graphics/SVG/1.1/DTD/svg11.dtd">
<?xml-stylesheet type="text/css" href="../less/svg.css" ?>
<svg version="1.1" id="pixelegg_calendar" xmlns="http://www.w3.org/2000/svg" xmlns:xlink="http://www.w3.org/1999/xlink" x="0px" y="0px"
	 width="28.347px" height="28.347px" viewBox="0 0 28.347 28.347" enable-background="new 0 0 28.347 28.347" xml:space="preserve">
<g>
	<path fill-rule="evenodd" clip-rule="evenodd" fill="#ECEDED" d="M0.001,0v28.348h28.346V0H0.001z M16.939,5.019
		c0-0.778,0.63-1.409,1.408-1.409c0.777,0,1.408,0.63,1.408,1.409v2.112c0,0.778-0.631,1.408-1.408,1.408
		c-0.778,0-1.408-0.63-1.408-1.408V5.019z M8.583,5.019c0-0.778,0.631-1.409,1.407-1.409c0.779,0,1.409,0.63,1.409,1.409v2.112
		c0,0.778-0.63,1.408-1.409,1.408c-0.776,0-1.407-0.63-1.407-1.408V5.019z M24.374,8.895v12.668c0,1.748-1.421,3.166-3.17,3.166
		H7.134c-1.752,0-3.169-1.418-3.169-3.166V8.895V8.893c0-1.746,1.417-3.167,3.169-3.167h0.562v2.261c0,0.845,0.685,1.531,1.53,1.531
		h1.53c0.846,0,1.53-0.686,1.53-1.531V5.726h3.765v2.261c0,0.845,0.686,1.531,1.53,1.531h1.531c0.845,0,1.529-0.686,1.529-1.531
		V5.726h0.562c1.749,0,3.17,1.42,3.17,3.167V8.895z"/>
	<path fill-rule="evenodd" clip-rule="evenodd" fill="#ECEDED" d="M6.223,21.506c0,0.521,0.426,0.949,0.949,0.949h14.127
		c0.524,0,0.947-0.428,0.947-0.949v-8.181H6.223V21.506z M15.344,15.48h0.222c1.484,0,1.881-0.743,1.913-1.306h1.267v7.536h-1.542
		v-5.189h-1.859V15.48z M12.235,20.725c0.616,0,1.157-0.404,1.157-1.242c0-1.029-1.036-1.072-1.751-1.072V17.35h0.241
		c0.462,0,1.311-0.043,1.311-1.021c0-0.275-0.133-0.965-0.98-0.965c-1.057,0-1.057,0.965-1.057,1.23H9.726
		c0-1.412,0.826-2.419,2.587-2.419c1.046,0,2.423,0.509,2.423,2.101c0,0.766-0.495,1.244-0.935,1.434v0.021
		c0.273,0.074,1.177,0.469,1.177,1.752c0,1.424-1.09,2.432-2.665,2.432c-0.738,0-2.719-0.16-2.719-2.516h1.508l-0.012,0.01
		C11.09,19.811,11.2,20.725,12.235,20.725z"/>
</g>
</svg>
