<?xml version="1.0" encoding="utf-8"?>
<!-- Generator: Adobe Illustrator 16.2.1, SVG Export Plug-In . SVG Version: 6.00 Build 0)  -->
<!DOCTYPE svg PUBLIC "-//W3C//DTD SVG 1.1//EN" "http://www.w3.org/Graphics/SVG/1.1/DTD/svg11.dtd">
<svg version="1.1" id="Ebene_1" xmlns="http://www.w3.org/2000/svg" xmlns:xlink="http://www.w3.org/1999/xlink" x="0px" y="0px"
	 width="28.347px" height="28.347px" viewBox="0 0 28.347 28.347" enable-background="new 0 0 28.347 28.347" xml:space="preserve">
<g>
	<path fill-rule="evenodd" clip-rule="evenodd" fill="#ECEDED" d="M24.803,0.001H3.543C1.586,0.001,0,1.587,0,3.544v21.259
		c0,1.957,1.586,3.543,3.543,3.543h21.26c1.957,0,3.543-1.586,3.543-3.543V3.544C28.346,1.587,26.76,0.001,24.803,0.001z
		 M16.942,5.022c0-0.778,0.63-1.409,1.408-1.409c0.777,0,1.408,0.63,1.408,1.409v2.112c0,0.778-0.631,1.408-1.408,1.408
		c-0.778,0-1.408-0.63-1.408-1.408V5.022z M8.586,5.022c0-0.778,0.631-1.409,1.407-1.409c0.779,0,1.409,0.63,1.409,1.409v2.112
		c0,0.778-0.63,1.408-1.409,1.408c-0.776,0-1.407-0.63-1.407-1.408V5.022z M24.377,8.898v12.668c0,1.748-1.421,3.166-3.17,3.166
		H7.137c-1.752,0-3.169-1.418-3.169-3.166V8.898V8.896c0-1.746,1.417-3.167,3.169-3.167h0.562V7.99c0,0.845,0.685,1.531,1.53,1.531
		h1.53c0.846,0,1.53-0.686,1.53-1.531V5.729h3.765V7.99c0,0.845,0.686,1.531,1.53,1.531h1.531c0.845,0,1.529-0.686,1.529-1.531
		V5.729h0.562c1.749,0,3.17,1.42,3.17,3.167V8.898z"/>
	<path fill-rule="evenodd" clip-rule="evenodd" fill="#ECEDED" d="M6.226,13.329v8.18c0,0.521,0.426,0.949,0.949,0.949h14.127
		c0.524,0,0.947-0.428,0.947-0.949v-8.18H6.226z M12.315,21.917c-0.738,0-2.719-0.159-2.719-2.516h1.508l-0.012,0.01
		c0,0.402,0.11,1.316,1.146,1.316c0.616,0,1.157-0.404,1.157-1.241c0-1.03-1.036-1.072-1.751-1.072v-1.062h0.241
		c0.462,0,1.311-0.042,1.311-1.021c0-0.275-0.133-0.966-0.98-0.966c-1.057,0-1.057,0.966-1.057,1.231H9.729
		c0-1.412,0.826-2.419,2.587-2.419c1.046,0,2.423,0.509,2.423,2.101c0,0.765-0.495,1.243-0.935,1.434v0.021
		c0.273,0.074,1.177,0.469,1.177,1.753C14.98,20.909,13.891,21.917,12.315,21.917z M18.748,21.715h-1.542v-5.19h-1.859v-1.041h0.222
		c1.484,0,1.881-0.742,1.913-1.305h1.267V21.715z"/>
</g>
</svg>
