<?xml version="1.0" encoding="utf-8"?>
<!-- Generator: Adobe Illustrator 16.2.1, SVG Export Plug-In . SVG Version: 6.00 Build 0)  -->
<!DOCTYPE svg PUBLIC "-//W3C//DTD SVG 1.1//EN" "http://www.w3.org/Graphics/SVG/1.1/DTD/svg11.dtd">
<svg version="1.1" id="Ebene_1" xmlns="http://www.w3.org/2000/svg" xmlns:xlink="http://www.w3.org/1999/xlink" x="0px" y="0px"
	 width="28.347px" height="28.347px" viewBox="0 0 28.347 28.347" enable-background="new 0 0 28.347 28.347" xml:space="preserve">
<g>
	<path fill-rule="evenodd" clip-rule="evenodd" fill="#ECEDED" d="M24.804,0.001H3.544c-1.957,0-3.543,1.586-3.543,3.543v21.259
		c0,1.957,1.586,3.543,3.543,3.543h21.26c1.957,0,3.543-1.586,3.543-3.543V3.544C28.347,1.587,26.761,0.001,24.804,0.001z
		 M16.983,4.506c0-0.808,0.653-1.462,1.462-1.462c0.808,0,1.462,0.654,1.462,1.462V6.7c0,0.808-0.654,1.464-1.462,1.464
		c-0.809,0-1.462-0.656-1.462-1.464V4.506z M8.441,4.506c0-0.808,0.654-1.462,1.462-1.462s1.463,0.654,1.463,1.462V6.7
		c0,0.808-0.655,1.464-1.463,1.464S8.441,7.508,8.441,6.7V4.506z M23.685,23.527c0,0.806-0.656,1.462-1.463,1.462H6.127
		c-0.807,0-1.463-0.656-1.463-1.462V6.7c0-0.808,0.656-1.462,1.463-1.462h1.367v2.373c0,0.887,0.72,1.606,1.606,1.606h1.605
		c0.887,0,1.607-0.719,1.607-1.606V5.238h3.722v2.373c0,0.887,0.721,1.606,1.607,1.606h1.605c0.887,0,1.606-0.719,1.606-1.606V5.238
		h1.367c0.807,0,1.463,0.655,1.463,1.462V23.527z"/>
	<path fill-rule="evenodd" clip-rule="evenodd" fill="#ECEDED" d="M6.859,10.358h4.39v3.656h-4.39V10.358z"/>
	<path fill-rule="evenodd" clip-rule="evenodd" fill="#ECEDED" d="M11.98,10.358h4.388v3.656H11.98V10.358z"/>
	<path fill-rule="evenodd" clip-rule="evenodd" fill="#ECEDED" d="M17.1,10.358h4.39v3.656H17.1V10.358z"/>
	<path fill-rule="evenodd" clip-rule="evenodd" fill="#ECEDED" d="M6.859,14.749h4.39v3.656h-4.39V14.749z"/>
	<path fill-rule="evenodd" clip-rule="evenodd" fill="#ECEDED" d="M11.98,14.749h4.388v3.656H11.98V14.749z"/>
	<path fill-rule="evenodd" clip-rule="evenodd" fill="#ECEDED" d="M6.859,19.138h4.39v3.656h-4.39V19.138z"/>
	<path fill-rule="evenodd" clip-rule="evenodd" fill="#ECEDED" d="M11.98,19.138h4.388v3.656H11.98V19.138z"/>
	<path fill-rule="evenodd" clip-rule="evenodd" fill="#ECEDED" d="M17.1,19.138h4.39v3.656H17.1V19.138z"/>
</g>
</svg>
