<?xml version="1.0" encoding="utf-8"?>
<!-- Generator: Adobe Illustrator 16.2.1, SVG Export Plug-In . SVG Version: 6.00 Build 0)  -->
<!DOCTYPE svg PUBLIC "-//W3C//DTD SVG 1.1//EN" "http://www.w3.org/Graphics/SVG/1.1/DTD/svg11.dtd">
<?xml-stylesheet type="text/css" href="../less/svg.css" ?>
<?xml-stylesheet type="text/css" href="../less/svg.css" ?>
<svg version="1.1" id="pixelegg_calicon" xmlns="http://www.w3.org/2000/svg" xmlns:xlink="http://www.w3.org/1999/xlink" x="0px" y="0px"
	 width="28.347px" height="28.347px" viewBox="0 0 28.347 28.347" enable-background="new 0 0 28.347 28.347" xml:space="preserve">
<g>
	<path fill-rule="evenodd" clip-rule="evenodd" fill="#ECEDED" d="M0,0v28.348h28.346V0H0z M16.982,4.502
		c0-0.808,0.653-1.462,1.462-1.462c0.808,0,1.462,0.654,1.462,1.462v2.194c0,0.808-0.654,1.464-1.462,1.464
		c-0.809,0-1.462-0.656-1.462-1.464V4.502z M8.44,4.502c0-0.808,0.654-1.462,1.462-1.462s1.463,0.654,1.463,1.462v2.194
		c0,0.808-0.655,1.464-1.463,1.464S8.44,7.505,8.44,6.697V4.502z M23.684,23.523c0,0.807-0.656,1.463-1.463,1.463H6.126
		c-0.807,0-1.463-0.656-1.463-1.463V6.697c0-0.808,0.656-1.462,1.463-1.462h1.367v2.373c0,0.887,0.72,1.606,1.606,1.606h1.605
		c0.887,0,1.607-0.719,1.607-1.606V5.234h3.722v2.373c0,0.887,0.721,1.606,1.607,1.606h1.605c0.887,0,1.606-0.719,1.606-1.606V5.234
		h1.367c0.807,0,1.463,0.655,1.463,1.462V23.523z"/>
	<rect x="6.858" y="10.355" fill-rule="evenodd" clip-rule="evenodd" fill="#ECEDED" width="4.39" height="3.656"/>
	<rect x="11.979" y="10.355" fill-rule="evenodd" clip-rule="evenodd" fill="#ECEDED" width="4.388" height="3.656"/>
	<rect x="17.099" y="10.355" fill-rule="evenodd" clip-rule="evenodd" fill="#ECEDED" width="4.39" height="3.656"/>
	<rect x="6.858" y="14.746" fill-rule="evenodd" clip-rule="evenodd" fill="#ECEDED" width="4.39" height="3.657"/>
	<rect x="11.979" y="14.746" fill-rule="evenodd" clip-rule="evenodd" fill="#ECEDED" width="4.388" height="3.657"/>
	<rect x="6.858" y="19.135" fill-rule="evenodd" clip-rule="evenodd" fill="#ECEDED" width="4.39" height="3.656"/>
	<rect x="11.979" y="19.135" fill-rule="evenodd" clip-rule="evenodd" fill="#ECEDED" width="4.388" height="3.656"/>
	<rect x="17.099" y="19.135" fill-rule="evenodd" clip-rule="evenodd" fill="#ECEDED" width="4.39" height="3.656"/>
</g>
</svg>
