<?xml version="1.0" encoding="utf-8"?>
<!-- Generator: Adobe Illustrator 16.2.1, SVG Export Plug-In . SVG Version: 6.00 Build 0)  -->
<!DOCTYPE svg PUBLIC "-//W3C//DTD SVG 1.1//EN" "http://www.w3.org/Graphics/SVG/1.1/DTD/svg11.dtd">
<svg version="1.1" id="call" xmlns="http://www.w3.org/2000/svg" xmlns:xlink="http://www.w3.org/1999/xlink" x="0px" y="0px"
	 width="28.347px" height="28.347px" viewBox="0 0 28.347 28.347" enable-background="new 0 0 28.347 28.347" xml:space="preserve">
<path fill-rule="evenodd" clip-rule="evenodd" fill="#ECEDED" d="M-0.001,0v28.348h28.348V0H-0.001z M23.679,22.268l-0.882,0.865
	l-0.019-0.016c-0.373,0.291-0.801,0.535-1.261,0.715C21.09,24,20.67,24.104,20.231,24.156c-0.202,0.021-4.871,0.461-10.666-5.35
	c-4.191-4.203-5.736-7.301-5.328-10.69C4.284,7.694,4.389,7.272,4.556,6.83c0.182-0.464,0.426-0.895,0.718-1.268L5.249,5.538
	l0.87-0.877c0.638-0.64,1.657-0.658,2.271-0.043l3.088,3.097c0.613,0.616,0.596,1.637-0.042,2.276l-0.513,0.516l-1.045,1.046
	c0.055,0.096,0.11,0.195,0.168,0.301c0.546,0.984,1.293,2.336,2.711,3.758c1.416,1.42,2.76,2.168,3.742,2.713
	c0.107,0.061,0.209,0.117,0.307,0.172l1.557-1.561c0.636-0.637,1.654-0.656,2.27-0.043l3.088,3.098
	C24.333,20.607,24.315,21.629,23.679,22.268z"/>
</svg>
