<?xml version="1.0" encoding="utf-8"?>
<!-- Generator: Adobe Illustrator 16.2.1, SVG Export Plug-In . SVG Version: 6.00 Build 0)  -->
<!DOCTYPE svg PUBLIC "-//W3C//DTD SVG 1.1//EN" "http://www.w3.org/Graphics/SVG/1.1/DTD/svg11.dtd">
<svg version="1.1" id="Ebene_1" xmlns="http://www.w3.org/2000/svg" xmlns:xlink="http://www.w3.org/1999/xlink" x="0px" y="0px"
	 width="28.347px" height="28.347px" viewBox="0 0 28.347 28.347" enable-background="new 0 0 28.347 28.347" xml:space="preserve">
<path fill-rule="evenodd" clip-rule="evenodd" fill="#ECEDED" d="M24.803,0H3.543C1.586,0,0,1.586,0,3.543v21.259
	c0,1.957,1.586,3.543,3.543,3.543h21.26c1.957,0,3.543-1.586,3.543-3.543V3.543C28.346,1.586,26.76,0,24.803,0z M23.682,22.271
	L22.8,23.136l-0.019-0.016c-0.373,0.291-0.801,0.535-1.261,0.715c-0.428,0.167-0.848,0.271-1.286,0.324
	c-0.202,0.021-4.871,0.461-10.666-5.35c-4.191-4.203-5.736-7.302-5.328-10.69c0.047-0.423,0.151-0.845,0.318-1.287
	C4.74,6.368,4.984,5.938,5.276,5.564L5.252,5.541l0.87-0.877C6.76,4.023,7.779,4.005,8.393,4.62l3.088,3.097
	c0.613,0.616,0.596,1.637-0.042,2.276l-0.513,0.516l-1.045,1.046c0.055,0.096,0.11,0.195,0.168,0.301
	c0.546,0.984,1.293,2.336,2.711,3.758c1.416,1.421,2.76,2.168,3.742,2.714c0.107,0.061,0.209,0.117,0.307,0.172l1.557-1.561
	c0.636-0.638,1.654-0.656,2.27-0.043l3.088,3.098C24.336,20.61,24.318,21.631,23.682,22.271z"/>
</svg>
