<?xml version="1.0" encoding="utf-8"?>
<!-- Generator: Adobe Illustrator 16.2.1, SVG Export Plug-In . SVG Version: 6.00 Build 0)  -->
<!DOCTYPE svg PUBLIC "-//W3C//DTD SVG 1.1//EN" "http://www.w3.org/Graphics/SVG/1.1/DTD/svg11.dtd">
<svg version="1.1" id="check" xmlns="http://www.w3.org/2000/svg" xmlns:xlink="http://www.w3.org/1999/xlink" x="0px" y="0px"
	 width="28.347px" height="28.347px" viewBox="0 0 28.347 28.347" enable-background="new 0 0 28.347 28.347" xml:space="preserve">
<path fill-rule="evenodd" clip-rule="evenodd" fill="#ECEDED" d="M0.001,0v28.348h28.346V0H0.001z M23.626,11.887l-10.872,9.061
	c-0.364,0.303-0.805,0.482-1.265,0.602c-0.28,0.094-0.565,0.148-0.857,0.141c-0.805,0.01-1.612-0.23-2.226-0.742
	c-0.996-1.006-2.999-3.506-2.999-3.506c-0.976-0.975-0.976-2.557,0-3.531s2.556-0.975,3.53,0l1.62,1.619l8.72-7.266
	c1.2-1,3.146-1,4.349,0C24.826,9.264,24.826,10.887,23.626,11.887z"/>
</svg>
