<?xml version="1.0" encoding="utf-8"?>
<!-- Generator: Adobe Illustrator 16.2.1, SVG Export Plug-In . SVG Version: 6.00 Build 0)  -->
<!DOCTYPE svg PUBLIC "-//W3C//DTD SVG 1.1//EN" "http://www.w3.org/Graphics/SVG/1.1/DTD/svg11.dtd">
<?xml-stylesheet type="text/css" href="../less/svg.css" ?>
<?xml-stylesheet type="text/css" href="../less/svg.css" ?>
<svg version="1.1" id="pixelegg_configure" xmlns="http://www.w3.org/2000/svg" xmlns:xlink="http://www.w3.org/1999/xlink" x="0px" y="0px"
	 width="28.347px" height="28.347px" viewBox="0 0 28.347 28.347" enable-background="new 0 0 28.347 28.347" xml:space="preserve">
<g>
	<path fill="#ECEDED" d="M21.144,12.189l-0.588-1.371l0.163-0.363c0.22-0.497,0.771-1.722,0.907-2.216l-1.359-1.307
		c-0.176,0.052-0.734,0.244-2.264,0.925l-0.365,0.163l-1.415-0.562l-0.147-0.361c-0.208-0.506-0.722-1.756-0.984-2.192h-1.928
		c-0.258,0.452-0.744,1.728-0.914,2.183l-0.145,0.377l-1.413,0.563l-0.354-0.149C8.791,7.237,8.213,7.052,8.009,6.999L6.653,8.304
		c0.151,0.5,0.738,1.723,0.95,2.159l0.179,0.37l-0.587,1.368l-0.369,0.142c-0.575,0.219-1.83,0.699-2.28,0.947v1.851
		c0.46,0.247,1.749,0.699,2.269,0.882L7.2,16.159l0.586,1.367l-0.163,0.362c-0.221,0.495-0.771,1.72-0.907,2.216l1.358,1.307
		c0.175-0.052,0.736-0.244,2.263-0.924l0.364-0.163l1.416,0.562l0.148,0.361c0.209,0.506,0.721,1.757,0.983,2.192h1.929
		c0.259-0.45,0.745-1.728,0.916-2.183l0.146-0.375l1.417-0.564l0.354,0.148c1.543,0.643,2.119,0.828,2.324,0.883l1.356-1.309
		c-0.153-0.497-0.742-1.721-0.951-2.154l-0.178-0.369l0.584-1.37l0.369-0.144c0.524-0.201,1.825-0.695,2.281-0.953v-1.844
		c-0.463-0.246-1.749-0.698-2.267-0.882L21.144,12.189z M14.172,18.062c-2.223,0-4.03-1.745-4.03-3.887
		c0-2.143,1.808-3.886,4.03-3.886s4.03,1.743,4.03,3.886C18.202,16.316,16.395,18.062,14.172,18.062z"/>
	<path fill="#ECEDED" d="M0-0.001v28.348h28.348V-0.001H0z M26.063,16.372l-1.151,0.651c-0.369,0.208-0.938,0.453-1.712,0.759
		c0.346,0.748,0.551,1.243,0.657,1.59l0.411,1.332l-3.284,3.168l-1.239-0.334c-0.379-0.102-0.985-0.32-1.843-0.665
		c-0.473,1.2-0.682,1.563-0.759,1.697l-0.654,1.137h-4.521l-0.661-1.097c-0.221-0.365-0.482-0.937-0.812-1.717
		c-0.812,0.35-1.405,0.582-1.771,0.691l-1.269,0.379l-3.284-3.16l0.358-1.301c0.109-0.396,0.326-0.943,0.637-1.662
		c-0.752-0.274-1.324-0.504-1.691-0.701l-1.196-0.642V11.95l1.173-0.646c0.328-0.18,0.841-0.406,1.69-0.74
		C4.639,9.476,4.525,9.102,4.482,8.96L4.081,7.632l3.271-3.147l1.229,0.32c0.378,0.099,0.99,0.318,1.858,0.666
		c0.312-0.789,0.564-1.358,0.754-1.689l0.652-1.145h4.527l0.661,1.098c0.221,0.368,0.489,0.954,0.812,1.715
		c0.825-0.355,1.421-0.587,1.78-0.693l1.263-0.372l3.283,3.157l-0.36,1.303c-0.108,0.389-0.325,0.937-0.638,1.661
		c0.761,0.279,1.324,0.505,1.685,0.696l1.205,0.64V16.372z"/>
</g>
</svg>
