<?xml version="1.0" encoding="utf-8"?>
<!-- Generator: Adobe Illustrator 16.2.1, SVG Export Plug-In . SVG Version: 6.00 Build 0)  -->
<!DOCTYPE svg PUBLIC "-//W3C//DTD SVG 1.1//EN" "http://www.w3.org/Graphics/SVG/1.1/DTD/svg11.dtd">
<?xml-stylesheet type="text/css" href="../less/svg.css" ?>
<svg version="1.1" id="pixelegg_continue" xmlns="http://www.w3.org/2000/svg" xmlns:xlink="http://www.w3.org/1999/xlink" x="0px" y="0px"
	 width="28.347px" height="28.347px" viewBox="0 0 28.347 28.347" enable-background="new 0 0 28.347 28.347" xml:space="preserve">
<g>
	<path fill-rule="evenodd" clip-rule="evenodd" fill="#ECEDED" d="M0,0v28.348h28.348V0H0z M3.65,12.396
		c0-2.174,1.761-3.938,3.933-3.938h4.223l-0.009-2.42l1.365-1.365c1.484-1.484,3.894-1.481,5.381,0.006l5.159,6.787
		c1.487,1.488,1.49,3.896,0.006,5.381l-5.136,6.764c-1.484,1.484-3.894,1.48-5.382-0.006l-1.336-1.336l-0.009-2.418H7.583
		c-2.172,0-3.933-1.764-3.933-3.938V12.396z"/>
	<path fill-rule="evenodd" clip-rule="evenodd" fill="#ECEDED" d="M8.369,10.822h5.878L14.24,6.828
		c0.891-0.891,2.336-0.889,3.229,0.004l4.081,5.709c0.893,0.892,0.894,2.338,0.003,3.229l-4.061,5.688
		c-0.891,0.891-2.336,0.891-3.229-0.004l-0.007-3.965H8.369c-1.304,0-2.359-1.057-2.359-2.361v-1.943
		C6.01,11.879,7.065,10.822,8.369,10.822z"/>
</g>
</svg>
