<?xml version="1.0" encoding="utf-8"?>
<!-- Generator: Adobe Illustrator 16.2.1, SVG Export Plug-In . SVG Version: 6.00 Build 0)  -->
<!DOCTYPE svg PUBLIC "-//W3C//DTD SVG 1.1//EN" "http://www.w3.org/Graphics/SVG/1.1/DTD/svg11.dtd">
<svg version="1.1" id="date" xmlns="http://www.w3.org/2000/svg" xmlns:xlink="http://www.w3.org/1999/xlink" x="0px" y="0px"
	 width="28.347px" height="28.347px" viewBox="0 0 28.347 28.347" enable-background="new 0 0 28.347 28.347" xml:space="preserve">
<g>
	<path fill-rule="evenodd" clip-rule="evenodd" fill="#ECEDED" d="M0-0.001v28.348h28.346V-0.001H0z M16.982,4.501
		c0-0.808,0.653-1.462,1.462-1.462c0.808,0,1.462,0.654,1.462,1.462v2.195c0,0.808-0.654,1.463-1.462,1.463
		c-0.809,0-1.462-0.655-1.462-1.463V4.501z M8.44,4.501c0-0.808,0.654-1.462,1.462-1.462s1.463,0.654,1.463,1.462v2.195
		c0,0.808-0.655,1.463-1.463,1.463S8.44,7.504,8.44,6.696V4.501z M23.684,23.522c0,0.807-0.656,1.463-1.463,1.463H6.126
		c-0.807,0-1.463-0.656-1.463-1.463V6.696c0-0.809,0.656-1.463,1.463-1.463h1.367v2.373c0,0.887,0.72,1.605,1.606,1.605h1.605
		c0.887,0,1.607-0.719,1.607-1.605V5.233h3.722v2.373c0,0.887,0.721,1.605,1.607,1.605h1.605c0.887,0,1.606-0.719,1.606-1.605V5.233
		h1.367c0.807,0,1.463,0.654,1.463,1.463V23.522z"/>
	<rect x="6.858" y="10.354" fill-rule="evenodd" clip-rule="evenodd" fill="#ECEDED" width="4.39" height="3.656"/>
	<rect x="11.979" y="10.354" fill-rule="evenodd" clip-rule="evenodd" fill="#ECEDED" width="4.388" height="3.656"/>
	<rect x="17.099" y="10.354" fill-rule="evenodd" clip-rule="evenodd" fill="#ECEDED" width="4.39" height="3.656"/>
	<rect x="6.858" y="14.744" fill-rule="evenodd" clip-rule="evenodd" fill="#ECEDED" width="4.39" height="3.657"/>
	<rect x="11.979" y="14.744" fill-rule="evenodd" clip-rule="evenodd" fill="#ECEDED" width="4.388" height="3.657"/>
	<rect x="6.858" y="19.134" fill-rule="evenodd" clip-rule="evenodd" fill="#ECEDED" width="4.39" height="3.656"/>
	<rect x="11.979" y="19.134" fill-rule="evenodd" clip-rule="evenodd" fill="#ECEDED" width="4.388" height="3.656"/>
	<rect x="17.099" y="19.134" fill-rule="evenodd" clip-rule="evenodd" fill="#ECEDED" width="4.39" height="3.656"/>
</g>
</svg>
