<?xml version="1.0" encoding="utf-8"?>
<!-- Generator: Adobe Illustrator 15.0.0, SVG Export Plug-In . SVG Version: 6.00 Build 0)  -->
<!DOCTYPE svg PUBLIC "-//W3C//DTD SVG 1.1//EN" "http://www.w3.org/Graphics/SVG/1.1/DTD/svg11.dtd">
<?xml-stylesheet type="text/css" href="../less/svg.css" ?>
<svg version="1.1" id="pixelegg_delete" xmlns="http://www.w3.org/2000/svg" xmlns:xlink="http://www.w3.org/1999/xlink" x="0px" y="0px"
	 width="32px" height="32px" viewBox="0 0 32 32" enable-background="new 0 0 32 32" xml:space="preserve">
<g>
	<g>
		<path fill="#696969" stroke="#E6E6E6" stroke-miterlimit="10" d="M3.464,6.728L3.433,6.807h26.101l-0.032-0.079
			c0.578-0.191,0.999-0.73,0.999-1.373c0-0.801-0.65-1.451-1.451-1.451c-0.223,0-0.43,0.054-0.619,0.144l-0.83-2.08h-7.733
			C19.866,1.433,19.434,1,18.899,1h-5.8c-0.534,0-0.967,0.433-0.967,0.968H5.366l-0.831,2.08c-0.188-0.09-0.396-0.144-0.619-0.144
			c-0.801,0-1.45,0.65-1.45,1.451C2.466,5.997,2.886,6.536,3.464,6.728z M28.566,7.774H3.433C2.365,7.774,1.5,8.641,1.5,9.709
			s0.865,1.936,1.933,1.936h0.967V31h23.2V11.645h0.967c1.068,0,1.934-0.867,1.934-1.936S29.635,7.774,28.566,7.774z M11.166,26.161
			c0,1.069-0.866,1.936-1.933,1.936c-1.068,0-1.934-0.866-1.934-1.936V14.548c0-1.069,0.866-1.936,1.934-1.936
			c1.067,0,1.933,0.867,1.933,1.936V26.161z M17.933,26.161c0,1.069-0.866,1.936-1.933,1.936c-1.068,0-1.934-0.866-1.934-1.936
			V14.548c0-1.069,0.866-1.936,1.934-1.936c1.067,0,1.933,0.867,1.933,1.936V26.161z M24.699,26.161
			c0,1.069-0.865,1.936-1.934,1.936c-1.067,0-1.934-0.866-1.934-1.936V14.548c0-1.069,0.866-1.936,1.934-1.936
			c1.068,0,1.934,0.867,1.934,1.936V26.161z"/>
	</g>
</g>
</svg>
