<?xml version="1.0" encoding="utf-8"?>
<!-- Generator: Adobe Illustrator 16.2.1, SVG Export Plug-In . SVG Version: 6.00 Build 0)  -->
<!DOCTYPE svg PUBLIC "-//W3C//DTD SVG 1.1//EN" "http://www.w3.org/Graphics/SVG/1.1/DTD/svg11.dtd">
<?xml-stylesheet type="text/css" href="../less/svg.css" ?>
<svg version="1.1" id="pixelegg_delete" xmlns="http://www.w3.org/2000/svg" xmlns:xlink="http://www.w3.org/1999/xlink" x="0px" y="0px"
	 width="28.347px" height="28.347px" viewBox="0 0 28.347 28.347" enable-background="new 0 0 28.347 28.347" xml:space="preserve">
<g>
	<path fill-rule="evenodd" clip-rule="evenodd" fill="#ECEDED" d="M2.212,16.141l1.16,7.52c0.325,2.107,2.566,3.725,5.022,3.725
		h11.352c2.458,0,4.698-1.617,5.024-3.725l1.16-7.52c0.427-2.766,0.803-3.715,0.997-5.156H1.416
		C1.458,12.275,1.785,13.375,2.212,16.141z M23.283,13.717c0,0-0.406,1.785-0.588,3.38l-0.655,4.857
		c-0.149,1.309-1.5,2.335-3.023,2.335H9.085c-1.522,0-2.834-1.026-2.982-2.335l-0.656-4.857c-0.182-1.595-0.386-3.38-0.386-3.38
		H23.283z"/>
	<path fill-rule="evenodd" clip-rule="evenodd" fill="#ECEDED" d="M22.524,5.489h-1.974V4.435c0-2.422-1.972-3.475-4.404-3.475
		h-3.949c-2.432,0-4.403,1.053-4.403,3.475v1.054H5.819c-4.29,0-4.403,3.595-4.403,3.595h25.513
		C26.929,9.084,26.814,5.489,22.524,5.489z M17.908,5.489h-7.473V5.312c0-1.454,1.184-1.721,2.643-1.721h2.188
		c1.459,0,2.642,0.267,2.642,1.721V5.489z"/>
	<path fill-rule="evenodd" clip-rule="evenodd" fill="#ECEDED" d="M14.172,22.828c1.007,0,1.822-0.647,1.822-1.446v-5.843H12.35
		v5.843C12.35,22.181,13.166,22.828,14.172,22.828z"/>
	<path fill-rule="evenodd" clip-rule="evenodd" fill="#ECEDED" d="M9.161,22.828c0.755,0,1.367-0.647,1.367-1.446l-0.911-5.843
		H6.883l0.911,5.843C7.794,22.181,8.405,22.828,9.161,22.828z"/>
	<path fill-rule="evenodd" clip-rule="evenodd" fill="#ECEDED" d="M19.184,22.828c0.755,0,1.366-0.647,1.366-1.446l0.911-5.843
		h-2.733l-0.911,5.843C17.816,22.181,18.428,22.828,19.184,22.828z"/>
</g>
</svg>
