<?xml version="1.0" encoding="utf-8"?>
<!-- Generator: Adobe Illustrator 16.2.1, SVG Export Plug-In . SVG Version: 6.00 Build 0)  -->
<!DOCTYPE svg PUBLIC "-//W3C//DTD SVG 1.1//EN" "http://www.w3.org/Graphics/SVG/1.1/DTD/svg11.dtd">
<?xml-stylesheet type="text/css" href="../less/svg.css" ?>
<svg version="1.1" id="pixelegg_done" xmlns="http://www.w3.org/2000/svg" xmlns:xlink="http://www.w3.org/1999/xlink" x="0px" y="0px"
	 width="28.347px" height="28.347px" viewBox="0 0 28.347 28.347" enable-background="new 0 0 28.347 28.347" xml:space="preserve">
<g>
	<path fill-rule="evenodd" clip-rule="evenodd" fill="#ECEDED" d="M24.804,0H3.544C1.587,0,0.001,1.586,0.001,3.544v21.259
		c0,1.957,1.586,3.543,3.543,3.543h21.26c1.957,0,3.543-1.586,3.543-3.543V3.544C28.347,1.586,26.761,0,24.804,0z M26.174,23.173
		c0,1.656-1.343,3-3,3H5.173c-1.656,0-3-1.344-3-3V5.174c0-1.657,1.344-3,3-3h18.001c1.657,0,3,1.343,3,3V23.173z"/>
	<path fill-rule="evenodd" clip-rule="evenodd" fill="#ECEDED" d="M8.726,21.427c0.588,0.504,1.361,0.744,2.131,0.732
		c0.279,0.009,0.554-0.045,0.821-0.138c0.44-0.118,0.862-0.296,1.211-0.595l10.41-8.949c1.149-0.989,1.149-2.592,0-3.58
		s-3.015-0.988-4.165,0l-8.348,7.178l-1.551-1.6c-0.934-0.963-2.447-0.963-3.381,0s-0.934,2.524,0,3.487
		C5.854,17.963,7.772,20.433,8.726,21.427z"/>
</g>
</svg>
