<?xml version="1.0" encoding="utf-8"?>
<!-- Generator: Adobe Illustrator 16.2.1, SVG Export Plug-In . SVG Version: 6.00 Build 0)  -->
<!DOCTYPE svg PUBLIC "-//W3C//DTD SVG 1.1//EN" "http://www.w3.org/Graphics/SVG/1.1/DTD/svg11.dtd">
<?xml-stylesheet type="text/css" href="../less/svg.css" ?>
<svg version="1.1" id="pixelegg_done_all" xmlns="http://www.w3.org/2000/svg" xmlns:xlink="http://www.w3.org/1999/xlink" x="0px" y="0px"
	 width="28.347px" height="28.347px" viewBox="0 0 28.347 28.347" enable-background="new 0 0 28.347 28.347" xml:space="preserve">
<path fill-rule="evenodd" clip-rule="evenodd" fill="#ECEDED" d="M24.804,0H3.544C1.587,0,0.001,1.586,0.001,3.543v21.259
	c0,1.957,1.586,3.543,3.543,3.543h21.26c1.957,0,3.543-1.586,3.543-3.543V3.543C28.347,1.586,26.761,0,24.804,0z M4.361,10.478
	c1.036-1.051,2.716-1.051,3.753,0l1.722,1.745l9.27-7.831c1.276-1.078,3.346-1.078,4.623,0c1.276,1.079,1.276,2.828,0,3.906
	l-11.558,9.765c-0.388,0.326-0.855,0.521-1.344,0.648c-0.298,0.101-0.603,0.159-0.912,0.15c-0.855,0.012-1.714-0.248-2.367-0.799
	c-1.059-1.085-3.187-3.779-3.187-3.779C3.323,13.232,3.323,11.528,4.361,10.478z M23.75,14.14l-11.569,9.765
	c-0.389,0.326-0.856,0.521-1.347,0.648c-0.298,0.102-0.603,0.16-0.913,0.151c-0.855,0.012-1.715-0.249-2.368-0.8
	c-1.06-1.086-3.19-3.779-3.19-3.779c-0.993-1.005-1.025-2.601-0.12-3.657c0.775,0.966,2.264,2.797,3.127,3.686
	c0.743,0.63,1.722,0.928,2.696,0.913c0.354,0.012,0.7-0.056,1.038-0.171c0.558-0.146,1.091-0.368,1.532-0.742l11.38-9.645
	C25.006,11.592,24.927,13.146,23.75,14.14z"/>
</svg>
