<?xml version="1.0" encoding="utf-8"?>
<!-- Generator: Adobe Illustrator 16.2.1, SVG Export Plug-In . SVG Version: 6.00 Build 0)  -->
<!DOCTYPE svg PUBLIC "-//W3C//DTD SVG 1.1//EN" "http://www.w3.org/Graphics/SVG/1.1/DTD/svg11.dtd">
<?xml-stylesheet type="text/css" href="../less/svg.css" ?>
<svg version="1.1" id="pixelegg_done" xmlns="http://www.w3.org/2000/svg" xmlns:xlink="http://www.w3.org/1999/xlink" x="0px" y="0px"
	 width="28.347px" height="28.347px" viewBox="0 0 28.347 28.347" enable-background="new 0 0 28.347 28.347" xml:space="preserve">
<g>
	<path fill-rule="evenodd" clip-rule="evenodd" fill="#ECEDED" d="M21.766,4.044H6.573c-1.397,0-2.531,1.133-2.531,2.531v15.191
		c0,1.396,1.134,2.531,2.531,2.531h15.192c1.398,0,2.531-1.135,2.531-2.531V6.575C24.297,5.177,23.164,4.044,21.766,4.044z
		 M21.871,12.739l-8.786,7.553c-0.294,0.252-0.65,0.402-1.021,0.502c-0.226,0.078-0.457,0.123-0.693,0.117
		c-0.649,0.01-1.302-0.193-1.798-0.619c-0.805-0.838-2.423-2.924-2.423-2.924c-0.788-0.812-0.788-2.129,0-2.942
		c0.787-0.812,2.064-0.812,2.853,0l1.309,1.351l7.045-6.059c0.972-0.834,2.545-0.834,3.516,0
		C22.841,10.552,22.841,11.905,21.871,12.739z"/>
	<path fill-rule="evenodd" clip-rule="evenodd" fill="#ECEDED" d="M-0.001,0v28.347h28.348V0H-0.001z M26.131,23.142
		c0,1.65-1.339,2.99-2.99,2.99H5.199c-1.651,0-2.99-1.34-2.99-2.99V5.2c0-1.652,1.339-2.991,2.99-2.991h17.941
		c1.651,0,2.99,1.338,2.99,2.991V23.142z"/>
</g>
</svg>
