<?xml version="1.0" encoding="utf-8"?>
<!-- Generator: Adobe Illustrator 16.2.1, SVG Export Plug-In . SVG Version: 6.00 Build 0)  -->
<!DOCTYPE svg PUBLIC "-//W3C//DTD SVG 1.1//EN" "http://www.w3.org/Graphics/SVG/1.1/DTD/svg11.dtd">
<svg version="1.1" id="done_x5F_all" xmlns="http://www.w3.org/2000/svg" xmlns:xlink="http://www.w3.org/1999/xlink" x="0px"
	 y="0px" width="28.347px" height="28.347px" viewBox="0 0 28.347 28.347" enable-background="new 0 0 28.347 28.347"
	 xml:space="preserve">
<path fill-rule="evenodd" clip-rule="evenodd" fill="#ECEDED" d="M0-0.001v28.348h28.348V-0.001H0z M4.36,10.477
	c1.036-1.051,2.716-1.051,3.753,0l1.722,1.745l9.27-7.831c1.276-1.078,3.346-1.078,4.623,0c1.276,1.079,1.276,2.827,0,3.906
	L12.17,18.062c-0.388,0.326-0.855,0.521-1.344,0.648c-0.298,0.101-0.603,0.159-0.912,0.15c-0.855,0.012-1.714-0.248-2.367-0.799
	c-1.059-1.085-3.187-3.779-3.187-3.779C3.322,13.231,3.322,11.527,4.36,10.477z M23.749,14.139L12.18,23.903
	c-0.389,0.326-0.856,0.521-1.347,0.648c-0.298,0.102-0.603,0.16-0.913,0.151c-0.855,0.012-1.715-0.249-2.368-0.8
	c-1.06-1.086-3.19-3.779-3.19-3.779c-0.993-1.005-1.025-2.601-0.12-3.657c0.775,0.966,2.264,2.797,3.127,3.686
	c0.743,0.63,1.722,0.928,2.696,0.913c0.354,0.012,0.7-0.056,1.038-0.171c0.558-0.146,1.091-0.368,1.532-0.742l11.38-9.645
	C25.005,11.591,24.926,13.146,23.749,14.139z"/>
</svg>
