<?xml version="1.0" encoding="utf-8"?>
<!-- Generator: Adobe Illustrator 17.1.0, SVG Export Plug-In . SVG Version: 6.00 Build 0)  -->
<!DOCTYPE svg PUBLIC "-//W3C//DTD SVG 1.1//EN" "http://www.w3.org/Graphics/SVG/1.1/DTD/svg11.dtd">
<svg version="1.1" id="download" xmlns="http://www.w3.org/2000/svg" xmlns:xlink="http://www.w3.org/1999/xlink" x="0px" y="0px"
	 viewBox="0 0 28.3 28.3" enable-background="new 0 0 28.3 28.3" xml:space="preserve">
<g>
	<polygon fill-rule="evenodd" clip-rule="evenodd" fill="#ECECED" points="17.3,18.1 17.3,5.8 11,5.8 11,18.1 6.4,18.1 14.2,28.3 
		22,18.1 	"/>
	<path fill-rule="evenodd" clip-rule="evenodd" fill="#ECECED" d="M23.6,0H4.7C2.1,0,0,2.1,0,4.7v18.9c0,2.6,2.1,4.7,4.7,4.7h2.1
		v-2.8H5.7c-1.6,0-2.8-1.3-2.8-2.8v-17c0-1.6,1.3-2.8,2.8-2.8h17c1.6,0,2.8,1.3,2.8,2.8v17c0,1.6-1.3,2.8-2.8,2.8h-1.2v2.8h2.2
		c2.6,0,4.7-2.1,4.7-4.7V4.7C28.3,2.1,26.2,0,23.6,0z"/>
</g>
</svg>
