<?xml version="1.0" encoding="utf-8"?>
<!-- Generator: Adobe Illustrator 15.0.0, SVG Export Plug-In . SVG Version: 6.00 Build 0)  -->
<!DOCTYPE svg PUBLIC "-//W3C//DTD SVG 1.1//EN" "http://www.w3.org/Graphics/SVG/1.1/DTD/svg11.dtd">
<?xml-stylesheet type="text/css" href="../less/svg.css" ?>
<svg version="1.1" id="pixelegg_E-Mail" xmlns="http://www.w3.org/2000/svg" xmlns:xlink="http://www.w3.org/1999/xlink" x="0px" y="0px"
	 width="32px" height="32px" viewBox="0 0 32 32" enable-background="new 0 0 32 32" xml:space="preserve">
<g>
	<g>
		<path fill="#696969" stroke="#E6E6E6" stroke-miterlimit="10" d="M26.653,3.513l-0.54-2.353L1.015,6.918l0.54,2.353l14.349,4.965
			L26.653,3.513z M27.014,6.082l-10.75,10.723L1.915,11.84l3.059,12.333l8.01-1.838c0.77-4.189,4.433-7.367,8.845-7.367
			c2.976,0,5.605,1.45,7.244,3.675l1-0.229L27.014,6.082z M23.07,17.973c-4.395,0-7.227,3.332-7.227,7.166
			c0,3.594,2.752,5.828,6,5.828c1.326,0,2.435-0.205,3.523-0.744l-0.316-0.801c-0.812,0.428-1.861,0.65-2.99,0.65
			c-2.93,0-5.088-1.936-5.088-5.045c0-3.779,2.712-6.199,5.939-6.199c3.068,0,4.791,1.955,4.791,4.674
			c0,2.141-1.129,3.424-2.139,3.387c-0.652-0.018-0.891-0.67-0.593-2.084l0.673-3.369c-0.516-0.225-1.287-0.393-2.119-0.393
			c-2.752,0-4.691,2.105-4.691,4.414c0,1.469,0.989,2.344,2.139,2.344c1.188,0,2.098-0.539,2.791-1.637h0.059
			c-0.039,1.154,0.693,1.637,1.485,1.637c1.841,0,3.505-1.637,3.505-4.43C28.812,20.262,26.516,17.973,23.07,17.973z M23.862,24.266
			c-0.218,1.152-1.267,2.531-2.415,2.531c-0.871,0-1.307-0.596-1.307-1.416c0-1.805,1.405-3.35,3.148-3.35
			c0.455,0,0.791,0.074,0.989,0.148L23.862,24.266z"/>
	</g>
</g>
</svg>
