<?xml version="1.0" encoding="utf-8"?>
<!-- Generator: Adobe Illustrator 16.2.1, SVG Export Plug-In . SVG Version: 6.00 Build 0)  -->
<!DOCTYPE svg PUBLIC "-//W3C//DTD SVG 1.1//EN" "http://www.w3.org/Graphics/SVG/1.1/DTD/svg11.dtd">
<?xml-stylesheet type="text/css" href="../less/svg.css" ?>
<svg version="1.1" id="pixelegg_edit" xmlns="http://www.w3.org/2000/svg" xmlns:xlink="http://www.w3.org/1999/xlink" x="0px" y="0px"
	 width="28.347px" height="28.347px" viewBox="0 0 28.347 28.347" enable-background="new 0 0 28.347 28.347" xml:space="preserve">
<path fill-rule="evenodd" clip-rule="evenodd" fill="#ECEDED" d="M24.804,0.001H3.544c-1.957,0-3.543,1.586-3.543,3.543v21.259
	c0,1.957,1.586,3.543,3.543,3.543h21.26c1.957,0,3.543-1.586,3.543-3.543V3.544C28.347,1.587,26.761,0.001,24.804,0.001z
	 M3.558,24.786l1.984-6.946l4.963,4.962L3.558,24.786z M11.752,21.554l-4.962-4.96l9.248-9.244l4.964,4.96L11.752,21.554z
	 M24.358,8.952l-2.045,2.044l-4.963-4.96l2.046-2.044c0.548-0.548,1.408-0.575,1.923-0.062l3.102,3.101
	C24.935,7.544,24.906,8.403,24.358,8.952z"/>
</svg>
