<?xml version="1.0" encoding="utf-8"?>
<!-- Generator: Adobe Illustrator 16.2.1, SVG Export Plug-In . SVG Version: 6.00 Build 0)  -->
<!DOCTYPE svg PUBLIC "-//W3C//DTD SVG 1.1//EN" "http://www.w3.org/Graphics/SVG/1.1/DTD/svg11.dtd">
<svg version="1.1" id="Ebene_1" xmlns="http://www.w3.org/2000/svg" xmlns:xlink="http://www.w3.org/1999/xlink" x="0px" y="0px"
	 width="28.347px" height="28.347px" viewBox="0 0 28.347 28.347" enable-background="new 0 0 28.347 28.347" xml:space="preserve">
<g>
	<path fill-rule="evenodd" clip-rule="evenodd" fill="#ECEDED" d="M11.322,23.277c0.789-1.179,0.443-2.626-0.772-3.23
		c-1.216-0.604-2.843-0.139-3.633,1.039c-0.789,1.18-0.443,2.626,0.772,3.23C8.904,24.921,10.531,24.456,11.322,23.277z"/>
	<path fill-rule="evenodd" clip-rule="evenodd" fill="#ECEDED" d="M20.657,24.316c1.216-0.604,1.562-2.051,0.771-3.23
		c-0.789-1.178-2.416-1.643-3.632-1.039c-1.216,0.604-1.562,2.052-0.772,3.23C17.815,24.456,19.442,24.921,20.657,24.316z"/>
	<path fill-rule="evenodd" clip-rule="evenodd" fill="#ECEDED" d="M24.804,0.001H3.544c-1.957,0-3.543,1.586-3.543,3.543v21.259
		c0,1.957,1.586,3.543,3.543,3.543h21.26c1.957,0,3.543-1.586,3.543-3.543V3.544C28.347,1.587,26.761,0.001,24.804,0.001z
		 M17.466,17.467c1.829,0.122,4.152,1.711,5.064,3.073c1.141,1.702,0.587,3.816-1.237,4.726c-1.824,0.907-4.228,0.262-5.369-1.439
		c-0.812-1.214-1.244-3.357-0.768-4.819c-0.086-0.379-0.334-1.048-0.983-2.129c-0.648,1.081-0.896,1.75-0.982,2.129
		c0.477,1.462,0.045,3.605-0.768,4.819c-1.142,1.701-3.545,2.347-5.369,1.439c-1.824-0.909-2.379-3.023-1.237-4.726
		c0.912-1.362,3.235-2.951,5.064-3.073c0.284-0.363,0.978-1.311,1.873-2.552c-1.697-1.822-3.819-2.616-6.291-6.305
		C5.372,6.984,4.878,3.074,5.486,2.771c0,0,1.199-0.401,1.736,0.4c0,0,3.926,5.544,6.95,9.767c3.025-4.223,6.951-9.767,6.951-9.767
		c0.537-0.801,1.736-0.4,1.736-0.4c0.608,0.303,0.114,4.213-0.977,5.839c-2.472,3.688-4.594,4.482-6.291,6.305
		C16.488,16.156,17.182,17.104,17.466,17.467z"/>
</g>
</svg>
