<?xml version="1.0" encoding="utf-8"?>
<!-- Generator: Adobe Illustrator 15.0.0, SVG Export Plug-In . SVG Version: 6.00 Build 0)  -->
<!DOCTYPE svg PUBLIC "-//W3C//DTD SVG 1.1//EN" "http://www.w3.org/Graphics/SVG/1.1/DTD/svg11.dtd">
<svg version="1.1" id="Ebene_1" xmlns="http://www.w3.org/2000/svg" xmlns:xlink="http://www.w3.org/1999/xlink" x="0px" y="0px"
	 width="32px" height="32px" viewBox="0 0 32 32" enable-background="new 0 0 32 32" xml:space="preserve">
<g>
	<path fill="#62686A" d="M30.656,8.738c-0.016-1.043-0.875-1.882-1.939-1.883L3.45,6.838c-1.073,0-1.947,0.854-1.946,1.91v0.073
		l14.529,9.437L30.656,8.738z"/>
	<polygon fill="#62686A" points="21.703,18.141 30.659,24.466 30.659,22.354 30.66,22.354 30.66,17.658 30.66,12.962 30.659,12.962
		30.659,12.328 	"/>
	<path fill="#62686A" d="M3.45,28.479l25.267-0.018c0.641-0.001,1.203-0.309,1.557-0.778l-11.31-7.89l-2.929,1.842l-2.938-1.843
		L1.833,27.63C2.182,28.142,2.776,28.479,3.45,28.479z"/>
	<polygon fill="#62686A" points="1.504,24.376 10.367,18.133 1.504,12.375 1.504,12.982 1.503,12.982 1.503,17.658 1.503,22.334
		1.504,22.334 	"/>
</g>
</svg>
