<?xml version="1.0" encoding="utf-8"?>
<!-- Generator: Adobe Illustrator 16.2.1, SVG Export Plug-In . SVG Version: 6.00 Build 0)  -->
<!DOCTYPE svg PUBLIC "-//W3C//DTD SVG 1.1//EN" "http://www.w3.org/Graphics/SVG/1.1/DTD/svg11.dtd">
<svg version="1.1" id="export" xmlns="http://www.w3.org/2000/svg" xmlns:xlink="http://www.w3.org/1999/xlink" x="0px" y="0px"
	 width="28.347px" height="28.347px" viewBox="0 0 28.347 28.347" enable-background="new 0 0 28.347 28.347" xml:space="preserve">
<g>
	<polygon fill-rule="evenodd" clip-rule="evenodd" fill="#ECEDED" points="18.04,8.899 14.946,8.899 14.946,5.133 8.761,5.133 
		8.761,10.407 19.586,10.407 19.586,5.133 18.04,5.133 	"/>
	<path fill-rule="evenodd" clip-rule="evenodd" fill="#ECEDED" d="M8.761,14.926c-1.281,0-2.318,1.012-2.318,2.26v3.013v3.014
		h15.463v-3.014v-3.013c0-1.248-1.037-2.26-2.319-2.26H8.761z M18.812,21.705H9.534v-0.753h9.278V21.705z M18.812,19.446H9.534
		v-0.754h9.278V19.446z M18.812,17.186H9.534v-0.753h9.278V17.186z"/>
	<path fill-rule="evenodd" clip-rule="evenodd" fill="#ECEDED" d="M0-0.001v28.348h28.348V-0.001H0z M24.226,24.718H4.122V3.627
		H19.5l4.726,4.571V24.718z"/>
</g>
</svg>
