<?xml version="1.0" encoding="utf-8"?>
<!-- Generator: Adobe Illustrator 15.0.0, SVG Export Plug-In . SVG Version: 6.00 Build 0)  -->
<!DOCTYPE svg PUBLIC "-//W3C//DTD SVG 1.1//EN" "http://www.w3.org/Graphics/SVG/1.1/DTD/svg11.dtd">
<?xml-stylesheet type="text/css" href="../less/svg.css" ?>
<svg version="1.1" id="pixelegg_export" xmlns="http://www.w3.org/2000/svg" xmlns:xlink="http://www.w3.org/1999/xlink" x="0px" y="0px"
	 width="32px" height="32px" viewBox="0 0 32 32" enable-background="new 0 0 32 32" xml:space="preserve">
<g>
	<g>
		<path fill="#696969" d="M30.72,6.313c0-2.675-2.166-4.844-4.839-4.844H6.526
			c-2.673,0-4.839,2.168-4.839,4.844v19.375c0,2.674,2.166,4.844,4.839,4.844h19.354c2.673,0,4.839-2.17,4.839-4.844v-2.156h-2.903
			v1.188c0,1.605-1.3,2.906-2.903,2.906H7.494c-1.604,0-2.903-1.301-2.903-2.906V7.281c0-1.605,1.3-2.906,2.903-2.906h17.419
			c1.604,0,2.903,1.301,2.903,2.906v1.25h2.903V6.313z M30.688,15.566l-10.49-8.036v4.821H7.61v6.429h12.587v4.82L30.688,15.566z"/>
	</g>
</g>
</svg>
