<?xml version="1.0" encoding="utf-8"?>
<!-- Generator: Adobe Illustrator 15.0.0, SVG Export Plug-In . SVG Version: 6.00 Build 0)  -->
<!DOCTYPE svg PUBLIC "-//W3C//DTD SVG 1.1//EN" "http://www.w3.org/Graphics/SVG/1.1/DTD/svg11.dtd">
<svg version="1.1" id="Ebene_1" xmlns="http://www.w3.org/2000/svg" xmlns:xlink="http://www.w3.org/1999/xlink" x="0px" y="0px"
	 width="32px" height="32px" viewBox="0 0 32 32" enable-background="new 0 0 32 32" xml:space="preserve">
<path fill="none" stroke="#62686A" stroke-width="4" stroke-linejoin="round" stroke-miterlimit="10" d="M29.776,12.563
	c0,0-3.189,4.226-7.157,7.204c-0.001-0.011,0.002-0.007,0,0l0.27,0.883c1.623,5.4,1.722,9.136,1.722,9.136l-8.596-5.223
	c0,0-0.013,0.002-0.016,0.002c-0.005,0-0.022-0.006-0.029-0.008c-4.195,2.902-8.581,5.229-8.581,5.229s0.354-4.615,1.974-10.008
	c0.003,0.002,0.002-0.009,0,0c-3.963-2.972-7.141-7.213-7.141-7.213l9.471-0.861l4.307-9.473l4.307,9.471L29.776,12.563z"/>
</svg>
