<?xml version="1.0" encoding="utf-8"?>
<!-- Generator: Adobe Illustrator 15.0.0, SVG Export Plug-In . SVG Version: 6.00 Build 0)  -->
<!DOCTYPE svg PUBLIC "-//W3C//DTD SVG 1.1//EN" "http://www.w3.org/Graphics/SVG/1.1/DTD/svg11.dtd">
<?xml-stylesheet type="text/css" href="../less/svg.css" ?>
<svg version="1.1" id="pixelegg_import" xmlns="http://www.w3.org/2000/svg" xmlns:xlink="http://www.w3.org/1999/xlink" x="0px" y="0px"
	 width="32px" height="32px" viewBox="0 0 32 32" enable-background="new 0 0 32 32" xml:space="preserve">
<g>
	<g>
		<path fill="#696969" d="M30.717,6.313c0-2.675-2.166-4.844-4.839-4.844H6.523
			c-2.673,0-4.839,2.168-4.839,4.844v19.375c0,2.674,2.166,4.844,4.839,4.844h19.354c2.673,0,4.839-2.17,4.839-4.844v-2.156h-2.903
			v1.188c0,1.605-1.3,2.906-2.903,2.906H7.491c-1.604,0-2.903-1.301-2.903-2.906V7.281c0-1.605,1.3-2.906,2.903-2.906H24.91
			c1.604,0,2.903,1.301,2.903,2.906v1.25h2.903V6.313z M7.685,15.535l4.185,3.202l6.276,4.803v-4.803h12.554v-6.403H18.146V7.531
			L7.685,15.535z"/>
	</g>
</g>
</svg>
