<svg xmlns="http://www.w3.org/2000/svg" style="background:$baseColor;text-align:center" id="el_9qMjAWkeb" viewBox="0 0 186 186" width="250" height="250" font-family="'Comfortaa',cursive"><style>@-webkit-keyframes kf_el_wEqBRfFJDd8_an_KrlzJ_V6s{0%{-webkit-transform:translate(160.83871459960938px,136.35484313964844px) translate(-160.83871459960938px,-136.35484313964844px) translate(0,0);transform:translate(160.83871459960938px,136.35484313964844px) translate(-160.83871459960938px,-136.35484313964844px) translate(0,0)}3.33%{-webkit-transform:translate(160.83871459960938px,136.35484313964844px) translate(-160.83871459960938px,-136.35484313964844px) translate(2px,-5px);transform:translate(160.83871459960938px,136.35484313964844px) translate(-160.83871459960938px,-136.35484313964844px) translate(2px,-5px)}6.67%{-webkit-transform:translate(160.83871459960938px,136.35484313964844px) translate(-160.83871459960938px,-136.35484313964844px) translate(6px,-10px);transform:translate(160.83871459960938px,136.35484313964844px) translate(-160.83871459960938px,-136.35484313964844px) translate(6px,-10px)}10%{-webkit-transform:translate(160.83871459960938px,136.35484313964844px) translate(-160.83871459960938px,-136.35484313964844px) translate(8px,-15px);transform:translate(160.83871459960938px,136.35484313964844px) translate(-160.83871459960938px,-136.35484313964844px) translate(8px,-15px)}13.33%{-webkit-transform:translate(160.83871459960938px,136.35484313964844px) translate(-160.83871459960938px,-136.35484313964844px) translate(10px,-20px);transform:translate(160.83871459960938px,136.35484313964844px) translate(-160.83871459960938px,-136.35484313964844px) translate(10px,-20px)}16.67%{-webkit-transform:translate(160.83871459960938px,136.35484313964844px) translate(-160.83871459960938px,-136.35484313964844px) translate(12px,-25px);transform:translate(160.83871459960938px,136.35484313964844px) translate(-160.83871459960938px,-136.35484313964844px) translate(12px,-25px)}20%,to{-webkit-transform:translate(160.83871459960938px,136.35484313964844px) translate(-160.83871459960938px,-136.35484313964844px) translate(14px,-30px);transform:translate(160.83871459960938px,136.35484313964844px) translate(-160.83871459960938px,-136.35484313964844px) translate(14px,-30px)}}@keyframes kf_el_wEqBRfFJDd8_an_KrlzJ_V6s{0%{-webkit-transform:translate(160.83871459960938px,136.35484313964844px) translate(-160.83871459960938px,-136.35484313964844px) translate(0,0);transform:translate(160.83871459960938px,136.35484313964844px) translate(-160.83871459960938px,-136.35484313964844px) translate(0,0)}3.33%{-webkit-transform:translate(160.83871459960938px,136.35484313964844px) translate(-160.83871459960938px,-136.35484313964844px) translate(2px,-5px);transform:translate(160.83871459960938px,136.35484313964844px) translate(-160.83871459960938px,-136.35484313964844px) translate(2px,-5px)}6.67%{-webkit-transform:translate(160.83871459960938px,136.35484313964844px) translate(-160.83871459960938px,-136.35484313964844px) translate(6px,-10px);transform:translate(160.83871459960938px,136.35484313964844px) translate(-160.83871459960938px,-136.35484313964844px) translate(6px,-10px)}10%{-webkit-transform:translate(160.83871459960938px,136.35484313964844px) translate(-160.83871459960938px,-136.35484313964844px) translate(8px,-15px);transform:translate(160.83871459960938px,136.35484313964844px) translate(-160.83871459960938px,-136.35484313964844px) translate(8px,-15px)}13.33%{-webkit-transform:translate(160.83871459960938px,136.35484313964844px) translate(-160.83871459960938px,-136.35484313964844px) translate(10px,-20px);transform:translate(160.83871459960938px,136.35484313964844px) translate(-160.83871459960938px,-136.35484313964844px) translate(10px,-20px)}16.67%{-webkit-transform:translate(160.83871459960938px,136.35484313964844px) translate(-160.83871459960938px,-136.35484313964844px) translate(12px,-25px);transform:translate(160.83871459960938px,136.35484313964844px) translate(-160.83871459960938px,-136.35484313964844px) translate(12px,-25px)}20%,to{-webkit-transform:translate(160.83871459960938px,136.35484313964844px) translate(-160.83871459960938px,-136.35484313964844px) translate(14px,-30px);transform:translate(160.83871459960938px,136.35484313964844px) translate(-160.83871459960938px,-136.35484313964844px) translate(14px,-30px)}}@-webkit-keyframes kf_el_jzN_nUmLRuL_an_r8Bl6Fa7-{0%,80%,90%,to{opacity:0}86.67%{opacity:1}}@keyframes kf_el_jzN_nUmLRuL_an_r8Bl6Fa7-{0%,80%,90%,to{opacity:0}86.67%{opacity:1}}@-webkit-keyframes kf_el_J9yQEqDgQUu_an_DrIJ78wIO{0%,70%,80%,to{opacity:0}76.67%{opacity:1}}@keyframes kf_el_J9yQEqDgQUu_an_DrIJ78wIO{0%,70%,80%,to{opacity:0}76.67%{opacity:1}}@-webkit-keyframes kf_el_SmfY95cD1Pl_an_yPHA72Joz{0%,60%,70%,to{opacity:0}66.67%{opacity:1}}@keyframes kf_el_SmfY95cD1Pl_an_yPHA72Joz{0%,60%,70%,to{opacity:0}66.67%{opacity:1}}@-webkit-keyframes kf_el_mnZ5lycBYVJ_an_DlVIZkhbt{0%,50%,60%,to{opacity:0}56.67%{opacity:1}}@keyframes kf_el_mnZ5lycBYVJ_an_DlVIZkhbt{0%,50%,60%,to{opacity:0}56.67%{opacity:1}}@-webkit-keyframes kf_el_zi9DW6I5WiL_an_zlJ7dH9S6{0%,40%,50%,to{opacity:0}46.67%{opacity:1}}@keyframes kf_el_zi9DW6I5WiL_an_zlJ7dH9S6{0%,40%,50%,to{opacity:0}46.67%{opacity:1}}@-webkit-keyframes kf_el_im5ZeXXjoZr_an_Pp95Kuaag{0%,30%,40%,to{opacity:0}36.67%{opacity:1}}@keyframes kf_el_im5ZeXXjoZr_an_Pp95Kuaag{0%,30%,40%,to{opacity:0}36.67%{opacity:1}}@-webkit-keyframes kf_el_QoqgB7v1XEY_an_gJw-DseIf{0%,20%,30%,to{opacity:0}26.67%{opacity:1}}@keyframes kf_el_QoqgB7v1XEY_an_gJw-DseIf{0%,20%,30%,to{opacity:0}26.67%{opacity:1}}@-webkit-keyframes kf_el_ZUjbgFP617Q_an_57oDGqpPm{0%,10%,20%,to{opacity:0}16.67%{opacity:1}}@keyframes kf_el_ZUjbgFP617Q_an_57oDGqpPm{0%,10%,20%,to{opacity:0}16.67%{opacity:1}}@-webkit-keyframes kf_el_ds5dbb_57F_an_wGc1C4sCV{0%,10%,6.67%,to{opacity:0}}@keyframes kf_el_ds5dbb_57F_an_wGc1C4sCV{0%,10%,6.67%,to{opacity:0}}:root{--color: #112b50;--stroke-width: 7}@supports (-ms-ime-align:auto){.loader-svg{-webkit-animation:rotation .6s infinite linear;animation:rotation .6s infinite linear;-webkit-transform-origin:center;-ms-transform-origin:center;transform-origin:center}}#el_9qMjAWkeb *{-webkit-animation-duration:2s;animation-duration:2s;-webkit-animation-iteration-count:infinite;animation-iteration-count:infinite;-webkit-animation-timing-function:cubic-bezier(0,0,1,1);animation-timing-function:cubic-bezier(0,0,1,1)}#el_CJ3-ov_IgJ{fill:none;stroke:none}#el_ds5dbb_57F{stroke:null;-webkit-animation-fill-mode:backwards;animation-fill-mode:backwards;opacity:0;-webkit-animation-name:kf_el_ds5dbb_57F_an_wGc1C4sCV;animation-name:kf_el_ds5dbb_57F_an_wGc1C4sCV;-webkit-animation-timing-function:cubic-bezier(.42,0,.58,1);animation-timing-function:cubic-bezier(.42,0,.58,1)}#el_rRK6ShRxqm{stroke:null}#el_fl1qVmqeabq,#el_tBKjDfdkoH,#el_yBaX2jhfNGp{stroke:null;fill:#036;stroke-width:0}#el_ZUjbgFP617Q{stroke:null;-webkit-animation-fill-mode:backwards;animation-fill-mode:backwards;opacity:0;-webkit-animation-name:kf_el_ZUjbgFP617Q_an_57oDGqpPm;animation-name:kf_el_ZUjbgFP617Q_an_57oDGqpPm;-webkit-animation-timing-function:cubic-bezier(.42,0,.58,1);animation-timing-function:cubic-bezier(.42,0,.58,1)}#el_bgNOLByYRjr{stroke:null;fill:#c1272d}#el_RwkNRr5cwzK{stroke:null;fill:#fff}#el_1-Y0l8if6fi{stroke:null;fill:#c1272d}#el__E72vDXVyyL{stroke:null;fill:#ccc}#el_QoqgB7v1XEY{stroke:null;-webkit-animation-fill-mode:backwards;animation-fill-mode:backwards;opacity:0;-webkit-animation-name:kf_el_QoqgB7v1XEY_an_gJw-DseIf;animation-name:kf_el_QoqgB7v1XEY_an_gJw-DseIf;-webkit-animation-timing-function:cubic-bezier(.42,0,.58,1);animation-timing-function:cubic-bezier(.42,0,.58,1)}#el_AHAsdnQcztg{stroke:null}#el_78qexTXNv7k,#el_CY0B_3WsdZ4,#el_fuxyJW7BQj2,#el_j4p40_09PJ4,#el_ugkdVXQM_HL,#el_yNGeve-qWMh{stroke:null;fill:#306;stroke-width:0}#el_im5ZeXXjoZr{stroke:null;-webkit-animation-fill-mode:backwards;animation-fill-mode:backwards;opacity:0;-webkit-animation-name:kf_el_im5ZeXXjoZr_an_Pp95Kuaag;animation-name:kf_el_im5ZeXXjoZr_an_Pp95Kuaag;-webkit-animation-timing-function:cubic-bezier(.42,0,.58,1);animation-timing-function:cubic-bezier(.42,0,.58,1)}#el_G2lMasbBxWf{stroke:null}#el_XwMRefR28qo,#el_iOa8DfwL4Az{stroke:null;fill:#f93;stroke-width:0}#el_zi9DW6I5WiL{stroke:null;-webkit-animation-fill-mode:backwards;animation-fill-mode:backwards;opacity:0;-webkit-animation-name:kf_el_zi9DW6I5WiL_an_zlJ7dH9S6;animation-name:kf_el_zi9DW6I5WiL_an_zlJ7dH9S6;-webkit-animation-timing-function:cubic-bezier(.42,0,.58,1);animation-timing-function:cubic-bezier(.42,0,.58,1)}#el_hP34cibYJ6b{stroke:null}#el_1vCPqERZcyA,#el_9zoKfh1_0A0,#el_OhZgvrJWfVO,#el_enMDTLn5jK6,#el_m1QMUmLE0VI{stroke:null;fill:#603;stroke-width:0}#el_mnZ5lycBYVJ{stroke:null;-webkit-animation-fill-mode:backwards;animation-fill-mode:backwards;opacity:0;-webkit-animation-name:kf_el_mnZ5lycBYVJ_an_DlVIZkhbt;animation-name:kf_el_mnZ5lycBYVJ_an_DlVIZkhbt;-webkit-animation-timing-function:cubic-bezier(.42,0,.58,1);animation-timing-function:cubic-bezier(.42,0,.58,1)}#el_JjYG_dkaSXQ{stroke:null}#el_WTOAAIiOVhh{stroke:null;stroke-width:0}#el_bO1v23cB7zY,#el_sFelJiHoSvW,#el_scZOQxc2FF9{stroke:null;fill:#c03;stroke-width:0}#el_SmfY95cD1Pl{stroke:null;-webkit-animation-fill-mode:backwards;animation-fill-mode:backwards;opacity:0;-webkit-animation-name:kf_el_SmfY95cD1Pl_an_yPHA72Joz;animation-name:kf_el_SmfY95cD1Pl_an_yPHA72Joz;-webkit-animation-timing-function:cubic-bezier(.42,0,.58,1);animation-timing-function:cubic-bezier(.42,0,.58,1)}#el_6e0raE3XVzj{stroke:null}#el_PXUHyu1RKB-,#el_XYsaCulY4wa,#el_YiwR_MzfFdQ,#el_slVvT6cmlv1{stroke:null;fill:#699;stroke-width:0}#el_J9yQEqDgQUu{stroke:null;-webkit-animation-fill-mode:backwards;animation-fill-mode:backwards;opacity:0;-webkit-animation-name:kf_el_J9yQEqDgQUu_an_DrIJ78wIO;animation-name:kf_el_J9yQEqDgQUu_an_DrIJ78wIO;-webkit-animation-timing-function:cubic-bezier(.42,0,.58,1);animation-timing-function:cubic-bezier(.42,0,.58,1)}#el_eX1rR8xzlrb{stroke:null}#el_bFsflOIrsUn,#el_q6L6skk9y0z{stroke:null;fill:#069;stroke-width:0}#el_jzN_nUmLRuL{stroke:null;-webkit-animation-fill-mode:backwards;animation-fill-mode:backwards;opacity:0;-webkit-animation-name:kf_el_jzN_nUmLRuL_an_r8Bl6Fa7-;animation-name:kf_el_jzN_nUmLRuL_an_r8Bl6Fa7-;-webkit-animation-timing-function:cubic-bezier(.42,0,.58,1);animation-timing-function:cubic-bezier(.42,0,.58,1)}#el_YCGHMTJvnxa{stroke:null;fill:#096}.scale-app{transform-origin:center;transform:scale(0.7);}</style><rect id="el_CJ3-ov_IgJ" width="100%" height="100%"/><g xmlns="http://www.w3.org/2000/svg"><circle xmlns="http://www.w3.org/2000/svg" class="loader-svg" cx="95" cy="95" fill="none" stroke="#0C5DA5" stroke-width="var(--stroke-width)" r="70" transform="rotate(180.51 95 95)"/><circle class="loader-svg" cx="95" cy="95" fill="none" stroke="#679fd2" stroke-width="8" r="70" stroke-dasharray="332.93 175.98" transform="rotate(293.73 95 95)" style="border:0"><animateTransform attributeName="transform" type="rotate" calcMode="linear" values="0 95 95;360 95 95" keyTimes="0;1" dur="1.8s" begin="0s" repeatCount="indefinite"/></circle></g><g id="el_zmCryYvtiQ"><g id="el_ds5dbb_57F"><g id="el_rRK6ShRxqm" clip-rule="evenodd" fill-rule="evenodd"><path id="el_tBKjDfdkoH" d="M85.01 105.59s-2.7 3.37-8.5 3.37c-5.23 0-8.56-3.37-8.56-3.37s-2.13.67-3.9 2.68c-2.53 2.87-1.7 9.17-1.7 9.17l28.27.02s.97-6.45-1.7-9.2c-2.14-2.18-3.9-2.67-3.9-2.67z"/><path id="el_fl1qVmqeabq" d="M65.03 97.26h1.56c1.48 2.9 6.84 5.5 9.89 5.5s8.41-2.61 9.9-5.5h1.55l1.7-5.5-1.7-1.83V88.1s.12-4.03-1.7-5.5c-1.46-1.17-1.72-4.62-9.71-4.71-5.7-.08-7.5 2.27-9.79 4.7-1.03 1.13-1.55 3.37-1.7 5.5-.04.35 0 1.51 0 1.84l-1.7 1.83 1.7 5.5z"/><path id="el_yBaX2jhfNGp" d="M129.09 63.75h-70.1c-4.83 0-8.75 3.8-8.75 8.48v50.86c0 4.68 3.92 8.47 8.76 8.47h70.09c4.84 0 8.76-3.79 8.76-8.47V72.23c0-4.69-3.92-8.48-8.76-8.48zm-32.13 56.51a2.88 2.88 0 0 1-2.92 2.82H59a2.87 2.87 0 0 1-2.92-2.82v-45.2c0-1.57 1.3-2.83 2.92-2.83h35.05a2.88 2.88 0 0 1 2.92 2.82v45.21zm32.13-8.48h-20.45c-1.61 0-2.92-1.26-2.92-2.82s1.31-2.82 2.92-2.82h20.45c1.62 0 2.92 1.26 2.92 2.82s-1.3 2.82-2.92 2.82zm0-14.12h-20.45a2.87 2.87 0 0 1-2.92-2.83c0-1.56 1.31-2.82 2.92-2.82h20.45a2.87 2.87 0 0 1 2.92 2.82c0 1.56-1.3 2.83-2.92 2.83zm0-14.13h-20.45a2.88 2.88 0 0 1-2.92-2.82c0-1.56 1.31-2.83 2.92-2.83h20.45a2.87 2.87 0 0 1 2.92 2.83c0 1.55-1.3 2.82-2.92 2.82z"/></g></g><g id="el_ZUjbgFP617Q" class="scale-app"><path id="el_bgNOLByYRjr" d="M141.5 97.82c0-4.4-1.44-8.64-4.29-12.57-2.56-3.53-6.14-6.65-10.65-9.29-8.7-5.08-20.14-7.88-32.2-7.88-4.03 0-8 .31-11.86.93a39.35 39.35 0 0 0-8.15-5.34c-15.82-7.01-28.94-.17-28.94-.17s12.2 9.16 10.21 17.2c-5.45 4.94-8.41 10.91-8.41 17.12v.12c0 6.22 2.96 12.18 8.41 17.13 1.99 8.03-10.2 17.2-10.2 17.2s13.11 6.84 28.93-.17a39.43 39.43 0 0 0 8.15-5.34c3.85.61 7.83.93 11.86.93 12.06 0 23.5-2.8 32.2-7.89 4.51-2.63 8.1-5.75 10.65-9.28a21.17 21.17 0 0 0 4.3-12.58v-.12z"/><path id="el_RwkNRr5cwzK" d="M94.36 74.32c22.34 0 40.45 10.57 40.45 23.62s-18.11 23.63-40.45 23.63c-4.98 0-9.74-.53-14.14-1.49-4.48 4.92-14.32 11.76-23.88 9.55 3.11-3.05 7.72-8.21 6.73-16.71-5.73-4.08-9.17-9.3-9.17-14.98 0-13.05 18.11-23.62 40.46-23.62"/><path id="el_1-Y0l8if6fi" d="M94.36 103.62c2.96 0 5.37-2.2 5.37-4.92 0-2.71-2.4-4.91-5.37-4.91s-5.38 2.2-5.38 4.91c0 2.72 2.4 4.92 5.38 4.92zm18.68 0c2.97 0 5.38-2.2 5.38-4.92 0-2.71-2.41-4.91-5.38-4.91s-5.37 2.2-5.37 4.91c0 2.72 2.4 4.92 5.37 4.92zm-37.37 0c2.97 0 5.37-2.2 5.37-4.92 0-2.71-2.4-4.91-5.37-4.91s-5.37 2.2-5.37 4.91 2.4 4.91 5.37 4.91z"/><path id="el__E72vDXVyyL" d="M94.36 118.46c-4.98 0-9.74-.46-14.14-1.29-3.95 3.77-12.09 8.83-20.52 8.64a29.84 29.84 0 0 1-3.36 3.82c9.56 2.21 19.4-4.63 23.88-9.55 4.4.96 9.16 1.49 14.14 1.49 22.16 0 40.16-10.41 40.44-23.32-.28 11.19-18.28 20.2-40.44 20.2z"/></g><g id="el_QoqgB7v1XEY" class="scale-app"><g id="el_AHAsdnQcztg"><path id="el_CY0B_3WsdZ4" d="M92.4 50.68a45.4 45.4 0 1 0 0 90.8 45.4 45.4 0 0 0 0-90.8zm0 81.36c-18.26 0-35.9-17.55-35.9-35.7 0-18.15 17.64-35.7 35.9-35.7 18.26 0 35.88 17.55 35.88 35.7 0 18.15-17.63 35.7-35.88 35.7z"/><path id="el_ugkdVXQM_HL" d="M92.4 73.4c4.46 0 2.83-8.5 0-8.5-2.84 0-4.46 8.5 0 8.5z"/><path id="el_j4p40_09PJ4" d="M61.22 96.08c0 4.46 8.5 4.46 8.5 0 0-4.45-8.5-4.45-8.5 0z"/><path id="el_78qexTXNv7k" d="M92.4 118.76c-4.46 0-4.05 8.5 0 8.5 4.04 0 4.45-8.5 0-8.5z"/><path id="el_fuxyJW7BQj2" d="M105.38 73.4a4.13 4.13 0 0 0-5.48 2l-8.8 19.07-9.74-.03a4.1 4.1 0 0 0-4.1 4.1 4.15 4.15 0 0 0 4.13 4.14l12.37.04c.14 0 .27-.03.4-.04.1-.01.2-.01.3-.04.2-.03.38-.08.56-.14l.2-.06a4.23 4.23 0 0 0 1.18-.7l.16-.13c.15-.14.28-.3.4-.45l.13-.15c.12-.18.23-.37.33-.56l.08-.12.03-.08a.66.66 0 0 1 .04-.07l9.84-21.32c.95-2.05.04-4.5-2.03-5.46z"/><path id="el_yNGeve-qWMh" d="M115.07 96.08c0 4.46 8.5 4.46 8.5 0 0-4.45-8.5-4.45-8.5 0z"/></g></g><g id="el_im5ZeXXjoZr" class="scale-app"><g id="el_G2lMasbBxWf"><path id="el_iOa8DfwL4Az" d="M135.01 81.06l2.87-14.05H90.54v-5.62H50.36l2.87 19.67z"/><path id="el_XwMRefR28qo" d="M44.64 83.87l6.46 50.57H137.15l7.76-50.57z"/></g></g><g id="el_zi9DW6I5WiL" class="scale-app"><g id="el_hP34cibYJ6b" clip-rule="evenodd" fill-rule="evenodd"><path id="el_m1QMUmLE0VI" d="M83.08 133.15s-2.27.89-2.75 0c-.5-.9 0-2.75 0-2.75l5.5-24.78 39.65-39.69c-1-1-2.37-1.6-3.88-1.6h-8.26v6.87c0 2.28-1.02 4.14-2.29 4.14H77.12c-1.27 0-2.3-1.85-2.3-4.14v-6.88h-8.25a5.5 5.5 0 0 0-5.5 5.51v63.32a5.5 5.5 0 0 0 5.5 5.5h55.02a5.5 5.5 0 0 0 5.5-5.5v-24.78l-19.25 19.27-24.76 5.5z"/><path id="el_enMDTLn5jK6" d="M91.28 109.12l-5.1 17.79 17.87-5.08z"/><path id="el_OhZgvrJWfVO" d="M95.81 104.6l12.77 12.71 22.59-22.46-12.77-12.71z"/><path id="el_9zoKfh1_0A0" d="M137.1 84.17l-7.98-7.95c-1.32-1.31-3.53-1.24-4.95.17l-3.82 3.8 12.76 12.72 3.83-3.81c1.41-1.41 1.49-3.61.16-4.93z"/><path id="el_1vCPqERZcyA" d="M83.08 72.58h22a2.75 2.75 0 0 0 2.76-2.75v-5.5a2.75 2.75 0 0 0-2.75-2.76h-2.92c.1-.45.16-.9.16-1.38 0-3.8-3.7-6.88-8.25-6.88s-8.25 3.08-8.25 6.88c0 .47.06.93.17 1.38h-2.92a2.75 2.75 0 0 0-2.75 2.75v5.51a2.75 2.75 0 0 0 2.75 2.75zm8.25-13.77h5.5v5.51h-5.5v-5.5z"/></g></g><g id="el_mnZ5lycBYVJ" class="scale-app"><g id="el_JjYG_dkaSXQ"><g id="el_WTOAAIiOVhh"><path id="el_scZOQxc2FF9" d="M76.78 73.09c2.9 0 5.25-2.58 5.25-5.76v-8.64c0-3.17-2.36-5.75-5.25-5.75-2.9 0-5.25 2.58-5.25 5.75v8.64c0 3.18 2.36 5.76 5.25 5.76z"/><path id="el_bO1v23cB7zY" d="M113.52 73.09c2.9 0 5.25-2.58 5.25-5.76v-8.64c0-3.17-2.36-5.75-5.25-5.75-2.9 0-5.25 2.58-5.25 5.75v8.64c0 3.18 2.35 5.76 5.25 5.76z"/><path id="el_sFelJiHoSvW" d="M124.01 61.57h-2.62v8.64c0 1.3-.41 2.5-1.08 3.47a5.1 5.1 0 0 1-4.17 2.29h-5.25c-2.9 0-5.24-2.58-5.24-5.76v-8.63h-21v8.63c0 3.18-2.35 5.76-5.24 5.76h-5.25c-1.7 0-3.2-.9-4.16-2.3a6.08 6.08 0 0 1-1.09-3.46v-8.64h-2.63c-2.89 0-5.24 2.58-5.24 5.76V133.54c0 3.17 2.35 5.75 5.24 5.75h57.73c2.9 0 5.25-2.58 5.25-5.75V67.33c0-3.18-2.35-5.76-5.25-5.76zm-39.36 69.09H68.91v-14.4h15.74v14.4zm0-17.25H68.91V98.87h15.74v14.54zm0-17.28H68.91v-14.4h15.74v14.4zm2.63-14.4h15.74v14.4H87.28v-14.4zm0 17.14h15.74v14.54H87.28V98.87zm15.74 23.2v-.05 8.64H87.28v-8.64.05-.09.05-5.76h15.74v5.8zm18.37 8.59h-15.74v-14.4h15.74v14.4zm0-17.25h-15.74V98.87h15.74v14.54zm0-17.28h-15.74v-14.4h15.74v14.4z"/></g></g></g><g id="el_SmfY95cD1Pl" class="scale-app"><g id="el_6e0raE3XVzj" clip-rule="evenodd" fill-rule="evenodd"><path id="el_slVvT6cmlv1" d="M57.85 66.29L64.01 60v-3.13L51.68 60v75.37l12.33 3.14v-3.14l-6.16-6.28z"/><path id="el_PXUHyu1RKB-" d="M119.5 78.85V75.7a6.23 6.23 0 0 0-6.17-6.28H70.18a6.23 6.23 0 0 0-6.17 6.28v3.14a6.23 6.23 0 0 0 6.17 6.28h43.15c3.4 0 6.17-2.81 6.17-6.28z"/><path id="el_YiwR_MzfFdQ" d="M104.09 116.53h-18.5c-3.4 0-6.16 2.82-6.16 6.28s2.76 6.28 6.16 6.28h18.5c3.4 0 6.16-2.8 6.16-6.28s-2.76-6.28-6.16-6.28z"/><path id="el_XYsaCulY4wa" d="M134.9 94.55h-24.65a6.22 6.22 0 0 0-6.17 6.28 6.22 6.22 0 0 0 6.17 6.28h24.66c3.4 0 6.17-2.81 6.17-6.28a6.23 6.23 0 0 0-6.17-6.28z"/></g></g><g id="el_J9yQEqDgQUu" class="scale-app"><g id="el_eX1rR8xzlrb"><path id="el_bFsflOIrsUn" d="M141.09 66.27l-1.76-8.56L41.99 75.5l1.78 8.56 54.59 19.67z"/><path id="el_q6L6skk9y0z" d="M152.36 120.52l-10.2-44.92-42.74 37.44L44.84 93.4l10.19 44.93 35.65-6.53 58.36-10.67z"/></g></g><g id="el_jzN_nUmLRuL" class="scale-app"><path id="el_YCGHMTJvnxa" d="M141.39 97.7L101.4 55.4v25.4h-3.04l-24-25.4v25.4h-17v33.84h17v25.4l24-25.4h3.04v25.4L141.4 97.7zm-62.55 25.4v-15.24h-16.1v-20.3h16.1V72.32l24.48 25.39-24.48 25.39z" clip-rule="evenodd" fill-rule="evenodd"/></g></g></svg>