<svg xmlns="http://www.w3.org/2000/svg" id="el_jpgkG5PGn" viewBox="0 0 580 400"><style>@-webkit-keyframes kf_el_sbhY4BDLXoW_an_-EQYDyzJ-{0%{opacity:0}17.59%{opacity:0}25%{opacity:1}29.63%{opacity:0}100%{opacity:0}}@keyframes kf_el_sbhY4BDLXoW_an_-EQYDyzJ-{0%{opacity:0}17.59%{opacity:0}25%{opacity:1}29.63%{opacity:0}100%{opacity:0}}@-webkit-keyframes kf_el_sbhY4BDLXoW_an_cUA2HHLwV{0%{-webkit-transform:translate(147.1759033203125px,5.616288661956787px) translate(-147.1759033203125px,-5.616288661956787px) translate(85px,156px);transform:translate(147.1759033203125px,5.616288661956787px) translate(-147.1759033203125px,-5.616288661956787px) translate(85px,156px)}100%{-webkit-transform:translate(147.1759033203125px,5.616288661956787px) translate(-147.1759033203125px,-5.616288661956787px) translate(85px,156px);transform:translate(147.1759033203125px,5.616288661956787px) translate(-147.1759033203125px,-5.616288661956787px) translate(85px,156px)}}@keyframes kf_el_sbhY4BDLXoW_an_cUA2HHLwV{0%{-webkit-transform:translate(147.1759033203125px,5.616288661956787px) translate(-147.1759033203125px,-5.616288661956787px) translate(85px,156px);transform:translate(147.1759033203125px,5.616288661956787px) translate(-147.1759033203125px,-5.616288661956787px) translate(85px,156px)}100%{-webkit-transform:translate(147.1759033203125px,5.616288661956787px) translate(-147.1759033203125px,-5.616288661956787px) translate(85px,156px);transform:translate(147.1759033203125px,5.616288661956787px) translate(-147.1759033203125px,-5.616288661956787px) translate(85px,156px)}}@-webkit-keyframes kf_el_MzkZSpA4r39_an_rvtS2gG5L{0%{-webkit-transform:translate(470.8131103515625px,2.857330322265625px) translate(-470.8131103515625px,-2.857330322265625px) translate(-244px,146px);transform:translate(470.8131103515625px,2.857330322265625px) translate(-470.8131103515625px,-2.857330322265625px) translate(-244px,146px)}100%{-webkit-transform:translate(470.8131103515625px,2.857330322265625px) translate(-470.8131103515625px,-2.857330322265625px) translate(-244px,146px);transform:translate(470.8131103515625px,2.857330322265625px) translate(-470.8131103515625px,-2.857330322265625px) translate(-244px,146px)}}@keyframes kf_el_MzkZSpA4r39_an_rvtS2gG5L{0%{-webkit-transform:translate(470.8131103515625px,2.857330322265625px) translate(-470.8131103515625px,-2.857330322265625px) translate(-244px,146px);transform:translate(470.8131103515625px,2.857330322265625px) translate(-470.8131103515625px,-2.857330322265625px) translate(-244px,146px)}100%{-webkit-transform:translate(470.8131103515625px,2.857330322265625px) translate(-470.8131103515625px,-2.857330322265625px) translate(-244px,146px);transform:translate(470.8131103515625px,2.857330322265625px) translate(-470.8131103515625px,-2.857330322265625px) translate(-244px,146px)}}@-webkit-keyframes kf_el_Ier_Xa_zhpM_an_51vR4_l3q{0%{opacity:0}69.44%{opacity:0}75%{opacity:0}77.78%{opacity:0}100%{opacity:0}}@keyframes kf_el_Ier_Xa_zhpM_an_51vR4_l3q{0%{opacity:0}69.44%{opacity:0}75%{opacity:0}77.78%{opacity:0}100%{opacity:0}}@-webkit-keyframes kf_el_MzkZSpA4r39_an_FKZmZM_X1{0%{opacity:0}77.78%{opacity:0}84.26%{opacity:1}87.96%{opacity:0}100%{opacity:0}}@keyframes kf_el_MzkZSpA4r39_an_FKZmZM_X1{0%{opacity:0}77.78%{opacity:0}84.26%{opacity:1}87.96%{opacity:0}100%{opacity:0}}@-webkit-keyframes kf_el_Ier_Xa_zhpM_an_dT20aR945{0%{-webkit-transform:translate(436.2861328125px,300.5286865234375px) translate(-436.2861328125px,-300.5286865234375px) translate(-216px,-136px);transform:translate(436.2861328125px,300.5286865234375px) translate(-436.2861328125px,-300.5286865234375px) translate(-216px,-136px)}100%{-webkit-transform:translate(436.2861328125px,300.5286865234375px) translate(-436.2861328125px,-300.5286865234375px) translate(-216px,-136px);transform:translate(436.2861328125px,300.5286865234375px) translate(-436.2861328125px,-300.5286865234375px) translate(-216px,-136px)}}@keyframes kf_el_Ier_Xa_zhpM_an_dT20aR945{0%{-webkit-transform:translate(436.2861328125px,300.5286865234375px) translate(-436.2861328125px,-300.5286865234375px) translate(-216px,-136px);transform:translate(436.2861328125px,300.5286865234375px) translate(-436.2861328125px,-300.5286865234375px) translate(-216px,-136px)}100%{-webkit-transform:translate(436.2861328125px,300.5286865234375px) translate(-436.2861328125px,-300.5286865234375px) translate(-216px,-136px);transform:translate(436.2861328125px,300.5286865234375px) translate(-436.2861328125px,-300.5286865234375px) translate(-216px,-136px)}}@-webkit-keyframes kf_el_kBb_nydcwvB_an_TVnHd41I4{0%{-webkit-transform:translate(12.330039024353027px,273.21563720703125px) translate(-12.330039024353027px,-273.21563720703125px) translate(220px,-120px);transform:translate(12.330039024353027px,273.21563720703125px) translate(-12.330039024353027px,-273.21563720703125px) translate(220px,-120px)}100%{-webkit-transform:translate(12.330039024353027px,273.21563720703125px) translate(-12.330039024353027px,-273.21563720703125px) translate(220px,-120px);transform:translate(12.330039024353027px,273.21563720703125px) translate(-12.330039024353027px,-273.21563720703125px) translate(220px,-120px)}}@keyframes kf_el_kBb_nydcwvB_an_TVnHd41I4{0%{-webkit-transform:translate(12.330039024353027px,273.21563720703125px) translate(-12.330039024353027px,-273.21563720703125px) translate(220px,-120px);transform:translate(12.330039024353027px,273.21563720703125px) translate(-12.330039024353027px,-273.21563720703125px) translate(220px,-120px)}100%{-webkit-transform:translate(12.330039024353027px,273.21563720703125px) translate(-12.330039024353027px,-273.21563720703125px) translate(220px,-120px);transform:translate(12.330039024353027px,273.21563720703125px) translate(-12.330039024353027px,-273.21563720703125px) translate(220px,-120px)}}@-webkit-keyframes kf_el_kBb_nydcwvB_an_w7hLDVDca{0%{opacity:0}51.85%{opacity:0}57.41%{opacity:1}61.11%{opacity:0}100%{opacity:0}}@keyframes kf_el_kBb_nydcwvB_an_w7hLDVDca{0%{opacity:0}51.85%{opacity:0}57.41%{opacity:1}61.11%{opacity:0}100%{opacity:0}}@-webkit-keyframes kf_el_IXGQYJXbCqU_an_G55ssD_H9{0%{opacity:0}29.63%{opacity:0}34.26%{opacity:1}37.04%{opacity:0}100%{opacity:0}}@keyframes kf_el_IXGQYJXbCqU_an_G55ssD_H9{0%{opacity:0}29.63%{opacity:0}34.26%{opacity:1}37.04%{opacity:0}100%{opacity:0}}@-webkit-keyframes kf_el_IXGQYJXbCqU_an_2oW3I9OU7{0%{-webkit-transform:translate(302.22869873046875px,8.383398056030273px) translate(-302.22869873046875px,-8.383398056030273px) translate(-81px,150px);transform:translate(302.22869873046875px,8.383398056030273px) translate(-302.22869873046875px,-8.383398056030273px) translate(-81px,150px)}100%{-webkit-transform:translate(302.22869873046875px,8.383398056030273px) translate(-302.22869873046875px,-8.383398056030273px) translate(-81px,150px);transform:translate(302.22869873046875px,8.383398056030273px) translate(-302.22869873046875px,-8.383398056030273px) translate(-81px,150px)}}@keyframes kf_el_IXGQYJXbCqU_an_2oW3I9OU7{0%{-webkit-transform:translate(302.22869873046875px,8.383398056030273px) translate(-302.22869873046875px,-8.383398056030273px) translate(-81px,150px);transform:translate(302.22869873046875px,8.383398056030273px) translate(-302.22869873046875px,-8.383398056030273px) translate(-81px,150px)}100%{-webkit-transform:translate(302.22869873046875px,8.383398056030273px) translate(-302.22869873046875px,-8.383398056030273px) translate(-81px,150px);transform:translate(302.22869873046875px,8.383398056030273px) translate(-302.22869873046875px,-8.383398056030273px) translate(-81px,150px)}}@-webkit-keyframes kf_el_5dpaHD_1XJM_an_ng9YwTRO1{0%{opacity:0}10.19%{opacity:0}14.81%{opacity:1}17.59%{opacity:0}100%{opacity:0}}@keyframes kf_el_5dpaHD_1XJM_an_ng9YwTRO1{0%{opacity:0}10.19%{opacity:0}14.81%{opacity:1}17.59%{opacity:0}100%{opacity:0}}@-webkit-keyframes kf_el_5dpaHD_1XJM_an_hwphcdXsh{0%{-webkit-transform:translate(439.9028015136719px,154.1385040283203px) translate(-439.9028015136719px,-154.1385040283203px) translate(-223px,0);transform:translate(439.9028015136719px,154.1385040283203px) translate(-439.9028015136719px,-154.1385040283203px) translate(-223px,0)}100%{-webkit-transform:translate(439.9028015136719px,154.1385040283203px) translate(-439.9028015136719px,-154.1385040283203px) translate(-223px,0);transform:translate(439.9028015136719px,154.1385040283203px) translate(-439.9028015136719px,-154.1385040283203px) translate(-223px,0)}}@keyframes kf_el_5dpaHD_1XJM_an_hwphcdXsh{0%{-webkit-transform:translate(439.9028015136719px,154.1385040283203px) translate(-439.9028015136719px,-154.1385040283203px) translate(-223px,0);transform:translate(439.9028015136719px,154.1385040283203px) translate(-439.9028015136719px,-154.1385040283203px) translate(-223px,0)}100%{-webkit-transform:translate(439.9028015136719px,154.1385040283203px) translate(-439.9028015136719px,-154.1385040283203px) translate(-223px,0);transform:translate(439.9028015136719px,154.1385040283203px) translate(-439.9028015136719px,-154.1385040283203px) translate(-223px,0)}}@-webkit-keyframes kf_el_CVwHWdCnKsh_an_9Y0gD-RNn{0%{opacity:0}37.04%{opacity:0}41.67%{opacity:1}44.44%{opacity:0}100%{opacity:0}}@keyframes kf_el_CVwHWdCnKsh_an_9Y0gD-RNn{0%{opacity:0}37.04%{opacity:0}41.67%{opacity:1}44.44%{opacity:0}100%{opacity:0}}@-webkit-keyframes kf_el_CVwHWdCnKsh_an_lXxQFCIf2{0%{-webkit-transform:translate(3.9652745723724365px,1.046875px) translate(-3.9652745723724365px,-1.046875px) translate(230px,150px);transform:translate(3.9652745723724365px,1.046875px) translate(-3.9652745723724365px,-1.046875px) translate(230px,150px)}100%{-webkit-transform:translate(3.9652745723724365px,1.046875px) translate(-3.9652745723724365px,-1.046875px) translate(230px,150px);transform:translate(3.9652745723724365px,1.046875px) translate(-3.9652745723724365px,-1.046875px) translate(230px,150px)}}@keyframes kf_el_CVwHWdCnKsh_an_lXxQFCIf2{0%{-webkit-transform:translate(3.9652745723724365px,1.046875px) translate(-3.9652745723724365px,-1.046875px) translate(230px,150px);transform:translate(3.9652745723724365px,1.046875px) translate(-3.9652745723724365px,-1.046875px) translate(230px,150px)}100%{-webkit-transform:translate(3.9652745723724365px,1.046875px) translate(-3.9652745723724365px,-1.046875px) translate(230px,150px);transform:translate(3.9652745723724365px,1.046875px) translate(-3.9652745723724365px,-1.046875px) translate(230px,150px)}}@-webkit-keyframes kf_el_dwgad8Nn1_k_an_R29XF-UkG{0%{opacity:0}44.44%{opacity:0}50%{opacity:1}51.85%{opacity:0}100%{opacity:0}}@keyframes kf_el_dwgad8Nn1_k_an_R29XF-UkG{0%{opacity:0}44.44%{opacity:0}50%{opacity:1}51.85%{opacity:0}100%{opacity:0}}@-webkit-keyframes kf_el_dwgad8Nn1_k_an_lrMPCpStW{0%{-webkit-transform:translate(3.4061124324798584px,133.40614318847656px) translate(-3.4061124324798584px,-133.40614318847656px) translate(227px,20px);transform:translate(3.4061124324798584px,133.40614318847656px) translate(-3.4061124324798584px,-133.40614318847656px) translate(227px,20px)}100%{-webkit-transform:translate(3.4061124324798584px,133.40614318847656px) translate(-3.4061124324798584px,-133.40614318847656px) translate(227px,20px);transform:translate(3.4061124324798584px,133.40614318847656px) translate(-3.4061124324798584px,-133.40614318847656px) translate(227px,20px)}}@keyframes kf_el_dwgad8Nn1_k_an_lrMPCpStW{0%{-webkit-transform:translate(3.4061124324798584px,133.40614318847656px) translate(-3.4061124324798584px,-133.40614318847656px) translate(227px,20px);transform:translate(3.4061124324798584px,133.40614318847656px) translate(-3.4061124324798584px,-133.40614318847656px) translate(227px,20px)}100%{-webkit-transform:translate(3.4061124324798584px,133.40614318847656px) translate(-3.4061124324798584px,-133.40614318847656px) translate(227px,20px);transform:translate(3.4061124324798584px,133.40614318847656px) translate(-3.4061124324798584px,-133.40614318847656px) translate(227px,20px)}}@-webkit-keyframes kf_el_qP-1ILENQWX_an_zMLRzPF4C{0%{-webkit-transform:translate(231.2873992919922px,312.46429443359375px) translate(-231.2873992919922px,-312.46429443359375px) translate(0,-150px);transform:translate(231.2873992919922px,312.46429443359375px) translate(-231.2873992919922px,-312.46429443359375px) translate(0,-150px)}100%{-webkit-transform:translate(231.2873992919922px,312.46429443359375px) translate(-231.2873992919922px,-312.46429443359375px) translate(0,-150px);transform:translate(231.2873992919922px,312.46429443359375px) translate(-231.2873992919922px,-312.46429443359375px) translate(0,-150px)}}@keyframes kf_el_qP-1ILENQWX_an_zMLRzPF4C{0%{-webkit-transform:translate(231.2873992919922px,312.46429443359375px) translate(-231.2873992919922px,-312.46429443359375px) translate(0,-150px);transform:translate(231.2873992919922px,312.46429443359375px) translate(-231.2873992919922px,-312.46429443359375px) translate(0,-150px)}100%{-webkit-transform:translate(231.2873992919922px,312.46429443359375px) translate(-231.2873992919922px,-312.46429443359375px) translate(0,-150px);transform:translate(231.2873992919922px,312.46429443359375px) translate(-231.2873992919922px,-312.46429443359375px) translate(0,-150px)}}@-webkit-keyframes kf_el_qP-1ILENQWX_an_9r95atOhC{0%{opacity:0}61.11%{opacity:0}66.67%{opacity:1}69.44%{opacity:0}100%{opacity:0}}@keyframes kf_el_qP-1ILENQWX_an_9r95atOhC{0%{opacity:0}61.11%{opacity:0}66.67%{opacity:1}69.44%{opacity:0}100%{opacity:0}}@-webkit-keyframes kf_el_7l8789kRaB_an_U4noLTpzb{0%{opacity:0}83.33%{opacity:0}97.22%{opacity:1}100%{opacity:1}}@keyframes kf_el_7l8789kRaB_an_U4noLTpzb{0%{opacity:0}83.33%{opacity:0}97.22%{opacity:1}100%{opacity:1}}@-webkit-keyframes kf_el_AQn3eekBVS_an_0RfTIvhqD{0%{opacity:0}55.56%{opacity:0}83.33%{opacity:1}100%{opacity:1}}@keyframes kf_el_AQn3eekBVS_an_0RfTIvhqD{0%{opacity:0}55.56%{opacity:0}83.33%{opacity:1}100%{opacity:1}}@-webkit-keyframes kf_el_WnUsyrGv5L_an_J7zCY4zJs{0%{opacity:0}27.78%{opacity:0}55.56%{opacity:1}100%{opacity:1}}@keyframes kf_el_WnUsyrGv5L_an_J7zCY4zJs{0%{opacity:0}27.78%{opacity:0}55.56%{opacity:1}100%{opacity:1}}@-webkit-keyframes kf_el_gsyuCAJnLt2_an_W7xvZ0jHP{0%{opacity:0}27.78%{opacity:1}100%{opacity:1}}@keyframes kf_el_gsyuCAJnLt2_an_W7xvZ0jHP{0%{opacity:0}27.78%{opacity:1}100%{opacity:1}}#el_jpgkG5PGn *{-webkit-animation-duration:3.6s;animation-duration:3.6s;-webkit-animation-iteration-count:infinite;animation-iteration-count:infinite;-webkit-animation-timing-function:cubic-bezier(0,0,1,1);animation-timing-function:cubic-bezier(0,0,1,1)}#el__pcD6kUty4{fill:#fff}#el_vjCJDmzjsc{fill:url(#gridpattern);stroke-width:0}#el_zq1P6pvEbB{stroke:null}#el_FYISe34Dhx{stroke:null;-webkit-transform:matrix(1.0064556163823541,0,0,1.0064556163823541,-5233.450316166914,-3609.2766345289433);transform:matrix(1.0064556163823541,0,0,1.0064556163823541,-5233.450316166914,-3609.2766345289433)}#el_dbA0sWmSLS{stroke:null;fill:transparent}#el_F0s5WmHkx-{stroke:null}#el_eeVDZwfpbw{stroke:null;stroke-width:0;fill:url(#gridpattern)}#el_T2K9zS4jd5{stroke:null;-webkit-transform:matrix(1.0064556163823541,0,0,1.0064556163823541,-5233.450316166914,-3609.2766345289433);transform:matrix(1.0064556163823541,0,0,1.0064556163823541,-5233.450316166914,-3609.2766345289433)}#el_dBoVuDBamT{stroke:null;fill:#fdfdff;stroke-width:1.5}#el_WnUsyrGv5L{stroke:#c03;stroke-dasharray:none;fill:none;stroke-width:1.5;-webkit-animation-fill-mode:backwards;animation-fill-mode:backwards;opacity:0;-webkit-animation-name:kf_el_WnUsyrGv5L_an_J7zCY4zJs;animation-name:kf_el_WnUsyrGv5L_an_J7zCY4zJs;-webkit-animation-timing-function:cubic-bezier(.42,0,1,1);animation-timing-function:cubic-bezier(.42,0,1,1)}#el_AQn3eekBVS{stroke:#255ca3;stroke-dasharray:none;fill:none;stroke-width:1.5;-webkit-animation-fill-mode:backwards;animation-fill-mode:backwards;opacity:0;-webkit-animation-name:kf_el_AQn3eekBVS_an_0RfTIvhqD;animation-name:kf_el_AQn3eekBVS_an_0RfTIvhqD;-webkit-animation-timing-function:cubic-bezier(.42,0,1,1);animation-timing-function:cubic-bezier(.42,0,1,1)}#el_7l8789kRaB{stroke-dasharray:none;stroke:#f6c21e;fill:none;stroke-width:1.5;-webkit-animation-fill-mode:backwards;animation-fill-mode:backwards;opacity:0;-webkit-animation-name:kf_el_7l8789kRaB_an_U4noLTpzb;animation-name:kf_el_7l8789kRaB_an_U4noLTpzb;-webkit-animation-timing-function:cubic-bezier(.42,0,1,1);animation-timing-function:cubic-bezier(.42,0,1,1)}#el_gsyuCAJnLt2{stroke-dasharray:none;stroke:#306;fill:none;stroke-width:1.5;-webkit-animation-fill-mode:backwards;animation-fill-mode:backwards;opacity:0;-webkit-animation-name:kf_el_gsyuCAJnLt2_an_W7xvZ0jHP;animation-name:kf_el_gsyuCAJnLt2_an_W7xvZ0jHP;-webkit-animation-timing-function:cubic-bezier(.42,0,1,1);animation-timing-function:cubic-bezier(.42,0,1,1)}#el_5dpaHD_1XJM{stroke:null;-webkit-animation-fill-mode:backwards;animation-fill-mode:backwards;opacity:0;-webkit-animation-name:kf_el_5dpaHD_1XJM_an_ng9YwTRO1;animation-name:kf_el_5dpaHD_1XJM_an_ng9YwTRO1;-webkit-animation-timing-function:cubic-bezier(0,0,1,1);animation-timing-function:cubic-bezier(0,0,1,1)}#el_443-1s4mGhB{stroke:null;-webkit-transform:matrix(5.180310528445872,0,0,5.180310528445872,28.262043810947944,-14.44509661699476);transform:matrix(5.180310528445872,0,0,5.180310528445872,28.262043810947944,-14.44509661699476)}#el_AbGOOJRHhcy{stroke:null;fill:#036}#el_u_EMnXPCv_F{stroke:null;fill:#036}#el_mODXbso7WTY{stroke:null;fill:#036}#el_Ier_Xa_zhpM{stroke:null;-webkit-animation-fill-mode:backwards;animation-fill-mode:backwards;opacity:0;-webkit-animation-name:kf_el_Ier_Xa_zhpM_an_51vR4_l3q;animation-name:kf_el_Ier_Xa_zhpM_an_51vR4_l3q;-webkit-animation-timing-function:cubic-bezier(0,0,1,1);animation-timing-function:cubic-bezier(0,0,1,1)}#el_MnVMCshzebK{stroke:null;-webkit-transform:matrix(4.336708828862914,0,0,4.336708828862914,-15.84933727808675,-24.497979849807052);transform:matrix(4.336708828862914,0,0,4.336708828862914,-15.84933727808675,-24.497979849807052)}#el_hz0-TPpKz8s{stroke:null;fill:#f93}#el_VHru2-A3KT0{stroke:null;fill:#f93}#el_kBb_nydcwvB{stroke:null;-webkit-animation-fill-mode:backwards;animation-fill-mode:backwards;opacity:0;-webkit-animation-name:kf_el_kBb_nydcwvB_an_w7hLDVDca;animation-name:kf_el_kBb_nydcwvB_an_w7hLDVDca;-webkit-animation-timing-function:cubic-bezier(0,0,1,1);animation-timing-function:cubic-bezier(0,0,1,1)}#el_Tevl2NxO6km{stroke:null;-webkit-transform:matrix(4.3005404720810505,0,0,4.3005404720810505,2.498914288000776,-96.7067617521634);transform:matrix(4.3005404720810505,0,0,4.3005404720810505,2.498914288000776,-96.7067617521634)}#el_FEIZp2NT4A_{stroke:null;fill:#603}#el_IpnPrAcE_Et{stroke:null;fill:#603}#el_2Pr5tNRbMqr{stroke:null;fill:#603}#el_iBrvlA_-YhU{stroke:null;fill:#603}#el_L305foN9SHN{stroke:null;fill:#603}#el_IXGQYJXbCqU{stroke:null;-webkit-animation-fill-mode:backwards;animation-fill-mode:backwards;opacity:0;-webkit-animation-name:kf_el_IXGQYJXbCqU_an_G55ssD_H9;animation-name:kf_el_IXGQYJXbCqU_an_G55ssD_H9;-webkit-animation-timing-function:cubic-bezier(0,0,1,1);animation-timing-function:cubic-bezier(0,0,1,1)}#el_HgHepro3Gsu{stroke:null;-webkit-transform:matrix(4.347638811608739,0,0,4.347638811608739,-91.53338511941428,-92.88158361250899);transform:matrix(4.347638811608739,0,0,4.347638811608739,-91.53338511941428,-92.88158361250899)}#el_psy6LNOnTf1{stroke:null;fill:#069}#el_5bkDtmQeg8_{stroke:null;fill:#069}#el_CVwHWdCnKsh{stroke:null;-webkit-animation-fill-mode:backwards;animation-fill-mode:backwards;opacity:0;-webkit-animation-name:kf_el_CVwHWdCnKsh_an_9Y0gD-RNn;animation-name:kf_el_CVwHWdCnKsh_an_9Y0gD-RNn;-webkit-animation-timing-function:cubic-bezier(0,0,1,1);animation-timing-function:cubic-bezier(0,0,1,1)}#el_L6dwAMNF-9F{stroke:null;-webkit-transform:matrix(3.5103931868121996,0,0,3.5103931868121996,18.00791172920583,-90.021362881823);transform:matrix(3.5103931868121996,0,0,3.5103931868121996,18.00791172920583,-90.021362881823)}#el_Gk5RtJF5gMW{stroke:null}#el_YmnSFf4qcka{stroke:null;fill:#c03}#el_2N7S46SE5XL{stroke:null;fill:#c03}#el_gasQ9MU4tpf{stroke:null;fill:#c03}#el_dwgad8Nn1_k{stroke:null;-webkit-animation-fill-mode:backwards;animation-fill-mode:backwards;opacity:0;-webkit-animation-name:kf_el_dwgad8Nn1_k_an_R29XF-UkG;animation-name:kf_el_dwgad8Nn1_k_an_R29XF-UkG;-webkit-animation-timing-function:cubic-bezier(0,0,1,1);animation-timing-function:cubic-bezier(0,0,1,1)}#el_NXZw3nUAcg-{stroke:null;-webkit-transform:matrix(4.127161994648682,0,0,4.127161994648682,-13.608787473526462,-88.44788076214857);transform:matrix(4.127161994648682,0,0,4.127161994648682,-13.608787473526462,-88.44788076214857)}#el_g5ngrxokhwE{stroke:null;fill:#306}#el_EdN1jUKHiBb{stroke:null;fill:#306}#el_gZiBuuvKNUF{stroke:null;fill:#306}#el_Hnjt4bGD-_C{stroke:null;fill:#306}#el_610VQVnCGYF{stroke:null;fill:#306}#el_d_l_PQjBKr3{stroke:null;fill:#306}#el_MzkZSpA4r39{stroke:null;-webkit-animation-fill-mode:backwards;animation-fill-mode:backwards;opacity:0;-webkit-animation-name:kf_el_MzkZSpA4r39_an_FKZmZM_X1;animation-name:kf_el_MzkZSpA4r39_an_FKZmZM_X1;-webkit-animation-timing-function:cubic-bezier(0,0,1,1);animation-timing-function:cubic-bezier(0,0,1,1)}#el_Mt5dFv8Qi6E{stroke:null;fill:#096}#el_sbhY4BDLXoW{stroke:null;-webkit-animation-fill-mode:backwards;animation-fill-mode:backwards;opacity:0;-webkit-animation-name:kf_el_sbhY4BDLXoW_an_-EQYDyzJ-;animation-name:kf_el_sbhY4BDLXoW_an_-EQYDyzJ-;-webkit-animation-timing-function:cubic-bezier(0,0,1,1);animation-timing-function:cubic-bezier(0,0,1,1)}#el_VDCA4PGq2Fg{stroke:null;-webkit-transform:matrix(4.01095612748678,0,0,4.01095612748678,.9022794926776214,-42.51369613372707);transform:matrix(4.01095612748678,0,0,4.01095612748678,.9022794926776214,-42.51369613372707)}#el_e5_25-2Wzwi{stroke:null;fill:#699}#el_e6Ai6LWPtAD{stroke:null;fill:#699}#el_pDINUKcC110{stroke:null;fill:#699}#el_CFKPUOLM7Ow{stroke:null;fill:#699}#el_qP-1ILENQWX{stroke:null;-webkit-animation-fill-mode:backwards;animation-fill-mode:backwards;opacity:0;-webkit-animation-name:kf_el_qP-1ILENQWX_an_9r95atOhC;animation-name:kf_el_qP-1ILENQWX_an_9r95atOhC;-webkit-animation-timing-function:cubic-bezier(0,0,1,1);animation-timing-function:cubic-bezier(0,0,1,1)}#el_uG5jnnILexV{stroke:null;fill:#c1272d}#el_qHrTRCxl5ig{stroke:null;fill:#fff}#el_CDTzD4V1R7A{stroke:null;fill:#c1272d}#el_YobsxT1H8YD{stroke:null;fill:#ccc}#el_qP-1ILENQWX_an_zMLRzPF4C{-webkit-animation-fill-mode:backwards;animation-fill-mode:backwards;-webkit-transform:translate(231.2873992919922px,312.46429443359375px) translate(-231.2873992919922px,-312.46429443359375px) translate(0,-150px);transform:translate(231.2873992919922px,312.46429443359375px) translate(-231.2873992919922px,-312.46429443359375px) translate(0,-150px);-webkit-animation-name:kf_el_qP-1ILENQWX_an_zMLRzPF4C;animation-name:kf_el_qP-1ILENQWX_an_zMLRzPF4C;-webkit-animation-timing-function:cubic-bezier(0,0,1,1);animation-timing-function:cubic-bezier(0,0,1,1)}#el_qP-1ILENQWX_an_GFkceDW5U{-webkit-transform:translate(231.2873992919922px,312.46429443359375px) rotate(234deg) translate(-231.2873992919922px,-312.46429443359375px);transform:translate(231.2873992919922px,312.46429443359375px) rotate(234deg) translate(-231.2873992919922px,-312.46429443359375px)}#el_dwgad8Nn1_k_an_lrMPCpStW{-webkit-animation-fill-mode:backwards;animation-fill-mode:backwards;-webkit-transform:translate(3.4061124324798584px,133.40614318847656px) translate(-3.4061124324798584px,-133.40614318847656px) translate(227px,20px);transform:translate(3.4061124324798584px,133.40614318847656px) translate(-3.4061124324798584px,-133.40614318847656px) translate(227px,20px);-webkit-animation-name:kf_el_dwgad8Nn1_k_an_lrMPCpStW;animation-name:kf_el_dwgad8Nn1_k_an_lrMPCpStW;-webkit-animation-timing-function:cubic-bezier(0,0,1,1);animation-timing-function:cubic-bezier(0,0,1,1)}#el_CVwHWdCnKsh_an_lXxQFCIf2{-webkit-animation-fill-mode:backwards;animation-fill-mode:backwards;-webkit-transform:translate(3.9652745723724365px,1.046875px) translate(-3.9652745723724365px,-1.046875px) translate(230px,150px);transform:translate(3.9652745723724365px,1.046875px) translate(-3.9652745723724365px,-1.046875px) translate(230px,150px);-webkit-animation-name:kf_el_CVwHWdCnKsh_an_lXxQFCIf2;animation-name:kf_el_CVwHWdCnKsh_an_lXxQFCIf2;-webkit-animation-timing-function:cubic-bezier(0,0,1,1);animation-timing-function:cubic-bezier(0,0,1,1)}#el_5dpaHD_1XJM_an_hwphcdXsh{-webkit-animation-fill-mode:backwards;animation-fill-mode:backwards;-webkit-transform:translate(439.9028015136719px,154.1385040283203px) translate(-439.9028015136719px,-154.1385040283203px) translate(-223px,0);transform:translate(439.9028015136719px,154.1385040283203px) translate(-439.9028015136719px,-154.1385040283203px) translate(-223px,0);-webkit-animation-name:kf_el_5dpaHD_1XJM_an_hwphcdXsh;animation-name:kf_el_5dpaHD_1XJM_an_hwphcdXsh;-webkit-animation-timing-function:cubic-bezier(0,0,1,1);animation-timing-function:cubic-bezier(0,0,1,1)}#el_IXGQYJXbCqU_an_2oW3I9OU7{-webkit-animation-fill-mode:backwards;animation-fill-mode:backwards;-webkit-transform:translate(302.22869873046875px,8.383398056030273px) translate(-302.22869873046875px,-8.383398056030273px) translate(-81px,150px);transform:translate(302.22869873046875px,8.383398056030273px) translate(-302.22869873046875px,-8.383398056030273px) translate(-81px,150px);-webkit-animation-name:kf_el_IXGQYJXbCqU_an_2oW3I9OU7;animation-name:kf_el_IXGQYJXbCqU_an_2oW3I9OU7;-webkit-animation-timing-function:cubic-bezier(0,0,1,1);animation-timing-function:cubic-bezier(0,0,1,1)}#el_kBb_nydcwvB_an_TVnHd41I4{-webkit-animation-fill-mode:backwards;animation-fill-mode:backwards;-webkit-transform:translate(12.330039024353027px,273.21563720703125px) translate(-12.330039024353027px,-273.21563720703125px) translate(220px,-120px);transform:translate(12.330039024353027px,273.21563720703125px) translate(-12.330039024353027px,-273.21563720703125px) translate(220px,-120px);-webkit-animation-name:kf_el_kBb_nydcwvB_an_TVnHd41I4;animation-name:kf_el_kBb_nydcwvB_an_TVnHd41I4;-webkit-animation-timing-function:cubic-bezier(0,0,1,1);animation-timing-function:cubic-bezier(0,0,1,1)}#el_Ier_Xa_zhpM_an_dT20aR945{-webkit-animation-fill-mode:backwards;animation-fill-mode:backwards;-webkit-transform:translate(436.2861328125px,300.5286865234375px) translate(-436.2861328125px,-300.5286865234375px) translate(-216px,-136px);transform:translate(436.2861328125px,300.5286865234375px) translate(-436.2861328125px,-300.5286865234375px) translate(-216px,-136px);-webkit-animation-name:kf_el_Ier_Xa_zhpM_an_dT20aR945;animation-name:kf_el_Ier_Xa_zhpM_an_dT20aR945;-webkit-animation-timing-function:cubic-bezier(0,0,1,1);animation-timing-function:cubic-bezier(0,0,1,1)}#el_MzkZSpA4r39_an_rvtS2gG5L{-webkit-animation-fill-mode:backwards;animation-fill-mode:backwards;-webkit-transform:translate(470.8131103515625px,2.857330322265625px) translate(-470.8131103515625px,-2.857330322265625px) translate(-244px,146px);transform:translate(470.8131103515625px,2.857330322265625px) translate(-470.8131103515625px,-2.857330322265625px) translate(-244px,146px);-webkit-animation-name:kf_el_MzkZSpA4r39_an_rvtS2gG5L;animation-name:kf_el_MzkZSpA4r39_an_rvtS2gG5L;-webkit-animation-timing-function:cubic-bezier(0,0,1,1);animation-timing-function:cubic-bezier(0,0,1,1)}#el_sbhY4BDLXoW_an_cUA2HHLwV{-webkit-animation-fill-mode:backwards;animation-fill-mode:backwards;-webkit-transform:translate(147.1759033203125px,5.616288661956787px) translate(-147.1759033203125px,-5.616288661956787px) translate(85px,156px);transform:translate(147.1759033203125px,5.616288661956787px) translate(-147.1759033203125px,-5.616288661956787px) translate(85px,156px);-webkit-animation-name:kf_el_sbhY4BDLXoW_an_cUA2HHLwV;animation-name:kf_el_sbhY4BDLXoW_an_cUA2HHLwV;-webkit-animation-timing-function:cubic-bezier(0,0,1,1);animation-timing-function:cubic-bezier(0,0,1,1)}</style>
 <!-- Created with Method Draw - http://github.com/duopixel/Method-Draw/ -->
 <g id="el_05strSjtog">
  <title>Layer 1</title>
  <!-- Created with Method Draw - http://github.com/duopixel/Method-Draw/ -->
  <g id="el_zq1P6pvEbB">
   <g id="el_T2K9zS4jd5">
    <title stroke="null" transform="translate(0.9935857653617859,0) translate(0,0.9935857653617859) translate(4.967928886413574,2.980757474899292) translate(0,0.9935857653617859) translate(-4.967928886413574,1.9871715307235718) translate(0,-0.9935857653617859) translate(-137.11483764648438,-112.27519226074219) translate(139.1020050048828,111.28160858154297) translate(0,-0.9935857653617859) translate(5197.52490234375,0) translate(0,3584.5) ">Layer 1</title>
    <rect x="5368.505658" y="3691.896215" width="225" height="203.000011" id="el_dBoVuDBamT" rx="15"/>
    <line x1="5390.505655" y1="3710.89622" x2="5573.297887" y2="3710.89622" id="el_WnUsyrGv5L" stroke-linejoin="null" stroke-linecap="null" stroke-dasharray="8"/>
    <line x1="5391.505655" y1="3714.89622" x2="5391.505655" y2="3879.89925" id="el_AQn3eekBVS" stroke-linejoin="null" stroke-linecap="null" stroke-dasharray="8"/>
    <line x1="5394.505655" y1="3879.89622" x2="5576.055368" y2="3879.89622" id="el_7l8789kRaB" stroke-linejoin="null" stroke-linecap="null" stroke-dasharray="8"/>
    <line x1="5574.505655" y1="3875.89622" x2="5574.505655" y2="3712.893114" id="el_gsyuCAJnLt2" stroke-linejoin="null" stroke-linecap="null" stroke-dasharray="8"/>
   </g>
  </g>
  <g id="el_5dpaHD_1XJM_an_hwphcdXsh" data-animator-group="true" data-animator-type="0"><g id="el_5dpaHD_1XJM">
   <g id="el_443-1s4mGhB">
    <path id="el_AbGOOJRHhcy" d="m89.277566,44.750146c0,0 -0.764,0.982 -2.397,0.982c-1.478,0 -2.418,-0.982 -2.418,-0.982s-0.602,0.194 -1.101,0.781c-0.715,0.838 -0.481,2.675 -0.481,2.675l7.981,0.008c0,0 0.274,-1.882 -0.482,-2.683c-0.602,-0.638 -1.102,-0.781 -1.102,-0.781z" clip-rule="evenodd" fill-rule="evenodd"/>
    <path id="el_u_EMnXPCv_F" d="m83.637566,42.321146l0.441,0c0.417,0.842 1.929,1.605 2.791,1.605s2.375,-0.764 2.792,-1.605l0.44,0l0.481,-1.605l-0.481,-0.535c0,-0.522 0,-0.535 0,-0.535s0.033,-1.175 -0.481,-1.604c-0.41,-0.341 -0.485,-1.346 -2.74,-1.375c-1.608,-0.022 -2.119,0.663 -2.762,1.375c-0.293,0.326 -0.438,0.982 -0.481,1.604c-0.011,0.1 0,0.44 0,0.535l-0.481,0.535l0.481,1.605z" clip-rule="evenodd" fill-rule="evenodd"/>
    <path id="el_mODXbso7WTY" d="m101.718566,32.543146l-19.783,0c-1.367,0 -2.473,1.107 -2.473,2.474l0,14.838c0,1.365 1.106,2.473 2.473,2.473l19.783,0c1.366,0 2.473,-1.107 2.473,-2.473l0,-14.838c0,-1.367 -1.107,-2.474 -2.473,-2.474zm-9.067,16.487c0,0.454 -0.37,0.824 -0.825,0.824l-9.891,0c-0.457,0 -0.824,-0.37 -0.824,-0.824l0,-13.189c0,-0.455 0.368,-0.824 0.824,-0.824l9.892,0c0.455,0 0.825,0.369 0.825,0.824l0,13.189l-0.001,0zm9.067,-2.473l-5.771,0c-0.455,0 -0.824,-0.369 -0.824,-0.824s0.369,-0.824 0.824,-0.824l5.771,0c0.457,0 0.824,0.369 0.824,0.824s-0.368,0.824 -0.824,0.824zm0,-4.121l-5.771,0c-0.455,0 -0.824,-0.369 -0.824,-0.824c0,-0.456 0.369,-0.825 0.824,-0.825l5.771,0c0.457,0 0.824,0.369 0.824,0.825c0,0.454 -0.368,0.824 -0.824,0.824zm0,-4.121l-5.771,0c-0.455,0 -0.824,-0.371 -0.824,-0.825c0,-0.455 0.369,-0.824 0.824,-0.824l5.771,0c0.457,0 0.824,0.369 0.824,0.824c0,0.454 -0.368,0.825 -0.824,0.825z" clip-rule="evenodd" fill-rule="evenodd"/>
   </g>
  </g></g>
  <g id="el_Ier_Xa_zhpM_an_dT20aR945" data-animator-group="true" data-animator-type="0"><g id="el_Ier_Xa_zhpM">
   <g id="el_MnVMCshzebK">
    <polygon id="el_hz0-TPpKz8s" points="129.49273300170898,80.55776596069336 130.29473495483398,76.55076599121094 117.07473373413086,76.55076599121094 117.07473373413086,74.9477653503418 105.85473251342773,74.9477653503418 106.65673446655273,80.55776596069336 "/>
    <polygon id="el_VHru2-A3KT0" points="104.25773239135742,81.3587646484375 106.06173324584961,95.78376388549805 116.12273025512695,95.78376388549805 120.02772903442383,95.78376388549805 130.0887336730957,95.78376388549805 132.25773239135742,81.3587646484375 "/>
   </g>
  </g></g>
  <g id="el_kBb_nydcwvB_an_TVnHd41I4" data-animator-group="true" data-animator-type="0"><g id="el_kBb_nydcwvB">
   <g id="el_Tevl2NxO6km">
    <path id="el_FEIZp2NT4A_" d="m9.023022,110.438661c0,0 -0.694,0.272 -0.842,0c-0.151,-0.277 0,-0.842 0,-0.842l1.685,-7.579l12.138,-12.139c-0.305,-0.305 -0.726,-0.493 -1.19,-0.493l-2.526,0l0,2.105c0,0.697 -0.314,1.264 -0.702,1.264l-10.388,0c-0.387,0 -0.701,-0.566 -0.701,-1.264l0,-2.105l-2.527,0c-0.93,0 -1.684,0.754 -1.684,1.685l0,19.368c0,0.931 0.754,1.685 1.684,1.685l16.843,0c0.93,0 1.684,-0.754 1.684,-1.685l0,-7.579l-5.895,5.895l-7.579,1.684z" clip-rule="evenodd" fill-rule="evenodd"/>
    <polygon id="el_IpnPrAcE_Et" points="11.535026550292969,103.08865928649902 9.97201919555664,108.53166007995605 15.444023132324219,106.97765922546387 " clip-rule="evenodd" fill-rule="evenodd"/>
    <polygon id="el_2Pr5tNRbMqr" points="12.922027587890625,101.70465660095215 16.831024169921875,105.5926570892334 23.745025634765625,98.72366142272949 19.83702850341797,94.83466148376465 " clip-rule="evenodd" fill-rule="evenodd"/>
    <path id="el_iBrvlA_-YhU" d="m25.561022,95.456661l-2.443,-2.43c-0.405,-0.403 -1.082,-0.381 -1.515,0.049l-1.171,1.166l3.907,3.888l1.172,-1.166c0.432,-0.43 0.455,-1.104 0.05,-1.507z" clip-rule="evenodd" fill-rule="evenodd"/>
    <path id="el_L305foN9SHN" d="m9.023022,91.911661l6.737,0c0.465,0 0.842,-0.377 0.842,-0.842l0,-1.684c0,-0.465 -0.377,-0.842 -0.842,-0.842l-0.894,0c0.032,-0.136 0.051,-0.277 0.051,-0.422c0,-1.162 -1.131,-2.104 -2.526,-2.104s-2.525,0.942 -2.525,2.104c0,0.145 0.017,0.286 0.051,0.422l-0.894,0c-0.465,0 -0.842,0.377 -0.842,0.842l0,1.685c0,0.464 0.377,0.841 0.842,0.841zm2.527,-4.211l1.685,0l0,1.685l-1.685,0l0,-1.685z" clip-rule="evenodd" fill-rule="evenodd"/>
   </g>
  </g></g>
  <g id="el_IXGQYJXbCqU_an_2oW3I9OU7" data-animator-group="true" data-animator-type="0"><g id="el_IXGQYJXbCqU">
   <g id="el_HgHepro3Gsu">
    <polygon id="el_psy6LNOnTf1" points="115.87918472290039,25.621952056884766 115.42718124389648,23.291950225830078 90.56918716430664,28.132949829101562 91.02418899536133,30.461952209472656 104.96418380737305,35.81195068359375 "/>
    <polygon id="el_5bkDtmQeg8_" points="118.75518417358398,40.38195037841797 116.15118789672852,28.158950805664062 105.23618698120117,38.346954345703125 91.29518508911133,33.001953125 93.89818954467773,45.2259521484375 103.00418472290039,43.449951171875 117.90718460083008,40.54595184326172 117.90718460083008,40.54595184326172 "/>
   </g>
  </g></g>
  <g id="el_CVwHWdCnKsh_an_lXxQFCIf2" data-animator-group="true" data-animator-type="0"><g id="el_CVwHWdCnKsh">
   <g id="el_L6dwAMNF-9F">
    <g id="el_Gk5RtJF5gMW">
     <path id="el_YmnSFf4qcka" d="m2.381696,33.386462c1.172,0 2.127,-0.952 2.127,-2.127l0,-3.19c0,-1.174 -0.955,-2.127 -2.127,-2.127c-1.174,0 -2.128,0.953 -2.128,2.127l0,3.19c0,1.175 0.954,2.127 2.128,2.127z"/>
     <path id="el_2N7S46SE5XL" d="m17.270696,33.386462c1.174,0 2.128,-0.952 2.128,-2.127l0,-3.19c0,-1.174 -0.954,-2.127 -2.128,-2.127c-1.175,0 -2.127,0.953 -2.127,2.127l0,3.19c0,1.175 0.953,2.127 2.127,2.127z"/>
     <path id="el_gasQ9MU4tpf" d="m21.524696,29.133462l-1.063,0l-0.001,0l0,3.19c0,0.483 -0.167,0.924 -0.438,1.282c-0.389,0.511 -0.998,0.846 -1.688,0.846l-2.127,0c-1.174,0 -2.127,-0.953 -2.127,-2.127l0,-3.19l-0.001,0l-8.507,0l-0.001,0l0,3.19c0,1.175 -0.954,2.127 -2.127,2.127l-2.127,0c-0.69,0 -1.299,-0.335 -1.687,-0.846c-0.272,-0.358 -0.44,-0.799 -0.44,-1.283l0,-3.19l-0.001,0l-1.063,0c-1.173,0 -2.127,0.952 -2.127,2.126l0,11.978l0,12.484c0,1.173 0.954,2.127 2.127,2.127l5.615,0l12.168,0l5.615,0c1.174,0 2.127,-0.954 2.127,-2.127l0,-12.483l0,-11.978c0,-1.174 -0.953,-2.126 -2.127,-2.126zm-15.954,25.523l-6.38,0l0,-5.316l6.38,0l0,5.316zm0,-6.372l-6.38,0l0,-5.372l6.38,0l0,5.372zm0,-6.386l-6.38,0l0,-5.317l6.38,0l0,5.317zm1.065,-5.317l6.38,0l0,5.317l-6.38,0l0,-5.317zm0,6.331l6.38,0l0,5.372l-6.38,0l0,-5.372zm6.381,8.573c0,-0.006 -0.001,-0.012 -0.001,-0.019l0,3.19l-6.38,0l0,-3.19c0,0.007 -0.001,0.013 -0.001,0.019l0,-0.034c0,0.006 0.001,0.011 0.001,0.016l0,-2.126l6.38,0l0,2.126c0,-0.005 0.001,-0.01 0.001,-0.015l0,0.033zm7.444,3.171l-6.38,0l0,-5.316l6.38,0l0,5.316zm0.001,-6.372l-6.38,0l0,-0.008l-0.001,0l0,-5.317l0.001,0l0,-0.047l6.38,0l0,5.372zm0,-6.386l-6.38,0l0,-5.317l6.38,0l0,5.317z"/>
    </g>
   </g>
  </g></g>
  <g id="el_dwgad8Nn1_k_an_lrMPCpStW" data-animator-group="true" data-animator-type="0"><g id="el_dwgad8Nn1_k">
   <g id="el_NXZw3nUAcg-">
    <path id="el_g5ngrxokhwE" d="m16.986663,53.754618c-7.104,0 -12.864,5.761 -12.864,12.864c0,7.105 5.76,12.865 12.864,12.865c7.105,0 12.865,-5.76 12.865,-12.865c0,-7.103 -5.76,-12.864 -12.865,-12.864zm0,23.053c-5.173,0 -10.169,-4.972 -10.169,-10.115c0,-5.143 4.996,-10.116 10.169,-10.116c5.174,0 10.169,4.974 10.169,10.116c0,5.143 -4.996,10.115 -10.169,10.115z"/>
    <path id="el_EdN1jUKHiBb" d="m16.986663,60.195618c1.264,0 0.804,-2.409 0,-2.409c-0.803,0 -1.263,2.409 0,2.409z"/>
    <path id="el_gZiBuuvKNUF" d="m8.153663,66.620618c0,1.263 2.409,1.263 2.409,0c0,-1.262 -2.409,-1.262 -2.409,0z"/>
    <path id="el_Hnjt4bGD-_C" d="m16.986663,73.044618c-1.263,0 -1.146,2.408 0,2.408c1.147,0.001 1.263,-2.408 0,-2.408z"/>
    <path id="el_610VQVnCGYF" d="m20.666663,60.193618c-0.588,-0.271 -1.282,-0.018 -1.554,0.566l-2.495,5.403l-2.757,-0.009c-0.644,-0.002 -1.166,0.52 -1.165,1.165c0.004,0.646 0.526,1.17 1.173,1.171l3.505,0.012c0.039,0 0.076,-0.009 0.112,-0.013c0.028,-0.003 0.059,-0.003 0.086,-0.009c0.056,-0.009 0.107,-0.023 0.159,-0.041c0.02,-0.006 0.036,-0.01 0.056,-0.017c0.053,-0.021 0.104,-0.046 0.153,-0.074c0.017,-0.008 0.031,-0.015 0.047,-0.025c0.049,-0.029 0.093,-0.063 0.136,-0.101c0.015,-0.012 0.029,-0.023 0.044,-0.036c0.042,-0.039 0.079,-0.082 0.113,-0.126c0.013,-0.015 0.025,-0.028 0.037,-0.044c0.035,-0.05 0.066,-0.104 0.094,-0.158c0.006,-0.012 0.015,-0.021 0.021,-0.034l0.01,-0.021c0.003,-0.007 0.006,-0.013 0.01,-0.02l2.79,-6.043c0.269,-0.581 0.011,-1.275 -0.575,-1.546z"/>
    <path id="el_d_l_PQjBKr3" d="m23.410663,66.620618c0,1.263 2.408,1.263 2.408,0c0.001,-1.262 -2.408,-1.262 -2.408,0z"/>
   </g>
  </g></g>
  <g id="el_MzkZSpA4r39_an_rvtS2gG5L" data-animator-group="true" data-animator-type="0"><g id="el_MzkZSpA4r39">
   <path id="el_Mt5dFv8Qi6E" d="m579.186952,57.03531l-51.562953,-54.177979l0,32.511258l-3.929245,0l-30.955652,-32.511258l0,32.511258l-21.925989,0l0,43.337913l21.925989,0l0,32.506788l30.955652,-32.506788l3.929245,0l0,32.506788l51.562953,-54.177979zm-80.676912,32.506788l0,-19.503179l-20.772696,0l0,-25.998278l20.772696,0l0,-19.512119l31.56806,32.506788l-31.56806,32.506788z" clip-rule="evenodd" fill-rule="evenodd"/>
  </g></g>
  <g id="el_sbhY4BDLXoW_an_cUA2HHLwV" data-animator-group="true" data-animator-type="0"><g id="el_sbhY4BDLXoW">
   <g id="el_VDCA4PGq2Fg">
    <polygon id="el_e5_25-2Wzwi" points="38.18151843547821,14.569628536701202 39.894519686698914,12.855628788471222 39.894519686698914,11.999627888202667 36.46851718425751,12.855628788471222 36.46851718425751,33.417629063129425 39.894519686698914,34.27262860536575 39.894519686698914,33.417629063129425 38.18151843547821,31.703628361225128 " clip-rule="evenodd" fill-rule="evenodd"/>
    <path id="el_e6Ai6LWPtAD" d="m55.315518,17.996628l0,-0.856c0,-0.946 -0.768,-1.714 -1.713,-1.714l-11.993,0c-0.947,0 -1.715,0.768 -1.715,1.714l0,0.856c0,0.946 0.768,1.714 1.715,1.714l11.993,0c0.945,0 1.713,-0.768 1.713,-1.714z" clip-rule="evenodd" fill-rule="evenodd"/>
    <path id="el_pDINUKcC110" d="m51.032518,28.276628l-5.141,0c-0.946,0 -1.713,0.768 -1.713,1.714s0.767,1.713 1.713,1.713l5.141,0c0.946,0 1.714,-0.767 1.714,-1.713s-0.768,-1.714 -1.714,-1.714z" clip-rule="evenodd" fill-rule="evenodd"/>
    <path id="el_CFKPUOLM7Ow" d="m59.598518,22.279628l-6.853,0c-0.947,0 -1.714,0.767 -1.714,1.714c0,0.946 0.767,1.713 1.714,1.713l6.853,0c0.945,0 1.714,-0.767 1.714,-1.713c0,-0.947 -0.768,-1.714 -1.714,-1.714z" clip-rule="evenodd" fill-rule="evenodd"/>
   </g>
  </g></g>
  <g id="el_qP-1ILENQWX_an_zMLRzPF4C" data-animator-group="true" data-animator-type="0"><g id="el_qP-1ILENQWX">
   <path id="el_uG5jnnILexV" d="m335.712196,356.819609c0,-5.244333 -1.568444,-10.271189 -4.663715,-14.945921c-2.778644,-4.195711 -6.671601,-7.909546 -11.569522,-11.039907c-9.457997,-6.041204 -21.889266,-9.369456 -35.001119,-9.369456c-4.37973,0 -8.697033,0.370078 -12.884175,1.103705c-2.597481,-2.431823 -5.638892,-4.619648 -8.856978,-6.348854c-17.192093,-8.332667 -31.44927,-0.195852 -31.44927,-0.195852s13.255477,10.889346 11.099886,20.433844c-5.929813,5.883299 -9.144635,12.977205 -9.144635,20.36244c0,0.022849 0.001224,0.046923 0.001224,0.070588c0,0.023257 -0.001224,0.046107 -0.001224,0.070996c0,7.385235 3.213597,14.479141 9.144635,20.361216c2.155591,9.545315 -11.099886,20.435068 -11.099886,20.435068s14.257176,8.135592 31.44927,-0.195852c3.217678,-1.729206 6.258273,-3.918255 8.856978,-6.348854c4.187959,0.732811 8.504445,1.102481 12.884175,1.102481c13.112669,0 25.542713,-3.325804 35.001119,-9.367416c4.897921,-3.129952 8.790878,-6.842563 11.56993,-11.040315c3.094862,-4.673915 4.663715,-9.70322 4.663715,-14.945105c0,-0.024481 -0.001224,-0.046923 -0.001224,-0.070996l0.000816,-0.071812z"/>
   <path id="el_qHrTRCxl5ig" d="m284.47784,328.878531c24.279471,0 43.962959,12.572853 43.962959,28.081847c0,15.50777 -19.683488,28.081439 -43.962959,28.081439c-5.406319,0 -10.584144,-0.625093 -15.367002,-1.764704c-4.861607,5.847801 -15.555917,13.978904 -25.945025,11.351229c3.379255,-3.629374 8.38571,-9.762383 7.314239,-19.865059c-6.227263,-4.84447 -9.964763,-11.045211 -9.964763,-17.802905c-0.001224,-15.510218 19.682264,-28.081847 43.962551,-28.081847"/>
   <path id="el_CDTzD4V1R7A" d="m284.47784,363.704199c3.225838,0 5.840456,-2.614618 5.840456,-5.840456c0,-3.22543 -2.614618,-5.840048 -5.840456,-5.840048c-3.22543,0 -5.840048,2.614618 -5.840048,5.840048c0,3.225838 2.614618,5.840456 5.840048,5.840456zm20.304909,0c3.22543,0 5.840456,-2.614618 5.840456,-5.840456c0,-3.22543 -2.615026,-5.840048 -5.840456,-5.840048s-5.840048,2.614618 -5.840048,5.840048c0,3.225838 2.614618,5.840456 5.840048,5.840456zm-40.610634,-0.001224c3.225022,0 5.839232,-2.61421 5.839232,-5.838824c0,-3.225022 -2.61421,-5.83964 -5.838824,-5.83964c-3.22543,0 -5.83964,2.614618 -5.83964,5.839232c0,3.225022 2.61421,5.839232 5.839232,5.839232z"/>
   <path id="el_YobsxT1H8YD" d="m284.47784,381.347159c-5.406319,0 -10.584144,-0.542672 -15.367002,-1.53009c-4.292413,4.475616 -13.133478,10.49193 -22.295658,10.270781c-1.207343,1.82958 -2.519548,3.325396 -3.649367,4.539676c10.389108,2.627675 21.083419,-5.502612 25.945025,-11.351229c4.783266,1.140427 9.961499,1.764704 15.367002,1.764704c24.084436,0 43.643068,-12.373737 43.954799,-27.710953c-0.31173,13.29424 -19.870363,24.016704 -43.954799,24.016704l0,0.000408z"/>
  </g></g>
 </g>
</svg>