<?xml version="1.0" encoding="utf-8"?>
<!-- Generator: Adobe Illustrator 16.2.1, SVG Export Plug-In . SVG Version: 6.00 Build 0)  -->
<!DOCTYPE svg PUBLIC "-//W3C//DTD SVG 1.1//EN" "http://www.w3.org/Graphics/SVG/1.1/DTD/svg11.dtd">
<?xml-stylesheet type="text/css" href="../../../../pixelegg/less/svg.css" ?>
<svg version="1.1" id="mail_navbar" xmlns="http://www.w3.org/2000/svg" xmlns:xlink="http://www.w3.org/1999/xlink" x="0px" y="0px"
	 width="28.347px" height="28.347px" viewBox="0 0 28.347 28.347" enable-background="new 0 0 28.347 28.347" xml:space="preserve">
<g>
	<path fill-rule="evenodd" clip-rule="evenodd" fill="#ECEDED" d="M20.038,16.039c-3.507,0-5.767,2.659-5.767,5.72
		c0,2.867,2.195,4.649,4.788,4.649c1.059,0,1.942-0.163,2.812-0.595l-0.253-0.639c-0.647,0.342-1.485,0.521-2.386,0.521
		c-2.338,0-4.06-1.545-4.06-4.026c0-3.016,2.164-4.947,4.739-4.947c2.448,0,3.823,1.561,3.823,3.729
		c0,1.708-0.901,2.733-1.707,2.703c-0.521-0.015-0.711-0.534-0.473-1.663l0.537-2.689c-0.412-0.178-1.028-0.312-1.691-0.312
		c-2.196,0-3.743,1.68-3.743,3.521c0,1.174,0.789,1.871,1.706,1.871c0.947,0,1.674-0.43,2.228-1.307h0.046
		c-0.03,0.921,0.554,1.307,1.186,1.307c1.469,0,2.797-1.307,2.797-3.535C24.62,17.866,22.787,16.039,20.038,16.039z M20.67,21.061
		c-0.174,0.92-1.011,2.02-1.927,2.02c-0.695,0-1.043-0.476-1.043-1.129c0-1.44,1.121-2.674,2.512-2.674
		c0.363,0,0.632,0.06,0.79,0.119L20.67,21.061z"/>
	<polygon fill-rule="evenodd" clip-rule="evenodd" fill="#ECEDED" points="22.897,4.501 22.467,2.624 2.439,7.218 2.869,9.095 
		14.319,13.058 	"/>
	<path fill-rule="evenodd" clip-rule="evenodd" fill="#ECEDED" d="M23.185,6.551l-8.578,8.556l-11.45-3.961l2.44,9.842l7.337-1.684
		c0.902-2.904,3.611-5.013,6.812-5.013c2.052,0,3.896,0.872,5.197,2.259l0.683-0.157L23.185,6.551z"/>
</g>
</svg>
