<?xml version="1.0" encoding="utf-8"?>
<!-- Generator: Adobe Illustrator 16.2.1, SVG Export Plug-In . SVG Version: 6.00 Build 0)  -->
<!DOCTYPE svg PUBLIC "-//W3C//DTD SVG 1.1//EN" "http://www.w3.org/Graphics/SVG/1.1/DTD/svg11.dtd">
<svg version="1.1" id="Ebene_1" xmlns="http://www.w3.org/2000/svg" xmlns:xlink="http://www.w3.org/1999/xlink" x="0px" y="0px"
	 width="28.347px" height="28.347px" viewBox="0 0 28.347 28.347" enable-background="new 0 0 28.347 28.347" xml:space="preserve">
<g>
	<path fill="#ECEDED" d="M0,0v28.348h28.348V0H0z M25.48,15.202c-0.536,0.303-2.063,0.884-2.68,1.121l-0.435,0.168L21.68,18.1
		l0.209,0.434c0.246,0.51,0.938,1.949,1.118,2.533l-1.594,1.537c-0.241-0.064-0.919-0.283-2.731-1.037l-0.416-0.174l-1.664,0.662
		l-0.172,0.441c-0.2,0.535-0.771,2.035-1.075,2.564h-2.267c-0.309-0.512-0.91-1.982-1.156-2.576l-0.174-0.424l-1.664-0.66
		l-0.428,0.191c-1.794,0.799-2.453,1.023-2.658,1.086l-1.597-1.537c0.161-0.582,0.807-2.021,1.066-2.604l0.191-0.424L5.98,16.506
		l-0.454-0.16c-0.61-0.215-2.124-0.748-2.665-1.037v-2.175c0.528-0.291,2.004-0.855,2.679-1.113l0.435-0.166l0.689-1.608
		l-0.21-0.435c-0.249-0.514-0.938-1.95-1.117-2.538L6.93,5.742c0.24,0.062,0.92,0.28,2.736,1.033l0.416,0.175l1.661-0.662
		l0.169-0.443c0.2-0.533,0.771-2.033,1.074-2.564h2.266c0.309,0.513,0.912,1.981,1.156,2.577l0.174,0.424l1.662,0.662l0.43-0.192
		c1.797-0.8,2.453-1.026,2.659-1.087L22.931,7.2c-0.161,0.58-0.808,2.019-1.065,2.603l-0.192,0.428l0.691,1.611L22.816,12
		c0.609,0.216,2.12,0.747,2.664,1.035V15.202z"/>
	<path fill="#ECEDED" d="M14.172,10.288c-2.223,0-4.03,1.743-4.03,3.886c0,2.141,1.808,3.887,4.03,3.887s4.03-1.746,4.03-3.887
		C18.202,12.031,16.395,10.288,14.172,10.288z"/>
</g>
</svg>
