<?xml version="1.0" encoding="utf-8"?>
<!-- Generator: Adobe Illustrator 17.1.0, SVG Export Plug-In . SVG Version: 6.00 Build 0)  -->
<!DOCTYPE svg PUBLIC "-//W3C//DTD SVG 1.1//EN" "http://www.w3.org/Graphics/SVG/1.1/DTD/svg11.dtd">
<svg version="1.1" id="milestone" xmlns="http://www.w3.org/2000/svg" xmlns:xlink="http://www.w3.org/1999/xlink" x="0px" y="0px"
	 viewBox="0 0 28.3 28.3" enable-background="new 0 0 28.3 28.3" xml:space="preserve">
<g>
	<path fill="#ECECED" d="M22.1,6.7c1.4,1.7,2.2,3.8,2.2,6.2c0,5.5-4.5,9.9-10.1,9.9S4.1,18.3,4.1,12.9c0-2.3,0.8-4.5,2.2-6.2
		L3.8,3.6C1.5,6,0.1,9.3,0.1,12.9c0,7.6,6.3,13.8,14.1,13.8s14.1-6.2,14.1-13.8c0-3.6-1.4-6.9-3.7-9.3L22.1,6.7z"/>
	<path fill="#ECECED" d="M16.7,2.4l-2.5,3.1l-2.5-3.1H6.1l8.1,10.1l8.1-10.1H16.7z"/>
	<path fill="#ECECED" d="M14.2,16.6L8.6,9.6c-0.6,1-0.9,2.1-0.9,3.3c0,3.5,2.9,6.4,6.5,6.4s6.5-2.8,6.5-6.4c0-1.2-0.3-2.3-0.9-3.3
		L14.2,16.6z"/>
</g>
</svg>
