<?xml version="1.0" encoding="utf-8"?>
<!-- Generator: Adobe Illustrator 16.2.1, SVG Export Plug-In . SVG Version: 6.00 Build 0)  -->
<!DOCTYPE svg PUBLIC "-//W3C//DTD SVG 1.1//EN" "http://www.w3.org/Graphics/SVG/1.1/DTD/svg11.dtd">
<svg version="1.1" id="Ebene_1" xmlns="http://www.w3.org/2000/svg" xmlns:xlink="http://www.w3.org/1999/xlink" x="0px" y="0px"
	 width="28.347px" height="28.347px" viewBox="0 0 28.347 28.347" enable-background="new 0 0 28.347 28.347" xml:space="preserve">
<path fill-rule="evenodd" clip-rule="evenodd" fill="#ECEDED" d="M24.804,0.001H3.544c-1.957,0-3.543,1.586-3.543,3.544v21.259
	c0,1.957,1.586,3.543,3.543,3.543h21.26c1.957,0,3.543-1.586,3.543-3.543V3.545C28.347,1.587,26.761,0.001,24.804,0.001z
	 M2.835,3.202h13.898v3.658H2.835V3.202z M2.835,8.322h13.898v3.657H2.835V8.322z M2.835,17.101v-3.658h13.898v3.658H2.835z
	 M25.513,21.489c0,2.021-1.639,3.658-3.658,3.658H7.225c-2.021,0-3.657-1.638-3.657-3.658v-2.926h2.194v2.194
	c0,1.212,0.982,2.194,2.194,2.194h13.167c1.212,0,2.195-0.982,2.195-2.194V7.591c0-1.212-0.983-2.194-2.195-2.194h-2.195V3.203
	h2.927c2.02,0,3.658,1.637,3.658,3.657V21.489z"/>
</svg>
