<?xml version="1.0" encoding="utf-8"?>
<!-- Generator: Adobe Illustrator 16.2.1, SVG Export Plug-In . SVG Version: 6.00 Build 0)  -->
<!DOCTYPE svg PUBLIC "-//W3C//DTD SVG 1.1//EN" "http://www.w3.org/Graphics/SVG/1.1/DTD/svg11.dtd">
<?xml-stylesheet type="text/css" href="../less/svg.css" ?>
<svg version="1.1" id="pixelegg_new" xmlns="http://www.w3.org/2000/svg" xmlns:xlink="http://www.w3.org/1999/xlink" x="0px" y="0px"
	 width="28.347px" height="28.347px" viewBox="0 0 28.347 28.347" enable-background="new 0 0 28.347 28.347" xml:space="preserve">
<g>
	<polygon fill-rule="evenodd" clip-rule="evenodd" fill="#ECEDED" points="22.331,5.567 17.224,0.746 16.575,0.746 16.575,6.501 
		22.331,6.501 	"/>
	<path fill-rule="evenodd" clip-rule="evenodd" fill="#ECEDED" d="M21.372,14.177c0.325,0,0.645,0.027,0.959,0.066V8.42h-7.675
		V0.746H1.225v25.903h14.161c-1.055-1.314-1.688-2.98-1.688-4.797C13.697,17.613,17.133,14.177,21.372,14.177z"/>
	<path fill-rule="evenodd" clip-rule="evenodd" fill="#ECEDED" d="M21.372,16.104c-3.175,0-5.748,2.574-5.748,5.748
		c0,3.176,2.573,5.748,5.748,5.748s5.748-2.572,5.748-5.748C27.12,18.678,24.547,16.104,21.372,16.104z M25.21,22.812h-2.879v2.877
		h-1.919v-2.877h-2.878v-1.92h2.878v-2.879h1.919v2.879h2.879V22.812z"/>
</g>
</svg>
