<?xml version="1.0" encoding="utf-8"?>
<!-- Generator: Adobe Illustrator 15.0.0, SVG Export Plug-In . SVG Version: 6.00 Build 0)  -->
<!DOCTYPE svg PUBLIC "-//W3C//DTD SVG 1.1//EN" "http://www.w3.org/Graphics/SVG/1.1/DTD/svg11.dtd">
<?xml-stylesheet type="text/css" href="../less/svg.css" ?>
<svg version="1.1" id="pixelegg_next_match_round" xmlns="http://www.w3.org/2000/svg" xmlns:xlink="http://www.w3.org/1999/xlink" x="0px" y="0px"
	 width="32px" height="32px" viewBox="0 0 32 32" enable-background="new 0 0 32 32" xml:space="preserve">
<g>
	
		<circle fill-rule="evenodd" clip-rule="evenodd" fill="#696969" stroke="#E6E6E6" stroke-width="0.75" stroke-miterlimit="10" cx="2.998" cy="3.809" r="1.984"/>
</g>
<path fill-rule="evenodd" clip-rule="evenodd" fill="#696969" stroke="#E6E6E6" stroke-width="0.75" stroke-miterlimit="10" d="
	M30.711,3.946c0-1.12-0.908-2.028-2.028-2.028H8.765c-1.12,0-2.028,0.908-2.028,2.028l0,0c0,1.12,0.908,2.028,2.028,2.028h19.918
	C29.803,5.974,30.711,5.066,30.711,3.946L30.711,3.946z"/>
<path fill-rule="evenodd" clip-rule="evenodd" fill="#696969" stroke="#E6E6E6" stroke-width="0.75" stroke-miterlimit="10" d="
	M30.711,15.999c0-1.12-0.908-2.028-2.028-2.028H8.765c-1.12,0-2.028,0.908-2.028,2.028l0,0c0,1.121,0.908,2.029,2.028,2.029h19.918
	C29.803,18.027,30.711,17.119,30.711,15.999L30.711,15.999z"/>
<path fill-rule="evenodd" clip-rule="evenodd" fill="#696969" stroke="#E6E6E6" stroke-width="0.75" stroke-miterlimit="10" d="
	M30.711,28.053c0-1.119-0.908-2.027-2.028-2.027H8.765c-1.12,0-2.028,0.908-2.028,2.027l0,0c0,1.121,0.908,2.029,2.028,2.029h19.918
	C29.803,30.082,30.711,29.174,30.711,28.053L30.711,28.053z"/>
<g>
	
		<circle fill-rule="evenodd" clip-rule="evenodd" fill="#696969" stroke="#E6E6E6" stroke-width="0.75" stroke-miterlimit="10" cx="2.998" cy="15.999" r="1.984"/>
</g>
<g>
	
		<circle fill-rule="evenodd" clip-rule="evenodd" fill="#696969" stroke="#E6E6E6" stroke-width="0.75" stroke-miterlimit="10" cx="2.998" cy="28.054" r="1.984"/>
</g>
</svg>
