<?xml version="1.0" encoding="utf-8"?>
<!-- Generator: Adobe Illustrator 16.2.1, SVG Export Plug-In . SVG Version: 6.00 Build 0)  -->
<!DOCTYPE svg PUBLIC "-//W3C//DTD SVG 1.1//EN" "http://www.w3.org/Graphics/SVG/1.1/DTD/svg11.dtd">
<svg version="1.1" id="Ebene_1" xmlns="http://www.w3.org/2000/svg" xmlns:xlink="http://www.w3.org/1999/xlink" x="0px" y="0px"
	 width="28.347px" height="28.347px" viewBox="0 0 28.347 28.347" enable-background="new 0 0 28.347 28.347" xml:space="preserve">
<path fill-rule="evenodd" clip-rule="evenodd" fill="#ECEDED" d="M0,0v28.348h28.346V0H0z M4.729,24.562l1.798-6.301l4.497,4.5
	L4.729,24.562z M23.22,8.865c0.31,0.31,0.381,0.756,0.263,1.167l0.129,0.129l-0.447,0.448L12.102,21.684l-4.497-4.502L17.887,6.89
	l-0.965-0.99l-5.426,5.433l-1.1-1.103l6.448-6.455l3.071,2.004c0.182,0.046,0.352,0.132,0.493,0.273l0.546,0.546l2.819-2.823
	l1.729,1.731l-2.82,2.823L23.22,8.865z"/>
</svg>
