<?xml version="1.0" encoding="utf-8"?>
<!-- Generator: Adobe Illustrator 16.0.0, SVG Export Plug-In . SVG Version: 6.00 Build 0)  -->
<!DOCTYPE svg PUBLIC "-//W3C//DTD SVG 1.1//EN" "http://www.w3.org/Graphics/SVG/1.1/DTD/svg11.dtd">
<svg version="1.1" id="Ebene_1" xmlns="http://www.w3.org/2000/svg" xmlns:xlink="http://www.w3.org/1999/xlink" x="0px" y="0px"
	 width="28.347px" height="28.347px" viewBox="0 0 28.347 28.347" enable-background="new 0 0 28.347 28.347" xml:space="preserve">
<path fill-rule="evenodd" clip-rule="evenodd" fill="#ECEDED" d="M24.437,0H3.91C1.75,0,0,1.751,0,3.91v20.527
	c0,2.159,1.75,3.909,3.91,3.909h20.527c2.159,0,3.91-1.75,3.91-3.909V3.91C28.347,1.751,26.596,0,24.437,0z M4.729,24.562
	l1.798-6.301l4.497,4.501L4.729,24.562z M22.685,8.329l0.536,0.537c0.309,0.309,0.381,0.755,0.263,1.167l0.129,0.129l-0.448,0.449
	L12.102,21.684l-4.497-4.501L17.887,6.89L16.923,5.9l-5.426,5.432l-1.1-1.102l6.449-6.455l3.071,2.004
	c0.182,0.046,0.353,0.132,0.494,0.273l0.545,0.546l2.82-2.823l1.729,1.731L22.685,8.329z"/>
</svg>
