<?xml version="1.0" encoding="utf-8"?>
<!-- Generator: Adobe Illustrator 16.2.1, SVG Export Plug-In . SVG Version: 6.00 Build 0)  -->
<!DOCTYPE svg PUBLIC "-//W3C//DTD SVG 1.1//EN" "http://www.w3.org/Graphics/SVG/1.1/DTD/svg11.dtd">
<svg version="1.1" id="pixelegg_password" xmlns="http://www.w3.org/2000/svg" xmlns:xlink="http://www.w3.org/1999/xlink" x="0px"
	 y="0px" width="28.348px" height="28.348px" viewBox="0 0 28.348 28.348" style="enable-background:new 0 0 28.348 28.348;"
	 xml:space="preserve">
<path style="fill:#ECEDED;" d="M18.255,4c-3.488,0-6.328,2.839-6.329,6.329c0,0.454,0.126,1.152,0.223,1.605L4.49,20.668
	c-0.101,0.116-0.157,0.266-0.157,0.418v2.531c0,0.349,0.284,0.633,0.633,0.633h2.531c0.297,0,0.554-0.206,0.618-0.497l0.42-1.893
	l2.886-0.089c0.324-0.01,0.588-0.267,0.61-0.589l0.168-2.417l2.401,0.052c0.276,0.007,0.524-0.167,0.614-0.428l0.731-2.154
	c0.578,0.223,1.274,0.421,2.309,0.421c3.489,0,6.328-2.84,6.328-6.328C24.583,6.839,21.744,4,18.255,4z M18.888,11.356
	c-0.961,0-1.74-0.779-1.74-1.74s0.779-1.74,1.74-1.74s1.739,0.779,1.739,1.74S19.849,11.356,18.888,11.356z"/>
<rect x="0" y="0" style="fill:none;" width="28.347" height="28.349"/>
</svg>
