<?xml version="1.0" encoding="UTF-8" standalone="no"?>
<svg
   xmlns:dc="http://purl.org/dc/elements/1.1/"
   xmlns:cc="http://creativecommons.org/ns#"
   xmlns:rdf="http://www.w3.org/1999/02/22-rdf-syntax-ns#"
   xmlns:svg="http://www.w3.org/2000/svg"
   xmlns="http://www.w3.org/2000/svg"
   xmlns:sodipodi="http://sodipodi.sourceforge.net/DTD/sodipodi-0.dtd"
   xmlns:inkscape="http://www.inkscape.org/namespaces/inkscape"
   data-name="Layer 21"
   height="24"
   id="Layer_21"
   viewBox="0 0 24 24"
   width="24"
   version="1.1"
   sodipodi:docname="share.svg"
   inkscape:version="0.92.3 (2405546, 2018-03-11)">
  <metadata
     id="metadata11">
    <rdf:RDF>
      <cc:Work
         rdf:about="">
        <dc:format>image/svg+xml</dc:format>
        <dc:type
           rdf:resource="http://purl.org/dc/dcmitype/StillImage" />
        <dc:title></dc:title>
      </cc:Work>
    </rdf:RDF>
  </metadata>
  <defs
     id="defs9" />
  <sodipodi:namedview
     pagecolor="#ffffff"
     bordercolor="#666666"
     borderopacity="1"
     objecttolerance="10"
     gridtolerance="10"
     guidetolerance="10"
     inkscape:pageopacity="0"
     inkscape:pageshadow="2"
     inkscape:window-width="960"
     inkscape:window-height="1052"
     id="namedview7"
     showgrid="false"
     inkscape:zoom="17.361979"
     inkscape:cx="12"
     inkscape:cy="12"
     inkscape:window-x="960"
     inkscape:window-y="0"
     inkscape:window-maximized="0"
     inkscape:current-layer="Layer_21" />
  <path
     d="M16.5,14a3.47675,3.47675,0,0,0-2.65356,1.24176L9.88025,12.86212a3.16321,3.16321,0,0,0,0-1.72424l3.96619-2.37964A3.4825,3.4825,0,1,0,13,6.5a3.45107,3.45107,0,0,0,.04126.40912l-4.19,2.514a3.5,3.5,0,1,0,0,5.15369l4.19,2.514A3.45107,3.45107,0,0,0,13,17.5,3.5,3.5,0,1,0,16.5,14Z"
     id="path4"
     style="fill:#696969;fill-opacity:1" />
</svg>
