<?xml version="1.0" encoding="utf-8"?>
<!-- Generator: Adobe Illustrator 16.2.1, SVG Export Plug-In . SVG Version: 6.00 Build 0)  -->
<!DOCTYPE svg PUBLIC "-//W3C//DTD SVG 1.1//EN" "http://www.w3.org/Graphics/SVG/1.1/DTD/svg11.dtd">
<svg version="1.1" id="Ebene_1" xmlns="http://www.w3.org/2000/svg" xmlns:xlink="http://www.w3.org/1999/xlink" x="0px" y="0px"
	 width="28.347px" height="28.347px" viewBox="0 0 28.347 28.347" enable-background="new 0 0 28.347 28.347" xml:space="preserve">
<path fill-rule="evenodd" clip-rule="evenodd" fill="#ECEDED" d="M24.804,0.001H3.544c-1.957,0-3.543,1.586-3.543,3.544v21.259
	c0,1.957,1.586,3.543,3.543,3.543h21.26c1.957,0,3.543-1.586,3.543-3.543V3.545C28.347,1.587,26.761,0.001,24.804,0.001z
	 M21.216,22.944h-0.23c-2.094,0.13-4.389,0.203-6.797,0.203c-2.41,0-4.702-0.073-6.796-0.203h-0.23l-1.234-4.618
	c2.468,0.193,5.278,0.303,8.261,0.304c2.983,0,5.791-0.111,8.26-0.305L21.216,22.944z M24.592,10.306l-1.825,6.828
	c-2.544,0.21-5.465,0.33-8.578,0.33c-3.115,0-6.034-0.121-8.578-0.331l-1.822-6.817c-0.732-0.199-1.273-0.863-1.273-1.658
	c0-0.955,0.773-1.728,1.726-1.728c0.954,0,1.728,0.773,1.728,1.728c0,0.525-0.241,0.992-0.613,1.309
	c-0.004,0.066-0.018,0.133-0.018,0.2c0,2.247,1.821,4.069,4.069,4.069c2.247,0,4.069-1.822,4.069-4.069
	c0-0.331-0.058-0.646-0.136-0.954c-0.733-0.326-1.246-1.059-1.246-1.914c0-1.157,0.938-2.096,2.095-2.096
	c1.159,0,2.098,0.939,2.098,2.096c0,0.881-0.544,1.631-1.314,1.941c-0.073,0.3-0.129,0.605-0.129,0.927
	c0,2.247,1.821,4.069,4.07,4.069c2.245,0,4.067-1.822,4.067-4.069c0-0.077-0.014-0.151-0.019-0.228
	c-0.354-0.316-0.58-0.771-0.58-1.281c0-0.955,0.773-1.728,1.728-1.728c0.952,0,1.726,0.773,1.726,1.728
	C25.835,9.44,25.309,10.096,24.592,10.306z"/>
</svg>
