<?xml version="1.0" encoding="utf-8"?>
<!-- Generator: Adobe Illustrator 16.2.1, SVG Export Plug-In . SVG Version: 6.00 Build 0)  -->
<!DOCTYPE svg PUBLIC "-//W3C//DTD SVG 1.1//EN" "http://www.w3.org/Graphics/SVG/1.1/DTD/svg11.dtd">
<svg version="1.1" id="Ebene_1" xmlns="http://www.w3.org/2000/svg" xmlns:xlink="http://www.w3.org/1999/xlink" x="0px" y="0px"
	 width="28.347px" height="28.347px" viewBox="0 0 28.347 28.347" enable-background="new 0 0 28.347 28.347" xml:space="preserve">
<g>
	<path fill-rule="evenodd" clip-rule="evenodd" fill="#ECEDED" d="M24.803,0.001H3.543C1.586,0.001,0,1.587,0,3.544v21.259
		c0,1.957,1.586,3.543,3.543,3.543h21.26c1.957,0,3.543-1.586,3.543-3.543V3.544C28.346,1.587,26.76,0.001,24.803,0.001z
		 M14.172,26.134c-6.605,0-11.959-5.355-11.959-11.96c0-6.605,5.354-11.959,11.959-11.959s11.959,5.354,11.959,11.959
		C26.131,20.778,20.777,26.134,14.172,26.134z"/>
	<path fill-rule="evenodd" clip-rule="evenodd" fill="#ECEDED" d="M14.172,4.838c-4.809,0-9.453,4.622-9.453,9.403
		s4.645,9.404,9.453,9.404s9.453-4.623,9.453-9.404S18.98,4.838,14.172,4.838z M14.172,5.962c0.746,0,1.174,2.24,0,2.24
		S13.426,5.962,14.172,5.962z M5.961,14.174c0-1.173,2.24-1.173,2.24,0C8.201,15.349,5.961,15.349,5.961,14.174z M14.172,22.386
		c-1.066,0-1.174-2.24,0-2.24S15.238,22.386,14.172,22.386z M18.104,9.64l-2.568,5.567c-0.149,0.417-0.539,0.718-1.009,0.716
		l-3.258-0.01c-0.6-0.002-1.086-0.488-1.09-1.088c0-0.601,0.484-1.086,1.084-1.084l2.547,0.008l2.317-5.022
		c0.25-0.543,0.896-0.778,1.443-0.527C18.115,8.452,18.355,9.097,18.104,9.64z M20.145,14.174c0-1.173,2.238-1.173,2.238,0
		C22.383,15.349,20.145,15.349,20.145,14.174z"/>
</g>
</svg>
