<?xml version="1.0" encoding="utf-8"?>
<!-- Generator: Adobe Illustrator 16.2.1, SVG Export Plug-In . SVG Version: 6.00 Build 0)  -->
<!DOCTYPE svg PUBLIC "-//W3C//DTD SVG 1.1//EN" "http://www.w3.org/Graphics/SVG/1.1/DTD/svg11.dtd">
<svg version="1.1" id="Ebene_1" xmlns="http://www.w3.org/2000/svg" xmlns:xlink="http://www.w3.org/1999/xlink" x="0px" y="0px"
	 width="28.347px" height="28.347px" viewBox="0 0 28.347 28.347" enable-background="new 0 0 28.347 28.347" xml:space="preserve">
<path fill-rule="evenodd" clip-rule="evenodd" fill="#ECEDED" d="M0.001,0v28.348h28.346V0H0.001z M25.979,20.865c0,0,0,0,0,0.002
	c0,0.869-0.705,1.574-1.574,1.574c-0.008,0-0.016-0.002-0.023-0.002l-0.002,0.002H3.935c0,0,0,0-0.002,0H3.932H3.909l-0.003-0.002
	c-0.856-0.016-1.548-0.713-1.548-1.572c0-0.01,0.002-0.016,0.002-0.023l-0.002-0.002V10.451l11.811,8.984l11.811-8.984V20.865z
	 M25.979,6.584l-11.811,8.984L2.358,6.584v-0.68h23.621V6.584z"/>
</svg>
