<?xml version="1.0" encoding="utf-8"?>
<!-- Generator: Adobe Illustrator 16.2.1, SVG Export Plug-In . SVG Version: 6.00 Build 0)  -->
<!DOCTYPE svg PUBLIC "-//W3C//DTD SVG 1.1//EN" "http://www.w3.org/Graphics/SVG/1.1/DTD/svg11.dtd">
<svg version="1.1" id="Ebene_1" xmlns="http://www.w3.org/2000/svg" xmlns:xlink="http://www.w3.org/1999/xlink" x="0px" y="0px"
	 width="28.347px" height="28.347px" viewBox="0 0 28.347 28.347" enable-background="new 0 0 28.347 28.347" xml:space="preserve">
<path fill-rule="evenodd" clip-rule="evenodd" fill="#ECEDED" d="M24.804,0H3.544C1.587,0,0.001,1.586,0.001,3.543v21.259
	c0,1.957,1.586,3.543,3.543,3.543h21.26c1.957,0,3.543-1.586,3.543-3.543V3.543C28.347,1.586,26.761,0,24.804,0z M3.621,2.808
	h12.106v2.025c-1,0.774-2.015,1.886-3.049,3.335c-1.033,1.449-1.82,2.988-2.362,4.621c-0.542,1.631-0.808,3.088-0.799,4.372H6.104
	c0.058-2.012,0.585-4.063,1.581-6.154c0.995-2.091,2.323-3.96,3.986-5.608l-5.02,0.428v1.511H3.628L3.621,5.399V2.808z
	 M25.548,21.699c0,2.088-1.693,3.78-3.779,3.78H6.651c-2.088,0-3.78-1.692-3.78-3.78v-3.023h2.268v2.268
	c0,1.254,1.016,2.269,2.269,2.269h13.605c1.253,0,2.269-1.015,2.269-2.269V7.339c0-1.252-1.016-2.267-2.269-2.267h-2.269V2.804
	h3.024c2.086,0,3.779,1.692,3.779,3.779V21.699z"/>
</svg>
