<?xml version="1.0" encoding="utf-8"?>
<!-- Generator: Adobe Illustrator 15.0.0, SVG Export Plug-In . SVG Version: 6.00 Build 0)  -->
<!DOCTYPE svg PUBLIC "-//W3C//DTD SVG 1.1//EN" "http://www.w3.org/Graphics/SVG/1.1/DTD/svg11.dtd">
<?xml-stylesheet type="text/css" href="../less/svg.css" ?>
<svg version="1.1" id="pixelegg_wiki" xmlns="http://www.w3.org/2000/svg" xmlns:xlink="http://www.w3.org/1999/xlink" x="0px" y="0px"
	 width="32px" height="32px" viewBox="0 0 32 32" enable-background="new 0 0 32 32" xml:space="preserve">
<g>
	<g>
		<path fill="#696969" stroke="#E6E6E6" stroke-miterlimit="10" d="M20.318,13.165c1.723,0,3.119-1.265,3.119-2.824
			c0-1.56-1.396-2.824-3.119-2.824c-1.722,0-3.119,1.264-3.119,2.824C17.199,11.9,18.597,13.165,20.318,13.165z M30.897,7.671
			h-6.895c-0.243,0-0.441,0.18-0.441,0.401v1.002c0,0.22,0.198,0.4,0.441,0.4h1.573c0.244,0,0.375,0.169,0.292,0.377l-5.069,12.61
			c-0.084,0.206-0.219,0.206-0.303,0l-5.069-12.61c-0.083-0.208,0.048-0.377,0.292-0.377h0.821c0.243,0,0.442-0.18,0.442-0.4V8.072
			c0-0.221-0.199-0.401-0.442-0.401H9.646c-0.243,0-0.443,0.18-0.443,0.401v1.002c0,0.22,0.2,0.4,0.443,0.4h1.248
			c0.244,0,0.511,0.169,0.594,0.377l2.971,7.392c0.083,0.206,0.083,0.546,0,0.752l-1.791,4.455c-0.083,0.206-0.219,0.206-0.302,0
			L7.3,9.852C7.217,9.644,7.348,9.475,7.592,9.475h0.647c0.244,0,0.443-0.18,0.443-0.4V8.072c0-0.221-0.199-0.401-0.443-0.401H1.345
			c-0.243,0-0.443,0.18-0.443,0.401v1.002c0,0.22,0.2,0.4,0.443,0.4h1.423c0.244,0,0.511,0.169,0.594,0.377l8.098,20.122
			c0.084,0.208,0.22,0.208,0.303,0l3.756-9.341c0.083-0.208,0.219-0.208,0.303,0l3.76,9.354c0.084,0.208,0.154,0.363,0.158,0.349
			c0.003-0.013,0.006-0.017,0.007-0.006c0,0.012,0.068-0.148,0.151-0.356l8.089-20.122c0.084-0.208,0.352-0.377,0.595-0.377h2.315
			c0.245,0,0.443-0.18,0.443-0.4V8.072C31.341,7.852,31.143,7.671,30.897,7.671z"/>
	</g>
</g>
</svg>
