<?xml version="1.0" encoding="utf-8"?>
<!-- Generator: Adobe Illustrator 16.2.1, SVG Export Plug-In . SVG Version: 6.00 Build 0)  -->
<!DOCTYPE svg PUBLIC "-//W3C//DTD SVG 1.1//EN" "http://www.w3.org/Graphics/SVG/1.1/DTD/svg11.dtd">

<?xml-stylesheet type="text/css" href="../../../../pixelegg/less/svg.css" ?>
<svg version="1.1" id="addressbook_navbar" xmlns="http://www.w3.org/2000/svg" xmlns:xlink="http://www.w3.org/1999/xlink" x="0px"
	 y="0px" width="28.347px" height="28.347px" viewBox="0 0 28.347 28.347" enable-background="new 0 0 28.347 28.347"
	 xml:space="preserve">
<g>
	<path fill-rule="evenodd" clip-rule="evenodd" fill="#333399" d="M11.483,16.831c0,0-0.764,0.982-2.397,0.982
		c-1.478,0-2.418-0.982-2.418-0.982s-0.602,0.194-1.101,0.781c-0.715,0.838-0.481,2.675-0.481,2.675l7.981,0.008
		c0,0,0.274-1.882-0.482-2.683C11.983,16.974,11.483,16.831,11.483,16.831z"/>
	<path fill-rule="evenodd" clip-rule="evenodd" fill="#333399" d="M5.843,14.402h0.441c0.417,0.842,1.929,1.605,2.791,1.605
		s2.375-0.764,2.792-1.605h0.44l0.481-1.605l-0.481-0.535c0-0.522,0-0.535,0-0.535s0.033-1.175-0.481-1.604
		c-0.41-0.341-0.485-1.346-2.74-1.375c-1.608-0.022-2.119,0.663-2.762,1.375c-0.293,0.326-0.438,0.982-0.481,1.604
		c-0.011,0.1,0,0.44,0,0.535l-0.481,0.535L5.843,14.402z"/>
	<path fill-rule="evenodd" clip-rule="evenodd" fill="#333399" d="M23.924,4.624H4.141c-1.367,0-2.473,1.107-2.473,2.474v14.838
		c0,1.365,1.106,2.473,2.473,2.473h19.783c1.366,0,2.473-1.107,2.473-2.473V7.098C26.397,5.731,25.29,4.624,23.924,4.624z
		 M14.857,21.111c0,0.454-0.37,0.824-0.825,0.824H4.141c-0.457,0-0.824-0.37-0.824-0.824V7.922c0-0.455,0.368-0.824,0.824-0.824
		h9.892c0.455,0,0.825,0.369,0.825,0.824V21.111z M23.924,18.638h-5.771c-0.455,0-0.824-0.369-0.824-0.824s0.369-0.824,0.824-0.824
		h5.771c0.457,0,0.824,0.369,0.824,0.824S24.38,18.638,23.924,18.638z M23.924,14.517h-5.771c-0.455,0-0.824-0.369-0.824-0.824
		c0-0.456,0.369-0.825,0.824-0.825h5.771c0.457,0,0.824,0.369,0.824,0.825C24.748,14.147,24.38,14.517,23.924,14.517z
		 M23.924,10.396h-5.771c-0.455,0-0.824-0.371-0.824-0.825c0-0.455,0.369-0.824,0.824-0.824h5.771c0.457,0,0.824,0.369,0.824,0.824
		C24.748,10.025,24.38,10.396,23.924,10.396z"/>
</g>
</svg>
