<?xml version="1.0" encoding="utf-8"?>
<!-- Generator: Adobe Illustrator 16.2.1, SVG Export Plug-In . SVG Version: 6.00 Build 0)  -->
<!DOCTYPE svg PUBLIC "-//W3C//DTD SVG 1.1//EN" "http://www.w3.org/Graphics/SVG/1.1/DTD/svg11.dtd">
<svg version="1.1" id="Ebene_1" xmlns="http://www.w3.org/2000/svg" xmlns:xlink="http://www.w3.org/1999/xlink" x="0px" y="0px"
	 width="28.347px" height="28.347px" viewBox="0 0 28.347 28.347" enable-background="new 0 0 28.347 28.347" xml:space="preserve">
<g>
	<path fill-rule="evenodd" clip-rule="evenodd" fill="#ECEDED" d="M0,0v28.348h28.348V0H0z M14.173,27.038
		c-7.105,0-12.865-5.76-12.865-12.865c0-7.104,5.76-12.865,12.865-12.865s12.865,5.761,12.865,12.865
		C27.038,21.278,21.278,27.038,14.173,27.038z"/>
	<path fill-rule="evenodd" clip-rule="evenodd" fill="#ECEDED" d="M14.173,4.13C9,4.13,4.004,9.103,4.004,14.246
		S9,24.361,14.173,24.361s10.169-4.972,10.169-10.115S19.346,4.13,14.173,4.13z M14.173,5.34c0.803,0,1.263,2.409,0,2.409
		S13.37,5.34,14.173,5.34z M5.34,14.174c0-1.262,2.409-1.262,2.409,0S5.34,15.436,5.34,14.174z M14.173,23.007
		c-1.147,0-1.263-2.409,0-2.409S15.32,23.007,14.173,23.007z M18.427,9.295l-2.79,6.043c-0.003,0.006-0.006,0.012-0.009,0.019
		l-0.01,0.021c-0.006,0.013-0.015,0.022-0.021,0.034c-0.027,0.055-0.058,0.108-0.093,0.158c-0.012,0.016-0.025,0.029-0.037,0.044
		c-0.035,0.044-0.072,0.087-0.114,0.126c-0.014,0.013-0.029,0.024-0.044,0.036c-0.043,0.037-0.087,0.071-0.135,0.101
		c-0.016,0.01-0.031,0.017-0.047,0.025c-0.05,0.028-0.101,0.054-0.154,0.074c-0.019,0.007-0.036,0.011-0.055,0.017
		c-0.052,0.017-0.104,0.032-0.159,0.041c-0.028,0.006-0.058,0.006-0.086,0.009c-0.037,0.004-0.074,0.012-0.113,0.012l-3.505-0.011
		c-0.646-0.001-1.169-0.525-1.172-1.171c-0.001-0.646,0.521-1.167,1.165-1.165l2.756,0.009L16.3,8.313
		c0.271-0.584,0.965-0.838,1.553-0.566C18.439,8.018,18.697,8.712,18.427,9.295z M20.597,14.174c0-1.262,2.409-1.262,2.409,0
		S20.597,15.436,20.597,14.174z"/>
</g>
</svg>
