<svg version="1.1" xmlns="http://www.w3.org/2000/svg" xmlns:xlink="http://www.w3.org/1999/xlink" x="0px" y="0px" width="24" height="24"><g id="icon-background-color" stroke="none" stroke-width="1" fill-rule="evenodd"><path id="Rectangle" opacity=".1" d="M3 3h18v16H3z"></path><path id="color" d="M3 19h18v3H3z"></path><path d="M8.7 17h-.8a.5.5 0 0 1-.5-.6l2.7-9c.1-.3.3-.4.5-.4h2.8c.2 0 .4.1.5.4l2.7 9a.5.5 0 0 1-.5.6h-.8a.5.5 0 0 1-.4-.4l-.7-2.2c0-.3-.3-.4-.5-.4h-3.4c-.2 0-.4.1-.5.4l-.7 2.2c0 .3-.2.4-.4.4zm2.6-7.6l-.6 2a.5.5 0 0 0 .5.6h1.6a.5.5 0 0 0 .5-.6l-.6-2c0-.3-.3-.4-.5-.4h-.4c-.2 0-.4.1-.5.4z" id="shape"></path></g></svg>