<svg version="1.1" xmlns="http://www.w3.org/2000/svg" xmlns:xlink="http://www.w3.org/1999/xlink" x="0px" y="0px" width="24" height="24"><g id="icon-bold" stroke="none" stroke-width="1" fill-rule="evenodd"><path d="M7.8 19c-.3 0-.5 0-.6-.2l-.2-.5V5.7c0-.2 0-.4.2-.5l.6-.2h5c1.5 0 2.7.3 3.5 1 .7.6 1.1 1.4 1.1 2.5a3 3 0 0 1-.6 1.9c-.4.6-1 1-1.6 1.2.4.1.9.3 1.3.6s.8.7 1 1.2c.4.4.5 1 .5 1.6 0 1.3-.4 2.3-1.3 3-.8.7-2.1 1-3.8 1H7.8zm5-8.3c.6 0 1.2-.1 1.6-.5.4-.3.6-.7.6-1.3 0-1.1-.8-1.7-2.3-1.7H9.3v3.5h3.4zm.5 6c.7 0 1.3-.1 1.7-.4.4-.4.6-.9.6-1.5s-.2-1-.7-1.4c-.4-.3-1-.4-2-.4H9.4v3.8h4z" id="B"></path></g></svg>
