<svg version="1.1" xmlns="http://www.w3.org/2000/svg" xmlns:xlink="http://www.w3.org/1999/xlink" x="0px" y="0px" width="24" height="24"><g id="icon-unordered-list" stroke="none" stroke-width="1" fill-rule="evenodd"><path d="M11 5h8c.6 0 1 .4 1 1s-.4 1-1 1h-8a1 1 0 0 1 0-2zm0 6h8c.6 0 1 .4 1 1s-.4 1-1 1h-8a1 1 0 0 1 0-2zm0 6h8c.6 0 1 .4 1 1s-.4 1-1 1h-8a1 1 0 0 1 0-2zM4.5 6c0-.4.1-.8.4-1 .3-.4.7-.5 1.1-.5.4 0 .8.1 1 .4.4.3.5.7.5 1.1 0 .4-.1.8-.4 1-.3.4-.7.5-1.1.5-.4 0-.8-.1-1-.4-.4-.3-.5-.7-.5-1.1zm0 6c0-.4.1-.8.4-1 .3-.4.7-.5 1.1-.5.4 0 .8.1 1 .4.4.3.5.7.5 1.1 0 .4-.1.8-.4 1-.3.4-.7.5-1.1.5-.4 0-.8-.1-1-.4-.4-.3-.5-.7-.5-1.1zm0 6c0-.4.1-.8.4-1 .3-.4.7-.5 1.1-.5.4 0 .8.1 1 .4.4.3.5.7.5 1.1 0 .4-.1.8-.4 1-.3.4-.7.5-1.1.5-.4 0-.8-.1-1-.4-.4-.3-.5-.7-.5-1.1z" id="shape"></path></g></svg>
