<svg version="1.1" xmlns="http://www.w3.org/2000/svg" xmlns:xlink="http://www.w3.org/1999/xlink" x="0px" y="0px" width="24" height="24"><g id="icon-sourcecode" stroke="none" stroke-width="1" fill-rule="nonzero"><path d="M10.7 9.2c.3-.3.8-.3 1 0 .4.4.4.9 0 1.2l-4.1 4.4c-.3.3-.8.3-1.2 0l-4.2-4.4a.8.8 0 0 1 0-1.2c.3-.3.8-.3 1.1 0L7 13l3.7-3.8z" id="Shape" transform="rotate(90 7 12)"></path><path d="M20.7 9.2c.3-.3.8-.3 1 0 .4.4.4.9 0 1.2l-4.1 4.4c-.3.3-.8.3-1.2 0l-4.2-4.4a.8.8 0 0 1 0-1.2c.3-.3.8-.3 1.1 0L17 13l3.7-3.8z" id="Shape-Copy" transform="matrix(0 1 1 0 5 -5)"></path></g></svg>
