<svg version="1.1" xmlns="http://www.w3.org/2000/svg" xmlns:xlink="http://www.w3.org/1999/xlink" x="0px" y="0px" width="24" height="24"><g id="icon-link" stroke="none" stroke-width="1" fill-rule="evenodd"><g id="link" transform="translate(3 3)" fill-rule="nonzero"><path d="M3.2 9.3a1 1 0 0 1 1.4 1.4l-2 2a2 2 0 1 0 2.6 2.8l4.8-4.8a1 1 0 0 0 0-1.4A1 1 0 1 1 11.4 8a2.9 2.9 0 0 1 0 4L6.6 17a3.9 3.9 0 0 1-5.5-5.5l2-2zm11.6-.6a1 1 0 0 1-1.4-1.4l2-2a2 2 0 1 0-2.6-2.8L8 7.3a1 1 0 0 0 0 1.4A1 1 0 1 1 6.6 10a2.9 2.9 0 0 1 0-4L11.4 1a3.9 3.9 0 0 1 5.5 5.5l-2 2z" id="Shape"></path></g></g></svg>
