<svg version="1.1" xmlns="http://www.w3.org/2000/svg" xmlns:xlink="http://www.w3.org/1999/xlink" x="0px" y="0px" width="24" height="24"><g id="icon-ordered-list" stroke="none" stroke-width="1" fill-rule="evenodd"><path d="M10 17h8c.6 0 1 .4 1 1s-.4 1-1 1h-8a1 1 0 0 1 0-2zm0-6h8c.6 0 1 .4 1 1s-.4 1-1 1h-8a1 1 0 0 1 0-2zm0-6h8c.6 0 1 .4 1 1s-.4 1-1 1h-8a1 1 0 1 1 0-2zM6 4v3.5c0 .3-.2.5-.5.5a.5.5 0 0 1-.5-.5V5h-.5a.5.5 0 0 1 0-1H6zm-1 8.8l.2.2h1.3c.3 0 .5.2.5.5s-.2.5-.5.5H4.9a1 1 0 0 1-.9-1V13c0-.4.3-.8.6-1l1.2-.4.2-.3a.2.2 0 0 0-.2-.2H4.5a.5.5 0 0 1-.5-.5c0-.3.2-.5.5-.5h1.6c.5 0 .9.4.9 1v.1c0 .4-.3.8-.6 1l-1.2.4-.2.3zM7 17v2c0 .6-.4 1-1 1H4.5a.5.5 0 0 1 0-1h1.2c.2 0 .3-.1.3-.3 0-.2-.1-.3-.3-.3H4.4a.4.4 0 1 1 0-.8h1.3c.2 0 .3-.1.3-.3 0-.2-.1-.3-.3-.3H4.5a.5.5 0 1 1 0-1H6c.6 0 1 .4 1 1z" id="shape"></path></g></svg>
