<svg version="1.1" xmlns="http://www.w3.org/2000/svg" xmlns:xlink="http://www.w3.org/1999/xlink" x="0px" y="0px" width="24" height="24"><g id="icon-outdent" stroke="none" stroke-width="1" fill-rule="evenodd"><path d="M7 5h12c.6 0 1 .4 1 1s-.4 1-1 1H7a1 1 0 1 1 0-2zm5 4h7c.6 0 1 .4 1 1s-.4 1-1 1h-7a1 1 0 0 1 0-2zm0 4h7c.6 0 1 .4 1 1s-.4 1-1 1h-7a1 1 0 0 1 0-2zm-5 4h12a1 1 0 0 1 0 2H7a1 1 0 0 1 0-2zm1.6-3.8a1 1 0 0 1-1.2 1.6l-3-2a1 1 0 0 1 0-1.6l3-2a1 1 0 0 1 1.2 1.6L6.8 12l1.8 1.2z" id="Combined-Shape"></path></g></svg>
