<svg version="1.1" xmlns="http://www.w3.org/2000/svg" xmlns:xlink="http://www.w3.org/1999/xlink" x="0px" y="0px" width="24" height="24"><g id="icon-remove-formatting" stroke="none" stroke-width="1" fill-rule="evenodd"><path d="M13.2 6a1 1 0 0 1 0 .2l-2.6 10a1 1 0 0 1-1 .8h-.2a.8.8 0 0 1-.8-1l2.6-10H8a1 1 0 1 1 0-2h9a1 1 0 0 1 0 2h-3.8zM5 18h7a1 1 0 0 1 0 2H5a1 1 0 0 1 0-2zm13 1.5L16.5 18 15 19.5a.7.7 0 0 1-1-1l1.5-1.5-1.5-1.5a.7.7 0 0 1 1-1l1.5 1.5 1.5-1.5a.7.7 0 0 1 1 1L17.5 17l1.5 1.5a.7.7 0 0 1-1 1z" id="shape"></path></g></svg>
