<?xml version="1.0" encoding="utf-8"?>
<!-- Generator: Adobe Illustrator 16.2.1, SVG Export Plug-In . SVG Version: 6.00 Build 0)  -->
<!DOCTYPE svg PUBLIC "-//W3C//DTD SVG 1.1//EN" "http://www.w3.org/Graphics/SVG/1.1/DTD/svg11.dtd">
<?xml-stylesheet type="text/css" href="../../../../pixelegg/less/svg.css" ?>
<?xml-stylesheet type="text/css" href="../../../../pixelegg/less/svg.css" ?>
<?xml-stylesheet type="text/css" href="../../../../pixelegg/less/svg.css" ?>
<?xml-stylesheet type="text/css" href="../../../../pixelegg/less/svg.css" ?>
<svg version="1.1" id="preferences_navbar" xmlns="http://www.w3.org/2000/svg" xmlns:xlink="http://www.w3.org/1999/xlink" x="0px" y="0px"
	 width="28.347px" height="28.347px" viewBox="0 0 28.347 28.347" enable-background="new 0 0 28.347 28.347" xml:space="preserve">
<g>
	<path fill-rule="evenodd" clip-rule="evenodd" fill="#ECEDED" d="M10.921,15.066c-1.777-0.476-3.604,0.578-4.08,2.355
		s0.579,3.604,2.355,4.08c1.776,0.475,3.604-0.579,4.079-2.355C13.752,17.369,12.696,15.543,10.921,15.066z M11.132,18.572
		c-0.159,0.592-0.769,0.943-1.36,0.785c-0.593-0.16-0.943-0.769-0.785-1.361c0.158-0.592,0.767-0.943,1.359-0.784
		C10.939,17.371,11.29,17.979,11.132,18.572z"/>
	<path fill-rule="evenodd" clip-rule="evenodd" fill="#ECEDED" d="M20.145,9.848c1.243,0.332,2.522-0.406,2.854-1.649
		c0.335-1.244-0.403-2.523-1.647-2.856s-2.522,0.405-2.855,1.648C18.163,8.235,18.901,9.514,20.145,9.848z M19.997,7.394
		c0.111-0.415,0.538-0.661,0.951-0.55c0.416,0.111,0.661,0.537,0.551,0.952c-0.112,0.415-0.537,0.661-0.951,0.55
		C20.132,8.234,19.887,7.809,19.997,7.394z"/>
	<path fill-rule="evenodd" clip-rule="evenodd" fill="#ECEDED" d="M0.001,0v28.348h28.346V0H0.001z M15.017,6.461l0.201-0.75
		c0.112-0.416,0.538-0.661,0.953-0.55l0.909,0.244c0.171-0.286,0.371-0.549,0.599-0.783l-0.502-0.869
		c-0.216-0.374-0.088-0.852,0.286-1.067l0.677-0.391c0.372-0.215,0.852-0.087,1.067,0.286l0.501,0.869
		c0.316-0.08,0.645-0.122,0.978-0.126l0.244-0.91c0.11-0.414,0.537-0.66,0.951-0.55l0.751,0.202c0.414,0.111,0.66,0.537,0.55,0.952
		l-0.244,0.91c0.275,0.165,0.531,0.355,0.759,0.573l0.847-0.489c0.373-0.216,0.851-0.087,1.066,0.286l0.392,0.677
		c0.216,0.373,0.087,0.851-0.286,1.066l-0.833,0.48c0.087,0.327,0.132,0.666,0.137,1.011l0.91,0.244
		c0.414,0.111,0.661,0.538,0.55,0.952l-0.201,0.75c-0.111,0.415-0.538,0.661-0.951,0.549l-0.911-0.243
		c-0.17,0.286-0.369,0.549-0.598,0.783l0.467,0.81c0.216,0.373,0.089,0.852-0.286,1.067l-0.676,0.391
		c-0.374,0.216-0.852,0.087-1.068-0.286l-0.466-0.81c-0.317,0.08-0.646,0.122-0.978,0.127l-0.244,0.909
		c-0.11,0.415-0.537,0.661-0.952,0.55l-0.751-0.201c-0.413-0.11-0.659-0.537-0.548-0.951l0.243-0.911
		c-0.297-0.176-0.567-0.385-0.809-0.623l-0.831,0.48c-0.374,0.215-0.852,0.088-1.067-0.286l-0.391-0.677
		c-0.216-0.374-0.087-0.852,0.285-1.066l0.848-0.489c-0.075-0.306-0.111-0.623-0.117-0.943l-0.909-0.244
		C15.153,7.302,14.906,6.876,15.017,6.461z M1.836,6.772c0-2.725,2.209-4.934,4.934-4.934h8.223v2.467H7.734
		c-1.896,0-3.432,1.537-3.432,3.432v4.791H1.836V6.772z M15.11,23.688c0.309,0.533,0.126,1.216-0.408,1.524l-0.966,0.558
		c-0.534,0.309-1.218,0.125-1.524-0.408l-0.668-1.156c-0.453,0.114-0.921,0.174-1.396,0.181l-0.348,1.3
		c-0.159,0.592-0.768,0.944-1.36,0.785l-1.072-0.287c-0.593-0.159-0.943-0.768-0.786-1.359l0.349-1.301
		c-0.423-0.253-0.81-0.551-1.152-0.891l-1.188,0.686c-0.534,0.309-1.216,0.125-1.525-0.408l-0.558-0.967
		c-0.309-0.533-0.126-1.216,0.409-1.524l1.208-0.698c-0.106-0.438-0.159-0.889-0.165-1.348l-1.301-0.348
		c-0.593-0.159-0.944-0.768-0.786-1.359l0.288-1.073c0.159-0.592,0.768-0.944,1.359-0.784l1.3,0.348
		c0.244-0.408,0.529-0.784,0.854-1.119l-0.717-1.24c-0.307-0.534-0.125-1.217,0.41-1.525l0.966-0.558
		c0.533-0.309,1.217-0.126,1.524,0.409l0.717,1.24c0.451-0.114,0.92-0.174,1.396-0.181l0.349-1.3
		c0.159-0.592,0.767-0.944,1.359-0.785l1.073,0.287c0.592,0.158,0.943,0.768,0.784,1.359l-0.348,1.301
		c0.395,0.234,0.758,0.508,1.084,0.817l1.209-0.698c0.534-0.308,1.216-0.125,1.524,0.408l0.558,0.968
		c0.309,0.534,0.125,1.216-0.408,1.524l-1.188,0.686c0.121,0.468,0.188,0.952,0.194,1.445l1.301,0.348
		c0.591,0.159,0.942,0.768,0.784,1.359l-0.288,1.073c-0.157,0.593-0.767,0.944-1.359,0.784l-1.301-0.348
		c-0.243,0.408-0.528,0.784-0.854,1.119L15.11,23.688z M26.504,21.573c0,2.725-2.209,4.934-4.934,4.934h-5.003l0.069-2.467h3.969
		c1.896,0,3.432-1.537,3.432-3.433v-6.436l2.467,0.068V21.573z"/>
</g>
</svg>
