<?xml version="1.0" encoding="utf-8"?>
<!-- Generator: Adobe Illustrator 15.0.0, SVG Export Plug-In . SVG Version: 6.00 Build 0)  -->
<!DOCTYPE svg PUBLIC "-//W3C//DTD SVG 1.1//EN" "http://www.w3.org/Graphics/SVG/1.1/DTD/svg11.dtd">
<svg version="1.1" id="filemanager_navbar" xmlns="http://www.w3.org/2000/svg" xmlns:xlink="http://www.w3.org/1999/xlink" x="0px"
	 y="0px" width="28.348px" height="28.348px" viewBox="0 0 28.348 28.348" enable-background="new 0 0 28.348 28.348"
	 xml:space="preserve">
<g>
	<g>
		<path fill="#696969" d="M11.469,1.107l0.07,0.619l0.112,0.994l0.994-0.113l12.088-1.371l-0.177,2.089l-21.3,2.417L2.319,2.145
			L11.469,1.107 M12.35,0L1.061,1.281l1.447,5.553l22.977-2.607l0.349-4.122l-13.3,1.509L12.35,0L12.35,0z"/>
	</g>
	<g>
		<path fill="#696969" d="M27.316,5.842L26.854,18.58l-9.268,1.053l-3.928,0.445l-9.246,1.049L1.425,8.78L27.316,5.842
			 M28.357,4.718L0.187,7.914l3.461,14.307l10.123-1.15l3.927-0.445l10.123-1.148L28.357,4.718L28.357,4.718z"/>
	</g>
</g>
<path fill="#696969" d="M20.539,18.726c-5.21,0.19-8.343-2.188-10.989-4.831c0,6.284,5.457,11.23,10.989,11.288v3.165l7.809-6.406
	l-7.809-6.407V18.726z"/>
</svg>
