<?xml version="1.0" encoding="utf-8"?>
<!-- Generator: Adobe Illustrator 15.0.0, SVG Export Plug-In . SVG Version: 6.00 Build 0)  -->
<!DOCTYPE svg PUBLIC "-//W3C//DTD SVG 1.1//EN" "http://www.w3.org/Graphics/SVG/1.1/DTD/svg11.dtd">
<svg version="1.1" id="Ebene_1" xmlns="http://www.w3.org/2000/svg" xmlns:xlink="http://www.w3.org/1999/xlink" x="0px" y="0px"
	 width="32px" height="32px" viewBox="0 0 32 32" enable-background="new 0 0 32 32" xml:space="preserve">
<g>
	<polygon fill="#62686A" points="21.496,18.099 30.497,24.466 30.497,22.354 30.498,22.354 30.498,17.658 30.498,12.962 
		30.497,12.962 30.497,12.439 	"/>
	<path fill="#62686A" d="M3.288,28.479l25.267-0.018c0.641-0.001,1.203-0.309,1.557-0.778l-11.31-7.89l-2.929-2.158l-2.938,2.157
		L1.671,27.63C2.02,28.142,2.614,28.479,3.288,28.479z"/>
	<polygon fill="#62686A" points="1.342,24.376 10.237,18.1 1.342,12.52 1.342,12.982 1.341,12.982 1.341,17.658 1.341,22.334 
		1.342,22.334 	"/>
</g>
<path fill="none" stroke="#663399" stroke-width="0.25" stroke-miterlimit="10" d="M30.959,13.156"/>
<path fill="none" stroke="#663399" stroke-width="0.25" stroke-miterlimit="10" d="M1.083,13.156"/>
<polygon fill="#62686A" points="30.488,9.22 30.488,9.202 15.912,1.24 1.354,9.171 1.354,10.75 3.965,10.75 15.911,4.5 
	27.822,10.75 30.49,10.75 30.49,9.22 "/>
</svg>
