<?xml version="1.0" encoding="utf-8"?>
<!-- Generator: Adobe Illustrator 16.2.1, SVG Export Plug-In . SVG Version: 6.00 Build 0)  -->
<!DOCTYPE svg PUBLIC "-//W3C//DTD SVG 1.1//EN" "http://www.w3.org/Graphics/SVG/1.1/DTD/svg11.dtd">
<?xml-stylesheet type="text/css" href="../../../../pixelegg/less/svg.css" ?>
<svg version="1.1" id="mail_kmmsgread" xmlns="http://www.w3.org/2000/svg" xmlns:xlink="http://www.w3.org/1999/xlink" x="0px" y="0px"
	 width="28.347px" height="28.347px" viewBox="0 0 28.347 28.347" enable-background="new 0 0 28.347 28.347" xml:space="preserve">
<g>
	<polygon fill-rule="evenodd" clip-rule="evenodd" fill="#ECEDED" points="19.848,0.673 19.172,0.673 19.172,6.673 25.172,6.673 
		25.172,5.698 	"/>
	<path fill-rule="evenodd" clip-rule="evenodd" fill="#ECEDED" d="M16.172,0.673h-13v27h22v-18h-9V0.673z M5.172,11.673h8v2h-8
		V11.673z M5.172,16.673h2v2h-2V16.673z M16.172,23.673h-11v-2h11V23.673z M23.172,23.673h-5v-2h5V23.673z M23.172,18.673h-3v-2h3
		V18.673z M19.172,11.673h4v2h-4V11.673z M18.172,18.673h-9v-2h9V18.673z M17.172,11.673v2h-2v-2H17.172z"/>
</g>
</svg>
