<?xml version="1.0" encoding="utf-8"?>
<!-- Generator: Adobe Illustrator 15.0.0, SVG Export Plug-In . SVG Version: 6.00 Build 0)  -->
<!DOCTYPE svg PUBLIC "-//W3C//DTD SVG 1.1//EN" "http://www.w3.org/Graphics/SVG/1.1/DTD/svg11.dtd">
<svg version="1.1" id="Ebene_1" xmlns="http://www.w3.org/2000/svg" xmlns:xlink="http://www.w3.org/1999/xlink" x="0px" y="0px"
	 width="32px" height="32px" viewBox="0 0 32 32" enable-background="new 0 0 32 32" xml:space="preserve">
<g>
	<g>
		<path fill="#62686A" d="M25.579,31.572l5.746-5.678c0.578-0.569,0.578-1.494,0-2.064l-5.746-5.677c-0.578-0.57-1.514-0.57-2.091,0
			v3.425h-3.965c-0.815,0-1.476,0.653-1.476,1.459v3.649c0,0.808,0.661,1.461,1.476,1.461h3.965v3.425
			C24.064,32.143,25.001,32.143,25.579,31.572z"/>
	</g>
</g>
<path fill="none" stroke="#62686A" stroke-miterlimit="10" d="M25.624,1.044L2.253,6.158C1.093,6.41,0.358,7.557,0.612,8.717
	l0.478,2.183l15.188,4.07L28.381,4.929l-0.545-2.494C27.618,1.447,26.631,0.824,25.624,1.044z M1.77,14.008l2.355,10.764
	c0.215,0.989,1.207,1.609,2.212,1.39l23.649-5.174c1.008-0.221,1.646-1.197,1.429-2.187L29.06,8.036L17.026,18.39L1.77,14.008z"/>
</svg>
