<?xml version="1.0" encoding="utf-8"?>
<!-- Generator: Adobe Illustrator 15.0.0, SVG Export Plug-In . SVG Version: 6.00 Build 0)  -->
<!DOCTYPE svg PUBLIC "-//W3C//DTD SVG 1.1//EN" "http://www.w3.org/Graphics/SVG/1.1/DTD/svg11.dtd">
<svg version="1.1" id="Ebene_1" xmlns="http://www.w3.org/2000/svg" xmlns:xlink="http://www.w3.org/1999/xlink" x="0px" y="0px"
	 width="32px" height="32px" viewBox="0 0 32 32" enable-background="new 0 0 32 32" xml:space="preserve">
<g>
	<g>
		<path fill="#62686A" d="M27.589,11.258c1.345-3.118,1.692-4.148,0.547-5.301L26.04,3.876c-0.412-0.41-0.995-0.651-1.574-0.651
			c-0.391,0-0.798,0-3.687,1.311c-1.264-3.178-1.742-4.156-3.32-4.156h-2.967c-1.561,0-2.031,0.884-3.253,4.176
			C8.3,3.314,7.889,3.314,7.521,3.314c-0.58,0-1.167,0.242-1.569,0.646L3.85,6.051C2.677,7.224,3.08,8.325,4.46,11.312
			c-3.238,1.284-4.132,1.729-4.132,3.35v2.958c0,1.661,0.981,2.122,4.157,3.285c-1.34,3.114-1.686,4.145-0.545,5.292l2.089,2.085
			c0.407,0.411,1,0.658,1.582,0.658c0.388,0,0.791,0,3.684-1.313c1.267,3.177,1.742,4.16,3.324,4.16h2.966
			c1.562,0,2.034-0.886,3.258-4.18c2.941,1.245,3.353,1.245,3.72,1.245c0.577,0,1.16-0.241,1.569-0.646l2.115-2.104
			c1.158-1.176,0.755-2.274-0.624-5.25c3.155-1.255,4.128-1.738,4.128-3.353v-2.957C31.749,12.877,30.768,12.423,27.589,11.258z
			 M28.406,17.531c-0.672,0.312-2.059,0.832-2.75,1.107l-0.487,0.193l-0.771,1.869l0.232,0.501c0.276,0.594,1.055,2.261,1.256,2.938
			L24.1,25.928c-0.271-0.074-1.033-0.328-3.062-1.203l-0.468-0.203l-1.866,0.771l-0.19,0.51c-0.227,0.621-0.867,2.363-1.207,2.977
			h-2.542c-0.347-0.592-1.023-2.299-1.298-2.986l-0.195-0.492l-1.866-0.768l-0.481,0.222c-2.013,0.929-2.75,1.188-2.981,1.263
			L6.15,24.23c0.181-0.68,0.903-2.348,1.196-3.021l0.215-0.494L6.788,18.85l-0.509-0.185c-0.686-0.249-2.383-0.868-2.99-1.204V14.94
			c0.593-0.34,2.249-0.993,3.004-1.293l0.488-0.191l0.773-1.867L7.32,11.083c-0.279-0.595-1.053-2.264-1.253-2.945L7.853,6.36
			c0.27,0.073,1.032,0.325,3.069,1.2l0.468,0.203l1.862-0.768l0.189-0.515c0.225-0.62,0.866-2.358,1.205-2.975h2.543
			c0.345,0.594,1.021,2.298,1.295,2.989l0.195,0.491l1.863,0.769l0.48-0.223c2.017-0.929,2.75-1.19,2.982-1.261l1.791,1.781
			c-0.18,0.674-0.904,2.344-1.195,3.021l-0.215,0.496l0.776,1.87l0.506,0.184c0.687,0.251,2.38,0.868,2.989,1.201v2.516
			L28.406,17.531z M15.977,11.636c-2.493,0-4.521,2.022-4.521,4.508c0,2.487,2.028,4.51,4.521,4.51c2.494,0,4.521-2.023,4.521-4.51
			C20.497,13.659,18.471,11.636,15.977,11.636z M15.977,18.15c-1.137,0-2.064-0.9-2.064-2.006c0-1.105,0.927-2.005,2.064-2.005
			c1.138,0,2.062,0.9,2.062,2.005C18.039,17.25,17.113,18.15,15.977,18.15z"/>
	</g>
</g>
</svg>
