<?xml version="1.0" encoding="utf-8"?>
<!-- Generator: Adobe Illustrator 15.0.0, SVG Export Plug-In . SVG Version: 6.00 Build 0)  -->
<!DOCTYPE svg PUBLIC "-//W3C//DTD SVG 1.1//EN" "http://www.w3.org/Graphics/SVG/1.1/DTD/svg11.dtd">
<svg version="1.1" id="Ebene_1" xmlns="http://www.w3.org/2000/svg" xmlns:xlink="http://www.w3.org/1999/xlink" x="0px" y="0px"
	 width="32px" height="32px" viewBox="0 0 32 32" enable-background="new 0 0 32 32" xml:space="preserve">
<path fill="#62686A" d="M1.935,31h3.739c0.438,0,0.818-0.305,0.914-0.734l0.62-2.796l4.262-0.132c0.479-0.015,0.87-0.393,0.902-0.87
	l0.248-3.571l3.549,0.078c0.409,0.01,0.774-0.246,0.907-0.634l1.081-3.182c0.852,0.33,1.881,0.622,3.411,0.622
	c5.154,0,9.349-4.194,9.349-9.349c0-5.377-3.975-9.349-9.349-9.349c-5.155,0-9.351,4.194-9.351,9.349
	c0,0.671,0.186,1.704,0.328,2.372L1.232,25.707C1.082,25.88,1,26.1,1,26.325v3.739C1,30.581,1.42,31,1.935,31z M21.015,7.297
	c0-1.42,1.153-2.571,2.571-2.571c1.42,0,2.571,1.151,2.571,2.571s-1.151,2.571-2.571,2.571S21.015,8.717,21.015,7.297z"/>
</svg>
