<?xml version="1.0" encoding="utf-8"?>
<!-- Generator: Adobe Illustrator 16.2.1, SVG Export Plug-In . SVG Version: 6.00 Build 0)  -->
<!DOCTYPE svg PUBLIC "-//W3C//DTD SVG 1.1//EN" "http://www.w3.org/Graphics/SVG/1.1/DTD/svg11.dtd">
<?xml-stylesheet type="text/css" href="../../../../pixelegg/less/svg.css" ?>
<?xml-stylesheet type="text/css" href="../../../../pixelegg/less/svg.css" ?>
<?xml-stylesheet type="text/css" href="../../../../pixelegg/less/svg.css" ?>
<svg version="1.1" id="mail_navbar" xmlns="http://www.w3.org/2000/svg" xmlns:xlink="http://www.w3.org/1999/xlink" x="0px" y="0px"
	 width="28.347px" height="28.347px" viewBox="0 0 28.347 28.347" enable-background="new 0 0 28.347 28.347" xml:space="preserve">
<g>
	<path fill-rule="evenodd" clip-rule="evenodd" fill="#ECEDED" d="M17.771,22.017c0,0.654,0.348,1.129,1.043,1.129
		c0.916,0,1.753-1.1,1.927-2.02l0.332-1.664c-0.158-0.06-0.427-0.119-0.79-0.119C18.892,19.343,17.771,20.576,17.771,22.017z"/>
	<path fill-rule="evenodd" clip-rule="evenodd" fill="#ECEDED" d="M0-0.001v28.348h28.348V-0.001H0z M2.51,7.284l20.027-4.594
		l0.431,1.877l-8.578,8.556L2.939,9.161L2.51,7.284z M21.894,23.948c-0.632,0-1.216-0.387-1.186-1.307h-0.046
		c-0.554,0.876-1.28,1.307-2.228,1.307c-0.917,0-1.706-0.698-1.706-1.871c0-1.842,1.547-3.521,3.743-3.521
		c0.663,0,1.279,0.134,1.691,0.312l-0.537,2.689c-0.238,1.129-0.048,1.647,0.473,1.662c0.806,0.03,1.707-0.994,1.707-2.703
		c0-2.169-1.375-3.729-3.823-3.729c-2.575,0-4.739,1.932-4.739,4.947c0,2.48,1.722,4.025,4.06,4.025c0.9,0,1.738-0.178,2.386-0.52
		l0.253,0.639c-0.869,0.431-1.753,0.594-2.812,0.594c-2.593,0-4.788-1.782-4.788-4.649c0-3.061,2.26-5.72,5.767-5.72
		c2.749,0,4.582,1.828,4.582,4.309C24.69,22.642,23.362,23.948,21.894,23.948z M25.013,16.615c-1.302-1.387-3.146-2.259-5.197-2.259
		c-3.2,0-5.909,2.109-6.812,5.014l-7.337,1.683l-2.44-9.841l11.45,3.961l8.578-8.556l2.44,9.841L25.013,16.615z"/>
</g>
</svg>
