<?xml version="1.0" encoding="utf-8"?>
<!-- Generator: Adobe Illustrator 15.0.0, SVG Export Plug-In . SVG Version: 6.00 Build 0)  -->
<!DOCTYPE svg PUBLIC "-//W3C//DTD SVG 1.1//EN" "http://www.w3.org/Graphics/SVG/1.1/DTD/svg11.dtd">
<svg version="1.1" id="Ebene_1" xmlns="http://www.w3.org/2000/svg" xmlns:xlink="http://www.w3.org/1999/xlink" x="0px" y="0px"
	 width="32px" height="32px" viewBox="0 0 32 32" enable-background="new 0 0 32 32" xml:space="preserve">
<path fill="#62686A" d="M24.307,6.144c0,0.392-0.22,0.708-0.492,0.708H8.186c-0.272,0-0.493-0.317-0.493-0.708l0,0
	c0-0.392,0.22-0.708,0.493-0.708h15.628C24.087,5.436,24.307,5.752,24.307,6.144L24.307,6.144z"/>
<path fill="#62686A" d="M24.307,9.739c0,0.392-0.22,0.708-0.492,0.708H8.186c-0.272,0-0.493-0.317-0.493-0.708l0,0
	c0-0.392,0.22-0.708,0.493-0.708h15.628C24.087,9.03,24.307,9.347,24.307,9.739L24.307,9.739z"/>
<path fill="#62686A" d="M27.573,0.125H4.428c-0.312,0-0.563,0.252-0.563,0.563v28.406c0,0.311,0.252,0.562,0.563,0.562h9.837v-1.127
	H4.991V1.251H27.01v27.278h-0.744v1.128h1.309c0.311,0,0.562-0.253,0.562-0.562V0.688C28.137,0.377,27.884,0.125,27.573,0.125z"/>
<g>
	<path fill="none" stroke="#62686A" stroke-miterlimit="10" d="M24.04,20.489v-0.927c0-2.075-1.684-4-3.76-4
		c-2.075,0-3.759,1.924-3.759,4v0.927h-1.46v10.034h10.438V20.489H24.04z M18.113,19.74c0-1.466,0.801-2.594,2.183-2.594
		c1.381,0,2.187,1.144,2.187,2.609l0.049,0.733h-4.469L18.113,19.74z"/>
	<path fill="none" stroke="#62686A" stroke-miterlimit="10" d="M20.98,27.013c0,0.386-0.314,0.698-0.699,0.698l0,0
		c-0.386,0-0.7-0.312-0.7-0.698v-2.158c0-0.386,0.314-0.699,0.7-0.699l0,0c0.385,0,0.699,0.313,0.699,0.699V27.013z"/>
</g>
</svg>
