<?xml version="1.0" encoding="UTF-8"?>
<svg version="1.1" width="32" height="32" viewBox="0 0 32 32" xmlns="http://www.w3.org/2000/svg">
 <path d="M6 0C2.71 0 0 2.71 0 6v20c0 3.29 2.71 6 6 6h20c3.29 0 6-2.71 6-6V6c0-3.29-2.71-6-6-6zm1 3h18a4 4 0 0 1 4 4v3a4 4 0 0 1-4 4H7a4 4 0 0 1-4-4V7a4 4 0 0 1 4-4zm5.75 4c-.693 0-1.25.557-1.25 1.25v.5c0 .693.557 1.25 1.25 1.25h6.5c.693 0 1.25-.557 1.25-1.25v-.5c0-.693-.557-1.25-1.25-1.25zM7 18h18a4 4 0 0 1 4 4v3a4 4 0 0 1-4 4H7a4 4 0 0 1-4-4v-3a4 4 0 0 1 4-4zm5.75 4c-.693 0-1.25.557-1.25 1.25v.5c0 .693.557 1.25 1.25 1.25h6.5c.693 0 1.25-.557 1.25-1.25v-.5c0-.693-.557-1.25-1.25-1.25z" fill="#62686a" />
</svg>
