<?xml version="1.0" encoding="UTF-8"?>
<svg version="1.1" width="32" height="32" viewBox="0 0 32 32" xmlns="http://www.w3.org/2000/svg">
 <path d="M6 0C2.71 0 0 2.71 0 6v20c0 3.29 2.71 6 6 6h20c3.29 0 6-2.71 6-6V6c0-3.29-2.71-6-6-6zm1 3h18a4 4 0 0 1 4 4v18a4 4 0 0 1-4 4H7a4 4 0 0 1-4-4V7a4 4 0 0 1 4-4zm10.682 2.857a10.7 10.7 0 0 0-7.098 2.772A9.96 9.96 0 0 0 7.786 13H5v2h2.37a10 10 0 0 0-.05 1H5v2h2.52a9.849 9.849 0 0 0 2.201 4.48c3.518 4.079 9.66 4.847 14.139 1.807l-2.246-3.31c-2.802 1.9-6.701 1.396-8.863-1.11A6.183 6.183 0 0 1 11.639 18h6.362v-2h-6.73c-.002-.335.026-.67.085-1h7.645v-2H12.11a6.39 6.39 0 0 1 1.168-1.414c2.473-2.253 6.412-2.297 8.943-.1l2.621-3.021a10.712 10.712 0 0 0-7.16-2.608z" fill="#62686a" />
</svg>
