<?xml version="1.0" encoding="UTF-8"?>
<svg version="1.1" width="32" height="32" viewBox="0 0 32 32" xmlns="http://www.w3.org/2000/svg">
 <path d="M6 0C2.71 0 0 2.71 0 6v20c0 3.29 2.71 6 6 6h20c3.29 0 6-2.71 6-6V6c0-3.29-2.71-6-6-6zm1 3h18a4 4 0 0 1 4 4v18a4 4 0 0 1-4 4H7a4 4 0 0 1-4-4V7a4 4 0 0 1 4-4zm1.398 2a1.82 1.82 0 0 0-1.257.541c-1.225 1.097-1.858 2.293-2.073 3.8-.448 3.729 1.254 7.134 5.866 11.759 6.375 6.39 11.513 5.906 11.734 5.883 1.946-.19 2.88-1.181 3.794-2.078.7-.703.72-1.825.045-2.504h-.002l-3.396-3.407c-.677-.675-1.797-.654-2.498.047L18.9 20.758c-1.697-1.01-3.344-2.076-4.455-3.174-1.31-1.329-2.318-2.934-3.168-4.464l1.713-1.717c.7-.702.72-1.825.045-2.502L9.638 5.495A1.698 1.698 0 0 0 8.398 5z" fill="#62686a" />
</svg>
