<?xml version="1.0" encoding="UTF-8"?>
<svg version="1.1" width="32" height="32" viewBox="0 0 32 32" xmlns="http://www.w3.org/2000/svg">
 <path d="M6 0C2.71 0 0 2.71 0 6v20c0 3.29 2.71 6 6 6h20c3.29 0 6-2.71 6-6V6c0-3.29-2.71-6-6-6zm1 3h18a4 4 0 0 1 4 4v18a4 4 0 0 1-4 4H7a4 4 0 0 1-4-4V7a4 4 0 0 1 4-4zm3.676 4c-.55 0-1.1.211-1.522.633L7.633 9.154a2.147 2.147 0 0 0 0 3.043L11.435 16l-3.802 3.803a2.147 2.147 0 0 0 0 3.043l1.521 1.521c.843.843 2.2.843 3.043 0L16 20.565l3.803 3.802c.843.843 2.2.843 3.043 0l1.521-1.521c.843-.843.843-2.2 0-3.043L20.564 16l3.803-3.803c.843-.843.843-2.2 0-3.043l-1.521-1.521a2.147 2.147 0 0 0-3.043 0L16 11.436l-3.803-3.803A2.146 2.146 0 0 0 10.676 7z" fill="#62686a" />
</svg>
