<?xml version="1.0" encoding="utf-8"?>
<!-- Generator: Adobe Illustrator 15.0.0, SVG Export Plug-In . SVG Version: 6.00 Build 0)  -->
<!DOCTYPE svg PUBLIC "-//W3C//DTD SVG 1.1//EN" "http://www.w3.org/Graphics/SVG/1.1/DTD/svg11.dtd">
<svg version="1.1" id="Ebene_1" xmlns="http://www.w3.org/2000/svg" xmlns:xlink="http://www.w3.org/1999/xlink" x="0px" y="0px"
	 width="32px" height="32px" viewBox="0 0 32 32" enable-background="new 0 0 32 32" xml:space="preserve">
<path fill="#62686A" d="M29.875,5.116h-4.864C24.837,2.274,20.987,0,16.25,0c-4.735,0-8.585,2.274-8.759,5.116H2.26
	c-1.174,0-2.124,1.02-2.124,2.277c0,1.256,0.95,2.277,2.124,2.277h1.072V32h25.489V9.67h1.054C31.048,9.67,32,8.65,32,7.393
	C32,6.135,31.048,5.116,29.875,5.116z M16.25,2.142c3.163,0,5.728,1.311,5.997,2.974H10.253C10.523,3.453,13.086,2.142,16.25,2.142z
	"/>
<path fill="#FEFEFE" d="M10.196,25.911c0.575,0.464,1.332,0.683,2.083,0.674c0.273,0.008,0.541-0.041,0.804-0.126
	c0.431-0.106,0.842-0.271,1.183-0.548l10.173-8.215c1.124-0.908,1.124-2.381,0-3.287c-1.121-0.911-2.943-0.911-4.069,0l-8.16,6.59
	l-1.514-1.47c-0.913-0.884-2.393-0.884-3.306,0c-0.911,0.885-0.911,2.318,0,3.203C7.389,22.731,9.265,24.999,10.196,25.911z"/>
</svg>
