<?xml version="1.0" encoding="UTF-8"?>
<svg version="1.1" width="32" height="32" viewBox="0 0 32 32" xmlns="http://www.w3.org/2000/svg">
 <path d="M27.837 0a4.337 4.337 0 0 0-2.947 1.187L10.228 14.826l-2.881-3.163c-1.567-1.72-4.109-1.931-5.7-.471l-.44.406c-1.592 1.46-1.612 4.021-.046 5.742l5.655 6.21c.458.504 1 .877 1.578 1.118a3.856 3.856 0 0 0 1.644.324h.004a3.944 3.944 0 0 0 .602-.057 4.395 4.395 0 0 0 2.256-1.126l17.686-16.45c1.703-1.583 1.894-4.138.43-5.725l-.409-.441C29.875.399 28.871.002 27.837 0zm3.64 9.266L14.26 25.282a6.381 6.381 0 0 1-3.479 1.663c-.415.103-.45.06-.44.037-.097.006-.214.016-.261.016h-.037a5.84 5.84 0 0 1-2.436-.488v.004c.007.003.012.014.02.014l-.04-.018h.02a6.438 6.438 0 0 1-2.268-1.604L.465 19.554c-.8 1.464-.57 3.404.696 4.795l5.654 6.21a4.446 4.446 0 0 0 1.695 1.166c.52.209 1.081.299 1.649.27.032-.001.065-.001.097-.004a4.122 4.122 0 0 0 .733-.124 4.418 4.418 0 0 0 1.91-1.049L30.585 14.37c1.494-1.39 1.824-3.527.892-5.102zM9.9 26.993s.242.01.138.01H9.97z" fill="#62686a"/>
</svg>
