<?xml version="1.0" encoding="UTF-8"?>
<svg version="1.1" width="32" height="32" viewBox="0 0 32 32" xmlns="http://www.w3.org/2000/svg">
 <path d="M6 0C2.71 0 0 2.71 0 6v20c0 3.29 2.71 6 6 6h20c3.29 0 6-2.71 6-6V6c0-3.29-2.71-6-6-6zm1 3h18a4 4 0 0 1 4 4v18a4 4 0 0 1-4 4H7a4 4 0 0 1-4-4V7a4 4 0 0 1 4-4zm16.424 4.5a2.94 2.94 0 0 0-1.994.799l-9.918 9.187-1.947-2.13c-1.06-1.16-2.78-1.3-3.856-.317l-.299.273c-1.076.984-1.088 2.709-.029 3.868l3.824 4.183a3.01 3.01 0 0 0 1.147.785 2.633 2.633 0 0 0 1.135.182l.03-.002h.01c.028-.001.055-.005.083-.007.055-.006.11-.013.166-.022l.023-.004c.031-.005.063-.01.094-.017.004 0 .006-.002.01-.003.042-.009.083-.02.125-.03.462-.12.91-.35 1.293-.706l11.961-11.082c1.152-1.067 1.282-2.786.291-3.855l-.276-.299a2.532 2.532 0 0 0-1.873-.803z" fill="#62686a" />
</svg>
