<?xml version="1.0" encoding="UTF-8" standalone="no"?>
<svg
        version="1.1"
        width="32px"
        height="32px"
        viewBox="0 0 52.235 52.235"
        xmlns="http://www.w3.org/2000/svg"
        xmlns:svg="http://www.w3.org/2000/svg">
    <path fill="currentColor"
            d="M 44.611,7.675 C 34.425,-2.537 17.891,-2.562 7.677,7.622 -2.537,17.807 -2.561,34.345 7.621,44.559 17.807,54.774 34.349,54.795 44.558,44.61 54.772,34.426 54.798,17.892 44.611,7.675 Z"
    />

    <path
            d="m 38.623813,17.190221 a 1.994,1.994 0 0 0 -1.423,0.565001 l -0.72,0.695 4.872,5.03 0.717,-0.696 c 0.796,-0.77 0.817,-2.032 0.047,-2.828 l -2.089,-2.155999 a 1.992,1.992 0 0 0 -1.405,-0.61 z m -2.86,1.955001 -7.458,7.223 -1.438,1.39 1.381,1.427 0.01,0.011 2.088,2.155 1.39,1.436999 1.438,-1.39 7.46,-7.222999 z m -10.691,10.354 -1.875,6.687002 6.744,-1.66 z m 1.165,-20.7099996 a 3.17,2.5 0 0 0 -3.17,2.5000016 3.17,2.5 0 0 0 0.07,0.5 h -1.4 c -0.555,0 -1,0.445 -1,1 v 2 c 0,0.552999 0.445,1 1,1 h 9 a 1,1 0 0 0 1,-1 v -2 c 0,-0.555 -0.447,-1 -1,-1 h -1.4 a 3.17,2.5 0 0 0 0.07,-0.5 3.17,2.5 0 0 0 -3.17,-2.5000016 z m -1,2.0000016 h 2 v 2 h -2 z m -9.5,2 c -1.108,0 -2,0.891 -2,2 v 24 c 0,1.107 0.891,2 2,2 h 21 c 1.108,0 2,-0.893 2,-2 v -9.300001 l -5.622,5.444001 a 7.397,7.397 0 0 1 -3.378,1.869999 l -7.677,1.886001 a 1.167,1.167 0 0 1 -1.402,-1.447001 l 2.134,-7.614002 a 7.397,7.397 0 0 1 1.979,-3.316 l 13.37,-12.949999 a 1.993,1.993 0 0 0 -1.404,-0.574 h -3 v 3 c 0,0.554 -0.446,1 -1,1 h -13 c -0.554,0 -1,-0.446 -1,-1 v -2.999998 z"
            id="path1-39"
            style="fill:white;fill-opacity:1" />
</svg>