<?xml version="1.0" encoding="UTF-8"?>
<svg version="1.1" width="32" height="32" viewBox="0 0 32 32" xmlns="http://www.w3.org/2000/svg">
  <path d="M26.886 8.395a1.994 1.994 0 0 0-1.423.565l-.72.695 4.872 5.03.717-.696c.796-.77.817-2.032.047-2.828L28.29 9.005a1.992 1.992 0 0 0-1.405-.61Zm-2.86 1.955-7.458 7.223-1.438 1.39 1.381 1.427.01.011 2.088 2.155 1.39 1.437 1.438-1.39 7.46-7.223zM13.335 20.704l-1.875 6.687 6.744-1.66ZM14.5-.006a3.17 2.5 0 0 0-3.17 2.5 3.17 2.5 0 0 0 .07.5H10c-.555 0-1 .445-1 1v2c0 .553.445 1 1 1h9a1 1 0 0 0 1-1v-2c0-.555-.447-1-1-1h-1.4a3.17 2.5 0 0 0 .07-.5 3.17 2.5 0 0 0-3.17-2.5zm-1 2h2v2h-2zm-9.5 2c-1.108 0-2 .891-2 2v24c0 1.107.891 2 2 2h21c1.108 0 2-.893 2-2v-9.3l-5.622 5.444A7.397 7.397 0 0 1 18 28.008l-7.677 1.886a1.167 1.167 0 0 1-1.402-1.447l2.134-7.614a7.397 7.397 0 0 1 1.979-3.316l13.37-12.95A1.993 1.993 0 0 0 25 3.993h-3v3c0 .554-.446 1-1 1H8c-.554 0-1-.446-1-1v-3z" fill="#603"/>
</svg>
