<?xml version="1.0" encoding="UTF-8"?>
<svg version="1.1" width="32" height="32" viewBox="0 0 32 32" xmlns="http://www.w3.org/2000/svg">
 <path d="M6 0C2.71 0 0 2.71 0 6v20c0 3.29 2.71 6 6 6h20c3.29 0 6-2.71 6-6V6c0-3.29-2.71-6-6-6zm1 3h18a4 4 0 0 1 4 4v18a4 4 0 0 1-4 4H7a4 4 0 0 1-4-4V7a4 4 0 0 1 4-4zm4 6c-1.108 0-2 .892-2 2v10c0 1.108.892 2 2 2h1c1.108 0 2-.892 2-2V11c0-1.108-.892-2-2-2zm9 0c-1.108 0-2 .892-2 2v10c0 1.108.892 2 2 2h1c1.108 0 2-.892 2-2V11c0-1.108-.892-2-2-2z" fill="#62686a"/>
</svg>
