<?xml version="1.0" encoding="UTF-8"?>
<svg version="1.1" width="32" height="32" viewBox="0 0 32 32" xmlns="http://www.w3.org/2000/svg">
 <path d="M6 0C2.71 0 0 2.71 0 6v20c0 3.29 2.71 6 6 6h20c3.29 0 6-2.71 6-6V6c0-3.29-2.71-6-6-6zm1 3h18a4 4 0 0 1 4 4v18a4 4 0 0 1-4 4H7a4 4 0 0 1-4-4V7a4 4 0 0 1 4-4zm18 4-2.451 2.451a10 10 0 0 0-6.086-2.441 10 10 0 0 0-6.383 1.93 10 10 0 0 0-3.2 12.16 10 10 0 0 0 11.217 5.677A10 10 0 0 0 25.776 19H20.58A5 5 0 0 1 16 22a5 5 0 0 1-5-5 5 5 0 0 1 5-5 5 5 0 0 1 2.975 1.025L17 15h8z" fill="#62686a"/>
</svg>
