<?xml version="1.0" encoding="UTF-8"?>
<svg version="1.1" width="32" height="32" viewBox="0 0 32 32" xmlns="http://www.w3.org/2000/svg">
 <path d="M6 0C2.71 0 0 2.71 0 6v20c0 3.29 2.71 6 6 6h20c3.29 0 6-2.71 6-6V6c0-3.29-2.71-6-6-6zm1 3h18a4 4 0 0 1 4 4v18a4 4 0 0 1-4 4H7a4 4 0 0 1-4-4V7a4 4 0 0 1 4-4zm2.16 6c-1.38.027-2.863 1.257-3.16 2.324-.484 1.77.264 3.07 1.781 3.51 1.472.427 2.434-.457 3.291-2.834h9.856c.857 2.377 1.82 3.261 3.29 2.834 1.518-.44 2.266-1.74 1.782-3.51-.297-1.067-1.779-2.297-3.16-2.324zm2.242 5a.555.555 0 0 0-.527.38l-1.619 4.897a1.13 1.13 0 0 1-1.074.778h-.364a.818.818 0 0 0-.818.818v2.309c0 .452.366.818.818.818h16.363a.818.818 0 0 0 .819-.818v-2.309a.818.818 0 0 0-.819-.818h-.363a1.13 1.13 0 0 1-1.074-.778l-1.62-4.896a.555.555 0 0 0-.526-.381zM16 15.5a3.5 3.5 0 0 1 3.5 3.5 3.5 3.5 0 0 1-3.5 3.5 3.5 3.5 0 0 1-3.5-3.5 3.5 3.5 0 0 1 3.5-3.5z" fill="#62686a"/>
</svg>
