<?xml version="1.0" encoding="UTF-8"?>
<svg version="1.1" width="32" height="32" viewBox="0 0 32 32" xmlns="http://www.w3.org/2000/svg">
 <path d="M6 0C2.71 0 0 2.71 0 6v20c0 3.29 2.71 6 6 6h20c3.29 0 6-2.71 6-6V6c0-3.29-2.71-6-6-6zm17.424 7.5a2.53 2.53 0 0 1 1.873.803l.275.299c.991 1.069.861 2.788-.29 3.855L13.32 23.54a2.99 2.99 0 0 1-1.418.736l-.01.002-.093.018a1.94 1.94 0 0 1-.153.021h-.007c-.039.004-.077.01-.116.012h-.005l-.032.002-.1.004a2.643 2.643 0 0 1-1.105-.215 3.01 3.01 0 0 1-1.076-.756L5.381 19.18c-1.06-1.159-1.047-2.884.03-3.867l.298-.274c1.076-.983 2.796-.842 3.855.317l1.948 2.13L21.43 8.3a2.939 2.939 0 0 1 1.994-.799z" fill="#62686a"/>
</svg>
