<?xml version="1.0" encoding="UTF-8"?>
<svg version="1.1" width="32" height="32" viewBox="0 0 32 32" xmlns="http://www.w3.org/2000/svg">
 <path d="M6 0C2.71 0 0 2.71 0 6v20c0 3.29 2.71 6 6 6h20c3.29 0 6-2.71 6-6V6c0-3.29-2.71-6-6-6zm1 3h18a4 4 0 0 1 4 4v18a4 4 0 0 1-4 4H7a4 4 0 0 1-4-4V7a4 4 0 0 1 4-4zm1 3v20h16V13l-7-.125V6zm11 0v5h5zm-8 8h10c.554 0 1 .446 1 1s-.446 1-1 1H11c-.554 0-1-.446-1-1s.446-1 1-1zm0 4h10c.554 0 1 .446 1 1s-.446 1-1 1H11c-.554 0-1-.446-1-1s.446-1 1-1zm0 4h10c.554 0 1 .446 1 1s-.446 1-1 1H11c-.554 0-1-.446-1-1s.446-1 1-1z" fill="#62686a"/>
</svg>
