<?xml version="1.0" encoding="UTF-8"?>
<svg version="1.1" width="32" height="32" viewBox="0 0 32 32" xmlns="http://www.w3.org/2000/svg">
 <path d="M16 23.99c-1.57 0-1.427 2.997 0 2.997s1.57-2.996 0-2.996zM5.015 16c0 1.57 2.996 1.57 2.996 0s-2.996-1.569-2.996 0zM16 0C7.163 0 0 7.163 0 16s7.163 16 16 16 16-7.163 16-16S24.838 0 16 0zm0 28.671c-6.433 0-12.647-6.183-12.647-12.581C3.353 9.694 9.567 3.51 16 3.51s12.648 6.184 12.648 12.58c0 6.398-6.214 12.581-12.648 12.581zm4.546-20.663a1.455 1.455 0 0 0-1.93.704l-3.036 6.576c-.023.047-.032.095-.05.143l-3.234-.01a1.444 1.444 0 0 0-1.448 1.448 1.463 1.463 0 0 0 1.457 1.457l4.358.013a1.442 1.442 0 0 0 1.449-1.448c0-.055-.011-.107-.017-.16a1.52 1.52 0 0 0 .13-.222l3.035-6.576a1.452 1.452 0 0 0-.714-1.925zM23.99 16c0 1.57 2.996 1.57 2.996 0s-2.996-1.569-2.996 0zM16 8.01c1.57 0 1-2.995 0-2.995S14.43 8.01 16 8.01z" fill="#62686a"/>
</svg>
