<?xml version="1.0" encoding="UTF-8"?>
<svg version="1.1" width="32" height="32" viewBox="0 0 32 32" xmlns="http://www.w3.org/2000/svg">
 <path d="M16 0A13.083 15 0 0 0 5.979 5.357l2.004 1.93A10.466 12 0 0 1 16 3a10.466 12 0 0 1 8.018 4.287l2.004-1.93A13.083 15 0 0 0 16.001 0zM5 .092C2.18.575 0 3.05 0 6v20c0 3.29 2.71 6 6 6h20c3.29 0 6-2.71 6-6V6c0-2.95-2.18-5.425-5-5.908v3.447c1.194.692 2 1.981 2 3.461v18a4 4 0 0 1-4 4H7a4 4 0 0 1-4-4V7c0-1.48.806-2.769 2-3.46zM16 6a7.85 9 0 0 0-6.014 3.215l2.004 1.928A5.233 6 0 0 1 16 9a5.233 6 0 0 1 4.01 2.143l2.004-1.928A7.85 9 0 0 0 16 6zm-6.84 6c-1.381.027-2.863 1.257-3.16 2.324-.484 1.77.264 3.07 1.781 3.51 1.472.427 2.434-.457 3.291-2.834h9.856c.857 2.377 1.82 3.261 3.29 2.834 1.518-.44 2.266-1.74 1.782-3.51-.297-1.067-1.779-2.297-3.16-2.324zm2.242 5a.555.555 0 0 0-.527.38l-1.619 4.897a1.13 1.13 0 0 1-1.074.778h-.364a.818.818 0 0 0-.818.818v2.309c0 .452.366.818.818.818h16.363a.818.818 0 0 0 .819-.818v-2.309a.818.818 0 0 0-.819-.818h-.363a1.13 1.13 0 0 1-1.074-.778l-1.62-4.896a.555.555 0 0 0-.526-.381zM16 18.5a3.5 3.5 0 1 1 0 7 3.5 3.5 0 0 1 0-7z" fill="#62686a"/>
</svg>
