<?xml version="1.0" encoding="UTF-8" standalone="no"?>

<svg
   version="1.1"
   width="52.235px"
   height="52.235px"
   viewBox="0 0 52.235 52.235"
   xmlns="http://www.w3.org/2000/svg"
   xmlns:svg="http://www.w3.org/2000/svg">
<path
   d="m 44.617444,7.6724584 c -10.186003,-10.212 -26.720003,-10.237 -36.9340023,-0.053 -10.2140004,10.1849996 -10.2380004,26.7229996 -0.056,36.9369996 10.1859993,10.215 26.7279993,10.236 36.9370023,0.051 10.214,-10.184 10.24,-26.718 0.053,-36.9349996 z"
   style="fill:CurrentColor" />

<path
   d="M 38.185766,24.044349 V 33.9002 a 3.8865559,3.8865559 0 0 1 -3.906741,3.90674 H 21.670656 v 2.752519 h 12.608369 c 3.660849,0 6.659259,-2.99841 6.659259,-6.659259 V 24.044349 Z M 18.237345,11.199263 c -3.660849,0 -6.65926,2.99841 -6.65926,6.659259 v 12.608369 h 2.752519 V 17.858522 a 3.8865559,3.8865559 0 0 1 3.906741,-3.90674 h 9.855854 v -2.752519 z m 11.847759,19.903461 c 1.42764,-1.414795 1.635913,-3.665437 0.764282,-5.752764 l -5.00683,2.628655 -1.591872,-1.627656 2.698384,-5.011418 C 24.89202,20.42754 22.6478,20.613794 21.218326,22.02767 c -1.510218,1.49737 -1.676287,3.932431 -0.62207,6.11426 l -8.71723,8.701629 c -0.53307,0.845941 -0.364249,2.063471 0.46059,2.908494 0.823921,0.844105 2.031358,1.032194 2.881887,0.511051 l 8.784205,-8.633732 c 2.149718,1.098255 4.569182,0.967968 6.079396,-0.527567 z m -14.604865,7.599702 c -0.500958,0.495453 -1.365248,0.429393 -1.930432,-0.148636 -0.563349,-0.578029 -0.615647,-1.448742 -0.115607,-1.946948 0.500959,-0.495452 1.36525,-0.428475 1.931351,0.148637 0.565184,0.578946 0.61473,1.449659 0.114688,1.946947 z M 28.724443,18.789791 h 0.925763 c 0.0734,0.403702 0.207357,0.786303 0.378012,1.145966 l -0.75419,0.548668 a 0.84108063,0.84108063 0 1 0 0.989073,1.360662 l 0.759694,-0.550504 c 0.29085,0.275252 0.614729,0.519308 0.969805,0.71382 l -0.289014,0.883558 a 0.8425956,0.8425956 0 1 0 1.602882,0.520225 l 0.289014,-0.887228 c 0.198182,0.02569 0.39728,0.05506 0.602802,0.05506 0.207357,0 0.401868,-0.03395 0.600967,-0.06055 l 0.290849,0.893651 a 0.84410561,0.84410561 0 0 0 1.602883,-0.520226 l -0.293601,-0.903755 a 4.6563434,4.6563434 0 0 0 0.975308,-0.694552 l 0.760613,0.551421 a 0.84135309,0.84135309 0 1 0 0.989989,-1.360661 l -0.764283,-0.554174 a 4.4957798,4.4957798 0 0 0 0.387188,-1.140461 h 0.926681 a 0.84227059,0.84227059 0 0 0 0,-1.683623 h -0.926681 a 4.5930355,4.5930355 0 0 0 -0.380765,-1.144129 l 0.75786,-0.549588 a 0.84172084,0.84172084 0 1 0 -0.989989,-1.361578 l -0.758778,0.550504 a 4.7288264,4.7288264 0 0 0 -0.970722,-0.71382 l 0.289015,-0.884475 a 0.84410561,0.84410561 0 0 0 -0.543163,-1.061555 0.84043558,0.84043558 0 0 0 -1.060638,0.541328 l -0.289931,0.887228 c -0.1991,-0.02569 -0.395445,-0.05322 -0.601885,-0.05322 -0.205521,0 -0.401867,0.03303 -0.600049,0.05872 L 33.308303,12.481924 A 0.84318809,0.84318809 0 0 0 31.70542,13.00215 l 0.293602,0.904662 a 4.7013013,4.7013013 0 0 0 -0.973474,0.694552 l -0.76153,-0.550503 a 0.84227059,0.84227059 0 1 0 -0.989071,1.362495 l 0.762446,0.554175 a 4.5600053,4.5600053 0 0 0 -0.385351,1.137708 H 28.72536 a 0.84227088,0.84227088 0 1 0 -9.17e-4,1.684541 z m 5.477511,-2.862619 c 1.162481,0 2.104759,0.905579 2.104759,2.021266 0,1.116606 -0.942278,2.020349 -2.103842,2.020349 -1.160645,0 -2.102923,-0.903743 -2.102923,-2.020349 0,-1.115687 0.942278,-2.020348 2.102923,-2.020348 z"
   style="fill:#ffffff;" /></svg>
