<?xml version="1.0" encoding="UTF-8"?>
<svg version="1.1" width="32" height="32" viewBox="0 0 32 32" xmlns="http://www.w3.org/2000/svg">
 <path d="M29 14v10.742A4.236 4.236 0 0 1 24.742 29H11v3h13.742C28.732 32 32 28.732 32 24.742V14zM7.258 0C3.268 0 0 3.268 0 7.258V21h3V7.258A4.236 4.236 0 0 1 7.258 3H18V0zm12.913 21.693c1.556-1.542 1.783-3.995.833-6.27l-5.457 2.865-1.735-1.774 2.941-5.462c-2.242-.994-4.688-.791-6.246.75-1.646 1.632-1.827 4.286-.678 6.664L.328 27.95c-.581.922-.397 2.249.502 3.17.898.92 2.214 1.125 3.141.557l9.574-9.41c2.343 1.197 4.98 1.055 6.626-.575zM4.253 29.976c-.546.54-1.488.468-2.104-.162-.614-.63-.671-1.579-.126-2.122.546-.54 1.488-.467 2.105.162.616.631.67 1.58.125 2.122zM18.688 8.273h1.009c.08.44.226.857.412 1.249l-.822.598a.916.916 0 1 0 1.078 1.483l.828-.6c.317.3.67.566 1.057.778l-.315.963a.918.918 0 1 0 1.747.567l.315-.967c.216.028.433.06.657.06.226 0 .438-.037.655-.066l.317.974a.92.92 0 0 0 1.747-.567l-.32-.985a5.075 5.075 0 0 0 1.063-.757l.829.601a.917.917 0 1 0 1.079-1.483l-.833-.604a4.9 4.9 0 0 0 .422-1.243h1.01a.918.918 0 0 0 0-1.835h-1.01a5.006 5.006 0 0 0-.415-1.247l.826-.599a.917.917 0 1 0-1.079-1.484l-.827.6a5.154 5.154 0 0 0-1.058-.778l.315-.964A.92.92 0 0 0 26.783.81a.916.916 0 0 0-1.156.59l-.316.967c-.217-.028-.431-.058-.656-.058-.224 0-.438.036-.654.064l-.317-.975a.919.919 0 0 0-1.747.567l.32.986a5.124 5.124 0 0 0-1.061.757l-.83-.6a.918.918 0 1 0-1.078 1.485l.831.604a4.97 4.97 0 0 0-.42 1.24h-1.01a.918.918 0 1 0-.001 1.836zm5.97-3.12c1.267 0 2.294.987 2.294 2.203 0 1.217-1.027 2.202-2.293 2.202-1.265 0-2.292-.985-2.292-2.202 0-1.216 1.027-2.202 2.292-2.202z" fill="#333" />
</svg>
