<?xml version="1.0" encoding="utf-8"?>
<!-- Generator: Adobe Illustrator 16.2.1, SVG Export Plug-In . SVG Version: 6.00 Build 0)  -->
<!DOCTYPE svg PUBLIC "-//W3C//DTD SVG 1.1//EN" "http://www.w3.org/Graphics/SVG/1.1/DTD/svg11.dtd">
<?xml-stylesheet type="text/css" href="../../../../pixelegg/less/svg.css" ?>
<svg version="1.1" id="preferences_navbar" xmlns="http://www.w3.org/2000/svg" xmlns:xlink="http://www.w3.org/1999/xlink" x="0px"
	 y="0px" width="28.347px" height="28.347px" viewBox="0 0 28.347 28.347" enable-background="new 0 0 28.347 28.347"
	 xml:space="preserve">
<g>
	<path fill-rule="evenodd" clip-rule="evenodd" fill="#696969" d="M16.745,21.49c0.593,0.16,1.202-0.191,1.359-0.784l0.288-1.073
		c0.158-0.592-0.193-1.2-0.784-1.359l-1.301-0.348c-0.007-0.493-0.073-0.978-0.194-1.445l1.188-0.686
		c0.533-0.309,0.717-0.99,0.408-1.524l-0.558-0.968c-0.309-0.533-0.99-0.716-1.524-0.408l-1.209,0.698
		c-0.326-0.31-0.689-0.583-1.084-0.817l0.348-1.301c0.159-0.592-0.192-1.201-0.784-1.359l-1.073-0.287
		c-0.593-0.159-1.2,0.193-1.359,0.785l-0.349,1.3C9.64,11.92,9.171,11.979,8.72,12.094l-0.717-1.24
		c-0.308-0.535-0.991-0.718-1.524-0.409l-0.966,0.558c-0.535,0.309-0.717,0.991-0.41,1.525l0.717,1.24
		c-0.325,0.335-0.61,0.711-0.854,1.119l-1.3-0.348c-0.592-0.16-1.2,0.192-1.359,0.784l-0.288,1.073
		c-0.158,0.592,0.193,1.2,0.786,1.359l1.301,0.348c0.006,0.459,0.059,0.91,0.165,1.348l-1.208,0.698
		c-0.535,0.309-0.718,0.991-0.409,1.524l0.558,0.967c0.31,0.533,0.991,0.717,1.525,0.408l1.188-0.686
		c0.343,0.34,0.729,0.638,1.152,0.891l-0.349,1.301c-0.157,0.592,0.193,1.2,0.786,1.359l1.072,0.287
		c0.593,0.159,1.201-0.193,1.36-0.785l0.348-1.3c0.476-0.007,0.943-0.066,1.396-0.181l0.668,1.156
		c0.307,0.533,0.99,0.717,1.524,0.408l0.966-0.558c0.534-0.309,0.717-0.991,0.408-1.524l-0.667-1.156
		c0.325-0.335,0.61-0.711,0.854-1.119L16.745,21.49z M13.422,18.877c-0.476,1.776-2.303,2.83-4.079,2.355
		c-1.776-0.477-2.832-2.303-2.355-4.08s2.303-2.831,4.08-2.355C12.843,15.273,13.899,17.1,13.422,18.877z"/>
	<circle fill-rule="evenodd" clip-rule="evenodd" fill="#696969" cx="10.206" cy="18.015" r="1.111"/>
	<path fill-rule="evenodd" clip-rule="evenodd" fill="#696969" d="M15.714,7.145l0.909,0.244c0.006,0.32,0.042,0.637,0.117,0.942
		L15.893,8.82c-0.372,0.215-0.501,0.692-0.285,1.066l0.391,0.677c0.216,0.374,0.693,0.501,1.067,0.286l0.831-0.48
		c0.241,0.238,0.512,0.447,0.809,0.623l-0.243,0.911c-0.111,0.414,0.135,0.841,0.548,0.951l0.751,0.201
		c0.415,0.111,0.842-0.135,0.952-0.55l0.244-0.909c0.332-0.005,0.66-0.047,0.978-0.127l0.466,0.81
		c0.217,0.373,0.694,0.502,1.068,0.286l0.676-0.391c0.375-0.216,0.502-0.694,0.286-1.067l-0.467-0.81
		c0.229-0.234,0.428-0.497,0.598-0.783l0.911,0.243c0.413,0.112,0.84-0.134,0.951-0.549l0.201-0.75
		c0.111-0.414-0.136-0.841-0.55-0.952l-0.91-0.244c-0.005-0.345-0.05-0.684-0.137-1.011l0.833-0.48
		c0.373-0.216,0.502-0.693,0.286-1.066l-0.392-0.678c-0.216-0.373-0.693-0.501-1.066-0.285L23.843,4.23
		c-0.228-0.217-0.483-0.408-0.759-0.572l0.244-0.91c0.11-0.415-0.136-0.841-0.55-0.952l-0.751-0.201
		c-0.414-0.11-0.841,0.136-0.951,0.55l-0.244,0.91C20.5,3.06,20.171,3.101,19.855,3.181l-0.501-0.868
		c-0.216-0.374-0.695-0.502-1.067-0.286L17.61,2.417c-0.374,0.216-0.502,0.693-0.286,1.067l0.502,0.868
		c-0.228,0.234-0.428,0.497-0.599,0.783l-0.909-0.244c-0.415-0.11-0.841,0.135-0.953,0.551l-0.201,0.75
		C15.053,6.606,15.3,7.033,15.714,7.145z M18.643,6.722c0.333-1.243,1.611-1.981,2.855-1.648s1.982,1.612,1.647,2.856
		c-0.332,1.242-1.611,1.98-2.854,1.648C19.048,9.244,18.31,7.966,18.643,6.722z"/>
	<circle fill-rule="evenodd" clip-rule="evenodd" fill="#696969" cx="20.895" cy="7.326" r="0.777"/>
	<path fill-rule="evenodd" clip-rule="evenodd" fill="#696969" d="M4.45,7.468c0-1.896,1.536-3.432,3.432-3.432h7.258V1.569H6.917
		c-2.725,0-4.934,2.209-4.934,4.934v5.755H4.45V7.468z"/>
	<path fill-rule="evenodd" clip-rule="evenodd" fill="#696969" d="M24.184,13.902v6.436c0,1.896-1.536,3.433-3.432,3.433h-3.969
		l-0.069,2.467h5.003c2.725,0,4.934-2.209,4.934-4.934v-7.333L24.184,13.902z"/>
</g>
</svg>
