<?xml version="1.0" encoding="UTF-8"?>
<svg version="1.1" width="32" height="32" viewBox="0 0 32 32" xmlns="http://www.w3.org/2000/svg">
 <path d="M29 16v8.742A4.236 4.236 0 0 1 24.742 29H19v3h5.742C28.732 32 32 28.732 32 24.742V16zM7.258 0C3.268 0 0 3.268 0 7.258V13h3V7.258A4.236 4.236 0 0 1 7.258 3H17V0zM25.54 7.469a1.008 1.008 0 1 1-2.016 0 1.008 1.008 0 0 1 2.016 0zm-7.728-.236 1.18.316c.007.415.054.826.15 1.222l-1.098.634c-.482.279-.65.898-.37 1.383l.508.878c.28.485.899.65 1.384.37l1.078-.622c.312.309.664.58 1.049.808l-.315 1.182c-.144.537.175 1.09.71 1.233l.975.261a1.007 1.007 0 0 0 1.234-.713l.317-1.18c.43-.005.856-.06 1.268-.164l.605 1.05c.281.484.9.652 1.385.372l.877-.508c.486-.28.65-.9.37-1.384l-.605-1.05a5.41 5.41 0 0 0 .776-1.016l1.181.315a1.006 1.006 0 0 0 1.234-.712l.26-.972a1.01 1.01 0 0 0-.713-1.235l-1.18-.317a5.377 5.377 0 0 0-.178-1.311l1.08-.623a1.01 1.01 0 0 0 .371-1.382l-.508-.88a1.012 1.012 0 0 0-1.383-.37l-1.098.634a5.5 5.5 0 0 0-.985-.742l.317-1.18a1.01 1.01 0 0 0-.714-1.235L26 .034a1.009 1.009 0 0 0-1.233.713l-.317 1.18c-.43.007-.857.06-1.267.164l-.65-1.126a1.013 1.013 0 0 0-1.384-.37l-.878.505c-.485.28-.65.899-.37 1.384l.65 1.126a5.485 5.485 0 0 0-.776 1.016l-1.18-.317a1.01 1.01 0 0 0-1.236.715l-.26.973c-.144.537.176 1.09.713 1.236zm3.8-.549a3.024 3.024 0 1 1 5.84 1.566 3.024 3.024 0 0 1-5.84-1.566zm-9.503 14.649a1.441 1.441 0 1 1-2.882 0 1.441 1.441 0 0 1 2.882 0zm7.04 4.509a1.435 1.435 0 0 0 1.763-1.017l.374-1.392a1.44 1.44 0 0 0-1.017-1.763l-1.688-.451a7.917 7.917 0 0 0-.251-1.874l1.54-.89c.692-.4.93-1.284.53-1.977l-.724-1.255a1.448 1.448 0 0 0-1.977-.53l-1.568.906a7.82 7.82 0 0 0-1.406-1.06l.452-1.687a1.438 1.438 0 0 0-1.017-1.763l-1.392-.372a1.439 1.439 0 0 0-1.763 1.018l-.452 1.686a7.736 7.736 0 0 0-1.812.234l-.93-1.609a1.445 1.445 0 0 0-1.977-.53l-1.253.724c-.694.4-.93 1.285-.532 1.978l.93 1.608a7.91 7.91 0 0 0-1.108 1.451l-1.686-.451a1.437 1.437 0 0 0-1.763 1.017L.05 19.234a1.44 1.44 0 0 0 1.02 1.763l1.687.452c.008.595.076 1.18.214 1.748l-1.567.905a1.445 1.445 0 0 0-.53 1.977l.723 1.254c.402.692 1.286.93 1.978.53l1.541-.89c.445.44.946.827 1.494 1.155l-.452 1.688a1.441 1.441 0 0 0 1.02 1.763l1.39.372a1.44 1.44 0 0 0 1.764-1.018l.451-1.687a7.806 7.806 0 0 0 1.81-.234l.867 1.499c.398.691 1.284.93 1.977.53l1.253-.725c.693-.4.93-1.285.53-1.976l-.866-1.5a7.91 7.91 0 0 0 1.108-1.451zm-4.31-3.39a4.322 4.322 0 0 1-5.29 3.055 4.321 4.321 0 0 1 2.237-8.347 4.32 4.32 0 0 1 3.053 5.292z" fill="#62686a" />
</svg>
