<?xml version="1.0" encoding="UTF-8"?>
<svg version="1.1" width="32" height="32" viewBox="0 0 32 32" xmlns="http://www.w3.org/2000/svg">
 <path d="m14 18h4v3h-4zm2 4h1l2 7-3 3-3-3 2-7zm8-14a8 8 0 0 1-8 8 8 8 0 0 1-8-8 8 8 0 0 1 8-8 8 8 0 0 1 8 8zm-4.4863 9.166c1.7e-4 1.2169 0.20298 5.982-1.0059 5.998 0.47857 1.5808 1.2001 3.7568 1.7578 4.7051 4.7904-0.2735 8.7344-0.88476 8.7344-0.88476l-3.25-8.1035s-2.7953-1.1474-6.2363-1.7148zm-7.0273 0.0234c-3.3306 0.57539-6.2363 1.6914-6.2363 1.6914l-3.25 8.1035s3.9208 0.6139 8.7344 0.88671c0.55783-0.94744 1.279-3.1254 1.7578-4.707-1.203-0.016-1.0079-4.7296-1.0059-5.9746z" fill="#62686a"/>
</svg>
