<?xml version="1.0" encoding="UTF-8"?>
<svg version="1.1" width="32" height="32" viewBox="0 0 32 32" xmlns="http://www.w3.org/2000/svg">
 <path d="M16 0a5 5 0 0 0-5 5 5 5 0 0 0 5 5 5 5 0 0 0 5-5 5 5 0 0 0-5-5zM7.895 2.053a4.21 4.21 0 1 0 0 8.421 4.211 4.211 0 0 0 2.71-1.03A6.96 6.96 0 0 1 9 5c0-.925.184-1.81.516-2.621a4.21 4.21 0 0 0-1.622-.326zm16.105 0a4.211 4.211 0 0 0-1.518.32c.333.813.517 1.7.517 2.627a6.96 6.96 0 0 1-1.648 4.492 4.21 4.21 0 0 0 2.648.983 4.21 4.21 0 1 0 0-8.422zM16 12c-2.498 0-5.528.15-7 1l1 8 3 1.951V31c.733.678 1.984 1 3 1s2.267-.322 3-1v-8.049L22 21l1-8c-1.473-.85-4.503-1-7-1zm-9.118.178C5.023 12.22 3.048 12.395 2 13l.841 6.736L5.37 21.38v6.78c.617.57 1.67.841 2.525.841s1.91-.27 2.527-.842V23.66l-2.29-1.49zm18.234.002-1.248 9.99-2.394 1.557v4.431c.617.571 1.67.842 2.525.842s1.908-.271 2.526-.842v-6.78l2.527-1.642.842-6.736c-1.028-.594-2.95-.774-4.778-.82z" fill="#62686a"/>
</svg>
