<?xml version="1.0" encoding="UTF-8" standalone="no"?>

<svg
        version="1.1"
        width="52.235px"
        height="52.235px"
        viewBox="0 0 52.235 52.235"
        xmlns="http://www.w3.org/2000/svg"
        xmlns:svg="http://www.w3.org/2000/svg">
    <path
            d="m 44.617444,7.6724584 c -10.186003,-10.212 -26.720003,-10.237 -36.9340023,-0.053 -10.2140004,10.1849996 -10.2380004,26.7229996 -0.056,36.9369996 10.1859993,10.215 26.7279993,10.236 36.9370023,0.051 10.214,-10.184 10.24,-26.718 0.053,-36.9349996 z"
            style="fill:CurrentColor"/>
    <path
            d="m 19.458891,18.778146 c -1.392,0.06 -2.472999,0.917 -2.582,1.16 -0.768999,0.836 -0.929999,0.727 -1.161999,2.156 a 6.39,6.39 0 0 0 -0.073,1.284 l -0.62,0.668 0.63,2.085 0.574,-0.004 c 0.465,0.908 1.852,2.037 3.516,2.15 1.664,-0.113 3.05,-1.242 3.515999,-2.15 l 0.574001,0.004 0.629999,-2.085 -0.62,-0.668 a 6.42,6.42 0 0 0 -0.073,-1.284 c -0.232,-1.43 -0.393,-1.32 -1.162,-2.156 -0.116,-0.259 -1.338999,-1.216 -2.864999,-1.16 a 3.343,3.343 0 0 0 -0.283001,0 z m -2.759999,10.5 c -2.184,0.853 -2.457,3.001 -2.457,5 h 11 c 0,-1.999 -0.273,-4.147 -2.457001,-5 0,0.067 -1.387,1.275 -3.042999,1.275 -1.656,0 -3.043,-1.208 -3.043,-1.275 z m -4.457,-16 c -1.108,0 -1.999999,0.892 -1.999999,2 v 22 c 0,1.108 0.891999,2 1.999999,2 h 28 c 1.107999,0 2,-0.892 2,-2 v -22 c 0,-1.108 -0.892001,-2 -2,-2 z m 2,3 h 11 c 1.108,0 2,0.892 2,2 v 16 c 0,1.108 -0.892,2 -2,2 h -11 c -1.108,0 -2,-0.892 -2,-2 v -16 c 0,-1.108 0.892,-2 2,-2 z m 17.5,1 h 7 c 0.831,0 1.5,0.669 1.5,1.5 0,0.831 -0.669,1.5 -1.5,1.5 h -7 c -0.831,0 -1.5,-0.669 -1.5,-1.5 0,-0.831 0.669,-1.5 1.5,-1.5 z m 0,7 h 7 c 0.831,0 1.5,0.669 1.5,1.5 0,0.831 -0.669,1.5 -1.5,1.5 h -7 c -0.831,0 -1.5,-0.669 -1.5,-1.5 0,-0.831 0.669,-1.5 1.5,-1.5 z m 0,7 h 7 c 0.831,0 1.5,0.669 1.5,1.5 0,0.831 -0.669,1.5 -1.5,1.5 h -7 c -0.831,0 -1.5,-0.669 -1.5,-1.5 0,-0.831 0.669,-1.5 1.5,-1.5 z"
            style="fill:#ffffff;"/>
</svg>
