<?xml version="1.0" encoding="UTF-8"?>
<svg version="1.1" width="32" height="32" viewBox="0 0 32 32" xmlns="http://www.w3.org/2000/svg">
 <path d="M9.217 8.5c-1.392.06-2.473.917-2.582 1.16-.769.836-.93.727-1.162 2.156A6.39 6.39 0 0 0 5.4 13.1l-.62.668.63 2.085.574-.004c.465.908 1.852 2.037 3.516 2.15 1.664-.113 3.05-1.242 3.516-2.15l.574.004.63-2.085-.62-.668a6.42 6.42 0 0 0-.073-1.284c-.232-1.43-.393-1.32-1.162-2.156-.116-.259-1.339-1.216-2.865-1.16a3.343 3.343 0 0 0-.283 0zM6.457 19C4.273 19.853 4 22.001 4 24h11c0-1.999-.273-4.147-2.457-5 0 .067-1.387 1.275-3.043 1.275S6.457 19.067 6.457 19zM2 3C.892 3 0 3.892 0 5v22c0 1.108.892 2 2 2h28c1.108 0 2-.892 2-2V5c0-1.108-.892-2-2-2zm2 3h11c1.108 0 2 .892 2 2v16c0 1.108-.892 2-2 2H4c-1.108 0-2-.892-2-2V8c0-1.108.892-2 2-2zm17.5 1h7c.831 0 1.5.669 1.5 1.5s-.669 1.5-1.5 1.5h-7c-.831 0-1.5-.669-1.5-1.5S20.669 7 21.5 7zm0 7h7c.831 0 1.5.669 1.5 1.5s-.669 1.5-1.5 1.5h-7c-.831 0-1.5-.669-1.5-1.5s.669-1.5 1.5-1.5zm0 7h7c.831 0 1.5.669 1.5 1.5s-.669 1.5-1.5 1.5h-7c-.831 0-1.5-.669-1.5-1.5s.669-1.5 1.5-1.5z" fill="#036"/>
</svg>
