<?xml version="1.0" encoding="utf-8"?>
<!-- Generator: Adobe Illustrator 16.2.1, SVG Export Plug-In . SVG Version: 6.00 Build 0)  -->
<!DOCTYPE svg PUBLIC "-//W3C//DTD SVG 1.1//EN" "http://www.w3.org/Graphics/SVG/1.1/DTD/svg11.dtd">
<?xml-stylesheet type="text/css" href="../less/svg.css" ?>
<svg version="1.1" id="pixelegg_advanced-search" xmlns="http://www.w3.org/2000/svg" xmlns:xlink="http://www.w3.org/1999/xlink" x="0px" y="0px"
	 width="28.347px" height="28.347px" viewBox="0 0 28.347 28.347" enable-background="new 0 0 28.347 28.347" xml:space="preserve">
<path fill-rule="evenodd" clip-rule="evenodd" fill="#ECEDED" d="M0.001,0v28.348h28.346V0H0.001z M22.977,23.342l-1.409,1.389
	c-0.26,0.254-0.679,0.254-0.938,0l-2.815-2.775c-0.26-0.254-0.26-0.668,0-0.924l0.076-0.074l-1.324-1.305
	c-0.034-0.033-0.053-0.074-0.076-0.113c-1.373,1.09-3.117,1.746-5.018,1.746c-4.423,0-8.009-3.531-8.009-7.889
	s3.586-7.889,8.009-7.889c0.797,0,1.564,0.118,2.291,0.332v3.266c-0.684-0.355-1.464-0.56-2.291-0.56
	c-2.719,0-4.924,2.173-4.924,4.851c0,2.68,2.205,4.85,4.924,4.85s4.923-2.17,4.923-4.85c0-0.914-0.261-1.766-0.707-2.496h1.616
	v3.485h2.105c-0.189,1.485-0.793,2.845-1.702,3.954c0.039,0.023,0.08,0.043,0.114,0.076l1.324,1.303l0.076-0.074
	c0.259-0.256,0.679-0.256,0.938,0l2.816,2.773C23.235,22.674,23.235,23.088,22.977,23.342z M24.878,9.699h-3.543v3.486h-2.83V9.699
	h-3.541V6.907h3.541V3.425h2.83v3.482h3.543V9.699z"/>
</svg>
