<?xml version="1.0" encoding="utf-8"?>
<!-- Generator: Adobe Illustrator 16.2.1, SVG Export Plug-In . SVG Version: 6.00 Build 0)  -->
<!DOCTYPE svg PUBLIC "-//W3C//DTD SVG 1.1//EN" "http://www.w3.org/Graphics/SVG/1.1/DTD/svg11.dtd">
<?xml-stylesheet type="text/css" href="../../../../pixelegg/less/svg.css" ?>
<svg version="1.1" id="projectmanager_navbar" xmlns="http://www.w3.org/2000/svg" xmlns:xlink="http://www.w3.org/1999/xlink" x="0px"
	 y="0px" width="28.347px" height="28.347px" viewBox="0 0 28.347 28.347" enable-background="new 0 0 28.347 28.347"
	 xml:space="preserve">
<g>
	<polygon fill-rule="evenodd" clip-rule="evenodd" fill="#ECEDED" points="3.323,5.949 5.036,4.235 5.036,3.379 1.61,4.235 
		1.61,24.797 5.036,25.652 5.036,24.797 3.323,23.083 	"/>
	<path fill-rule="evenodd" clip-rule="evenodd" fill="#ECEDED" d="M20.457,9.376V8.52c0-0.946-0.768-1.714-1.713-1.714H6.751
		c-0.947,0-1.715,0.768-1.715,1.714v0.856c0,0.946,0.768,1.714,1.715,1.714h11.993C19.689,11.09,20.457,10.322,20.457,9.376z"/>
	<path fill-rule="evenodd" clip-rule="evenodd" fill="#ECEDED" d="M16.174,19.656h-5.141c-0.946,0-1.713,0.768-1.713,1.714
		s0.767,1.713,1.713,1.713h5.141c0.946,0,1.714-0.767,1.714-1.713S17.12,19.656,16.174,19.656z"/>
	<path fill-rule="evenodd" clip-rule="evenodd" fill="#ECEDED" d="M24.74,13.659h-6.853c-0.947,0-1.714,0.767-1.714,1.714
		c0,0.946,0.767,1.713,1.714,1.713h6.853c0.945,0,1.714-0.767,1.714-1.713C26.454,14.426,25.686,13.659,24.74,13.659z"/>
</g>
</svg>
