<?xml version="1.0" encoding="utf-8"?>
<!-- Generator: Adobe Illustrator 16.2.1, SVG Export Plug-In . SVG Version: 6.00 Build 0)  -->
<!DOCTYPE svg PUBLIC "-//W3C//DTD SVG 1.1//EN" "http://www.w3.org/Graphics/SVG/1.1/DTD/svg11.dtd">
<?xml-stylesheet type="text/css" href="../../../../pixelegg/less/svg.css" ?>
<svg version="1.1" id="sitemgr_navbar" xmlns="http://www.w3.org/2000/svg" xmlns:xlink="http://www.w3.org/1999/xlink" x="0px"
	 y="0px" width="28.347px" height="28.347px" viewBox="0 0 28.347 28.347" enable-background="new 0 0 28.347 28.347"
	 xml:space="preserve">
<g>
	<polygon fill-rule="evenodd" clip-rule="evenodd" fill="#ECEDED" points="24.339,7.995 20.509,4.185 12.083,12.567 15.913,16.377 	
		"/>
	<polygon fill-rule="evenodd" clip-rule="evenodd" fill="#ECEDED" points="10.018,18.433 15.38,16.908 11.549,13.098 	"/>
	<path fill-rule="evenodd" clip-rule="evenodd" fill="#ECEDED" d="M23.223,22.105c0,1.324-1.072,2.397-2.396,2.397H6.453
		c-1.324,0-2.396-1.073-2.396-2.397V7.716c0-1.324,1.071-2.397,2.396-2.397h9.582l2.406-2.399H5.653
		c-2.205,0-3.992,1.79-3.992,3.998v15.988c0,2.207,1.787,3.996,3.992,3.996h15.973c2.205,0,3.993-1.789,3.993-3.996V10.131
		l-2.396,2.382V22.105z"/>
	<path fill-rule="evenodd" clip-rule="evenodd" fill="#ECEDED" d="M26.119,4.794l-2.395-2.381c-0.396-0.395-1.061-0.374-1.483,0.047
		l-1.149,1.143l3.83,3.81l1.149-1.143C26.495,5.85,26.516,5.189,26.119,4.794z"/>
</g>
</svg>
