<?xml version="1.0" encoding="utf-8"?>
<!-- Generator: Adobe Illustrator 16.2.1, SVG Export Plug-In . SVG Version: 6.00 Build 0)  -->
<!DOCTYPE svg PUBLIC "-//W3C//DTD SVG 1.1//EN" "http://www.w3.org/Graphics/SVG/1.1/DTD/svg11.dtd">
<?xml-stylesheet type="text/css" href="../../../../pixelegg/less/svg.css" ?>
<svg version="1.1" id="calendar_navbar" xmlns="http://www.w3.org/2000/svg" xmlns:xlink="http://www.w3.org/1999/xlink" x="0px" y="0px"
	 width="28.347px" height="28.347px" viewBox="0 0 28.347 28.347" enable-background="new 0 0 28.347 28.347" xml:space="preserve">
<g>
	<path fill-rule="evenodd" clip-rule="evenodd" fill="#ECEDED" d="M18.804,8.086c0.888,0,1.607-0.721,1.607-1.608V4.067
		c0-0.89-0.72-1.609-1.607-1.609c-0.89,0-1.608,0.72-1.608,1.609v2.411C17.196,7.366,17.915,8.086,18.804,8.086z"/>
	<path fill-rule="evenodd" clip-rule="evenodd" fill="#ECEDED" d="M9.259,8.086c0.891,0,1.609-0.721,1.609-1.608V4.067
		c0-0.89-0.719-1.609-1.609-1.609c-0.887,0-1.606,0.72-1.606,1.609v2.411C7.653,7.366,8.373,8.086,9.259,8.086z"/>
	<path fill-rule="evenodd" clip-rule="evenodd" fill="#ECEDED" d="M8.807,20.488c0,2.689,2.262,2.871,3.104,2.871
		c1.799,0,3.044-1.15,3.044-2.775c0-1.467-1.032-1.916-1.345-2.002v-0.023c0.502-0.217,1.067-0.764,1.067-1.637
		c0-1.818-1.572-2.4-2.767-2.4c-2.011,0-2.954,1.15-2.954,2.763h1.634c0-0.305,0-1.406,1.206-1.406c0.969,0,1.12,0.787,1.12,1.102
		c0,1.117-0.969,1.168-1.497,1.168h-0.275v1.211c0.816,0,2,0.049,2,1.225c0,0.957-0.618,1.418-1.321,1.418
		c-1.183,0-1.309-1.043-1.309-1.504l0.014-0.01H8.807z"/>
	<path fill-rule="evenodd" clip-rule="evenodd" fill="#ECEDED" d="M22.066,4.874h-0.642v2.582c0,0.965-0.781,1.748-1.746,1.748
		h-1.749c-0.965,0-1.747-0.783-1.747-1.748V4.874h-4.3v2.582c0,0.965-0.781,1.748-1.747,1.748H8.387
		c-0.966,0-1.747-0.783-1.747-1.748V4.874H5.998c-2.001,0-3.619,1.622-3.619,3.616v0.003v14.466c0,1.996,1.618,3.615,3.619,3.615
		h16.068c1.997,0,3.62-1.619,3.62-3.615V8.493V8.49C25.686,6.496,24.063,4.874,22.066,4.874z M23.255,22.895
		c0,0.596-0.482,1.084-1.081,1.084H6.041c-0.598,0-1.084-0.488-1.084-1.084v-9.343h18.299V22.895z"/>
	<path fill-rule="evenodd" clip-rule="evenodd" fill="#ECEDED" d="M17.497,23.129h1.761v-8.607h-1.446
		c-0.036,0.643-0.489,1.492-2.185,1.492h-0.253v1.188h2.123V23.129z"/>
</g>
</svg>
