<!DOCTYPE svg PUBLIC "-//W3C//DTD SVG 1.1//EN" "http://www.w3.org/Graphics/SVG/1.1/DTD/svg11.dtd">
<?xml-stylesheet type="text/css" href="../../../../pixelegg/less/svg.css" ?>
<svg version="1.1" id="wiki_navbar" xmlns="http://www.w3.org/2000/svg" xmlns:xlink="http://www.w3.org/1999/xlink" x="0px"
	 y="0px" width="28.347px" height="28.347px" viewBox="0 0 28.347 28.347" enable-background="new 0 0 28.347 28.347"
	 xml:space="preserve">
<g>
	<path fill="#ECEDED" d="M20.038,8.635c0,1.271-1.138,2.302-2.542,2.302c-1.405,0-2.543-1.03-2.543-2.302
		c0-1.272,1.138-2.302,2.543-2.302C18.9,6.333,20.038,7.363,20.038,8.635z"/>
	<path fill="#ECEDED" d="M26.481,6.785c0-0.18-0.162-0.327-0.361-0.327H20.5c-0.199,0-0.36,0.147-0.36,0.327v0.817
		c0,0.18,0.161,0.327,0.36,0.327h1.281c0.2,0,0.307,0.138,0.238,0.307l-4.133,10.28c-0.067,0.169-0.178,0.169-0.246,0l-4.133-10.28
		c-0.068-0.168,0.039-0.307,0.237-0.307h0.671c0.198,0,0.36-0.147,0.36-0.327V6.785c0-0.18-0.162-0.327-0.36-0.327H8.795
		c-0.198,0-0.361,0.147-0.361,0.327v0.817c0,0.18,0.163,0.327,0.361,0.327h1.017c0.199,0,0.417,0.138,0.484,0.307l2.422,6.025
		c0.068,0.169,0.068,0.445,0,0.614l-1.459,3.631c-0.067,0.17-0.18,0.17-0.247,0L6.884,8.235C6.814,8.067,6.921,7.929,7.121,7.929
		h0.526c0.199,0,0.361-0.147,0.361-0.327V6.785c0-0.18-0.162-0.327-0.361-0.327H2.028c-0.198,0-0.361,0.147-0.361,0.327v0.817
		c0,0.18,0.163,0.327,0.361,0.327h1.16c0.199,0,0.417,0.138,0.483,0.307l6.603,16.405c0.068,0.168,0.179,0.168,0.247,0l3.062-7.616
		c0.068-0.169,0.179-0.169,0.247,0l3.065,7.626c0.068,0.168,0.125,0.297,0.129,0.285c0.002-0.012,0.004-0.014,0.005-0.005
		c0,0.009,0.057-0.122,0.123-0.29l6.596-16.405c0.067-0.168,0.286-0.307,0.483-0.307h1.889c0.199,0,0.361-0.147,0.361-0.327V6.785z"
		/>
</g>
</svg>
