<?xml version="1.0" encoding="utf-8"?>
<!-- Generator: Adobe Illustrator 16.2.1, SVG Export Plug-In . SVG Version: 6.00 Build 0)  -->
<!DOCTYPE svg PUBLIC "-//W3C//DTD SVG 1.1//EN" "http://www.w3.org/Graphics/SVG/1.1/DTD/svg11.dtd">
<?xml-stylesheet type="text/css" href="../../../../pixelegg/less/svg.css" ?>
<svg version="1.1" id="sambaadmin_navbar" xmlns="http://www.w3.org/2000/svg" xmlns:xlink="http://www.w3.org/1999/xlink" x="0px" y="0px"
	 width="28.347px" height="28.347px" viewBox="0 0 28.347 28.347" enable-background="new 0 0 28.347 28.347" xml:space="preserve">
<g>
	<path fill-rule="evenodd" clip-rule="evenodd" fill="#ECEDED" d="M23.729,8.867c-0.779,0-1.484-0.312-2.001-0.818H7.769v4.092H22.5
		h0.818c0.905,0,1.638,0.733,1.638,1.638v0.818v7.366v0.818c0,0.903-0.732,1.637-1.638,1.637H22.5H6.905
		c-0.517,0.505-1.222,0.818-2.001,0.818c-1.581,0-2.864-1.283-2.864-2.865c0-1.581,1.283-2.863,2.864-2.863
		c0.779,0,1.484,0.312,2.001,0.818h13.959v-4.093H6.133H5.314c-0.905,0-1.638-0.732-1.638-1.637v-0.818V6.412V5.594
		c0-0.904,0.732-1.637,1.638-1.637h0.818h15.595c0.517-0.505,1.222-0.818,2.001-0.818c1.581,0,2.864,1.282,2.864,2.864
		C26.593,7.586,25.31,8.867,23.729,8.867z"/>
</g>
</svg>
