<?xml version="1.0" encoding="utf-8"?>
<!-- Generator: Adobe Illustrator 16.2.1, SVG Export Plug-In . SVG Version: 6.00 Build 0)  -->
<!DOCTYPE svg PUBLIC "-//W3C//DTD SVG 1.1//EN" "http://www.w3.org/Graphics/SVG/1.1/DTD/svg11.dtd">
<?xml-stylesheet type="text/css" href="../../../../pixelegg/less/svg.css" ?>
<svg version="1.1" id="developer_tools_navbar" xmlns="http://www.w3.org/2000/svg" xmlns:xlink="http://www.w3.org/1999/xlink"
	 x="0px" y="0px" width="28.347px" height="28.347px" viewBox="0 0 28.347 28.347" enable-background="new 0 0 28.347 28.347"
	 xml:space="preserve">
<g>
	<path fill-rule="evenodd" clip-rule="evenodd" fill="#ECEDED" d="M23.601,14.208l-0.051-0.07c-1.064,0.901-2.439,1.919-4.541,2.149
		c-2.488,0.272-4.943-0.403-7.021-0.409c-0.099,0-0.188,0.015-0.285,0.018c-0.031,0.281-0.117,0.559-0.27,0.812l-3.479,6.436
		l0.747,1.613c0.205-1.605,3.384-3.075,5.983-3.154c1.888,0.006,4.851,0.398,6.831,0.387c3.007-0.068,4.305-1.723,5.297-2.666
		L23.601,14.208z"/>
	<path fill-rule="evenodd" clip-rule="evenodd" fill="#ECEDED" d="M6.061,13.415c0.258-0.434,0.7-0.751,1.219-0.875l1.318-2.199
		c-2.715,0.078-4.946,1.053-5.479,2.344l1.409,3.048L6.061,13.415z"/>
	<path fill-rule="evenodd" clip-rule="evenodd" fill="#ECEDED" d="M14.031,11.213l-2.092,3.489c1.993,0.104,4.367,0.801,6.836,0.451
		c2.104-0.449,3.107-1.084,4.166-1.84l-0.003-0.16l-2.125-3.383c-0.993,0.941-2.98,1.586-5.271,1.586
		C15.074,11.358,14.562,11.3,14.031,11.213z"/>
	<path fill-rule="evenodd" clip-rule="evenodd" fill="#ECEDED" d="M10.166,15.114l4.219-7.036l1.354,0.812l-0.178,0.296
		c-0.211,0.351-0.096,0.808,0.256,1.019l0.803,0.481c0.351,0.211,0.807,0.096,1.018-0.255l1.528-2.548
		c0.211-0.352,0.096-0.808-0.256-1.018l-0.802-0.481c-0.352-0.211-0.808-0.097-1.019,0.254l-0.232,0.386L15.49,6.205
		c0.157-0.34,0.047-0.749-0.281-0.945l-0.862-0.518c-0.33-0.198-0.741-0.101-0.967,0.197l-1.497-0.897
		c-1.408-0.844-3.231-0.387-4.075,1.02L7.242,6.005l0.32,0.193C8.35,5.409,9.774,5.314,10.98,6.037l1.268,0.76L8.03,13.833
		c-0.325-0.113-0.694-0.002-0.879,0.305l-5.226,7.897c-0.211,0.353-0.096,0.808,0.256,1.019l2.607,1.564
		c0.353,0.211,0.808,0.096,1.019-0.256l4.504-8.33C10.496,15.726,10.421,15.347,10.166,15.114z"/>
</g>
</svg>
