<?xml version="1.0" encoding="utf-8"?>
<!-- Generator: Adobe Illustrator 16.2.1, SVG Export Plug-In . SVG Version: 6.00 Build 0)  -->
<!DOCTYPE svg PUBLIC "-//W3C//DTD SVG 1.1//EN" "http://www.w3.org/Graphics/SVG/1.1/DTD/svg11.dtd">
<?xml-stylesheet type="text/css" href="../less/svg.css" ?>
<svg version="1.1" id="pixelegg_button_createdir" xmlns="http://www.w3.org/2000/svg" xmlns:xlink="http://www.w3.org/1999/xlink"
	 x="0px" y="0px" width="28.347px" height="28.347px" viewBox="0 0 28.347 28.347" enable-background="new 0 0 28.347 28.347"
	 xml:space="preserve">
<path fill-rule="evenodd" clip-rule="evenodd" fill="#ECEDED" d="M-0.001,0v28.348h28.348V0H-0.001z M23.295,4.79
	c0.706,0,1.278,0.6,1.278,1.341L23.64,11.87h-0.684l0.687-2.7l-2.298-3.257L16.443,4.79H23.295z M22.009,11.441l-0.102,0.422H9.005
	l1.803-7.084l7.755,1.777l-0.984,3.87L22.009,11.441z M18.932,9.713l0.738-2.904l0.376,0.086l2.329,3.107l-0.119,0.472L18.932,9.713
	z M12.724,3.217c0.638,0,1.176,0.434,1.382,1.037L9.578,3.217H12.724z M5.301,3.217h4.224L7.323,11.87H4.759L3.825,4.79
	C3.825,3.921,4.485,3.217,5.301,3.217z M21.574,26.029H6.824L2.399,12.656h23.6L21.574,26.029z"/>
</svg>
