<?xml version="1.0" encoding="utf-8"?>
<!-- Generator: Adobe Illustrator 16.2.1, SVG Export Plug-In . SVG Version: 6.00 Build 0)  -->
<!DOCTYPE svg PUBLIC "-//W3C//DTD SVG 1.1//EN" "http://www.w3.org/Graphics/SVG/1.1/DTD/svg11.dtd">
<?xml-stylesheet type="text/css" href="../less/svg.css" ?>
<svg version="1.1" id="pixelegg_cancelled" xmlns="http://www.w3.org/2000/svg" xmlns:xlink="http://www.w3.org/1999/xlink" x="0px" y="0px"
	 width="28.347px" height="28.347px" viewBox="0 0 28.347 28.347" enable-background="new 0 0 28.347 28.347" xml:space="preserve">
<g>
	<path fill-rule="evenodd" clip-rule="evenodd" fill="#ECEDED" d="M0,0v28.348h28.346V0H0z M24.266,19.309l-4.749,4.564
		l-5.344-5.137l-5.345,5.137l-4.749-4.564l5.344-5.139L4.079,9.033l4.749-4.566l5.345,5.137l5.344-5.137l4.749,4.566l-5.344,5.137
		L24.266,19.309z"/>
	<polygon fill-rule="evenodd" clip-rule="evenodd" fill="#ECEDED" points="19.517,6.826 14.173,11.964 8.828,6.826 6.533,9.033 
		11.877,14.17 6.533,19.309 8.828,21.515 14.173,16.378 19.517,21.514 21.812,19.309 16.468,14.17 21.812,9.033 	"/>
</g>
</svg>
