<?xml version="1.0" encoding="utf-8"?>
<!-- Generator: Adobe Illustrator 16.2.1, SVG Export Plug-In . SVG Version: 6.00 Build 0)  -->
<!DOCTYPE svg PUBLIC "-//W3C//DTD SVG 1.1//EN" "http://www.w3.org/Graphics/SVG/1.1/DTD/svg11.dtd">
<?xml-stylesheet type="text/css" href="../less/svg.css" ?>
<svg version="1.1" id="pixelegg_cnr-pending" xmlns="http://www.w3.org/2000/svg" xmlns:xlink="http://www.w3.org/1999/xlink" x="0px"
	 y="0px" width="28.347px" height="28.347px" viewBox="0 0 28.347 28.347" enable-background="new 0 0 28.347 28.347"
	 xml:space="preserve">
<g>
	<path fill-rule="evenodd" clip-rule="evenodd" fill="#ECEDED" d="M11.416,4.288c-3.671,0-7.217,3.529-7.217,7.179
		c0,1.891,0.955,3.744,2.383,5.097c0.737-0.017,1.479,0.251,2.042,0.812l0.984,0.984c0.493,0.151,0.998,0.242,1.509,0.269
		l7.424-6.188c0.054-0.322,0.092-0.646,0.092-0.975C18.633,7.817,15.087,4.288,11.416,4.288z M5.147,11.416
		c0-0.896,1.709-0.896,1.709,0C6.856,12.311,5.147,12.311,5.147,11.416z M11.416,5.146c0.57,0,0.896,1.71,0,1.71
		C10.521,6.856,10.846,5.146,11.416,5.146z M11.416,17.685c-0.813,0-0.895-1.71,0-1.71C12.312,15.975,12.23,17.685,11.416,17.685z
		 M17.686,11.416c0,0.895-1.71,0.895-1.71,0C15.976,10.52,17.686,10.52,17.686,11.416z"/>
	<path fill-rule="evenodd" clip-rule="evenodd" fill="#ECEDED" d="M0,0v28.348h28.348V0H0z M25.09,15.109L12.902,25.266
		c-0.408,0.34-0.901,0.542-1.418,0.676c-0.313,0.104-0.635,0.166-0.962,0.156c-0.901,0.012-1.807-0.259-2.495-0.832
		c-1.115-1.129-3.361-3.932-3.361-3.932c-1.064-1.064-1.084-2.769-0.074-3.867c-1.43-1.612-2.306-3.727-2.306-6.051
		c0-5.043,4.087-9.131,9.13-9.131c4.848,0,8.803,3.782,9.101,8.556c1.354-0.897,3.321-0.838,4.573,0.206
		C26.437,12.168,26.437,13.987,25.09,15.109z"/>
</g>
</svg>
