<?xml version="1.0" encoding="utf-8"?>
<!-- Generator: Adobe Illustrator 16.2.1, SVG Export Plug-In . SVG Version: 6.00 Build 0)  -->
<!DOCTYPE svg PUBLIC "-//W3C//DTD SVG 1.1//EN" "http://www.w3.org/Graphics/SVG/1.1/DTD/svg11.dtd">
<?xml-stylesheet type="text/css" href="../less/svg.css" ?>
<svg version="1.1" id="pixelegg_datepopup" xmlns="http://www.w3.org/2000/svg" xmlns:xlink="http://www.w3.org/1999/xlink" x="0px" y="0px"
	 width="28.347px" height="28.347px" viewBox="0 0 28.347 28.347" enable-background="new 0 0 28.347 28.347" xml:space="preserve">
<g>
	<rect x="6.451" y="14.174" fill-rule="evenodd" clip-rule="evenodd" fill="#ECEDED" width="15.445" height="10.297"/>
	<path fill-rule="evenodd" clip-rule="evenodd" fill="#ECEDED" d="M0,0v28.348h28.348V0H0z M18.465,3.876
		c0-0.948,0.768-1.716,1.716-1.716c0.947,0,1.716,0.768,1.716,1.716v2.575c0,0.947-0.769,1.716-1.716,1.716
		c-0.948,0-1.716-0.769-1.716-1.716V3.876z M6.451,3.876c0-0.948,0.769-1.716,1.716-1.716c0.948,0,1.717,0.768,1.717,1.716v2.575
		c0,0.947-0.769,1.716-1.717,1.716c-0.947,0-1.716-0.769-1.716-1.716V3.876z M23.613,24.471c0,0.948-0.769,1.717-1.717,1.717H6.451
		c-0.948,0-1.717-0.769-1.717-1.717V12.457h18.879V24.471z M25.329,11.6H3.019V6.451c0-0.948,0.769-1.716,1.716-1.716v2.574
		c0,0.948,0.769,1.717,1.717,1.717h3.433c0.947,0,1.716-0.769,1.716-1.717V4.735h5.148v2.574c0,0.948,0.769,1.717,1.717,1.717h3.432
		c0.948,0,1.717-0.769,1.717-1.717V4.735c0.947,0,1.716,0.769,1.716,1.716V11.6z"/>
</g>
</svg>
