<?xml version="1.0" encoding="utf-8"?>
<!-- Generator: Adobe Illustrator 16.2.1, SVG Export Plug-In . SVG Version: 6.00 Build 0)  -->
<!DOCTYPE svg PUBLIC "-//W3C//DTD SVG 1.1//EN" "http://www.w3.org/Graphics/SVG/1.1/DTD/svg11.dtd">
<?xml-stylesheet type="text/css" href="../less/svg.css" ?>
<svg version="1.1" id="pixelegg_delete" xmlns="http://www.w3.org/2000/svg" xmlns:xlink="http://www.w3.org/1999/xlink" x="0px" y="0px"
	 width="28.347px" height="28.347px" viewBox="0 0 28.347 28.347" enable-background="new 0 0 28.347 28.347" xml:space="preserve">
<g>
	<path fill-rule="evenodd" clip-rule="evenodd" fill="#ECEDED" d="M7.327,20.623c0.13,1.139,1.271,2.032,2.598,2.032h8.645
		c1.325,0,2.502-0.894,2.631-2.032l0.571-4.229c0.158-1.389,0.512-2.941,0.512-2.941H6.421c0,0,0.178,1.553,0.336,2.941
		L7.327,20.623z M18.317,15.039h2.379l-0.793,5.086c0,0.695-0.532,1.26-1.189,1.26s-1.189-0.564-1.189-1.26L18.317,15.039z
		 M12.766,15.039h3.172v5.086c0,0.695-0.71,1.26-1.586,1.26s-1.586-0.564-1.586-1.26V15.039z M10.387,15.039l0.793,5.086
		c0,0.695-0.533,1.26-1.19,1.26c-0.656,0-1.189-0.564-1.189-1.26l-0.793-5.086H10.387z"/>
	<path fill-rule="evenodd" clip-rule="evenodd" fill="#ECEDED" d="M15.305,4.639h-1.905c-1.27,0-2.299,0.232-2.299,1.498v0.154
		h6.504V6.137C17.604,4.871,16.574,4.639,15.305,4.639z"/>
	<path fill-rule="evenodd" clip-rule="evenodd" fill="#ECEDED" d="M0,0v28.348h28.348V0H0z M24.587,15.562l-1.01,6.546
		c-0.283,1.834-2.234,3.241-4.372,3.241H9.323c-2.139,0-4.089-1.407-4.373-3.241l-1.01-6.546c-0.372-2.406-0.655-3.365-0.692-4.488
		h22.207C25.286,12.329,24.959,13.156,24.587,15.562z M3.248,9.42c0,0,0.1-3.129,3.833-3.129H8.8V5.373
		c0-2.108,1.717-3.024,3.833-3.024h3.438c2.116,0,3.833,0.916,3.833,3.024v0.918h1.719c3.733,0,3.833,3.129,3.833,3.129H3.248z"/>
</g>
</svg>
