<?xml version="1.0" encoding="utf-8"?>
<!-- Generator: Adobe Illustrator 16.2.1, SVG Export Plug-In . SVG Version: 6.00 Build 0)  -->
<!DOCTYPE svg PUBLIC "-//W3C//DTD SVG 1.1//EN" "http://www.w3.org/Graphics/SVG/1.1/DTD/svg11.dtd">
<?xml-stylesheet type="text/css" href="../less/svg.css" ?>
<svg version="1.1" id="pixelegg_dialog_help" xmlns="http://www.w3.org/2000/svg" xmlns:xlink="http://www.w3.org/1999/xlink" x="0px"
	 y="0px" width="28.347px" height="28.347px" viewBox="0 0 28.347 28.347" enable-background="new 0 0 28.347 28.347"
	 xml:space="preserve">
<g>
	<path fill="#ECEDED" d="M-0.001,0v28.348h28.348V0H-0.001z M14.172,25.596c-6.308,0-11.422-5.114-11.422-11.422
		c0-6.309,5.114-11.423,11.422-11.423c6.309,0,11.423,5.114,11.423,11.423C25.595,20.481,20.48,25.596,14.172,25.596z"/>
	<path fill="#ECEDED" d="M14.144,17.799c-1.243,0-2.236,1.031-2.236,2.32c0,1.269,0.993,2.32,2.236,2.32s2.237-1.052,2.237-2.32
		C16.381,18.83,15.387,17.799,14.144,17.799z"/>
	<path fill="#ECEDED" d="M17.643,7.924c-0.938-0.832-2.143-1.229-3.346-1.229c-2.695,0-5.219,1.646-5.239,4.659h3.806
		c0-0.853,0.458-1.507,1.338-1.507c0.803,0,1.396,0.675,1.396,1.488c0,1.308-1.377,1.962-2.466,1.962
		c-0.268,0-0.535-0.04-0.804-0.099v3.846h3.499v-1.406c1.95-0.635,3.461-2.043,3.461-4.284C19.287,10.047,18.598,8.758,17.643,7.924
		z"/>
</g>
</svg>
