<?xml version="1.0" encoding="utf-8"?>
<!-- Generator: Adobe Illustrator 16.2.1, SVG Export Plug-In . SVG Version: 6.00 Build 0)  -->
<!DOCTYPE svg PUBLIC "-//W3C//DTD SVG 1.1//EN" "http://www.w3.org/Graphics/SVG/1.1/DTD/svg11.dtd">
<?xml-stylesheet type="text/css" href="../less/svg.css" ?>
<svg version="1.1" id="pixelegg_editcopy" xmlns="http://www.w3.org/2000/svg" xmlns:xlink="http://www.w3.org/1999/xlink" x="0px" y="0px"
	 width="28.347px" height="28.347px" viewBox="0 0 28.347 28.347" enable-background="new 0 0 28.347 28.347" xml:space="preserve">
<g>
	<path fill-rule="evenodd" clip-rule="evenodd" fill="#ECEDED" d="M12.165,12.834h10.711v2.008H12.165V12.834z"/>
	<path fill-rule="evenodd" clip-rule="evenodd" fill="#ECEDED" d="M12.165,16.851h10.711v2.008H12.165V16.851z"/>
	<path fill-rule="evenodd" clip-rule="evenodd" fill="#ECEDED" d="M24.804,0H3.544C1.587,0,0.001,1.586,0.001,3.543v21.259
		c0,1.957,1.586,3.543,3.543,3.543h21.26c1.957,0,3.543-1.586,3.543-3.543V3.543C28.347,1.586,26.761,0,24.804,0z M18.19,24.883
		H3.464V6.81h5.311v9.372H5.472v2.008h3.303v2.008H5.472v2.009h3.303v0.714h9.416V24.883z M24.884,21.536H10.157V3.463h9.371v5.355
		h5.355V21.536z M24.884,7.479h-4.016V3.463h0.453l3.562,3.364V7.479z"/>
</g>
</svg>
