<?xml version="1.0" encoding="utf-8"?>
<!-- Generator: Adobe Illustrator 16.2.1, SVG Export Plug-In . SVG Version: 6.00 Build 0)  -->
<!DOCTYPE svg PUBLIC "-//W3C//DTD SVG 1.1//EN" "http://www.w3.org/Graphics/SVG/1.1/DTD/svg11.dtd">
<?xml-stylesheet type="text/css" href="../less/svg.css" ?>
<svg version="1.1" id="pixelegg_month" xmlns="http://www.w3.org/2000/svg" xmlns:xlink="http://www.w3.org/1999/xlink" x="0px" y="0px"
	 width="28.347px" height="28.347px" viewBox="0 0 28.347 28.347" enable-background="new 0 0 28.347 28.347" xml:space="preserve">
<path fill-rule="evenodd" clip-rule="evenodd" fill="#ECEDED" d="M24.803,0.001H3.543C1.586,0.001,0,1.587,0,3.544v21.259
	c0,1.957,1.586,3.543,3.543,3.543h21.26c1.957,0,3.543-1.586,3.543-3.543V3.544C28.346,1.587,26.76,0.001,24.803,0.001z
	 M13.821,5.374h0.417c2.828,0,3.583-1.449,3.646-2.546h2.408v14.695h-2.932V7.402h-3.54V5.374z M7.908,15.599
	c1.174,0,2.199-0.785,2.199-2.421c0-2.009-1.97-2.091-3.33-2.091v-2.07h0.461c0.88,0,2.492-0.082,2.492-1.987
	c0-0.539-0.251-1.883-1.864-1.883c-2.011,0-2.011,1.883-2.011,2.401H3.132c0-2.753,1.571-4.719,4.923-4.719
	c1.99,0,4.608,0.993,4.608,4.098c0,1.49-0.941,2.421-1.78,2.794v0.041c0.523,0.146,2.24,0.911,2.24,3.416
	c0,2.772-2.072,4.739-5.068,4.739c-1.403,0-5.175-0.311-5.175-4.906h2.869L5.73,13.032C5.73,13.819,5.939,15.599,7.908,15.599z
	 M25.557,21.698c0,2.085-1.69,3.775-3.775,3.775H6.679c-2.086,0-3.775-1.69-3.775-3.775v-3.02h2.266v2.264
	c0,1.253,1.016,2.266,2.266,2.266h13.591c1.251,0,2.266-1.013,2.266-2.266V7.353c0-0.985-0.633-1.815-1.511-2.126V2.823h0.001
	c2.085,0,3.775,1.69,3.775,3.775V21.698z"/>
</svg>
