<?xml version="1.0" encoding="utf-8"?>
<!-- Generator: Adobe Illustrator 16.2.1, SVG Export Plug-In . SVG Version: 6.00 Build 0)  -->
<!DOCTYPE svg PUBLIC "-//W3C//DTD SVG 1.1//EN" "http://www.w3.org/Graphics/SVG/1.1/DTD/svg11.dtd">
<?xml-stylesheet type="text/css" href="../less/svg.css" ?>
<svg version="1.1" id="pixelegg_phone" xmlns="http://www.w3.org/2000/svg" xmlns:xlink="http://www.w3.org/1999/xlink" x="0px" y="0px"
	 width="28.347px" height="28.347px" viewBox="0 0 28.347 28.347" enable-background="new 0 0 28.347 28.347" xml:space="preserve">
<g>
	<path fill-rule="evenodd" clip-rule="evenodd" fill="#ECEDED" d="M0,0v28.348h28.347V0H0z M24.289,22.143
		c0,0.816-0.646,1.479-1.445,1.479H5.502c-0.798,0-1.445-0.662-1.445-1.479v-2.219c0-0.816,0.647-1.479,1.445-1.479h1.042
		l2.237-5.176c0-0.815,1.27-1.478,1.945-1.478h6.893c0.674,0,1.944,0.662,1.944,1.478l2.236,5.176h1.043
		c0.799,0,1.445,0.662,1.445,1.479V22.143z M23.205,13.244c-1.725,0-3.132-1.44-3.24-3.259c-0.386-0.377-0.894-0.613-1.457-0.613
		h-8.67c-0.562,0-1.07,0.236-1.456,0.613c-0.109,1.818-1.516,3.259-3.24,3.259c-1.796,0-3.252-1.561-3.252-3.484
		c0-1.576,0.976-2.905,2.314-3.336c0.98-1.049,2.333-1.698,3.828-1.698h12.283c1.495,0,2.848,0.648,3.829,1.698
		c1.338,0.432,2.313,1.76,2.313,3.336C26.457,11.683,25.001,13.244,23.205,13.244z"/>
	<ellipse fill-rule="evenodd" clip-rule="evenodd" fill="#ECEDED" cx="14.173" cy="16.968" rx="4.335" ry="4.437"/>
</g>
</svg>
