<?xml version="1.0" encoding="utf-8"?>
<!-- Generator: Adobe Illustrator 16.2.1, SVG Export Plug-In . SVG Version: 6.00 Build 0)  -->
<!DOCTYPE svg PUBLIC "-//W3C//DTD SVG 1.1//EN" "http://www.w3.org/Graphics/SVG/1.1/DTD/svg11.dtd">
<?xml-stylesheet type="text/css" href="../less/svg.css" ?>
<svg version="1.1" id="pixelegg_private" xmlns="http://www.w3.org/2000/svg" xmlns:xlink="http://www.w3.org/1999/xlink" x="0px" y="0px"
	 width="28.347px" height="28.347px" viewBox="0 0 28.347 28.347" enable-background="new 0 0 28.347 28.347" xml:space="preserve">
<g>
	<path fill-rule="evenodd" clip-rule="evenodd" fill="#ECEDED" d="M14.281,4.529c-2.779,0-5.038,2.239-5.088,5.007H9.181v3.472
		h10.188v-3.48C19.313,6.763,17.058,4.529,14.281,4.529z"/>
	<path fill-rule="evenodd" clip-rule="evenodd" fill="#ECEDED" d="M16.41,17.947c0-1.221-0.989-2.209-2.209-2.209
		s-2.209,0.988-2.209,2.209c0,0.547,0.207,1.043,0.537,1.428l-0.82,3.721c0,0.654,0.443,1.184,0.991,1.184h3.006
		c0.548,0,0.991-0.529,0.991-1.184l-0.821-3.723C16.204,18.986,16.41,18.494,16.41,17.947z"/>
	<path fill-rule="evenodd" clip-rule="evenodd" fill="#ECEDED" d="M-0.001,0v28.348h28.348V0H-0.001z M23.92,24.318
		c0,1.104-0.896,2-2,2H6.426c-1.104,0-2-0.896-2-2v-9.311c0-1.104,0.896-2,2-2h0.255v-3.52h0.012
		c0.074-4.125,3.446-7.459,7.589-7.459c4.158,0,7.543,3.36,7.592,7.507h-0.005v3.472h0.052c1.104,0,2,0.896,2,2V24.318z"/>
</g>
</svg>
