<?xml version="1.0" encoding="utf-8"?>
<!-- Generator: Adobe Illustrator 16.2.1, SVG Export Plug-In . SVG Version: 6.00 Build 0)  -->
<!DOCTYPE svg PUBLIC "-//W3C//DTD SVG 1.1//EN" "http://www.w3.org/Graphics/SVG/1.1/DTD/svg11.dtd">
<?xml-stylesheet type="text/css" href="../less/svg.css" ?>
<svg version="1.1" id="pixelegg_today" xmlns="http://www.w3.org/2000/svg" xmlns:xlink="http://www.w3.org/1999/xlink" x="0px" y="0px"
	 width="28.347px" height="28.347px" viewBox="0 0 28.347 28.347" enable-background="new 0 0 28.347 28.347" xml:space="preserve">
<path fill-rule="evenodd" clip-rule="evenodd" fill="#ECEDED" d="M24.804,0.001H3.544c-1.957,0-3.543,1.586-3.543,3.543v21.259
	c0,1.957,1.586,3.543,3.543,3.543h21.26c1.957,0,3.543-1.586,3.543-3.543V3.544C28.347,1.587,26.761,0.001,24.804,0.001z
	 M4.351,5.34h0.39c2.635,0,3.336-1.415,3.396-2.485h2.244v14.341H7.647V7.32H4.351V5.34z M25.507,21.743
	c0,2.087-1.692,3.779-3.779,3.779H6.609c-2.088,0-3.78-1.692-3.78-3.779v-2.268h2.268v1.511c0,1.253,1.017,2.269,2.269,2.269h13.606
	c1.252,0,2.268-1.016,2.268-2.269V7.381c0-1.253-1.016-2.268-2.268-2.268h-6.804V2.846h7.56c2.087,0,3.779,1.692,3.779,3.78V21.743z
	"/>
</svg>
