<?xml version="1.0" encoding="utf-8"?>
<!-- Generator: Adobe Illustrator 16.2.1, SVG Export Plug-In . SVG Version: 6.00 Build 0)  -->
<!DOCTYPE svg PUBLIC "-//W3C//DTD SVG 1.1//EN" "http://www.w3.org/Graphics/SVG/1.1/DTD/svg11.dtd">
<?xml-stylesheet type="text/css" href="../../../../pixelegg/less/svg.css" ?>
<svg version="1.1" id="admin_navbar" xmlns="http://www.w3.org/2000/svg" xmlns:xlink="http://www.w3.org/1999/xlink" x="0px" y="0px"
	 width="28.347px" height="28.347px" viewBox="0 0 28.347 28.347" enable-background="new 0 0 28.347 28.347" xml:space="preserve">
<g>
	<path fill="#333333" d="M16.736,8.489h0.776c0.062,0.356,0.174,0.693,0.317,1.01l-0.632,0.484c-0.316,0.24-0.387,0.705-0.158,1.036
		c0.23,0.331,0.673,0.405,0.987,0.164l0.637-0.485c0.244,0.242,0.516,0.457,0.813,0.629l-0.242,0.779
		c-0.12,0.391,0.084,0.809,0.453,0.936c0.372,0.127,0.771-0.086,0.891-0.477l0.242-0.783c0.166,0.023,0.333,0.048,0.505,0.048
		c0.174,0,0.337-0.029,0.504-0.053l0.244,0.788c0.12,0.391,0.519,0.604,0.889,0.477c0.372-0.127,0.574-0.545,0.455-0.936
		L23.17,11.31c0.295-0.172,0.576-0.369,0.818-0.613l0.638,0.487c0.315,0.241,0.757,0.167,0.986-0.164s0.159-0.796-0.156-1.036
		l-0.641-0.489c0.145-0.317,0.263-0.649,0.325-1.005h0.777c0.39,0,0.706-0.333,0.706-0.742c0-0.41-0.316-0.743-0.706-0.743h-0.777
		c-0.063-0.356-0.175-0.693-0.319-1.009l0.635-0.484c0.315-0.241,0.386-0.705,0.156-1.037c-0.229-0.332-0.671-0.405-0.986-0.164
		L23.99,4.796c-0.246-0.244-0.517-0.458-0.814-0.629l0.242-0.78c0.119-0.39-0.083-0.809-0.455-0.936
		c-0.37-0.127-0.769,0.086-0.889,0.477l-0.243,0.783c-0.167-0.023-0.332-0.047-0.505-0.047c-0.172,0-0.337,0.029-0.503,0.052
		l-0.244-0.789c-0.12-0.39-0.519-0.604-0.891-0.477c-0.369,0.127-0.573,0.545-0.453,0.936l0.247,0.797
		c-0.296,0.173-0.575,0.37-0.817,0.613L18.027,4.31c-0.314-0.241-0.757-0.167-0.987,0.164c-0.229,0.332-0.158,0.796,0.158,1.037
		L17.837,6c-0.143,0.317-0.262,0.649-0.323,1.004h-0.777c-0.392,0-0.707,0.333-0.707,0.743C16.029,8.157,16.345,8.489,16.736,8.489z
		 M21.329,5.965c0.974,0,1.764,0.798,1.764,1.782s-0.79,1.781-1.764,1.781c-0.973,0-1.763-0.797-1.763-1.781
		S20.356,5.965,21.329,5.965z"/>
	<path fill="#333333" d="M17.813,18.829c1.258-1.122,1.532-2.998,0.895-4.785l-4.309,1.98l-1.26-1.434l2.481-4.078
		c-1.682-0.855-3.569-0.799-4.829,0.323C9.461,12.022,9.214,14.054,10,15.928l-7.684,6.904c-0.484,0.685-0.396,1.712,0.257,2.456
		c0.652,0.744,1.655,0.955,2.39,0.556l7.737-6.843C14.451,20.017,16.482,20.015,17.813,18.829z M5.249,24.548
		c-0.441,0.393-1.162,0.299-1.61-0.21c-0.446-0.509-0.451-1.241-0.01-1.636c0.441-0.393,1.162-0.299,1.61,0.21
		C5.687,23.422,5.69,24.153,5.249,24.548z"/>
	<path fill="#333333" d="M24.179,20.329c0,1.893-1.523,3.426-3.401,3.426H10.324l0.067,2.463h11.342
		c2.701,0,4.891-2.205,4.891-4.926v-8.277l-2.445,0.068V20.329z"/>
	<path fill="#333333" d="M4.619,7.479c0-1.892,1.523-3.426,3.402-3.426h8.008V1.59H7.064c-2.7,0-4.891,2.206-4.891,4.926v11.493
		h2.445V7.479z"/>
</g>
</svg>
