<?xml version="1.0" encoding="UTF-8" standalone="no"?>
<!-- Generator: Adobe Illustrator 15.0.0, SVG Export Plug-In . SVG Version: 6.00 Build 0)  -->

<svg
   version="1.1"
   width="52.235px"
   height="52.235px"
   viewBox="0 0 52.235 52.235"
   xmlns="http://www.w3.org/2000/svg"
   xmlns:svg="http://www.w3.org/2000/svg">
<path
   d="m 44.617444,7.6724584 c -10.186003,-10.212 -26.720003,-10.237 -36.9340023,-0.053 -10.2140004,10.1849996 -10.2380004,26.7229996 -0.056,36.9369996 10.1859993,10.215 26.7279993,10.236 36.9370023,0.051 10.214,-10.184 10.24,-26.718 0.053,-36.9349996 z"
   id="path1-33"
   style="fill:CurrentColor" />

<path
   d="m 38.581722,36.89831 -3.494,-6.043 a 29.754,29.754 0 0 1 -2.186,6.244 l -0.082,0.174 c -0.026,0.113 -0.045,0.202 -0.06,0.258 l 5.847,3.6 0.362,-1.37 a 3.792,3.792 0 0 0 -0.387,-2.863 z m -18.822996,0.243 a 27.416,27.416 0 0 1 -2.227,-6.215 l -3.455,5.973 a 3.78,3.78 0 0 0 -0.385,2.862 l 0.36,1.37 5.88,-3.62 a 0.428,0.428 0 0 0 -0.013,-0.052 z m 7.187,-26.413 V 9.6253095 a 0.494,0.494 0 0 0 -0.494,-0.494 h -0.261 a 0.493,0.493 0 0 0 -0.493,0.494 V 10.73131 c -8.564,7.886 -7.031,18.836 -3.728,25.4 h 8.747 c 3.310996,-6.894 4.851996,-17.58 -3.77,-25.404 z m 3,12.085 c -1.715,0.788 -5.487,0.786 -7.2,0 -0.173,-1.198 -0.23,-2.123 0.078,-3.46 2.194,0.433 4.849,0.433 7.046,0 0.306,1.337 0.25,2.262 0.077,3.46 z m -7.479,14.318 1.631,2 h 4.465 l 1.631,-2 z"
   fill="#003333"
   id="path1-496"
   style="fill:#ffffff" /></svg>
