<?xml version="1.0" encoding="UTF-8"?>
<svg version="1.1" width="32" height="32" viewBox="0 0 32 32" xmlns="http://www.w3.org/2000/svg">
 <path d="m28.252 27.767-3.494-6.043a29.754 29.754 0 0 1-2.186 6.244l-.082.174c-.026.113-.045.202-.06.258l5.847 3.6.362-1.37a3.792 3.792 0 0 0-.387-2.863zm-18.823.243a27.416 27.416 0 0 1-2.227-6.215l-3.455 5.973a3.78 3.78 0 0 0-.385 2.862l.36 1.37 5.88-3.62a.428.428 0 0 0-.013-.052zm7.187-26.413V.494A.494.494 0 0 0 16.122 0h-.261a.493.493 0 0 0-.493.494V1.6C6.804 9.486 8.337 20.436 11.64 27h8.747c3.311-6.894 4.852-17.58-3.77-25.404zm3 12.085c-1.715.788-5.487.786-7.2 0-.173-1.198-.23-2.123.078-3.46 2.194.433 4.849.433 7.046 0 .306 1.337.25 2.262.077 3.46zM12.137 28l1.631 2h4.465l1.631-2z" fill="#033"/>
</svg>
