<?xml version="1.0" encoding="UTF-8" standalone="no"?>

<svg
   version="1.1"
   width="52.235px"
   height="52.235px"
   viewBox="0 0 52.235 52.235"
   xmlns="http://www.w3.org/2000/svg"
   xmlns:svg="http://www.w3.org/2000/svg">
<path
   d="M 44.611,7.675 C 34.425,-2.537 17.891,-2.562 7.677,7.622 -2.537,17.807 -2.561,34.345 7.621,44.559 17.807,54.774 34.349,54.795 44.558,44.61 54.772,34.426 54.798,17.892 44.611,7.675 Z"
   style="fill:CurrentColor" />

<g
   transform="matrix(1.1523858,0,0,1.1523858,7.6848232,5.3407777)">
		<path
   fill="#ffffff"
   d="M 30.62,16.719 17.894,3.991 C 17.38,3.477 16.662,3.336 16.005,3.497 15.347,3.335 14.63,3.477 14.116,3.991 L 1.388,16.719 c -0.781,0.781 -0.181,1 0.601,1.781 0,0 3.069,0.088 3,0 v 11 h 8 v -9 h 6 v 9 h 8 v -11 h 3 c 0.782,-0.781 1.412,-1 0.631,-1.781 z"
   id="path1-62" />
</g></svg>
