<?xml version="1.0" encoding="utf-8"?>
<!-- Generator: Adobe Illustrator 15.0.0, SVG Export Plug-In . SVG Version: 6.00 Build 0)  -->
<!DOCTYPE svg PUBLIC "-//W3C//DTD SVG 1.1//EN" "http://www.w3.org/Graphics/SVG/1.1/DTD/svg11.dtd">
<?xml-stylesheet type="text/css" href="../less/svg.css" ?>
<svg version="1.1" id="pixelegg_tag_message" xmlns="http://www.w3.org/2000/svg" xmlns:xlink="http://www.w3.org/1999/xlink" x="0px" y="0px"
	 width="32px" height="32px" viewBox="0 0 32 32" enable-background="new 0 0 32 32" xml:space="preserve">
<g>
	<g>
		<path fill="#696969" d="M30.682,3.215c0-1.224-0.992-2.216-2.216-2.216h-8.862
			c-0.708,0-1.331,0.338-1.737,0.854l-2.072,2.072L1.562,18.157c-0.828,0.827-0.828,2.17,0,2.997l8.989,8.989
			c0.828,0.826,2.169,0.826,2.996,0L27.779,15.91l2.247-2.247l-0.007-0.007c0.408-0.402,0.662-0.96,0.662-1.578V3.215z
			 M25.533,10.667c-1.242,1.241-3.254,1.241-4.495,0c-1.241-1.241-1.241-3.253,0-4.495c1.241-1.241,3.253-1.241,4.495,0
			C26.772,7.414,26.772,9.426,25.533,10.667z"/>
	</g>
</g>
</svg>
