<?xml version="1.0" encoding="utf-8"?>
<!-- Generator: Adobe Illustrator 15.0.0, SVG Export Plug-In . SVG Version: 6.00 Build 0)  -->
<!DOCTYPE svg PUBLIC "-//W3C//DTD SVG 1.1//EN" "http://www.w3.org/Graphics/SVG/1.1/DTD/svg11.dtd">
<?xml-stylesheet type="text/css" href="../less/svg.css" ?>
<svg version="1.1" id="pixelegg_logout" xmlns="http://www.w3.org/2000/svg" xmlns:xlink="http://www.w3.org/1999/xlink" x="0px" y="0px"
	 width="32px" height="32px" viewBox="0 0 32 32" enable-background="new 0 0 32 32" xml:space="preserve">
<g>
	<g>
		<path fill="#696969" d="M24.266,5.218L22.09,9.881c1.787,1.646,2.914,3.998,2.914,6.619
			c0,4.973-4.031,9.004-9.004,9.004c-4.972,0-9.003-4.031-9.003-9.004c0-2.621,1.127-4.974,2.915-6.619L7.735,5.218
			C4.264,7.766,2,11.863,2,16.5c0,7.732,6.268,14,14,14c7.732,0,14-6.268,14-14C30,11.863,27.736,7.766,24.266,5.218z M15,17.5h2
			c1.105,0,2-0.896,2-2v-12c0-1.104-0.895-2-2-2h-2c-1.104,0-2,0.896-2,2v12C13,16.604,13.896,17.5,15,17.5z"/>
	</g>
</g>
</svg>
