<?xml version="1.0" encoding="UTF-8"?>
<svg version="1.1" width="32" height="32" viewBox="0 0 32 32" xmlns="http://www.w3.org/2000/svg">
 <path d="m31.619 27.307-5.255-4.904c-.04-.037-.087-.054-.13-.083l-2.122-1.979a13.008 13.008 0 0 0 2.179-7.662C26.051 5.44 19.972-.232 12.716.007 5.457.247-.232 6.307.008 13.546c.24 7.237 6.318 12.91 13.577 12.67a13.07 13.07 0 0 0 6.176-1.783l2.504 2.338h.002l5.256 4.908a1.211 1.211 0 0 0 1.697-.056l2.458-2.624a1.196 1.196 0 0 0-.059-1.692zm-18.212-4.07C7.801 23.421 3.106 19.04 2.92 13.45 2.736 7.86 7.13 3.178 12.737 2.994c5.605-.185 10.302 4.196 10.487 9.787.184 5.59-4.21 10.27-9.817 10.455z" fill="#62686a"/><path fill="none" d="M14.958 29.125V54.75"/>
</svg>
