<?xml version="1.0" encoding="utf-8"?>
<!-- Generator: Adobe Illustrator 16.0.0, SVG Export Plug-In . SVG Version: 6.00 Build 0)  -->
<!DOCTYPE svg PUBLIC "-//W3C//DTD SVG 1.1//EN" "http://www.w3.org/Graphics/SVG/1.1/DTD/svg11.dtd">
<?xml-stylesheet type="text/css" href="../../../../pixelegg/less/svg.css" ?>
<?xml-stylesheet type="text/css" href="../../../../pixelegg/less/svg.css" ?>
<svg version="1.1" id="infolog_email" xmlns="http://www.w3.org/2000/svg" xmlns:xlink="http://www.w3.org/1999/xlink" x="0px" y="0px"
	 width="28.347px" height="28.347px" viewBox="0 0 28.347 28.347" enable-background="new 0 0 28.347 28.347" xml:space="preserve">
<path fill-rule="evenodd" clip-rule="evenodd" fill="#ECEDED" d="M24.803,0.001H3.543C1.586,0.001,0,1.587,0,3.544v21.259
	c0,1.957,1.586,3.543,3.543,3.543h21.26c1.956,0,3.543-1.586,3.543-3.543V3.544C28.346,1.587,26.759,0.001,24.803,0.001z
	 M25.982,20.866c0,0,0,0,0,0.002c0,0.869-0.705,1.574-1.574,1.574c-0.008,0-0.016-0.002-0.023-0.002l-0.002,0.002H3.938
	c0,0,0,0-0.002,0H3.935H3.912L3.909,22.44c-0.856-0.016-1.548-0.713-1.548-1.572c0-0.01,0.002-0.016,0.002-0.023l-0.002-0.002
	V10.452l11.811,8.984l11.811-8.984V20.866z M25.982,6.585l-11.811,8.984L2.361,6.585v-0.68h23.621V6.585z"/>
</svg>
