<?xml version="1.0" encoding="utf-8"?>
<!-- Generator: Adobe Illustrator 16.2.1, SVG Export Plug-In . SVG Version: 6.00 Build 0)  -->
<!DOCTYPE svg PUBLIC "-//W3C//DTD SVG 1.1//EN" "http://www.w3.org/Graphics/SVG/1.1/DTD/svg11.dtd">
<svg version="1.1" id="Ebene_1" xmlns="http://www.w3.org/2000/svg" xmlns:xlink="http://www.w3.org/1999/xlink" x="0px" y="0px"
	 width="28.347px" height="28.347px" viewBox="0 0 28.347 28.347" enable-background="new 0 0 28.347 28.347" xml:space="preserve">
<g>
	<path fill-rule="evenodd" clip-rule="evenodd" fill="#ECEDED" d="M24.805,0.001H3.543C1.586,0.001,0,1.587,0,3.544v21.26
		c0,1.957,1.586,3.543,3.543,3.543h21.262c1.957,0,3.543-1.586,3.543-3.543V3.544C28.348,1.587,26.762,0.001,24.805,0.001z
		 M8.282,4.489c0-0.465,0.377-0.842,0.842-0.842h0.894C9.983,3.512,9.967,3.37,9.967,3.226c0-1.162,1.13-2.104,2.525-2.104
		s2.526,0.942,2.526,2.104c0,0.145-0.019,0.286-0.051,0.422h0.894c0.465,0,0.842,0.377,0.842,0.842v1.685
		c0,0.465-0.377,0.842-0.842,0.842H9.124c-0.465,0-0.842-0.377-0.842-0.842V4.489z M22.598,25.542c0,0.931-0.754,1.685-1.684,1.685
		H4.071c-0.93,0-1.684-0.754-1.684-1.685V6.174c0-0.931,0.754-1.685,1.684-1.685h2.526v2.105c0,0.697,0.314,1.264,0.701,1.264
		h10.387c0.388,0,0.702-0.566,0.702-1.264V4.489h2.526c0.465,0,0.886,0.188,1.19,0.493L9.967,17.121L8.282,24.7
		c0,0-0.151,0.564,0,0.842c0.147,0.272,0.842,0,0.842,0l7.579-1.685l5.895-5.895V25.542z M11.636,18.192l3.909,3.889l-5.472,1.555
		L11.636,18.192z M16.932,20.696l-3.909-3.888l6.915-6.87l3.908,3.889L16.932,20.696z M25.612,12.067l-1.172,1.166l-3.907-3.888
		l1.171-1.166c0.433-0.43,1.109-0.452,1.515-0.049l2.443,2.43C26.066,10.964,26.044,11.638,25.612,12.067z"/>
	<rect x="11.65" y="2.805" fill-rule="evenodd" clip-rule="evenodd" fill="#ECEDED" width="1.685" height="1.685"/>
</g>
</svg>
