<?xml version="1.0" encoding="utf-8"?>
<!-- Generator: Adobe Illustrator 16.2.1, SVG Export Plug-In . SVG Version: 6.00 Build 0)  -->
<!DOCTYPE svg PUBLIC "-//W3C//DTD SVG 1.1//EN" "http://www.w3.org/Graphics/SVG/1.1/DTD/svg11.dtd">
<?xml-stylesheet type="text/css" href="../../../../pixelegg/less/svg.css" ?>
<svg version="1.1" id="infolog_navbar" xmlns="http://www.w3.org/2000/svg" xmlns:xlink="http://www.w3.org/1999/xlink" x="0px" y="0px"
	 width="28.347px" height="28.347px" viewBox="0 0 28.347 28.347" enable-background="new 0 0 28.347 28.347" xml:space="preserve">
<g>
	<path fill-rule="evenodd" clip-rule="evenodd" fill="#ECEDED" d="M0,0v28.348h28.348V0H0z M8.282,4.486
		c0-0.465,0.377-0.842,0.842-0.842h0.894C9.983,3.508,9.967,3.367,9.967,3.222c0-1.162,1.13-2.104,2.525-2.104
		s2.526,0.942,2.526,2.104c0,0.145-0.019,0.286-0.051,0.422h0.894c0.465,0,0.842,0.377,0.842,0.842V6.17
		c0,0.465-0.377,0.842-0.842,0.842H9.124c-0.465,0-0.842-0.377-0.842-0.842V4.486z M22.598,25.539c0,0.93-0.754,1.684-1.684,1.684
		H4.071c-0.93,0-1.684-0.754-1.684-1.684V6.17c0-0.931,0.754-1.685,1.684-1.685h2.526v2.105c0,0.697,0.314,1.264,0.701,1.264h10.387
		c0.388,0,0.702-0.566,0.702-1.264V4.486h2.526c0.465,0,0.886,0.188,1.19,0.493L9.967,17.117l-1.685,7.58c0,0-0.151,0.564,0,0.842
		c0.147,0.271,0.842,0,0.842,0l7.579-1.686l5.895-5.895V25.539z M11.636,18.189l3.909,3.889l-5.472,1.555L11.636,18.189z
		 M16.932,20.693l-3.909-3.889l6.915-6.87l3.908,3.889L16.932,20.693z M25.612,12.064L24.44,13.23l-3.907-3.888l1.171-1.166
		c0.433-0.43,1.109-0.452,1.515-0.049l2.443,2.43C26.066,10.96,26.044,11.634,25.612,12.064z"/>
	<rect x="11.65" y="2.801" fill-rule="evenodd" clip-rule="evenodd" fill="#ECEDED" width="1.685" height="1.685"/>
</g>
</svg>
