<!DOCTYPE svg PUBLIC "-//W3C//DTD SVG 1.1//EN" "http://www.w3.org/Graphics/SVG/1.1/DTD/svg11.dtd">
<?xml-stylesheet type="text/css" href="../../../../pixelegg/less/svg.css" ?>
<svg version="1.1" id="infolog_navbar" xmlns="http://www.w3.org/2000/svg" xmlns:xlink="http://www.w3.org/1999/xlink" x="0px"
	 y="0px" width="28.347px" height="28.347px" viewBox="0 0 28.347 28.347" enable-background="new 0 0 28.347 28.347"
	 xml:space="preserve">
<g>
	<path fill-rule="evenodd" clip-rule="evenodd" fill="#660033" d="M9.411,25.186c0,0-0.694,0.272-0.842,0
		c-0.151-0.277,0-0.842,0-0.842l1.685-7.579L22.392,4.626c-0.305-0.305-0.726-0.493-1.19-0.493h-2.526v2.105
		c0,0.697-0.314,1.264-0.702,1.264H7.586c-0.387,0-0.701-0.566-0.701-1.264V4.133H4.358c-0.93,0-1.684,0.754-1.684,1.685v19.368
		c0,0.931,0.754,1.685,1.684,1.685h16.843c0.93,0,1.684-0.754,1.684-1.685v-7.579l-5.895,5.895L9.411,25.186z"/>
	<polygon fill-rule="evenodd" clip-rule="evenodd" fill="#660033" points="11.923,17.836 10.36,23.279 15.832,21.725 	"/>
	<polygon fill-rule="evenodd" clip-rule="evenodd" fill="#660033" points="13.31,16.452 17.219,20.34 24.133,13.471 20.225,9.582
		"/>
	<path fill-rule="evenodd" clip-rule="evenodd" fill="#660033" d="M25.949,10.204l-2.443-2.43c-0.405-0.403-1.082-0.381-1.515,0.049
		L20.82,8.989l3.907,3.888l1.172-1.166C26.331,11.281,26.354,10.607,25.949,10.204z"/>
	<path fill-rule="evenodd" clip-rule="evenodd" fill="#660033" d="M9.411,6.659h6.737c0.465,0,0.842-0.377,0.842-0.842V4.133
		c0-0.465-0.377-0.842-0.842-0.842h-0.894c0.032-0.136,0.051-0.277,0.051-0.422c0-1.162-1.131-2.104-2.526-2.104
		s-2.525,0.942-2.525,2.104c0,0.145,0.017,0.286,0.051,0.422H9.411c-0.465,0-0.842,0.377-0.842,0.842v1.685
		C8.569,6.282,8.946,6.659,9.411,6.659z M11.938,2.448h1.685v1.685h-1.685V2.448z"/>
</g>
</svg>
