<?xml version="1.0" encoding="utf-8"?>
<!-- Generator: Adobe Illustrator 16.0.0, SVG Export Plug-In . SVG Version: 6.00 Build 0)  -->
<!DOCTYPE svg PUBLIC "-//W3C//DTD SVG 1.1//EN" "http://www.w3.org/Graphics/SVG/1.1/DTD/svg11.dtd">
<?xml-stylesheet type="text/css" href="../../../../pixelegg/less/svg.css" ?>
<?xml-stylesheet type="text/css" href="../../../../pixelegg/less/svg.css" ?>
<svg version="1.1" id="infolog_phone" xmlns="http://www.w3.org/2000/svg" xmlns:xlink="http://www.w3.org/1999/xlink" x="0px" y="0px"
	 width="28.347px" height="28.347px" viewBox="0 0 28.347 28.347" enable-background="new 0 0 28.347 28.347" xml:space="preserve">
<g>
	<path fill-rule="evenodd" clip-rule="evenodd" fill="#ECEDED" d="M24.437,0H3.91C1.75,0,0,1.75,0,3.91v20.527
		c0,2.16,1.75,3.91,3.91,3.91h20.527c2.159,0,3.91-1.75,3.91-3.91V3.91C28.347,1.75,26.596,0,24.437,0z M24.289,22.143
		c0,0.816-0.646,1.479-1.445,1.479H5.502c-0.798,0-1.445-0.663-1.445-1.479v-2.218c0-0.816,0.647-1.479,1.445-1.479h1.042
		l2.237-5.177c0-0.815,1.27-1.478,1.945-1.478h6.893c0.674,0,1.944,0.662,1.944,1.478l2.237,5.177h1.043
		c0.798,0,1.445,0.663,1.445,1.479V22.143z M23.205,13.243c-1.725,0-3.131-1.44-3.24-3.259c-0.385-0.377-0.893-0.612-1.456-0.612
		h-8.67c-0.562,0-1.07,0.235-1.456,0.612c-0.109,1.819-1.516,3.259-3.24,3.259c-1.796,0-3.252-1.561-3.252-3.484
		c0-1.576,0.976-2.905,2.314-3.336c0.98-1.049,2.333-1.698,3.828-1.698h12.284c1.495,0,2.848,0.648,3.829,1.698
		c1.338,0.432,2.313,1.76,2.313,3.336C26.457,11.683,25.001,13.243,23.205,13.243z"/>
	<path fill-rule="evenodd" clip-rule="evenodd" fill="#ECEDED" d="M14.173,12.53c2.394,0,4.335,1.986,4.335,4.436
		c0,2.451-1.941,4.438-4.335,4.438c-2.395,0-4.335-1.987-4.335-4.438C9.838,14.517,11.779,12.53,14.173,12.53z"/>
</g>
</svg>
