<?xml version="1.0" encoding="utf-8"?>
<!-- Generator: Adobe Illustrator 16.0.0, SVG Export Plug-In . SVG Version: 6.00 Build 0)  -->
<!DOCTYPE svg PUBLIC "-//W3C//DTD SVG 1.1//EN" "http://www.w3.org/Graphics/SVG/1.1/DTD/svg11.dtd">
<?xml-stylesheet type="text/css" href="../../../../pixelegg/less/svg.css" ?>
<?xml-stylesheet type="text/css" href="../../../../pixelegg/less/svg.css" ?>
<?xml-stylesheet type="text/css" href="../../../../pixelegg/less/svg.css" ?>
<svg version="1.1" id="infolog_task" xmlns="http://www.w3.org/2000/svg" xmlns:xlink="http://www.w3.org/1999/xlink" x="0px" y="0px"
	 width="28.347px" height="28.347px" viewBox="0 0 28.347 28.347" enable-background="new 0 0 28.347 28.347" xml:space="preserve">
<path fill-rule="evenodd" clip-rule="evenodd" fill="#ECEDED" d="M24.437,0H3.91C1.75,0,0,1.75,0,3.91v20.528
	c0,2.158,1.75,3.908,3.91,3.908h20.527c2.159,0,3.91-1.75,3.91-3.908V3.91C28.347,1.75,26.596,0,24.437,0z M23.625,11.887
	l-10.872,9.06c-0.364,0.303-0.804,0.482-1.265,0.602c-0.28,0.094-0.566,0.148-0.857,0.141c-0.805,0.01-1.612-0.23-2.226-0.742
	c-0.996-1.006-2.999-3.506-2.999-3.506c-0.975-0.975-0.975-2.556,0-3.532c0.975-0.975,2.556-0.975,3.531,0l1.62,1.62l8.719-7.266
	c1.201-1.001,3.147-1.001,4.349,0C24.825,9.264,24.825,10.886,23.625,11.887z"/>
</svg>
