<?xml version="1.0" encoding="utf-8"?>
<!-- Generator: Adobe Illustrator 16.2.1, SVG Export Plug-In . SVG Version: 6.00 Build 0)  -->
<!DOCTYPE svg PUBLIC "-//W3C//DTD SVG 1.1//EN" "http://www.w3.org/Graphics/SVG/1.1/DTD/svg11.dtd">
<svg version="1.1" id="Ebene_1" xmlns="http://www.w3.org/2000/svg" xmlns:xlink="http://www.w3.org/1999/xlink" x="0px" y="0px"
	 width="28.347px" height="28.347px" viewBox="0 0 28.347 28.347" enable-background="new 0 0 28.347 28.347" xml:space="preserve">
<g>
	<path fill-rule="evenodd" clip-rule="evenodd" fill="#ECEDED" d="M0,0v28.347h28.348V0H0z M25.393,20.904
		c0,1.238-1.005,2.243-2.244,2.243H5.199c-1.24,0-2.244-1.005-2.244-2.243V7.441c0-1.239,1.004-2.244,2.244-2.244h17.949
		c1.239,0,2.244,1.005,2.244,2.244V20.904z"/>
	<path fill-rule="evenodd" clip-rule="evenodd" fill="#ECEDED" d="M17.913,16.416h5.235c0.414,0,0.748,0.335,0.748,0.748
		s-0.334,0.748-0.748,0.748h-5.235c-0.413,0-0.748-0.335-0.748-0.748S17.5,16.416,17.913,16.416z"/>
	<path fill-rule="evenodd" clip-rule="evenodd" fill="#ECEDED" d="M17.913,8.938h5.235c0.414,0,0.748,0.335,0.748,0.748
		c0,0.412-0.334,0.748-0.748,0.748h-5.235c-0.413,0-0.748-0.336-0.748-0.748C17.165,9.272,17.5,8.938,17.913,8.938z"/>
	<path fill-rule="evenodd" clip-rule="evenodd" fill="#ECEDED" d="M14.174,7.441H5.199c-0.414,0-0.748,0.335-0.748,0.748v11.967
		c0,0.412,0.334,0.748,0.748,0.748h8.975c0.413,0,0.748-0.336,0.748-0.748V8.189C14.922,7.776,14.587,7.441,14.174,7.441z
		 M6.744,11.642c0.039-0.564,0.171-1.16,0.437-1.456c0.583-0.646,1.047-1.268,2.506-1.248c2.046,0.027,2.114,0.938,2.486,1.248
		c0.467,0.39,0.437,1.456,0.437,1.456s0,0.012,0,0.485l0.437,0.485l-0.437,1.457H12.21c-0.379,0.764-1.751,1.456-2.533,1.456
		s-2.154-0.692-2.532-1.456h-0.4l-0.437-1.457l0.437-0.485C6.744,12.041,6.734,11.732,6.744,11.642z M13.298,19.415l-7.241-0.007
		c0,0-0.212-1.666,0.437-2.427c0.453-0.532,0.999-0.709,0.999-0.709s0.854,0.892,2.194,0.892c1.481,0,2.175-0.892,2.175-0.892
		s0.453,0.13,0.999,0.709C13.547,17.708,13.298,19.415,13.298,19.415z"/>
	<path fill-rule="evenodd" clip-rule="evenodd" fill="#ECEDED" d="M17.913,12.677h5.235c0.414,0,0.748,0.335,0.748,0.748
		s-0.334,0.748-0.748,0.748h-5.235c-0.413,0-0.748-0.335-0.748-0.748S17.5,12.677,17.913,12.677z"/>
</g>
</svg>
