<?xml version="1.0" encoding="utf-8"?>
<!-- Generator: Adobe Illustrator 16.2.1, SVG Export Plug-In . SVG Version: 6.00 Build 0)  -->
<!DOCTYPE svg PUBLIC "-//W3C//DTD SVG 1.1//EN" "http://www.w3.org/Graphics/SVG/1.1/DTD/svg11.dtd">
<svg version="1.1" id="facebook" xmlns="http://www.w3.org/2000/svg" xmlns:xlink="http://www.w3.org/1999/xlink" x="0px" y="0px"
	 width="28.35px" height="28.35px" viewBox="0 0 28.35 28.35" enable-background="new 0 0 28.35 28.35" xml:space="preserve">
<g>
	<defs>
		<rect id="SVGID_1_" x="0.003" y="0.003" width="28.344" height="28.344"/>
	</defs>
	<clipPath id="SVGID_2_">
		<use xlink:href="#SVGID_1_"  overflow="visible"/>
	</clipPath>
	<path clip-path="url(#SVGID_2_)" fill="#35528F" d="M26.782,28.347c0.863,0,1.564-0.7,1.564-1.564V1.567
		c0-0.863-0.701-1.563-1.564-1.563H1.567c-0.864,0-1.564,0.7-1.564,1.563v25.216c0,0.864,0.7,1.564,1.564,1.564H26.782z"/>
	<path clip-path="url(#SVGID_2_)" fill="#FFFFFF" d="M19.56,28.347V17.371h3.684l0.553-4.278H19.56v-2.731
		c0-1.238,0.344-2.083,2.119-2.083l2.266-0.001V4.452c-0.393-0.053-1.736-0.169-3.301-0.169c-3.266,0-5.502,1.993-5.502,5.654v3.155
		h-3.693v4.278h3.693v10.976H19.56z"/>
</g>
</svg>
