<?xml version="1.0" encoding="utf-8"?>
<!-- Generator: Adobe Illustrator 16.2.1, SVG Export Plug-In . SVG Version: 6.00 Build 0)  -->
<!DOCTYPE svg PUBLIC "-//W3C//DTD SVG 1.1//EN" "http://www.w3.org/Graphics/SVG/1.1/DTD/svg11.dtd">
<svg version="1.1" id="Ebene_1" xmlns="http://www.w3.org/2000/svg" xmlns:xlink="http://www.w3.org/1999/xlink" x="0px" y="0px"
	 width="28.347px" height="28.347px" viewBox="0 0 28.347 28.347" enable-background="new 0 0 28.347 28.347" xml:space="preserve">
<g>
	<polygon fill-rule="evenodd" clip-rule="evenodd" fill="#ECEDED" points="18.37,7.892 12.636,9.12 12.983,10.772 18.719,9.543 	"/>
	<polygon fill-rule="evenodd" clip-rule="evenodd" fill="#ECEDED" points="5.996,17.556 6.343,19.2 12.014,17.985 11.667,16.341 	
		"/>
	<polygon fill-rule="evenodd" clip-rule="evenodd" fill="#ECEDED" points="10.975,13.056 5.304,14.271 5.65,15.917 11.321,14.701 	
		"/>
	<polygon fill-rule="evenodd" clip-rule="evenodd" fill="#ECEDED" points="10.282,9.772 4.611,10.986 4.958,12.633 10.629,11.417 	
		"/>
	<polygon fill-rule="evenodd" clip-rule="evenodd" fill="#ECEDED" points="19.065,11.195 13.331,12.424 13.681,14.075 
		19.415,12.847 	"/>
	<path fill-rule="evenodd" clip-rule="evenodd" fill="#ECEDED" d="M24.804,0H3.542C1.585,0-0.001,1.586-0.001,3.544v21.26
		c0,1.957,1.586,3.543,3.543,3.543h21.262c1.957,0,3.543-1.586,3.543-3.543V3.544C28.347,1.586,26.761,0,24.804,0z M1.797,7.263
		C1.686,6.736,2.015,6.219,2.533,6.109L18.31,2.728c0.518-0.111,1.027,0.226,1.139,0.752l0.206,0.982L2.004,8.245L1.797,7.263z
		 M4.707,20.259L2.452,9.565l17.421-3.732l1.505,7.135c0,0,0.476,2.259,0.762,3.611c0.046,0.344,0.012,1.015-0.83,1.184
		c-1.715,0.318-4.946,0.918-4.946,0.918L5.831,21.006C5.321,21.116,4.816,20.781,4.707,20.259z M26.568,20.965c0,0,0,2.31,0,3.692
		c-0.026,0.346-0.2,0.994-1.078,0.982c-1.776-0.048-5.128-0.139-5.128-0.139L9.363,25.569c-0.533,0-0.965-0.434-0.965-0.967v-2.502
		c0.04-0.006,0.081-0.005,0.121-0.014l14.746-3.16c0.905-0.193,1.482-1.09,1.29-2.002l-0.686-3.254h2.698V20.965z M26.568,12.284
		h-2.99l-0.417-1.979h2.441c0.533,0,0.966,0.436,0.966,0.975V12.284z"/>
	<polygon fill-rule="evenodd" clip-rule="evenodd" fill="#ECEDED" points="19.763,14.499 14.028,15.728 14.377,17.38 20.112,16.15 	
		"/>
</g>
</svg>
