<?xml version="1.0" encoding="utf-8"?>
<!-- Generator: Adobe Illustrator 16.2.1, SVG Export Plug-In . SVG Version: 6.00 Build 0)  -->
<!DOCTYPE svg PUBLIC "-//W3C//DTD SVG 1.1//EN" "http://www.w3.org/Graphics/SVG/1.1/DTD/svg11.dtd">
<?xml-stylesheet type="text/css" href="../../../../pixelegg/less/svg.css" ?>
<?xml-stylesheet type="text/css" href="../../../../pixelegg/less/svg.css" ?>
<?xml-stylesheet type="text/css" href="../../../../pixelegg/less/svg.css" ?>
<svg version="1.1" id="etemplate_navbar" xmlns="http://www.w3.org/2000/svg" xmlns:xlink="http://www.w3.org/1999/xlink" x="0px" y="0px"
	 width="28.347px" height="28.347px" viewBox="0 0 28.347 28.347" enable-background="new 0 0 28.347 28.347" xml:space="preserve">
<g>
	<polygon fill-rule="evenodd" clip-rule="evenodd" fill="#ECEDED" points="18.37,7.888 12.636,9.116 12.983,10.769 18.719,9.539 	
		"/>
	<polygon fill-rule="evenodd" clip-rule="evenodd" fill="#ECEDED" points="5.996,17.552 6.343,19.196 12.014,17.981 11.667,16.337 	
		"/>
	<polygon fill-rule="evenodd" clip-rule="evenodd" fill="#ECEDED" points="10.975,13.052 5.304,14.267 5.65,15.913 11.321,14.697 	
		"/>
	<polygon fill-rule="evenodd" clip-rule="evenodd" fill="#ECEDED" points="10.282,9.769 4.611,10.982 4.958,12.629 10.629,11.413 	
		"/>
	<polygon fill-rule="evenodd" clip-rule="evenodd" fill="#ECEDED" points="19.065,11.191 13.331,12.42 13.681,14.071 19.415,12.843 
			"/>
	<path fill-rule="evenodd" clip-rule="evenodd" fill="#ECEDED" d="M-0.001-0.001v28.348h28.348V-0.001H-0.001z M1.797,7.259
		C1.686,6.732,2.015,6.215,2.533,6.105L18.31,2.724c0.518-0.111,1.027,0.226,1.139,0.752l0.206,0.982L2.004,8.241L1.797,7.259z
		 M4.707,20.255L2.452,9.562l17.421-3.732l1.505,7.135c0,0,0.476,2.259,0.762,3.611c0.046,0.344,0.012,1.015-0.83,1.184
		c-1.715,0.318-4.946,0.918-4.946,0.918L5.831,21.002C5.321,21.112,4.816,20.777,4.707,20.255z M26.568,20.961c0,0,0,2.31,0,3.692
		c-0.026,0.346-0.2,0.994-1.078,0.982c-1.776-0.048-5.128-0.139-5.128-0.139L9.363,25.565c-0.533,0-0.965-0.434-0.965-0.967v-2.502
		c0.04-0.006,0.081-0.005,0.121-0.014l14.746-3.16c0.905-0.193,1.482-1.09,1.29-2.002l-0.686-3.254h2.698V20.961z M26.568,12.28
		h-2.99l-0.417-1.979h2.441c0.533,0,0.966,0.436,0.966,0.975V12.28z"/>
	<polygon fill-rule="evenodd" clip-rule="evenodd" fill="#ECEDED" points="19.763,14.495 14.028,15.724 14.377,17.376 
		20.112,16.146 	"/>
</g>
</svg>
