<?xml version="1.0" encoding="utf-8"?>
<!-- Generator: Adobe Illustrator 16.2.1, SVG Export Plug-In . SVG Version: 6.00 Build 0)  -->
<!DOCTYPE svg PUBLIC "-//W3C//DTD SVG 1.1//EN" "http://www.w3.org/Graphics/SVG/1.1/DTD/svg11.dtd">
<?xml-stylesheet type="text/css" href="../../../../pixelegg/less/svg.css" ?>
<svg version="1.1" id="etemplate_navbar" xmlns="http://www.w3.org/2000/svg" xmlns:xlink="http://www.w3.org/1999/xlink" x="0px" y="0px"
	 width="28.347px" height="28.347px" viewBox="0 0 28.347 28.347" enable-background="new 0 0 28.347 28.347" xml:space="preserve">
<g>
	<path fill-rule="evenodd" clip-rule="evenodd" fill="#ECEDED" d="M19.592,3.21c-0.111-0.525-0.621-0.862-1.139-0.752L2.677,5.839
		C2.159,5.949,1.83,6.466,1.941,6.993l0.207,0.981l17.65-3.782L19.592,3.21z"/>
	<path fill-rule="evenodd" clip-rule="evenodd" fill="#ECEDED" d="M24.7,16.654c0.192,0.912-0.385,1.809-1.29,2.002L8.664,21.817
		c-0.04,0.009-0.081,0.007-0.121,0.014v2.501c0,0.534,0.432,0.968,0.965,0.968l10.999-0.069c0,0,3.352,0.092,5.128,0.139
		c0.878,0.013,1.052-0.636,1.078-0.982c0-1.383,0-3.691,0-3.691v-7.294h-2.698L24.7,16.654z"/>
	<path fill-rule="evenodd" clip-rule="evenodd" fill="#ECEDED" d="M25.747,10.036h-2.441l0.417,1.979h2.99V11.01
		C26.712,10.472,26.28,10.036,25.747,10.036z"/>
	<path fill-rule="evenodd" clip-rule="evenodd" fill="#ECEDED" d="M21.454,17.492c0.842-0.168,0.876-0.839,0.83-1.184
		c-0.286-1.352-0.762-3.611-0.762-3.611l-1.505-7.134L2.596,9.296l2.255,10.692c0.109,0.523,0.614,0.857,1.124,0.748l10.532-2.326
		C16.507,18.41,19.739,17.811,21.454,17.492z M4.755,10.717l5.671-1.215l0.347,1.645l-5.671,1.217L4.755,10.717z M5.794,15.646
		l-0.347-1.646l5.671-1.215l0.347,1.646L5.794,15.646z M6.487,18.931L6.14,17.286l5.671-1.216l0.347,1.646L6.487,18.931z
		 M12.78,8.85l5.734-1.228l0.349,1.651l-5.735,1.229L12.78,8.85z M13.475,12.154l5.734-1.229l0.35,1.65l-5.734,1.229L13.475,12.154z
		 M14.172,15.457l5.734-1.229l0.35,1.652l-5.735,1.229L14.172,15.457z"/>
</g>
</svg>
