<?xml version="1.0" encoding="utf-8"?>
<!-- Generator: Adobe Illustrator 16.2.1, SVG Export Plug-In . SVG Version: 6.00 Build 0)  -->
<!DOCTYPE svg PUBLIC "-//W3C//DTD SVG 1.1//EN" "http://www.w3.org/Graphics/SVG/1.1/DTD/svg11.dtd">
<?xml-stylesheet type="text/css" href="../../../../pixelegg/less/svg.css" ?>
<svg version="1.1" id="resources_navbar" xmlns="http://www.w3.org/2000/svg" xmlns:xlink="http://www.w3.org/1999/xlink" x="0px" y="0px"
	 width="28.347px" height="28.347px" viewBox="0 0 28.347 28.347" enable-background="new 0 0 28.347 28.347" xml:space="preserve">
<g>
	<path fill-rule="evenodd" clip-rule="evenodd" fill="#ECEDED" d="M11.379,9.574c-0.243,1.062-0.198,1.799-0.061,2.752
		c1.361,0.626,4.362,0.627,5.728,0c0.137-0.953,0.183-1.689-0.061-2.752C15.237,9.917,13.125,9.917,11.379,9.574z"/>
	<path fill-rule="evenodd" clip-rule="evenodd" fill="#ECEDED" d="M-0.001,0v28.348h28.348V0H-0.001z M4.401,26.898l-0.287-1.09
		c-0.203-0.77-0.094-1.588,0.307-2.277l2.748-4.752c0.406,1.785,1.025,3.461,1.772,4.945l0.127,0.252
		c0.006,0.02,0.009,0.035,0.01,0.041L4.401,26.898z M15.923,25.773h-3.529l-1.207-1.742h5.942L15.923,25.773z M10.7,22.848
		C8.072,17.625,6.854,8.989,13.667,2.714v-0.88c0-0.217,0.175-0.393,0.392-0.393h0.208c0.217,0,0.393,0.176,0.393,0.393v0.877
		c6.86,6.225,5.634,14.652,3,20.136H10.7z M24.224,25.809l-0.288,1.09l-4.651-2.863c0.011-0.045,0.026-0.115,0.047-0.205
		l0.065-0.139c0.772-1.607,1.355-3.283,1.739-4.967l2.78,4.807C24.315,24.221,24.426,25.039,24.224,25.809z"/>
</g>
</svg>
