<?xml version="1.0" encoding="utf-8"?>
<!-- Generator: Adobe Illustrator 16.2.1, SVG Export Plug-In . SVG Version: 6.00 Build 0)  -->
<!DOCTYPE svg PUBLIC "-//W3C//DTD SVG 1.1//EN" "http://www.w3.org/Graphics/SVG/1.1/DTD/svg11.dtd">
<?xml-stylesheet type="text/css" href="../../../../pixelegg/less/svg.css" ?>
<svg version="1.1" id="mail_fileexport" xmlns="http://www.w3.org/2000/svg" xmlns:xlink="http://www.w3.org/1999/xlink" x="0px" y="0px"
	 width="28.347px" height="28.347px" viewBox="0 0 28.347 28.347" enable-background="new 0 0 28.347 28.347" xml:space="preserve">
<g>
	<g>
		<path fill-rule="evenodd" clip-rule="evenodd" fill="#696969" d="M18.96,9.353c0,0.312-0.255,0.567-0.567,0.567h-2.302
			c-0.312,0-0.567-0.255-0.567-0.567V3.221c0-0.312,0.255-0.567,0.567-0.567h2.302c0.312,0,0.567,0.255,0.567,0.567V9.353z"/>
	</g>
	<path fill-rule="evenodd" clip-rule="evenodd" fill="#696969" d="M22.937,1.134H1.218v26.078h25.909V5.323L22.937,1.134z
		 M6.671,1.867h14.712v7.838c0,0.492-0.398,0.891-0.891,0.891H7.562c-0.492,0-0.891-0.398-0.891-0.891V1.867z M24.029,24.973
		c0,0.491-0.398,0.891-0.89,0.891H4.812c-0.491,0-0.891-0.399-0.891-0.891v-8.991c0-0.491,0.399-0.891,0.891-0.891H23.14
		c0.491,0,0.89,0.399,0.89,0.891V24.973z"/>
</g>
</svg>
