<?xml version="1.0" encoding="UTF-8" standalone="no"?>

<svg
        version="1.1"
        width="52.235px"
        height="52.235px"
        viewBox="0 0 52.235 52.235"
        xmlns="http://www.w3.org/2000/svg"
        xmlns:svg="http://www.w3.org/2000/svg">
    <path
            d="m 44.622719,7.676808 c -10.186,-10.212 -26.720005,-10.237 -36.9339946,-0.053 -10.2140005,10.185001 -10.2380005,26.723001 -0.056,36.937001 10.1859896,10.215 26.7279946,10.236 36.9369946,0.051 10.213999,-10.184 10.239999,-26.718 0.053,-36.935001 z"
            style="fill:CurrentColor"/>
    <path
            d="m 11.55685,14.70582 c -1.16011,0 -2.0940702,0.933957 -2.0940702,2.094075 v 1.047037 L 26.215367,28.317297 42.967952,17.846932 v -1.047037 c 0,-1.160118 -0.933957,-2.094075 -2.094075,-2.094075 z m -2.0940702,6.282222 v 14.65851 c 0,1.160118 0.9339602,2.094075 2.0940702,2.094075 h 29.317027 c 1.160118,0 2.094075,-0.933957 2.094075,-2.094075 V 20.988042 L 26.215367,31.458406 Z"
            style="fill:#ffffff;"/>
</svg>
