<?xml version="1.0" encoding="utf-8"?>
<!-- Generator: Adobe Illustrator 15.0.0, SVG Export Plug-In . SVG Version: 6.00 Build 0)  -->
<!DOCTYPE svg PUBLIC "-//W3C//DTD SVG 1.1//EN" "http://www.w3.org/Graphics/SVG/1.1/DTD/svg11.dtd">
<svg version="1.1" id="Ebene_1" xmlns="http://www.w3.org/2000/svg" xmlns:xlink="http://www.w3.org/1999/xlink" x="0px" y="0px"
	 width="32px" height="32px" viewBox="0 0 32 32" enable-background="new 0 0 32 32" xml:space="preserve">
<path fill="#62686A" d="M3.45,28.479l25.267-0.018c0.641-0.001,1.203-0.309,1.557-0.777l-11.31-7.891l-2.929,1.842l-2.938-1.843
	L1.833,27.63C2.182,28.143,2.776,28.479,3.45,28.479z"/>
<polygon fill="#62686A" points="1.504,24.376 10.367,18.133 1.504,12.375 1.504,12.982 1.503,12.982 1.503,17.658 1.503,22.334 
	1.504,22.334 "/>
<polygon fill="#62686A" points="29.954,5.588 26.246,5.588 26.246,1.877 26.246,1.24 21.704,1.24 21.704,1.877 21.704,5.588 
	17.994,5.588 17.963,5.588 17.356,5.588 17.356,10.131 17.963,10.131 17.994,10.131 21.704,10.131 21.704,13.839 21.704,14.477 
	26.246,14.477 26.246,13.839 26.246,10.131 29.954,10.131 30.594,10.131 30.594,5.588 "/>
<path fill="#62686A" d="M20.204,14.477v-0.638v-2.208h-2.241h-0.606h-1.5v-1.5V6.846L3.45,6.838c-1.073,0-1.947,0.854-1.946,1.91
	v0.073l14.529,9.437l4.171-2.715V14.477z"/>
<polygon fill="#62686A" points="30.659,12.328 27.746,14.219 27.746,14.477 27.746,15.977 26.246,15.977 25.037,15.977 
	21.703,18.141 30.659,24.466 30.659,22.354 30.66,22.354 30.66,17.658 30.66,12.962 30.659,12.962 "/>
</svg>
