<?xml version="1.0" encoding="utf-8"?>
<!-- Generator: Adobe Illustrator 15.0.0, SVG Export Plug-In . SVG Version: 6.00 Build 0)  -->
<!DOCTYPE svg PUBLIC "-//W3C//DTD SVG 1.1//EN" "http://www.w3.org/Graphics/SVG/1.1/DTD/svg11.dtd">
<svg version="1.1" id="Ebene_1" xmlns="http://www.w3.org/2000/svg" xmlns:xlink="http://www.w3.org/1999/xlink" x="0px" y="0px"
	 width="32px" height="32px" viewBox="0 0 32 32" enable-background="new 0 0 32 32" xml:space="preserve">
<g>
	<g>
		<path fill="#62686A" d="M27.314,13.194l-6.342-8.341c-1.828-1.829-4.792-1.832-6.617-0.008L12.68,6.523l0.011,2.975H7.5
			c-2.669,0-4.833,2.167-4.833,4.84v4.322c0,2.673,2.164,4.84,4.833,4.84h5.24l0.011,2.973l1.642,1.645
			c1.83,1.826,4.792,1.832,6.616,0.007l6.312-8.312C29.146,17.984,29.145,15.023,27.314,13.194z M24.675,18.482l-4.991,6.992
			c-1.095,1.094-2.873,1.094-3.97-0.006l-0.008-4.874H8.467c-1.602,0-2.9-1.3-2.9-2.901v-2.388c0-1.604,1.299-2.903,2.9-2.903h7.225
			l-0.008-4.909c1.095-1.095,2.871-1.093,3.968,0.005l5.019,7.017C25.77,15.611,25.771,17.389,24.675,18.482z"/>
	</g>
</g>
<g>
	<polygon fill="#62686A" points="26.632,8.527 26.632,5.291 23.473,5.291 23.473,3.63 26.632,3.63 26.632,0.415 28.343,0.415 
		28.343,3.63 31.585,3.63 31.585,5.291 28.343,5.291 28.343,8.527 	"/>
	<path fill="#62686A" d="M27.928,0.83v2.386v0.83h0.83h2.412v0.83h-2.412h-0.83v0.83v2.407h-0.881V5.706v-0.83h-0.83h-2.329v-0.83
		h2.329h0.83v-0.83V0.83H27.928 M28.758,0h-2.541v3.216h-3.16v2.49h3.16v3.237h2.541V5.706H32v-2.49h-3.242V0L28.758,0z"/>
</g>
</svg>
