<?xml version="1.0" encoding="UTF-8"?>
<svg version="1.1" width="32" height="32" viewBox="0 0 32 32" xmlns="http://www.w3.org/2000/svg">
 <path d="M30.31 11.952 22.51 1.69a5.753 5.753 0 0 0-8.136-.01l-2.061 2.065.013 3.66H5.943C2.661 7.405 0 10.071 0 13.36v5.317c0 3.289 2.661 5.955 5.943 5.955h6.444l.013 3.658 2.02 2.022c2.25 2.248 5.892 2.254 8.135.009l7.762-10.226a5.76 5.76 0 0 0-.007-8.143zm-3.247 6.506-6.139 8.602a3.449 3.449 0 0 1-4.88-.006l-.01-5.996H7.132c-1.97 0-3.566-1.6-3.566-3.57V14.55a3.569 3.569 0 0 1 3.566-3.572h8.885l-.01-6.04a3.449 3.449 0 0 1 4.88.007l6.171 8.633a3.449 3.449 0 0 1 .005 4.88z" fill="#62686a"/>
</svg>
