<?xml version="1.0" encoding="utf-8"?>
<!-- Generator: Adobe Illustrator 15.0.0, SVG Export Plug-In . SVG Version: 6.00 Build 0)  -->
<!DOCTYPE svg PUBLIC "-//W3C//DTD SVG 1.1//EN" "http://www.w3.org/Graphics/SVG/1.1/DTD/svg11.dtd">
<svg version="1.1" id="Ebene_1" xmlns="http://www.w3.org/2000/svg" xmlns:xlink="http://www.w3.org/1999/xlink" x="0px" y="0px"
	 width="32px" height="32px" viewBox="0 0 32 32" enable-background="new 0 0 32 32" xml:space="preserve">
<g>
	<path fill="#696969" d="M16,4.126c6.582,0,11.938,5.355,11.938,11.937C27.938,22.646,22.582,28,16,28S4.063,22.646,4.063,16.063
		C4.063,9.481,9.418,4.126,16,4.126 M16,0.126c-8.802,0-15.937,7.135-15.937,15.937S7.198,32,16,32
		c8.803,0,15.938-7.135,15.938-15.937S24.803,0.126,16,0.126L16,0.126z"/>
</g>
<circle fill="#696969" cx="16" cy="16.451" r="2.332"/>
<rect x="9.614" y="7.413" transform="matrix(-0.6935 0.7205 -0.7205 -0.6935 26.2458 11.7367)" fill="#696969" width="2.025" height="8.077"/>
<rect x="19.309" y="10.469" transform="matrix(-0.6224 -0.7827 0.7827 -0.6224 23.3699 37.1998)" fill="#696969" width="2.699" height="4.988"/>
</svg>
