<?xml version="1.0" encoding="UTF-8"?>
<svg version="1.1" width="32" height="32" viewBox="0 0 32 32" xmlns="http://www.w3.org/2000/svg">
 <path d="m30.311 11.951-7.8-10.26a5.754 5.754 0 0 0-8.137-.01l-2.06 2.063.014 3.66H5.944A5.95 5.95 0 0 0 0 13.36v5.316a5.95 5.95 0 0 0 5.944 5.955h6.444l.013 3.657 2.02 2.024c2.25 2.246 5.893 2.253 8.136.008l7.763-10.225a5.759 5.759 0 0 0-.009-8.143zm-3.245 6.505-6.138 8.602a3.45 3.45 0 0 1-4.883-.007l-.01-5.996H7.134c-1.97 0-3.566-1.6-3.566-3.57v-2.937a3.569 3.569 0 0 1 3.566-3.571h8.885l-.01-6.04a3.448 3.448 0 0 1 4.88.007l6.173 8.632a3.447 3.447 0 0 1 .005 4.88z" fill="#62686a"/><g fill="#62686a"><path d="M19.59 11.888h1.711v3.215h3.242v1.661h-3.242V20h-1.71v-3.236h-3.16v-1.661h3.16z"/><path d="M20.886 12.303v3.216h3.242v.83h-3.242v3.237h-.88v-3.237h-3.16v-.83h3.16v-3.216h.88m.83-.83h-2.54v3.216h-3.16v2.49h3.16v3.237h2.54v-3.237h3.242v-2.49h-3.242z"/></g>
</svg>
