<?xml version="1.0" encoding="utf-8"?>
<!-- Generator: Adobe Illustrator 16.2.1, SVG Export Plug-In . SVG Version: 6.00 Build 0)  -->
<!DOCTYPE svg PUBLIC "-//W3C//DTD SVG 1.1//EN" "http://www.w3.org/Graphics/SVG/1.1/DTD/svg11.dtd">
<?xml-stylesheet type="text/css" href="../../../../pixelegg/less/svg.css" ?>
<svg version="1.1" id="mail_mail_replyall" xmlns="http://www.w3.org/2000/svg" xmlns:xlink="http://www.w3.org/1999/xlink" x="0px"
	 y="0px" width="28.347px" height="28.347px" viewBox="0 0 28.347 28.347" enable-background="new 0 0 28.347 28.347"
	 xml:space="preserve">
<path fill-rule="evenodd" clip-rule="evenodd" fill="#696969" d="M23.377,7.188h-1.965l0.008-2.975l-1.506-1.678
	c-1.639-1.824-4.297-1.821-5.939,0.007l-0.205,0.3l-0.275-0.307C11.857,0.71,9.197,0.713,7.557,2.542l-5.694,8.341
	c-1.641,1.829-1.645,4.791-0.006,6.616l5.669,8.312c1.637,1.825,4.295,1.821,5.938-0.007l0.271-0.301l0.21,0.308
	c1.639,1.825,4.297,1.821,5.939-0.007l1.475-1.643l0.01-2.973h2.01c2.396,0,4.34-2.166,4.34-4.84v-4.323
	C27.717,9.354,25.773,7.188,23.377,7.188z M8.715,23.164l-4.482-6.991C3.25,15.078,3.252,13.3,4.237,12.204l4.505-7.017
	c0.959-1.069,2.494-1.09,3.481-0.079l-3.942,5.775c-1.64,1.829-1.644,4.791-0.004,6.616l3.913,5.741
	C11.201,24.248,9.67,24.229,8.715,23.164z M25.113,15.382c0,1.604-0.27,2.904-1.707,2.904h-4.703l-0.006,4.874
	c-0.986,1.098-2.582,1.099-3.562,0.004l-4.482-6.991c-0.982-1.095-0.98-2.873,0.004-3.969l4.504-7.017
	c0.986-1.097,2.582-1.099,3.562-0.004l-0.006,4.909h4.689c1.438,0,1.707,1.3,1.707,2.903V15.382z"/>
</svg>
