<?xml version="1.0" encoding="UTF-8"?>
<svg version="1.1" width="32" height="32" viewBox="0 0 32 32" xmlns="http://www.w3.org/2000/svg">
 <path d="M26.871 7.406H24.55l.01-3.66-1.78-2.064c-1.936-2.245-5.076-2.24-7.016.008l-.242.37-.324-.378C13.263-.564 10.12-.56 8.183 1.69L1.457 11.952c-1.939 2.25-1.943 5.895-.007 8.14l6.696 10.227c1.934 2.245 5.074 2.24 7.015-.009l.32-.37.248.379c1.936 2.245 5.076 2.24 7.016-.009l1.742-2.021.012-3.658h2.374c2.83 0 5.127-2.665 5.127-5.955v-5.318c-.002-3.286-2.299-5.951-5.129-5.951zM9.551 27.062l-5.295-8.601c-1.16-1.347-1.158-3.535.005-4.883l5.322-8.634c1.133-1.315 2.946-1.34 4.112-.097l-4.657 7.106c-1.937 2.25-1.942 5.894-.004 8.14l4.622 7.063c-1.168 1.24-2.977 1.217-4.105-.094zm19.371-9.574c0 1.973-.319 3.573-2.017 3.573H21.35l-.007 5.996c-1.165 1.351-3.05 1.353-4.208.005l-5.295-8.601c-1.16-1.347-1.157-3.535.005-4.883l5.32-8.634c1.165-1.35 3.05-1.352 4.208-.004l-.007 6.04h5.54c1.698 0 2.016 1.599 2.016 3.571z" clip-rule="evenodd" fill="#62686a" fill-rule="evenodd"/>
</svg>
