<?xml version="1.0" encoding="UTF-8"?>
<svg version="1.1" width="32" height="32" viewBox="0 0 32 32" xmlns="http://www.w3.org/2000/svg">
 <path d="m1.69 20.05 7.8 10.26c2.247 2.25 5.893 2.254 8.136.01l2.06-2.064-.013-3.661h6.384a5.95 5.95 0 0 0 5.944-5.954v-5.317a5.95 5.95 0 0 0-5.944-5.954h-6.444L19.6 3.712 17.579 1.69c-2.25-2.247-5.893-2.254-8.135-.009L1.68 11.905a5.761 5.761 0 0 0 .009 8.144zm3.247-6.507 6.138-8.602a3.45 3.45 0 0 1 4.882.008l.01 5.996h8.902a3.567 3.567 0 0 1 3.565 3.569v2.938a3.569 3.569 0 0 1-3.565 3.572h-8.885l.01 6.038a3.446 3.446 0 0 1-4.88-.007l-6.172-8.632a3.446 3.446 0 0 1-.005-4.88z" fill="#62686a"/>
</svg>
