<?xml version="1.0" encoding="utf-8"?>
<!-- Generator: Adobe Illustrator 15.0.0, SVG Export Plug-In . SVG Version: 6.00 Build 0)  -->
<!DOCTYPE svg PUBLIC "-//W3C//DTD SVG 1.1//EN" "http://www.w3.org/Graphics/SVG/1.1/DTD/svg11.dtd">
<svg version="1.1" id="Ebene_1" xmlns="http://www.w3.org/2000/svg" xmlns:xlink="http://www.w3.org/1999/xlink" x="0px" y="0px"
	 width="32px" height="32px" viewBox="0 0 32 32" enable-background="new 0 0 32 32" xml:space="preserve">
<g>
	<g>
		<path fill="#62686A" d="M9.379,14.625c1.299,2.942,3.803,4.937,6.684,4.937c2.841,0,5.321-1.948,6.633-4.833
			c0.729-0.097,1.511-1.161,1.845-2.582c0.378-1.603,0.042-3.045-0.752-3.226c-0.051-0.01-0.107-0.002-0.16-0.003
			c-0.044-0.446-0.106-0.886-0.196-1.312c0.339-0.621,0.539-1.306,0.539-2.035c0-2.719-2.638-4.923-5.897-4.923
			c-0.184,0-0.355,0.032-0.534,0.045c-0.479-0.117-0.97-0.182-1.476-0.182c-1.236,0-2.402,0.375-3.438,1.029
			c-0.133-0.02-0.26-0.068-0.4-0.068c-2.016,0-3.649,2.06-3.649,4.603c0,0.455,0.068,0.887,0.165,1.302
			C8.623,7.893,8.549,8.43,8.499,8.976c-0.704,0.297-0.99,1.656-0.633,3.17C8.148,13.354,8.757,14.307,9.379,14.625z M29.793,24.645
			c-0.703-0.977-2.375-1.833-6.369-5.027c-1.715,1.846-4.383,3.04-7.389,3.095c-3.005-0.056-5.674-1.25-7.388-3.095
			c-3.993,3.194-5.665,4.051-6.369,5.027c-0.719,0.564-1.197,1.538-1.197,2.657c0,0.832,0.268,1.582,0.702,2.147
			c0,0.034,8.87,2.361,14.251,2.248c5.384,0.112,14.253-2.214,14.253-2.248c0.434-0.565,0.703-1.314,0.703-2.147
			C30.991,26.183,30.512,25.209,29.793,24.645z"/>
	</g>
</g>
</svg>
