<?xml version="1.0" encoding="utf-8"?>
<!-- Generator: Adobe Illustrator 15.0.0, SVG Export Plug-In . SVG Version: 6.00 Build 0)  -->
<!DOCTYPE svg PUBLIC "-//W3C//DTD SVG 1.1//EN" "http://www.w3.org/Graphics/SVG/1.1/DTD/svg11.dtd">
<svg version="1.1" id="Ebene_1" xmlns="http://www.w3.org/2000/svg" xmlns:xlink="http://www.w3.org/1999/xlink" x="0px" y="0px"
	 width="32px" height="32px" viewBox="0 0 32 32" enable-background="new 0 0 32 32" xml:space="preserve">
<g>
	<path fill="#62686A" d="M19.6,22.525c-0.161,0-0.306,0.047-0.443,0.115l0.533-0.115H19.6z"/>
	<path fill="#62686A" d="M19.6,20.926h2.899v-2.12v-0.863l0.722-0.475c0.415-0.272,0.905-0.416,1.417-0.416
		c0.683,0,1.348,0.268,1.829,0.739l2.695,2.662l0.722-0.159c1.016-0.221,1.656-1.205,1.438-2.202L28.953,7.25L16.831,17.679
		L1.468,13.264l2.371,10.842c0.218,0.996,1.216,1.62,2.229,1.399L17.06,23.1C17.249,21.872,18.311,20.926,19.6,20.926z"/>
</g>
<path fill="#62686A" d="M25.744,1.338L2.206,6.488C1.038,6.743,0.299,7.897,0.554,9.065l0.481,2.199l15.296,4.099L28.52,5.25
	l-0.55-2.512C27.753,1.744,26.756,1.116,25.744,1.338z"/>
<path fill="#62686A" d="M31.414,25.325c0-0.255-0.103-0.497-0.285-0.68l-5.786-5.717c-0.188-0.184-0.447-0.277-0.705-0.277
	c-0.191,0-0.38,0.05-0.539,0.154v3.72H19.6c-0.54,0-0.979,0.432-0.979,0.961v3.676c0,0.532,0.439,0.964,0.979,0.964h4.499v3.719
	C24.258,31.948,24.446,32,24.638,32c0.258,0,0.517-0.094,0.705-0.279l5.786-5.716C31.312,25.823,31.414,25.582,31.414,25.325z"/>
</svg>