<?xml version="1.0" encoding="UTF-8"?>
<svg version="1.1" width="32" height="32" viewBox="0 0 32 32" xmlns="http://www.w3.org/2000/svg">
 <path d="M16 0a3.987 3.987 0 0 0-2.828 1.176L1.175 13.172a3.99 3.99 0 0 0 0 5.656l11.997 11.996a3.99 3.99 0 0 0 5.656 0l11.997-11.996a3.99 3.99 0 0 0 0-5.656L18.828 1.176A3.987 3.987 0 0 0 16 0zm0 3.002a1 1 0 0 1 .707.295l11.997 11.996a.996.996 0 0 1 0 1.414L16.707 28.703a.996.996 0 0 1-1.414 0L3.296 16.707a.996.996 0 0 1 0-1.414L15.293 3.297A.997.997 0 0 1 16 3.002zM14 7.5v12h4v-12zm2 13a2 2 0 0 0-2 2 2 2 0 0 0 2 2 2 2 0 0 0 2-2 2 2 0 0 0-2-2z" fill="#62686a"/>
</svg>
