<?xml version="1.0" encoding="utf-8"?>
<!-- Generator: Adobe Illustrator 15.0.0, SVG Export Plug-In . SVG Version: 6.00 Build 0)  -->
<!DOCTYPE svg PUBLIC "-//W3C//DTD SVG 1.1//EN" "http://www.w3.org/Graphics/SVG/1.1/DTD/svg11.dtd">
<svg version="1.1" id="Ebene_1" xmlns="http://www.w3.org/2000/svg" xmlns:xlink="http://www.w3.org/1999/xlink" x="0px" y="0px"
	 width="32px" height="32px" viewBox="0 0 32 32" enable-background="new 0 0 32 32" xml:space="preserve">
<path fill="#62686A" d="M31.267,14.558l-3.282-3.281L20.868,4.16l-3.282-3.283c-0.686-0.685-1.802-0.685-2.488,0.001L8.165,7.812
	L7.947,8.03l-6.934,6.934c-0.686,0.685-0.686,1.801-0.001,2.486l3.283,3.283l7.117,7.116l3.282,3.282
	c0.687,0.688,1.802,0.686,2.487,0l6.934-6.935l0.218-0.218l6.934-6.933C31.953,16.361,31.954,15.245,31.267,14.558z M22.47,22.332
	l-2.586,2.587l-0.001-0.002l-0.618,0.618l-3.109,3.108l-3.73-3.73l-0.623-0.622l-3.73-3.73l-0.625-0.625L3.72,16.208l3.109-3.108
	l0.618-0.618l2.586-2.586l0.217-0.217l2.585-2.586l0.618-0.618l3.109-3.109l3.728,3.729l0.625,0.624l3.73,3.731l0.622,0.622
	l3.73,3.731l-3.108,3.107l-0.618,0.617l0.002,0.002l-2.585,2.585L22.47,22.332z"/>
<g>
	<path fill="#62686A" d="M16.27,23.684c-1.165,0-1.97-0.872-1.97-2.035c0-1.211,0.829-2.039,2.015-2.039
		c1.188,0,1.972,0.828,1.993,2.039c0,1.163-0.782,2.035-1.993,2.035H16.27z M15.038,18.49L14.546,8.344h3.538L17.592,18.49H15.038z"
		/>
</g>
</svg>
