<?xml version="1.0" encoding="utf-8"?>
<!-- Generator: Adobe Illustrator 16.2.1, SVG Export Plug-In . SVG Version: 6.00 Build 0)  -->
<!DOCTYPE svg PUBLIC "-//W3C//DTD SVG 1.1//EN" "http://www.w3.org/Graphics/SVG/1.1/DTD/svg11.dtd">
<?xml-stylesheet type="text/css" href="../../../../pixelegg/less/svg.css" ?>
<svg version="1.1" id="mail_read_flagged_small" xmlns="http://www.w3.org/2000/svg" xmlns:xlink="http://www.w3.org/1999/xlink"
	 x="0px" y="0px" width="28.347px" height="28.347px" viewBox="0 0 28.347 28.347" enable-background="new 0 0 28.347 28.347"
	 xml:space="preserve">
<path fill="#696969" d="M22.048,7.987L8.32,0.796C7.604,0.443,6.876,0.265,6.156,0.265c-0.137,0-0.264,0.025-0.396,0.038v0.013
	c-1.05,0.069-1.882,0.916-1.882,1.962v23.828c0,1.091,0.902,1.976,2.017,1.976c1.113,0,2.016-0.885,2.016-1.976v-5.122
	c0.06-0.025,0.119-0.045,0.179-0.072l13.865-6.778c2.24-1.026,2.504-2.382,2.513-3.038C24.475,10.437,24.263,9.077,22.048,7.987z
	 M18.768,11.4c-0.05,0.035-10.322,4.713-10.382,4.713c-0.25,0-0.449-0.192-0.475-0.437c-0.002-0.016-0.002-9.678,0-9.694
	c0.025-0.244,0.225-0.437,0.475-0.437c0.046,0,0.087,0.015,0.129,0.026c0.058,0.016,10.176,5.007,10.19,5.014
	c0.157,0.08,0.269,0.239,0.269,0.429C18.974,11.176,18.889,11.312,18.768,11.4z"/>
</svg>
