<?xml version="1.0" encoding="utf-8"?>
<!-- Generator: Adobe Illustrator 15.0.0, SVG Export Plug-In . SVG Version: 6.00 Build 0)  -->
<!DOCTYPE svg PUBLIC "-//W3C//DTD SVG 1.1//EN" "http://www.w3.org/Graphics/SVG/1.1/DTD/svg11.dtd">
<svg version="1.1" id="Ebene_1" xmlns="http://www.w3.org/2000/svg" xmlns:xlink="http://www.w3.org/1999/xlink" x="0px" y="0px"
	 width="32px" height="32px" viewBox="0 0 32 32" enable-background="new 0 0 32 32" xml:space="preserve">
<path fill="#62686A" d="M27.573,0.125H4.428c-0.312,0-0.563,0.252-0.563,0.563v28.406c0,0.311,0.252,0.562,0.563,0.562H4.5v0.001
	h7.417v2.219h15.021v-2.219h0.375h0.263c0.312,0,0.562-0.253,0.562-0.562V0.688C28.137,0.377,27.884,0.125,27.573,0.125z"/>
<g>
	<path fill="#FFFFFF" d="M24.133,18.384v-1.154c0-2.583-2.098-4.979-4.684-4.979c-2.58,0-4.677,2.395-4.677,4.979v1.154h-1.819
		v12.491h12.994V18.384H24.133z M16.754,17.45c0-1.825,0.998-3.227,2.717-3.227s2.723,1.422,2.723,3.246l0.061,0.913h-5.562
		L16.754,17.45z"/>
	<path fill="#62686A" d="M20.322,26.507c0,0.479-0.391,0.867-0.869,0.867l0,0c-0.482,0-0.873-0.389-0.873-0.867v-2.688
		c0-0.48,0.391-0.869,0.873-0.869l0,0c0.479,0,0.869,0.389,0.869,0.869V26.507z"/>
</g>
<path fill="#FFFFFF" d="M24.307,6.144c0,0.392-0.22,0.708-0.492,0.708H8.186c-0.272,0-0.493-0.317-0.493-0.708l0,0
	c0-0.392,0.22-0.708,0.493-0.708h15.628C24.087,5.436,24.307,5.752,24.307,6.144L24.307,6.144z"/>
<path fill="#FFFFFF" d="M24.307,9.739c0,0.392-0.22,0.708-0.492,0.708H8.186c-0.272,0-0.493-0.317-0.493-0.708l0,0
	c0-0.392,0.22-0.708,0.493-0.708h15.628C24.087,9.03,24.307,9.347,24.307,9.739L24.307,9.739z"/>
</svg>
