<?xml version="1.0" encoding="UTF-8"?>
<svg version="1.1" width="32" height="32" viewBox="0 0 32 32" xmlns="http://www.w3.org/2000/svg">
 <path d="M7.363 0C4.98 0 3 1.98 3 4.363v23.273C3 30.02 4.98 32 7.363 32H12v-2H7.363A2.358 2.358 0 0 1 5 27.636V4.363A2.358 2.358 0 0 1 7.363 2h17.273A2.358 2.358 0 0 1 27 4.363v23.273c0 1.186-.865 2.16-2 2.334v2.01c2.217-.19 4-2.083 4-4.344V4.363C29 1.98 27.02 0 24.636 0zM9 5a1 1 0 0 0-1 1 1 1 0 0 0 1 1h14a1 1 0 0 0 1-1 1 1 0 0 0-1-1zm0 5a1 1 0 0 0-1 1 1 1 0 0 0 1 1h14a1 1 0 0 0 1-1 1 1 0 0 0-1-1zm8.75 4c-.808 0-1.367.43-1.727.805a2.848 2.848 0 0 0-.816-.131 2.18 2.18 0 0 0-1.086.283c-.696.395-.957 1.042-1.078 1.545-.511.117-1.174.378-1.576 1.072-.401.68-.3 1.37-.149 1.858-.382.358-.818.908-.818 1.705 0 .795.438 1.348.818 1.7-.148.49-.25 1.186.155 1.872.401.686 1.06.944 1.568 1.063.12.498.384 1.15 1.084 1.546.03.017.063.03.094.045l-1.158 3.721 1.826-.736 1.107 1.637.045.016 1.18-3.793c.164.042.34.066.531.066.6 0 1.064-.237 1.41-.512l2.186 4.182.85-1.928 2.11.445.046-.021-2.114-4.047c.106-.214.174-.429.221-.621.508-.12 1.169-.38 1.57-1.068.403-.685.302-1.376.153-1.866.38-.354.818-.906.818-1.703s-.437-1.35-.818-1.705c.15-.49.252-1.178-.155-1.866-.398-.686-1.058-.945-1.568-1.062-.12-.503-.386-1.154-1.092-1.55a2.166 2.166 0 0 0-1.074-.278c-.303 0-.576.058-.815.129-.36-.374-.918-.803-1.728-.803z" fill="#62686a"/>
</svg>
