<?xml version="1.0" encoding="utf-8"?>
<!-- Generator: Adobe Illustrator 15.0.0, SVG Export Plug-In . SVG Version: 6.00 Build 0)  -->
<!DOCTYPE svg PUBLIC "-//W3C//DTD SVG 1.1//EN" "http://www.w3.org/Graphics/SVG/1.1/DTD/svg11.dtd">
<svg version="1.1" id="Ebene_1" xmlns="http://www.w3.org/2000/svg" xmlns:xlink="http://www.w3.org/1999/xlink" x="0px" y="0px"
	 width="32px" height="32px" viewBox="0 0 32 32" enable-background="new 0 0 32 32" xml:space="preserve">
<path fill="#62686A" d="M24.307,6.144c0,0.392-0.22,0.708-0.492,0.708H8.186c-0.272,0-0.493-0.317-0.493-0.708l0,0
	c0-0.392,0.22-0.708,0.493-0.708h15.628C24.087,5.436,24.307,5.752,24.307,6.144L24.307,6.144z"/>
<path fill="#62686A" d="M24.307,9.739c0,0.392-0.22,0.708-0.492,0.708H8.186c-0.272,0-0.493-0.317-0.493-0.708l0,0
	c0-0.392,0.22-0.708,0.493-0.708h15.628C24.087,9.03,24.307,9.347,24.307,9.739L24.307,9.739z"/>
<g id="Zwischenstaatliche_Fernstraße">
	<g id="Schildchen_3_-_Blau">
		<path fill="#62686A" d="M27.573,0.125H4.428c-0.312,0-0.563,0.252-0.563,0.563v28.406c0,0.311,0.252,0.562,0.563,0.562h7.916
			v-1.127H4.991V1.251H27.01v27.278h-0.744v1.128h1.309c0.311,0,0.562-0.253,0.562-0.562V0.688
			C28.137,0.377,27.884,0.125,27.573,0.125z"/>
		<path fill="#62686A" d="M26.015,20.066c0-0.87-0.47-1.473-0.88-1.862c0.161-0.534,0.271-1.288-0.166-2.039
			c-0.428-0.75-1.137-1.033-1.686-1.161c-0.13-0.549-0.415-1.261-1.174-1.694c-0.335-0.196-0.74-0.302-1.156-0.302
			c-0.326,0-0.621,0.063-0.877,0.141c-0.387-0.408-0.986-0.878-1.857-0.878c-0.869,0-1.471,0.47-1.858,0.879
			c-0.257-0.078-0.551-0.142-0.877-0.142c-0.416,0-0.82,0.106-1.168,0.309c-0.749,0.431-1.031,1.139-1.161,1.688
			c-0.55,0.128-1.261,0.413-1.694,1.171c-0.431,0.743-0.321,1.496-0.159,2.029c-0.411,0.392-0.881,0.992-0.881,1.862
			c0,0.869,0.472,1.474,0.881,1.86c-0.16,0.535-0.271,1.293,0.164,2.043c0.432,0.75,1.142,1.033,1.688,1.162
			c0.13,0.545,0.413,1.255,1.166,1.689c0.342,0.2,0.747,0.307,1.163,0.307c0.327,0,0.621-0.065,0.878-0.143
			c0.385,0.409,0.987,0.88,1.856,0.88s1.473-0.469,1.859-0.878c0.256,0.075,0.551,0.141,0.877,0.141
			c0.414,0,0.816-0.106,1.164-0.307c0.752-0.431,1.036-1.143,1.166-1.689c0.546-0.131,1.257-0.415,1.689-1.167
			c0.433-0.748,0.323-1.503,0.162-2.038C25.544,21.54,26.015,20.937,26.015,20.066z"/>
	</g>
</g>
<polygon fill="#62686A" points="15.139,30.13 16.33,31.919 16.378,31.936 17.939,26.841 14.731,25.856 13.175,30.936 "/>
<polygon fill="#62686A" points="22.999,29.767 25.27,30.254 25.318,30.23 21.701,23.193 18.472,24.854 22.084,31.875 "/>
</svg>
