<?xml version="1.0" encoding="UTF-8"?>
<svg version="1.1" width="32" height="32" viewBox="0 0 32 32" xmlns="http://www.w3.org/2000/svg">
 <path d="M7.363 0C4.98 0 3 1.98 3 4.363v23.273C3 30.02 4.98 32 7.363 32H11v-2H7.363A2.358 2.358 0 0 1 5 27.636V4.363A2.358 2.358 0 0 1 7.363 2h17.273A2.358 2.358 0 0 1 27 4.363v23.273c0 .8-.396 1.503-1 1.93v2.207c1.729-.582 3-2.229 3-4.137V4.363C29 1.98 27.02 0 24.636 0zM9 5a1 1 0 0 0-1 1 1 1 0 0 0 1 1h14a1 1 0 0 0 1-1 1 1 0 0 0-1-1zm0 5a1 1 0 0 0-1 1 1 1 0 0 0 1 1h14a1 1 0 0 0 1-1 1 1 0 0 0-1-1zm9.5 4a4.512 4.512 0 0 0-4.5 4.5V20c-1.108 0-2 .892-2 2v8c0 1.108.892 2 2 2h9c1.108 0 2-.892 2-2v-8c0-1.108-.892-2-2-2v-1.5c0-2.476-2.024-4.5-4.5-4.5zm0 2c1.402 0 2.5 1.098 2.5 2.5V20h-5v-1.5c0-1.402 1.098-2.5 2.5-2.5zm0 7a2 2 0 0 1 2 2 2 2 0 0 1-1 1.727V28c0 .554-.446 1-1 1s-1-.446-1-1v-1.273a2 2 0 0 1-1-1.727 2 2 0 0 1 2-2z" fill="#62686a"/>
</svg>
