<?xml version="1.0" encoding="UTF-8"?>
<svg version="1.1" width="32" height="32" viewBox="0 0 32 32" xmlns="http://www.w3.org/2000/svg">
 <path d="M8.363 0C5.98 0 4 1.98 4 4.363v21.273C4 28.02 5.98 30 8.363 30H11v-2H8.363A2.358 2.358 0 0 1 6 25.636V4.363A2.358 2.358 0 0 1 8.363 2h15.273A2.358 2.358 0 0 1 26 4.363v21.273c0 .8-.396 1.503-1 1.93v2.207c1.729-.582 3-2.229 3-4.137V4.363C28 1.98 26.02 0 23.636 0zM9.5 5a1 1 0 0 0-1 1 1 1 0 0 0 1 1h13a1 1 0 0 0 1-1 1 1 0 0 0-1-1zm0 4a1 1 0 0 0-1 1 1 1 0 0 0 1 1h13a1 1 0 0 0 1-1 1 1 0 0 0-1-1zm7.75 5c-.808 0-1.367.43-1.727.805a2.848 2.848 0 0 0-.816-.131 2.18 2.18 0 0 0-1.086.283c-.696.395-.957 1.042-1.078 1.545-.511.117-1.174.378-1.576 1.072-.401.68-.3 1.37-.149 1.858-.382.358-.818.908-.818 1.705 0 .795.438 1.348.818 1.7-.148.49-.25 1.186.155 1.872.401.686 1.06.944 1.568 1.063.12.498.384 1.15 1.084 1.546.03.017.063.03.094.045l-1.158 3.721 1.826-.736 1.107 1.637.045.016 1.18-3.793c.164.042.34.066.531.066.6 0 1.064-.237 1.41-.512l2.186 4.182.85-1.928 2.11.445.046-.021-2.114-4.047c.106-.214.174-.429.221-.621.508-.12 1.169-.38 1.57-1.068.403-.685.302-1.376.153-1.866.38-.354.818-.905.818-1.703 0-.796-.437-1.347-.818-1.703.15-.489.252-1.18-.155-1.867-.398-.687-1.058-.945-1.568-1.063-.12-.502-.386-1.154-1.092-1.55a2.166 2.166 0 0 0-1.074-.278c-.303 0-.576.058-.815.13-.36-.375-.918-.804-1.728-.804z" fill="#62686a"/>
</svg>
