<?xml version="1.0" encoding="utf-8"?>
<!-- Generator: Adobe Illustrator 15.0.0, SVG Export Plug-In . SVG Version: 6.00 Build 0)  -->
<!DOCTYPE svg PUBLIC "-//W3C//DTD SVG 1.1//EN" "http://www.w3.org/Graphics/SVG/1.1/DTD/svg11.dtd">
<svg version="1.1" id="Ebene_1" xmlns="http://www.w3.org/2000/svg" xmlns:xlink="http://www.w3.org/1999/xlink" x="0px" y="0px"
	 width="32px" height="32px" viewBox="0 0 32 32" enable-background="new 0 0 32 32" xml:space="preserve">
<polygon fill="#62686A" points="26.219,22.366 26.218,22.366 26.218,22.366 26.218,16.584 22.365,16.584 22.365,19.038 
	22.37,19.038 22.37,22.366 22.366,22.366 22.366,22.366 16.584,22.366 16.584,26.219 19.039,26.219 19.039,26.215 22.37,26.215 
	22.37,28.92 22.365,28.92 22.365,32 26.218,32 26.218,26.219 26.219,26.219 26.219,26.215 28.92,26.215 28.92,26.219 32,26.219 
	32,22.366 "/>
<path fill="#62686A" d="M22.26,11.128c0-6.105-4.959-11.075-11.074-11.126V0c-0.004,0-0.011,0-0.016,0c-0.013,0-0.024,0-0.039,0
	c-0.017,0-0.027,0-0.04,0c-0.005,0-0.012,0-0.018,0v0.001C4.961,0.053,0,5.022,0,11.128c0,6.104,4.961,11.076,11.073,11.125v0.003
	c0.007,0,0.012,0,0.018,0c0.013,0,0.023-0.003,0.04-0.003c0.015,0,0.026,0.003,0.039,0.003c0.005,0,0.012,0,0.016,0v-0.003
	C17.301,22.204,22.26,17.232,22.26,11.128z M19.698,8.606c0.236,0.804,0.369,1.644,0.369,2.52s-0.133,1.722-0.369,2.52h-3.753
	c0.079-0.827,0.123-1.673,0.123-2.52c0-0.846-0.042-1.69-0.123-2.52H19.698z M18.71,6.421h-3.079
	c-0.262-1.331-0.632-2.55-1.122-3.56C16.257,3.582,17.723,4.839,18.71,6.421z M11.13,2.241c0.646,0.056,1.667,1.501,2.263,4.181
	H8.867C9.463,3.743,10.486,2.297,11.13,2.241z M2.561,13.649c-0.235-0.801-0.367-1.647-0.367-2.521c0-0.877,0.132-1.718,0.367-2.521
	h3.757c-0.081,0.829-0.123,1.676-0.123,2.521c0,0.849,0.042,1.693,0.123,2.521H2.561z M3.548,15.833h3.083
	c0.259,1.331,0.633,2.552,1.119,3.559C6.002,18.672,4.539,17.418,3.548,15.833z M6.631,6.421H3.548
	c0.99-1.582,2.454-2.839,4.202-3.56C7.264,3.871,6.89,5.09,6.631,6.421z M11.13,20.018c-0.644-0.062-1.667-1.505-2.263-4.186h4.526
	C12.798,18.513,11.777,19.955,11.13,20.018z M13.74,13.649H8.521c-0.082-0.775-0.132-1.614-0.132-2.521
	c0-0.909,0.048-1.747,0.132-2.521h5.218c0.083,0.777,0.132,1.611,0.132,2.521C13.872,12.036,13.822,12.874,13.74,13.649z
	 M14.51,19.392c0.486-1.007,0.86-2.228,1.12-3.559h3.08C17.723,17.418,16.257,18.672,14.51,19.392z"/>
</svg>
