<?xml version="1.0" encoding="utf-8"?>
<!-- Generator: Adobe Illustrator 15.0.0, SVG Export Plug-In . SVG Version: 6.00 Build 0)  -->
<!DOCTYPE svg PUBLIC "-//W3C//DTD SVG 1.1//EN" "http://www.w3.org/Graphics/SVG/1.1/DTD/svg11.dtd">
<svg version="1.1" id="Ebene_1" xmlns="http://www.w3.org/2000/svg" xmlns:xlink="http://www.w3.org/1999/xlink" x="0px" y="0px"
	 width="32px" height="32px" viewBox="0 0 32 32" enable-background="new 0 0 32 32" xml:space="preserve">
<g>
	<path fill="#62686A" d="M14.722,13.464c-0.081,0.236-0.146,0.475-0.195,0.714c-0.05,0.238-0.074,0.458-0.074,0.653
		c0,0.201,0.045,0.363,0.134,0.492c0.089,0.13,0.232,0.194,0.432,0.194c0.457,0,0.918-0.164,1.385-0.494
		c0.465-0.325,0.884-0.776,1.25-1.355c0.367-0.576,0.665-1.255,0.895-2.038c0.227-0.786,0.343-1.633,0.343-2.548
		c0-1.111-0.21-2.11-0.627-2.994S17.274,4.456,16.55,3.84c-0.724-0.616-1.566-1.086-2.532-1.413
		c-0.962-0.328-1.99-0.492-3.084-0.492c-1.27,0-2.426,0.233-3.469,0.701c-1.043,0.468-1.94,1.103-2.696,1.906
		C4.013,5.346,3.429,6.29,3.011,7.372c-0.417,1.08-0.625,2.246-0.625,3.5c0,1.446,0.224,2.759,0.67,3.931s1.062,2.165,1.845,2.98
		c0.785,0.813,1.719,1.443,2.801,1.889c1.079,0.449,2.248,0.67,3.499,0.67c1.311,0,2.549-0.257,3.723-0.774
		c1.169-0.515,2.164-1.237,2.979-2.173h2.084c-0.951,1.549-2.216,2.75-3.784,3.603c-1.566,0.854-3.276,1.281-5.122,1.281
		c-1.529,0-2.97-0.281-4.32-0.85c-1.35-0.565-2.528-1.354-3.531-2.365c-1.002-1.015-1.791-2.225-2.368-3.636
		C0.288,14.02,0,12.458,0,10.75c0-1.507,0.294-2.915,0.879-4.216c0.586-1.298,1.375-2.436,2.368-3.408
		c0.993-0.973,2.15-1.739,3.47-2.295C8.04,0.276,9.445,0,10.931,0c1.331,0,2.598,0.213,3.8,0.639
		c1.201,0.429,2.257,1.027,3.172,1.803c0.911,0.776,1.642,1.7,2.188,2.771c0.544,1.074,0.819,2.243,0.819,3.514
		c0,1.49-0.253,2.791-0.762,3.902c-0.507,1.113-1.12,2.037-1.846,2.771c-0.724,0.734-1.495,1.287-2.307,1.651
		c-0.815,0.368-1.52,0.553-2.115,0.553c-0.459,0-0.854-0.145-1.194-0.433c-0.336-0.285-0.524-0.719-0.565-1.294h-0.059
		c-0.397,0.458-0.893,0.854-1.491,1.191c-0.593,0.337-1.209,0.507-1.845,0.507c-0.616,0-1.193-0.123-1.728-0.374
		c-0.535-0.246-0.999-0.584-1.384-1.01c-0.386-0.429-0.691-0.924-0.909-1.491c-0.217-0.564-0.328-1.166-0.328-1.802
		c0-0.953,0.157-1.886,0.477-2.798c0.317-0.916,0.76-1.74,1.324-2.473C6.745,6.889,7.43,6.298,8.233,5.852
		c0.807-0.447,1.693-0.67,2.668-0.67c0.694,0,1.328,0.17,1.906,0.507c0.575,0.339,1.053,0.885,1.431,1.641l0.535-1.699h2.084
		L14.722,13.464z M9.298,15.338c0.596,0,1.14-0.173,1.638-0.521c0.498-0.346,0.924-0.786,1.281-1.31
		c0.357-0.527,0.642-1.104,0.85-1.729c0.21-0.626,0.313-1.205,0.313-1.743c0-0.36-0.065-0.695-0.194-1.014
		c-0.131-0.318-0.298-0.596-0.507-0.835c-0.211-0.239-0.458-0.426-0.746-0.565c-0.288-0.138-0.59-0.209-0.908-0.209
		c-0.614,0-1.177,0.167-1.684,0.506c-0.507,0.337-0.939,0.76-1.295,1.268c-0.357,0.506-0.637,1.066-0.834,1.682
		c-0.197,0.616-0.298,1.202-0.298,1.755c0,0.794,0.216,1.445,0.642,1.951C7.983,15.084,8.564,15.338,9.298,15.338z"/>
</g>
<polygon fill="#62686A" points="28.589,22.368 28.589,22.366 28.586,22.366 28.586,22.368 26.202,22.368 26.202,22.368 
	16.542,22.368 16.542,26.23 19.002,26.23 19.002,26.226 26.202,26.226 26.202,26.23 26.202,26.23 26.202,26.226 28.589,26.226 
	28.912,26.226 28.912,26.23 32,26.23 32,22.368 "/>
</svg>
