<?xml version="1.0" encoding="utf-8"?>
<!-- Generator: Adobe Illustrator 16.2.1, SVG Export Plug-In . SVG Version: 6.00 Build 0)  -->
<!DOCTYPE svg PUBLIC "-//W3C//DTD SVG 1.1//EN" "http://www.w3.org/Graphics/SVG/1.1/DTD/svg11.dtd">
<?xml-stylesheet type="text/css" href="../../../../pixelegg/less/svg.css" ?>
<svg version="1.1" id="mail_unread_flagged_small"
	 xmlns="http://www.w3.org/2000/svg" xmlns:xlink="http://www.w3.org/1999/xlink" x="0px" y="0px" width="28.347px"
	 height="28.347px" viewBox="0 0 28.347 28.347" enable-background="new 0 0 28.347 28.347" xml:space="preserve">
<path fill="#696969" d="M22.047,7.987L8.319,0.796C7.603,0.443,6.875,0.265,6.155,0.265c-0.137,0-0.264,0.025-0.396,0.038v0.013
	C4.71,0.385,3.878,1.231,3.878,2.277v23.828c0,1.091,0.902,1.976,2.017,1.976c1.113,0,2.016-0.885,2.016-1.976v-5.122
	c0.06-0.025,0.119-0.045,0.179-0.072l13.865-6.778c2.24-1.026,2.504-2.382,2.513-3.038C24.474,10.437,24.262,9.077,22.047,7.987z"/>
</svg>
