<?xml version="1.0" encoding="utf-8"?>
<!-- Generator: Adobe Illustrator 15.0.0, SVG Export Plug-In . SVG Version: 6.00 Build 0)  -->
<!DOCTYPE svg PUBLIC "-//W3C//DTD SVG 1.1//EN" "http://www.w3.org/Graphics/SVG/1.1/DTD/svg11.dtd">
<svg version="1.1" id="Ebene_1" xmlns="http://www.w3.org/2000/svg" xmlns:xlink="http://www.w3.org/1999/xlink" x="0px" y="0px"
	 width="32px" height="32px" viewBox="0 0 32 32" enable-background="new 0 0 32 32" xml:space="preserve">
<g>
	<path fill="none" d="M23.375,31.5c-4.48,0-8.125-3.645-8.125-8.125s3.645-8.125,8.125-8.125s8.125,3.645,8.125,8.125
		S27.855,31.5,23.375,31.5z"/>
	<g>
		<path fill="#62686A" d="M23.375,15.75c4.204,0,7.625,3.42,7.625,7.625S27.579,31,23.375,31s-7.625-3.421-7.625-7.625
			S19.171,15.75,23.375,15.75 M23.375,14.75c-4.764,0-8.625,3.861-8.625,8.625c0,4.766,3.861,8.625,8.625,8.625
			C28.141,32,32,28.141,32,23.375C32,18.611,28.141,14.75,23.375,14.75L23.375,14.75z"/>
	</g>
</g>
<path fill="#62686A" d="M19.539,27.699c0.376,0.316,0.868,0.467,1.357,0.455c0.181,0.01,0.354-0.025,0.524-0.084
	c0.281-0.074,0.55-0.186,0.771-0.371l6.642-5.61c0.733-0.618,0.733-1.624,0-2.243c-0.733-0.621-1.922-0.621-2.658,0l-5.323,4.502
	l-0.988-1.008c-0.596-0.602-1.562-0.602-2.156,0c-0.594,0.605-0.594,1.584,0,2.188C17.708,25.525,18.932,27.076,19.539,27.699z"/>
<path fill="#62686A" d="M23.401,31.984c-1.44,0-2.795-0.358-3.987-0.984H1V1h24.264v13.994c0.342,0.075,0.675,0.175,1,0.29V0H0v32
	h26.264v-0.514C25.367,31.803,24.406,31.984,23.401,31.984z"/>
</svg>
