<?xml version="1.0" encoding="utf-8"?>
<!-- Generator: Adobe Illustrator 15.0.0, SVG Export Plug-In . SVG Version: 6.00 Build 0)  -->
<!DOCTYPE svg PUBLIC "-//W3C//DTD SVG 1.1//EN" "http://www.w3.org/Graphics/SVG/1.1/DTD/svg11.dtd">
<svg version="1.1" id="Ebene_1" xmlns="http://www.w3.org/2000/svg" xmlns:xlink="http://www.w3.org/1999/xlink" x="0px" y="0px"
	 width="32px" height="32px" viewBox="0 0 32 32" enable-background="new 0 0 32 32" xml:space="preserve">
<g>
	<path fill="#62686A" d="M9.248,19.73v-4.453H0.973v-2.844l7.04-11.378h5.373v10.947h2.212v3.275h-2.212v4.453H9.248z M9.248,12.002
		V7.865c0-1.121,0.058-2.27,0.115-3.477H9.277C8.674,5.595,8.156,6.687,7.524,7.865l-2.471,4.08l-0.029,0.058H9.248z"/>
</g>
<g>
	<g>
		<path fill="#62686A" d="M26.001,1.001H16v3h9.001c1.657,0,3,1.343,3,3V25c0,1.657-1.343,3-3,3H7c-1.656,0-3-1.343-3-3v-3H1v4
			c0,2.762,2.238,5,5,5h20.001c2.761,0,5-2.238,5-5V6.001C31.001,3.239,28.762,1.001,26.001,1.001z"/>
	</g>
</g>
</svg>
