<?xml version="1.0" encoding="utf-8"?>
<!-- Generator: Adobe Illustrator 15.0.0, SVG Export Plug-In . SVG Version: 6.00 Build 0)  -->
<!DOCTYPE svg PUBLIC "-//W3C//DTD SVG 1.1//EN" "http://www.w3.org/Graphics/SVG/1.1/DTD/svg11.dtd">
<?xml-stylesheet type="text/css" href="../../../../pixelegg/less/svg.css" ?>
<svg version="1.1" id="calendar_cal4" xmlns="http://www.w3.org/2000/svg" xmlns:xlink="http://www.w3.org/1999/xlink" x="0px" y="0px"
	 width="32px" height="32px" viewBox="0 0 32 32" enable-background="new 0 0 32 32" xml:space="preserve">
	<g>
		<g>
			<path fill="#696969" d="M25.007,0.996H15.004v3.001h9.003c1.656,0,3,1.343,3,3v18.002
				c0,1.658-1.344,3.002-3,3.002H6.003c-1.657,0-3.001-1.344-3.001-3.002V23H0v3.001c0,2.762,2.24,5.002,5.003,5.002h20.004
				c2.763,0,5.001-2.24,5.001-5.001V5.998C30.008,3.235,27.77,0.996,25.007,0.996z M8.311,19.804h3.605v-4.031h2.119v-2.881h-2.119
				V1.183H7.781L0.894,12.554v3.218h7.417V19.804z M3.635,12.89l4.676-8.071v8.071H3.635z"/>
		</g>
	</g>
</svg>
