<?xml version="1.0" encoding="utf-8"?>
<!-- Generator: Adobe Illustrator 15.0.0, SVG Export Plug-In . SVG Version: 6.00 Build 0)  -->
<!DOCTYPE svg PUBLIC "-//W3C//DTD SVG 1.1//EN" "http://www.w3.org/Graphics/SVG/1.1/DTD/svg11.dtd">
<svg version="1.1" id="Ebene_1" xmlns="http://www.w3.org/2000/svg" xmlns:xlink="http://www.w3.org/1999/xlink" x="0px" y="0px"
	 width="32px" height="32px" viewBox="0 0 32 32" enable-background="new 0 0 32 32" xml:space="preserve">
<g>
	<path fill="#62686A" d="M1.579,15.606c0.776,0.431,2.557,1.149,4.339,1.149c2.27,0,3.419-1.092,3.419-2.471
		c0-1.867-1.839-2.701-3.764-2.701H3.792V8.452h1.724c1.465,0,3.304-0.575,3.304-2.155c0-1.121-0.891-1.954-2.758-1.954
		c-1.523,0-3.132,0.661-3.879,1.12l-0.891-3.16c1.121-0.718,3.333-1.408,5.775-1.408c3.965,0,6.178,2.098,6.178,4.655
		c0,1.982-1.121,3.563-3.419,4.338v0.058c2.241,0.402,4.051,2.098,4.051,4.568c0,3.275-2.902,5.689-7.643,5.689
		c-2.414,0-4.454-0.633-5.545-1.293L1.579,15.606z"/>
	<path fill="#62686A" d="M19.452,5.09h-0.058l-3.563,1.695L15.113,3.51l4.971-2.298h3.592v18.676h-4.224V5.09z"/>
</g>
<g>
	<g>
		<path fill="#62686A" d="M26.001,1.001H25v3h0.001c1.657,0,3,1.343,3,3V25c0,1.657-1.343,3-3,3H7c-1.656,0-3-1.343-3-3v-3H1v4
			c0,2.762,2.238,5,5,5h20.001c2.761,0,5-2.238,5-5V6.001C31.001,3.239,28.762,1.001,26.001,1.001z"/>
	</g>
</g>
</svg>
