<?xml version="1.0" encoding="utf-8"?>
<!-- Generator: Adobe Illustrator 16.2.1, SVG Export Plug-In . SVG Version: 6.00 Build 0)  -->
<!DOCTYPE svg PUBLIC "-//W3C//DTD SVG 1.1//EN" "http://www.w3.org/Graphics/SVG/1.1/DTD/svg11.dtd">
<?xml-stylesheet type="text/css" href="../../../../pixelegg/less/svg.css" ?>
<?xml-stylesheet type="text/css" href="../../../../pixelegg/less/svg.css" ?>
<?xml-stylesheet type="text/css" href="../../../../pixelegg/less/svg.css" ?>
<svg version="1.1" id="calendar_navbar" xmlns="http://www.w3.org/2000/svg" xmlns:xlink="http://www.w3.org/1999/xlink" x="0px" y="0px"
	 width="28.347px" height="28.347px" viewBox="0 0 28.347 28.347" enable-background="new 0 0 28.347 28.347" xml:space="preserve">
<path fill-rule="evenodd" clip-rule="evenodd" fill="#FFFFFF" d="M24.25,4.068h-0.826v2.479c0,0.913-0.74,1.653-1.653,1.653h-1.653
	c-0.912,0-1.652-0.74-1.652-1.653V4.068h-6.613v2.479c0,0.913-0.739,1.653-1.652,1.653H8.545c-0.913,0-1.653-0.74-1.653-1.653V4.068
	H6.066c-0.913,0-1.653,0.74-1.653,1.653v9.482c0.458-0.1,0.932-0.156,1.419-0.156c0.361,0,0.715,0.037,1.061,0.094v-0.328h4.959
	v4.123c0.377,0.83,0.593,1.752,0.593,2.725c0,1.852-0.764,3.523-1.991,4.725H24.25c0.913,0,1.653-0.74,1.653-1.654V5.721
	C25.903,4.808,25.163,4.068,24.25,4.068z M11.851,13.987H6.892V9.854h4.959V13.987z M17.637,23.904h-4.959v-4.133h4.959V23.904z
	 M17.637,18.945h-4.959v-4.132h4.959V18.945z M17.637,13.987h-4.959V9.854h4.959V13.987z M23.423,23.904h-4.959v-4.133h4.959V23.904
	z M23.423,18.945h-4.959v-4.132h4.959V18.945z M23.423,13.987h-4.959V9.854h4.959V13.987z"/>
<path fill-rule="evenodd" clip-rule="evenodd" fill="#FFFFFF" d="M19.291,3.242c0-0.913,0.74-1.653,1.653-1.653
	s1.652,0.74,1.652,1.653v2.479c0,0.913-0.739,1.653-1.652,1.653s-1.653-0.74-1.653-1.653V3.242z"/>
<path fill-rule="evenodd" clip-rule="evenodd" fill="#FFFFFF" d="M7.719,3.242c0-0.913,0.74-1.653,1.652-1.653
	c0.913,0,1.653,0.74,1.653,1.653v2.479c0,0.913-0.74,1.653-1.653,1.653c-0.912,0-1.652-0.74-1.652-1.653V3.242z"/>
<path fill-rule="evenodd" clip-rule="evenodd" fill="#FFFFFF" d="M6.066,16.473c-2.735,0-4.953,2.217-4.953,4.953
	c0,2.734,2.218,4.951,4.953,4.951c2.734,0,4.952-2.217,4.952-4.951C11.018,18.689,8.8,16.473,6.066,16.473z M9.097,21.033
	l-3.17,2.643c-0.106,0.088-0.234,0.141-0.368,0.176c-0.083,0.027-0.166,0.043-0.251,0.041c-0.234,0.004-0.47-0.068-0.648-0.217
	c-0.128-0.105-0.192-0.238-0.228-0.375l-0.647-0.646c-0.284-0.285-0.284-0.746,0-1.031c0.284-0.283,0.746-0.283,1.03,0l0.472,0.473
	l2.542-2.117c0.351-0.293,0.919-0.293,1.269,0C9.447,20.27,9.447,20.742,9.097,21.033z"/>
</svg>
