<?xml version="1.0" encoding="utf-8"?>
<!-- Generator: Adobe Illustrator 15.0.0, SVG Export Plug-In . SVG Version: 6.00 Build 0)  -->
<!DOCTYPE svg PUBLIC "-//W3C//DTD SVG 1.1//EN" "http://www.w3.org/Graphics/SVG/1.1/DTD/svg11.dtd">
<svg version="1.1" id="Ebene_1" xmlns="http://www.w3.org/2000/svg" xmlns:xlink="http://www.w3.org/1999/xlink" x="0px" y="0px"
	 width="32px" height="32px" viewBox="0 0 32 32" enable-background="new 0 0 32 32" xml:space="preserve">
<g>
	<g>
		<path fill="#CC0033" d="M11.125,7.5c1.104,0,2-0.896,2-2v-3c0-1.104-0.896-2-2-2
			s-2,0.896-2,2v3C9.125,6.604,10.021,7.5,11.125,7.5z M25.125,7.5c1.104,0,2-0.896,2-2v-3c0-1.104-0.896-2-2-2s-2,0.896-2,2v3
			C23.125,6.604,24.021,7.5,25.125,7.5z M29.125,3.5h-1v3c0,1.105-0.896,2-2,2h-2c-1.104,0-2-0.896-2-2v-3h-8v3c0,1.105-0.896,2-2,2
			h-2c-1.104,0-2-0.896-2-2v-3h-1c-1.104,0-2,0.896-2,2v11.262c0.64-0.165,1.308-0.262,2-0.262c0.34,0,0.672,0.028,1,0.069V16.5h6
			v4.13c0.636,1.147,1,2.466,1,3.87v-2h6v5h-6v-3c0,2.393-1.056,4.534-2.721,6h16.721c1.104,0,2-0.896,2-2v-23
			C31.125,4.396,30.229,3.5,29.125,3.5z M14.125,15.5h-6v-5h6V15.5z M21.125,21.5h-6v-5h6V21.5z M21.125,15.5h-6v-5h6V15.5z
			 M28.125,27.5h-6v-5h6V27.5z M28.125,21.5h-6v-5h6V21.5z M28.125,15.5h-6v-5h6V15.5z M7.125,18.508
			c-3.309,0-5.992,2.684-5.992,5.992s2.683,5.991,5.992,5.991c3.309,0,5.991-2.683,5.991-5.991S10.434,18.508,7.125,18.508z
			 M10.793,24.027l-3.836,3.195c-0.129,0.107-0.283,0.171-0.445,0.213c-0.1,0.033-0.2,0.053-0.303,0.049
			c-0.284,0.004-0.569-0.081-0.786-0.262c-0.154-0.128-0.232-0.288-0.274-0.453l-0.784-0.783c-0.344-0.344-0.344-0.902,0-1.246
			c0.344-0.344,0.902-0.344,1.246,0l0.571,0.572l3.075-2.564c0.424-0.353,1.111-0.353,1.535,0
			C11.216,23.102,11.216,23.674,10.793,24.027z"/>
	</g>
</g>
</svg>
