<?xml version="1.0" encoding="utf-8"?>
<!-- Generator: Adobe Illustrator 15.0.0, SVG Export Plug-In . SVG Version: 6.00 Build 0)  -->
<!DOCTYPE svg PUBLIC "-//W3C//DTD SVG 1.1//EN" "http://www.w3.org/Graphics/SVG/1.1/DTD/svg11.dtd">
<svg version="1.1" id="Ebene_1" xmlns="http://www.w3.org/2000/svg" xmlns:xlink="http://www.w3.org/1999/xlink" x="0px" y="0px"
	 width="32px" height="32px" viewBox="0 0 32 32" enable-background="new 0 0 32 32" xml:space="preserve">
<g>
	<g>
		<path fill="#696969" d="M25.991,0.996h-4.976v2.985h3.98c1.648,0,2.984,1.336,2.984,2.985
			v17.91c0,1.647-1.336,2.985-2.984,2.985H7.084c-1.648,0-2.985-1.338-2.985-2.985V19.9H1.114v5.971
			c0,2.748,2.228,4.977,4.976,4.977h19.902c2.748,0,4.977-2.229,4.977-4.977v-19.9C30.968,3.223,28.738,0.996,25.991,0.996z"/>
	</g>
</g>
<g>
	<g>
		<g>
			<path fill="#696969" d="M9.864,1.243c0,0-5.751-0.968-7.667,0.964
				C0.28,4.141,1.241,9.94,1.241,9.94L11.78,20.571l8.626-8.698L9.864,1.243z"/>
		</g>
	</g>
	<ellipse fill="#696969" stroke-width="0.75" cx="5.236" cy="5.606" rx="2.034" ry="2.051"/>
</g>
</svg>
