<?xml version="1.0" encoding="utf-8"?>
<!-- Generator: Adobe Illustrator 15.0.0, SVG Export Plug-In . SVG Version: 6.00 Build 0)  -->
<!DOCTYPE svg PUBLIC "-//W3C//DTD SVG 1.1//EN" "http://www.w3.org/Graphics/SVG/1.1/DTD/svg11.dtd">
<svg version="1.1" id="Ebene_1" xmlns="http://www.w3.org/2000/svg" xmlns:xlink="http://www.w3.org/1999/xlink" x="0px" y="0px"
	 width="32px" height="32px" viewBox="0 0 32 32" enable-background="new 0 0 32 32" xml:space="preserve">
<g>
	<g>
		<path fill="#696969" d="M13.794,6.559c0.05,0.299,0,1.16,0,1.474
			c0,0.234-0.078,0.536-0.22,0.868c0.595,0.409,1.293,0.686,2.082,0.686c1.147,0,2.109-0.577,2.83-1.309
			c1.56-0.17,2.683-0.409,2.683-0.409c-0.438-0.411-0.877-1.189-1.259-2.02c0.021-0.101,0.034-0.194,0.034-0.271
			c0-0.244,0.04-0.915,0-1.147c-0.341-1.966-2.212-3.436-4.288-3.436c-1.682,0-3.204,0.923-3.91,2.315
			C12.798,4.104,13.566,5.24,13.794,6.559z M12.398,10.616c-0.545,0.562-1.236,1.078-2.051,1.417
			c2.631,0.374,4.849,1.302,4.849,1.302l1.005,2.552h6.805l-1.838-4.582c0,0-2.784-1.146-5.512-1.146
			C14.561,10.159,13.383,10.374,12.398,10.616z M25.991,0.996h-4.976v2.985h3.981c1.648,0,2.985,1.336,2.985,2.985v17.91
			c0,1.648-1.337,2.985-2.985,2.985H7.084c-1.648,0-2.985-1.337-2.985-2.985v-4.976H1.114v5.971c0,2.748,2.228,4.976,4.976,4.976
			h19.902c2.748,0,4.977-2.228,4.977-4.976v-19.9C30.968,3.223,28.739,0.996,25.991,0.996z M15.656,18.178l-1.838-4.582
			c0,0-2.784-1.146-5.513-1.146c-2.535,0-5.513,1.146-5.513,1.146l-1.838,4.582c0,0,3.659,0.574,7.351,0.574
			C11.963,18.752,15.656,18.178,15.656,18.178z M8.305,11.305c2.625,0,4.287-2.455,4.287-3.437c0-0.244,0.042-0.914,0-1.146
			c-0.34-1.967-2.211-3.436-4.287-3.436c-2.104,0-3.98,1.431-4.288,3.436c-0.032,0.207,0,0.929,0,1.146
			C4.018,8.851,5.679,11.305,8.305,11.305z"/>
	</g>
</g>
</svg>
