<?xml version="1.0" encoding="utf-8"?>
<!-- Generator: Adobe Illustrator 15.0.0, SVG Export Plug-In . SVG Version: 6.00 Build 0)  -->
<!DOCTYPE svg PUBLIC "-//W3C//DTD SVG 1.1//EN" "http://www.w3.org/Graphics/SVG/1.1/DTD/svg11.dtd">
<?xml-stylesheet type="text/css" href="../../../../pixelegg/less/svg.css" ?>
<svg version="1.1" id="calendar_year" xmlns="http://www.w3.org/2000/svg" xmlns:xlink="http://www.w3.org/1999/xlink" x="0px" y="0px"
	 width="32px" height="32px" viewBox="0 0 32 32" enable-background="new 0 0 32 32" xml:space="preserve">
<g>
	<g>
		<path fill="#696969" d="M23.667,8c1.104,0,2-0.896,2-2V3c0-1.104-0.896-2-2-2s-2,0.896-2,2v3C21.667,7.104,22.562,8,23.667,8z
			 M9.667,8c1.104,0,2-0.896,2-2V3c0-1.104-0.896-2-2-2s-2,0.896-2,2v3C7.667,7.104,8.562,8,9.667,8z M27.667,4h-1v3
			c0,1.104-0.896,2-2,2h-2c-1.104,0-2-0.896-2-2V4h-8v3c0,1.104-0.896,2-2,2h-2c-1.104,0-2-0.896-2-2V4h-1c-1.104,0-2,0.896-2,2v23
			c0,1.104,0.896,2,2,2h22c1.104,0,2-0.896,2-2V6C29.667,4.896,28.771,4,27.667,4z M13.421,26.994c-1.29,0-4.754-0.288-4.754-4.548
			h2.637l-0.019,0.02c0,0.729,0.192,2.38,2.001,2.38c1.078,0,2.021-0.73,2.021-2.246c0-1.861-1.81-1.938-3.06-1.938v-1.919h0.423
			c0.809,0,2.29-0.077,2.29-1.843c0-0.499-0.231-1.746-1.713-1.746c-1.848,0-1.848,1.746-1.848,2.226H8.898
			c0-2.553,1.443-4.375,4.523-4.375c1.829,0,4.235,0.921,4.235,3.799c0,1.381-0.866,2.245-1.636,2.591v0.038
			c0.481,0.135,2.059,0.845,2.059,3.166C18.079,25.171,16.174,26.994,13.421,26.994z M24.667,26.63h-2.694v-9.384h-3.254v-1.88
			h0.385c2.599,0,3.291-1.344,3.35-2.36h2.214V26.63z"/>
	</g>
</g>
</svg>
