<?xml version="1.0" encoding="utf-8"?>
<!-- Generator: Adobe Illustrator 16.2.1, SVG Export Plug-In . SVG Version: 6.00 Build 0)  -->
<!DOCTYPE svg PUBLIC "-//W3C//DTD SVG 1.1//EN" "http://www.w3.org/Graphics/SVG/1.1/DTD/svg11.dtd">
<svg version="1.1" id="Ebene_1" xmlns="http://www.w3.org/2000/svg" xmlns:xlink="http://www.w3.org/1999/xlink" x="0px" y="0px"
	 width="28.347px" height="28.347px" viewBox="0 0 28.347 28.347" enable-background="new 0 0 28.347 28.347" xml:space="preserve">
<g>
	<path fill-rule="evenodd" clip-rule="evenodd" fill="#ECEDED" d="M14.176,8.55c-3.822,0-6.921,3.1-6.921,6.922
		s3.099,6.921,6.921,6.921c3.823,0,6.922-3.099,6.922-6.921S17.999,8.55,14.176,8.55z M16.875,12.713l-2.006,4.308
		c-0.007,0.016-0.006,0.031-0.013,0.047c-0.207,0.43-0.724,0.611-1.154,0.406l-2.343-1.123c-0.431-0.207-0.612-0.723-0.405-1.154
		c0.206-0.432,0.724-0.613,1.154-0.407l1.545,0.741l1.652-3.55c0.202-0.434,0.719-0.62,1.151-0.419
		C16.891,11.765,17.077,12.279,16.875,12.713z"/>
	<path fill-rule="evenodd" clip-rule="evenodd" fill="#ECEDED" d="M0,0v28.347h28.346V0H0z M14.176,1.622
		c0.957,0,1.731,0.775,1.731,1.731c0,0.956-0.774,1.731-1.731,1.731c-0.956,0-1.73-0.775-1.73-1.731
		C12.445,2.397,13.22,1.622,14.176,1.622z M4.15,3.192l2.036-1.364c0,0,2.125-0.892,3.097,0.891l1.023,1.619
		C6.401,5.872,5.103,8.565,5.103,8.565L3.301,6.551C3.301,6.551,2.021,5.019,4.15,3.192z M23.519,25.442
		c0.239,0.413,0.098,0.942-0.317,1.182c-0.413,0.239-0.942,0.098-1.183-0.316l-1.958-3.391c-1.618,1.287-3.659,2.062-5.885,2.062
		c-2.267,0-4.346-0.802-5.979-2.132l-1.998,3.461c-0.24,0.414-0.77,0.556-1.183,0.316c-0.414-0.239-0.557-0.769-0.317-1.182
		l2.225-3.853c-1.404-1.666-2.253-3.818-2.253-6.173c0-5.281,4.255-9.562,9.506-9.562c5.252,0,9.507,4.28,9.507,9.562
		c0,2.398-0.884,4.586-2.334,6.264L23.519,25.442z M25.053,6.551L23.25,8.565c0,0-1.299-2.693-5.203-4.227l1.021-1.619
		c0.973-1.783,3.097-0.891,3.097-0.891l2.036,1.364C26.33,5.019,25.053,6.551,25.053,6.551z"/>
</g>
</svg>
