<?xml version="1.0" encoding="utf-8"?>
<!-- Generator: Adobe Illustrator 16.2.1, SVG Export Plug-In . SVG Version: 6.00 Build 0)  -->
<!DOCTYPE svg PUBLIC "-//W3C//DTD SVG 1.1//EN" "http://www.w3.org/Graphics/SVG/1.1/DTD/svg11.dtd">
<svg version="1.1" id="Ebene_1" xmlns="http://www.w3.org/2000/svg" xmlns:xlink="http://www.w3.org/1999/xlink" x="0px" y="0px"
	 width="28.347px" height="28.347px" viewBox="0 0 28.347 28.347" enable-background="new 0 0 28.347 28.347" xml:space="preserve">
<path fill-rule="evenodd" clip-rule="evenodd" fill="#ECEDED" d="M14.175,8.551c-3.822,0-6.921,3.1-6.921,6.922
	s3.099,6.921,6.921,6.921c3.823,0,6.922-3.099,6.922-6.921S17.998,8.551,14.175,8.551z M16.874,12.714l-2.006,4.308
	c-0.007,0.016-0.006,0.031-0.013,0.047c-0.207,0.43-0.724,0.611-1.154,0.406l-2.343-1.123c-0.431-0.207-0.612-0.723-0.405-1.154
	c0.206-0.432,0.724-0.613,1.154-0.407l1.545,0.741l1.652-3.55c0.202-0.434,0.719-0.62,1.151-0.419
	C16.89,11.766,17.076,12.28,16.874,12.714z"/>
<path fill-rule="evenodd" clip-rule="evenodd" fill="#ECEDED" d="M24.804,0.001H3.542c-1.957,0-3.543,1.586-3.543,3.544v21.259
	c0,1.957,1.586,3.543,3.543,3.543h21.262c1.957,0,3.543-1.586,3.543-3.543V3.545C28.347,1.587,26.761,0.001,24.804,0.001z
	 M14.175,1.623c0.957,0,1.731,0.775,1.731,1.731c0,0.956-0.774,1.731-1.731,1.731c-0.956,0-1.73-0.775-1.73-1.731
	C12.444,2.398,13.219,1.623,14.175,1.623z M3.3,6.552c0,0-1.279-1.532,0.85-3.359L6.186,1.83c0,0,2.125-0.892,3.097,0.891
	l1.023,1.619C6.4,5.873,5.102,8.566,5.102,8.566L3.3,6.552z M23.518,25.443c0.239,0.413,0.098,0.942-0.317,1.182
	c-0.413,0.239-0.942,0.098-1.183-0.316l-1.958-3.391c-1.618,1.287-3.659,2.062-5.885,2.062c-2.267,0-4.346-0.802-5.979-2.132
	l-1.998,3.461c-0.24,0.414-0.77,0.556-1.183,0.316c-0.414-0.239-0.557-0.769-0.317-1.182l2.225-3.853
	c-1.404-1.666-2.253-3.818-2.253-6.173c0-5.281,4.255-9.562,9.506-9.562c5.252,0,9.507,4.28,9.507,9.562
	c0,2.398-0.884,4.586-2.334,6.264L23.518,25.443z M25.052,6.552l-1.803,2.014c0,0-1.299-2.694-5.203-4.227l1.021-1.619
	c0.973-1.783,3.097-0.891,3.097-0.891L24.2,3.193C26.329,5.02,25.052,6.552,25.052,6.552z"/>
</svg>
