<?xml version="1.0" encoding="UTF-8" standalone="no"?>
<svg
   width="16"
   height="16"
   fill="currentColor"
   class="bi bi-2-square"
   viewBox="0 0 16 16"
   version="1.1"
   id="svg2"
   xmlns="http://www.w3.org/2000/svg"
   xmlns:svg="http://www.w3.org/2000/svg">
  <defs
     id="defs2" />
  <path
     d="m 8.6603062,6.24 v 0.07 h -1.271 V 6.246 c 0,-1.213 0.879,-2.402 2.6369998,-2.402 1.582,0 2.613,0.949 2.613,2.215 0,1.002 -0.6,1.667 -1.287,2.43 l -0.096,0.107 -1.9739998,2.22 v 0.077 H 12.780306 V 12 H 7.4363062 V 11.168 L 10.406306,7.875 c 0.434,-0.475 0.903,-1.008 0.903,-1.705 0,-0.744 -0.557,-1.236 -1.3130001,-1.236 -0.8429997,0 -1.3359997,0.615 -1.3359997,1.306"
     id="path1" />
  <path
     d="M0 2a2 2 0 0 1 2-2h12a2 2 0 0 1 2 2v12a2 2 0 0 1-2 2H2a2 2 0 0 1-2-2zm15 0a1 1 0 0 0-1-1H2a1 1 0 0 0-1 1v12a1 1 0 0 0 1 1h12a1 1 0 0 0 1-1z"
     id="path2" />
  <g
     id="layer1">
    <path
       d="m 5.7303134,4.0214593 v 7.9979997 h -1.312 V 5.3574593 h -0.065 l -1.834,1.318 v -1.271 l 1.899,-1.383 z"
       id="path1-3" />
  </g>
</svg>