<?xml version="1.0" encoding="utf-8"?>
<svg xmlns="http://www.w3.org/2000/svg" viewBox="0 0 16 16" fill="currentColor">
  <path d="M 14.5 1.333 C 14.776 1.333 15 1.631 15 2 L 15 14 C 15 14.368 14.776 14.667 14.5 14.667 L 1.5 14.667 C 1.224 14.667 1 14.368 1 14 L 1 2 C 1 1.631 1.224 1.333 1.5 1.333 L 14.5 1.333 Z M 1.5 0 C 0.672 0 0 0.895 0 2 L 0 14 C 0 15.104 0.672 16 1.5 16 L 14.5 16 C 15.329 16 16 15.104 16 14 L 16 2 C 16 0.895 15.329 0 14.5 0 L 1.5 0 Z"/>
  <path d="M 5 8 C 5 7.631 5.224 7.333 5.5 7.333 L 12.5 7.333 C 12.885 7.333 13.126 7.888 12.933 8.333 C 12.844 8.539 12.679 8.667 12.5 8.667 L 5.5 8.667 C 5.224 8.667 5 8.368 5 8 M 5 4.667 C 5 4.297 5.224 4 5.5 4 L 12.5 4 C 12.885 4 13.126 4.555 12.933 5 C 12.844 5.205 12.679 5.333 12.5 5.333 L 5.5 5.333 C 5.224 5.333 5 5.035 5 4.667 M 5 11.333 C 5 10.964 5.224 10.667 5.5 10.667 L 12.5 10.667 C 12.885 10.667 13.126 11.221 12.933 11.667 C 12.844 11.872 12.679 12 12.5 12 L 5.5 12 C 5.224 12 5 11.701 5 11.333 M 4 4.667 C 4 5.179 3.584 5.5 3.25 5.244 C 3.096 5.124 3 4.904 3 4.667 C 3 4.153 3.417 3.832 3.75 4.089 C 3.905 4.208 4 4.428 4 4.667 M 4 8 C 4 8.512 3.584 8.833 3.25 8.577 C 3.096 8.457 3 8.237 3 8 C 3 7.487 3.417 7.165 3.75 7.423 C 3.905 7.541 4 7.761 4 8 M 4 11.333 C 4 11.845 3.584 12.167 3.25 11.911 C 3.096 11.791 3 11.571 3 11.333 C 3 10.82 3.417 10.499 3.75 10.756 C 3.905 10.875 4 11.095 4 11.333" />
</svg>