<?xml version="1.0" encoding="utf-8"?>
<!-- Generator: Adobe Illustrator 15.0.0, SVG Export Plug-In . SVG Version: 6.00 Build 0)  -->
<!DOCTYPE svg PUBLIC "-//W3C//DTD SVG 1.1//EN" "http://www.w3.org/Graphics/SVG/1.1/DTD/svg11.dtd">
<svg version="1.1" id="Ebene_1" xmlns="http://www.w3.org/2000/svg" xmlns:xlink="http://www.w3.org/1999/xlink" x="0px" y="0px"
	 width="32px" height="32px" viewBox="0 0 32 32" enable-background="new 0 0 32 32" xml:space="preserve">
	<g>
		<g>
			<path fill="#696969" d="M26.001,1.001H16v3h9.001c1.657,0,3,1.343,3,3V25
				c0,1.657-1.343,3-3,3H7c-1.656,0-3-1.343-3-3v-2H1v3c0,2.762,2.238,5,5,5h20.001c2.761,0,5-2.238,5-5V6.001
				C31.001,3.239,28.762,1.001,26.001,1.001z M7.374,19.986h3.614V1.014H8.02C7.941,2.43,7.013,4.301,3.527,4.301H3.012v2.619h4.362
				V19.986z"/>
		</g>
	</g>
	<g>
		<g>
			<path fill="#696969" d="M64.256,3.382L51.448,3.375l-0.005,10.001H51.44l-0.002,2.658
				l5.199-5.132c1.181,1.519,1.89,3.414,1.889,5.478c-0.003,4.97-4.083,8.998-9.112,8.995c-5.031-0.002-9.106-4.034-9.104-9.004
				c0.002-3.917,2.54-7.239,6.076-8.474l0.002-4.161c-5.801,1.353-10.124,6.487-10.127,12.633c-0.004,7.18,5.884,13.003,13.15,13.007
				c7.266,0.004,13.158-5.813,13.162-12.993c0.002-3.168-1.146-6.071-3.052-8.327L64.256,3.382z"/>
		</g>
	</g>
</svg>
