<?xml version="1.0" encoding="UTF-8" standalone="no"?>

<svg
   version="1.1"
   width="52.235px"
   height="52.235px"
   viewBox="0 0 52.235 52.235"
   enable-background="new 0 0 52.235 52.235"
   xmlns="http://www.w3.org/2000/svg"
   xmlns:svg="http://www.w3.org/2000/svg">
<path
   d="M 44.611,7.675 C 34.425,-2.537 17.891,-2.562 7.677,7.622 -2.537,17.807 -2.561,34.345 7.621,44.559 17.807,54.774 34.349,54.795 44.558,44.61 54.772,34.426 54.798,17.892 44.611,7.675 Z"
   style="fill:CurrentColor" />

<path
   d="m 17.992577,9.0605407 h 0.8 c 0.886,0 1.6,0.7140009 1.6,1.6000013 v 4.3 c 0,0.886 -0.714,1.6 -1.6,1.6 h -0.8 c -0.886,0 -1.6,-0.714 -1.6,-1.6 v -4.3 c 0,-0.8860004 0.714,-1.6000003 1.6,-1.6000013 z m 16,0 h 0.8 c 0.886,0 1.6,0.7140009 1.6,1.6000013 v 4.3 c 0,0.886 -0.714,1.6 -1.6,1.6 h -0.8 c -0.886,0 -1.6,-0.714 -1.6,-1.6 v -4.3 c 0,-0.8860004 0.714,-1.6000003 1.6,-1.6000013 z m -19.6,3.0000013 c -1.108,0 -2,0.892 -2,2 v 25 c 0,1.108 0.892,2 2,2 h 24 c 1.108,0 2,-0.892 2,-2 v -25 c 0,-1.108 -0.892,-2 -2,-2 h -1 v 3.5 c 0,1.108 -0.892,2 -2,2 h -2 c -1.108,0 -2,-0.892 -2,-2 v -3.5 h -10 v 3.5 c 0,1.108 -0.892,2 -2,2 h -2 c -1.108,0 -2,-0.892 -2,-2 v -3.5 z m 2,8 h 6 v 5 h -6 z m 7,0 h 6 v 5 h -6 z m 7,0 h 6 v 5 h -6 z m -14,6 h 6 v 5 h -6 z m 7,0 h 6 v 5 h -6 z m 7,0 h 6 v 5 h -6 z m -14,6 h 6 v 5 h -6 z m 7,0 h 6 v 5 h -6 z m 7,0 h 6 v 5 h -6 z"
   style="fill:#ffffff;" /></svg>
