<?xml version="1.0" encoding="UTF-8"?>
<svg version="1.1" width="32" height="32" viewBox="0 0 32 32" xmlns="http://www.w3.org/2000/svg">
 <path d="M6 0C2.71 0 0 2.71 0 6v20c0 3.29 2.71 6 6 6h20c3.29 0 6-2.71 6-6V6c0-3.29-2.71-6-6-6zm1 3h18a4 4 0 0 1 4 4v18a4 4 0 0 1-4 4H7a4 4 0 0 1-4-4V7a4 4 0 0 1 4-4zm3.984 4.465c-1.501 0-2.84.41-3.982 1.228-1.157.821-1.756 1.997-1.756 3.44v.25h4.27v-.25c0-.409.143-.68.472-.908a1.902 1.902 0 0 1 1.117-.358c.616 0 1.012.161 1.26.457l.002.002c.277.323.408.68.408 1.11 0 .645-.16 1.083-.453 1.369s-.744.443-1.406.443H8.893v3.3h2.08c.682 0 1.182.16 1.535.456.334.279.523.77.523 1.547 0 .493-.16.882-.496 1.219-.325.325-.783.494-1.43.494-.512 0-.935-.152-1.308-.465-.36-.317-.527-.672-.527-1.125v-.25H5v.25c0 1.152.306 2.122.928 2.871a5.362 5.362 0 0 0 2.29 1.613 7.868 7.868 0 0 0 2.766.506c1.766 0 3.264-.428 4.471-1.295 1.219-.875 1.844-2.152 1.844-3.74 0-.981-.265-1.828-.8-2.508-.445-.577-1.1-.96-1.813-1.283.63-.352 1.211-.75 1.617-1.303.482-.655.728-1.39.728-2.177 0-1.576-.574-2.829-1.707-3.662-1.122-.827-2.576-1.231-4.34-1.231zm15.38.234-7.325 2.537v3.37l3.703-1.083v11.918H27V7.7h-.25z" fill="#62686a"/>
</svg>
