<?xml version="1.0" encoding="UTF-8"?>
<svg version="1.1" width="32" height="32" viewBox="0 0 32 32" xmlns="http://www.w3.org/2000/svg">
 <path d="M131.61 888.71c-1.274 0-2.417.35-3.39 1.047-.994.705-1.52 1.736-1.52 2.973v.353h3.836v-.353c0-.3.09-.47.33-.637.268-.186.538-.27.846-.27.485 0 .762.12.935.327v.002l.002.002c.21.244.305.5.305.826 0 .51-.124.83-.332 1.033-.208.203-.54.328-1.067.328h-1.826v3.031h1.873c.544 0 .92.125 1.182.344.233.195.383.553.383 1.174 0 .376-.115.653-.37.908-.239.24-.576.37-1.085.37-.396 0-.708-.113-.993-.35-.274-.24-.386-.488-.386-.827v-.351h-3.836v.351c0 .982.264 1.826.804 2.477a4.602 4.602 0 0 0 1.963 1.383 6.69 6.69 0 0 0 2.346.43c1.49 0 2.77-.364 3.8-1.104 1.047-.751 1.593-1.867 1.593-3.223 0-.84-.232-1.579-.698-2.17-.34-.443-.863-.716-1.386-.984.458-.285.92-.57 1.228-.99a3.16 3.16 0 0 0 .633-1.895c0-1.342-.5-2.437-1.477-3.156-.962-.708-2.207-1.049-3.693-1.049zm13.188.193-6.203 2.149v3.094l3.076-.899v9.85h3.826v-14.193h-.351zm-18.801-8.908c-3.29 0-6 2.71-6 6v20c0 3.29 2.71 6 6 6h20c3.29 0 6-2.71 6-6v-20c0-3.29-2.71-6-6-6zm1 3h18a4 4 0 0 1 4 4v18a4 4 0 0 1-4 4h-18a4 4 0 0 1-4-4v-18a4 4 0 0 1 4-4z" color="#000" fill="#62686a" stroke-width=".705" style="-inkscape-stroke:none" transform="translate(-120 -880)"/><style>.st0{fill:#28abe3}.st1{fill:#04526f}.st2{fill:none}</style>
</svg>
