<?xml version="1.0" encoding="UTF-8"?>
<svg version="1.1" width="32" height="32" viewBox="0 0 32 32" xmlns="http://www.w3.org/2000/svg">
  <path d="M7.6 0h.8c.886 0 1.6.714 1.6 1.6v4.3c0 .886-.714 1.6-1.6 1.6h-.8C6.714 7.5 6 6.786 6 5.9V1.6C6 .714 6.714 0 7.6 0Zm16 0h.8c.886 0 1.6.714 1.6 1.6v4.3c0 .886-.714 1.6-1.6 1.6h-.8c-.886 0-1.6-.714-1.6-1.6V1.6c0-.886.714-1.6 1.6-1.6ZM4 3c-1.108 0-2 .892-2 2v25c0 1.108.892 2 2 2h24c1.108 0 2-.892 2-2V5c0-1.108-.892-2-2-2h-1v3.5c0 1.108-.892 2-2 2h-2c-1.108 0-2-.892-2-2V3H11v3.5c0 1.108-.892 2-2 2H7c-1.108 0-2-.892-2-2V3Zm2 8h6v5H6Zm7 0h6v5h-6zm7 0h6v5h-6ZM6 17h6v5H6Zm7 0h6v5h-6zm7 0h6v5h-6ZM6 23h6v5H6Zm7 0h6v5h-6zm7 0h6v5h-6z" fill="#c03"/>
</svg>
