<?xml version="1.0" encoding="utf-8"?>
<!-- Generator: Adobe Illustrator 16.2.1, SVG Export Plug-In . SVG Version: 6.00 Build 0)  -->
<!DOCTYPE svg PUBLIC "-//W3C//DTD SVG 1.1//EN" "http://www.w3.org/Graphics/SVG/1.1/DTD/svg11.dtd">
<?xml-stylesheet type="text/css" href="../../../../pixelegg/less/svg.css" ?>
<svg version="1.1" id="calendar_next" xmlns="http://www.w3.org/2000/svg" xmlns:xlink="http://www.w3.org/1999/xlink" x="0px"
	 y="0px" width="28.347px" height="28.347px" viewBox="0 0 28.347 28.347" enable-background="new 0 0 28.347 28.347"
	 xml:space="preserve">
<path fill-rule="evenodd" clip-rule="evenodd" fill="#696969" d="M1.163,12.027v4.322c0,2.673,2.164,4.84,4.834,4.84h5.239
	l0.011,2.973l1.643,1.643c1.828,1.828,4.789,1.832,6.615,0.006l6.312-8.312c1.824-1.824,1.82-4.786-0.008-6.615l-6.342-8.341
	c-1.828-1.829-4.789-1.832-6.613-0.007l-1.678,1.678l0.01,2.975H5.997C3.327,7.188,1.163,9.354,1.163,12.027z M4.063,12.994
	c0-1.604,1.297-2.902,2.898-2.902h7.226l-0.009-4.91c1.096-1.095,2.873-1.093,3.971,0.004l5.016,7.017
	c1.098,1.098,1.1,2.875,0.004,3.969l-4.99,6.992c-1.096,1.094-2.873,1.093-3.969-0.004l-0.009-4.875H6.962
	c-1.602,0-2.898-1.3-2.898-2.903V12.994z"/>
</svg>
