<?xml version="1.0" encoding="UTF-8"?>
<svg version="1.1" width="32" height="32" viewBox="0 0 32 32" xmlns="http://www.w3.org/2000/svg">
 <path d="M0 13.36v5.315a5.949 5.949 0 0 0 5.945 5.953h6.443l.014 3.656 2.02 2.02a5.752 5.752 0 0 0 8.136.008L30.32 20.09c2.243-2.243 2.238-5.886-.01-8.135l-7.8-10.258a5.749 5.749 0 0 0-8.133-.009l-2.064 2.064.013 3.659H5.945A5.946 5.946 0 0 0 0 13.36zm3.567 1.19a3.565 3.565 0 0 1 3.564-3.57h8.887l-.011-6.038a3.455 3.455 0 0 1 4.883.005l6.17 8.63a3.45 3.45 0 0 1 .004 4.88l-6.137 8.6a3.453 3.453 0 0 1-4.881-.005l-.011-5.995H7.132a3.566 3.566 0 0 1-3.564-3.57v-2.938z" clip-rule="evenodd" fill="#62686a" fill-rule="evenodd"/>
</svg>
