<?xml version="1.0" encoding="UTF-8"?>
<svg version="1.1" width="32" height="32" viewBox="0 0 32 32" xmlns="http://www.w3.org/2000/svg">
 <path d="M17.11.006c.33-.02.67.007 1.004.08.667.147 1.306.48 1.78 1L30.945 13.23c1.405 1.544 1.406 3.97.002 5.516L19.893 30.913c-.946 1.042-2.552 1.335-3.726.88C14.992 31.34 14 30.044 14 28.637V24H4c-2.173 0-4-1.827-4-4v-8c0-2.174 1.827-4 4-4h10V3.366c0-1.407.99-2.704 2.165-3.158a3.16 3.16 0 0 1 .945-.201zm.29 2.973a.387.387 0 0 0-.4.387V10a1 1 0 0 1-1 1H4a1 1 0 0 0-1 1v8a1 1 0 0 0 1 1h12a1 1 0 0 1 1 1v6.634c.001.353.435.52.672.26l11.055-12.168a1.1 1.1 0 0 0 0-1.478L17.674 3.106a.387.387 0 0 0-.275-.127z" fill="#62686a"/>
</svg>
