<?xml version="1.0" encoding="UTF-8"?>
<svg version="1.1" width="32" height="32" viewBox="0 0 32 32" xmlns="http://www.w3.org/2000/svg">
 <path d="M7.25 7.25c-1.97 1.97-1.016 7.913-1.016 7.913l10.839 10.839 8.93-8.93-10.84-10.839S9.222 5.28 7.25 7.25zm4.927 4.927A2.09 2.09 0 1 1 9.22 9.22a2.09 2.09 0 0 1 2.957 2.957zM6.003.003c-3.29 0-6 2.71-6 6v20c0 3.29 2.71 6 6 6h20c3.29 0 6-2.71 6-6v-20c0-3.29-2.71-6-6-6zm1 3h18a4 4 0 0 1 4 4v18a4 4 0 0 1-4 4h-18a4 4 0 0 1-4-4v-18a4 4 0 0 1 4-4z" fill="#62686a" stroke-width=".847"/><style>.st0{fill:#28abe3}.st1{fill:#04526f}.st2{fill:none}</style>
</svg>
