<?xml version="1.0" encoding="UTF-8"?>
<svg version="1.1" width="32" height="32" viewBox="0 0 32 32" xmlns="http://www.w3.org/2000/svg">
 <path d="M6 0C2.71 0 0 2.71 0 6v20c0 3.29 2.71 6 6 6h20c3.29 0 6-2.71 6-6V6c0-3.29-2.71-6-6-6zm1 3h18a4 4 0 0 1 4 4v18a4 4 0 0 1-4 4H7a4 4 0 0 1-4-4V7a4 4 0 0 1 4-4zm.247 4.248c-1.97 1.97-1.016 7.913-1.016 7.913L17.071 26 26 17.07 15.16 6.23c0 .001-5.942-.953-7.913 1.018zm4.927 4.926a2.09 2.09 0 1 1-2.957-2.957 2.09 2.09 0 0 1 2.957 2.957z" fill="#62686a"/>
</svg>
