<?xml version="1.0" encoding="utf-8"?>
<!-- Generator: Adobe Illustrator 16.2.1, SVG Export Plug-In . SVG Version: 6.00 Build 0)  -->
<!DOCTYPE svg PUBLIC "-//W3C//DTD SVG 1.1//EN" "http://www.w3.org/Graphics/SVG/1.1/DTD/svg11.dtd">
<?xml-stylesheet type="text/css" href="../../../../pixelegg/less/svg.css" ?>
<svg version="1.1" id="calendar_previous" xmlns="http://www.w3.org/2000/svg" xmlns:xlink="http://www.w3.org/1999/xlink" x="0px"
	 y="0px" width="28.347px" height="28.347px" viewBox="0 0 28.347 28.347" enable-background="new 0 0 28.347 28.347"
	 xml:space="preserve">
<path fill-rule="evenodd" clip-rule="evenodd" fill="#696969" d="M22.35,7.187h-5.19l0.01-2.975l-1.678-1.678
	c-1.824-1.824-4.786-1.821-6.614,0.007l-6.342,8.341c-1.828,1.829-1.832,4.792-0.007,6.616l6.312,8.312
	c1.825,1.826,4.786,1.822,6.615-0.006l1.643-1.643l0.01-2.973h5.24c2.67,0,4.834-2.167,4.834-4.84v-4.323
	C27.184,9.353,25.02,7.187,22.35,7.187z M24.283,15.381c0,1.604-1.298,2.904-2.899,2.904h-7.239l-0.008,4.875
	c-1.097,1.097-2.874,1.098-3.969,0.004l-4.991-6.992c-1.095-1.094-1.093-2.872,0.004-3.969l5.017-7.017
	c1.098-1.097,2.875-1.099,3.97-0.004l-0.008,4.91h7.225c1.602,0,2.899,1.299,2.899,2.902V15.381z"/>
</svg>
