<?xml version="1.0" encoding="UTF-8"?>
<svg version="1.1" width="32" height="32" viewBox="0 0 32 32" xmlns="http://www.w3.org/2000/svg">
 <path d="M26.056 7.409h-6.383l.013-3.659-2.064-2.063c-2.243-2.244-5.886-2.24-8.134.008l-7.8 10.258c-2.247 2.25-2.252 5.894-.008 8.137l7.763 10.222c2.244 2.245 5.885 2.24 8.135-.008l2.02-2.02.013-3.656h6.444A5.948 5.948 0 0 0 32 18.675V13.36a5.945 5.945 0 0 0-5.944-5.95zm2.377 10.077a3.568 3.568 0 0 1-3.565 3.571h-8.903l-.01 5.996a3.453 3.453 0 0 1-4.88.005l-6.139-8.6a3.451 3.451 0 0 1 .005-4.88l6.17-8.63a3.453 3.453 0 0 1 4.883-.005l-.01 6.039h8.885a3.566 3.566 0 0 1 3.565 3.568v2.936z" clip-rule="evenodd" fill="#62686a" fill-rule="evenodd"/>
</svg>
