<?xml version="1.0" encoding="UTF-8"?>
<svg version="1.1" width="32" height="32" viewBox="0 0 32 32" xmlns="http://www.w3.org/2000/svg">
 <path d="M14.891.006a3.66 3.66 0 0 0-1.004.08c-.667.146-1.306.48-1.78 1L1.056 13.229c-1.405 1.544-1.406 3.97-.002 5.516l11.055 12.168c.946 1.041 2.552 1.334 3.726.88C17.01 31.34 18 30.043 18 28.635V24h10c2.174 0 4-1.826 4-4v-8c0-2.173-1.826-4-4-4H18V3.366c0-1.408-.99-2.704-2.164-3.159a3.16 3.16 0 0 0-.945-.2zm-.29 2.973a.387.387 0 0 1 .4.386V10a1 1 0 0 0 1 1h12a1 1 0 0 1 1 1v8a1 1 0 0 1-1 1H16a1 1 0 0 0-1 1v6.635a.387.387 0 0 1-.672.26L3.273 16.727a1.1 1.1 0 0 1 0-1.479L14.328 3.105a.387.387 0 0 1 .275-.127z" fill="#62686a"/>
</svg>
