<?xml version="1.0" encoding="UTF-8"?>
<svg version="1.1" width="32" height="32" viewBox="0 0 32 32" xmlns="http://www.w3.org/2000/svg">
 <path d="M1 32h4c.468 0 .874-.326.977-.785l.663-2.99 4.559-.142a1 1 0 0 0 .965-.93l.265-3.821 3.796.084a.998.998 0 0 0 .97-.678l1.157-3.404c.91.353 2.012.666 3.648.666 5.513 0 10-4.486 10-10S27.514 0 22 0 11.999 4.486 11.999 10c0 .718.199 1.823.35 2.537L.249 26.338A1.01 1.01 0 0 0 0 27v4c0 .552.449 1 1 1zM20.25 8.875a2.75 2.75 0 1 1 5.5 0 2.75 2.75 0 0 1-5.5 0z" fill="#62686a"/>
</svg>
