<?xml version="1.0" encoding="utf-8"?>
<!-- Generator: Adobe Illustrator 15.0.0, SVG Export Plug-In . SVG Version: 6.00 Build 0)  -->
<!DOCTYPE svg PUBLIC "-//W3C//DTD SVG 1.1//EN" "http://www.w3.org/Graphics/SVG/1.1/DTD/svg11.dtd">
<?xml-stylesheet type="text/css" href="../../../../pixelegg/less/svg.css" ?>
<svg version="1.1" id="calendar_day" xmlns="http://www.w3.org/2000/svg" xmlns:xlink="http://www.w3.org/1999/xlink" x="0px" y="0px"
	 width="32px" height="32px" viewBox="0 0 32 32" enable-background="new 0 0 32 32" xml:space="preserve">
<g>
	<g>
		<path fill-rule="evenodd" clip-rule="evenodd" fill="#696969" d="M23.084,8c1.104,0,2-0.896,2-2V3c0-1.104-0.896-2-2-2
			c-1.105,0-2,0.896-2,2v3C21.084,7.104,21.979,8,23.084,8z M9.083,8c1.104,0,2-0.896,2-2V3c0-1.104-0.896-2-2-2s-2,0.896-2,2v3
			C7.083,7.104,7.979,8,9.083,8z M27.084,4h-1v3c0,1.104-0.896,2-2,2h-2c-1.105,0-2-0.896-2-2V4h-8v3c0,1.104-0.896,2-2,2h-2
			c-1.104,0-2-0.896-2-2V4h-1c-1.104,0-2,0.896-2,2v23c0,1.104,0.896,2,2,2h22c1.104,0,2-0.896,2-2V6
			C29.084,4.896,28.188,4,27.084,4z M12.083,28h-6v-5h6V28z M12.083,22h-6v-5h6V22z M12.083,16h-6v-5h6V16z M19.084,28h-6v-5h6V28z
			 M19.084,22h-6v-5h6V22z M19.084,16h-6v-5h6V16z M26.084,28h-6v-5h6V28z M26.084,16h-6v-5h6V16z"/>
	</g>
</g>
</svg>
