<?xml version="1.0" encoding="UTF-8"?>
<svg version="1.1" width="32" height="32" viewBox="0 0 32 32" xmlns="http://www.w3.org/2000/svg">
 <path d="M6 0C2.71 0 0 2.71 0 6v20c0 3.29 2.71 6 6 6h20c3.29 0 6-2.71 6-6V6c0-3.29-2.71-6-6-6zm1 3h18a4 4 0 0 1 4 4v18a4 4 0 0 1-4 4H7a4 4 0 0 1-4-4V7a4 4 0 0 1 4-4zm13.883 4.523c-1.773 0-3.245.56-4.361 1.676v.002c-1.102 1.11-1.666 2.465-1.666 4.016v.25h4.263v-.25c0-.688.161-1.234.475-1.668h.002v-.002c.31-.436.683-.63 1.2-.63.543 0 .897.151 1.142.444s.388.766.388 1.444c0 .72-.596 1.861-1.865 3.32l-5.271 5.541v2.799H27V21.07h-6.092l1.72-1.988.014-.014c1.217-1.203 2.174-2.298 2.866-3.29v-.003c.715-1.016 1.08-2.126 1.08-3.304 0-1.53-.492-2.764-1.475-3.637-.98-.885-2.403-1.31-4.23-1.31zm-8.572.235L5 10.289v3.361l3.694-1.08v11.895h4.252V7.758h-.25z" fill="#62686a"/>
</svg>
