<?xml version="1.0" encoding="UTF-8"?>
<svg version="1.1" width="32" height="32" viewBox="0 0 32 32" xmlns="http://www.w3.org/2000/svg">
 <path d="M6.5 2C4.05 2 2 4.05 2 6.5v18C2 26.95 4.05 29 6.5 29h19c2.45 0 4.5-2.05 4.5-4.5v-15C30 7.05 27.95 5 25.5 5h-7.81c-.635-1.725-2.27-3-4.19-3zm0 3h7A1.5 1.5 0 0 1 15 6.5V8h10.5c.736 0 1.363.537 1.478 1.264A4.369 4.369 0 0 0 25.5 9h-19c-.525 0-1.028.1-1.5.272V6.5A1.5 1.5 0 0 1 6.5 5zm0 7h19a1.5 1.5 0 0 1 1.5 1.5v11a1.5 1.5 0 0 1-1.5 1.5h-19A1.5 1.5 0 0 1 5 24.5v-11A1.5 1.5 0 0 1 6.5 12z" fill="#62686a" />
</svg>
