<?xml version="1.0" encoding="UTF-8"?>
<svg version="1.1" width="32" height="32" viewBox="0 0 32 32" xmlns="http://www.w3.org/2000/svg">
 <path d="M6.5 2C4.05 2 2 4.05 2 6.5v4.185c-1.383.9-2.236 2.57-1.942 4.297l1.709 10.043C2.155 27.305 4.17 29 6.478 29h19.044c2.308 0 4.323-1.696 4.711-3.975l1.71-10.043c.293-1.727-.56-3.397-1.942-4.297V9.5C30 7.05 27.95 5 25.5 5h-7.81c-.634-1.725-2.27-3-4.19-3zm0 3h7A1.5 1.5 0 0 1 15 6.5V8h10.5A1.5 1.5 0 0 1 27 9.5v.5H5V6.5A1.5 1.5 0 0 1 6.5 5zm21.233 8c.77.01 1.384.707 1.252 1.482l-1.709 10.043a1.779 1.779 0 0 1-1.754 1.478H6.478a1.779 1.779 0 0 1-1.754-1.478L3.015 14.482a1.268 1.268 0 0 1 1.252-1.479z" fill="#62686a"/>
</svg>
