<?xml version="1.0" encoding="UTF-8"?>
<svg version="1.1" width="32" height="32" viewBox="0 0 32 32" xmlns="http://www.w3.org/2000/svg">
 <path d="M4.707 2C1.879 2-.281 4.585.029 7.314l.469 4.063c-.4.772-.58 1.663-.436 2.576l1.74 11.033C2.165 27.276 4.182 29 6.5 29h19c2.317 0 4.334-1.721 4.699-4.01l1.734-10.881a4.158 4.158 0 0 0-.256-2.207l.293-2.574c.31-2.73-1.849-5.313-4.677-5.313h-10.27C16.128 2.834 14.787 2 13.193 2zm0 2.975h8.484c1.077 0 1.95.903 1.95 2.017h12.151c1.038 0 1.843.936 1.723 2.002l-.041.36a4.1 4.1 0 0 0-1.25-.207L4.31 9.014c-.373 0-.733.052-1.078.144l-.248-2.18c-.122-1.067.684-2.004 1.722-2.003zm-.414 7.039 23.413.133c.789 0 1.388.71 1.263 1.49L27.235 24.52A1.758 1.758 0 0 1 25.5 26h-19c-.864 0-1.6-.628-1.734-1.482l-1.74-11.031a1.275 1.275 0 0 1 1.267-1.473z" fill="#62686a" />
</svg>
