<?xml version="1.0" encoding="UTF-8"?>
<svg version="1.1" width="32" height="32" viewBox="0 0 32 32" xmlns="http://www.w3.org/2000/svg">
 <path d="m2 22a2 2 0 0 0-2 2v6a2.0002 2.0002 0 0 0 2 2h28a2.0002 2.0002 0 0 0 2-2v-6a2 2 0 0 0-2-2 2 2 0 0 0-2 2v4h-24v-4a2 2 0 0 0-2-2zm14-22c-2.3333 0-4.156 0.59168-5.3945 1.2109-1.2385 0.61926-2.0195 1.375-2.0195 1.375a2.0002 2.0002 0 0 0-0.58594 1.4141v5h-1.998c-1.2956 0-2.923 0.52912-3.9199 1.7402a2.0002 2.0002 0 0 0-0.18164 0.26172c-0.49038 0.83772-0.90039 2.0314-0.90039 3.498 0 1.65 0.5213 2.9499 1.0859 3.7969 0.56464 0.84696 1.3047 1.3672 1.3047 1.3672a2.0002 2.0002 0 0 0 0.07031 0.04492l11.5 7a2.0002 2.0002 0 0 0 2.0781 0l11.5-7a2.0002 2.0002 0 0 0 0.0703-0.04492s0.74004-0.52023 1.3047-1.3672c0.56468-0.84696 1.086-2.1469 1.086-3.7969 0-1.4667-0.41001-2.6603-0.90039-3.498a2.0002 2.0002 0 0 0-0.18164-0.26172c-0.99688-1.2111-2.6244-1.7402-3.9199-1.7402h-1.998v-5a2.0002 2.0002 0 0 0-0.58594-1.4141s-0.78102-0.75574-2.0195-1.375c-1.2385-0.61926-3.0612-1.2109-5.3945-1.2109zm0 4c0.95816 0 1.7498 0.13711 2.3984 0.32422a2 2 0 0 1 1.5938 1.877h0.0078v4.7988a2.0002 2.0002 0 0 0 2 2h2.8691l2e-3 0.0078c0.0459-0.0033 0.0919-0.0078 0.13868-0.0078 1.064 0 1.9258 0.8618 1.9258 1.9258 0 0.74616-0.42475 1.3925-1.0449 1.7129l-9.8907 6.0195-9.8906-6.0195c-0.62018-0.32036-1.0449-0.96673-1.0449-1.7129 0-1.064 0.8618-1.9258 1.9258-1.9258 0.04676 0 0.09275 0.0045 0.13867 0.0078l2e-3 -0.0078h2.8691a2.0002 2.0002 0 0 0 2-2v-4.6914a2 2 0 0 1-0.0039-0.02539 2 2 0 0 1 0.0039-0.02539v-0.05664h0.0098a2 2 0 0 1 1.5684-1.8516v-0.01953c0.65268-0.19046 1.4526-0.33008 2.4218-0.33008z" fill="#62686a"/>
</svg>
