<?xml version="1.0" encoding="UTF-8"?>
<svg version="1.1" width="32" height="32" viewBox="0 0 32 32" xmlns="http://www.w3.org/2000/svg">
 <path d="M12 0C9.826 0 8 1.827 8 4v4H3.361C1.952 8 .653 9.155.203 10.332c-.45 1.178-.15 2.788.9 3.728l12.162 10.9A4.069 4.069 0 0 0 16 26a4.144 4.144 0 0 0 2.762-1.041l12.137-10.9c1.049-.942 1.348-2.552.898-3.729C31.346 9.154 30.047 8 28.639 8H24V4c0-2.173-1.826-4-4-4zm-.002 3h8a1 1 0 0 1 1 1v6a1 1 0 0 0 1 1h6.64c.352.001.516.591.256.826l-12.137 10.9A1.139 1.139 0 0 1 16 23h-.002a1.07 1.07 0 0 1-.73-.272L3.104 11.826c-.262-.235-.096-.826.256-.826h6.637a1 1 0 0 0 1-1V4a1 1 0 0 1 1-1zM0 21v5c0 3.29 2.71 6 6 6h20c3.29 0 6-2.71 6-6v-5h-3v4a4 4 0 0 1-4 4H7a4 4 0 0 1-4-4v-4z" fill="#62686a"/>
</svg>
