<?xml version="1.0" encoding="UTF-8"?>
<svg version="1.1" width="32" height="32" viewBox="0 0 32 32" xmlns="http://www.w3.org/2000/svg">
 <path d="m23.42 7.5c-0.69903-7.888e-4 -1.4182 0.26532-1.9941 0.79883l-9.918 9.1875-1.9473-2.1309c-1.0594-1.1588-2.7795-1.3001-3.8555-0.31641l-0.2988 0.27347c-1.076 0.98365-1.0887 2.7084-0.02929 3.8672l3.8242 4.1836c0.27579 0.30159 0.59729 0.53153 0.93945 0.69336 0.38232 0.19492 0.80952 0.28641 1.2422 0.27734 0.08477-0.0018 0.16896-8e-3 0.2539-0.01758 0.0019-2.16e-4 4e-3 1.53e-4 0.0059-4.3e-5 0.0072-7.92e-4 0.01416-0.0031 0.02141-0.0039 0.07608-0.0094 0.15279-0.01951 0.22852-0.03515 2e-3 -4.15e-4 0.0038-0.0015 0.0058-0.0021 0.04221-0.0091 0.0833-0.02002 0.125-0.03124 0.46188-0.11842 0.9098-0.35011 1.293-0.70508l11.961-11.082c1.1518-1.067 1.2818-2.786 0.29101-3.8555l-0.27539-0.29874c-0.49537-0.53472-1.174-0.80195-1.873-0.80274zm-7.4238-7.5a16 16 0 0 0-16 16 16 16 0 0 0 16 16 16 16 0 0 0 16-16 16 16 0 0 0-16-16zm0 1.8828a14.118 14.118 0 0 1 14.117 14.117 14.118 14.118 0 0 1-14.117 14.117 14.118 14.118 0 0 1-14.117-14.117 14.118 14.118 0 0 1 14.117-14.117z" fill="#62686a" />
</svg>
