<?xml version="1.0" encoding="UTF-8"?>
<svg version="1.1" width="32" height="32" viewBox="0 0 32 32" xmlns="http://www.w3.org/2000/svg">
 <path d="m12 27c-0.67836-0.01978-0.55535 1.7288 0 3 0.23119 0.49499 0.46905 0.91262 1 1h6c0.53095-0.08738 0.76881-0.50501 1-1 0.55535-1.2712 0.67836-3.0198 0-3-0.3937 0-0.23568 0.17732-0.48633 0.97266-0.44136 0.88271-0.51527 0.99652-1.5176 1.0273h-3.9922c-1.0023-0.03082-1.0762-0.14463-1.5176-1.0273-0.25065-0.79534-0.09263-0.97266-0.48633-0.97266zm4-27c-5 0-9 3-11 7-0.0511 0.33248-0.55792 1.4916-0.11133 3.332 0.39168 0.73255 0.85754 1.3574 1.1113 1.668 0.23591 1.5798 0.39165 3.1892 0 5-1.4143 1.3893-0.7838 4.7698 0 5 1.8128 1.0101 4.3524 0.75483 6 1-0.41165 0.83684-0.41027 1.4745 0 2 0.8458 1.0833 4 1 4 1s3.1542 0.08328 4-1c0.41027-0.52547 0.41165-1.1632 0-2 1.6476-0.24517 4.1872 0.01006 6-1 0.7838-0.23018 1.4143-3.6107 0-5-0.39165-1.8108-0.23591-3.4202 0-5 0.25379-0.31055 0.71965-0.93542 1.1113-1.668 0.44659-1.8405-0.0602-2.9996-0.11133-3.332-2-4-6-7-11-7zm-4.5 9c1.933 0 3.5 1.7909 3.5 4s-1.567 4-3.5 4-3.5-1.7909-3.5-4 1.567-4 3.5-4zm9 0c1.933 0 3.5 1.7909 3.5 4s-1.567 4-3.5 4-3.5-1.7909-3.5-4 1.567-4 3.5-4zm-4.5 9c1.0114 0 2.5 2.27 2.5 3.166 0 1 0.0568 1.1908 0 2.502 0 0.33155-1.5 0.33155-1.5 0v-0.67188c0-0.80411-0.45687-1.373-0.79102-1.373h-0.41796c-0.33415 0-0.79102 0.56894-0.79102 1.373v0.67188c0 0.33155-1.5 0.33155-1.5 0-0.0568-1.3112 0-1.502 0-2.502 0-0.89599 1.4886-3.166 2.5-3.166z" fill="#62686a"/>
</svg>
