<?xml version="1.0" encoding="utf-8"?>
<!-- Generator: Adobe Illustrator 15.0.0, SVG Export Plug-In . SVG Version: 6.00 Build 0)  -->
<!DOCTYPE svg PUBLIC "-//W3C//DTD SVG 1.1//EN" "http://www.w3.org/Graphics/SVG/1.1/DTD/svg11.dtd">
<svg version="1.1" id="Ebene_1" xmlns="http://www.w3.org/2000/svg" xmlns:xlink="http://www.w3.org/1999/xlink" x="0px" y="0px"
	 width="32px" height="32px" viewBox="0 0 32 32" enable-background="new 0 0 32 32" xml:space="preserve">
<path fill="#62686A" d="M29.739,5.116h-4.864C24.701,2.274,20.852,0,16.114,0c-4.735,0-8.585,2.274-8.759,5.116H2.124
	C0.95,5.116,0,6.136,0,7.393C0,8.649,0.95,9.67,2.124,9.67h1.072V32h25.489V9.67h1.054c1.173,0,2.125-1.02,2.125-2.277
	C31.864,6.135,30.912,5.116,29.739,5.116z M16.114,2.142c3.163,0,5.728,1.311,5.997,2.974H10.118
	C10.388,3.453,12.95,2.142,16.114,2.142z M10.63,26.748c0,1.26-0.952,2.279-2.124,2.279c-1.174,0-2.125-1.02-2.125-2.279
	l-0.01-13.662c0-1.257,0.952-2.278,2.125-2.278c1.172,0,2.124,1.021,2.124,2.278L10.63,26.748z M18.064,26.748
	c0,1.26-0.951,2.279-2.125,2.279c-1.172,0-2.125-1.02-2.125-2.279l-0.01-13.662c0-1.257,0.952-2.278,2.125-2.278
	c1.173,0,2.125,1.021,2.125,2.278L18.064,26.748z M25.499,26.748c0,1.26-0.95,2.279-2.124,2.279c-1.172,0-2.126-1.02-2.126-2.279
	l-0.01-13.662c0-1.257,0.95-2.278,2.126-2.278c1.17,0,2.124,1.021,2.124,2.278L25.499,26.748z"/>
</svg>
