<?xml version="1.0" encoding="UTF-8"?>
<svg version="1.1" width="32" height="32" viewBox="0 0 32 32" xmlns="http://www.w3.org/2000/svg">
 <path d="m27.461 19.033c-0.36998-4.18e-4 -0.75184 0.1395-1.0566 0.42188l-5.248 4.8633-1.0312-1.127c-0.5607-0.61333-1.4696-0.68858-2.0391-0.16797l-0.1582 0.14453c-0.56949 0.52061-0.57828 1.4335-0.01758 2.0469l2.0254 2.2148c0.1577 0.1725 0.34342 0.3007 0.54102 0.38672 0.0013 5.6e-4 0.0026 0.0014 0.0039 0.0019 0.18539 0.08531 0.38769 0.12722 0.59375 0.125 0.02817-1.03e-4 0.05596-0.0021 0.08398-0.0039 0.0026-1.68e-4 0.0052 2.35e-4 0.0079-1e-6 0.01883-0.0014 0.03781-0.0038 0.05664-0.0059 0.0012-1.14e-4 0.0026 1.88e-4 0.0039-3.8e-5 0.02337-0.0026 0.04712-0.0059 0.07031-0.0098 0.01892-0.0031 0.03778-6e-3 0.05664-0.0098 0.0032-6.34e-4 0.0066-0.0013 0.0097-2e-3 0.02234-0.0048 0.04433-0.01163 0.0664-0.01758 0.24444-0.06268 0.48081-0.18519 0.68359-0.37305l6.3301-5.8652c0.60961-0.56475 0.67867-1.475 0.1543-2.041l-0.14648-0.15606c-0.26222-0.28298-0.62026-0.42536-0.99023-0.42578zm-25.461-19.033c-1.108 3.2694e-7 -2 0.892-2 2l-1e-6 3 16 8 16-8v-3c0-1.108-0.892-2-2-2zm-2 9-1e-6 13c0 1.108 0.892 2 2 2h13.098a8.4684 8.4684 0 0 0 8.4336 8 8.4684 8.4684 0 0 0 8.4688-8.4688 8.4684 8.4684 0 0 0-0.07227-1.0234c0.04262-0.16295 0.07227-0.33114 0.07227-0.50781v-13l-16 8zm23.531 7.0586a7.4721 7.4721 0 0 1 7.4727 7.4727 7.4721 7.4721 0 0 1-7.4727 7.4727 7.4721 7.4721 0 0 1-7.4727-7.4727 7.4721 7.4721 0 0 1 7.4727-7.4727z" fill="#62686a"/>
</svg>
