<?xml version="1.0" encoding="UTF-8"?>
<svg version="1.1" width="32" height="32" viewBox="0 0 32 32" xmlns="http://www.w3.org/2000/svg">
 <path d="M22 12v13c0 .554-.446 1-1 1s-1-.446-1-1V12c0-.554.446-1 1-1s1 .446 1 1zm-5 0v13c0 .554-.446 1-1 1s-1-.446-1-1V12c0-.554.446-1 1-1s1 .446 1 1zm-5 0v13c0 .554-.446 1-1 1s-1-.446-1-1V12c0-.554.446-1 1-1s1 .446 1 1zM9.5 0C8.669 0 8 .669 8 1.5V5H3c-.831 0-1.5.669-1.5 1.5S2.169 8 3 8h1v21a3 3 0 0 0 3 3h18a3 3 0 0 0 3-3V8h1c.831 0 1.5-.669 1.5-1.5S29.831 5 29 5h-5V1.5c0-.831-.669-1.5-1.5-1.5zM11 3h10v2H11zM7 8h18v20a1 1 0 0 1-1 1H8a1 1 0 0 1-1-1z" fill="#62686a"/>
</svg>
