<?xml version="1.0" encoding="utf-8"?>
<!-- Generator: Adobe Illustrator 16.2.1, SVG Export Plug-In . SVG Version: 6.00 Build 0)  -->
<!DOCTYPE svg PUBLIC "-//W3C//DTD SVG 1.1//EN" "http://www.w3.org/Graphics/SVG/1.1/DTD/svg11.dtd">
<?xml-stylesheet type="text/css" href="../../../../pixelegg/less/svg.css" ?>
<svg version="1.1" id="notifications_navbar" xmlns="http://www.w3.org/2000/svg" xmlns:xlink="http://www.w3.org/1999/xlink" x="0px"
	 y="0px" width="28.347px" height="28.347px" viewBox="0 0 28.347 28.347" enable-background="new 0 0 28.347 28.347"
	 xml:space="preserve">
<g>
	<path fill-rule="evenodd" clip-rule="evenodd" fill="#696969" d="M16.597,11.292c-0.433-0.202-0.949-0.016-1.151,0.418l-1.652,3.55
		l-1.545-0.741c-0.431-0.205-0.948-0.023-1.154,0.408c-0.207,0.431-0.025,0.948,0.405,1.155l2.343,1.122
		c0.431,0.206,0.947,0.024,1.154-0.406c0.007-0.015,0.006-0.031,0.013-0.046l2.006-4.309C17.217,12.009,17.03,11.495,16.597,11.292z
		"/>
	<path fill-rule="evenodd" clip-rule="evenodd" fill="#696969" d="M14.315,5.586c-5.251,0-9.506,4.281-9.506,9.562
		c0,2.354,0.849,4.506,2.253,6.172l-2.225,3.853c-0.239,0.413-0.097,0.942,0.317,1.183c0.413,0.238,0.942,0.097,1.183-0.317
		l1.998-3.461c1.634,1.331,3.713,2.132,5.979,2.132c2.226,0,4.267-0.773,5.885-2.062l1.958,3.391c0.24,0.414,0.77,0.556,1.183,0.317
		c0.415-0.24,0.557-0.77,0.317-1.183l-2.17-3.761c1.45-1.679,2.334-3.865,2.334-6.264C23.822,9.867,19.567,5.586,14.315,5.586z
		 M14.315,22.123c-3.822,0-6.921-3.098-6.921-6.92c0-3.823,3.099-6.922,6.921-6.922c3.823,0,6.922,3.099,6.922,6.922
		C21.237,19.025,18.139,22.123,14.315,22.123z"/>
	<circle fill-rule="evenodd" clip-rule="evenodd" fill="#696969" cx="14.315" cy="3.083" r="1.731"/>
	<path fill-rule="evenodd" clip-rule="evenodd" fill="#696969" d="M10.446,4.069L9.423,2.45C8.451,0.667,6.326,1.559,6.326,1.559
		L4.29,2.923C2.161,4.75,3.44,6.282,3.44,6.282l1.802,2.014C5.242,8.295,6.541,5.602,10.446,4.069z"/>
	<path fill-rule="evenodd" clip-rule="evenodd" fill="#696969" d="M24.341,2.923l-2.036-1.364c0,0-2.124-0.892-3.097,0.891
		l-1.021,1.619c3.904,1.533,5.203,4.227,5.203,4.227l1.803-2.014C25.192,6.282,26.47,4.75,24.341,2.923z"/>
</g>
</svg>
