<?xml version="1.0" encoding="UTF-8"?>
<svg version="1.1" width="32" height="32" viewBox="0 0 32 32" xmlns="http://www.w3.org/2000/svg">
 <path d="M28.763 2.02 26.171.285s-2.704-1.136-3.943 1.134l-1.3 2.061c4.97 1.952 6.624 5.382 6.624 5.382l2.296-2.564c-.001 0 1.625-1.95-1.085-4.277zM11.074 3.48 9.772 1.417C8.534-.852 5.829.284 5.829.284L3.237 2.02C.527 4.346 2.155 6.297 2.155 6.297L4.449 8.86c0-.001 1.654-3.43 6.625-5.382zm7.13-1.256A2.204 2.204 0 0 1 16 4.428a2.204 2.204 0 0 1-2.204-2.204A2.204 2.204 0 0 1 16 .02a2.204 2.204 0 0 1 2.203 2.204zM16 5.411c-6.685 0-12.102 5.45-12.102 12.173a12.15 12.15 0 0 0 2.868 7.857l-2.833 4.905a1.104 1.104 0 0 0 1.91 1.103l2.543-4.407a12.011 12.011 0 0 0 7.612 2.715c2.834 0 5.432-.984 7.492-2.625l2.493 4.317a1.103 1.103 0 0 0 1.91-1.103l-2.763-4.788a12.157 12.157 0 0 0 2.97-7.974C28.103 10.86 22.686 5.41 16 5.41zm0 21.053a8.812 8.812 0 1 1 .002-17.62 8.812 8.812 0 0 1-.003 17.62zm2.905-13.79a1.102 1.102 0 0 0-1.466.533l-2.103 4.52-1.967-.944a1.103 1.103 0 0 0-.953 1.99l2.983 1.428c.548.262 1.205.03 1.469-.517.009-.019.007-.04.016-.058l2.554-5.486a1.105 1.105 0 0 0-.533-1.465z" fill="#62686a" />
</svg>
