<?xml version="1.0" encoding="utf-8"?>
<!-- Generator: Adobe Illustrator 15.0.0, SVG Export Plug-In . SVG Version: 6.00 Build 0)  -->
<!DOCTYPE svg PUBLIC "-//W3C//DTD SVG 1.1//EN" "http://www.w3.org/Graphics/SVG/1.1/DTD/svg11.dtd">
<svg version="1.1" id="Ebene_1" xmlns="http://www.w3.org/2000/svg" xmlns:xlink="http://www.w3.org/1999/xlink" x="0px" y="0px"
	 width="32px" height="32px" viewBox="0 0 32 32" enable-background="new 0 0 32 32" xml:space="preserve">
<g>
	<path fill="#666666" d="M11.716,30.993c-0.552,0-1-0.447-1-1V17.819h-7.93c-0.268,0-0.524-0.107-0.712-0.298
		c-1.546-1.57-1.546-3.096,0-4.664L13.16,2.078c0.737-0.747,1.737-1.165,2.801-1.165s2.063,0.419,2.813,1.18L29.906,12.84
		c1.569,1.587,1.569,3.113,0.017,4.682c-0.188,0.19-0.443,0.297-0.711,0.297l-7.928-0.001v12.175c0,0.553-0.447,1-1,1H11.716z"/>
	<path fill="#666666" d="M15.96,1.913c0.761,0,1.522,0.294,2.101,0.882l11.15,10.765c1.163,1.177,1.163,2.084,0,3.26H25.43v-0.001
		H20.5v-0.236h-0.216v13.411h-8.568V16.582h-0.528v0.237H9.27H6.259H2.786c-1.16-1.178-1.16-2.083,0-3.26L13.857,2.795
		C14.438,2.207,15.199,1.913,15.96,1.913 M15.96-0.087c-1.333,0-2.585,0.524-3.526,1.476L1.392,12.125
		c-1.958,1.986-1.958,4.141-0.031,6.097c0.376,0.382,0.889,0.597,1.425,0.597h3.473H9.27h0.447v11.174c0,1.104,0.896,2,2,2h8.568
		c1.104,0,2-0.896,2-2V18.818h3.146l3.781,0.001c0.001,0,0.001,0,0.001,0c0.534,0,1.046-0.214,1.422-0.594
		c1.937-1.957,1.937-4.113,0.001-6.072L19.45,1.356C18.546,0.438,17.294-0.087,15.96-0.087L15.96-0.087z"/>
</g>
</svg>
