<?xml version="1.0" encoding="utf-8"?>
<!-- Generator: Adobe Illustrator 15.0.0, SVG Export Plug-In . SVG Version: 6.00 Build 0)  -->
<!DOCTYPE svg PUBLIC "-//W3C//DTD SVG 1.1//EN" "http://www.w3.org/Graphics/SVG/1.1/DTD/svg11.dtd">
<svg version="1.1" id="Ebene_1" xmlns="http://www.w3.org/2000/svg" xmlns:xlink="http://www.w3.org/1999/xlink" x="0px" y="0px"
	 width="32px" height="32px" viewBox="0 0 32 32" enable-background="new 0 0 32 32" xml:space="preserve">
<polygon fill="#62686A" points="7.375,12.737 0.438,12.737 0.438,19.259 7.376,19.259 7.376,12.737 "/>
<polygon fill="#62686A" points="15.375,12.737 8.438,12.737 8.438,12.737 8.438,19.259 8.438,19.259 15.376,19.259 15.376,12.737 
	"/>
<polygon fill="#62686A" points="23.469,12.737 16.531,12.737 16.531,19.259 23.469,19.259 23.47,19.259 23.47,12.737 "/>
<polygon fill="#62686A" points="31.438,12.739 24.5,12.739 24.5,19.261 31.438,19.261 31.438,19.261 31.438,12.739 "/>
<polygon fill="#62686A" points="7.437,24.791 0.5,24.791 0.5,31.312 7.438,31.312 7.438,24.791 "/>
<polygon fill="#62686A" points="15.437,24.791 8.5,24.791 8.499,24.791 8.499,31.312 8.5,31.312 15.438,31.312 15.438,24.791 "/>
<polygon fill="#62686A" points="23.53,24.791 16.593,24.791 16.593,31.312 23.53,31.312 23.531,31.312 23.531,24.791 "/>
<polygon fill="#62686A" points="31.499,24.791 24.562,24.791 24.562,31.312 31.499,31.312 31.5,31.312 31.5,24.791 "/>
<polygon fill="#62686A" points="7.437,0.55 0.5,0.55 0.5,7.071 7.438,7.071 7.438,0.55 "/>
<polygon fill="#62686A" points="15.437,0.55 8.5,0.55 8.499,0.55 8.499,7.071 8.5,7.071 15.438,7.071 15.438,0.55 "/>
<polygon fill="#62686A" points="23.53,0.55 16.593,0.55 16.593,7.071 23.53,7.071 23.531,7.071 23.531,0.55 "/>
<polygon fill="#62686A" points="31.499,0.552 24.562,0.552 24.562,7.073 31.499,7.073 31.5,7.073 31.5,0.552 "/>
</svg>
