<?xml version="1.0" encoding="utf-8"?>
<!-- Generator: Adobe Illustrator 16.2.1, SVG Export Plug-In . SVG Version: 6.00 Build 0)  -->
<!DOCTYPE svg PUBLIC "-//W3C//DTD SVG 1.1//EN" "http://www.w3.org/Graphics/SVG/1.1/DTD/svg11.dtd">
<?xml-stylesheet type="text/css" href="../../../../pixelegg/less/svg.css" ?>
<svg version="1.1" id="filemanager_navbar" xmlns="http://www.w3.org/2000/svg" xmlns:xlink="http://www.w3.org/1999/xlink" x="0px"
	 y="0px" width="28.347px" height="28.347px" viewBox="0 0 28.347 28.347" enable-background="new 0 0 28.347 28.347"
	 xml:space="preserve">
<g>
	<polygon fill-rule="evenodd" clip-rule="evenodd" fill="#F9d730" points="24.45,8.459 25.252,4.452 14.032,4.452 14.032,2.849
		2.812,2.849 3.614,8.459 	"/>
	<path fill-rule="evenodd" clip-rule="evenodd" fill="#F9d730" d="M21.645,15.672c1.025,0,1.991,0.258,2.835,0.71l2.375-7.122H1.21
		l4.809,14.425h9.966c-0.223-0.627-0.35-1.3-0.35-2.003C15.635,18.361,18.326,15.672,21.645,15.672z"/>
	<path fill-rule="evenodd" clip-rule="evenodd" fill="#F9d730" d="M21.645,17.18c-2.485,0-4.501,2.016-4.501,4.502
		s2.016,4.501,4.501,4.501c2.486,0,4.502-2.015,4.502-4.501S24.131,17.18,21.645,17.18z M24.401,21.326l-2.882,2.4
		c-0.097,0.081-0.214,0.129-0.335,0.16c-0.075,0.025-0.15,0.039-0.228,0.037c-0.213,0.003-0.428-0.061-0.591-0.197
		c-0.116-0.096-0.174-0.217-0.205-0.34l-0.589-0.589c-0.258-0.259-0.258-0.677,0-0.936c0.258-0.258,0.677-0.258,0.936,0l0.43,0.429
		l2.311-1.926c0.318-0.264,0.834-0.264,1.153,0C24.718,20.631,24.718,21.061,24.401,21.326z"/>
</g>
</svg>
