<?xml version="1.0" encoding="utf-8"?>
<!-- Generator: Adobe Illustrator 16.2.1, SVG Export Plug-In . SVG Version: 6.00 Build 0)  -->
<!DOCTYPE svg PUBLIC "-//W3C//DTD SVG 1.1//EN" "http://www.w3.org/Graphics/SVG/1.1/DTD/svg11.dtd">
<?xml-stylesheet type="text/css" href="../../../../pixelegg/less/svg.css" ?>
<?xml-stylesheet type="text/css" href="../../../../pixelegg/less/svg.css" ?>
<?xml-stylesheet type="text/css" href="../../../../pixelegg/less/svg.css" ?>
<?xml-stylesheet type="text/css" href="../../../../pixelegg/less/svg.css" ?>
<svg version="1.1" id="filemanager_navbar" xmlns="http://www.w3.org/2000/svg" xmlns:xlink="http://www.w3.org/1999/xlink" x="0px" y="0px"
	 width="28.347px" height="28.347px" viewBox="0 0 28.347 28.347" enable-background="new 0 0 28.347 28.347" xml:space="preserve">
<g>
	<path fill-rule="evenodd" clip-rule="evenodd" fill="#ECEDED" d="M0,0v28.347h28.348V0H0z M14.135,2.813v1.603h11.22l-0.802,4.007
		H3.717l-0.802-5.61H14.135z M21.747,26.146c-2.485,0-4.501-2.015-4.501-4.501s2.016-4.502,4.501-4.502
		c2.486,0,4.502,2.016,4.502,4.502S24.233,26.146,21.747,26.146z M24.582,16.346c-0.844-0.452-1.81-0.71-2.835-0.71
		c-3.318,0-6.01,2.689-6.01,6.01c0,0.703,0.127,1.376,0.35,2.003H6.121L1.312,9.224h25.645L24.582,16.346z"/>
	<path fill-rule="evenodd" clip-rule="evenodd" fill="#ECEDED" d="M23.351,20.329l-2.311,1.926l-0.43-0.429
		c-0.259-0.258-0.678-0.258-0.936,0c-0.258,0.259-0.258,0.677,0,0.936l0.589,0.589c0.031,0.123,0.089,0.244,0.205,0.34
		c0.163,0.137,0.378,0.2,0.591,0.197c0.077,0.002,0.152-0.012,0.228-0.037c0.121-0.031,0.238-0.079,0.335-0.16l2.882-2.4
		c0.316-0.266,0.316-0.695,0-0.961C24.185,20.065,23.669,20.065,23.351,20.329z"/>
</g>
</svg>
