<?xml version="1.0" encoding="utf-8"?>
<!-- Generator: Adobe Illustrator 16.2.1, SVG Export Plug-In . SVG Version: 6.00 Build 0)  -->
<!DOCTYPE svg PUBLIC "-//W3C//DTD SVG 1.1//EN" "http://www.w3.org/Graphics/SVG/1.1/DTD/svg11.dtd">
<svg version="1.1" id="Ebene_1" xmlns="http://www.w3.org/2000/svg" xmlns:xlink="http://www.w3.org/1999/xlink" x="0px" y="0px"
	 width="28.347px" height="28.347px" viewBox="0 0 28.347 28.347" enable-background="new 0 0 28.347 28.347" xml:space="preserve">
<g>
	<path fill-rule="evenodd" clip-rule="evenodd" fill="#ECEDED" d="M24.805,0.001H3.543C1.586,0.001,0,1.587,0,3.544v21.259
		c0,1.957,1.586,3.543,3.543,3.543h21.262c1.957,0,3.543-1.586,3.543-3.543V3.544C28.348,1.587,26.762,0.001,24.805,0.001z
		 M14.139,2.816v1.603h11.22l-0.802,4.007H3.721l-0.802-5.61H14.139z M21.751,26.149c-2.485,0-4.501-2.015-4.501-4.5
		c0-2.486,2.016-4.502,4.501-4.502c2.486,0,4.502,2.016,4.502,4.502C26.253,24.135,24.237,26.149,21.751,26.149z M24.586,16.349
		c-0.844-0.452-1.81-0.71-2.835-0.71c-3.318,0-6.01,2.69-6.01,6.011c0,0.703,0.127,1.375,0.35,2.002H6.125L1.316,9.228h25.645
		L24.586,16.349z"/>
	<path fill-rule="evenodd" clip-rule="evenodd" fill="#ECEDED" d="M24.508,21.294l-2.882,2.4c-0.097,0.08-0.214,0.129-0.335,0.16
		c-0.075,0.024-0.15,0.039-0.228,0.037c-0.213,0.002-0.428-0.061-0.591-0.197c-0.116-0.096-0.174-0.217-0.205-0.34l-0.589-0.59
		c-0.258-0.258-0.258-0.677,0-0.936c0.258-0.258,0.677-0.258,0.936,0l0.43,0.43l2.311-1.926c0.318-0.265,0.834-0.265,1.153,0
		C24.824,20.599,24.824,21.028,24.508,21.294z"/>
</g>
</svg>
