<?xml version="1.0" encoding="utf-8"?>
<!-- Generator: Adobe Illustrator 16.2.1, SVG Export Plug-In . SVG Version: 6.00 Build 0)  -->
<!DOCTYPE svg PUBLIC "-//W3C//DTD SVG 1.1//EN" "http://www.w3.org/Graphics/SVG/1.1/DTD/svg11.dtd">
<svg version="1.1" id="download_as_zip" xmlns="http://www.w3.org/2000/svg" xmlns:xlink="http://www.w3.org/1999/xlink" x="0px"
	 y="0px" width="28.347px" height="28.347px" viewBox="0 0 28.347 28.347" style="enable-background:new 0 0 28.347 28.347;"
	 xml:space="preserve">
<style type="text/css">
<![CDATA[
	.st0{fill:#ECECED;}
	.st1{clip-path:url(#SVGID_2_);fill-rule:evenodd;clip-rule:evenodd;fill:#ECECED;}
	.st2{clip-path:url(#SVGID_4_);fill:#ECECED;}
]]>
</style>
<g>
	<g>
		<defs>
			<rect id="SVGID_1_" x="0.042" y="0.046" width="28.262" height="28.255"/>
		</defs>
		<clipPath id="SVGID_2_">
			<use xlink:href="#SVGID_1_"  style="overflow:visible;"/>
		</clipPath>
		<path class="st1" d="M15.108,17.001"/>
	</g>
	<polygon class="st0" points="0.761,0.045 0.761,1.641 6.409,1.641 0.042,7.753 0.042,9.471 9.89,9.471 9.89,7.882 2.994,7.882 
		9.634,1.524 9.634,0.045 	"/>
	<rect x="12.8" y="0.045" class="st0" width="2.447" height="9.425"/>
	<g>
		<defs>
			<rect id="SVGID_3_" x="0.042" y="0.046" width="28.262" height="28.255"/>
		</defs>
		<clipPath id="SVGID_4_">
			<use xlink:href="#SVGID_3_"  style="overflow:visible;"/>
		</clipPath>
		<path class="st2" d="M21.466,9.471V5.915h1.596c1.107,0,1.954-0.045,2.539-0.136c0.43-0.071,0.854-0.221,1.27-0.445
			c0.415-0.227,0.758-0.535,1.028-0.93s0.405-0.881,0.405-1.46c0-0.75-0.234-1.361-0.702-1.835c-0.47-0.474-1.05-0.781-1.745-0.923
			c-0.452-0.094-1.422-0.141-2.91-0.141h-3.928v9.425H21.466z M22.648,1.64c0.882,0,1.469,0.021,1.761,0.064
			c0.396,0.056,0.725,0.194,0.984,0.418c0.259,0.223,0.389,0.506,0.389,0.849c0,0.279-0.093,0.523-0.277,0.733
			s-0.439,0.363-0.765,0.463c-0.325,0.098-0.97,0.146-1.935,0.146h-1.34V1.64H22.648z"/>
		<path class="st2" d="M18.12,15.763c-6.784,0.249-10.867-2.849-14.316-6.294c0,8.186,7.11,14.634,14.316,14.707v4.125l10.177-8.348
			L18.12,11.605V15.763z"/>
	</g>
</g>
</svg>
