<?xml version="1.0" encoding="UTF-8" standalone="no"?>
<!-- Generator: Adobe Illustrator 15.0.0, SVG Export Plug-In . SVG Version: 6.00 Build 0)  -->

<svg
   xmlns:dc="http://purl.org/dc/elements/1.1/"
   xmlns:cc="http://creativecommons.org/ns#"
   xmlns:rdf="http://www.w3.org/1999/02/22-rdf-syntax-ns#"
   xmlns:svg="http://www.w3.org/2000/svg"
   xmlns="http://www.w3.org/2000/svg"
   xmlns:sodipodi="http://sodipodi.sourceforge.net/DTD/sodipodi-0.dtd"
   xmlns:inkscape="http://www.inkscape.org/namespaces/inkscape"
   version="1.1"
   id="Ebene_1"
   x="0px"
   y="0px"
   width="32px"
   height="32px"
   viewBox="0 0 32 32"
   enable-background="new 0 0 32 32"
   xml:space="preserve"
   inkscape:version="0.91 r13725"
   sodipodi:docname="import.svg"><metadata
     id="metadata13"><rdf:RDF><cc:Work
         rdf:about=""><dc:format>image/svg+xml</dc:format><dc:type
           rdf:resource="http://purl.org/dc/dcmitype/StillImage" /></cc:Work></rdf:RDF></metadata><defs
     id="defs11" /><sodipodi:namedview
     pagecolor="#ffffff"
     bordercolor="#666666"
     borderopacity="1"
     objecttolerance="10"
     gridtolerance="10"
     guidetolerance="10"
     inkscape:pageopacity="0"
     inkscape:pageshadow="2"
     inkscape:window-width="1535"
     inkscape:window-height="876"
     id="namedview9"
     showgrid="false"
     inkscape:zoom="7.375"
     inkscape:cx="16"
     inkscape:cy="16"
     inkscape:window-x="65"
     inkscape:window-y="24"
     inkscape:window-maximized="1"
     inkscape:current-layer="Ebene_1" /><g
     id="g3"
     transform="matrix(0,1,-1,0,32.201,-0.2)"><g
       id="g5"><path
         stroke-miterlimit="10"
         d="m 30.717,6.313 c 0,-2.675 -2.166,-4.844 -4.839,-4.844 l -19.355,0 c -2.673,0 -4.839,2.168 -4.839,4.844 l 0,19.375 c 0,2.674 2.166,4.844 4.839,4.844 l 19.354,0 c 2.673,0 4.839,-2.17 4.839,-4.844 l 0,-2.156 -2.903,0 0,1.188 c 0,1.605 -1.3,2.906 -2.903,2.906 l -17.419,0 c -1.604,0 -2.903,-1.301 -2.903,-2.906 l 0,-17.439 c 0,-1.605 1.3,-2.906 2.903,-2.906 l 17.419,0 c 1.604,0 2.903,1.301 2.903,2.906 l 0,1.25 2.903,0 0,-2.218 z m -23.032,9.222 4.185,3.202 6.276,4.803 0,-4.803 12.554,0 0,-6.403 -12.554,0 0,-4.803 -10.461,8.004 z"
         id="path7"
         inkscape:connector-curvature="0"
         style="fill:#696969;stroke:#696969;stroke-miterlimit:10" /></g></g></svg>