<?xml version="1.0" encoding="UTF-8" standalone="no"?>
<svg
   fill="currentColor"
   class="bi bi-linkpaste"
   viewBox="0 0 16 16"
   version="1.1"
   xmlns="http://www.w3.org/2000/svg"
   xmlns:svg="http://www.w3.org/2000/svg">
  <path
     d="M4 1.5H3a2 2 0 0 0-2 2V14a2 2 0 0 0 2 2h10a2 2 0 0 0 2-2V3.5a2 2 0 0 0-2-2h-1v1h1a1 1 0 0 1 1 1V14a1 1 0 0 1-1 1H3a1 1 0 0 1-1-1V3.5a1 1 0 0 1 1-1h1z"
     />
  <path
     d="M9.5 1a.5.5 0 0 1 .5.5v1a.5.5 0 0 1-.5.5h-3a.5.5 0 0 1-.5-.5v-1a.5.5 0 0 1 .5-.5zm-3-1A1.5 1.5 0 0 0 5 1.5v1A1.5 1.5 0 0 0 6.5 4h3A1.5 1.5 0 0 0 11 2.5v-1A1.5 1.5 0 0 0 9.5 0z"
     />
  <path
     d="M 5.206079,8.6590509 4.0382927,9.7473935 a 2.5536849,2.3799598 0 1 0 3.6114556,3.3657715 l 1.5559133,-1.45086 A 2.5534684,2.379758 0 0 0 8.5009042,7.8324816 L 8.0021268,8.2973277 A 0.85115613,0.79325267 0 0 0 7.8710488,8.4551849 1.7023123,1.5865053 0 0 1 8.6038942,11.102269 L 7.048832,12.552335 A 1.703259,1.5873876 0 1 1 4.6400601,10.30743 L 5.315027,9.6791738 A 3.4046246,3.1730106 0 0 1 5.206079,8.6582577 Z"
      />
  <path
     d="m 6.7985921,7.1756685 a 2.5534684,2.379758 0 0 0 0.7047572,3.8298235 l 0.659646,-0.615564 A 1.7023123,1.5865053 0 0 1 7.4003595,7.7357047 L 8.9554216,6.2856389 A 1.7032592,1.5873878 0 1 1 11.364194,8.530544 l -0.674967,0.6282562 c 0.09533,0.333166 0.13193,0.678231 0.108945,1.0209168 L 11.965961,9.0913736 A 2.5536848,2.3799597 0 1 0 8.3545054,5.7256025 Z"
     />
</svg>