<?xml version="1.0" encoding="utf-8"?>
<!-- Generator: Adobe Illustrator 15.0.0, SVG Export Plug-In . SVG Version: 6.00 Build 0)  -->
<!DOCTYPE svg PUBLIC "-//W3C//DTD SVG 1.1//EN" "http://www.w3.org/Graphics/SVG/1.1/DTD/svg11.dtd">
<svg version="1.1" id="Ebene_1" xmlns="http://www.w3.org/2000/svg" xmlns:xlink="http://www.w3.org/1999/xlink" x="0px" y="0px"
	 width="32px" height="32px" viewBox="0 0 32 32" enable-background="new 0 0 32 32" xml:space="preserve">
<g>
	<g>
		<path fill="#757B7D" d="M0.628,13.042l5.75,16.292h19.167l5.75-16.292H0.628z M27.461,10.45l0.96-2.484
			c0-0.901-0.744-1.632-1.663-1.632H15.961c0-1.059-0.858-1.917-1.917-1.917H5.42c-1.059,0-1.917,0.858-1.917,1.917l0.958,4.117
			L27.461,10.45L27.461,10.45z"/>
	</g>
</g>
<g>
	<path fill="#757B7D" d="M23.812,31.5c-4.239,0-7.688-3.448-7.688-7.688c0-4.24,3.448-7.688,7.688-7.688
		c4.239,0,7.688,3.448,7.688,7.688C31.5,28.052,28.052,31.5,23.812,31.5z"/>
	<path fill="#FEFEFE" d="M23.812,16.625c3.963,0,7.188,3.225,7.188,7.188S27.775,31,23.812,31s-7.188-3.225-7.188-7.188
		S19.85,16.625,23.812,16.625 M23.812,15.625c-4.521,0-8.188,3.666-8.188,8.188c0,4.522,3.667,8.188,8.188,8.188
		C28.333,32,32,28.334,32,23.812C32,19.29,28.334,15.625,23.812,15.625L23.812,15.625z"/>
</g>
<g>
	<g>
		<path fill="#F5F5F5" d="M29.333,25.32h-4.224v4.222h-2.812V25.32h-4.221v-2.812h4.221v-4.22h2.812v4.22h4.224V25.32z"/>
	</g>
</g>
</svg>
