<?xml version="1.0" encoding="UTF-8"?>
<svg version="1.1" width="32" height="32" viewBox="0 0 32 32" xmlns="http://www.w3.org/2000/svg">
 <path d="M26 20a6 6 0 0 0-6 6 6 6 0 0 0 6 6 6 6 0 0 0 6-6 6 6 0 0 0-6-6zm-1 2h2v3h3v2h-3v3h-2v-3h-3v-2h3zM4.295 4a1.778 1.778 0 0 0-1.768 1.986l.46 3.899a.131.131 0 0 0 .13.115H29l.237-2.014A1.778 1.778 0 0 0 27.47 6H15a2 2 0 0 0-2-2zm-2.52 7a1.776 1.776 0 0 0-1.763 1.986l1.555 13.027A2.253 2.253 0 0 0 3.803 28H18.27a8 8 0 0 1-.27-2 8 8 0 0 1 8-8 8 8 0 0 1 5.164 1.892l.825-6.906A1.776 1.776 0 0 0 30.225 11z" fill="#62686a" />
</svg>
