<?xml version="1.0" encoding="utf-8"?>
<!-- Generator: Adobe Illustrator 15.0.0, SVG Export Plug-In . SVG Version: 6.00 Build 0)  -->
<!DOCTYPE svg PUBLIC "-//W3C//DTD SVG 1.1//EN" "http://www.w3.org/Graphics/SVG/1.1/DTD/svg11.dtd">
<svg version="1.1" id="Ebene_1" xmlns="http://www.w3.org/2000/svg" xmlns:xlink="http://www.w3.org/1999/xlink" x="0px" y="0px"
	 width="32px" height="32px" viewBox="0 0 32 32" enable-background="new 0 0 32 32" xml:space="preserve">
<g>
	<g>
		<path fill="#696969" d="M26.059,6.162c0-1.134-0.92-2.054-2.054-2.054h-3.081v2.567c0,0.85-0.384,1.541-0.856,1.541H7.401
			c-0.472,0-0.855-0.69-0.855-1.541V4.108H3.465c-1.134,0-2.054,0.92-2.054,2.054v23.621c0,1.135,0.92,2.054,2.054,2.054h8.216
			V14.377c0-1.134,0.919-2.054,2.054-2.054h12.324V6.162z M18.836,29.782h-2.534v-1.541h2.534v-1.54h-2.534V25.16h2.534v-7.188
			h-4.074v13.863h11.297v-1.507h-7.223V29.782z M9.627,7.188h8.215c0.568,0,1.028-0.46,1.028-1.027V4.108
			c0-0.568-0.46-1.027-1.028-1.027h-1.088c0.04-0.166,0.062-0.338,0.062-0.513C16.815,1.149,15.436,0,13.735,0
			c-1.702,0-3.081,1.149-3.081,2.567c0,0.175,0.021,0.347,0.062,0.513H9.627C9.059,3.081,8.6,3.54,8.6,4.108v2.054
			C8.6,6.729,9.059,7.188,9.627,7.188z M12.708,2.054h2.054v2.054h-2.054V2.054z M27.085,15.405h-7.188v13.864h11.296v-9.756h-4.108
			V15.405z M29.652,27.215h-8.215v-1.541h8.215V27.215z M29.652,22.594v1.54h-8.215v-1.54H29.652z M28.459,15.405h-0.347v3.082
			h3.081v-0.501L28.459,15.405z"/>
	</g>
</g>
</svg>
