<?xml version="1.0" encoding="UTF-8" standalone="no"?>

<svg
   version="1.1"
   width="52.235px"
   height="52.235px"
   viewBox="0 0 52.235 52.235"
   xmlns="http://www.w3.org/2000/svg"
   xmlns:svg="http://www.w3.org/2000/svg">
<path
   d="m 44.637042,7.6873947 c -10.186,-10.212 -26.72,-10.237 -36.933999,-0.053 -10.214,10.1850003 -10.238,26.7230003 -0.056,36.9370003 10.185999,10.215 26.727999,10.236 36.936999,0.051 10.214,-10.184 10.24,-26.718 0.053,-36.9350003 z"
   style="fill:CurrentColor" />

<path
   d="m 12.043353,15.602352 0.487225,4.146741 a 0.13935946,0.13935946 0 0 0 0.138295,0.123403 h 27.53573 L 40.45672,17.729977 A 1.8914589,1.8914589 0 0 0 38.576967,15.617245 H 25.311222 a 2.1276252,2.1276252 0 0 0 -2.127623,-2.127626 h -9.262616 a 1.8914589,1.8914589 0 0 0 -1.879764,2.112733 z M 9.3668009,23.04904 11.021022,36.90839 a 2.3967699,2.3967699 0 0 0 2.378688,2.112733 h 25.949584 a 2.3967699,2.3967699 0 0 0 2.379751,-2.112733 l 1.65422,-13.85935 A 1.8893313,1.8893313 0 0 0 41.50777,20.936307 H 11.241235 A 1.8893313,1.8893313 0 0 0 9.3657286,23.04904 Z"
   style="fill:#ffffff;" /></svg>
