<?xml version="1.0" encoding="utf-8"?>
<!-- Generator: Adobe Illustrator 15.0.0, SVG Export Plug-In . SVG Version: 6.00 Build 0)  -->
<!DOCTYPE svg PUBLIC "-//W3C//DTD SVG 1.1//EN" "http://www.w3.org/Graphics/SVG/1.1/DTD/svg11.dtd">
<svg version="1.1" id="Ebene_1" xmlns="http://www.w3.org/2000/svg" xmlns:xlink="http://www.w3.org/1999/xlink" x="0px" y="0px"
	 width="32px" height="32px" viewBox="0 0 32 32" enable-background="new 0 0 32 32" xml:space="preserve">
<g>
	<g>
		<path fill="#696969" d="M9.281,7.214h8.244c0.568,0,1.03-0.462,1.03-1.031V4.122c0-0.57-0.462-1.03-1.03-1.03h-1.093
			c0.04-0.167,0.062-0.339,0.062-0.516C16.495,1.153,15.11,0,13.403,0c-1.708,0-3.092,1.153-3.092,2.576
			c0,0.176,0.021,0.348,0.062,0.516H9.281c-0.569,0-1.03,0.46-1.03,1.03v2.061C8.251,6.752,8.712,7.214,9.281,7.214z M12.373,2.061
			h2.061v2.061h-2.061V2.061z M11.876,22.797L25.77,8.576V6.183c0-1.138-0.923-2.061-2.062-2.061h-3.091v2.576
			c0,0.854-0.385,1.546-0.859,1.546H7.048c-0.474,0-0.858-0.692-0.858-1.546V4.122H3.098c-1.138,0-2.061,0.923-2.061,2.061v23.702
			c0,1.139,0.923,2.062,2.061,2.062h14.331l-5.864-5.75C10.714,25.366,10.854,23.844,11.876,22.797z M29.851,14.564
			c-1.494-1.481-3.582-1.562-4.965-0.19l-0.975,0.968c-0.376,0.373-0.378,0.979-0.006,1.354c0.374,0.376,0.979,0.378,1.355,0.005
			l0.975-0.968c0.717-0.71,1.653-0.417,2.266,0.191c0.327,0.323,0.505,0.753,0.505,1.209s-0.179,0.886-0.504,1.209l-3.072,3.048
			c-1.404,1.394-2.063,0.739-2.344,0.46c-0.376-0.373-0.982-0.371-1.354,0.005c-0.374,0.375-0.371,0.982,0.005,1.354
			c0.644,0.64,1.381,0.957,2.151,0.957c0.945,0,1.943-0.477,2.892-1.418l3.072-3.048c0.69-0.685,1.07-1.598,1.07-2.567
			C30.922,16.163,30.542,15.25,29.851,14.564z M21.125,25.66l-0.782,0.777c-0.678,0.672-1.779,0.673-2.458,0
			c-0.326-0.323-0.504-0.753-0.504-1.209c0-0.457,0.179-0.887,0.504-1.209l2.879-2.856c0.597-0.592,1.719-1.464,2.537-0.651
			c0.376,0.372,0.981,0.37,1.354-0.005c0.373-0.376,0.371-0.982-0.005-1.354c-1.391-1.38-3.445-1.125-5.236,0.651l-2.879,2.856
			c-0.69,0.686-1.071,1.598-1.071,2.568s0.38,1.883,1.071,2.568c0.712,0.705,1.645,1.058,2.578,1.058
			c0.935,0,1.868-0.353,2.579-1.059l0.783-0.776c0.375-0.373,0.378-0.979,0.004-1.354C22.107,25.29,21.501,25.288,21.125,25.66z"/>
	</g>
</g>
</svg>
