<?xml version="1.0" encoding="utf-8"?>
<!-- Generator: Adobe Illustrator 15.0.0, SVG Export Plug-In . SVG Version: 6.00 Build 0)  -->
<!DOCTYPE svg PUBLIC "-//W3C//DTD SVG 1.1//EN" "http://www.w3.org/Graphics/SVG/1.1/DTD/svg11.dtd">
<svg version="1.1" id="Ebene_1" xmlns="http://www.w3.org/2000/svg" xmlns:xlink="http://www.w3.org/1999/xlink" x="0px" y="0px"
	 width="32px" height="32px" viewBox="0 0 32 32" enable-background="new 0 0 32 32" xml:space="preserve">
<g>
	<g>
		<path fill="#696969" d="M9.45,7.4h8.2c0.565,0,1.024-0.459,1.024-1.025v-2.05c0-0.567-0.459-1.025-1.024-1.025h-1.088
			c0.04-0.166,0.062-0.337,0.062-0.512c0-1.416-1.377-2.562-3.075-2.562c-1.698,0-3.075,1.147-3.075,2.562
			c0,0.175,0.021,0.346,0.062,0.512H9.45c-0.567,0-1.025,0.458-1.025,1.025v2.05C8.425,6.94,8.883,7.4,9.45,7.4z M12.525,2.275h2.05
			v2.05h-2.05V2.275z M13.55,20.157v6.64c0,0.609,0.521,1.104,1.162,1.104h15.101c0.642,0,1.162-0.494,1.162-1.104v-6.64
			l-8.712,4.544L13.55,20.157z M11.5,27.9V15.6c0-1.132,0.918-2.05,2.05-2.05h12.3V6.375c0-1.132-0.918-2.05-2.05-2.05h-3.075v2.562
			c0,0.849-0.382,1.537-0.854,1.537H7.229c-0.472,0-0.854-0.688-0.854-1.537V4.325H3.3c-1.132,0-2.05,0.918-2.05,2.05V29.95
			C1.25,31.082,2.168,32,3.3,32h20.5c1.132,0,2.05-0.918,2.05-2.05h-12.3C12.418,29.95,11.5,29.032,11.5,27.9z M29.812,15.6H14.89
			c-0.74,0-1.34,0.58-1.34,1.294v1.347l8.713,4.352l8.712-4.352v-1.538C30.975,16.094,30.454,15.6,29.812,15.6z"/>
	</g>
</g>
</svg>
