<?xml version="1.0" encoding="UTF-8" standalone="no"?>

<svg
   version="1.1"
   width="52.235px"
   height="52.235px"
   viewBox="0 0 52.235 52.235"
   xmlns="http://www.w3.org/2000/svg"
   xmlns:svg="http://www.w3.org/2000/svg">
<path
   d="m 44.617444,7.6724584 c -10.186003,-10.212 -26.720003,-10.237 -36.9340023,-0.053 -10.2140004,10.1849996 -10.2380004,26.7229996 -0.056,36.9369996 10.1859993,10.215 26.7279993,10.236 36.9370023,0.051 10.214,-10.184 10.24,-26.718 0.053,-36.9349996 z"
   id="path1-33"
   style="fill:currentColor" />



<path
   d="m 26.273951,14.906857 c -0.558887,0 -1.008821,0.674902 -1.008821,1.513233 0,0.83833 0.449934,1.513232 1.008821,1.513232 0.558886,0 1.008821,-0.674902 1.008821,-1.513232 0,-0.838331 -0.449935,-1.513233 -1.008821,-1.513233 z m 3.286739,2.238575 c -0.524587,0.0091 -0.998732,0.279444 -1.213612,0.746528 l -3.041597,6.598701 h -3.571226 c -0.838331,0 -1.513233,0.674901 -1.513233,1.513232 0,0.838331 0.674902,1.513232 1.513233,1.513232 h 4.39039 c 0.613364,0.08071 1.208569,-0.193694 1.45573,-0.731395 l 3.514734,-7.62669 c 0.312733,-0.678937 -0.04842,-1.50718 -0.809075,-1.858249 a 1.6645553,1.6645553 0 0 0 -0.726352,-0.155359 z m -12.870542,7.84964 c -0.838329,0 -1.513232,0.449934 -1.513232,1.008821 0,0.558887 0.674903,1.008821 1.513232,1.008821 0.838329,0 1.513232,-0.449934 1.513232,-1.008821 0,-0.558887 -0.675912,-1.008821 -1.513232,-1.008821 z m 19.167601,0 c -0.838325,0 -1.513228,0.449934 -1.513228,1.008821 0,0.558887 0.674902,1.008821 1.513228,1.008821 0.838333,0 1.513233,-0.449934 1.513233,-1.008821 0,-0.558887 -0.675911,-1.008821 -1.513233,-1.008821 z m -9.583798,9.079392 c -0.558887,0 -1.008821,0.674902 -1.008821,1.513232 0,0.838331 0.449934,1.513233 1.008821,1.513233 0.558886,0 1.008821,-0.674902 1.008821,-1.513233 0,-0.83833 -0.449935,-1.513232 -1.008821,-1.513232 z m 0,-24.2117137 A 16.141143,16.141143 0 0 0 10.13281,26.003893 16.141143,16.141143 0 0 0 26.273951,42.145036 16.141143,16.141143 0 0 0 42.415089,26.003893 16.141143,16.141143 0 0 0 26.273951,9.8627503 Z m 0,3.0264647 A 13.114678,13.114678 0 0 1 39.388624,26.003893 13.114678,13.114678 0 0 1 26.273951,39.118571 13.114678,13.114678 0 0 1 13.159275,26.003893 13.114678,13.114678 0 0 1 26.273951,12.889215 Z"
   fill="#330066"
   id="path1-49"
   style="fill:#ffffff" /></svg>
