<?xml version="1.0" encoding="UTF-8"?>
<svg version="1.1" width="32" height="32" viewBox="0 0 32 32" xmlns="http://www.w3.org/2000/svg">
 <path d="M6 0C2.71 0 0 2.71 0 6v20c0 3.29 2.71 6 6 6h20c3.29 0 6-2.71 6-6V6c0-3.29-2.71-6-6-6zm1 3h18a4 4 0 0 1 4 4v18a4 4 0 0 1-4 4H7a4 4 0 0 1-4-4V7a4 4 0 0 1 4-4zm4.13 4-1.095 9.264 3.553.834.098-.13c.122-.16.335-.343.642-.53h.002c.276-.171.689-.272 1.244-.272.822 0 1.35.224 1.674.648v.002h.002c.345.444.527 1.056.527 1.864 0 .777-.132 1.44-.39 1.994l-.002.002c-.23.508-.637.742-1.373.742-.531 0-.931-.158-1.256-.482l-.002-.002c-.316-.324-.49-.754-.52-1.34l-.011-.238H9.719l-.002.248c-.009 1.105.298 2.083.916 2.902v.002c.61.8 1.406 1.42 2.373 1.853v.002h.002a7.441 7.441 0 0 0 3.029.637c1.4 0 2.576-.283 3.51-.867.92-.575 1.611-1.333 2.058-2.26v-.002c.45-.918.678-1.894.678-2.918 0-1.891-.475-3.39-1.451-4.451-.976-1.068-2.376-1.598-4.133-1.598-.577 0-1.11.082-1.598.25-.265.089-.401.163-.584.24l.319-2.789h6.853V7z" fill="#62686a"/>
</svg>
