<?xml version="1.0" encoding="UTF-8"?>
<svg version="1.1" width="32" height="32" viewBox="0 0 32 32" xmlns="http://www.w3.org/2000/svg">
 <path d="M11.855 25.577a7.272 7.272 0 0 1 5.749-.531l1.623-4.3a5.33 5.33 0 0 1-2.592-2.354 5.376 5.376 0 0 1-.429-1.025L5.194 18.702 2.57 24.693a16.074 16.074 0 0 0 5.758 5.35 7.276 7.276 0 0 1 3.528-4.466m14.622-8.168a5.351 5.351 0 0 1-2.548 3.12 5.344 5.344 0 0 1-2.57.662 5.29 5.29 0 0 1-.822-.068l-1.682 4.459a7.256 7.256 0 0 1 3.672 5.026c4.814-2.155 8.367-6.615 9.253-11.98zm-14.31-8.295a3.492 3.492 0 0 1-.499.342 3.483 3.483 0 0 1-2.564.314l-3.277 7.485 10.16-1.231a5.405 5.405 0 0 1 .796-3.032zm-8.54 9.778L.34 19.29a15.878 15.878 0 0 0 1.387 3.94z" fill="#137aa5"/><path d="M13.062 4.697a3.497 3.497 0 0 1-.018 3.377l4.595 3.86a5.345 5.345 0 0 1 1.133-.837 5.33 5.33 0 0 1 2.885-.642V.977C19.606.404 17.595 0 16 0c-.287 0-.573.009-.856.023l-2.852 3.731a3.471 3.471 0 0 1 .771.943m2.287 21.344a5.923 5.923 0 0 0-5.772 4.613A15.942 15.942 0 0 0 16 31.999a15.97 15.97 0 0 0 5.231-.88 5.901 5.901 0 0 0-.659-1.988 5.948 5.948 0 0 0-5.223-3.09M7.97 3.53c.11-.077.213-.162.334-.228a3.483 3.483 0 0 1 2.8-.235l2.164-2.83a15.91 15.91 0 0 0-6.56 2.741zm3.046 4.732a2.15 2.15 0 0 0 .853-2.914 2.148 2.148 0 0 0-2.913-.854 2.149 2.149 0 0 0-.853 2.914 2.151 2.151 0 0 0 2.913.854m12.002 2.449a5.349 5.349 0 0 1 3.049 2.522 5.334 5.334 0 0 1 .645 2.833l5.233 1.203c.033-.42.055-.842.055-1.27V4.822s-4.388-2.019-8.982-3.444zm.26 8.624a4.02 4.02 0 0 0 1.596-5.45 4.019 4.019 0 0 0-5.45-1.595 4.02 4.02 0 0 0-1.595 5.449 3.987 3.987 0 0 0 2.393 1.925 3.991 3.991 0 0 0 3.055-.33M6.91 8.062a3.494 3.494 0 0 1 .08-3.474L5.5 3.934A15.958 15.958 0 0 0 .12 17.946l4.139-.501 3.619-8.266a3.489 3.489 0 0 1-.97-1.117" fill="#005d8b"/>
</svg>
