<?xml version="1.0" encoding="UTF-8"?>
<svg version="1.1" width="32" height="32" viewBox="0 0 32 32" xmlns="http://www.w3.org/2000/svg">
 <path d="m11.855 25.577c1.831-1.002 3.905-1.128 5.749-0.5315l1.6225-4.3a5.3295 5.3295 0 0 1-2.591-2.354 5.376 5.376 0 0 1-0.4295-1.025l-11.012 1.335-2.6235 5.9915a16.074 16.074 0 0 0 5.758 5.3505c0.508-1.8395 1.725-3.481 3.5275-4.4665m14.622-8.1685a5.351 5.351 0 0 1-2.5475 3.12 5.344 5.344 0 0 1-2.5705 0.662c-0.274 0-0.5485-0.025-0.8215-0.0675l-1.6825 4.459a7.2565 7.2565 0 0 1 3.672 5.026c4.814-2.155 8.367-6.6155 9.2535-11.98zm-14.31-8.295a3.492 3.492 0 0 1-0.4985 0.3425 3.483 3.483 0 0 1-2.564 0.314l-3.2775 7.485 10.16-1.2315a5.405 5.405 0 0 1 0.7965-3.032zm-8.54 9.778-3.288 0.3985a15.878 15.878 0 0 0 1.3875 3.9395z" fill="#137aa5" stroke-width=".5"/><path d="m13.062 4.697c0.597 1.092 0.5435 2.361-0.018 3.377l4.595 3.86a5.345 5.345 0 0 1 1.133-0.8365c0.915-0.5 1.9135-0.7 2.8855-0.6425v-9.478c-2.0515-0.573-4.062-0.977-5.6585-0.977-0.287 0-0.5725 0.0085-0.856 0.023l-2.852 3.731a3.471 3.471 0 0 1 0.771 0.9425m2.287 21.344c-0.963 0-1.938 0.2345-2.841 0.7275-1.5475 0.8465-2.5635 2.288-2.931 3.886a15.942 15.942 0 0 0 6.422 1.345 15.97 15.97 0 0 0 5.2315-0.8795 5.901 5.901 0 0 0-0.659-1.9885c-1.078-1.972-3.12-3.0905-5.2235-3.0905m-7.3785-22.509c0.11-0.078 0.213-0.163 0.334-0.229 0.893-0.489 1.904-0.537 2.8-0.2345l2.1655-2.831a15.91 15.91 0 0 0-6.56 2.741zm3.0465 4.731a2.1495 2.1495 0 0 0 0.853-2.914 2.1485 2.1485 0 0 0-2.913-0.8535 2.149 2.149 0 0 0-0.8535 2.9135 2.1515 2.1515 0 0 0 2.9135 0.854m12.002 2.4495a5.349 5.349 0 0 1 3.0485 2.522 5.334 5.334 0 0 1 0.6455 2.8325l5.233 1.2035c0.033-0.42 0.055-0.8425 0.055-1.27v-11.178s-4.3885-2.019-8.982-3.4445zm0.2595 8.6235c1.942-1.0625 2.6585-3.507 1.596-5.449a4.0185 4.0185 0 0 0-5.449-1.596c-1.942 1.0615-2.658 3.5065-1.5955 5.449a3.9875 3.9875 0 0 0 2.3935 1.9255 3.991 3.991 0 0 0 3.055-0.33m-16.368-11.273c-0.617-1.128-0.5345-2.4425 0.08-3.474l-1.49-0.654c-3.3685 2.9335-5.5 7.25-5.5 12.067 0 0.659 0.044 1.3075 0.1215 1.945l4.1385-0.501 3.6195-8.2665a3.4885 3.4885 0 0 1-0.97-1.117" fill="#005d8b" stroke-width=".5"/>
</svg>
