<svg width="32" height="32" enable-background="new 0 0 164 164" version="1.1" viewBox="0 0 32 32" xml:space="preserve" xmlns="http://www.w3.org/2000/svg" xmlns:xlink="http://www.w3.org/1999/xlink">
<g transform="matrix(.19555 0 0 .19555 0 -.016231)">
	<defs>
		<rect id="SVGID_1_" width="164" height="164"/>
	</defs>
	<clipPath id="SVGID_2_">
		<use overflow="visible" xlink:href="#SVGID_1_"/>
	</clipPath>
	<path d="m35.335 41.303c-3.153-5.767-2.732-12.489 0.41-17.764l-7.621-3.343c-17.224 15-28.124 37.073-28.124 61.706 0 3.369 0.227 6.684 0.623 9.947l21.162-2.564 18.509-42.271c-1.982-1.489-3.693-3.398-4.959-5.711" clip-path="url(#SVGID_2_)" fill="#005d8b"/>
	<path d="m18.546 96.684-16.808 2.036c1.484 7.1 3.901 13.853 7.095 20.146z" clip-path="url(#SVGID_2_)" fill="#137aa5"/>
	<path d="m119.03 98.958c9.932-5.432 13.595-17.932 8.163-27.865-3.726-6.814-10.78-10.677-18.049-10.677-3.327 0-6.698 0.808-9.816 2.516-9.93 5.428-13.591 17.931-8.159 27.865 2.632 4.811 6.978 8.307 12.24 9.848 5.259 1.542 10.813 0.94 15.621-1.687" clip-path="url(#SVGID_2_)" fill="#005d8b"/>
	<path d="m117.71 54.861c6.423 2.096 12.102 6.517 15.591 12.897 2.513 4.596 3.54 9.6 3.3 14.484l26.759 6.154c0.169-2.145 0.28-4.307 0.28-6.495v-57.154s-22.44-10.325-45.93-17.615z" clip-path="url(#SVGID_2_)" fill="#005d8b"/>
	<path d="m62.223 46.682c-0.797 0.636-1.627 1.244-2.551 1.75-2.723 1.49-5.668 2.196-8.573 2.196-1.537 0-3.061-0.206-4.538-0.591l-16.76 38.275 51.954-6.295c-0.205-5.46 1.217-10.868 4.072-15.507z" clip-path="url(#SVGID_2_)" fill="#137aa5"/>
	<path d="m135.4 89.101c-2.045 6.573-6.522 12.399-13.025 15.954-4.101 2.244-8.603 3.385-13.147 3.385-1.4 0-2.803-0.128-4.2-0.345l-8.604 22.802c6.079 3.309 11.322 8.312 14.883 14.822 1.91 3.493 3.187 7.162 3.896 10.878 24.616-11.019 42.786-33.829 47.32-61.258z" clip-path="url(#SVGID_2_)" fill="#137aa5"/>
	<path d="m56.334 42.335c5.31-2.906 7.269-9.587 4.364-14.9-1.992-3.643-5.764-5.707-9.65-5.707-1.778 0-3.58 0.431-5.246 1.341-5.312 2.906-7.271 9.587-4.366 14.9 2.904 5.309 9.585 7.258 14.898 4.366" clip-path="url(#SVGID_2_)" fill="#005d8b"/>
	<path d="m60.627 130.87c9.364-5.123 19.968-5.768 29.398-2.718l8.296-21.987c-5.627-2.41-10.267-6.585-13.249-12.038-0.93-1.699-1.654-3.456-2.195-5.242l-56.315 6.824-13.417 30.641c7.382 11.383 17.501 20.821 29.444 27.36 2.597-9.407 8.821-17.801 18.038-22.84" clip-path="url(#SVGID_2_)" fill="#137aa5"/><g fill="#005d8b">
	<path d="m40.757 18.143c0.562-0.398 1.089-0.833 1.708-1.171 4.566-2.501 9.736-2.746 14.319-1.198l11.07-14.479c-12.352 2.124-23.751 7.016-33.548 14.017z" clip-path="url(#SVGID_2_)"/>
	<path d="m78.491 133.25c-4.924 0-9.911 1.198-14.527 3.721-7.915 4.329-13.109 11.7-14.99 19.87 10.056 4.413 21.159 6.88 32.844 6.88 9.372 0 18.366-1.597 26.752-4.498-0.506-3.473-1.589-6.915-3.368-10.169-5.514-10.083-15.954-15.804-26.711-15.804" clip-path="url(#SVGID_2_)"/>
	<path d="m66.799 24.101c3.053 5.583 2.778 12.074-0.091 17.27l23.495 19.736c1.706-1.633 3.625-3.091 5.794-4.276 4.682-2.558 9.786-3.579 14.757-3.285v-48.466c-10.491-2.931-20.772-4.997-28.936-4.997-1.469 0-2.927 0.043-4.377 0.119l-14.585 19.078c1.536 1.346 2.906 2.926 3.943 4.821" clip-path="url(#SVGID_2_)"/>
</g></g>
</svg>
