<?xml version="1.0" encoding="utf-8"?>
<!-- Generator: Adobe Illustrator 15.0.0, SVG Export Plug-In . SVG Version: 6.00 Build 0)  -->
<!DOCTYPE svg PUBLIC "-//W3C//DTD SVG 1.1//EN" "http://www.w3.org/Graphics/SVG/1.1/DTD/svg11.dtd">
<?xml-stylesheet type="text/css" href="../less/svg.css" ?>
<svg version="1.1" id="pixelegg_phone" xmlns="http://www.w3.org/2000/svg" xmlns:xlink="http://www.w3.org/1999/xlink" x="0px" y="0px"
     width="32px" height="32px" viewBox="0 0 32 32" enable-background="new 0 0 32 32" xml:space="preserve">
<path fill="#14814f" d="M4.064,23.275l3.859-3.871c0.769-0.768,2.042-0.744,2.838,0.053
	l1.944,1.951c0.123-0.07,0.249-0.141,0.384-0.215c1.228-0.684,2.908-1.617,4.677-3.393c1.773-1.778,2.707-3.466,3.39-4.698
	c0.072-0.13,0.142-0.256,0.209-0.376l-1.305-1.307l-0.642-0.644C18.622,9.977,18.6,8.7,19.367,7.93l3.859-3.871
	c0.768-0.769,2.041-0.746,2.838,0.054l1.088,1.097l-0.03,0.03c0.365,0.466,0.67,1.005,0.896,1.585
	c0.209,0.552,0.34,1.08,0.399,1.608c0.509,4.237-1.422,8.108-6.661,13.364c-7.243,7.262-13.08,6.713-13.332,6.686
	c-0.548-0.064-1.074-0.197-1.608-0.404c-0.574-0.225-1.11-0.531-1.575-0.895l-0.023,0.021l-1.103-1.084
	C3.32,25.322,3.298,24.047,4.064,23.275z"/>
</svg>