<?xml version="1.0" encoding="UTF-8"?>
<svg version="1.1" width="32" height="32" viewBox="0 0 32 32" xmlns="http://www.w3.org/2000/svg">
 <path d="m.717 25.31 4.941-4.954c.985-.983 2.615-.952 3.634.068l2.49 2.497c.157-.09.318-.18.491-.275 1.572-.876 3.723-2.07 5.988-4.343 2.27-2.275 3.467-4.435 4.341-6.012l.268-.481-1.671-1.673-.822-.824c-1.02-1.02-1.048-2.655-.066-3.64L25.253.717c.983-.984 2.613-.954 3.633.07L30.28 2.19l-.038.039a8.022 8.022 0 0 1 1.147 2.028c.268.707.436 1.382.511 2.058.652 5.422-1.82 10.376-8.529 17.102-9.274 9.294-16.748 8.591-17.07 8.556a8.293 8.293 0 0 1-2.06-.517 8.059 8.059 0 0 1-2.016-1.145l-.03.027-1.412-1.387C-.236 27.929-.264 26.298.717 25.31z" fill="#14814f"/>
</svg>
