<?xml version="1.0" encoding="UTF-8"?>
<svg version="1.1" width="32" height="32" viewBox="0 0 32 32" xmlns="http://www.w3.org/2000/svg">
 <path d="m25.143 9.1428a9.1429 9.1429 0 0 1-9.1429 9.1429 9.1429 9.1429 0 0 1-9.1429-9.1429 9.1429 9.1429 0 0 1 9.1429-9.1428 9.1429 9.1429 0 0 1 9.1429 9.1428zm4.7846 11.909m0.9297 9.7882-3.7148-9.2607s-5.6268-2.3162-11.142-2.3162c-5.1235 0-11.142 2.3162-11.142 2.3162l-3.7148 9.2607s7.3952 1.1601 14.857 1.1601c7.3932 0 14.857-1.1601 14.857-1.1601z" fill="#62686a"/>
</svg>
