<?xml version="1.0" encoding="utf-8"?>
<!-- Generator: Adobe Illustrator 15.0.0, SVG Export Plug-In . SVG Version: 6.00 Build 0)  -->
<!DOCTYPE svg PUBLIC "-//W3C//DTD SVG 1.1//EN" "http://www.w3.org/Graphics/SVG/1.1/DTD/svg11.dtd">
<?xml-stylesheet type="text/css" href="../less/svg.css" ?>
<svg version="1.1" id="pixelegg_add" xmlns="http://www.w3.org/2000/svg" xmlns:xlink="http://www.w3.org/1999/xlink" x="0px" y="0px"
	 width="32px" height="32px" viewBox="0 0 32 32" enable-background="new 0 0 32 32" xml:space="preserve">
<g>
	<g>
		<path
				id="path2823-6"
				style="fill:#696965;fill-opacity:1;stroke-width:1.59924"
				d="M 15.887683,1.0180707 A 14.983485,14.983485 0 0 0 0.97634137,16.001766 14.983485,14.983485 0 0 0 15.960035,30.985458 14.983485,14.983485 0 0 0 30.943729,16.001766 14.983485,14.983485 0 0 0 15.960035,1.0180707 a 14.983485,14.983485 0 0 0 -0.07234,0 z m -2.398929,4.9674327 h 2.489369 2.491631 v 3.7532725 3.7532711 h 3.75327 3.753273 v 2.49163 2.489369 h -3.753273 -3.75327 v 3.771359 3.773622 H 15.978123 13.488754 V 22.244405 18.473046 H 9.7173944 5.9437734 v -2.489369 -2.49163 h 3.773621 3.7713596 V 9.7387759 Z" /><path
			style="opacity:1;fill:none;fill-opacity:0.12;stroke-width:0.0434761"
			d="M 13.897288,21.369751 V 18.111095 H 10.638632 7.3799768 V 15.960382 13.80967 h 3.2586552 3.258656 V 10.567307 7.3249449 h 2.150713 2.150713 v 3.2423621 3.242363 h 3.242362 3.242363 v 2.150712 2.150713 h -3.242363 -3.242362 v 3.258656 3.258656 h -2.150713 -2.150713 z"
			id="path848" />
	</g>
</g>
</svg>
