<?xml version="1.0" encoding="utf-8"?>
<!-- Generator: Adobe Illustrator 15.0.0, SVG Export Plug-In . SVG Version: 6.00 Build 0)  -->
<!DOCTYPE svg PUBLIC "-//W3C//DTD SVG 1.1//EN" "http://www.w3.org/Graphics/SVG/1.1/DTD/svg11.dtd">
<svg version="1.1" id="Ebene_1" xmlns="http://www.w3.org/2000/svg" xmlns:xlink="http://www.w3.org/1999/xlink" x="0px" y="0px"
	 width="32px" height="32px" viewBox="0 0 32 32" enable-background="new 0 0 32 32" xml:space="preserve">
<polygon fill="#62686A" points="31.336,2.791 29.134,2.791 29.134,0.587 29.134,0.208 26.435,0.208 26.435,0.587 26.435,2.791 
	24.232,2.791 24.214,2.791 23.853,2.791 23.853,5.489 24.214,5.489 24.232,5.489 26.435,5.489 26.435,7.691 26.435,8.071 
	29.134,8.071 29.134,7.691 29.134,5.489 31.336,5.489 31.716,5.489 31.716,2.791 "/>
<path fill="#62686A" d="M30.695,26.655l-4.929-4.613c-0.037-0.034-0.081-0.05-0.121-0.078l-1.991-1.861
	c1.366-2.06,2.132-4.547,2.044-7.207C25.473,6.088,19.772,0.752,12.966,0.977C6.158,1.203,0.822,6.903,1.047,13.712
	c0.225,6.807,5.926,12.143,12.734,11.918c2.117-0.071,4.084-0.678,5.792-1.678l2.349,2.199c0.002,0,0.002,0.001,0.002,0.001
	l4.929,4.616c0.453,0.421,1.166,0.397,1.592-0.053l2.305-2.468C31.173,27.793,31.15,27.08,30.695,26.655z M13.614,22.826
	c-5.258,0.175-9.661-3.946-9.836-9.205c-0.173-5.258,3.948-9.662,9.207-9.835c5.257-0.174,9.662,3.947,9.836,9.206
	C22.994,18.25,18.873,22.652,13.614,22.826z"/>
<line fill="none" x1="14.958" y1="29.125" x2="14.958" y2="54.75"/>
</svg>
