<?xml version="1.0" encoding="UTF-8"?>
<svg version="1.1" width="32" height="32" viewBox="0 0 32 32" xmlns="http://www.w3.org/2000/svg">
 <path d="M27.838 3.553a4.343 4.343 0 0 0-2.947 1.181L10.227 18.318l-2.88-3.15c-1.565-1.713-4.107-1.923-5.698-.469l-.442.404c-1.59 1.455-1.611 4.006-.045 5.72l5.655 6.185c.451.494.983.861 1.55 1.101.559.252 1.173.36 1.793.328.033 0 .065-.001.098-.003a4.242 4.242 0 0 0 .732-.124 4.423 4.423 0 0 0 1.91-1.045l17.687-16.383c1.703-1.577 1.894-4.122.43-5.703l-.41-.44c-.731-.79-1.735-1.185-2.769-1.187z" fill="#62686a"/>
</svg>
