<?xml version="1.0" encoding="utf-8"?>
<!-- Generator: Adobe Illustrator 15.0.0, SVG Export Plug-In . SVG Version: 6.00 Build 0)  -->
<!DOCTYPE svg PUBLIC "-//W3C//DTD SVG 1.1//EN" "http://www.w3.org/Graphics/SVG/1.1/DTD/svg11.dtd">
<svg version="1.1" id="Ebene_1" xmlns="http://www.w3.org/2000/svg" xmlns:xlink="http://www.w3.org/1999/xlink" x="0px" y="0px"
	 width="32px" height="32px" viewBox="0 0 32 32" enable-background="new 0 0 32 32" xml:space="preserve">
<g>
	<g>
		<path fill="#696969" d="M18.542,0.622c-5.471,0-9.899,4.56-9.899,10.183
			s4.428,10.182,9.899,10.182c5.471,0,9.896-4.559,9.896-10.182S24.013,0.622,18.542,0.622z M18.542,11.996
			c-0.64,0-1.16-0.533-1.16-1.191c0-0.659,0.521-1.192,1.16-1.192s1.158,0.534,1.158,1.192C19.7,11.463,19.182,11.996,18.542,11.996
			z M11.697,20.931v1.886c-2.926-1.896-5.063-4.954-5.779-8.554c0.697-0.554,1.151-1.414,1.151-2.39
			c0-1.675-1.318-3.034-2.948-3.034c-1.63,0-2.949,1.358-2.949,3.034c0,1.674,1.317,3.03,2.945,3.033
			c0.956,4.416,3.785,8.101,7.58,10.147v3.799c0,1.151,0.765,2.086,1.712,2.086h10.267c0.945,0,1.711-0.935,1.711-2.086v-7.921
			c-1.907,1.481-4.271,2.37-6.845,2.37S13.603,22.412,11.697,20.931z"/>
	</g>
</g>
</svg>
