<?xml version="1.0" encoding="UTF-8"?>
<svg version="1.1" width="32" height="32" viewBox="0 0 32 32" xmlns="http://www.w3.org/2000/svg">
 <path d="M32 28a4 4 0 0 1-4 4 4 4 0 0 1-4-4 4 4 0 0 1 4-4 4 4 0 0 1 4 4zm0-12a4 4 0 0 1-4 4 4 4 0 0 1-4-4 4 4 0 0 1 4-4 4 4 0 0 1 4 4zm0-12a4 4 0 0 1-4 4 4 4 0 0 1-4-4 4 4 0 0 1 4-4 4 4 0 0 1 4 4zM20 28a4 4 0 0 1-4 4 4 4 0 0 1-4-4 4 4 0 0 1 4-4 4 4 0 0 1 4 4zm0-12a4 4 0 0 1-4 4 4 4 0 0 1-4-4 4 4 0 0 1 4-4 4 4 0 0 1 4 4zm0-12a4 4 0 0 1-4 4 4 4 0 0 1-4-4 4 4 0 0 1 4-4 4 4 0 0 1 4 4zM8 28a4 4 0 0 1-4 4 4 4 0 0 1-4-4 4 4 0 0 1 4-4 4 4 0 0 1 4 4zm0-12a4 4 0 0 1-4 4 4 4 0 0 1-4-4 4 4 0 0 1 4-4 4 4 0 0 1 4 4zM8 4a4 4 0 0 1-4 4 4 4 0 0 1-4-4 4 4 0 0 1 4-4 4 4 0 0 1 4 4z" fill="#62686a"/>
</svg>
