<?xml version="1.0" encoding="utf-8"?>
<!-- Generator: Adobe Illustrator 15.0.0, SVG Export Plug-In . SVG Version: 6.00 Build 0)  -->
<!DOCTYPE svg PUBLIC "-//W3C//DTD SVG 1.1//EN" "http://www.w3.org/Graphics/SVG/1.1/DTD/svg11.dtd">
<svg version="1.1" id="Ebene_1" xmlns="http://www.w3.org/2000/svg" xmlns:xlink="http://www.w3.org/1999/xlink" x="0px" y="0px"
	 width="32px" height="32px" viewBox="0 0 32 32" enable-background="new 0 0 32 32" xml:space="preserve">
<g>
	<g>
		<path fill="#616463" d="M42.75,15l6,17h20l6-17H42.75z M70.75,12.296l1-2.593C71.75,8.763,70.975,8,70.017,8H58.75
			c0-1.104-0.896-2-2-2h-9c-1.104,0-2,0.896-2,2l1,4.296H70.75z"/>
	</g>
</g>
<path fill="#616463" d="M7.708,0.076v31.757h9.283V0.076H7.708z M12.411,26.785c-0.99,0-1.792-0.803-1.792-1.791
	c0-0.99,0.802-1.792,1.792-1.792c0.989,0,1.792,0.802,1.792,1.792C14.202,25.982,13.4,26.785,12.411,26.785z"/>
<path fill-rule="evenodd" clip-rule="evenodd" fill="#616463" d="M17.357,31.508V0.239l9.309,2.809v25.406L17.357,31.508z"/>
</svg>
