<?xml version="1.0" encoding="UTF-8" standalone="no"?>
<svg
   width="16"
   height="16"
   fill="currentColor"
   class="bi bi-filetype-otf"
   viewBox="0 0 16 16"
   version="1.1"
   id="svg1"
   sodipodi:docname="bi-filetype-odg.svg"
   inkscape:version="1.3.2 (091e20e, 2023-11-25)"
   inkscape:export-filename="bi-filetype-ods.png"
   inkscape:export-xdpi="384"
   inkscape:export-ydpi="384"
   xmlns:inkscape="http://www.inkscape.org/namespaces/inkscape"
   xmlns:sodipodi="http://sodipodi.sourceforge.net/DTD/sodipodi-0.dtd"
   xmlns="http://www.w3.org/2000/svg"
   xmlns:svg="http://www.w3.org/2000/svg">
  <defs
     id="defs1" />
  <sodipodi:namedview
     id="namedview1"
     pagecolor="#ffffff"
     bordercolor="#000000"
     borderopacity="0.25"
     inkscape:showpageshadow="2"
     inkscape:pageopacity="0.0"
     inkscape:pagecheckerboard="0"
     inkscape:deskcolor="#d1d1d1"
     inkscape:zoom="51.6875"
     inkscape:cx="6.0266022"
     inkscape:cy="7.9903265"
     inkscape:window-width="1392"
     inkscape:window-height="1067"
     inkscape:window-x="3171"
     inkscape:window-y="25"
     inkscape:window-maximized="0"
     inkscape:current-layer="layer1" />
  <path
     fill-rule="evenodd"
     d="M 14,4.5 V 14 c 0,1.104569 -0.895431,2 -2,2 H 11.174123 V 15 H 12 c 0.552285,0 1,-0.447715 1,-1 V 4.5 H 11 C 10.171573,4.5 9.5,3.8284271 9.5,3 V 1 H 4 C 3.4477153,1 3,1.4477153 3,2 v 9 H 2 V 2 C 2,0.8954305 2.8954305,0 4,0 H 9.5 Z M 2.622,13.666 v 0.522 c 0,0.256 -0.039,0.469667 -0.117,0.641 -0.066327,0.158232 -0.1784662,0.293008 -0.322,0.387 -0.1421255,0.08436 -0.3047359,0.127952 -0.47,0.126 C 1.5477359,15.344 1.3851255,15.30036 1.243,15.216 1.100765,15.121524 0.98947577,14.987282 0.923,14.83 0.8388828,14.626728 0.79899899,14.407878 0.806,14.188 v -0.522 c 0,-0.257333 0.039,-0.471 0.117,-0.641 0.0663093,-0.157649 0.1776133,-0.292257 0.32,-0.387 0.1411764,-0.0869 0.3042426,-0.131658 0.47,-0.129 0.1766667,0 0.3333333,0.04333 0.47,0.13 0.1433802,0.09373 0.2555042,0.228136 0.322,0.386 0.078,0.17 0.117,0.383667 0.117,0.641 m 0.803,0.519 V 13.672 C 3.425,13.295333 3.3566667,12.971333 3.22,12.7 3.0913212,12.435337 2.8856654,12.215739 2.63,12.07 2.3766667,11.923333 2.0713333,11.85 1.714,11.85 1.358,11.85 1.0513333,11.92333 0.794,12.07 0.53836597,12.214103 0.33285994,12.432867 0.205,12.697 0.06833333,12.967667 0,13.292667 0,13.672 v 0.513 c 0,0.375333 0.06833333,0.699667 0.205,0.973 0.13666667,0.270667 0.333,0.479667 0.589,0.627 0.2573333,0.144 0.564,0.216 0.92,0.216 0.3573333,0 0.663,-0.072 0.917,-0.216 0.2544636,-0.14559 0.4595821,-0.363942 0.589,-0.627 0.136,-0.273333 0.2043333,-0.597667 0.205,-0.973"
     id="path1"
     sodipodi:nodetypes="cssccsscsscssccsscccsccccccscccccccsccsccssccsccc" />
  <path
     d="m 3.8645707,11.936883 v 4 h 1.459 c 0.402,0 0.735,-0.07933 0.999,-0.238 0.2671559,-0.159837 0.4757748,-0.401414 0.595,-0.689 0.1306667,-0.3 0.196,-0.661333 0.196,-1.084 0,-0.42 -0.065333,-0.778333 -0.196,-1.075 -0.1183258,-0.284277 -0.325251,-0.522767 -0.59,-0.68 -0.2633333,-0.156 -0.598,-0.234 -1.004,-0.234 z m 0.791,0.645 h 0.563 c 0.2473333,0 0.4503333,0.05067 0.609,0.152 0.1645244,0.108493 0.2888897,0.26799 0.354,0.454 0.078667,0.201333 0.118,0.452333 0.118,0.753 0.0031,0.199447 -0.019758,0.39845 -0.068,0.592 -0.034495,0.153033 -0.101323,0.296919 -0.196,0.422 -0.087007,0.112142 -0.202283,0.199117 -0.334,0.252 -0.1543481,0.0577 -0.3182581,0.08553 -0.483,0.082 h -0.564 v -2.708 z"
     style="fill-rule:evenodd"
     id="path1-9" />
  <g
     inkscape:groupmode="layer"
     id="layer1"
     inkscape:label="path-T">
    <path
       d="m 10.588658,12.638046 c 0.076,0.153333 0.122666,0.317333 0.14,0.492 H 9.9526578 c -0.018144,-0.08785 -0.050935,-0.172025 -0.097,-0.249 -0.044558,-0.07321 -0.1021804,-0.137607 -0.17,-0.19 -0.070133,-0.0569 -0.1506119,-0.09968 -0.237,-0.126 -0.096862,-0.02973 -0.1976798,-0.04457 -0.299,-0.044 -0.2853333,0 -0.507,0.100667 -0.665,0.302 -0.156,0.200667 -0.234,0.484 -0.234,0.85 v 0.498 c 0,0.234 0.032333,0.439 0.097,0.615 0.059138,0.164234 0.1647597,0.307727 0.304,0.413 0.1531755,0.102396 0.3349046,0.153518 0.519,0.146 0.1577749,0.0045 0.3143777,-0.02838 0.457,-0.096 0.1141884,-0.05998 0.2086354,-0.151653 0.272,-0.264 0.06,-0.109333 0.090333,-0.230333 0.091,-0.363 v -0.255 h -0.822 v -0.59 h 1.5760002 v 0.798 c 0,0.193333 -0.03233,0.376667 -0.097,0.55 -0.06429,0.171612 -0.164143,0.327692 -0.293,0.458 -0.141088,0.138064 -0.309779,0.244731 -0.4950002,0.313 -0.1973333,0.074 -0.4296667,0.111 -0.697,0.111 -0.2571526,0.0048 -0.5128224,-0.03999 -0.753,-0.132 -0.2040149,-0.08352 -0.3863014,-0.212451 -0.533,-0.377 -0.1459582,-0.168894 -0.2549606,-0.366461 -0.32,-0.58 -0.072381,-0.241615 -0.1077817,-0.492792 -0.105,-0.745 v -0.506 c 0,-0.362 0.066667,-0.678667 0.2,-0.95 0.134,-0.270667 0.328,-0.481667 0.582,-0.633 0.256,-0.152 0.5646667,-0.228 0.926,-0.228 0.238,0 0.45,0.03333 0.636,0.1 0.1866667,0.06667 0.3466662,0.158333 0.4800002,0.275 0.133333,0.116667 0.238,0.252333 0.314,0.407 z"
       style="fill-rule:evenodd"
       id="path1-3" />
  </g>
</svg>
