<?xml version="1.0" encoding="UTF-8" standalone="no"?>
<svg
   fill="currentColor"
   class="bi bi-filetype-ics"
   viewBox="0 0 16 16"
   xmlns="http://www.w3.org/2000/svg"
   xmlns:svg="http://www.w3.org/2000/svg">
  <path
     d="M 14,4.5 V 14 c 0,1.104569 -0.895431,2 -2,2 l -4.4050786,0.01935 v -1 L 12,15 c 0.55228,-0.0024 1,-0.447715 1,-1 V 4.5 H 11 C 10.171573,4.5 9.5,3.8284271 9.5,3 V 1 H 4 C 3.4477153,1 3,1.4477153 3,2 l 0.019347,6.8331318 h -1 L 2,2 C 1.9968726,0.89543493 2.8954305,0 4,0 h 5.5 z"
    />
    <path
       d="M 4.4413547,12.197702 A 0.20072552,0.20012091 0 0 1 4.64208,11.997581 h 0.4014505 a 0.20072552,0.20012091 0 0 1 0.2007252,0.200121 v 0.400242 A 0.20072552,0.20012091 0 0 1 5.0435305,12.798065 H 4.64208 A 0.20072552,0.20012091 0 0 1 4.4413547,12.597944 Z m -1.2043526,0 a 0.20072552,0.20012091 0 0 1 0.2007252,-0.200121 h 0.4014505 a 0.20072552,0.20012091 0 0 1 0.2007264,0.200121 v 0.400242 A 0.20072552,0.20012091 0 0 1 3.8391778,12.798065 H 3.4377273 A 0.20072552,0.20012091 0 0 1 3.2370021,12.597944 Z M 1.229746,13.398428 a 0.20072552,0.20012091 0 0 1 0.2007252,-0.200121 h 0.4014517 a 0.20072552,0.20012091 0 0 1 0.2007253,0.200121 v 0.400241 A 0.20072552,0.20012091 0 0 1 1.8319229,13.99879 H 1.4304712 A 0.20072552,0.20012091 0 0 1 1.229746,13.798669 Z m 1.2043526,0 a 0.20072552,0.20012091 0 0 1 0.2007265,-0.200121 h 0.4014505 a 0.20072552,0.20012091 0 0 1 0.2007265,0.200121 v 0.400241 A 0.20072552,0.20012091 0 0 1 3.0362756,13.99879 H 2.6348251 A 0.20072552,0.20012091 0 0 1 2.4340986,13.798669 Z"
       id="path1-5"
       style="stroke-width:0.400847" />
    <path
       d="M 1.4304712,9.5961311 A 0.20072552,0.20012091 0 0 1 1.6311977,9.7962513 V 9.9963726 H 4.8428052 V 9.7962513 a 0.20072552,0.20012091 0 0 1 0.4014505,0 v 0.2001213 h 0.4014517 a 0.80290207,0.80048367 0 0 1 0.8029022,0.8004834 v 4.402661 A 0.80290207,0.80048367 0 0 1 5.6457074,15.999999 H 0.82829546 A 0.80290207,0.80048367 0 0 1 0.02539327,15.199517 V 10.796856 A 0.80290207,0.80048367 0 0 1 0.82829546,9.9963726 H 1.229746 V 9.7962513 A 0.20072552,0.20012091 0 0 1 1.4304712,9.5961311 M 0.42684375,11.197098 v 4.002419 a 0.40145103,0.40024182 0 0 0 0.40145171,0.400242 H 5.6457074 a 0.40145103,0.40024182 0 0 0 0.4014517,-0.400242 v -4.002419 z"
       id="path2"
       style="stroke-width:0.400847" />
</svg>
