<?xml version="1.0" encoding="UTF-8" standalone="no"?>
<svg
   width="16"
   height="16"
   fill="currentColor"
   class="bi bi-floppy"
   viewBox="0 0 16 16"
   version="1.1"
   id="svg2"
   sodipodi:docname="bi-save.svg"
   xml:space="preserve"
   inkscape:version="1.4 (1:1.4+202410161351+e7c3feb100)"
   xmlns:inkscape="http://www.inkscape.org/namespaces/inkscape"
   xmlns:sodipodi="http://sodipodi.sourceforge.net/DTD/sodipodi-0.dtd"
   xmlns="http://www.w3.org/2000/svg"
   xmlns:svg="http://www.w3.org/2000/svg"><defs
     id="defs2" /><sodipodi:namedview
     id="namedview2"
     pagecolor="#ffffff"
     bordercolor="#000000"
     borderopacity="0.25"
     inkscape:showpageshadow="2"
     inkscape:pageopacity="0.0"
     inkscape:pagecheckerboard="0"
     inkscape:deskcolor="#d1d1d1"
     inkscape:zoom="25.84375"
     inkscape:cx="13.426844"
     inkscape:cy="14.278114"
     inkscape:window-width="1920"
     inkscape:window-height="1043"
     inkscape:window-x="0"
     inkscape:window-y="0"
     inkscape:window-maximized="1"
     inkscape:current-layer="svg2"
     showgrid="false" /><path
     id="path1"
     style="opacity:0.519"
     d="M 1.5 0 A 1.5 1.5 0 0 0 0 1.5 L 0 14.5 A 1.5 1.5 0 0 0 1.5 16 L 14.5 16 A 1.5 1.5 0 0 0 14.560547 15.990234 L 14.716797 15.990234 C 15.420675 15.990234 15.990234 15.431373 15.990234 14.742188 L 15.990234 14.560547 A 1.5 1.5 0 0 0 16 14.5 L 16 2.9140625 A 1.5 1.5 0 0 0 15.560547 1.8535156 L 14.146484 0.43945312 A 1.5 1.5 0 0 0 13.085938 0 L 1.5 0 z M 1.5 1 L 3 1 L 3 5.5 A 1.5 1.5 0 0 0 4.5 7 L 5.7949219 7 L 5.7949219 9 L 3.5 9 A 1.5 1.5 0 0 0 2 10.5 L 2 15 L 1.5 15 A 0.5 0.5 0 0 1 1 14.5 L 1 1.5 A 0.5 0.5 0 0 1 1.5 1 z M 4 1 L 12 1 L 12 5.5 A 0.5 0.5 0 0 1 11.5 6 L 4.5 6 A 0.5 0.5 0 0 1 4 5.5 L 4 1 z M 13 1 L 13.085938 1 A 0.5 0.5 0 0 1 13.439453 1.1464844 L 14.853516 2.5605469 A 0.5 0.5 0 0 1 15 2.9140625 L 15 6.0078125 L 12.902344 6.0078125 A 1.5 1.5 0 0 0 13 5.5 L 13 1 z M 9 2 L 9 5 L 11 5 L 11 2 L 9 2 z M 12.798828 8.1015625 C 13.210154 8.0946376 14.032713 8.8731715 13.769531 9.1308594 L 11.984375 11.095703 L 13.695312 12.771484 C 13.99609 13.065985 13.10156 14.087469 12.800781 13.792969 L 11.015625 12.044922 L 9.3789062 13.816406 C 9.0781276 14.110906 8.0097684 13.065984 8.3105469 12.771484 L 9.9980469 10.998047 L 8.2128906 9.2753906 C 7.912112 8.9808902 8.8554714 8.055109 9.15625 8.3496094 L 9.1328125 8.3261719 L 10.892578 9.9296875 L 12.652344 8.15625 C 12.689941 8.1194374 12.740067 8.1025518 12.798828 8.1015625 z M 3.5 10 L 5.7949219 10 L 5.7949219 15 L 3 15 L 3 10.5 A 0.5 0.5 0 0 1 3.5 10 z " /></svg>
