<?xml version="1.0" encoding="UTF-8" standalone="no"?>
<svg
   width="16"
   height="16"
   fill="currentColor"
   class="bi bi-floppy"
   viewBox="0 0 16 16"
   version="1.1"
   id="svg2"
   sodipodi:docname="bi-save.svg"
   xml:space="preserve"
   inkscape:version="1.3.2 (091e20e, 2023-11-25)"
   xmlns:inkscape="http://www.inkscape.org/namespaces/inkscape"
   xmlns:sodipodi="http://sodipodi.sourceforge.net/DTD/sodipodi-0.dtd"
   xmlns="http://www.w3.org/2000/svg"
   xmlns:svg="http://www.w3.org/2000/svg"><defs
     id="defs2" /><sodipodi:namedview
     id="namedview2"
     pagecolor="#ffffff"
     bordercolor="#000000"
     borderopacity="0.25"
     inkscape:showpageshadow="2"
     inkscape:pageopacity="0.0"
     inkscape:pagecheckerboard="0"
     inkscape:deskcolor="#d1d1d1"
     inkscape:zoom="51.6875"
     inkscape:cx="7.9903265"
     inkscape:cy="7.9903265"
     inkscape:window-width="1392"
     inkscape:window-height="1067"
     inkscape:window-x="3400"
     inkscape:window-y="25"
     inkscape:window-maximized="0"
     inkscape:current-layer="svg2" /><path
     d="M11 2H9v3h2z"
     id="path1" /><path
     d="M1.5 0h11.586a1.5 1.5 0 0 1 1.06.44l1.415 1.414A1.5 1.5 0 0 1 16 2.914V14.5a1.5 1.5 0 0 1-1.5 1.5h-13A1.5 1.5 0 0 1 0 14.5v-13A1.5 1.5 0 0 1 1.5 0M1 1.5v13a.5.5 0 0 0 .5.5H2v-4.5A1.5 1.5 0 0 1 3.5 9h9a1.5 1.5 0 0 1 1.5 1.5V15h.5a.5.5 0 0 0 .5-.5V2.914a.5.5 0 0 0-.146-.353l-1.415-1.415A.5.5 0 0 0 13.086 1H13v4.5A1.5 1.5 0 0 1 11.5 7h-7A1.5 1.5 0 0 1 3 5.5V1H1.5a.5.5 0 0 0-.5.5m3 4a.5.5 0 0 0 .5.5h7a.5.5 0 0 0 .5-.5V1H4zM3 15h10v-4.5a.5.5 0 0 0-.5-.5h-9a.5.5 0 0 0-.5.5z"
     id="path2" /><rect
     style="fill:#fefefe;stroke-width:2.81869;paint-order:markers stroke fill"
     id="rect2"
     width="7.0616689"
     height="7.1777511"
     x="7.3905683"
     y="7.1777506" /><g
     style="fill:currentColor"
     id="g2"
     transform="matrix(0.49939541,0,0,0.49939541,8,8)"><path
       d="m -1.8644067,-3.9903147 c -1.4094628,0 -2.5520581,1.1187461 -2.5520581,2.4987893 V 13.501211 C -4.4164648,14.881253 -3.2738695,16 -1.8644067,16 H 13.447942 C 14.857404,16 16,14.881253 16,13.501211 V -1.4915254 c 0,-1.3800432 -1.142596,-2.4987893 -2.552058,-2.4987893 z M 2.267091,0.65270811 5.7917676,3.8630505 9.3164444,0.31388927 C 9.9187301,-0.27582477 12.156891,1.673606 11.554606,2.26332 L 7.9792181,6.1984535 11.406302,9.5527537 C 12.008586,10.142468 10.215337,12.188705 9.6130509,11.598991 L 6.0389403,8.0982321 2.7614364,11.647394 C 2.159151,12.237107 0.01985904,10.142468 0.62214437,9.5527549 L 3.9997933,6.0048426 0.42440632,2.5537362 C -0.17787914,1.9640222 1.7142402,0.11139687 2.3165257,0.70111078"
       id="path1-6"
       style="display:inline;stroke-width:1.26264"
       sodipodi:nodetypes="sssssssssccccccccccccc" /></g></svg>
