<?xml version="1.0" encoding="UTF-8" standalone="no"?>
<svg
   width="16"
   height="16"
   fill="currentColor"
   class="bi bi-floppy"
   viewBox="0 0 16 16"
   version="1.1"
   id="svg2"
   sodipodi:docname="bi-save-new.svg"
   xml:space="preserve"
   inkscape:version="1.3.2 (091e20e, 2023-11-25)"
   xmlns:inkscape="http://www.inkscape.org/namespaces/inkscape"
   xmlns:sodipodi="http://sodipodi.sourceforge.net/DTD/sodipodi-0.dtd"
   xmlns="http://www.w3.org/2000/svg"
   xmlns:svg="http://www.w3.org/2000/svg"><defs
     id="defs2" /><sodipodi:namedview
     id="namedview2"
     pagecolor="#ffffff"
     bordercolor="#000000"
     borderopacity="0.25"
     inkscape:showpageshadow="2"
     inkscape:pageopacity="0.0"
     inkscape:pagecheckerboard="0"
     inkscape:deskcolor="#d1d1d1"
     inkscape:zoom="51.6875"
     inkscape:cx="7.9903265"
     inkscape:cy="7.9903265"
     inkscape:window-width="1392"
     inkscape:window-height="1067"
     inkscape:window-x="2462"
     inkscape:window-y="25"
     inkscape:window-maximized="0"
     inkscape:current-layer="svg2" /><path
     d="M11 2H9v3h2z"
     id="path1" /><path
     d="M1.5 0h11.586a1.5 1.5 0 0 1 1.06.44l1.415 1.414A1.5 1.5 0 0 1 16 2.914V14.5a1.5 1.5 0 0 1-1.5 1.5h-13A1.5 1.5 0 0 1 0 14.5v-13A1.5 1.5 0 0 1 1.5 0M1 1.5v13a.5.5 0 0 0 .5.5H2v-4.5A1.5 1.5 0 0 1 3.5 9h9a1.5 1.5 0 0 1 1.5 1.5V15h.5a.5.5 0 0 0 .5-.5V2.914a.5.5 0 0 0-.146-.353l-1.415-1.415A.5.5 0 0 0 13.086 1H13v4.5A1.5 1.5 0 0 1 11.5 7h-7A1.5 1.5 0 0 1 3 5.5V1H1.5a.5.5 0 0 0-.5.5m3 4a.5.5 0 0 0 .5.5h7a.5.5 0 0 0 .5-.5V1H4zM3 15h10v-4.5a.5.5 0 0 0-.5-.5h-9a.5.5 0 0 0-.5.5z"
     id="path2" /><rect
     style="fill:#fefefe;stroke-width:2.68442;paint-order:markers stroke fill"
     id="rect2"
     width="7.3712211"
     height="7.11971"
     x="6.8488512"
     y="7.2744856" /><g
     style="fill:currentColor"
     id="g2"
     transform="matrix(0.51995163,0,0,0.51027811,7.6711004,7.8258767)"><path
       d="M 16,5.6303317 C 16,11.357346 11.385409,15.999997 5.6930232,15.999997 c -5.69238590634,0 -10.3069767,-4.642651 -10.3069767,-10.3696653 0,-5.7270141 4.61459079366,-10.3696648 10.3069767,-10.3696648 C 11.385409,-4.7393331 16,-0.0966824 16,5.6303317 M 7.1521795,-0.23332314 C 7.1429298,-1.0974098 4.416375,-1.1465551 4.4256247,-0.2824685 l 0.047939,4.4783702 -4.91978371,0.049146 c -0.85887319,0.00858 -0.90685339,2.5248421 -0.047939,2.5248421 l 4.91978371,-0.049145 0.047939,5.1172612 c 0.00809,0.864098 2.7346499,0.913243 2.7265548,0.04914 L 7.1521799,6.7698843 h 4.5842081 c 0.858914,0 0.90681,-2.5160924 0.04794,-2.5248424 H 7.2001206 Z"
       id="path1-6"
       sodipodi:nodetypes="cssscsscsscsscsscs"
       style="stroke-width:1.29228" /></g></svg>
