<?xml version="1.0" encoding="UTF-8" standalone="no"?>
<svg
   width="16"
   height="16"
   fill="currentColor"
   class="bi bi-floppy"
   viewBox="0 0 16 16"
   version="1.1"
   id="svg2"
   sodipodi:docname="bi-save-new.svg"
   xml:space="preserve"
   inkscape:version="1.3.2 (091e20e, 2023-11-25)"
   xmlns:inkscape="http://www.inkscape.org/namespaces/inkscape"
   xmlns:sodipodi="http://sodipodi.sourceforge.net/DTD/sodipodi-0.dtd"
   xmlns="http://www.w3.org/2000/svg"
   xmlns:svg="http://www.w3.org/2000/svg"><defs
     id="defs2" /><sodipodi:namedview
     id="namedview2"
     pagecolor="#ffffff"
     bordercolor="#000000"
     borderopacity="0.25"
     inkscape:showpageshadow="2"
     inkscape:pageopacity="0.0"
     inkscape:pagecheckerboard="0"
     inkscape:deskcolor="#d1d1d1"
     inkscape:zoom="51.6875"
     inkscape:cx="7.9903265"
     inkscape:cy="7.9903265"
     inkscape:window-width="1392"
     inkscape:window-height="1067"
     inkscape:window-x="2462"
     inkscape:window-y="25"
     inkscape:window-maximized="0"
     inkscape:current-layer="svg2" /><path
     d="M11 2H9v3h2z"
     id="path1" /><path
     d="M1.5 0h11.586a1.5 1.5 0 0 1 1.06.44l1.415 1.414A1.5 1.5 0 0 1 16 2.914V14.5a1.5 1.5 0 0 1-1.5 1.5h-13A1.5 1.5 0 0 1 0 14.5v-13A1.5 1.5 0 0 1 1.5 0M1 1.5v13a.5.5 0 0 0 .5.5H2v-4.5A1.5 1.5 0 0 1 3.5 9h9a1.5 1.5 0 0 1 1.5 1.5V15h.5a.5.5 0 0 0 .5-.5V2.914a.5.5 0 0 0-.146-.353l-1.415-1.415A.5.5 0 0 0 13.086 1H13v4.5A1.5 1.5 0 0 1 11.5 7h-7A1.5 1.5 0 0 1 3 5.5V1H1.5a.5.5 0 0 0-.5.5m3 4a.5.5 0 0 0 .5.5h7a.5.5 0 0 0 .5-.5V1H4zM3 15h10v-4.5a.5.5 0 0 0-.5-.5h-9a.5.5 0 0 0-.5.5z"
     id="path2" /><rect
     style="fill:#fefefe;stroke-width:2.026;paint-order:markers stroke fill"
     id="rect2"
     width="5.7654171"
     height="5.1850061"
     x="9.1124544"
     y="9.3446188" /><g
     style="fill:currentColor"
     id="g2"
     transform="matrix(0.51995163,0,0,0.51027811,7.6711004,7.8258767)"><path
       d="m 16,8 c 0,4.418281 -3.581722,7.999997 -8,7.999997 C 3.5817221,15.999997 0,12.418281 0,8 0,3.581719 3.5817221,3.4729399e-6 8,3.4729399e-6 12.418278,3.4729399e-6 16,3.581719 16,8 M 9.1325581,3.4763033 C 9.1253787,2.8096771 7.0090997,2.7717624 7.0162791,3.4383886 l 0.037209,3.4549763 -3.8186047,0.037915 C 2.568249,6.9378986 2.531008,8.8791469 3.1976744,8.8791469 L 7.0162791,8.8412322 7.0534884,12.7891 c 0.00628,0.666635 2.1225622,0.70455 2.116279,0.03791 l -0.037209,-3.9478671 3.5581399,0 c 0.666666,0 0.703842,-1.9411168 0.03721,-1.9478673 l -3.5581396,0 z"
       id="path1-6"
       sodipodi:nodetypes="cssscsscsscsscsscs" /></g></svg>
