<?xml version="1.0" encoding="UTF-8" standalone="no"?>
<svg
   fill="currentColor"
   class="bi bi-save-new"
   viewBox="0 0 16 16"
   version="1.1"
   xmlns="http://www.w3.org/2000/svg"
   xmlns:svg="http://www.w3.org/2000/svg">
    <path
     d="M 1.5 0 A 1.5 1.5 0 0 0 0 1.5 L 0 14.5 A 1.5 1.5 0 0 0 1.5 16 L 10.642578 16 A 5.3575001 5.29 0 0 1 7.5292969 15 L 3 15 L 3 10.5 A 0.5 0.5 0 0 1 3.5 10 L 5.3359375 10 A 5.3575001 5.29 0 0 1 5.5839844 9 L 3.5 9 A 1.5 1.5 0 0 0 2 10.5 L 2 15 L 1.5 15 A 0.5 0.5 0 0 1 1 14.5 L 1 1.5 A 0.5 0.5 0 0 1 1.5 1 L 3 1 L 3 5.5 A 1.5 1.5 0 0 0 4.5 7 L 6.84375 7 A 5.3575001 5.29 0 0 1 8.2285156 6 L 4.5 6 A 0.5 0.5 0 0 1 4 5.5 L 4 1 L 12 1 L 12 5.5 A 0.5 0.5 0 0 1 11.976562 5.5878906 A 5.3575001 5.29 0 0 1 12.931641 5.9277344 A 1.5 1.5 0 0 0 13 5.5 L 13 1 L 13.085938 1 A 0.5 0.5 0 0 1 13.439453 1.1464844 L 14.853516 2.5605469 A 0.5 0.5 0 0 1 15 2.9140625 L 15 7.6347656 A 5.3575001 5.29 0 0 1 16 10.710938 L 16 2.9140625 A 1.5 1.5 0 0 0 15.560547 1.8535156 L 14.146484 0.43945312 A 1.5 1.5 0 0 0 13.085938 0 L 1.5 0 z M 16 10.710938 A 5.3575001 5.29 0 0 1 15 13.767578 L 15 14.5 A 0.5 0.5 0 0 1 14.5 15 L 14 15 L 14 14.818359 A 5.3575001 5.29 0 0 1 10.642578 16 L 14.5 16 A 1.5 1.5 0 0 0 16 14.5 L 16 10.710938 z M 9 2 L 9 5 L 11 5 L 11 2 L 9 2 z " /><path
     d="m 16.009673,10.670478 c 0,2.949407 -2.403695,5.340368 -5.368802,5.340368 -2.9651082,0 -5.3688032,-2.390961 -5.3688032,-5.340368 0,-2.9494067 2.403695,-5.3403674 5.3688032,-5.3403674 2.965107,0 5.368802,2.3909607 5.368802,5.3403674 M 11.400931,7.6507014 C 11.396112,7.2056976 9.9758771,7.1803877 9.9806952,7.6253915 l 0.024971,2.3063562 -2.5626659,0.025309 c -0.4473786,0.00444 -0.472371,1.3002913 -0.024971,1.3002913 l 2.562667,-0.02531 0.024972,2.635384 c 0.0042,0.445009 1.424453,0.47032 1.420236,0.0253 l -0.02498,-2.635377 h 2.387868 c 0.447401,0 0.47235,-1.2957846 0.02497,-1.3002914 h -2.387868 z"

/>
</svg>
