<?xml version="1.0" encoding="UTF-8" standalone="no"?>
<svg
   width="16"
   height="16"
   fill="currentColor"
   class="bi bi-floppy"
   viewBox="0 0 16 16"
   version="1.1"
   id="svg2"
   sodipodi:docname="bi-save2.svg"
   xml:space="preserve"
   inkscape:version="1.3.2 (091e20e, 2023-11-25)"
   xmlns:inkscape="http://www.inkscape.org/namespaces/inkscape"
   xmlns:sodipodi="http://sodipodi.sourceforge.net/DTD/sodipodi-0.dtd"
   xmlns="http://www.w3.org/2000/svg"
   xmlns:svg="http://www.w3.org/2000/svg"><defs
     id="defs2" /><sodipodi:namedview
     id="namedview2"
     pagecolor="#ffffff"
     bordercolor="#000000"
     borderopacity="0.25"
     inkscape:showpageshadow="2"
     inkscape:pageopacity="0.0"
     inkscape:pagecheckerboard="0"
     inkscape:deskcolor="#d1d1d1"
     inkscape:zoom="51.6875"
     inkscape:cx="7.9903265"
     inkscape:cy="7.9903265"
     inkscape:window-width="1392"
     inkscape:window-height="1067"
     inkscape:window-x="3273"
     inkscape:window-y="25"
     inkscape:window-maximized="0"
     inkscape:current-layer="svg2" /><path
     d="M11 2H9v3h2z"
     id="path1" /><path
     d="M1.5 0h11.586a1.5 1.5 0 0 1 1.06.44l1.415 1.414A1.5 1.5 0 0 1 16 2.914V14.5a1.5 1.5 0 0 1-1.5 1.5h-13A1.5 1.5 0 0 1 0 14.5v-13A1.5 1.5 0 0 1 1.5 0M1 1.5v13a.5.5 0 0 0 .5.5H2v-4.5A1.5 1.5 0 0 1 3.5 9h9a1.5 1.5 0 0 1 1.5 1.5V15h.5a.5.5 0 0 0 .5-.5V2.914a.5.5 0 0 0-.146-.353l-1.415-1.415A.5.5 0 0 0 13.086 1H13v4.5A1.5 1.5 0 0 1 11.5 7h-7A1.5 1.5 0 0 1 3 5.5V1H1.5a.5.5 0 0 0-.5.5m3 4a.5.5 0 0 0 .5.5h7a.5.5 0 0 0 .5-.5V1H4zM3 15h10v-4.5a.5.5 0 0 0-.5-.5h-9a.5.5 0 0 0-.5.5z"
     id="path2" /><rect
     style="fill:#fefefe;stroke-width:2.026;paint-order:markers stroke fill"
     id="rect2"
     width="5.1076179"
     height="5.126965"
     x="9.6154776"
     y="9.6928654" /><g
     style="fill:currentColor"
     id="g2"
     transform="matrix(0.49939541,0,0,0.49939541,8,8)"><path
       d="M 2,0 C 0.8954305,0 0,0.8954305 0,2 v 12 c 0,1.104569 0.8954305,2 2,2 h 12 c 1.104569,0 2,-0.895431 2,-2 V 2 C 16,0.8954305 15.104569,0 14,0 Z M 5.2377772,3.7162179 8,6.2857361 10.762223,3.4450315 c 0.472,-0.4719998 2.226005,1.0883004 1.754005,1.5603002 l -2.8019641,3.149632 2.6857411,2.6847403 c 0.471999,0.472 -0.933337,2.109783 -1.405337,1.637783 L 8.1937046,9.675523 5.6251864,12.516228 C 5.1531866,12.988227 3.4766637,11.311704 3.9486634,10.839705 L 6.5956634,8 3.7936998,5.2377772 C 3.3217,4.7657774 4.8045184,3.2829591 5.2765182,3.7549588"
       id="path1-6"
       style="display:inline"
       sodipodi:nodetypes="sssssssssccccccccccccc" /></g></svg>
