<svg version="1.1" width="32" height="32" viewBox="0 0 32 32" xmlns="http://www.w3.org/2000/svg">
    <defs></defs>
    <g transform="matrix(0.096924, 0, 0, -0.096924, -0.455351, 31.699659)" fill="#696969" stroke="none" style="">
        <rect x="30.082" y="-35.846" width="281.397" height="32.391" style="stroke: rgb(105, 105, 105);" transform="matrix(1, 0, 0, -1, 0, 0)"></rect>
        <rect x="31.093" y="-84.432" width="281.397" height="32.391" style="stroke: rgb(105, 105, 105);" transform="matrix(1, 0, 0, -1, 0, 0)"></rect>
        <rect x="31.094" y="-135.042" width="281.397" height="32.391" style="stroke: rgb(105, 105, 105);" transform="matrix(1, 0, 0, -1, 0, 0)"></rect>
        <rect x="59.841" y="-197.529" width="36.44" height="50.611" style="stroke: rgb(105, 105, 105);" transform="matrix(1, 0, 0, -1, 0, 0)"></rect>
        <rect x="248.114" y="-196.517" width="36.44" height="50.611" style="stroke: rgb(105, 105, 105);" transform="matrix(1, 0, 0, -1, 0, 0)"></rect>
        <rect x="150.941" y="-198.542" width="36.44" height="50.611" style="stroke: rgb(105, 105, 105);" transform="matrix(1, 0, 0, -1, 0, 0)"></rect>
        <path style="stroke: rgb(105, 105, 105);" d="M 120.011 224.602 C 120.011 233.68 120.585 240.526 120.585 240.09 L 118.29 264.182 C 118.29 264.182 105.097 291.143 104.523 291.143 C 103.949 291.143 80.431 314.088 80.431 314.088 L 63.222 320.971 L 66.09 306.631 C 66.09 306.631 65.517 297.453 64.944 296.306 C 64.371 295.159 60.355 285.407 60.355 285.407 C 60.355 285.407 54.044 272.787 54.044 272.214 C 54.044 271.641 46.014 256.152 46.014 255.004 C 46.014 253.856 40.851 248.121 40.851 245.826 C 40.851 243.531 38.557 236.648 38.557 236.648 C 38.557 236.648 38.556 229.191 38.556 228.618 C 38.556 228.045 45.439 202.804 45.439 201.657 C 45.439 200.51 59.78 227.471 59.78 227.471 L 71.827 238.943 L 85.594 247.548 L 95.345 236.075 C 95.345 236.075 102.803 226.323 102.803 225.75 C 102.803 225.177 105.097 213.13 105.097 210.835 C 105.097 208.54 107.965 199.936 107.965 199.936 L 115.422 211.982 C 115.422 211.982 121.732 225.75 120.011 224.602 Z"></path>
        <path style="stroke: rgb(105, 105, 105);" d="M 306.727 221.52 C 306.727 230.598 307.301 237.444 307.301 237.008 L 305.006 261.1 C 305.006 261.1 291.813 288.061 291.239 288.061 C 290.665 288.061 267.147 311.006 267.147 311.006 L 249.938 317.889 L 252.806 303.549 C 252.806 303.549 252.233 294.371 251.66 293.224 C 251.087 292.077 247.071 282.325 247.071 282.325 C 247.071 282.325 240.76 269.705 240.76 269.132 C 240.76 268.559 232.73 253.07 232.73 251.922 C 232.73 250.774 227.567 245.039 227.567 242.744 C 227.567 240.449 225.273 233.566 225.273 233.566 C 225.273 233.566 225.272 226.109 225.272 225.536 C 225.272 224.963 232.155 199.722 232.155 198.575 C 232.155 197.428 246.496 224.389 246.496 224.389 L 258.543 235.861 L 272.31 244.466 L 282.061 232.993 C 282.061 232.993 289.519 223.241 289.519 222.668 C 289.519 222.095 291.813 210.048 291.813 207.753 C 291.813 205.458 294.681 196.854 294.681 196.854 L 302.138 208.9 C 302.138 208.9 308.448 222.668 306.727 221.52 Z"></path>
        <path style="stroke: rgb(105, 105, 105);" d="M 213.226 223.814 C 213.226 232.892 213.8 239.738 213.8 239.302 L 211.505 263.394 C 211.505 263.394 198.312 290.355 197.738 290.355 C 197.164 290.355 173.646 313.3 173.646 313.3 L 156.437 320.183 L 159.305 305.843 C 159.305 305.843 158.732 296.665 158.159 295.518 C 157.586 294.371 153.57 284.619 153.57 284.619 C 153.57 284.619 147.259 271.999 147.259 271.426 C 147.259 270.853 139.229 255.364 139.229 254.216 C 139.229 253.068 134.066 247.333 134.066 245.038 C 134.066 242.743 131.772 235.86 131.772 235.86 C 131.772 235.86 131.771 228.403 131.771 227.83 C 131.771 227.257 138.654 202.016 138.654 200.869 C 138.654 199.722 152.995 226.683 152.995 226.683 L 165.042 238.155 L 178.809 246.76 L 188.56 235.287 C 188.56 235.287 196.018 225.535 196.018 224.962 C 196.018 224.389 198.312 212.342 198.312 210.047 C 198.312 207.752 201.18 199.148 201.18 199.148 L 208.637 211.194 C 208.637 211.194 214.947 224.962 213.226 223.814 Z"></path>
    </g>
</svg>
