<?xml version="1.0" encoding="UTF-8"?>
<svg version="1.1" width="32" height="32" viewBox="0 0 32 32" xmlns="http://www.w3.org/2000/svg">
 <path d="M1.827 28.7h28.245v3.25H1.827zm.102-4.877h28.244v3.25H1.929zm0-5.08h28.244v3.251H1.93zm2.885-6.273h3.658v5.08H4.814zm18.896.102h3.658v5.08h-3.657zm-9.752-.202h3.657v5.08h-3.657zm-3.104-2.616c0-.911.057-1.598.057-1.555l-.23-2.418S9.357 3.075 9.299 3.075 6.881.772 6.881.772L5.154.082 5.44 1.52s-.057.92-.115 1.036-.46 1.094-.46 1.094-.634 1.267-.634 1.324-.806 1.612-.806 1.727-.518.691-.518.922-.23.92-.23.92v.807c0 .057.69 2.59.69 2.706s1.44-2.591 1.44-2.591l1.21-1.152 1.381-.863.979 1.151s.748.98.748 1.037.23 1.266.23 1.497.288 1.094.288 1.094l.749-1.21s.633-1.381.46-1.266zm18.741.309c0-.911.057-1.598.057-1.554l-.23-2.419s-1.324-2.706-1.382-2.706-2.418-2.303-2.418-2.303l-1.727-.69.288 1.439s-.058.921-.115 1.036-.461 1.094-.461 1.094-.634 1.267-.634 1.324-.805 1.612-.805 1.728-.519.69-.519.92-.23.922-.23.922v.806c0 .058.69 2.59.69 2.706s1.44-2.59 1.44-2.59l1.21-1.152 1.381-.864.979 1.151s.748.98.748 1.037.23 1.266.23 1.497.289 1.094.289 1.094l.748-1.21s.633-1.381.46-1.266zm-9.385-.23c0-.911.058-1.598.058-1.554l-.23-2.418s-1.325-2.707-1.383-2.707S16.237.851 16.237.851L14.51.161l.288 1.439s-.058.921-.115 1.036-.46 1.094-.46 1.094-.634 1.267-.634 1.324-.806 1.613-.806 1.728-.518.69-.518.92-.23.922-.23.922v.806c0 .057.69 2.591.69 2.706s1.44-2.59 1.44-2.59l1.209-1.152 1.382-.864.978 1.152s.749.978.749 1.036.23 1.267.23 1.497.288 1.094.288 1.094l.748-1.21s.634-1.381.461-1.266z" stroke-width=".1" fill="#62686a" stroke="#62686a"/>
</svg>
