<?xml version="1.0" encoding="UTF-8"?>
<svg version="1.1" width="32" height="32" viewBox="0 0 32 32" xmlns="http://www.w3.org/2000/svg">
 <path d="M26 0c3.29 0 6 2.71 6 6v20c0 3.29-2.71 6-6 6H6c-3.29 0-6-2.71-6-6V6c0-3.29 2.71-6 6-6zm-1 3H7a4 4 0 0 0-4 4v18a4 4 0 0 0 4 4h18a4 4 0 0 0 4-4V7a4 4 0 0 0-4-4zm-1.398 2a1.82 1.82 0 0 1 1.257.541c1.225 1.097 1.858 2.293 2.073 3.8.448 3.729-1.254 7.134-5.866 11.759-6.375 6.39-11.513 5.906-11.734 5.883-1.946-.19-2.88-1.181-3.794-2.078-.7-.703-.72-1.825-.045-2.504h.002l3.396-3.407c.677-.675 1.797-.654 2.498.047l1.711 1.717c1.697-1.01 3.344-2.076 4.455-3.174 1.31-1.329 2.318-2.934 3.168-4.464l-1.713-1.717c-.7-.702-.72-1.825-.045-2.502l3.397-3.406A1.698 1.698 0 0 1 23.602 5z" fill="#62686a"/>
</svg>
