<?xml version="1.0" encoding="UTF-8"?>
<svg version="1.1" width="32" height="32" viewBox="0 0 32 32" xmlns="http://www.w3.org/2000/svg">
 <path d="M13.783 0A1.5 1.5 0 0 0 12.4.92l-1.24 2.963-.305.125L7.887 2.79a1.5 1.5 0 0 0-1.631.326l-3.14 3.139a1.5 1.5 0 0 0-.325 1.63l1.271 3.102-.049.118L.922 12.4A1.5 1.5 0 0 0 0 13.783v4.434A1.5 1.5 0 0 0 .922 19.6l3.175 1.33-1.308 3.185a1.5 1.5 0 0 0 .328 1.63l3.139 3.138a1.5 1.5 0 0 0 1.63.328l3.184-1.307 1.33 3.176a1.5 1.5 0 0 0 1.383.92h4.434a1.5 1.5 0 0 0 1.382-.92l1.33-3.176 3.184 1.307a1.5 1.5 0 0 0 1.631-.328l3.139-3.139a1.5 1.5 0 0 0 .328-1.629l-1.309-3.185 3.176-1.33A1.5 1.5 0 0 0 32 18.217v-4.434a1.5 1.5 0 0 0-.922-1.383l-3.092-1.294-.049-.118 1.272-3.101a1.5 1.5 0 0 0-.326-1.631l-3.139-3.139a1.5 1.5 0 0 0-1.63-.326l-2.97 1.217-.304-.125L19.6.92A1.5 1.5 0 0 0 18.217 0zm.998 3h2.438l1.093 2.611a1.5 1.5 0 0 0 .809.807l1.447.6a1.5 1.5 0 0 0 1.145.002l2.617-1.075 1.725 1.725-1.127 2.75a1.5 1.5 0 0 0 0 1.144l.521 1.26a1.5 1.5 0 0 0 .809.809L29 14.78v2.438l-2.93 1.226a1.5 1.5 0 0 0-.808.81l-.41.995a1.5 1.5 0 0 0-.003 1.14l1.205 2.938-1.726 1.727-3.069-1.26a1.5 1.5 0 0 0-1.144.004l-.805.334a1.5 1.5 0 0 0-.808.805L17.218 29h-2.437l-1.283-3.062a1.5 1.5 0 0 0-.809-.805l-.804-.334a1.5 1.5 0 0 0-1.145-.004l-3.068 1.26-1.727-1.727 1.205-2.937a1.5 1.5 0 0 0-.002-1.141l-.41-.994a1.5 1.5 0 0 0-.809-.813L3 17.22v-2.44l2.743-1.148a1.5 1.5 0 0 0 .809-.809l.521-1.26a1.5 1.5 0 0 0 0-1.144L5.945 7.67 7.67 5.945l2.617 1.075a1.5 1.5 0 0 0 1.144-.002l1.448-.6a1.5 1.5 0 0 0 .808-.807zM16 11a5 5 0 0 0-5 5 5 5 0 0 0 5 5 5 5 0 0 0 5-5 5 5 0 0 0-5-5zm0 3a2 2 0 0 1 2 2 2 2 0 0 1-2 2 2 2 0 0 1-2-2 2 2 0 0 1 2-2z" fill="#62686a"/>
</svg>
