<?xml version="1.0" encoding="utf-8"?>
<!-- Generator: Adobe Illustrator 15.0.0, SVG Export Plug-In . SVG Version: 6.00 Build 0)  -->
<!DOCTYPE svg PUBLIC "-//W3C//DTD SVG 1.1//EN" "http://www.w3.org/Graphics/SVG/1.1/DTD/svg11.dtd">
<svg version="1.1" id="Ebene_1" xmlns="http://www.w3.org/2000/svg" xmlns:xlink="http://www.w3.org/1999/xlink" x="0px" y="0px"
	 width="32px" height="32px" viewBox="0 0 32 32" enable-background="new 0 0 32 32" xml:space="preserve">
<g>
	<g>
		<path fill="#62686A" d="M27.315,13.194l-6.342-8.341c-1.829-1.829-4.792-1.832-6.617-0.008L12.68,6.523l0.011,2.975H7.5
			c-2.669,0-4.833,2.167-4.833,4.84v4.322c0,2.673,2.164,4.84,4.833,4.84h5.24l0.011,2.973l1.642,1.644
			c1.83,1.827,4.792,1.832,6.616,0.007l6.312-8.312C29.147,17.984,29.144,15.023,27.315,13.194z M24.675,18.482l-4.992,6.992
			c-1.094,1.094-2.872,1.094-3.969-0.005l-0.008-4.874H8.467c-1.602,0-2.9-1.3-2.9-2.902v-2.388c0-1.604,1.299-2.903,2.9-2.903
			h7.225l-0.008-4.909c1.095-1.095,2.871-1.093,3.969,0.005l5.018,7.017C25.769,15.611,25.771,17.389,24.675,18.482z"/>
	</g>
</g>
</svg>
