<?xml version="1.0" encoding="utf-8"?>
<!-- Generator: Adobe Illustrator 15.0.0, SVG Export Plug-In . SVG Version: 6.00 Build 0)  -->
<!DOCTYPE svg PUBLIC "-//W3C//DTD SVG 1.1//EN" "http://www.w3.org/Graphics/SVG/1.1/DTD/svg11.dtd">
<?xml-stylesheet type="text/css" href="../less/svg.css" ?>
<svg version="1.1" id="pixelegg_copy" xmlns="http://www.w3.org/2000/svg" xmlns:xlink="http://www.w3.org/1999/xlink" x="0px" y="0px"
	 width="32px" height="32px" viewBox="0 0 32 32" enable-background="new 0 0 32 32" xml:space="preserve">
<g>
	<g>
		<path fill="#696969" d="M25.862,1.375H25.25v5.438h5.438V5.929L25.862,1.375z M24.344,1.375
			H10.75v24.469h19.938V7.719h-6.344V1.375z M27.969,22.219h-14.5v-0.906h14.5V22.219z M27.969,18.601h-14.5v-0.906h14.5V18.601z
			 M27.969,14.969h-14.5v-0.906h14.5V14.969z M27.969,10.438v0.906h-14.5v-0.906H27.969z M4.406,25.844h5.438v-2.719H4.406v-0.906
			h5.438V19.5H4.406v-0.906h5.438v-2.719H4.406v-0.906h5.438V5.906H1.688v24.469h19.938V26.75H4.406V25.844z"/>
	</g>
</g>
</svg>
