<?xml version="1.0" encoding="utf-8"?>
<!-- Generator: Adobe Illustrator 15.0.0, SVG Export Plug-In . SVG Version: 6.00 Build 0)  -->
<!DOCTYPE svg PUBLIC "-//W3C//DTD SVG 1.1//EN" "http://www.w3.org/Graphics/SVG/1.1/DTD/svg11.dtd">
<svg version="1.1" id="Ebene_1" xmlns="http://www.w3.org/2000/svg" xmlns:xlink="http://www.w3.org/1999/xlink" x="0px" y="0px"
	 width="32px" height="32px" viewBox="0 0 32 32" enable-background="new 0 0 32 32" xml:space="preserve">
<path fill="#62686A" d="M16.656,4.611L16.69,0L6.864,6.677l9.728,6.577l0.036-4.819c3.222,0.16,6.227,1.898,7.935,4.717
	c0.002,0.005,0.005,0.009,0.008,0.014c0.166,0.275,0.319,0.56,0.46,0.855c0.002,0.005,0.005,0.011,0.008,0.016
	c0.141,0.298,0.269,0.606,0.382,0.923c0,0.001,0.001,0.003,0.001,0.004c0.107,0.301,0.196,0.604,0.272,0.908
	c0.006,0.024,0.014,0.048,0.02,0.072c0.061,0.246,0.103,0.493,0.143,0.74c0.015,0.089,0.034,0.177,0.046,0.266
	c0.021,0.158,0.029,0.315,0.043,0.473c0.015,0.182,0.034,0.362,0.039,0.546c0.002,0.068-0.003,0.135-0.002,0.203
	c0.001,0.271-0.002,0.544-0.023,0.818c0,0.008-0.002,0.016-0.002,0.023c-0.026,0.326-0.068,0.653-0.128,0.981
	c-0.973,5.348-6.099,8.896-11.446,7.925c-1.099-0.2-2.115-0.583-3.035-1.1c-1.085-0.614-2.062-1.429-2.858-2.426
	c-0.016-0.02-0.029-0.041-0.045-0.061c-0.159-0.203-0.312-0.412-0.457-0.629c-0.056-0.084-0.105-0.173-0.158-0.259
	c-0.097-0.157-0.195-0.312-0.285-0.476c-0.805-1.478-1.241-3.169-1.205-4.929H4.274c0,0.001,0,0.002,0,0.003H2.472
	c-0.002,0.082-0.013,0.164-0.013,0.246C2.459,25.862,8.597,32,16.167,32c7.57,0,13.708-6.138,13.708-13.709
	C29.876,10.886,23.998,4.871,16.656,4.611z"/>
</svg>
