<?xml version="1.0" encoding="utf-8"?>
<!-- Generator: Adobe Illustrator 15.0.0, SVG Export Plug-In . SVG Version: 6.00 Build 0)  -->
<!DOCTYPE svg PUBLIC "-//W3C//DTD SVG 1.1//EN" "http://www.w3.org/Graphics/SVG/1.1/DTD/svg11.dtd">
<svg version="1.1" id="Ebene_1" xmlns="http://www.w3.org/2000/svg" xmlns:xlink="http://www.w3.org/1999/xlink" x="0px" y="0px"
	 width="32px" height="32px" viewBox="0 0 32 32" enable-background="new 0 0 32 32" xml:space="preserve">
<g>
	<g>
		<path fill="none" d="M26.231,0.709H5.997c-2.793,0-5.059,2.266-5.059,5.059v20.236
			c0,2.795,2.266,5.06,5.059,5.06h20.236c2.795,0,5.061-2.265,5.061-5.06V5.768C31.292,2.975,29.026,0.709,26.231,0.709z
			 M28.257,24.991c0,1.676-1.359,3.036-3.035,3.036H7.008c-1.676,0-3.035-1.36-3.035-3.036V6.78c0-1.676,1.359-3.035,3.035-3.035
			h18.213c1.676,0,3.035,1.358,3.035,3.035V24.991z"/>
	</g>
</g>
<path fill="none" d="M9.791,23.081c0.618,0.52,1.429,0.768,2.239,0.754
	c0.293,0.012,0.581-0.047,0.862-0.141c0.463-0.123,0.904-0.307,1.271-0.613l10.93-9.236c1.209-1.02,1.209-2.674,0-3.694
	c-1.207-1.02-3.164-1.02-4.373,0l-8.766,7.409l-1.628-1.654c-0.98-0.992-2.57-0.992-3.55,0c-0.98,0.996-0.98,2.607,0,3.599
	C6.777,19.505,8.791,22.054,9.791,23.081z"/>
</svg>
