<?xml version="1.0" encoding="utf-8"?>
<!-- Generator: Adobe Illustrator 15.0.0, SVG Export Plug-In . SVG Version: 6.00 Build 0)  -->
<!DOCTYPE svg PUBLIC "-//W3C//DTD SVG 1.1//EN" "http://www.w3.org/Graphics/SVG/1.1/DTD/svg11.dtd">
<svg version="1.1" id="Ebene_1" xmlns="http://www.w3.org/2000/svg" xmlns:xlink="http://www.w3.org/1999/xlink" x="0px" y="0px"
	 width="32px" height="32px" viewBox="0 0 32 32" enable-background="new 0 0 32 32" xml:space="preserve">
<g>
	<g>
		<path fill="#62686A" d="M19.802,29.355l9.563-7.263c2.1-2.1,2.092-5.508-0.009-7.612l-1.892-1.889l-3.421-0.014V6.551
			c0-3.071-2.494-5.562-5.569-5.562h-4.971c-3.076,0-5.568,2.49-5.568,5.562v5.972L4.512,12.51l-1.931,1.928
			c-2.099,2.1-2.095,5.51,0.01,7.614l9.596,7.297C14.291,31.453,17.699,31.455,19.802,29.355z M13.707,26.306l-8.074-5.773
			c-1.263-1.263-1.266-3.306-0.006-4.565l5.647,0.009V7.663c0-1.842,1.495-3.336,3.341-3.336h2.749c1.844,0,3.338,1.492,3.338,3.336
			v8.329l5.606,0.01c1.267,1.262,1.267,3.307,0.007,4.569l-8.045,5.741C17.014,27.571,14.967,27.569,13.707,26.306z"/>
	</g>
</g>
</svg>
