<?xml version="1.0" encoding="utf-8"?>
<!-- Generator: Adobe Illustrator 15.0.0, SVG Export Plug-In . SVG Version: 6.00 Build 0)  -->
<!DOCTYPE svg PUBLIC "-//W3C//DTD SVG 1.1//EN" "http://www.w3.org/Graphics/SVG/1.1/DTD/svg11.dtd">
<?xml-stylesheet type="text/css" href="../../../../pixelegg/less/svg.css" ?>
<svg version="1.1" id="mail_attach" xmlns="http://www.w3.org/2000/svg" xmlns:xlink="http://www.w3.org/1999/xlink" x="0px" y="0px"
	 width="32px" height="32px" viewBox="0 0 32 32" enable-background="new 0 0 32 32" xml:space="preserve">
<path fill-rule="evenodd" clip-rule="evenodd" fill="#696969" d="M15.824,28.57
	c-3.363,3.313-8.773,3.3-12.117-0.045c-3.343-3.345-3.356-8.753-0.045-12.118L3.66,16.406L14.307,5.76l1.521-1.521l1.521-1.521
	c2.519-2.52,6.606-2.52,9.126,0c2.521,2.52,2.521,6.605,0,9.126l-1.521,1.52l-1.521,1.521l-5.336,5.337l-1.917,1.914l-3.394,3.396
	l-0.004-0.004c-1.684,1.63-4.368,1.62-6.031-0.044c-1.664-1.662-1.674-4.348-0.042-6.03l-0.005-0.006l1.521-1.521l1.873-1.872
	l1.917-1.916l2.294-2.293l1.785-1.787l1.725-1.725l1.053-1.052l1.521,1.521l-1.475,1.473l-1.568,1.569l-3.193,3.193l-1.643,1.642
	l-1.622,1.623l-1.147,1.145L8.223,20.97c-0.84,0.838-0.84,2.2,0,3.041c0.84,0.84,2.202,0.84,3.042,0l2.667-2.667l1.623-1.622
	l1.642-1.642l1.673-1.674l2.689-2.688l0.353-0.354l1.521-1.52l1.521-1.521l-0.004-0.004c0.016-0.015,0.036-0.027,0.053-0.043
	c1.679-1.68,1.679-4.404,0-6.083c-1.681-1.68-4.404-1.68-6.085,0c-0.015,0.016-0.028,0.035-0.044,0.051l-0.003-0.003l-1.521,1.521
	l-1.52,1.521l-0.353,0.353l-2.69,2.689l-3.542,3.542l-4.062,4.061c-2.52,2.521-2.52,6.606,0,9.127c2.521,2.521,6.606,2.521,9.126,0
	l4.062-4.062l9.625-9.626l1.52-1.52l1.522,1.52l-1.522,1.521L15.828,28.572L15.824,28.57z"/>
</svg>
