<?xml version="1.0" encoding="UTF-8"?>
<svg version="1.1" width="32" height="32" viewBox="0 0 32 32" xmlns="http://www.w3.org/2000/svg">
 <path d="M15.69 29.38c-3.605 3.509-9.405 3.495-12.99-.048A9.033 9.033 0 0 1 2.652 16.5H2.65L14.064 5.223l3.26-3.221c2.701-2.67 7.083-2.67 9.785 0a6.774 6.774 0 0 1 0 9.664l-1.631 1.61-1.63 1.61-5.721 5.653-2.055 2.027-3.64 3.596-.003-.004c-1.806 1.726-4.683 1.716-6.466-.046a4.51 4.51 0 0 1-.045-6.386l-.005-.007 1.63-1.61 4.063-4.012 2.46-2.429 1.913-1.892 1.85-1.827 1.128-1.114 1.631 1.61-1.581 1.56-1.681 1.662-3.423 3.382-1.762 1.739-1.739 1.719-1.23 1.212-1.631 1.612c-.9.887-.9 2.33 0 3.22.9.89 2.36.89 3.261 0l2.86-2.824 1.74-1.718 1.76-1.739 1.793-1.772 2.883-2.847.378-.375 1.631-1.61 1.63-1.61-.004-.005c.018-.016.039-.028.057-.045a4.518 4.518 0 0 0 0-6.442 4.654 4.654 0 0 0-6.523 0c-.016.017-.03.037-.047.054l-.004-.003-1.63 1.61-1.63 1.611-.378.374-2.884 2.848-3.797 3.75-4.355 4.301a6.777 6.777 0 0 0 0 9.666c2.703 2.67 7.082 2.67 9.784 0l4.354-4.302L28.74 13.28l1.629-1.61L32 13.28l-1.631 1.611-14.674 14.492z" fill="#62686a"/>
</svg>
