<?xml version="1.0" encoding="utf-8"?>
<!-- Generator: Adobe Illustrator 15.0.0, SVG Export Plug-In . SVG Version: 6.00 Build 0)  -->
<!DOCTYPE svg PUBLIC "-//W3C//DTD SVG 1.1//EN" "http://www.w3.org/Graphics/SVG/1.1/DTD/svg11.dtd">
<?xml-stylesheet type="text/css" href="../less/svg.css" ?>
<svg version="1.1" id="pixelegg_edit_leaf" xmlns="http://www.w3.org/2000/svg" xmlns:xlink="http://www.w3.org/1999/xlink" x="0px" y="0px"
	 width="32px" height="32px" viewBox="0 0 32 32" enable-background="new 0 0 32 32" xml:space="preserve">
<g>
	<g>
		<path fill="#696969" d="M25.528,7.701l-5.324-5.025h-0.676v6h6V7.701z M17.528,10.676v-8
			h-14v27h6.444l1.556-7l12-12H17.528z M25.528,29.676v-5.5l-5.077,5.5H25.528z M15.157,22.305l4.642,4.617l8.211-8.158
			l-4.642-4.617L15.157,22.305z M30.167,14.886L27.267,12c-0.481-0.478-1.287-0.453-1.799,0.058l-1.393,1.385l4.641,4.618
			l1.393-1.386C30.622,16.164,30.647,15.363,30.167,14.886z M11.655,30.412l6.499-1.846l-4.642-4.617L11.655,30.412z"/>
	</g>
</g>
</svg>
