<?xml version="1.0" encoding="UTF-8"?>
<svg version="1.1" width="32" height="32" viewBox="0 0 32 32" xmlns="http://www.w3.org/2000/svg">
 <path fill="#62686A" stroke="#62686A" stroke-width="4" stroke-linejoin="round" stroke-miterlimit="10" d="M29.775 12.563s-3.188 4.226-7.156 7.205c-.001-.012.002-.008 0 0l.27.883c1.623 5.399 1.723 9.137 1.723 9.137l-8.595-5.225-.016.002c-.005 0-.022-.006-.029-.008-4.195 2.902-8.581 5.229-8.581 5.229s.354-4.615 1.974-10.009c.003.003.002-.008 0 0-3.963-2.971-7.141-7.212-7.141-7.212l9.471-.861L16 2.231l4.307 9.471 9.468.861z"/>
</svg>
