<?xml version="1.0" encoding="UTF-8"?>
<svg version="1.1" width="32" height="32" viewBox="0 0 32 32" xmlns="http://www.w3.org/2000/svg">
 <path d="M31.995 14.89a3.66 3.66 0 0 0-.08-1.004c-.146-.667-.48-1.306-1-1.78L18.772 1.055c-1.544-1.405-3.97-1.406-5.516-.002L1.088 12.108c-1.041.946-1.334 2.552-.88 3.726.453 1.175 1.75 2.165 3.158 2.165h4.635v10c0 2.174 1.826 4 4 4h8c2.173 0 4-1.826 4-4v-10h4.634c1.408 0 2.704-.99 3.159-2.164a3.16 3.16 0 0 0 .2-.945zm-2.973-.29a.387.387 0 0 1-.386.4h-6.635a1 1 0 0 0-1 1v12a1 1 0 0 1-1 1h-8a1 1 0 0 1-1-1V15.999a1 1 0 0 0-1-1H3.366a.387.387 0 0 1-.26-.672L15.274 3.272a1.1 1.1 0 0 1 1.479 0l12.143 11.055a.387.387 0 0 1 .127.275z" fill="#62686a"/>
</svg>
