<?xml version="1.0" encoding="utf-8"?>
<!-- Generator: Adobe Illustrator 15.0.0, SVG Export Plug-In . SVG Version: 6.00 Build 0)  -->
<!DOCTYPE svg PUBLIC "-//W3C//DTD SVG 1.1//EN" "http://www.w3.org/Graphics/SVG/1.1/DTD/svg11.dtd">
<svg version="1.1" id="Ebene_1" xmlns="http://www.w3.org/2000/svg" xmlns:xlink="http://www.w3.org/1999/xlink" x="0px" y="0px"
	 width="32px" height="32px" viewBox="0 0 32 32" enable-background="new 0 0 32 32" xml:space="preserve">
<g>
	<path fill="#62686a" d="M12.145,29.958c-0.496,0-0.899-0.401-0.899-0.899V18.104H4.11c-0.241,0-0.471-0.096-0.641-0.269
		c-1.391-1.412-1.391-2.786,0-4.197l9.976-9.699c0.663-0.672,1.563-1.048,2.52-1.048c0.958,0,1.856,0.377,2.531,1.061l10.018,9.671
		c1.411,1.428,1.411,2.802,0.017,4.212c-0.172,0.173-0.398,0.269-0.64,0.269h-6.136v10.955c0,0.498-0.401,0.899-0.898,0.899H12.145z
		"/>
</g>
</svg>
