<?xml version="1.0" encoding="utf-8"?>
<!-- Generator: Adobe Illustrator 15.0.0, SVG Export Plug-In . SVG Version: 6.00 Build 0)  -->
<!DOCTYPE svg PUBLIC "-//W3C//DTD SVG 1.1//EN" "http://www.w3.org/Graphics/SVG/1.1/DTD/svg11.dtd">
<svg version="1.1" id="Ebene_1" xmlns="http://www.w3.org/2000/svg" xmlns:xlink="http://www.w3.org/1999/xlink" x="0px" y="0px"
	 width="32px" height="32px" viewBox="0 0 32 32" enable-background="new 0 0 32 32" xml:space="preserve">
<g>
	<path fill="#006699" d="M14.394,26.333c0-0.995-0.204-1.896-0.604-2.682c-0.407-0.8-0.98-1.422-1.704-1.855
		c-0.72-0.43-1.542-0.648-2.446-0.648H6.718c-0.231,0-0.419,0.196-0.419,0.439v9.941c0,0.242,0.188,0.439,0.419,0.439h2.94
		c0.002,0,0.002,0,0.002,0c0.896-0.004,1.717-0.227,2.442-0.66c0.729-0.436,1.301-1.059,1.699-1.847
		c0.393-0.781,0.592-1.68,0.592-2.67V26.333z M9.093,23.687h0.545c0.642,0,1.108,0.201,1.427,0.617
		c0.336,0.439,0.508,1.118,0.508,2.023l0.001,0.519c-0.008,0.869-0.186,1.534-0.526,1.978c-0.325,0.418-0.792,0.622-1.429,0.622
		H9.093V23.687z"/>
	<path fill="#006699" d="M20.193,21.432c-0.059-0.171-0.216-0.284-0.391-0.284h-1.812c-0.175,0-0.33,0.113-0.393,0.286l-3.535,9.941
		c-0.048,0.136-0.029,0.285,0.048,0.404c0.079,0.119,0.208,0.188,0.345,0.188h2.078c0.182,0,0.341-0.121,0.398-0.3l0.558-1.749
		h2.827l0.562,1.749c0.059,0.179,0.218,0.3,0.396,0.3h2.079c0.138,0,0.267-0.069,0.345-0.188c0.079-0.119,0.096-0.27,0.049-0.405
		L20.193,21.432z M19.509,27.382h-1.21l0.602-1.897L19.509,27.382z"/>
	<path fill="#006699" d="M31.922,21.331c-0.078-0.116-0.205-0.184-0.342-0.184h-2.176c-0.187,0-0.35,0.127-0.4,0.312l-1.751,6.079
		l-1.741-6.076c-0.051-0.188-0.215-0.314-0.4-0.314h-2.17c-0.137,0-0.264,0.067-0.344,0.184c-0.078,0.115-0.098,0.264-0.053,0.398
		l3.293,9.943c0.06,0.177,0.218,0.295,0.396,0.295h2.043c0.179,0,0.337-0.118,0.396-0.295l3.305-9.943
		C32.021,21.596,32.001,21.448,31.922,21.331z"/>
</g>
<path fill="#006699" d="M23.329,10.722l8.145-0.147c0.284-0.006,0.522,0.22,0.526,0.509c0.004,0.122-0.036,0.239-0.114,0.333
	l-3.98,4.961c-0.183,0.226-0.507,0.261-0.729,0.082c-0.023-0.021-0.047-0.043-0.064-0.064l-4.163-4.815
	c-0.186-0.217-0.163-0.543,0.052-0.73C23.091,10.769,23.207,10.724,23.329,10.722 M0.618,15.278l8.145-0.146
	c0.285-0.006,0.514-0.241,0.508-0.527c-0.002-0.121-0.046-0.239-0.126-0.331L4.983,9.458C4.796,9.242,4.47,9.217,4.253,9.407
	c-0.024,0.02-0.043,0.042-0.064,0.067l-3.984,4.962c-0.18,0.227-0.145,0.55,0.079,0.729C0.377,15.24,0.496,15.28,0.618,15.278"/>
<path fill="#006699" d="M6.187,7.095C6.851,7.586,7.855,7.43,8.328,6.792c1.838-2.312,4.586-3.669,7.539-3.722
	c4.665-0.085,8.786,3.157,9.803,7.711l0.088,0.398l3.107-0.056l-0.108-0.583c-0.577-3.047-2.23-5.792-4.658-7.725
	c-2.349-1.869-5.29-2.867-8.285-2.812c-3.875,0.07-7.481,1.847-9.945,4.944C5.626,5.275,5.523,5.681,5.584,6.087
	C5.646,6.495,5.859,6.852,6.187,7.095z"/>
<g>
	<path fill="#006699" d="M8.833,19.602c-1.168-1.25-2.024-2.807-2.417-4.562l-0.087-0.398l-3.108,0.056l0.108,0.583
		c0.291,1.54,0.859,3.002,1.662,4.321H8.833z"/>
</g>
</svg>
