<?xml version="1.0" encoding="utf-8"?>
<!-- Generator: Adobe Illustrator 15.0.0, SVG Export Plug-In . SVG Version: 6.00 Build 0)  -->
<!DOCTYPE svg PUBLIC "-//W3C//DTD SVG 1.1//EN" "http://www.w3.org/Graphics/SVG/1.1/DTD/svg11.dtd">
<?xml-stylesheet type="text/css" href="../less/svg.css" ?>
<svg version="1.1" id="pixelegg_groupware" xmlns="http://www.w3.org/2000/svg" xmlns:xlink="http://www.w3.org/1999/xlink" x="0px" y="0px"
	 width="32px" height="32px" viewBox="0 0 32 32" enable-background="new 0 0 32 32" xml:space="preserve">
<path fill="#696969" d="M29.244,11.437l0.008-0.018l-3.367-9.423H16.08h-0.005
	c-0.002,0-0.005,0-0.007,0c-1.699,0-3.329,0.303-4.839,0.854C5.843,4.796,1.995,9.936,1.995,15.973c0,2.416,0.616,4.689,1.701,6.669
	c2.379,4.381,7.032,7.363,12.372,7.363c2.247,0,4.463-0.551,6.448-1.57l0.113-0.07c4.422-2.348,7.375-7.055,7.375-12.392
	C30.004,14.384,29.734,12.859,29.244,11.437z M22.863,23.574c-0.838,0.637-1.914,1.135-3.234,1.49s-2.633,0.533-3.939,0.533
	c-2.838,0-5.086-0.863-6.747-2.594c-1.662-1.732-2.494-4.016-2.494-6.854c0-2.843,0.904-5.147,2.717-6.924
	c1.811-1.774,4.246-2.664,7.308-2.664c2.171,0,4.017,0.602,5.539,1.81l-1.471,2.626c-0.414-0.344-1.055-0.687-1.918-1.024
	c-0.867-0.341-1.607-0.51-2.229-0.51c-1.947,0-3.483,0.615-4.609,1.841c-1.125,1.228-1.688,2.872-1.688,4.931
	c0,1.961,0.554,3.526,1.656,4.702c1.103,1.17,2.605,1.758,4.505,1.758c1.25,0,2.284-0.316,3.094-0.955v-3.619h-2.742v-2.788h6.254
	V23.574z M16.412,3.927h8.071l2.477,7.493C25.236,7.208,21.193,4.184,16.412,3.927z"/>
</svg>
