<?xml version="1.0" encoding="utf-8"?>
<!-- Generator: Adobe Illustrator 15.0.0, SVG Export Plug-In . SVG Version: 6.00 Build 0)  -->
<!DOCTYPE svg PUBLIC "-//W3C//DTD SVG 1.1//EN" "http://www.w3.org/Graphics/SVG/1.1/DTD/svg11.dtd">
<?xml-stylesheet type="text/css" href="../less/svg.css" ?>
<svg version="1.1" id="pixelegg_infolog_task" xmlns="http://www.w3.org/2000/svg" xmlns:xlink="http://www.w3.org/1999/xlink" x="0px" y="0px"
	 width="32px" height="32px" viewBox="0 0 32 32" enable-background="new 0 0 32 32" xml:space="preserve">
<g>
	<g>
		<path fill="#696969" stroke-width="0.75" d="M12.434,7.442h7.822
			c0.539,0,0.979-0.438,0.979-0.978V4.509c0-0.54-0.439-0.978-0.979-0.978H19.22c0.038-0.158,0.059-0.321,0.059-0.489
			c0-1.35-1.313-2.445-2.934-2.445c-1.621,0-2.934,1.095-2.934,2.445c0,0.167,0.021,0.331,0.06,0.489h-1.037
			c-0.541,0-0.978,0.438-0.978,0.978v1.956C11.456,7.004,11.893,7.442,12.434,7.442z M15.367,2.554h1.955v1.955h-1.955V2.554z
			 M26.123,4.509h-2.934v2.445c0,0.81-0.364,1.466-0.815,1.466H10.315C9.865,8.42,9.5,7.763,9.5,6.954V4.509H6.567
			c-1.08,0-1.956,0.876-1.956,1.956v22.489c0,1.079,0.875,1.955,1.956,1.955h19.556c1.079,0,1.955-0.876,1.955-1.955V6.465
			C28.078,5.385,27.202,4.509,26.123,4.509z"/>
	</g>
</g>
<line fill="#696969" stroke-width="2" x1="7.5" y1="13.188" x2="25.582" y2="13.188"/>
<line fill="#696969" stroke-width="2" x1="7.5" y1="19.721" x2="25.582" y2="19.721"/>
<line fill="#696969" stroke-width="2" x1="7.5" y1="26.479" x2="25.582" y2="26.479"/>
</svg>
