<?xml version="1.0" encoding="utf-8"?>
<!-- Generator: Adobe Illustrator 15.0.0, SVG Export Plug-In . SVG Version: 6.00 Build 0)  -->
<!DOCTYPE svg PUBLIC "-//W3C//DTD SVG 1.1//EN" "http://www.w3.org/Graphics/SVG/1.1/DTD/svg11.dtd">
<?xml-stylesheet type="text/css" href="../less/svg.css" ?>
<svg version="1.1" id="pixelegg_infolog" xmlns="http://www.w3.org/2000/svg" xmlns:xlink="http://www.w3.org/1999/xlink" x="0px" y="0px"
	 width="32px" height="32px" viewBox="0 0 32 32" enable-background="new 0 0 32 32" xml:space="preserve">
<g>
	<g>
		<path fill="#696969" d="M11.775,28.953c0,0-0.801,0.314-0.972,0
			c-0.174-0.321,0-0.973,0-0.973l1.944-8.746L26.755,5.226c-0.352-0.352-0.837-0.569-1.374-0.569h-2.916v2.43
			c0,0.805-0.362,1.458-0.811,1.458H9.669c-0.447,0-0.81-0.653-0.81-1.458v-2.43H5.944C4.871,4.656,4,5.527,4,6.6v22.353
			c0,1.073,0.871,1.943,1.944,1.943h19.437c1.074,0,1.943-0.87,1.943-1.943v-8.747l-6.803,6.803L11.775,28.953z M11.775,7.572h7.775
			c0.536,0,0.972-0.436,0.972-0.972V4.656c0-0.537-0.436-0.972-0.972-0.972h-1.03c0.037-0.157,0.058-0.319,0.058-0.486
			c0-1.342-1.306-2.429-2.915-2.429c-1.61,0-2.916,1.087-2.916,2.429c0,0.167,0.02,0.329,0.059,0.486h-1.031
			c-0.537,0-0.972,0.435-0.972,0.972V6.6C10.803,7.136,11.238,7.572,11.775,7.572z M14.69,2.712h1.943v1.944H14.69V2.712z
			 M16.273,18.874l4.511,4.487l7.98-7.929l-4.511-4.487L16.273,18.874z M30.86,11.663l-2.819-2.805
			c-0.467-0.464-1.249-0.439-1.747,0.057l-1.354,1.346l4.511,4.487l1.353-1.346C31.302,12.906,31.328,12.128,30.86,11.663z
			 M14.674,20.471l-1.804,6.282l6.315-1.795L14.674,20.471z"/>
	</g>
</g>
</svg>
