<?xml version="1.0" encoding="UTF-8"?>
<svg version="1.1" width="32" height="32" viewBox="0 0 32 32" xmlns="http://www.w3.org/2000/svg">
 <path d="M16 0C7.181 0 0 7.181 0 16s7.181 16 16 16c8.819 0 16-7.181 16-16S24.819 0 16 0zm0 3c.263 0 .524.01.783.025C17.816 4.83 18.597 6.856 19.123 9h-6.246c.526-2.144 1.306-4.17 2.34-5.975.26-.015.52-.025.783-.025zm-4.549.816A28.112 28.112 0 0 0 9.736 9H5.04a12.994 12.994 0 0 1 6.412-5.184zm9.098 0A12.993 12.993 0 0 1 26.96 9h-4.697a28.116 28.116 0 0 0-1.715-5.184zM3.625 12h5.582a32.114 32.114 0 0 0-.004 8H3.625C3.22 18.74 3 17.397 3 16s.22-2.74.625-4zm8.687 0h7.375a30.456 30.456 0 0 1-.004 8h-7.367a30.456 30.456 0 0 1-.004-8zm10.48 0h5.582c.405 1.26.625 2.603.625 4s-.22 2.74-.625 4h-5.578a32.061 32.061 0 0 0-.004-8zM5.038 23h4.694a28 28 0 0 0 1.71 5.182A12.994 12.994 0 0 1 5.039 23zm7.842 0h6.238c-.527 2.149-1.308 4.177-2.335 5.975-.26.015-.52.025-.784.025s-.523-.01-.783-.025C14.19 27.177 13.408 25.149 12.88 23zm9.387 0h4.693a12.994 12.994 0 0 1-6.404 5.182A28 28 0 0 0 22.266 23z" fill="#62686a"/>
</svg>
