<?xml version="1.0" encoding="utf-8"?>
<!-- Generator: Adobe Illustrator 15.0.0, SVG Export Plug-In . SVG Version: 6.00 Build 0)  -->
<!DOCTYPE svg PUBLIC "-//W3C//DTD SVG 1.1//EN" "http://www.w3.org/Graphics/SVG/1.1/DTD/svg11.dtd">
<svg version="1.1" id="Ebene_1" xmlns="http://www.w3.org/2000/svg" xmlns:xlink="http://www.w3.org/1999/xlink" x="0px" y="0px"
	 width="32px" height="32px" viewBox="0 0 32 32" enable-background="new 0 0 32 32" xml:space="preserve">
<path fill="#62686A" d="M22.162,19.391c0,0.548-0.708,0.992-1.581,0.992H5.992c-0.873,0-1.58-0.444-1.58-0.992l0,0
	c0-0.548,0.707-0.991,1.58-0.991h14.589C21.454,18.399,22.162,18.843,22.162,19.391L22.162,19.391z"/>
<path fill="#62686A" d="M22.162,22.956c0,0.547-0.708,0.992-1.581,0.992H5.992c-0.873,0-1.58-0.445-1.58-0.992l0,0
	c0-0.549,0.707-0.992,1.58-0.992h14.589C21.454,21.964,22.162,22.407,22.162,22.956L22.162,22.956z"/>
<path fill="#62686A" d="M22.162,26.521c0,0.548-0.708,0.992-1.581,0.992H5.992c-0.873,0-1.58-0.444-1.58-0.992l0,0
	c0-0.548,0.707-0.992,1.58-0.992h14.589C21.454,25.528,22.162,25.973,22.162,26.521L22.162,26.521z"/>
<g>
	<g>
		<polygon fill="#62686A" points="31.4,17.125 24.344,17.125 24.344,10.027 		"/>
	</g>
	<g>
		<path fill="#62686A" d="M25.488,11.5l4.355,4.356V29.75H2.156V11.5H25.488 M26.316,9.5H0.156v22.25h31.688V15.027L26.316,9.5
			L26.316,9.5z"/>
	</g>
</g>
</svg>
