<?xml version="1.0" encoding="UTF-8"?>
<svg version="1.1" width="32" height="32" viewBox="0 0 32 32" xmlns="http://www.w3.org/2000/svg">
 <path d="M22.223 14.754c0 .553-.715 1.002-1.597 1.002H5.893c-.881 0-1.595-.449-1.595-1.002 0-.553.714-1 1.595-1h14.733c.882-.002 1.597.447 1.597 1zm0 3.6c0 .552-.715 1.002-1.597 1.002H5.893c-.881 0-1.595-.45-1.595-1.002 0-.554.714-1.002 1.595-1.002h14.733c.882 0 1.597.448 1.597 1.002zm0 3.6c0 .553-.715 1.002-1.597 1.002H5.893c-.881 0-1.595-.449-1.595-1.002 0-.553.714-1.002 1.595-1.002h14.733c.882 0 1.597.449 1.597 1.002z" fill="#62686a"/><g fill="#62686a"><path d="M24.425 12.465V5.297l7.125 7.168z"/><path d="m25.58 6.785 4.398 4.398v14.03H2.02V6.785h23.56m.836-2.02H0v22.468h31.999V10.346z"/></g>
</svg>
