<?xml version="1.0" encoding="UTF-8"?>
<svg version="1.1" width="32" height="32" viewBox="0 0 32 32" xmlns="http://www.w3.org/2000/svg">
 <path d="M11.719 25.389 10.1 26.997a3.623 3.623 0 0 1-5.089 0 3.504 3.504 0 0 1-1.045-2.504c0-.944.371-1.834 1.045-2.502l5.96-5.914c1.235-1.225 3.559-3.028 5.252-1.349a1.982 1.982 0 1 0 2.793-2.814c-2.878-2.857-7.134-2.329-10.839 1.347l-5.96 5.915A7.447 7.447 0 0 0 0 24.493c0 2.01.788 3.897 2.218 5.317A7.55 7.55 0 0 0 7.555 32a7.554 7.554 0 0 0 5.339-2.19l1.621-1.608a1.982 1.982 0 1 0-2.796-2.813zM29.781 2.417c-3.092-3.068-7.415-3.234-10.276-.394l-2.02 2.003a1.982 1.982 0 1 0 2.795 2.813l2.017-2.002c1.483-1.472 3.425-.862 4.692.394a3.506 3.506 0 0 1 1.044 2.503c0 .945-.37 1.835-1.044 2.503l-6.359 6.308c-2.906 2.885-4.271 1.531-4.853.953a1.983 1.983 0 0 0-2.794 2.815c1.334 1.325 2.859 1.981 4.456 1.981 1.955 0 4.021-.985 5.985-2.936l6.358-6.308C31.212 11.633 32 9.744 32 7.735s-.788-3.897-2.219-5.318z" fill="#62686a"/>
</svg>
