<?xml version="1.0" encoding="UTF-8"?>
<svg version="1.1" width="32" height="32" viewBox="0 0 32 32" xmlns="http://www.w3.org/2000/svg">
 <path d="M15.5 0C11.371 0 8 3.371 8 7.5V11c-1.662 0-3 1.338-3 3v15c0 1.662 1.338 3 3 3h16c1.662 0 3-1.338 3-3V14c0-1.662-1.338-3-3-3V7.5C24 3.371 20.629 0 16.5 0zm0 3h1C19.019 3 21 4.981 21 7.5V11H11V7.5C11 4.981 12.981 3 15.5 3zm.5 14a3 3 0 0 1 3 3 3 3 0 0 1-1 2.232V25c0 1.108-.892 2-2 2s-2-.892-2-2v-2.768A3 3 0 0 1 13 20a3 3 0 0 1 3-3z" color="#000" fill="#62686a"/>
</svg>
