<?xml version="1.0" encoding="utf-8"?>
<!-- Generator: Adobe Illustrator 15.0.0, SVG Export Plug-In . SVG Version: 6.00 Build 0)  -->
<!DOCTYPE svg PUBLIC "-//W3C//DTD SVG 1.1//EN" "http://www.w3.org/Graphics/SVG/1.1/DTD/svg11.dtd">
<?xml-stylesheet type="text/css" href="../less/svg.css" ?>
<svg version="1.1" id="pixelegg_lock" xmlns="http://www.w3.org/2000/svg" xmlns:xlink="http://www.w3.org/1999/xlink" x="0px" y="0px"
	 width="32px" height="32px" viewBox="0 0 32 32" enable-background="new 0 0 32 32" xml:space="preserve">
<g>
	<g>
		<path fill="#696969" d="M25.308,14.912h-0.962V7.272c0-3.692-3.442-6.685-7.688-6.685
			S8.968,3.58,8.968,7.272v7.639H8.007c-1.592,0-2.883,1.283-2.883,2.865v10.505c0,1.581,1.292,2.865,2.883,2.865h17.301
			c1.591,0,2.883-1.284,2.883-2.865V17.776C28.19,16.194,26.898,14.912,25.308,14.912z M18.578,24.888v1.483
			c0,1.055-0.859,1.91-1.921,1.91c-1.062,0-1.923-0.855-1.923-1.91v-1.484c-1.144-0.661-1.922-1.879-1.922-3.289
			c0-2.109,1.722-3.821,3.845-3.821c2.122,0,3.844,1.712,3.844,3.821C20.501,23.008,19.723,24.227,18.578,24.888z M20.501,13.957
			c0,0.336-0.093,0.655-0.235,0.955h-7.218c-0.143-0.3-0.235-0.619-0.235-0.955V7.272c0-1.583,1.722-2.865,3.845-2.865
			c2.122,0,3.844,1.282,3.844,2.865V13.957z"/>
	</g>
</g>
</svg>
