<?xml version="1.0" encoding="utf-8"?>
<!-- Generator: Adobe Illustrator 15.0.0, SVG Export Plug-In . SVG Version: 6.00 Build 0)  -->
<!DOCTYPE svg PUBLIC "-//W3C//DTD SVG 1.1//EN" "http://www.w3.org/Graphics/SVG/1.1/DTD/svg11.dtd">
<svg version="1.1" id="Ebene_1" xmlns="http://www.w3.org/2000/svg" xmlns:xlink="http://www.w3.org/1999/xlink" x="0px" y="0px"
	 width="128px" height="128px" viewBox="0 0 128 128" enable-background="new 0 0 128 128" xml:space="preserve">
<path fill="none" stroke="#000000" stroke-width="0.5" stroke-linecap="round" stroke-linejoin="round" d="M334.214,212.307"/>
<path fill="none" stroke="#000000" stroke-width="0.5" stroke-linecap="round" stroke-linejoin="round" d="M335.602,213.389"/>
<path fill="#FFFFFF" d="M63.905,1.875C29.44,1.875,1.5,29.814,1.5,64.281c0,34.465,27.94,62.405,62.405,62.405
	c34.466,0,62.407-27.94,62.407-62.405C126.312,29.814,98.371,1.875,63.905,1.875z M22.731,48.011l70.857-18.829l1.907,7.214
	L66.287,67.604L24.513,54.729L22.731,48.011z M105.768,78.744L58.272,91.305l-22.451,5.968l-0.873-3.065l-8.436-31.902l41.067,12.65
	l29.719-31.749l9.321,35.248l-0.867,0.23L105.768,78.744z"/>
</svg>
