<?xml version="1.0" encoding="utf-8"?>
<!-- Generator: Adobe Illustrator 15.0.0, SVG Export Plug-In . SVG Version: 6.00 Build 0)  -->
<!DOCTYPE svg PUBLIC "-//W3C//DTD SVG 1.1//EN" "http://www.w3.org/Graphics/SVG/1.1/DTD/svg11.dtd">
<svg version="1.1" id="Ebene_1" xmlns="http://www.w3.org/2000/svg" xmlns:xlink="http://www.w3.org/1999/xlink" x="0px" y="0px"
	 width="515.91px" height="728.5px" viewBox="0 0 515.91 728.5" enable-background="new 0 0 515.91 728.5" xml:space="preserve">
<g id="Ebene_3" display="none">
	<rect x="-121.672" y="161.144" display="inline" fill="#C60086" width="806.359" height="423.299"/>
</g>
<g id="Ebene_4">
	<g>
		<path fill="#FFFFFF" d="M149.137,400.336l0.639-1.117c0.16-0.319,0.479-0.319,0.639-0.16c0.16,0,1.597,1.118,2.874,1.118
			c0.958,0,1.756-0.639,1.756-1.437c0-0.959-0.798-1.598-2.395-2.236c-1.756-0.639-3.513-1.756-3.513-3.991
			c0-1.597,1.277-3.513,4.311-3.513c1.916,0,3.513,0.957,3.832,1.277c0.16,0.159,0.319,0.479,0.16,0.639l-0.958,0.958
			c-0.16,0.159-0.479,0.319-0.639,0.159c-0.16-0.159-1.597-0.958-2.714-0.958s-1.756,0.639-1.756,1.278
			c0,0.798,0.639,1.437,2.235,2.075c1.916,0.798,3.992,1.757,3.992,4.151c0,1.916-1.756,3.673-4.471,3.673
			c-2.395,0-3.832-1.118-4.151-1.438C148.977,400.815,148.977,400.656,149.137,400.336z"/>
		<path fill="#FFFFFF" d="M167.978,389.318c0-0.159,0.16-0.318,0.319-0.318h0.319c0.16,0,0.319,0,0.319,0.159l4.152,8.782l0,0
			l4.151-8.782c0-0.159,0.16-0.159,0.319-0.159h0.319c0.16,0,0.319,0.159,0.319,0.318l2.235,12.455c0,0.319-0.16,0.479-0.319,0.479
			h-1.756c-0.16,0-0.319-0.159-0.319-0.318l-1.118-7.025l0,0l-3.353,7.344c0,0.16-0.16,0.16-0.319,0.16h-0.319
			c-0.16,0-0.319-0.16-0.319-0.16l-3.354-7.344l0,0l-1.118,7.025c0,0.159-0.16,0.318-0.319,0.318h-1.756
			c-0.319,0-0.319-0.159-0.319-0.479L167.978,389.318z"/>
		<path fill="#FFFFFF" d="M188.417,401.773l5.908-12.455c0-0.159,0.16-0.159,0.319-0.159h0.16c0.16,0,0.319,0.159,0.319,0.159
			l5.908,12.455c0.16,0.16,0,0.479-0.319,0.479h-1.597c-0.319,0-0.479-0.159-0.639-0.318l-0.958-2.076h-5.749l-0.958,2.076
			c0,0.159-0.319,0.318-0.639,0.318h-1.597C188.576,402.252,188.417,401.934,188.417,401.773z M196.72,397.781l-1.916-4.15l0,0
			l-1.916,4.15H196.72z"/>
		<path fill="#FFFFFF" d="M209.334,389.639c0-0.16,0.16-0.32,0.319-0.32h5.429c2.235,0,4.151,1.757,4.151,3.992
			c0,1.757-1.118,3.034-2.874,3.832l2.555,4.791c0.16,0.159,0,0.479-0.319,0.479h-2.076c-0.16,0-0.319-0.159-0.319-0.159
			l-2.555-4.95h-2.076v4.79c0,0.16-0.16,0.319-0.319,0.319h-1.756c-0.16,0-0.319-0.159-0.319-0.319L209.334,389.639L209.334,389.639
			z M214.923,395.227c0.958,0,1.916-0.798,1.916-1.916c0-0.957-0.798-1.756-1.916-1.756h-3.194v3.672H214.923L214.923,395.227z"/>
		<path fill="#FFFFFF" d="M230.411,391.395h-2.874c-0.16,0-0.319-0.16-0.319-0.319v-1.597c0-0.16,0.16-0.319,0.319-0.319h8.303
			c0.16,0,0.319,0.159,0.319,0.319v1.597c0,0.159-0.16,0.319-0.319,0.319h-2.874v10.379c0,0.16-0.16,0.319-0.319,0.319h-1.756
			c-0.16,0-0.319-0.159-0.319-0.319v-10.379H230.411z"/>
		<path fill="#FFFFFF" d="M261.389,389c3.832,0,6.865,3.033,6.865,6.706s-3.033,6.706-6.865,6.706c-3.833,0-6.867-3.033-6.867-6.706
			S257.556,389,261.389,389z M261.389,400.018c2.395,0,4.471-1.916,4.471-4.312s-1.916-4.312-4.471-4.312s-4.472,1.916-4.472,4.312
			S258.993,400.018,261.389,400.018z"/>
		<path fill="#FFFFFF" d="M277.195,389.318c0-0.159,0.16-0.318,0.32-0.318h0.479l7.984,8.143l0,0v-7.664
			c0-0.16,0.159-0.319,0.318-0.319h1.757c0.159,0,0.319,0.159,0.319,0.319v12.455c0,0.159-0.16,0.318-0.319,0.318h-0.479
			l-7.983-8.462l0,0v7.983c0,0.16-0.159,0.319-0.319,0.319h-1.756c-0.16,0-0.32-0.159-0.32-0.319V389.318L277.195,389.318z"/>
		<path fill="#FFFFFF" d="M298.273,389.639c0-0.16,0.159-0.32,0.319-0.32h1.756c0.16,0,0.319,0.16,0.319,0.32v10.379h4.95
			c0.159,0,0.319,0.159,0.319,0.318v1.598c0,0.159-0.16,0.318-0.319,0.318h-7.025c-0.16,0-0.319-0.159-0.319-0.318V389.639
			L298.273,389.639z"/>
		<path fill="#FFFFFF" d="M314.24,389.639c0-0.16,0.16-0.32,0.319-0.32h1.757c0.159,0,0.319,0.16,0.319,0.32v12.295
			c0,0.159-0.16,0.318-0.319,0.318h-1.757c-0.159,0-0.319-0.159-0.319-0.318V389.639z"/>
		<path fill="#FFFFFF" d="M326.695,389.318c0-0.159,0.159-0.318,0.319-0.318h0.479l7.984,8.143l0,0v-7.664
			c0-0.16,0.159-0.319,0.319-0.319h1.756c0.16,0,0.319,0.159,0.319,0.319v12.455c0,0.159-0.159,0.318-0.319,0.318h-0.479
			l-7.984-8.462l0,0v7.983c0,0.16-0.159,0.319-0.318,0.319h-1.757c-0.16,0-0.319-0.159-0.319-0.319V389.318L326.695,389.318z"/>
		<path fill="#FFFFFF" d="M347.772,389.639c0-0.16,0.159-0.32,0.319-0.32h7.824c0.159,0,0.319,0.16,0.319,0.32v1.596
			c0,0.16-0.16,0.32-0.319,0.32h-5.589v3.033h4.79c0.16,0,0.319,0.16,0.319,0.32v1.596c0,0.16-0.159,0.32-0.319,0.32h-4.79v3.193
			h5.589c0.159,0,0.319,0.159,0.319,0.318v1.598c0,0.159-0.16,0.318-0.319,0.318h-7.824c-0.16,0-0.319-0.159-0.319-0.318V389.639z"
			/>
		<path fill="#FFFFFF" d="M382.262,389c3.833,0,6.866,3.033,6.866,6.706s-3.033,6.706-6.866,6.706c-3.832,0-6.865-3.033-6.865-6.706
			S378.43,389,382.262,389z M382.262,400.018c2.396,0,4.472-1.916,4.472-4.312s-1.916-4.312-4.472-4.312
			c-2.555,0-4.471,1.916-4.471,4.312S379.867,400.018,382.262,400.018z"/>
		<path fill="#FFFFFF" d="M398.07,389.639c0-0.16,0.159-0.32,0.319-0.32h7.823c0.16,0,0.32,0.16,0.32,0.32v1.596
			c0,0.16-0.16,0.32-0.32,0.32h-5.588v3.513h4.79c0.159,0,0.319,0.159,0.319,0.319v1.597c0,0.159-0.16,0.319-0.319,0.319h-4.79v4.79
			c0,0.159-0.16,0.319-0.319,0.319h-1.757c-0.159,0-0.319-0.16-0.319-0.319v-12.454H398.07z"/>
		<path fill="#FFFFFF" d="M414.995,389.639c0-0.16,0.16-0.32,0.319-0.32h7.824c0.16,0,0.319,0.16,0.319,0.32v1.596
			c0,0.16-0.159,0.32-0.319,0.32h-5.588v3.513h4.79c0.159,0,0.319,0.159,0.319,0.319v1.597c0,0.159-0.16,0.319-0.319,0.319h-4.79
			v4.79c0,0.159-0.16,0.319-0.32,0.319h-1.756c-0.16,0-0.319-0.16-0.319-0.319L414.995,389.639L414.995,389.639z"/>
		<path fill="#FFFFFF" d="M432.081,389.639c0-0.16,0.159-0.32,0.319-0.32h1.756c0.16,0,0.319,0.16,0.319,0.32v12.295
			c0,0.159-0.159,0.318-0.319,0.318H432.4c-0.16,0-0.319-0.159-0.319-0.318V389.639z"/>
		<path fill="#FFFFFF" d="M450.443,389c1.916,0,3.354,0.639,4.631,1.756c0.159,0.16,0.159,0.319,0,0.479l-1.118,1.119
			c-0.159,0.159-0.319,0.159-0.479,0c-0.799-0.64-1.916-1.119-2.874-1.119c-2.396,0-4.312,1.917-4.312,4.312
			c0,2.395,1.916,4.311,4.312,4.311c1.117,0,2.075-0.479,2.874-1.117c0.159-0.16,0.319-0.16,0.479,0l1.118,1.277
			c0.159,0.159,0.159,0.318,0,0.479c-1.277,1.277-2.874,1.756-4.631,1.756c-3.832,0-6.866-3.033-6.866-6.705
			C443.418,392.033,446.611,389,450.443,389z"/>
		<path fill="#FFFFFF" d="M463.856,389.639c0-0.16,0.159-0.32,0.319-0.32H472c0.159,0,0.319,0.16,0.319,0.32v1.596
			c0,0.16-0.16,0.32-0.319,0.32h-5.749v3.033h4.79c0.16,0,0.32,0.16,0.32,0.32v1.596c0,0.16-0.16,0.32-0.32,0.32h-4.79v3.193h5.589
			c0.16,0,0.319,0.159,0.319,0.318v1.598c0,0.159-0.159,0.318-0.319,0.318h-7.824c-0.159,0-0.319-0.159-0.319-0.318v-12.295H463.856
			z"/>
	</g>
	<g>
		<g>
			<polygon fill="#FFFFFF" points="156.801,348.282 170.693,348.282 170.693,342.534 156.801,342.534 156.801,331.517 
				172.609,331.517 172.609,325.608 149.775,325.608 149.775,367.283 173.088,367.283 173.088,361.376 156.801,361.376 			"/>
			<path fill="#FFFFFF" d="M173.088,367.922h-23.312c-0.319,0-0.639-0.318-0.639-0.639v-41.675c0-0.319,0.319-0.639,0.639-0.639
				h22.833c0.319,0,0.639,0.319,0.639,0.639v5.908c0,0.319-0.319,0.639-0.639,0.639h-15.169v9.9h13.413
				c0.319,0,0.639,0.319,0.639,0.639v5.588c0,0.32-0.319,0.639-0.639,0.639h-13.413v11.976h15.648c0.319,0,0.639,0.319,0.639,0.639
				v5.908C173.727,367.604,173.407,367.922,173.088,367.922z M150.414,366.645h22.035v-4.63h-15.648
				c-0.319,0-0.639-0.319-0.639-0.639v-13.094c0-0.319,0.319-0.639,0.639-0.639h13.413v-4.471h-13.413
				c-0.319,0-0.639-0.319-0.639-0.639v-11.177c0-0.319,0.319-0.639,0.639-0.639h15.169v-4.63h-21.556V366.645L150.414,366.645z"/>
		</g>
		<g>
			<path fill="#FFFFFF" d="M201.19,350.358h8.303v9.74c-0.319,0.16-2.874,2.076-8.623,2.076c-9.74,0-14.051-7.665-14.051-16.127
				c0-8.462,4.471-15.329,14.371-15.329c4.95,0,7.824,1.437,10.219,3.193l3.354-5.269c-2.555-1.916-6.387-3.833-13.413-3.833
				c-14.051,0-21.875,10.219-21.875,21.556c0,11.177,7.665,21.716,21.396,21.716c9.9,0,14.371-3.353,15.648-4.151V344.77H201.19
				V350.358L201.19,350.358z"/>
			<path fill="#FFFFFF" d="M200.711,368.561c-14.371,0-22.035-11.177-22.035-22.194c0-14.53,11.337-22.195,22.514-22.195
				c5.749,0,10.219,1.277,13.892,3.992c0.319,0.16,0.319,0.479,0.16,0.798l-3.354,5.269c-0.16,0.16-0.16,0.16-0.319,0.319
				s-0.319,0-0.479-0.16c-2.235-1.597-4.79-3.034-9.9-3.034c-10.219,0-13.732,7.665-13.732,14.85
				c0,7.505,3.513,15.489,13.413,15.489c3.194,0,6.068-0.639,7.984-1.756v-8.782h-7.665c-0.319,0-0.639-0.319-0.639-0.639v-5.589
				c0-0.319,0.319-0.639,0.639-0.639h15.169c0.319,0,0.639,0.319,0.639,0.639v19.161c0,0.16-0.16,0.319-0.319,0.479l-0.16,0.16
				C214.923,365.527,210.292,368.561,200.711,368.561z M201.19,325.449c-14.69,0-21.396,10.858-21.396,20.917
				c0,14.531,10.858,21.077,20.758,21.077c9.102,0,13.573-2.874,15.01-3.832v-18.363h-13.892v4.471h7.665
				c0.319,0,0.639,0.319,0.639,0.639v9.74c0,0.16-0.16,0.479-0.319,0.479c-2.235,1.437-5.429,2.076-8.942,2.076
				c-8.942,0-14.69-6.547-14.69-16.766c0-7.824,3.992-15.967,15.009-15.967c4.95,0,7.984,1.437,10.06,2.874l2.714-4.311
				C210.611,326.567,206.46,325.449,201.19,325.449z"/>
		</g>
		<g>
			<path fill="#FFFFFF" d="M231.688,341.417v-4.471h-6.706v30.338h6.706v-19.64c0.639-1.118,2.874-5.269,7.026-5.269
				c1.756,0,2.555,0.319,2.874,0.639l1.597-5.908c-0.639-0.319-1.597-0.799-3.672-0.799
				C235.521,336.147,232.966,339.181,231.688,341.417z"/>
			<path fill="#FFFFFF" d="M231.688,367.922h-6.706c-0.319,0-0.639-0.318-0.639-0.639v-30.338c0-0.319,0.319-0.639,0.639-0.639
				h6.706c0.319,0,0.639,0.319,0.639,0.639v2.555c1.437-1.756,3.832-3.833,7.186-3.833c1.597,0,3.034,0.319,3.992,0.798
				c0.16,0.16,0.319,0.479,0.319,0.639l-1.597,5.908c0,0.16-0.16,0.319-0.319,0.319s-0.319,0-0.479,0
				c-0.479-0.16-1.118-0.479-2.714-0.479c-3.513,0-5.749,3.513-6.387,4.95v19.479C232.327,367.604,232.008,367.922,231.688,367.922z
				 M225.621,366.645h5.588v-19.001c0-0.16,0-0.16,0-0.319c0.639-1.277,3.193-5.588,7.505-5.588c1.277,0,1.916,0.16,2.555,0.319
				l1.277-4.791c-0.798-0.319-1.756-0.479-3.034-0.479c-3.832,0-6.228,3.034-7.345,4.79c-0.16,0.16-0.479,0.319-0.639,0.319
				c-0.319,0-0.479-0.319-0.479-0.639v-3.832h-5.588L225.621,366.645L225.621,366.645z"/>
		</g>
		<g>
			<path fill="#FFFFFF" d="M260.271,336.147c-10.379,0-14.531,8.463-14.531,15.968s4.152,15.807,14.69,15.807
				c10.379,0,14.85-8.622,14.85-15.967C275.279,344.61,270.649,336.147,260.271,336.147z M260.43,362.813
				c-5.429,0-7.664-4.791-7.664-10.858c0-6.068,2.076-10.539,7.346-10.539c5.428,0,7.982,4.79,7.982,10.858
				C268.094,358.182,265.859,362.813,260.43,362.813z"/>
			<path fill="#FFFFFF" d="M260.43,368.561c-10.538,0-15.169-8.302-15.169-16.446c0-8.303,4.631-16.606,15.169-16.606
				c10.699,0,15.648,8.463,15.648,16.447C275.759,359.939,270.969,368.561,260.43,368.561z M260.271,336.786
				c-9.581,0-13.892,7.664-13.892,15.329s4.312,15.329,14.051,15.329c9.74,0,14.211-7.983,14.211-15.488
				C274.641,344.61,270.17,336.786,260.271,336.786z M260.43,363.292c-5.269,0-8.303-4.312-8.303-11.337
				c0-7.186,2.874-11.177,7.984-11.177c5.269,0,8.622,4.311,8.622,11.337C268.733,359.3,265.699,363.292,260.43,363.292z
				 M260.111,342.055c-5.589,0-6.707,5.429-6.707,9.9c0,3.034,0.639,10.219,7.186,10.219c6.227,0,7.186-6.228,7.186-9.9
				C267.615,345.728,264.741,342.055,260.111,342.055z"/>
		</g>
		<g>
			<path fill="#FFFFFF" d="M306.896,336.945h-6.706v20.758c-0.639,0.799-3.514,4.631-7.346,4.631c-3.513,0-4.631-1.916-4.631-5.27
				v-20.119h-6.705v21.396c0,5.429,2.395,9.58,8.941,9.58c5.109,0,8.303-3.033,9.74-4.949c0,1.437,0.319,3.513,0.639,4.311h6.706
				c-0.319-1.596-0.798-4.47-0.798-7.664v-22.674H306.896z"/>
			<path fill="#FFFFFF" d="M290.608,368.561c-6.228,0-9.58-3.672-9.58-10.219v-21.396c0-0.319,0.319-0.639,0.639-0.639h6.706
				c0.319,0,0.639,0.319,0.639,0.639v20.119c0,3.354,1.117,4.791,3.992,4.791c2.235,0,4.631-1.437,6.706-4.152v-20.758
				c0-0.319,0.319-0.639,0.639-0.639h6.706c0.319,0,0.639,0.319,0.639,0.639v22.515c0,3.353,0.319,6.067,0.799,7.505
				c0,0.159,0,0.318-0.16,0.479c-0.159,0.16-0.319,0.16-0.479,0.16h-6.706c-0.319,0-0.479-0.16-0.639-0.479
				c-0.16-0.479-0.319-1.757-0.479-2.874C298.113,366.326,295.08,368.561,290.608,368.561z M282.146,337.584v20.757
				c0,4.152,1.437,9.102,8.462,9.102c4.95,0,7.984-3.034,9.262-4.79c0.159-0.16,0.479-0.319,0.639-0.16
				c0.159,0.16,0.479,0.319,0.479,0.479c0,1.118,0.319,2.715,0.479,3.672h5.429c-0.319-1.596-0.639-4.151-0.639-7.025v-22.035
				h-5.429v20.119c0,0.16,0,0.319-0.16,0.319c-2.395,3.194-5.109,4.791-7.824,4.791c-3.513,0-5.27-1.916-5.27-5.908v-19.32H282.146
				L282.146,337.584z"/>
		</g>
		<g>
			<path fill="#FFFFFF" d="M331.166,336.147c-4.312,0-7.025,1.917-8.622,3.992v-3.194h-6.547v43.112h6.706v-14.37
				c1.118,0.957,3.354,2.395,7.186,2.395c7.824,0,13.572-6.387,13.572-15.967C343.461,341.896,338.671,336.147,331.166,336.147z
				 M328.771,362.653c-3.193,0-4.949-1.277-6.067-2.395v-15.01c0.639-0.958,3.034-3.672,6.707-3.672
				c4.79,0,7.025,4.151,7.025,10.379C336.275,358.502,333.721,362.653,328.771,362.653z"/>
			<path fill="#FFFFFF" d="M322.703,380.696h-6.706c-0.319,0-0.639-0.319-0.639-0.639v-43.112c0-0.319,0.319-0.639,0.639-0.639
				h6.547c0.319,0,0.639,0.319,0.639,0.639v1.757c2.235-1.916,4.949-3.034,7.983-3.034c7.983,0,12.934,6.228,12.934,16.447
				c0,9.74-5.748,16.606-14.211,16.606c-3.193,0-5.27-0.799-6.706-1.756v13.252C323.183,380.377,323.022,380.696,322.703,380.696z
				 M316.476,379.419h5.589v-13.892c0-0.16,0.16-0.479,0.319-0.479c0.16,0,0.479,0,0.639,0.159c1.118,0.958,3.354,2.235,6.866,2.235
				c7.664,0,12.934-6.387,12.934-15.329c0-9.581-4.471-15.329-11.815-15.329c-3.354,0-6.068,1.277-8.144,3.672
				c-0.16,0.16-0.479,0.319-0.639,0.16c-0.16-0.16-0.319-0.319-0.319-0.639v-2.555h-5.43V379.419L316.476,379.419z M328.771,363.292
				c-3.353,0-5.269-1.437-6.546-2.555c-0.16-0.16-0.16-0.319-0.16-0.479v-15.01c0-0.16,0-0.16,0.16-0.319
				c0.479-0.639,2.874-3.832,7.186-3.832c4.949,0,7.664,3.992,7.664,11.018C336.914,358.98,333.881,363.292,328.771,363.292z
				 M323.183,360.099c1.117,0.958,2.874,2.076,5.588,2.076c4.312,0,7.026-3.672,7.026-9.9c0-3.672-0.799-9.74-6.547-9.74
				c-3.354,0-5.589,2.555-6.067,3.193V360.099L323.183,360.099z"/>
		</g>
		<g>
			<polygon fill="#FFFFFF" points="377.632,357.863 377.472,357.863 371.404,336.945 365.177,336.945 359.109,357.863 
				358.949,357.863 353.521,336.945 346.335,336.945 355.117,367.283 361.185,367.283 368.051,345.568 368.051,345.568 
				374.917,367.283 380.825,367.283 389.767,336.945 383.061,336.945 			"/>
			<path fill="#FFFFFF" d="M380.825,367.922h-6.067c-0.319,0-0.479-0.159-0.639-0.479l-6.228-20.119l-6.388,20.119
				c0,0.319-0.319,0.479-0.639,0.479h-6.067c-0.319,0-0.479-0.159-0.639-0.479l-8.782-30.338c0-0.16,0-0.319,0.16-0.479
				c0.159-0.16,0.319-0.16,0.479-0.16h7.186c0.319,0,0.479,0.16,0.639,0.479l4.95,19.001l5.429-19.001
				c0-0.319,0.319-0.479,0.639-0.479h6.228c0.319,0,0.479,0.16,0.639,0.479l5.589,19.161l4.949-19.161
				c0-0.319,0.319-0.479,0.639-0.479h6.707c0.159,0,0.319,0.16,0.479,0.16c0.16,0,0.16,0.319,0.16,0.479l-8.782,30.338
				C381.464,367.763,381.145,367.922,380.825,367.922z M375.236,366.645h5.109l8.463-29.06h-5.429l-5.429,20.598
				c0,0.319-0.319,0.479-0.639,0.479h-0.16c-0.319,0-0.479-0.16-0.639-0.479l-5.908-20.598h-5.429l-5.908,20.438
				c0,0.319-0.319,0.479-0.639,0.479s-0.639-0.16-0.639-0.479l-5.269-20.438h-5.908l8.463,29.06h5.109l6.706-21.396
				c0-0.319,0.319-0.479,0.639-0.479s0.639,0.16,0.639,0.479L375.236,366.645z M377.632,357.863L377.632,357.863L377.632,357.863z"
				/>
		</g>
		<g>
			<path fill="#FFFFFF" d="M416.912,346.845c0-7.504-3.833-10.698-11.338-10.698c-6.227,0-9.899,2.715-11.656,4.312l3.194,4.311
				c1.117-0.958,3.672-3.034,7.823-3.034c4.312,0,5.43,2.076,5.43,5.269v2.236h-1.277c-7.665,0-16.128,2.714-16.128,10.539
				c0,5.27,3.833,8.463,8.942,8.463c4.471,0,7.505-2.555,8.782-4.152c0,0.958,0.319,2.554,0.479,3.513h6.547
				c-0.319-1.757-0.798-4.471-0.798-7.984V346.845L416.912,346.845z M410.365,359.46c-0.958,1.118-3.034,3.353-6.707,3.353
				c-1.916,0-3.991-0.958-3.991-3.672c0-4.312,3.991-5.749,9.58-5.749h1.277L410.365,359.46L410.365,359.46z"/>
			<path fill="#FFFFFF" d="M401.902,368.561c-5.748,0-9.581-3.672-9.581-8.941c0-8.303,8.623-11.177,16.767-11.177h0.639v-1.597
				c0-2.714-0.799-4.63-4.791-4.63c-3.672,0-6.067,1.916-7.185,2.874l-0.16,0.16c-0.159,0.16-0.319,0.16-0.479,0.16
				c-0.16,0-0.319-0.16-0.319-0.16l-3.194-4.311c-0.159-0.319-0.159-0.639,0-0.798c3.354-2.875,7.346-4.471,11.976-4.471
				c8.144,0,11.977,3.673,11.977,11.337V359.3c0,3.992,0.479,6.706,0.798,7.824c0,0.159,0,0.319-0.159,0.479
				c-0.16,0.159-0.32,0.159-0.479,0.159h-6.547c-0.319,0-0.479-0.159-0.639-0.479c-0.159-0.479-0.319-1.437-0.319-2.234
				C408.769,366.645,406.054,368.561,401.902,368.561z M409.088,349.72c-7.505,0-15.648,2.555-15.648,9.9
				c0,4.63,3.354,7.824,8.303,7.824c3.832,0,6.866-2.076,8.304-3.992c0.159-0.16,0.479-0.319,0.639-0.16
				c0.319,0.16,0.319,0.319,0.479,0.479c0,0.798,0.16,2.076,0.319,2.874h5.27c-0.319-1.437-0.639-3.991-0.639-7.344v-12.295
				c0-7.025-3.354-10.06-10.858-10.06c-4.151,0-7.823,1.278-10.857,3.833l2.396,3.353c1.437-1.118,3.832-2.874,7.664-2.874
				c4.151,0,6.067,1.756,6.067,5.748v2.236c0,0.319-0.319,0.639-0.639,0.639h-0.798V349.72z M403.658,363.452
				c-2.235,0-4.63-1.277-4.63-4.152c0-2.874,1.756-6.387,10.06-6.387h1.277c0.319,0,0.639,0.319,0.639,0.639v5.908
				c0,0.16,0,0.319-0.16,0.319C409.886,360.897,407.65,363.452,403.658,363.452z M409.088,354.031c-5.908,0-8.942,1.756-8.942,5.269
				c0,2.236,1.757,3.034,3.354,3.034c3.193,0,5.27-2.076,6.067-3.034v-5.269H409.088L409.088,354.031z M410.365,359.46
				L410.365,359.46L410.365,359.46z"/>
		</g>
		<g>
			<path fill="#FFFFFF" d="M432.4,341.417v-4.471h-6.707v30.338h6.707v-19.64c0.479-1.118,2.874-5.269,6.865-5.269
				c1.757,0,2.556,0.319,2.875,0.639l1.597-5.908c-0.479-0.319-1.597-0.799-3.673-0.799
				C436.232,336.147,433.678,339.181,432.4,341.417z"/>
			<path fill="#FFFFFF" d="M432.4,367.922h-6.707c-0.319,0-0.639-0.318-0.639-0.639v-30.338c0-0.319,0.319-0.639,0.639-0.639h6.707
				c0.319,0,0.639,0.319,0.639,0.639v2.555c1.437-1.756,3.832-3.833,7.186-3.833c1.597,0,3.033,0.319,3.991,0.798
				c0.319,0.16,0.319,0.479,0.319,0.639l-1.597,5.908c0,0.16-0.159,0.319-0.319,0.319c-0.159,0-0.319,0-0.479,0
				c-0.479-0.16-1.118-0.479-2.715-0.479c-3.513,0-5.748,3.513-6.387,4.95v19.479C433.039,367.604,432.72,367.922,432.4,367.922z
				 M426.332,366.645h5.589v-19.001c0-0.16,0-0.16,0-0.319c0.639-1.277,3.193-5.588,7.505-5.588c1.277,0,1.916,0.16,2.555,0.319
				l1.277-4.791c-0.798-0.319-1.756-0.479-3.033-0.479c-3.833,0-6.228,3.034-7.346,4.79c-0.159,0.16-0.479,0.319-0.639,0.319
				c-0.319,0-0.479-0.319-0.479-0.639v-3.832h-5.43V366.645L426.332,366.645z"/>
		</g>
		<g>
			<path fill="#FFFFFF" d="M460.503,336.147c-8.303,0-14.371,6.387-14.371,15.808s5.27,16.127,15.169,16.127
				c5.908,0,9.102-1.916,10.858-3.033l-2.396-4.631c-1.437,0.798-3.991,2.395-8.143,2.395c-5.749,0-8.304-4.152-8.623-9.74h19.8
				C473.916,342.694,469.285,336.147,460.503,336.147z M453.317,348.282c0.639-4.311,2.874-7.025,7.025-7.025
				c4.472,0,6.068,3.193,6.228,7.025H453.317z"/>
			<path fill="#FFFFFF" d="M461.301,368.561c-9.739,0-15.808-6.386-15.808-16.765c0-9.421,6.228-16.287,15.01-16.287
				c3.992,0,7.345,1.278,9.58,3.833c2.875,3.034,3.992,7.824,3.514,13.732c0,0.319-0.319,0.479-0.639,0.479h-19.161
				c0.319,3.992,2.075,8.463,7.983,8.463c3.992,0,6.387-1.437,7.824-2.235c0.159-0.16,0.319-0.16,0.479-0.16
				c0.16,0,0.319,0.16,0.319,0.319l2.396,4.63c0.16,0.319,0,0.639-0.159,0.798C470.722,366.485,467.369,368.561,461.301,368.561z
				 M460.503,336.786c-8.144,0-13.732,6.227-13.732,15.169c0,9.581,5.589,15.488,14.53,15.488c5.27,0,8.304-1.597,10.06-2.555
				l-1.756-3.513c-1.597,0.958-4.151,2.076-7.983,2.076c-5.589,0-8.782-3.672-9.262-10.219c0-0.16,0-0.319,0.16-0.479
				c0.159-0.16,0.319-0.16,0.479-0.16h19.32c0.32-5.27-0.798-9.581-3.193-12.295C467.05,337.904,464.176,336.786,460.503,336.786z
				 M466.57,348.921h-13.253c-0.159,0-0.319-0.16-0.479-0.16c-0.16,0-0.16-0.319-0.16-0.479c0.799-4.95,3.513-7.665,7.665-7.665
				c4.151,0,6.706,2.874,6.865,7.665c0,0.16,0,0.319-0.159,0.479C466.89,348.921,466.73,348.921,466.57,348.921z M453.956,347.804
				h11.816c-0.16-2.875-1.438-5.908-5.589-5.908C456.191,341.896,454.595,344.929,453.956,347.804z"/>
		</g>
	</g>
	<g>
		<path fill="#FFFFFF" d="M60.996,340.778c-1.597-3.034-1.438-6.387,0.16-9.102l-3.992-1.756
			c-8.942,7.824-14.53,19.161-14.53,31.775c0,1.756,0.16,3.513,0.319,5.109l10.858-1.277l9.581-21.875
			C62.593,343.013,61.635,342.055,60.996,340.778z"/>
		<path fill="#FFFFFF" d="M77.283,331.996c1.597,2.874,1.437,6.228,0,8.942l12.135,10.219c0.798-0.798,1.916-1.597,3.034-2.235
			c2.396-1.278,5.11-1.917,7.665-1.757v-25.069c-5.429-1.437-10.698-2.555-15.009-2.555c-0.798,0-1.597,0-2.235,0l-7.505,9.9
			C76.005,330.239,76.804,331.038,77.283,331.996z"/>
		<path fill="#FFFFFF" d="M52.374,369.359l-8.623,1.118c0.798,3.673,2.076,7.185,3.672,10.379L52.374,369.359z"/>
		<path fill="#FFFFFF" d="M104.268,370.637c5.109-2.874,7.025-9.261,4.151-14.371c-1.916-3.513-5.589-5.429-9.261-5.429
			c-1.756,0-3.513,0.479-5.109,1.277c-5.11,2.874-7.026,9.261-4.152,14.371c1.437,2.555,3.673,4.312,6.387,5.11
			C98.839,372.234,101.713,371.914,104.268,370.637z"/>
		<path fill="#FFFFFF" d="M103.629,347.804c3.354,1.118,6.228,3.353,7.984,6.706c1.277,2.395,1.756,4.95,1.756,7.505l13.732,3.193
			c0-1.118,0.16-2.235,0.16-3.353c0-8.782,0-29.54,0-29.54s-11.497-5.269-23.632-9.102V347.804L103.629,347.804z"/>
		<path fill="#FFFFFF" d="M74.888,343.652c-0.479,0.319-0.798,0.639-1.277,0.958c-1.437,0.798-2.875,1.118-4.471,1.118
			c-0.798,0-1.597-0.16-2.395-0.319l-8.623,19.8l26.826-3.193c-0.16-2.874,0.639-5.589,2.076-7.984L74.888,343.652z"/>
		<path fill="#FFFFFF" d="M83.351,388.361c-2.555,0-5.11,0.639-7.505,1.916c-4.151,2.235-6.707,6.067-7.665,10.219
			c5.11,2.235,10.858,3.514,16.926,3.514c4.79,0,9.421-0.799,13.732-2.396c-0.319-1.756-0.798-3.512-1.756-5.269
			C94.208,391.234,88.939,388.361,83.351,388.361z"/>
		<path fill="#FFFFFF" d="M112.73,365.527c-1.118,3.354-3.353,6.387-6.706,8.303c-2.236,1.118-4.471,1.598-6.866,1.598
			c-0.798,0-1.437,0-2.235-0.16l-4.312,11.816c3.194,1.756,5.908,4.311,7.665,7.664c0.958,1.756,1.597,3.672,2.076,5.588
			c12.774-5.748,22.035-17.404,24.431-31.615L112.73,365.527z"/>
		<path fill="#FFFFFF" d="M71.854,341.417c2.714-1.437,3.832-4.95,2.235-7.665c-0.958-1.916-3.034-2.874-4.95-2.874
			c-0.958,0-1.916,0.16-2.714,0.639c-2.714,1.437-3.832,4.95-2.235,7.665C65.786,341.896,69.139,342.854,71.854,341.417z"/>
		<path fill="#FFFFFF" d="M74.089,387.084c4.79-2.715,10.379-3.034,15.169-1.438l4.312-11.337c-2.875-1.277-5.27-3.353-6.866-6.228
			c-0.479-0.958-0.798-1.756-1.118-2.715l-29.061,3.514l-6.866,15.808c3.832,5.907,9.101,10.698,15.169,14.052
			C66.105,393.949,69.299,389.639,74.089,387.084z"/>
		<path fill="#FFFFFF" d="M63.87,328.802c0.319-0.16,0.639-0.479,0.798-0.639c2.395-1.277,4.95-1.437,7.345-0.639l5.748-7.505
			c-6.387,1.118-12.295,3.672-17.245,7.186L63.87,328.802z"/>
	</g>
</g>
<rect x="293.91" y="418.75" fill="none" width="187" height="92"/>
<text transform="matrix(1 0 0 1 397.9307 450.6992)" fill="#FEFEFE" font-family="'MyriadPro-Semibold'" font-size="45">23.1</text>
</svg>
