<?xml version="1.0" encoding="utf-8"?>
<!-- Generator: Adobe Illustrator 15.0.0, SVG Export Plug-In . SVG Version: 6.00 Build 0)  -->
<!DOCTYPE svg PUBLIC "-//W3C//DTD SVG 1.1//EN" "http://www.w3.org/Graphics/SVG/1.1/DTD/svg11.dtd">
<svg version="1.1" id="Ebene_1" xmlns="http://www.w3.org/2000/svg" xmlns:xlink="http://www.w3.org/1999/xlink" x="0px" y="0px"
	 width="128px" height="128px" viewBox="0 0 128 128" enable-background="new 0 0 128 128" xml:space="preserve">
<g>
</g>
<path fill="#FFFFFF" d="M63.405,1.594C28.94,1.594,1,29.534,1,64c0,34.464,27.94,62.406,62.405,62.406
	c34.466,0,62.408-27.941,62.408-62.406C125.812,29.534,97.871,1.594,63.405,1.594z M100.501,44.427
	c-0.291,3.901-0.665,8.006-1.081,11.887c-0.446,4.189-0.999,7.199-3.001,9.845c-3.225,4.267-9.605,6.782-17.53,5.765
	c4.808,1.111,10.056,2.919,12.488,6.484c0.803,1.18,1.496,3.386,1.2,5.522c-0.422,3.03-2.506,5.835-5.043,8.164
	c-2.802,2.573-5.768,5.32-10.205,5.285c-5.422-0.045-8.698-5.105-10.567-8.888c-1.099-2.221-2.084-4.632-3.002-7.564
	c-0.565,0.588-0.782,1.567-1.08,2.401c-0.858,2.394-1.814,4.744-3.123,6.965c-2.496,4.24-7.25,9.258-14.168,6.003
	c-2.357-1.106-4.61-3.044-6.483-5.041c-1.951-2.081-3.723-4.135-4.204-7.205c-0.545-3.49,1.308-6.191,3.243-7.804
	c2.585-2.155,6.461-3.454,10.445-4.203c-9.257,0.579-16.105-1.768-19.091-8.524c-1.452-3.287-1.545-7.854-1.921-12.127
	c-0.185-2.113-0.325-4.307-0.48-6.485c-0.381-5.362-1.147-11.533,3.723-12.726c3.064-0.751,6.143,0.724,8.404,1.92
	c4.855,2.572,8.787,6.707,12.127,10.566c4.962,5.735,9.066,11.498,12.488,17.891c4.895-8.705,11.809-18.742,20.051-25.455
	c2.266-1.843,6.46-4.636,10.087-5.043C101.202,31.23,100.996,37.773,100.501,44.427z"/>
</svg>
