<?xml version="1.0" encoding="utf-8"?>
<!-- Generator: Adobe Illustrator 15.0.0, SVG Export Plug-In . SVG Version: 6.00 Build 0)  -->
<!DOCTYPE svg PUBLIC "-//W3C//DTD SVG 1.1//EN" "http://www.w3.org/Graphics/SVG/1.1/DTD/svg11.dtd">
<svg version="1.1" id="Ebene_1" xmlns="http://www.w3.org/2000/svg" xmlns:xlink="http://www.w3.org/1999/xlink" x="0px" y="0px"
	 width="128px" height="128px" viewBox="0 0 128 128" enable-background="new 0 0 128 128" xml:space="preserve">
<path fill="none" stroke="#000000" stroke-width="0.5" stroke-linecap="round" stroke-linejoin="round" d="M334.214,212.307"/>
<path fill="none" stroke="#000000" stroke-width="0.5" stroke-linecap="round" stroke-linejoin="round" d="M335.602,213.389"/>
<g>
	<path fill="#FFFFFF" d="M908.674,389.945c-0.932-4.762-4.723-9.699-13.974-6.521c-5.244,1.798-8.066,4.175-6.521,12.11
		C890.537,407.616,911.655,405.222,908.674,389.945z"/>
	<path fill="#FFFFFF" d="M921,370c-4,0-7,0-10,0c0,4,0,7,0,11c3,0,6,0,10,0C921,377,921,374,921,370z"/>
	<path fill="#FFFFFF" d="M897.405,331.375c-34.465,0-62.405,27.939-62.405,62.406c0,34.465,27.94,62.405,62.405,62.405
		c34.466,0,62.407-27.94,62.407-62.405C959.812,359.314,931.871,331.375,897.405,331.375z M924.51,418.82
		c-4.248,4.248-19.133,2.797-26.082,2.797c-5.749,0-22.45,0.837-26.083-2.797c-3.911-3.91-5.349-47.041,0-52.164
		c1.218-1.164,5.094-1.705,5.588-1.863c10.667-3.502,42.21-2.506,46.577,1.863C929.68,371.826,930.145,413.186,924.51,418.82z"/>
	<path fill="#FFFFFF" d="M921.716,386c-2.797,0-5.591,0-8.383,0c8.913,28-38.801,29-29.811,0c-2.795,0-5.59,0-8.383,0
		c0.567,9-1.164,20.528,0.932,28.054c10.861,3.056,33.851,3.001,44.712-0.055C922.879,406.474,921.146,395,921.716,386z"/>
</g>
<g>
	<polygon fill="#FFFFFF" points="59,52 59,73 59.317,73 73.625,62.909 59.278,52 	"/>
	<path fill="#FFFFFF" d="M63.405,1.375C28.94,1.375,1,29.314,1,63.781c0,34.465,27.94,62.405,62.405,62.405
		c34.466,0,62.407-27.94,62.407-62.405C125.812,29.314,97.871,1.375,63.405,1.375z M89.896,79.368
		c-13.488,4.117-38.676,4.117-52.164,0c-3.69-8.664-3.69-24.873,0-33.536c13.291-4.172,38.873-4.172,52.164,0
		C93.752,54.328,93.519,70.771,89.896,79.368z"/>
</g>
</svg>
