<?xml version="1.0" encoding="UTF-8"?>
<svg version="1.1" width="269.87" height="52.9" viewBox="0 0 269.87 52.9" xmlns="http://www.w3.org/2000/svg">
 <path d="M263.7 43.8c0-.1.1-.2.2-.2h4.9c.1 0 .2.1.2.2v1c0 .1-.1.2-.2.2h-3.5v1.9h3c.1 0 .2.1.2.2v1c0 .1-.1.2-.2.2h-3v2h3.5c.1 0 .2.1.2.2v1c0 .1-.1.2-.2.2h-4.9c-.1 0-.2-.1-.2-.2zm-8.4-.3c1.2 0 2.1.4 2.9 1.1.1.1.1.2 0 .3l-.7.7c-.1.1-.2.1-.3 0-.5-.4-1.2-.7-1.8-.7-1.5 0-2.7 1.2-2.7 2.7s1.2 2.7 2.7 2.7c.7 0 1.3-.3 1.8-.7.1-.1.2-.1.3 0l.7.8c.1.1.1.2 0 .3-.8.8-1.8 1.1-2.9 1.1-2.4 0-4.3-1.9-4.3-4.2-.1-2.2 1.9-4.1 4.3-4.1zm-11.5.3c0-.1.1-.2.2-.2h1.1c.1 0 .2.1.2.2v7.7c0 .1-.1.2-.2.2H244c-.1 0-.2-.1-.2-.2zm-10.7 0c0-.1.1-.2.2-.2h4.9c.1 0 .2.1.2.2v1c0 .1-.1.2-.2.2h-3.5v2.2h3c.1 0 .2.1.2.2v1c0 .1-.1.2-.2.2h-3v3c0 .1-.1.2-.2.2h-1.1c-.1 0-.2-.1-.2-.2zm-10.6 0c0-.1.1-.2.2-.2h4.9c.1 0 .2.1.2.2v1c0 .1-.1.2-.2.2h-3.5v2.2h3c.1 0 .2.1.2.2v1c0 .1-.1.2-.2.2h-3v3c0 .1-.1.2-.2.2h-1.1c-.1 0-.2-.1-.2-.2v-7.8zm-9.9-.3c2.4 0 4.3 1.9 4.3 4.2s-1.9 4.2-4.3 4.2-4.3-1.9-4.3-4.2 1.9-4.2 4.3-4.2zm0 6.9c1.5 0 2.8-1.2 2.8-2.7s-1.3-2.7-2.8-2.7-2.8 1.2-2.8 2.7 1.3 2.7 2.8 2.7zM191 43.8c0-.1.1-.2.2-.2h4.9c.1 0 .2.1.2.2v1c0 .1-.1.2-.2.2h-3.5v1.9h3c.1 0 .2.1.2.2v1c0 .1-.1.2-.2.2h-3v2h3.5c.1 0 .2.1.2.2v1c0 .1-.1.2-.2.2h-4.9c-.1 0-.2-.1-.2-.2zm-13.2-.1c0-.1.1-.2.2-.2h.3l5 5.1v-4.8c0-.1.1-.2.2-.2h1.1c.1 0 .2.1.2.2v7.8c0 .1-.1.2-.2.2h-.3l-5-5.3v5c0 .1-.1.2-.2.2H178c-.1 0-.2-.1-.2-.2zm-7.7.1c0-.1.1-.2.2-.2h1.1c.1 0 .2.1.2.2v7.7c0 .1-.1.2-.2.2h-1.1c-.1 0-.2-.1-.2-.2zm-10.1 0c0-.1.1-.2.2-.2h1.1c.1 0 .2.1.2.2v6.5h3.1c.1 0 .2.1.2.2v1c0 .1-.1.2-.2.2h-4.4c-.1 0-.2-.1-.2-.2zm-13.2-.1c0-.1.1-.2.2-.2h.3l5 5.1v-4.8c0-.1.1-.2.2-.2h1.1c.1 0 .2.1.2.2v7.8c0 .1-.1.2-.2.2h-.3l-5-5.3v5c0 .1-.1.2-.2.2H147c-.1 0-.2-.1-.2-.2zm-9.9-.2c2.4 0 4.3 1.9 4.3 4.2s-1.9 4.2-4.3 4.2-4.3-1.9-4.3-4.2 1.9-4.2 4.3-4.2zm0 6.9c1.5 0 2.8-1.2 2.8-2.7s-1.2-2.7-2.8-2.7-2.8 1.2-2.8 2.7 1.3 2.7 2.8 2.7zM117.5 45h-1.8c-.1 0-.2-.1-.2-.2v-1c0-.1.1-.2.2-.2h5.2c.1 0 .2.1.2.2v1c0 .1-.1.2-.2.2h-1.8v6.5c0 .1-.1.2-.2.2h-1.1c-.1 0-.2-.1-.2-.2V45zm-13.2-1.2c0-.1.1-.2.2-.2h3.4c1.4 0 2.6 1.1 2.6 2.5 0 1.1-.7 1.9-1.8 2.4l1.6 3c.1.1 0 .3-.2.3h-1.3c-.1 0-.2-.1-.2-.1l-1.6-3.1h-1.3v3c0 .1-.1.2-.2.2h-1.1c-.1 0-.2-.1-.2-.2zm3.5 3.5c.6 0 1.2-.5 1.2-1.2 0-.6-.5-1.1-1.2-1.1h-2v2.3h2zm-16.6 4.2 3.7-7.8c0-.1.1-.1.2-.1h.1c.1 0 .2.1.2.1l3.7 7.8c.1.1 0 .3-.2.3h-1c-.2 0-.3-.1-.4-.2l-.6-1.3h-3.6l-.6 1.3c0 .1-.2.2-.4.2h-1s-.1-.2-.1-.3zm5.2-2.5-1.2-2.6L94 49zm-18-5.3c0-.1.1-.2.2-.2h.2c.1 0 .2 0 .2.1l2.6 5.5 2.6-5.5c0-.1.1-.1.2-.1h.2c.1 0 .2.1.2.2l1.4 7.8c0 .2-.1.3-.2.3h-.9c-.1 0-.2-.1-.2-.2l-.7-4.4-2.1 4.6c0 .1-.1.1-.2.1h-.2c-.1 0-.2-.1-.2-.1l-2.1-4.6-.7 4.4c0 .1-.1.2-.2.2h-1.1c-.2 0-.2-.1-.2-.3zm-11.8 6.9.4-.7c.1-.2.3-.2.4-.1.1 0 1 .7 1.8.7.6 0 1.1-.4 1.1-.9 0-.6-.5-1-1.5-1.4-1.1-.4-2.2-1.1-2.2-2.5 0-1 .8-2.2 2.7-2.2 1.2 0 2.2.6 2.4.8.1.1.2.3.1.4l-.5.7c-.1.1-.3.2-.4.1s-1-.6-1.7-.6-1.1.4-1.1.8c0 .5.4.9 1.4 1.3 1.2.5 2.5 1.1 2.5 2.6 0 1.2-1.1 2.3-2.8 2.3-1.5 0-2.4-.7-2.6-.9-.1-.1-.1-.2 0-.4z" fill="#8f908f"/>
 <path d="M19.6 42.3c3-1.7 6.5-1.9 9.5-.9l2.7-7.1c-1.8-.8-3.3-2.1-4.3-3.9-.3-.6-.5-1.1-.7-1.7L8.6 30.9l-4.3 9.9c2.4 3.7 5.7 6.7 9.5 8.8.8-3 2.8-5.7 5.8-7.3zm24.2-13.5c-.7 2.1-2.1 4-4.2 5.2-1.3.7-2.8 1.1-4.2 1.1-.5 0-.9 0-1.4-.1l-2.8 7.4c2 1.1 3.7 2.7 4.8 4.8.6 1.1 1 2.3 1.3 3.5 8-3.6 13.8-10.9 15.3-19.8zM20.1 15.1c-.3.2-.5.4-.8.6-.9.5-1.8.7-2.8.7-.5 0-1-.1-1.5-.2L9.6 28.6l16.8-2c-.1-1.8.4-3.5 1.3-5zM6 31.2l-5.4.7c.5 2.3 1.3 4.5 2.3 6.5z" fill="#6093b8"/>
<path d="M21.6 7.8c1 1.8.9 3.9 0 5.6l7.6 6.4c.5-.5 1.2-1 1.9-1.4 1.5-.8 3.2-1.2 4.8-1.1V1.6C32.4.7 29.1 0 26.4 0H25l-4.7 6.2c.5.5.9 1 1.3 1.6zm3.8 35.3c-1.6 0-3.2.4-4.7 1.2-2.6 1.4-4.2 3.8-4.8 6.4 3.2 1.4 6.8 2.2 10.6 2.2 3 0 5.9-.5 8.6-1.5-.2-1.1-.5-2.2-1.1-3.3-1.8-3.2-5.2-5-8.6-5zM13.2 5.8c.2-.1.4-.3.5-.4 1.5-.8 3.1-.9 4.6-.4L21.9.3c-4 .7-7.7 2.3-10.8 4.5zm5 7.9c1.7-.9 2.4-3.1 1.4-4.8-.6-1.2-1.9-1.8-3.1-1.8-.6 0-1.2.1-1.7.4-1.7.9-2.4 3.1-1.4 4.8s3.1 2.3 4.8 1.4zm19.8 4c2.1.7 3.9 2.1 5 4.2.8 1.5 1.1 3.1 1.1 4.7l8.6 2c0-.7.1-1.4.1-2.1V8S45.6 4.7 38 2.3zm.5 14.3c3.2-1.8 4.4-5.8 2.6-9-1.2-2.2-3.5-3.4-5.8-3.4-1.1 0-2.2.3-3.2.8-3.2 1.8-4.4 5.8-2.6 9 .9 1.6 2.3 2.7 4 3.2 1.6.4 3.4.2 5-.6zM11.4 13.3c-1-1.9-.9-4 .1-5.7L9.1 6.5C3.5 11.4 0 18.5 0 26.4c0 1.1.1 2.2.2 3.2l6.8-.8 6-13.7c-.6-.4-1.2-1-1.6-1.8zm250.7 17.4c-6.1 0-9.9-4-9.9-10.5 0-5.9 3.9-10.2 9.4-10.2 2.5 0 4.6.8 6 2.4 1.8 1.9 2.5 4.9 2.2 8.6 0 .2-.2.3-.4.3h-12c.2 2.5 1.3 5.3 5 5.3 2.5 0 4-.9 4.9-1.4.1-.1.2-.1.3-.1s.2.1.2.2l1.5 2.9c.1.2 0 .4-.1.5-1.2.7-3.3 2-7.1 2zm-.5-19.9c-5.1 0-8.6 3.9-8.6 9.5 0 6 3.5 9.7 9.1 9.7 3.3 0 5.2-1 6.3-1.6l-1.1-2.2c-1 .6-2.6 1.3-5 1.3-3.5 0-5.5-2.3-5.8-6.4 0-.1 0-.2.1-.3s.2-.1.3-.1h12.2c.2-3.3-.5-6-2-7.7-1.4-1.5-3.2-2.2-5.5-2.2zm3.8 7.6h-8.3c-.1 0-.2-.1-.3-.1s-.1-.2-.1-.3c.5-3.1 2.2-4.8 4.8-4.8s4.2 1.8 4.3 4.8c0 .1 0 .2-.1.3s-.2.1-.3.1zm-7.9-.8h7.4c-.1-1.8-.9-3.7-3.5-3.7-2.5.1-3.5 2-3.9 3.7zm4.8 9.5c2.6 0 4.2-1 5.1-1.5l1.5 2.9c-1.1.7-3.1 1.9-6.8 1.9-6.2 0-9.5-4.2-9.5-10.1 0-5.8 3.8-9.9 9-9.9 5.6 0 8.4 4 7.8 10.6H257c.2 3.5 1.7 6.1 5.3 6.1zm3.1-9.1c-.1-2.4-1.1-4.4-3.9-4.4-2.5 0-4 1.7-4.4 4.4zM244 30.2h-4.2c-.2 0-.4-.2-.4-.4v-19c0-.2.2-.4.4-.4h4.2c.2 0 .4.2.4.4v1.6c.9-1.1 2.4-2.4 4.5-2.4 1 0 1.9.2 2.5.5.2.1.2.3.2.4l-1 3.7c0 .1-.1.2-.2.2h-.3c-.3-.1-.7-.3-1.7-.3-2.2 0-3.6 2.2-4 3.1v12.2c0 .3-.2.4-.4.4zm-3.8-.7h3.5V17.4c.4-.8 2-3.5 4.7-3.5.8 0 1.2.1 1.6.2l.8-3c-.5-.2-1.1-.3-1.9-.3-2.4 0-3.9 1.9-4.6 3-.1.1-.3.2-.4.2-.2 0-.3-.2-.3-.4v-2.4h-3.5zm10-14.9c-.3-.2-.8-.4-1.8-.4-2.5 0-4 2.6-4.3 3.3v12.3h-4.2v-19h4.2v2.8c.8-1.3 2.4-3.2 4.9-3.2 1.3 0 2 .3 2.3.5zm-25.3 16.1c-3.6 0-6-2.3-6-5.6 0-5.2 5.4-7 10.5-7h.4v-1c0-1.7-.5-2.9-3-2.9-2.3 0-3.8 1.2-4.5 1.8h-.2c-.1.1-.2.1-.3.1s-.2-.1-.2-.1l-2-2.7c-.1-.2-.1-.4 0-.5 2.1-1.8 4.6-2.8 7.5-2.8 5.1 0 7.5 2.3 7.5 7.1v7.7c0 2.5.3 4.2.5 4.9 0 .1 0 .2-.1.3s-.2.1-.3.1h-4.1c-.2 0-.3-.1-.4-.3-.1-.3-.2-.9-.2-1.4-.8 1.1-2.5 2.3-5.1 2.3zm4.5-11.9c-4.7 0-9.8 1.6-9.8 6.2 0 2.9 2.1 4.9 5.2 4.9 2.4 0 4.3-1.3 5.2-2.5.1-.1.3-.2.4-.1.2.1.2.2.3.3 0 .5.1 1.3.2 1.8h3.3c-.2-.9-.4-2.5-.4-4.6v-7.7c0-4.4-2.1-6.3-6.8-6.3-2.6 0-4.9.8-6.8 2.4l1.5 2.1c.9-.7 2.4-1.8 4.8-1.8 2.6 0 3.8 1.1 3.8 3.6v1.4c0 .2-.2.4-.4.4zm-3.4 8.7c-1.4 0-2.9-.8-2.9-2.6s1.1-4 6.3-4h.8c.2 0 .4.2.4.4V25c0 .1 0 .2-.1.2-.6.7-2 2.3-4.5 2.3zm3.4-5.9c-3.7 0-5.6 1.1-5.6 3.3 0 1.4 1.1 1.9 2.1 1.9 2 0 3.3-1.3 3.8-1.9v-3.3zm1.3 8.3c-.1-.5-.3-1.6-.3-2.2-.8 1.1-2.7 2.6-5.5 2.6-3.2 0-5.6-2-5.6-5.3 0-4.9 5.3-6.6 10.1-6.6h.8V17c0-2-.8-3.3-3.4-3.3-2.5 0-4.2 1.4-4.9 1.9l-2-2.7c1.1-.9 3.3-2.7 7.3-2.7 4.7 0 7.1 2 7.1 6.7v7.7c0 2.2.2 4 .5 5zm-.5-8.7h-.8c-3.5 0-6 1-6 3.6 0 1.6 1.3 2.3 2.5 2.3 2.3 0 3.6-1.4 4.2-2.1zm-18.5 9h-3.8c-.2 0-.3-.1-.4-.3l-3.9-12.6-4 12.6c0 .2-.2.3-.4.3h-3.8c-.2 0-.3-.1-.4-.3l-5.5-19c0-.1 0-.2.1-.3s.2-.1.3-.1h4.5c.2 0 .3.1.4.3l3.1 11.9 3.4-11.9c0-.2.2-.3.4-.3h3.9c.2 0 .3.1.4.3l3.5 12 3.1-12c0-.2.2-.3.4-.3h4.2c.1 0 .2.1.3.1s.1.2.1.3L212.1 30c0 .1-.2.2-.4.2zm-3.4-.7h3.2l5.3-18.2h-3.4L210 24.2c0 .2-.2.3-.4.3s-.4-.1-.4-.3l-3.7-12.9h-3.4l-3.7 12.8c0 .2-.2.3-.4.3s-.4-.1-.4-.3l-3.3-12.8h-3.7l5.3 18.2h3.2l4.2-13.4c0-.2.2-.3.4-.3s.4.1.4.3zm3.4.4h-3.8l-4.2-13.6h-.1l-4.3 13.6h-3.8l-5.5-19h4.5l3.4 13.1h.1l3.8-13.1h3.9l3.8 13.1h.1l3.5-13.1h4.2zm-36.4 8.4h-4.2c-.2 0-.4-.2-.4-.4v-27c0-.2.2-.4.4-.4h4.1c.2 0 .4.2.4.4V12c1.4-1.2 3.1-1.9 5-1.9 5 0 8.1 3.9 8.1 10.3 0 6.1-3.6 10.4-8.9 10.4-2 0-3.3-.5-4.2-1.1V38c0 .1-.1.3-.3.3zm-3.9-.8h3.5v-8.7c0-.1.1-.3.2-.3s.3 0 .4.1c.7.6 2.1 1.4 4.3 1.4 4.8 0 8.1-4 8.1-9.6 0-6-2.8-9.6-7.4-9.6-2.1 0-3.8.8-5.1 2.3-.1.1-.3.2-.4.1s-.2-.2-.2-.4v-1.6h-3.4zm7.7-10.1c-2.1 0-3.3-.9-4.1-1.6-.1-.1-.1-.2-.1-.3v-9.4c0-.1 0-.1.1-.2.3-.4 1.8-2.4 4.5-2.4 3.1 0 4.8 2.5 4.8 6.9-.1 4.3-2 7-5.2 7zm-3.5-2.1c.7.6 1.8 1.3 3.5 1.3 2.7 0 4.4-2.3 4.4-6.2 0-2.3-.5-6.1-4.1-6.1-2.1 0-3.5 1.6-3.8 2zm4.2 5c-2.5 0-3.9-.9-4.5-1.5v9h-4.2v-27h4.1v2c1-1.2 2.7-2.5 5.4-2.5 4.7 0 7.7 3.6 7.7 9.9 0 6.1-3.5 10.1-8.5 10.1zm-.4-16.4c-2.3 0-3.7 1.6-4.2 2.3v9.4c.8.7 1.9 1.5 3.8 1.5 3.1 0 4.8-2.7 4.8-6.6.1-4-1.4-6.6-4.4-6.6zm-24.2 16.8c-3.9 0-6-2.3-6-6.4V10.9c0-.2.2-.4.4-.4h4.2c.2 0 .4.2.4.4v12.6c0 2.1.7 3 2.5 3 1.4 0 2.9-.9 4.2-2.6v-13c0-.2.2-.4.4-.4h4.2c.2 0 .4.2.4.4V25c0 2.1.2 3.8.5 4.7 0 .1 0 .2-.1.3s-.2.1-.3.1h-4.2c-.2 0-.3-.1-.4-.3-.1-.3-.2-1.1-.3-1.8-1.2 1.3-3 2.7-5.9 2.7zm-5.3-19.5v13c0 2.6.9 5.7 5.3 5.7 3.1 0 5-1.9 5.8-3 .1-.1.3-.2.4-.1s.3.2.3.3c0 .7.2 1.7.3 2.3h3.4c-.2-1-.4-2.6-.4-4.4V11.2h-3.4v12.6c0 .1 0 .2-.1.2-1.5 2-3.2 3-4.9 3-2.2 0-3.3-1.2-3.3-3.7V11.2zm3.8-.3v12.6c0 2.1.8 3.3 2.9 3.3 2.4 0 4.2-2.4 4.6-2.9v-13h4.2V25c0 2.1.2 3.8.5 4.8h-4.2c-.1-.5-.3-1.8-.4-2.7-.9 1.3-2.9 3.1-6.1 3.1-4.1 0-5.6-2.7-5.6-6V10.9zm-17.4 19.8c-6.6 0-9.5-5.2-9.5-10.3 0-5.2 2.9-10.4 9.5-10.4 6.7 0 9.8 5.3 9.8 10.3-.2 5-3.2 10.4-9.8 10.4zm-.1-19.9c-6 0-8.7 4.8-8.7 9.6s2.7 9.6 8.8 9.6 8.9-5 8.9-9.7c0-4.6-2.8-9.5-9-9.5zm.1 16.6c-3.3 0-5.2-2.7-5.2-7.1 0-4.5 1.8-7 5-7 3.3 0 5.4 2.7 5.4 7.1 0 4.5-1.9 7-5.2 7zm-.2-13.4c-3.5 0-4.2 3.4-4.2 6.2 0 1.9.4 6.4 4.5 6.4 3.9 0 4.5-3.9 4.5-6.2-.1-4-1.9-6.4-4.8-6.4zm.2 16.3c-6.5 0-9.2-5.3-9.2-9.9s2.5-10 9.1-10c6.5 0 9.4 5.2 9.4 9.9 0 4.6-2.8 10-9.3 10zm-.2-16.6c-3.4 0-4.6 2.9-4.6 6.6s1.5 6.8 4.8 6.8c3.4 0 4.8-2.8 4.8-6.6 0-3.9-1.6-6.8-5-6.8zm-17.8 16.5h-4.2c-.2 0-.4-.2-.4-.4v-19c0-.2.2-.4.4-.4h4.2c.2 0 .4.2.4.4v1.6c.9-1.1 2.4-2.4 4.5-2.4 1 0 1.9.2 2.5.5.1.1.2.3.2.4l-1 3.7c0 .1-.1.2-.2.2h-.3c-.3-.1-.7-.3-1.7-.3-2.2 0-3.6 2.2-4 3.1v12.2c0 .3-.1.4-.4.4zm-3.8-.7h3.5V17.4c.4-.8 2-3.5 4.7-3.5.8 0 1.2.1 1.6.2l.8-3c-.5-.2-1.1-.3-1.9-.3-2.4 0-3.9 1.9-4.6 3-.1.1-.3.2-.4.2-.2 0-.3-.2-.3-.4v-2.4h-3.5zm10-14.9c-.3-.2-.8-.4-1.8-.4-2.5 0-4 2.6-4.4 3.3v12.3h-4.2v-19h4.2v2.8c.8-1.3 2.4-3.2 4.9-3.2 1.3 0 2 .3 2.3.5zM98.9 30.7c-9 0-13.8-7-13.8-13.9 0-9.1 7.1-13.9 14.1-13.9 3.6 0 6.4.8 8.7 2.5.2.1.2.3.1.5l-2.1 3.3-.2.2c-.1.1-.2 0-.3-.1-1.4-1-3-1.9-6.2-1.9-6.4 0-8.6 4.8-8.6 9.3 0 4.7 2.2 9.7 8.4 9.7 2 0 3.8-.4 5-1.1v-5.5h-4.8c-.2 0-.4-.2-.4-.4v-3.5c0-.2.2-.4.4-.4h9.5c.2 0 .4.2.4.4v12c0 .1-.1.2-.2.3l-.1.1c-1 .5-3.9 2.4-9.9 2.4zm.3-27.1c-9.2 0-13.4 6.8-13.4 13.1 0 9.1 6.8 13.2 13 13.2 5.7 0 8.5-1.8 9.4-2.4V16.1h-8.7v2.8h4.8c.2 0 .4.2.4.4v6.1c0 .1-.1.3-.2.3-1.4.9-3.4 1.3-5.6 1.3-5.6 0-9.2-4.1-9.2-10.5 0-4.9 2.5-10 9.4-10 3.1 0 5 .9 6.3 1.8l1.7-2.7c-2-1.3-4.6-2-7.9-2zm-.3 26.7c-8.7 0-13.4-6.6-13.4-13.6 0-7.1 5-13.5 13.7-13.5 4.4 0 6.9 1.2 8.4 2.4l-2.1 3.3c-1.5-1.1-3.3-2-6.4-2-6.2 0-9 4.4-9 9.6 0 5.3 2.7 10.1 8.8 10.1 3.6 0 5.3-1.2 5.4-1.3v-6.1h-5.2v-3.5h9.5v12c-.7.5-3.4 2.6-9.7 2.6zm-17.3-.1H67c-.2 0-.4-.2-.4-.4V3.7c0-.2.2-.4.4-.4h14.3c.2 0 .4.2.4.4v3.7c0 .2-.2.4-.4.4h-9.5V14h8.4c.2 0 .4.2.4.4v3.5c0 .2-.2.4-.4.4h-8.4v7.5h9.8c.2 0 .4.2.4.4v3.7c0 .2-.2.3-.4.3zm-14.2-.7h13.8v-2.9h-9.8c-.2 0-.4-.2-.4-.4V18c0-.2.2-.4.4-.4h8.4v-2.8h-8.4c-.2 0-.4-.2-.4-.4v-7c0-.2.2-.4.4-.4h9.5V4.1H67.4zm-.4.4V3.7h14.3v3.7h-9.9v7h8.8v3.5h-8.8v8.2h10.2v3.7z" fill="#4177a2"/>
</svg>
