<?xml version="1.0" encoding="utf-8"?>
<!-- Generator: Adobe Illustrator 16.2.1, SVG Export Plug-In . SVG Version: 6.00 Build 0)  -->
<!DOCTYPE svg PUBLIC "-//W3C//DTD SVG 1.1//EN" "http://www.w3.org/Graphics/SVG/1.1/DTD/svg11.dtd">
<svg version="1.1" id="twitter" xmlns="http://www.w3.org/2000/svg" xmlns:xlink="http://www.w3.org/1999/xlink" x="0px" y="0px"
	 width="28.35px" height="28.35px" viewBox="0 0 28.35 28.35" enable-background="new 0 0 28.35 28.35" xml:space="preserve">
<g>
	<defs>
		<rect id="SVGID_1_" x="0.002" y="0.003" width="28.345" height="28.344"/>
	</defs>
	<clipPath id="SVGID_2_">
		<use xlink:href="#SVGID_1_"  overflow="visible"/>
	</clipPath>
	<path clip-path="url(#SVGID_2_)" fill="#6BACD9" d="M26.782,28.347c0.863,0,1.564-0.701,1.564-1.564V1.566
		c0-0.863-0.701-1.563-1.564-1.563H1.566c-0.864,0-1.564,0.7-1.564,1.563v25.216c0,0.863,0.7,1.564,1.564,1.564H26.782z"/>
	<path clip-path="url(#SVGID_2_)" fill="#FFFFFF" d="M26.041,7.459c-0.874,0.388-1.813,0.65-2.8,0.768
		c1.006-0.604,1.779-1.559,2.143-2.697c-0.941,0.559-1.984,0.965-3.096,1.183C21.4,5.764,20.132,5.173,18.73,5.173
		c-2.693,0-4.875,2.184-4.875,4.875c0,0.383,0.043,0.755,0.125,1.111C9.928,10.956,6.335,9.014,3.93,6.065
		c-0.42,0.72-0.66,1.558-0.66,2.45c0,1.692,0.861,3.185,2.169,4.06c-0.799-0.026-1.551-0.245-2.208-0.61
		C3.23,11.985,3.23,12.006,3.23,12.026c0,2.362,1.681,4.333,3.911,4.78c-0.409,0.111-0.84,0.172-1.284,0.172
		c-0.314,0-0.62-0.031-0.918-0.088c0.621,1.938,2.422,3.348,4.555,3.387c-1.669,1.307-3.771,2.088-6.055,2.088
		c-0.394,0-0.782-0.023-1.163-0.068c2.157,1.383,4.72,2.189,7.474,2.189c8.968,0,13.872-7.43,13.872-13.872
		c0-0.212-0.006-0.422-0.014-0.631C24.562,9.296,25.387,8.436,26.041,7.459"/>
</g>
</svg>
