<?xml version="1.0" encoding="utf-8"?>
<!-- Generator: Adobe Illustrator 15.0.0, SVG Export Plug-In . SVG Version: 6.00 Build 0)  -->
<!DOCTYPE svg PUBLIC "-//W3C//DTD SVG 1.1//EN" "http://www.w3.org/Graphics/SVG/1.1/DTD/svg11.dtd">
<svg version="1.1" id="Ebene_1" xmlns="http://www.w3.org/2000/svg" xmlns:xlink="http://www.w3.org/1999/xlink" x="0px" y="0px"
	 width="453.543px" height="155.905px" viewBox="54.736 428.538 453.543 155.905"
	 enable-background="new 54.736 428.538 453.543 155.905" xml:space="preserve">
<g id="Ebene_3" display="none">
	<rect x="-121.672" y="161.144" display="inline" fill="#C60086" width="806.359" height="423.299"/>
</g>
<g id="Ebene_4">
	<g>
		<path fill="#FFFFFF" d="M169.449,520.336l0.639-1.117c0.16-0.318,0.479-0.318,0.639-0.16c0.16,0,1.597,1.118,2.874,1.118
			c0.958,0,1.756-0.639,1.756-1.437c0-0.959-0.798-1.598-2.395-2.236c-1.756-0.639-3.513-1.756-3.513-3.99
			c0-1.598,1.277-3.514,4.311-3.514c1.916,0,3.513,0.957,3.832,1.277c0.16,0.158,0.319,0.479,0.16,0.639l-0.958,0.958
			c-0.16,0.159-0.479,0.319-0.639,0.159c-0.16-0.159-1.597-0.958-2.714-0.958c-1.117,0-1.756,0.639-1.756,1.278
			c0,0.797,0.639,1.437,2.235,2.074c1.916,0.799,3.992,1.758,3.992,4.151c0,1.916-1.756,3.673-4.471,3.673
			c-2.395,0-3.832-1.118-4.151-1.438C169.289,520.814,169.289,520.656,169.449,520.336z"/>
		<path fill="#FFFFFF" d="M188.29,509.318c0-0.159,0.16-0.318,0.319-0.318h0.319c0.16,0,0.319,0,0.319,0.159l4.152,8.782l0,0
			l4.151-8.782c0-0.159,0.16-0.159,0.319-0.159h0.319c0.16,0,0.319,0.159,0.319,0.318l2.235,12.455c0,0.318-0.16,0.479-0.319,0.479
			h-1.756c-0.16,0-0.319-0.159-0.319-0.318l-1.118-7.024l0,0l-3.353,7.344c0,0.16-0.16,0.16-0.319,0.16h-0.319
			c-0.16,0-0.319-0.16-0.319-0.16l-3.354-7.344l0,0l-1.118,7.024c0,0.159-0.16,0.318-0.319,0.318h-1.756
			c-0.319,0-0.319-0.159-0.319-0.479L188.29,509.318z"/>
		<path fill="#FFFFFF" d="M208.729,521.773l5.908-12.455c0-0.159,0.16-0.159,0.319-0.159h0.16c0.16,0,0.319,0.159,0.319,0.159
			l5.908,12.455c0.16,0.16,0,0.479-0.319,0.479h-1.597c-0.319,0-0.479-0.159-0.639-0.318l-0.958-2.076h-5.749l-0.958,2.076
			c0,0.159-0.319,0.318-0.639,0.318h-1.597C208.888,522.252,208.729,521.934,208.729,521.773z M217.032,517.781l-1.916-4.15l0,0
			l-1.916,4.15H217.032z"/>
		<path fill="#FFFFFF" d="M229.646,509.639c0-0.16,0.16-0.32,0.319-0.32h5.429c2.235,0,4.151,1.758,4.151,3.992
			c0,1.758-1.118,3.035-2.874,3.832l2.555,4.791c0.16,0.159,0,0.479-0.319,0.479h-2.076c-0.16,0-0.319-0.159-0.319-0.159
			l-2.555-4.949h-2.076v4.789c0,0.16-0.16,0.319-0.319,0.319h-1.756c-0.16,0-0.319-0.159-0.319-0.319L229.646,509.639
			L229.646,509.639z M235.234,515.227c0.958,0,1.916-0.797,1.916-1.916c0-0.957-0.798-1.756-1.916-1.756h-3.194v3.672H235.234
			L235.234,515.227z"/>
		<path fill="#FFFFFF" d="M250.723,511.395h-2.874c-0.16,0-0.319-0.16-0.319-0.318v-1.598c0-0.16,0.16-0.318,0.319-0.318h8.303
			c0.16,0,0.319,0.158,0.319,0.318v1.598c0,0.158-0.16,0.318-0.319,0.318h-2.874v10.379c0,0.16-0.16,0.319-0.319,0.319h-1.756
			c-0.16,0-0.319-0.159-0.319-0.319v-10.379H250.723z"/>
		<path fill="#FFFFFF" d="M281.7,509c3.832,0,6.865,3.033,6.865,6.706s-3.033,6.706-6.865,6.706c-3.833,0-6.866-3.033-6.866-6.706
			S277.867,509,281.7,509z M281.7,520.018c2.396,0,4.471-1.916,4.471-4.312s-1.916-4.312-4.471-4.312s-4.472,1.916-4.472,4.312
			S279.305,520.018,281.7,520.018z"/>
		<path fill="#FFFFFF" d="M297.507,509.318c0-0.159,0.16-0.318,0.32-0.318h0.479l7.984,8.143l0,0v-7.664
			c0-0.16,0.158-0.318,0.317-0.318h1.757c0.159,0,0.319,0.158,0.319,0.318v12.455c0,0.159-0.16,0.318-0.319,0.318h-0.479
			l-7.983-8.462l0,0v7.983c0,0.16-0.159,0.318-0.319,0.318h-1.756c-0.16,0-0.32-0.158-0.32-0.318V509.318L297.507,509.318z"/>
		<path fill="#FFFFFF" d="M318.585,509.639c0-0.16,0.158-0.32,0.318-0.32h1.756c0.16,0,0.319,0.16,0.319,0.32v10.379h4.95
			c0.159,0,0.318,0.159,0.318,0.318v1.598c0,0.159-0.159,0.318-0.318,0.318h-7.025c-0.16,0-0.318-0.159-0.318-0.318V509.639
			L318.585,509.639z"/>
		<path fill="#FFFFFF" d="M334.552,509.639c0-0.16,0.16-0.32,0.318-0.32h1.758c0.158,0,0.318,0.16,0.318,0.32v12.295
			c0,0.159-0.16,0.318-0.318,0.318h-1.758c-0.158,0-0.318-0.159-0.318-0.318V509.639z"/>
		<path fill="#FFFFFF" d="M347.007,509.318c0-0.159,0.158-0.318,0.318-0.318h0.479l7.983,8.143l0,0v-7.664
			c0-0.16,0.159-0.318,0.319-0.318h1.756c0.16,0,0.319,0.158,0.319,0.318v12.455c0,0.159-0.159,0.318-0.319,0.318h-0.479
			l-7.984-8.462l0,0v7.983c0,0.16-0.159,0.318-0.317,0.318h-1.758c-0.159,0-0.318-0.158-0.318-0.318V509.318L347.007,509.318z"/>
		<path fill="#FFFFFF" d="M368.084,509.639c0-0.16,0.158-0.32,0.318-0.32h7.824c0.159,0,0.319,0.16,0.319,0.32v1.596
			c0,0.16-0.16,0.32-0.319,0.32h-5.589v3.033h4.79c0.16,0,0.318,0.16,0.318,0.32v1.596c0,0.16-0.158,0.32-0.318,0.32h-4.79v3.193
			h5.589c0.159,0,0.319,0.158,0.319,0.317v1.599c0,0.158-0.16,0.317-0.319,0.317h-7.824c-0.16,0-0.318-0.159-0.318-0.317V509.639z"
			/>
		<path fill="#FFFFFF" d="M402.573,509c3.833,0,6.866,3.033,6.866,6.706s-3.033,6.706-6.866,6.706c-3.832,0-6.864-3.033-6.864-6.706
			S398.741,509,402.573,509z M402.573,520.018c2.396,0,4.473-1.916,4.473-4.312s-1.916-4.312-4.473-4.312
			c-2.555,0-4.471,1.916-4.471,4.312S400.179,520.018,402.573,520.018z"/>
		<path fill="#FFFFFF" d="M418.382,509.639c0-0.16,0.158-0.32,0.318-0.32h7.823c0.16,0,0.32,0.16,0.32,0.32v1.596
			c0,0.16-0.16,0.32-0.32,0.32h-5.588v3.514h4.79c0.159,0,0.319,0.158,0.319,0.318v1.598c0,0.158-0.16,0.318-0.319,0.318h-4.79v4.79
			c0,0.159-0.16,0.319-0.319,0.319h-1.757c-0.159,0-0.319-0.16-0.319-0.319v-12.454H418.382z"/>
		<path fill="#FFFFFF" d="M435.307,509.639c0-0.16,0.16-0.32,0.319-0.32h7.823c0.16,0,0.319,0.16,0.319,0.32v1.596
			c0,0.16-0.159,0.32-0.319,0.32h-5.588v3.514h4.79c0.159,0,0.319,0.158,0.319,0.318v1.598c0,0.158-0.16,0.318-0.319,0.318h-4.79
			v4.79c0,0.159-0.16,0.319-0.319,0.319h-1.757c-0.159,0-0.318-0.16-0.318-0.319L435.307,509.639L435.307,509.639z"/>
		<path fill="#FFFFFF" d="M452.393,509.639c0-0.16,0.159-0.32,0.319-0.32h1.756c0.16,0,0.318,0.16,0.318,0.32v12.295
			c0,0.159-0.158,0.318-0.318,0.318h-1.756c-0.16,0-0.319-0.159-0.319-0.318V509.639z"/>
		<path fill="#FFFFFF" d="M470.755,509c1.916,0,3.354,0.639,4.631,1.756c0.159,0.16,0.159,0.319,0,0.479l-1.118,1.119
			c-0.159,0.16-0.319,0.16-0.479,0c-0.799-0.64-1.916-1.119-2.874-1.119c-2.396,0-4.312,1.918-4.312,4.312s1.916,4.311,4.312,4.311
			c1.117,0,2.075-0.479,2.874-1.116c0.159-0.16,0.319-0.16,0.479,0l1.118,1.276c0.159,0.16,0.159,0.318,0,0.479
			c-1.277,1.276-2.874,1.756-4.631,1.756c-3.832,0-6.866-3.032-6.866-6.705C463.729,512.033,466.923,509,470.755,509z"/>
		<path fill="#FFFFFF" d="M484.168,509.639c0-0.16,0.158-0.32,0.318-0.32h7.825c0.159,0,0.319,0.16,0.319,0.32v1.596
			c0,0.16-0.16,0.32-0.319,0.32h-5.749v3.033h4.79c0.16,0,0.32,0.16,0.32,0.32v1.596c0,0.16-0.16,0.32-0.32,0.32h-4.79v3.193h5.589
			c0.16,0,0.319,0.158,0.319,0.317v1.599c0,0.158-0.159,0.317-0.319,0.317h-7.824c-0.158,0-0.318-0.159-0.318-0.317v-12.295H484.168
			L484.168,509.639z"/>
	</g>
	<g>
		<g>
			<polygon fill="#FFFFFF" points="177.112,468.282 191.004,468.282 191.004,462.534 177.112,462.534 177.112,451.518 
				192.92,451.518 192.92,445.607 170.086,445.607 170.086,487.283 193.399,487.283 193.399,481.376 177.112,481.376 			"/>
			<path fill="#FFFFFF" d="M193.399,487.922h-23.312c-0.319,0-0.639-0.318-0.639-0.639v-41.676c0-0.318,0.319-0.639,0.639-0.639
				h22.833c0.319,0,0.639,0.319,0.639,0.639v5.908c0,0.319-0.319,0.639-0.639,0.639h-15.169v9.9h13.413
				c0.319,0,0.639,0.319,0.639,0.639v5.589c0,0.319-0.319,0.639-0.639,0.639h-13.413v11.976h15.648c0.319,0,0.639,0.319,0.639,0.64
				v5.907C194.039,487.604,193.719,487.922,193.399,487.922z M170.726,486.645h22.035v-4.629h-15.648
				c-0.319,0-0.639-0.32-0.639-0.64v-13.094c0-0.319,0.319-0.64,0.639-0.64h13.413v-4.471h-13.413c-0.319,0-0.639-0.318-0.639-0.639
				v-11.178c0-0.318,0.319-0.639,0.639-0.639h15.169v-4.63h-21.556V486.645L170.726,486.645z"/>
		</g>
		<g>
			<path fill="#FFFFFF" d="M221.501,470.357h8.303v9.74c-0.319,0.16-2.874,2.076-8.623,2.076c-9.74,0-14.051-7.665-14.051-16.127
				s4.471-15.329,14.371-15.329c4.95,0,7.824,1.437,10.219,3.193l3.354-5.269c-2.555-1.916-6.387-3.834-13.413-3.834
				c-14.051,0-21.875,10.219-21.875,21.557c0,11.177,7.665,21.716,21.396,21.716c9.9,0,14.371-3.353,15.648-4.151v-19.16h-15.329
				V470.357L221.501,470.357z"/>
			<path fill="#FFFFFF" d="M221.022,488.561c-14.371,0-22.035-11.177-22.035-22.193c0-14.53,11.337-22.195,22.514-22.195
				c5.749,0,10.219,1.277,13.892,3.992c0.319,0.16,0.319,0.479,0.16,0.798l-3.354,5.269c-0.16,0.16-0.16,0.16-0.319,0.319
				c-0.159,0.159-0.319,0-0.479-0.159c-2.235-1.598-4.79-3.035-9.9-3.035c-10.219,0-13.732,7.666-13.732,14.851
				c0,7.505,3.513,15.489,13.413,15.489c3.194,0,6.068-0.639,7.984-1.756v-8.782h-7.665c-0.319,0-0.639-0.319-0.639-0.64v-5.588
				c0-0.32,0.319-0.64,0.639-0.64h15.169c0.319,0,0.639,0.319,0.639,0.64v19.16c0,0.16-0.16,0.319-0.319,0.479l-0.16,0.16
				C235.234,485.527,230.604,488.561,221.022,488.561z M221.501,445.449c-14.69,0-21.396,10.857-21.396,20.917
				c0,14.53,10.858,21.077,20.758,21.077c9.102,0,13.573-2.875,15.01-3.832v-18.363h-13.892v4.471h7.665
				c0.319,0,0.639,0.319,0.639,0.639v9.74c0,0.16-0.16,0.479-0.319,0.479c-2.235,1.437-5.429,2.075-8.942,2.075
				c-8.942,0-14.69-6.547-14.69-16.766c0-7.824,3.992-15.967,15.009-15.967c4.95,0,7.984,1.438,10.06,2.874l2.714-4.312
				C230.922,446.566,226.771,445.449,221.501,445.449z"/>
		</g>
		<g>
			<path fill="#FFFFFF" d="M252,461.417v-4.472h-6.706v30.339H252v-19.64c0.639-1.119,2.874-5.27,7.026-5.27
				c1.756,0,2.555,0.318,2.874,0.639l1.597-5.908c-0.639-0.318-1.597-0.799-3.672-0.799
				C255.833,456.146,253.277,459.182,252,461.417z"/>
			<path fill="#FFFFFF" d="M252,487.922h-6.706c-0.319,0-0.639-0.318-0.639-0.639v-30.338c0-0.319,0.319-0.639,0.639-0.639H252
				c0.319,0,0.639,0.318,0.639,0.639v2.555c1.437-1.756,3.832-3.833,7.186-3.833c1.598,0,3.034,0.319,3.992,0.798
				c0.16,0.16,0.319,0.479,0.319,0.639l-1.597,5.908c0,0.16-0.16,0.319-0.319,0.319s-0.319,0-0.479,0
				c-0.479-0.16-1.117-0.479-2.714-0.479c-3.513,0-5.749,3.514-6.387,4.95v19.479C252.639,487.604,252.319,487.922,252,487.922z
				 M245.933,486.645h5.588v-19c0-0.16,0-0.16,0-0.319c0.639-1.277,3.193-5.589,7.505-5.589c1.277,0,1.916,0.16,2.555,0.32
				l1.277-4.791c-0.798-0.32-1.756-0.479-3.033-0.479c-3.833,0-6.229,3.034-7.346,4.79c-0.16,0.16-0.479,0.318-0.639,0.318
				c-0.319,0-0.479-0.318-0.479-0.639v-3.832h-5.588L245.933,486.645L245.933,486.645z"/>
		</g>
		<g>
			<path fill="#FFFFFF" d="M280.583,456.146c-10.38,0-14.531,8.463-14.531,15.969c0,7.505,4.151,15.807,14.689,15.807
				c10.379,0,14.85-8.622,14.85-15.967C295.591,464.609,290.96,456.146,280.583,456.146z M280.741,482.812
				c-5.429,0-7.663-4.791-7.663-10.857c0-6.068,2.075-10.539,7.345-10.539c5.429,0,7.982,4.79,7.982,10.857
				C288.405,478.182,286.171,482.812,280.741,482.812z"/>
			<path fill="#FFFFFF" d="M280.741,488.561c-10.538,0-15.169-8.302-15.169-16.445c0-8.303,4.631-16.606,15.169-16.606
				c10.699,0,15.648,8.464,15.648,16.447C296.07,479.939,291.28,488.561,280.741,488.561z M280.583,456.786
				c-9.581,0-13.893,7.664-13.893,15.329s4.312,15.328,14.051,15.328c9.74,0,14.211-7.982,14.211-15.487
				C294.952,464.609,290.481,456.786,280.583,456.786z M280.741,483.292c-5.269,0-8.303-4.312-8.303-11.337
				c0-7.186,2.874-11.178,7.984-11.178c5.269,0,8.621,4.312,8.621,11.338C289.044,479.3,286.011,483.292,280.741,483.292z
				 M280.423,462.055c-5.589,0-6.708,5.43-6.708,9.9c0,3.033,0.64,10.219,7.187,10.219c6.227,0,7.186-6.229,7.186-9.9
				C287.927,465.729,285.053,462.055,280.423,462.055z"/>
		</g>
		<g>
			<path fill="#FFFFFF" d="M327.208,456.945h-6.706v20.758c-0.64,0.799-3.515,4.631-7.347,4.631c-3.513,0-4.631-1.916-4.631-5.27
				v-20.119h-6.705v21.396c0,5.429,2.395,9.58,8.941,9.58c5.109,0,8.303-3.032,9.74-4.948c0,1.437,0.318,3.512,0.639,4.311h6.706
				c-0.319-1.596-0.798-4.471-0.798-7.664v-22.674H327.208z"/>
			<path fill="#FFFFFF" d="M310.919,488.561c-6.228,0-9.58-3.672-9.58-10.219v-21.396c0-0.318,0.32-0.639,0.64-0.639h6.706
				c0.318,0,0.639,0.319,0.639,0.639v20.119c0,3.354,1.117,4.791,3.992,4.791c2.235,0,4.631-1.437,6.706-4.151v-20.759
				c0-0.318,0.319-0.639,0.639-0.639h6.706c0.319,0,0.64,0.319,0.64,0.639v22.516c0,3.354,0.318,6.066,0.799,7.505
				c0,0.159,0,0.318-0.16,0.479c-0.159,0.16-0.319,0.16-0.479,0.16h-6.706c-0.319,0-0.479-0.16-0.64-0.479
				c-0.16-0.479-0.318-1.757-0.479-2.874C318.425,486.326,315.392,488.561,310.919,488.561z M302.458,457.584v20.757
				c0,4.152,1.437,9.103,8.461,9.103c4.951,0,7.984-3.034,9.263-4.791c0.159-0.159,0.479-0.318,0.639-0.159
				c0.159,0.159,0.479,0.319,0.479,0.479c0,1.117,0.318,2.715,0.479,3.672h5.43c-0.319-1.597-0.64-4.151-0.64-7.025v-22.035h-5.429
				v20.119c0,0.16,0,0.318-0.16,0.318c-2.395,3.194-5.109,4.791-7.824,4.791c-3.513,0-5.27-1.916-5.27-5.908v-19.319
				L302.458,457.584L302.458,457.584z"/>
		</g>
		<g>
			<path fill="#FFFFFF" d="M351.478,456.146c-4.312,0-7.025,1.918-8.622,3.992v-3.193h-6.547v43.111h6.706v-14.369
				c1.118,0.957,3.354,2.395,7.186,2.395c7.824,0,13.572-6.387,13.572-15.967C363.772,461.896,358.982,456.146,351.478,456.146z
				 M349.083,482.652c-3.193,0-4.949-1.276-6.067-2.395v-15.01c0.639-0.958,3.034-3.672,6.707-3.672c4.79,0,7.024,4.15,7.024,10.379
				C356.587,478.502,354.032,482.652,349.083,482.652z"/>
			<path fill="#FFFFFF" d="M343.015,500.695h-6.706c-0.319,0-0.639-0.318-0.639-0.639v-43.111c0-0.319,0.318-0.639,0.639-0.639
				h6.547c0.319,0,0.639,0.318,0.639,0.639v1.757c2.235-1.916,4.949-3.034,7.983-3.034c7.983,0,12.934,6.229,12.934,16.447
				c0,9.74-5.748,16.605-14.211,16.605c-3.192,0-5.27-0.799-6.706-1.756v13.252C343.494,500.377,343.334,500.695,343.015,500.695z
				 M336.787,499.419h5.59v-13.892c0-0.16,0.159-0.479,0.318-0.479c0.16,0,0.479,0,0.64,0.159c1.117,0.958,3.354,2.234,6.865,2.234
				c7.664,0,12.935-6.387,12.935-15.328c0-9.581-4.472-15.329-11.815-15.329c-3.354,0-6.067,1.276-8.144,3.672
				c-0.16,0.16-0.479,0.319-0.64,0.16c-0.159-0.16-0.318-0.319-0.318-0.64v-2.555h-5.431V499.419L336.787,499.419z M349.083,483.292
				c-3.354,0-5.27-1.437-6.547-2.556c-0.159-0.159-0.159-0.318-0.159-0.479v-15.01c0-0.16,0-0.16,0.159-0.318
				c0.479-0.64,2.874-3.832,7.187-3.832c4.949,0,7.664,3.991,7.664,11.018C357.226,478.98,354.192,483.292,349.083,483.292z
				 M343.494,480.1c1.117,0.957,2.874,2.075,5.589,2.075c4.312,0,7.025-3.672,7.025-9.899c0-3.672-0.799-9.74-6.547-9.74
				c-3.354,0-5.589,2.555-6.067,3.193V480.1L343.494,480.1z"/>
		</g>
		<g>
			<polygon fill="#FFFFFF" points="397.943,477.863 397.783,477.863 391.716,456.945 385.488,456.945 379.421,477.863 
				379.261,477.863 373.833,456.945 366.646,456.945 375.429,487.283 381.496,487.283 388.362,465.568 388.362,465.568 
				395.229,487.283 401.137,487.283 410.078,456.945 403.372,456.945 			"/>
			<path fill="#FFFFFF" d="M401.137,487.922h-6.067c-0.318,0-0.479-0.158-0.639-0.479l-6.229-20.119l-6.388,20.119
				c0,0.318-0.319,0.479-0.639,0.479h-6.067c-0.318,0-0.479-0.158-0.639-0.479l-8.782-30.338c0-0.16,0-0.319,0.16-0.479
				c0.159-0.16,0.319-0.16,0.479-0.16h7.187c0.318,0,0.479,0.16,0.639,0.479l4.95,19l5.429-19c0-0.319,0.319-0.479,0.64-0.479h6.228
				c0.319,0,0.479,0.16,0.639,0.479l5.59,19.16l4.948-19.16c0-0.319,0.319-0.479,0.64-0.479h6.707c0.158,0,0.318,0.16,0.479,0.16
				s0.16,0.319,0.16,0.479l-8.782,30.338C401.775,487.764,401.456,487.922,401.137,487.922z M395.548,486.645h5.108l8.463-29.06
				h-5.429l-5.429,20.599c0,0.318-0.319,0.479-0.64,0.479h-0.159c-0.319,0-0.479-0.16-0.64-0.479l-5.907-20.599h-5.43l-5.908,20.438
				c0,0.318-0.318,0.479-0.639,0.479s-0.639-0.16-0.639-0.479l-5.27-20.438h-5.907l8.463,29.06h5.108l6.706-21.396
				c0-0.319,0.319-0.479,0.64-0.479c0.319,0,0.639,0.16,0.639,0.479L395.548,486.645z M397.943,477.863L397.943,477.863
				L397.943,477.863z"/>
		</g>
		<g>
			<path fill="#FFFFFF" d="M437.224,466.846c0-7.505-3.833-10.699-11.338-10.699c-6.228,0-9.899,2.715-11.656,4.312l3.194,4.311
				c1.116-0.957,3.672-3.033,7.822-3.033c4.312,0,5.431,2.076,5.431,5.269v2.236h-1.277c-7.665,0-16.128,2.714-16.128,10.539
				c0,5.27,3.833,8.463,8.942,8.463c4.471,0,7.505-2.556,8.781-4.152c0,0.958,0.319,2.554,0.479,3.513h6.547
				c-0.319-1.756-0.798-4.471-0.798-7.983V466.846L437.224,466.846z M430.677,479.46c-0.958,1.118-3.034,3.353-6.707,3.353
				c-1.916,0-3.991-0.957-3.991-3.672c0-4.312,3.991-5.748,9.58-5.748h1.277L430.677,479.46L430.677,479.46z"/>
			<path fill="#FFFFFF" d="M422.214,488.561c-5.748,0-9.581-3.672-9.581-8.94c0-8.304,8.623-11.177,16.767-11.177h0.639v-1.598
				c0-2.714-0.799-4.63-4.791-4.63c-3.672,0-6.066,1.916-7.185,2.874l-0.16,0.16c-0.159,0.16-0.318,0.16-0.479,0.16
				s-0.319-0.16-0.319-0.16l-3.194-4.311c-0.158-0.319-0.158-0.64,0-0.799c3.354-2.875,7.347-4.471,11.977-4.471
				c8.144,0,11.977,3.673,11.977,11.337V479.3c0,3.992,0.479,6.706,0.798,7.824c0,0.159,0,0.319-0.158,0.479
				c-0.16,0.158-0.32,0.158-0.479,0.158h-6.547c-0.319,0-0.479-0.158-0.639-0.479c-0.159-0.479-0.319-1.438-0.319-2.234
				C429.08,486.645,426.365,488.561,422.214,488.561z M429.399,469.721c-7.505,0-15.647,2.555-15.647,9.899
				c0,4.63,3.354,7.823,8.303,7.823c3.832,0,6.866-2.075,8.304-3.991c0.159-0.16,0.479-0.319,0.639-0.16
				c0.319,0.16,0.319,0.319,0.479,0.479c0,0.797,0.16,2.076,0.319,2.873h5.27c-0.319-1.437-0.639-3.99-0.639-7.344v-12.295
				c0-7.025-3.354-10.061-10.858-10.061c-4.15,0-7.823,1.279-10.856,3.834l2.396,3.353c1.438-1.118,3.832-2.874,7.664-2.874
				c4.151,0,6.067,1.756,6.067,5.748v2.236c0,0.318-0.319,0.639-0.64,0.639h-0.798v-0.16H429.399z M423.97,483.452
				c-2.235,0-4.63-1.277-4.63-4.152c0-2.874,1.756-6.387,10.06-6.387h1.277c0.318,0,0.639,0.319,0.639,0.639v5.908
				c0,0.16,0,0.319-0.16,0.319C430.197,480.896,427.962,483.452,423.97,483.452z M429.399,474.031c-5.908,0-8.941,1.756-8.941,5.269
				c0,2.236,1.757,3.034,3.354,3.034c3.193,0,5.27-2.076,6.067-3.034v-5.269H429.399L429.399,474.031z M430.677,479.46
				L430.677,479.46L430.677,479.46z"/>
		</g>
		<g>
			<path fill="#FFFFFF" d="M452.712,461.417v-4.472h-6.707v30.339h6.707v-19.64c0.479-1.119,2.874-5.27,6.864-5.27
				c1.757,0,2.557,0.318,2.875,0.639l1.598-5.908c-0.479-0.318-1.598-0.799-3.673-0.799
				C456.544,456.146,453.989,459.182,452.712,461.417z"/>
			<path fill="#FFFFFF" d="M452.712,487.922h-6.707c-0.319,0-0.64-0.318-0.64-0.639v-30.338c0-0.319,0.319-0.639,0.64-0.639h6.707
				c0.318,0,0.639,0.318,0.639,0.639v2.555c1.437-1.756,3.832-3.833,7.186-3.833c1.598,0,3.033,0.319,3.991,0.798
				c0.319,0.16,0.319,0.479,0.319,0.639l-1.597,5.908c0,0.16-0.159,0.319-0.319,0.319c-0.159,0-0.319,0-0.479,0
				c-0.479-0.16-1.117-0.479-2.715-0.479c-3.513,0-5.748,3.514-6.387,4.95v19.479C453.351,487.604,453.031,487.922,452.712,487.922z
				 M446.644,486.645h5.589v-19c0-0.16,0-0.16,0-0.319c0.639-1.277,3.193-5.589,7.505-5.589c1.277,0,1.916,0.16,2.556,0.32
				l1.276-4.791c-0.798-0.32-1.756-0.479-3.033-0.479c-3.833,0-6.228,3.034-7.346,4.79c-0.159,0.16-0.479,0.318-0.639,0.318
				c-0.319,0-0.479-0.318-0.479-0.639v-3.832h-5.43L446.644,486.645L446.644,486.645z"/>
		</g>
		<g>
			<path fill="#FFFFFF" d="M480.814,456.146c-8.303,0-14.371,6.388-14.371,15.809s5.271,16.127,15.169,16.127
				c5.908,0,9.103-1.916,10.858-3.033l-2.396-4.631c-1.437,0.798-3.99,2.395-8.143,2.395c-5.749,0-8.304-4.151-8.623-9.739h19.8
				C494.228,462.693,489.597,456.146,480.814,456.146z M473.629,468.282c0.639-4.312,2.874-7.025,7.024-7.025
				c4.473,0,6.068,3.193,6.229,7.025H473.629z"/>
			<path fill="#FFFFFF" d="M481.612,488.561c-9.739,0-15.808-6.386-15.808-16.765c0-9.421,6.228-16.287,15.01-16.287
				c3.992,0,7.345,1.278,9.58,3.833c2.875,3.034,3.992,7.824,3.514,13.732c0,0.318-0.318,0.479-0.639,0.479h-19.161
				c0.319,3.992,2.075,8.463,7.983,8.463c3.991,0,6.387-1.437,7.823-2.234c0.159-0.16,0.319-0.16,0.479-0.16s0.319,0.16,0.319,0.318
				l2.396,4.631c0.16,0.318,0,0.639-0.159,0.798C491.033,486.484,487.681,488.561,481.612,488.561z M480.814,456.786
				c-8.144,0-13.731,6.228-13.731,15.169c0,9.581,5.589,15.488,14.529,15.488c5.271,0,8.305-1.598,10.061-2.555l-1.756-3.514
				c-1.598,0.958-4.151,2.076-7.983,2.076c-5.589,0-8.782-3.672-9.262-10.219c0-0.16,0-0.319,0.159-0.479s0.319-0.16,0.479-0.16
				h19.32c0.319-5.27-0.798-9.581-3.193-12.295C487.361,457.904,484.487,456.786,480.814,456.786z M486.882,468.921h-13.253
				c-0.159,0-0.319-0.16-0.479-0.16s-0.16-0.319-0.16-0.479c0.799-4.95,3.514-7.665,7.665-7.665s6.706,2.874,6.865,7.665
				c0,0.159,0,0.319-0.159,0.479C487.201,468.921,487.042,468.921,486.882,468.921z M474.268,467.805h11.816
				c-0.16-2.875-1.438-5.908-5.59-5.908C476.503,461.896,474.906,464.93,474.268,467.805z"/>
		</g>
	</g>
	<g>
		<path fill="#FFFFFF" d="M81.308,460.777c-1.597-3.033-1.438-6.387,0.16-9.102l-3.992-1.756
			c-8.942,7.824-14.53,19.161-14.53,31.775c0,1.756,0.16,3.513,0.319,5.109l10.858-1.277l9.581-21.875
			C82.904,463.014,81.946,462.055,81.308,460.777z"/>
		<path fill="#FFFFFF" d="M97.595,451.996c1.597,2.874,1.437,6.229,0,8.941l12.135,10.22c0.798-0.798,1.916-1.597,3.034-2.235
			c2.396-1.277,5.11-1.917,7.665-1.757v-25.069c-5.429-1.437-10.698-2.555-15.009-2.555c-0.798,0-1.597,0-2.235,0l-7.505,9.9
			C96.316,450.239,97.116,451.038,97.595,451.996z"/>
		<path fill="#FFFFFF" d="M72.686,489.359l-8.623,1.117c0.798,3.674,2.076,7.186,3.672,10.379L72.686,489.359z"/>
		<path fill="#FFFFFF" d="M124.58,490.637c5.109-2.873,7.025-9.261,4.151-14.371c-1.916-3.513-5.589-5.429-9.261-5.429
			c-1.756,0-3.513,0.479-5.109,1.277c-5.11,2.874-7.026,9.261-4.152,14.37c1.437,2.556,3.673,4.312,6.387,5.111
			C119.15,492.234,122.024,491.914,124.58,490.637z"/>
		<path fill="#FFFFFF" d="M123.94,467.805c3.354,1.117,6.228,3.353,7.984,6.705c1.277,2.395,1.756,4.95,1.756,7.506l13.732,3.192
			c0-1.118,0.16-2.235,0.16-3.353c0-8.783,0-29.541,0-29.541s-11.497-5.269-23.632-9.102V467.805L123.94,467.805z"/>
		<path fill="#FFFFFF" d="M95.2,463.652c-0.479,0.318-0.798,0.639-1.277,0.957c-1.437,0.799-2.875,1.119-4.471,1.119
			c-0.798,0-1.597-0.16-2.395-0.319l-8.623,19.8l26.826-3.193c-0.16-2.873,0.639-5.588,2.076-7.983L95.2,463.652z"/>
		<path fill="#FFFFFF" d="M103.663,508.361c-2.555,0-5.11,0.639-7.505,1.916c-4.151,2.234-6.707,6.066-7.665,10.219
			c5.11,2.234,10.858,3.514,16.926,3.514c4.79,0,9.421-0.799,13.732-2.396c-0.319-1.756-0.798-3.512-1.756-5.269
			C114.52,511.234,109.25,508.361,103.663,508.361z"/>
		<path fill="#FFFFFF" d="M133.042,485.527c-1.118,3.354-3.353,6.387-6.706,8.303c-2.236,1.118-4.471,1.598-6.866,1.598
			c-0.798,0-1.437,0-2.235-0.16l-4.312,11.816c3.194,1.756,5.908,4.311,7.665,7.664c0.958,1.756,1.597,3.672,2.076,5.588
			c12.774-5.748,22.035-17.404,24.431-31.615L133.042,485.527z"/>
		<path fill="#FFFFFF" d="M92.166,461.417c2.714-1.437,3.832-4.95,2.235-7.665c-0.958-1.916-3.034-2.874-4.95-2.874
			c-0.958,0-1.916,0.16-2.714,0.64c-2.714,1.437-3.832,4.949-2.235,7.664C86.098,461.896,89.451,462.854,92.166,461.417z"/>
		<path fill="#FFFFFF" d="M94.4,507.084c4.79-2.715,10.379-3.034,15.169-1.438l4.312-11.338c-2.875-1.276-5.27-3.353-6.866-6.228
			c-0.479-0.958-0.798-1.756-1.118-2.715l-29.061,3.514l-6.866,15.808c3.832,5.908,9.101,10.699,15.169,14.053
			C86.417,513.949,89.61,509.639,94.4,507.084z"/>
		<path fill="#FFFFFF" d="M84.182,448.802c0.319-0.159,0.639-0.479,0.798-0.639c2.395-1.277,4.95-1.437,7.345-0.64l5.748-7.504
			c-6.387,1.117-12.295,3.672-17.245,7.186L84.182,448.802z"/>
	</g>
</g>
<g>
	<path fill="#FEFEFE" d="M425.382,566.15l10.68-10.4c0.667-0.64,1.254-1.232,1.761-1.779c0.506-0.547,0.926-1.08,1.261-1.601
		c0.332-0.521,0.579-1.061,0.739-1.62c0.159-0.56,0.239-1.186,0.239-1.88c0-0.746-0.134-1.413-0.399-2
		c-0.268-0.586-0.634-1.086-1.101-1.5c-0.467-0.413-1.014-0.733-1.64-0.96c-0.627-0.228-1.301-0.34-2.021-0.34
		c-1.438,0-2.626,0.414-3.56,1.239c-0.935,0.826-1.534,1.921-1.801,3.279l-3.641-0.319c0.188-1.146,0.54-2.167,1.062-3.061
		c0.52-0.893,1.173-1.633,1.96-2.22c0.785-0.586,1.673-1.033,2.659-1.34c0.986-0.308,2.054-0.46,3.2-0.46
		c1.173,0,2.279,0.167,3.319,0.5c1.04,0.334,1.953,0.818,2.74,1.46c0.786,0.64,1.413,1.438,1.88,2.398s0.7,2.067,0.7,3.32
		c0,1.12-0.153,2.134-0.46,3.04c-0.308,0.907-0.721,1.74-1.24,2.5c-0.521,0.76-1.106,1.479-1.76,2.16
		c-0.654,0.68-1.341,1.354-2.062,2.02l-8.72,8.2v0.08h14.439v3.12h-18.239v-3.838H425.382z"/>
	<path fill="#FEFEFE" d="M453.782,553.67h1.04c0.693,0,1.42-0.053,2.181-0.16c0.76-0.104,1.452-0.333,2.08-0.68
		c0.626-0.346,1.146-0.846,1.56-1.5c0.414-0.653,0.62-1.513,0.62-2.58c0-1.439-0.446-2.58-1.34-3.42
		c-0.895-0.84-2.061-1.26-3.5-1.26c-1.2,0-2.24,0.267-3.12,0.8c-0.88,0.534-1.573,1.32-2.08,2.36l-3.239-1.24
		c0.692-1.601,1.779-2.8,3.26-3.601c1.479-0.801,3.126-1.2,4.939-1.2c1.12,0,2.193,0.16,3.221,0.479c1.026,0.32,1.926,0.787,2.7,1.4
		c0.772,0.612,1.386,1.38,1.84,2.3c0.453,0.92,0.681,1.994,0.681,3.22c0,1.494-0.447,2.834-1.341,4.021
		c-0.894,1.187-2.061,2.007-3.5,2.46v0.08c0.906,0.159,1.713,0.452,2.42,0.88c0.706,0.427,1.313,0.954,1.82,1.58
		c0.506,0.627,0.894,1.34,1.159,2.14s0.4,1.641,0.4,2.521c0,1.359-0.255,2.548-0.761,3.561c-0.507,1.014-1.188,1.867-2.04,2.561
		c-0.854,0.693-1.847,1.213-2.979,1.561c-1.133,0.347-2.326,0.521-3.58,0.521c-2.159,0-4.04-0.468-5.64-1.399
		c-1.601-0.935-2.761-2.453-3.479-4.562l3.399-1.119c0.479,1.521,1.159,2.601,2.04,3.239c0.88,0.642,2.105,0.96,3.68,0.96
		c0.801,0,1.547-0.133,2.24-0.398c0.692-0.267,1.3-0.646,1.819-1.142c0.521-0.493,0.934-1.079,1.24-1.76
		c0.306-0.68,0.46-1.433,0.46-2.26c0-1.04-0.207-1.913-0.62-2.62c-0.414-0.706-0.96-1.268-1.641-1.68
		c-0.68-0.413-1.446-0.714-2.3-0.9c-0.854-0.188-1.721-0.28-2.601-0.28h-1.04L453.782,553.67L453.782,553.67z"/>
	<path fill="#FEFEFE" d="M473.422,565.431c0.667,0,1.232,0.233,1.699,0.699c0.468,0.467,0.7,1.034,0.7,1.7
		c0,0.667-0.247,1.234-0.74,1.7c-0.492,0.466-1.047,0.7-1.659,0.7c-0.613,0-1.166-0.234-1.659-0.7c-0.494-0.466-0.74-1.033-0.74-1.7
		c0-0.666,0.233-1.233,0.7-1.7C472.188,565.664,472.756,565.431,473.422,565.431z"/>
	<path fill="#FEFEFE" d="M493.383,569.99h-3.36v-24h-0.08l-5.08,4.279l-2-2.439l7.602-6.16h2.92L493.383,569.99L493.383,569.99z"/>
</g>
</svg>
