<?xml version="1.0" encoding="utf-8"?>
<!-- Generator: Adobe Illustrator 15.0.0, SVG Export Plug-In . SVG Version: 6.00 Build 0)  -->
<!DOCTYPE svg PUBLIC "-//W3C//DTD SVG 1.1//EN" "http://www.w3.org/Graphics/SVG/1.1/DTD/svg11.dtd">
<svg version="1.1" id="Ebene_1" xmlns="http://www.w3.org/2000/svg" xmlns:xlink="http://www.w3.org/1999/xlink" x="0px" y="0px"
	 width="1005.189px" height="168.352px" viewBox="0 0 1005.189 168.352" enable-background="new 0 0 1005.189 168.352"
	 xml:space="preserve">
<g>
	<g>
		<g>
			<path fill="#075CA3" d="M332.162,55.333l-5.254,9.412c-1.474-1.232-3.764-2.458-6.841-3.666
				c-3.095-1.223-5.738-1.832-7.962-1.832c-6.954,0-12.435,2.202-16.445,6.598c-4.023,4.396-6.036,10.289-6.036,17.672
				c0,7.019,1.974,12.632,5.911,16.835c3.934,4.205,9.303,6.297,16.089,6.297c4.458,0,8.142-1.131,11.035-3.418V90.266h-9.787
				v-9.984h22.325v29.52c-2.991,2.279-6.832,4.07-11.549,5.344c-4.706,1.271-9.395,1.904-14.051,1.904
				c-10.138,0-18.162-3.093-24.094-9.291c-5.933-6.203-8.895-14.38-8.895-24.56c0-10.178,3.227-18.441,9.695-24.805
				c6.459-6.36,15.157-9.541,26.088-9.541C320.138,48.857,326.73,51.014,332.162,55.333z"/>
			<path fill="#075CA3" d="M411.819,115.93l-18.857-27.24c-1.902-0.025-4.554-0.134-7.957-0.307v27.547H371.99V49.983
				c0.702,0,3.412-0.118,8.142-0.344c4.725-0.219,8.541-0.339,11.434-0.339c17.939,0,26.906,6.49,26.906,19.453
				c0,3.902-1.231,7.463-3.713,10.674c-2.479,3.202-5.598,5.476-9.354,6.787l20.882,29.727h-14.469V115.93z M385,60.153v18.321
				c2.308,0.182,4.085,0.265,5.309,0.265c5.24,0,9.066-0.688,11.492-2.064c2.437-1.388,3.653-4.07,3.653-8.066
				c0-3.244-1.301-5.503-3.908-6.797c-2.604-1.288-6.713-1.934-12.297-1.934C387.892,59.883,386.478,59.967,385,60.153z"/>
			<path fill="#075CA3" d="M450.365,82.392c0-9.397,2.756-17.341,8.27-23.838c5.521-6.502,12.891-9.745,22.116-9.745
				c10.164,0,17.924,2.936,23.296,8.819c5.37,5.884,8.056,14.142,8.056,24.764c0,10.624-2.809,19.055-8.419,25.302
				c-5.612,6.241-13.574,9.354-23.885,9.354c-9.494,0-16.768-3.084-21.834-9.271C452.9,101.595,450.365,93.143,450.365,82.392z
				 M463.389,82.392c0,7.711,1.395,13.682,4.194,17.92c2.806,4.225,6.872,6.336,12.215,6.336c6.257,0,11.04-2.068,14.339-6.198
				c3.297-4.145,4.946-10.165,4.946-18.058c0-15.452-6.115-23.187-18.333-23.187c-5.589,0-9.886,2.094-12.868,6.286
				C464.878,69.673,463.389,75.308,463.389,82.392z"/>
			<path fill="#075CA3" d="M545.816,49.983h12.527v44.703c0,3.545,1.164,6.418,3.482,8.639c2.309,2.224,5.49,3.334,9.547,3.334
				c4.532,0,8.064-1.091,10.59-3.262c2.518-2.176,3.78-5.156,3.78-8.947V49.983h12.538v45.381c0,6.775-2.437,12.086-7.309,15.926
				c-4.861,3.846-11.374,5.77-19.506,5.77c-8.195,0-14.522-1.885-18.971-5.627c-4.461-3.752-6.68-9.125-6.68-16.117V49.983z"/>
			<path fill="#075CA3" d="M647.847,91.67v24.26h-12.533V50.024c8.359-0.333,13.235-0.493,14.664-0.493
				c11.16,0,19.312,1.596,24.467,4.788c5.163,3.201,7.751,8.187,7.751,14.967c0,15.136-9.552,22.689-28.656,22.689
				C652.126,91.974,650.23,91.871,647.847,91.67z M647.847,60.153v21.11c2.121,0.215,3.797,0.314,5.019,0.314
				c5.724,0,9.907-0.888,12.538-2.674c2.633-1.791,3.953-4.688,3.953-8.712c0-6.841-5.9-10.259-17.703-10.259
				C650.344,59.927,649.067,59.998,647.847,60.153z"/>
		</g>
		<g>
			<polygon fill="#075CA3" points="210.909,115.926 210.909,49.978 249.891,49.978 249.891,55.527 217.337,55.527 217.337,78.953 
				240.689,78.953 240.689,84.058 217.337,84.058 217.337,110.375 249.363,110.375 249.363,115.926 			"/>
			<g>
				<polygon fill="#075CA3" points="763.526,116.833 745.441,66.698 728.546,116.833 727.97,116.833 705.735,49.978 712.418,49.978 
					728.564,101.173 745.427,49.978 746.333,49.978 762.959,101.182 779.385,49.978 786.08,49.978 764.133,116.833 				"/>
				<path fill="#075CA3" d="M850.457,115.926l-5.432-15.182h-28.71l-5.927,15.182h-7.352l28.317-65.956h0.226l26.17,65.956H850.457z
					 M817.917,96.678h25.247L831.088,63.08L817.917,96.678z"/>
				<path fill="#075CA3" d="M926.76,115.926l-19.668-29.585h-0.967c-2.106,0-5.507-0.153-10.093-0.447l-1.733-0.118v30.15h-6.435
					V49.917c1.087-0.045,2.919-0.131,5.992-0.278c4.576-0.219,7.957-0.339,10.044-0.339c16.063,0,23.861,7.049,23.861,18.913
					c0,3.866-1.286,7.393-3.835,10.486c-2.489,3.036-5.466,4.941-8.815,5.668l-1.95,0.417l20.985,31.146h-7.387V115.926z
					 M901.596,53.803c-1.046,0-2.977,0.154-5.913,0.467l-1.385,0.142v26.179l1.344,0.177c2.379,0.313,4.74,0.466,7.015,0.466
					c6.233,0,10.691-0.948,13.651-2.91c3.011-1.981,4.55-5.446,4.55-10.293c0-4.104-1.662-9.69-4.923-11.553
					C912.798,54.676,908.108,53.803,901.596,53.803z"/>
				<polygon fill="#075CA3" points="966.205,115.926 966.205,49.978 1005.189,49.978 1005.189,55.527 972.635,55.527 
					972.635,78.953 995.982,78.953 995.982,84.058 972.635,84.058 972.635,110.375 1005.189,110.375 1005.189,115.926 				"/>
				<rect x="1005.189" y="126.125" fill="#075CA3" width="0" height="0"/>
			</g>
		</g>
	</g>
	<g>
		<path fill="#0073AE" d="M141.328,3.534c6.209,18.541,11.973,36.839,17.98,55.413c0.767,2.365,1.562,4.679,2.125,7.195
			c1.642,7.261,2.472,16.399,1.798,25.007c-0.64,8.207-2.491,15.844-5.069,22.395c-2.234,5.683-5.009,11.09-8.334,15.863
			c-0.086,0.117-0.062,0.354-0.166,0.49c-0.058,0.079-0.274,0.089-0.329,0.157c-0.108,0.157-0.039,0.363-0.161,0.491
			c-0.061,0.069-0.281,0.098-0.325,0.166c-0.166,0.237-0.183,0.601-0.33,0.816c-0.094,0.128-0.226,0.166-0.329,0.324
			c-0.303,0.501-1.07,1.316-1.467,1.965c-0.262,0.422-0.904,0.967-1.313,1.473c-0.113,0.139-0.043,0.363-0.161,0.492
			c-0.188,0.2-0.531,0.471-0.815,0.814c-2.544,3.074-5.372,6.031-8.5,8.662c-0.904,0.757-2.029,1.77-3.109,2.613
			c-1.621,1.287-3.397,2.701-5.23,3.93c-0.457,0.304-1.002,0.52-1.474,0.814c-1.253,0.801-2.749,1.768-4.247,2.613
			c-2.84,1.611-5.898,3.025-9.318,4.42c-1.594,0.647-3.21,1.193-5.067,1.797c-4.809,1.557-10.835,2.971-17.003,3.596
			c-11.682,1.178-23.602-0.57-32.53-3.438c-9.13-2.928-17.198-7.266-24.191-12.583c-3.463-2.638-6.709-5.505-9.645-8.663
			c-0.537-0.579-1.083-1.139-1.63-1.797c-0.606-0.719-1.412-1.602-2.128-2.457c-0.195-0.23-0.303-0.426-0.49-0.652
			c-0.33-0.389-0.806-0.702-1.145-1.145c-0.113-0.146-0.043-0.363-0.166-0.49c-0.065-0.068-0.272-0.09-0.325-0.162
			c-0.113-0.147-0.043-0.359-0.161-0.491c-1.008-1.076-2.167-2.843-3.109-4.247c-0.142-0.217-0.358-0.447-0.49-0.66
			c-0.404-0.639-0.852-1.364-1.309-2.121c-0.142-0.246-0.166-0.55-0.322-0.814c-0.135-0.217-0.361-0.434-0.493-0.658
			c-3.28-5.59-6.139-12.308-8.01-19.453c-1.905-7.258-3.054-15.523-2.616-24.845c0.127-2.684,0.56-5.423,0.981-8.174
			c0.414-2.706,0.815-5.301,1.474-7.848c1.08-4.21,2.445-8.149,4.085-11.933c0.156-0.369,0.541-0.781,0.649-1.145
			c0.363-1.196,1.065-2.287,1.64-3.433c0.647-1.3,1.217-2.584,1.96-3.762c0.072-0.113,0.067-0.361,0.161-0.489
			c0.055-0.069,0.291-0.097,0.329-0.164c0.157-0.266,0.202-0.587,0.33-0.817c0.575-1.022,1.522-2.299,2.282-3.434
			c0.216-0.312,0.325-0.785,0.659-1.141c0.065-0.066,0.274-0.096,0.33-0.165c0.161-0.233,0.192-0.622,0.325-0.818
			c0.082-0.12,0.23-0.181,0.324-0.329c0.102-0.154,0.308-0.377,0.491-0.655c0.104-0.15,0.313-0.379,0.496-0.653
			c0.26-0.398,0.904-0.975,1.301-1.472c0.113-0.14,0.051-0.363,0.168-0.488c0.317-0.344,0.897-0.985,1.306-1.47
			c1.347-1.602,3.124-3.488,4.745-5.069c1.467-1.437,3.323-3.147,5.066-4.577c0.216-0.182,0.433-0.307,0.654-0.493
			c0.33-0.275,0.546-0.527,0.977-0.815c0.159-0.101,0.385-0.312,0.659-0.492c0.151-0.103,0.382-0.309,0.654-0.488
			c0.151-0.104,0.382-0.312,0.651-0.492c0.154-0.1,0.385-0.309,0.654-0.491c0.156-0.103,0.382-0.309,0.654-0.488
			c0.584-0.389,1.561-1.128,2.287-1.634c0.127-0.088,0.358-0.063,0.493-0.166c0.077-0.054,0.092-0.28,0.166-0.324
			c0.25-0.167,0.551-0.16,0.815-0.327c0.173-0.111,0.354-0.309,0.654-0.493c0.678-0.41,1.385-0.888,2.126-1.307
			c1.542-0.869,3.458-1.956,5.23-2.78c0.526-0.243,1.075-0.392,1.635-0.653c0.649-0.302,1.233-0.646,1.964-0.982
			c1.664-0.769,4.228-1.623,6.214-2.288c2.333-0.784,4.703-1.385,7.188-1.96c2.481-0.575,5.06-1.151,7.688-1.47
			C79.469,3.29,88.015,3.53,96.378,3.53C111.205,3.534,126.364,3.534,141.328,3.534z"/>
		<g id="XMLID_1_">
			<g>
				<path fill="#FDCA44" d="M148.032,57.157c0.289,0.096,0.024,0.457,0,0.165c-5.112-11.951-12.716-21.669-22.395-29.097
					c-0.344-0.261-0.627-0.389-0.981-0.653c-0.055-0.044-0.118-0.308-0.164-0.329c-0.089-0.037-0.255,0.052-0.334,0
					c-0.053-0.04-0.108-0.302-0.156-0.327c-0.084-0.036-0.26,0.052-0.334,0c-0.279-0.203-0.524-0.613-0.815-0.817
					c-0.156-0.113-0.202-0.041-0.324-0.161c-0.137-0.136-0.354-0.197-0.491-0.33s-0.354-0.197-0.486-0.327
					c-0.142-0.132-0.358-0.193-0.49-0.328c-0.168-0.153-0.933-0.428-1.313-0.652c-0.137-0.085-0.058-0.255-0.161-0.328
					c-0.353-0.251-1.271-0.509-1.798-0.817c-0.067-0.04-0.106-0.301-0.166-0.325c-2.559-1.159-5.447-2.704-8.334-3.927
					c-3.826-1.615-8.015-2.858-12.425-3.758c-1.311-0.266-2.79-0.431-4.085-0.654c-0.918-0.156-1.828-0.213-2.941-0.326
					c-0.281-0.027-1.042,0.297-1.145-0.327c14.3,0.339,30.363,0.084,45.44,0.165c0.522,1.614,0.834,3.232,1.474,4.903
					c1.311,3.443,2.549,7.725,3.756,11.443c0.575,1.756,1.257,3.474,1.803,5.233c1.118,3.617,2.229,7.172,3.427,10.786
					C145.775,49.908,147.03,53.506,148.032,57.157z"/>
				<path fill="#FDCA44" d="M86.074,80.534c12.043,0,24.085,0,36.125,0c-0.293,13.385-0.161,27.754-0.161,42.017
					c0,1.934,0.531,5.076-0.33,5.883c-0.146,0.138-0.324,0.197-0.49,0.324c-0.839,0.662-2.172,1.443-3.271,2.125
					c-0.183,0.113-0.301,0.385-0.491,0.488c-0.211,0.122-0.433,0.037-0.649,0.166c-0.075,0.039-0.108,0.295-0.166,0.324
					c-0.135,0.063-0.358-0.064-0.488,0c-0.072,0.039-0.108,0.305-0.166,0.329c-0.796,0.358-1.808,0.751-2.614,1.145
					c-0.034,0.015-0.26,0.118-0.327,0.161c-0.074,0.045-0.127,0.311-0.164,0.33c-0.216,0.098-0.543,0.112-0.651,0.156
					c-0.414,0.188-0.875,0.314-1.313,0.491c-2.328,0.954-5.081,1.877-7.846,2.622c-1.39,0.374-2.893,0.605-4.415,0.978
					c-0.221,0.054-0.433,0.28-0.654,0.329c-0.26,0.055-0.551-0.049-0.815,0c-1.974,0.363-3.954,0.707-6.045,0.982
					c-2.106,0.266-4.336,0.324-6.541,0.49c-6.601,0.473-13.06-0.172-18.639-1.473c-0.877-0.207-1.729-0.569-2.611-0.819
					c-0.89-0.245-1.789-0.358-2.619-0.653c-0.815-0.295-1.664-0.654-2.45-0.982c-1.22-0.506-2.275-1.07-3.439-1.63
					c-0.877-0.433-1.688-0.929-2.611-1.474c-0.192-0.118-0.188-0.029-0.325-0.168c-0.176-0.166-0.433-0.014-0.654-0.16
					c-0.067-0.045-0.058-0.257-0.166-0.325c-0.353-0.231-0.904-0.433-1.306-0.819c-0.173-0.158-0.409-0.285-0.654-0.492
					c-0.175-0.146-0.623-0.24-0.815-0.49c-0.099-0.119-0.407-0.295-0.659-0.486c-1.267-0.968-2.436-2.034-3.595-3.109
					c-0.594-0.545-1.241-1.051-1.796-1.631c-1.169-1.217-2.265-2.681-3.434-4.086c-0.038-0.049-0.308-0.117-0.327-0.166
					c-0.036-0.08,0.053-0.261,0-0.324c-0.226-0.295-0.596-0.502-0.815-0.82c-0.479-0.674-0.861-1.43-1.313-2.127
					c-0.426-0.658-0.909-1.277-1.306-1.959c-0.428-0.742-0.757-1.508-1.145-2.289c-0.349-0.711-0.811-1.395-1.145-2.127
					c-0.863-1.885-1.585-4.096-2.287-6.206c-0.084-0.257-0.06-0.403-0.164-0.659c-0.053-0.137-0.298-0.402-0.329-0.49
					c-0.127-0.447-0.058-1.003-0.161-1.469c-0.099-0.447-0.226-0.895-0.33-1.311c-0.221-0.924-0.476-1.848-0.654-2.775
					c-0.834-4.455-1.25-9.676-1.142-15.205c0.113-5.724,1.123-11.193,2.455-16.02c0.039-0.149,0.077-0.417,0.161-0.653
					c0.265-0.779,0.757-2.073,1.145-3.107c0.495-1.329,1.212-2.72,1.798-4.088c0.062-0.153,0.058-0.442,0.161-0.653
					c0.039-0.072,0.298-0.104,0.33-0.162c0.086-0.196,0.175-0.561,0.325-0.818c0.308-0.54,0.604-1.397,1.142-1.96
					c0.173-0.181,0.414-0.935,0.654-1.312c0.038-0.059,0.305-0.107,0.329-0.161c0.039-0.084-0.05-0.253,0-0.33
					c0.043-0.059,0.303-0.108,0.33-0.162c0.034-0.085-0.055-0.255,0-0.328c0.091-0.139,0.401-0.192,0.491-0.327
					c0.123-0.191,0.024-0.462,0.161-0.655c0.183-0.259,0.541-0.567,0.815-0.98c0.216-0.325,0.423-0.688,0.654-0.98
					c0.246-0.307,0.565-0.504,0.82-0.82c0.368-0.45,0.678-0.997,1.145-1.469c0.034-0.039,0.127-0.312,0.161-0.328
					c0.305-0.139,0.414-0.202,0.654-0.489c1.007-1.205,2.51-2.566,3.761-3.759c0.281-0.271,0.502-0.543,0.815-0.821
					c0.296-0.257,0.678-0.387,0.979-0.653c0.608-0.521,1.154-1.139,1.801-1.633c0.442-0.339,0.974-0.594,1.474-0.98
					c0-0.002,0.32-0.165,0.325-0.165c0.039-0.054-0.055-0.292,0-0.328c0.195-0.143,0.401-0.146,0.651-0.327
					c0.625-0.447,1.631-1.112,2.451-1.633c0.248-0.155,0.555-0.238,0.822-0.49c0.45-0.436,1.683-0.909,2.451-1.31
					c0.892-0.466,1.738-1.105,2.779-1.47c0.426-0.153,0.671-0.28,1.143-0.489c0.135-0.059,0.428-0.069,0.654-0.165
					c0.08-0.031,0.104-0.299,0.168-0.326c0.322-0.146,0.44,0.039,0.647-0.163c0.183-0.172,0.979-0.309,1.474-0.492
					c0.194-0.073,0.033-0.245,0.166-0.326c0.137-0.094,0.899-0.089,1.14-0.165c0.166-0.052,0.409-0.081,0.659-0.165
					c0.755-0.257,1.994-0.7,3.102-0.98c1.818-0.459,3.6-0.858,5.56-1.143c4.715-0.688,10.573-0.918,15.69-0.165
					c1.926,0.285,3.646,0.582,5.398,0.979c1.483,0.338,2.864,0.641,4.415,1.144c0.104,0.035,0.433,0.089,0.654,0.165
					c0.303,0.106,0.255,0.195,0.486,0.33c0.406,0.231,0.722,0.115,1.311,0.326c0.245,0.089,0.57,0.308,0.983,0.492
					c0.543,0.243,1.551,0.665,2.287,0.98c0.154,0.066,0.438,0.062,0.649,0.163c0.072,0.036,0.108,0.299,0.166,0.328
					c0.084,0.037,0.246-0.049,0.325,0c1.263,0.72,3.162,1.608,4.579,2.452c1.339,0.797,2.563,1.74,3.761,2.615
					c0.325,0.236,0.664,0.42,0.976,0.653c0.267,0.196,0.536,0.432,0.82,0.655c0.291,0.231,0.664,0.398,0.983,0.655
					c0.24,0.195,0.392,0.673,0.815,0.654c-0.443,0.964-1.179,1.723-1.799,2.615c-0.118,0.17-0.205,0.344-0.327,0.491
					c-0.837,1.027-1.931,2.54-2.78,3.76c-0.202,0.288-0.286,0.69-0.488,0.98c-0.039,0.059-0.303,0.11-0.327,0.167
					c-0.036,0.073,0.053,0.26,0,0.323c-0.046,0.057-0.277-0.049-0.325,0c-0.06,0.057,0.043,0.264,0,0.327
					c-0.104,0.137-0.399,0.191-0.491,0.33c-0.108,0.156-0.06,0.346-0.164,0.488c-0.32,0.429-0.599,0.839-0.981,1.306
					c-0.462,0.567-0.895,1.349-1.474,2.127c-0.221,0.299-0.382,0.66-0.815,0.653c-0.207-0.349-0.532-0.371-0.82-0.653
					c-0.166-0.169-0.495-0.424-0.815-0.655c-0.202-0.143-0.418-0.167-0.654-0.325c-0.058-0.044-0.104-0.299-0.166-0.328
					c-0.118-0.059-0.373,0.078-0.486,0c-0.026-0.021-0.118-0.285-0.163-0.327c-0.633-0.548-1.881-1.011-2.78-1.471
					c-0.216-0.108-0.27-0.383-0.491-0.492c-0.226-0.11-0.584-0.047-0.815-0.167c-0.678-0.331-1.178-0.712-1.964-0.978
					c-0.084-0.026-0.466-0.083-0.659-0.161c-0.072-0.037-0.092-0.3-0.156-0.33c-0.315-0.15-0.787-0.177-1.145-0.327
					c-0.231-0.095-0.425-0.241-0.651-0.329c-0.291-0.105-0.409-0.24-0.654-0.324c-0.536-0.182-1.14-0.177-1.635-0.33
					c-0.442-0.13-0.844-0.366-1.311-0.488c-0.536-0.142-1.046-0.231-1.635-0.33c-0.508-0.083-1.111-0.063-1.638-0.161
					c-0.077-0.016-0.101-0.3-0.161-0.327c-0.146-0.071-1.037-0.125-1.306-0.165c-2.52-0.363-6.517-0.163-8.994,0.165
					c-0.44,0.056-0.897-0.071-1.306,0c-0.31,0.052-0.505,0.275-0.815,0.327c-0.782,0.125-1.587,0.171-2.29,0.329
					c-4.482,0.975-8.642,2.944-11.932,5.39c-0.272,0.202-0.58,0.282-0.82,0.494c-0.33,0.284-0.597,0.641-0.984,0.981
					c-0.058,0.049-0.269-0.055-0.325,0c-0.053,0.049,0.056,0.28,0,0.325c-0.137,0.113-0.368,0.052-0.49,0.165
					c-0.82,0.761-2.186,2.045-2.941,3.106c-0.051,0.067,0.053,0.271,0,0.327c-0.055,0.054-0.282-0.056-0.33,0
					c-0.05,0.062,0.053,0.271,0,0.327c-0.05,0.054-0.281-0.057-0.33,0c-0.103,0.123-0.048,0.356-0.161,0.491
					c-0.385,0.466-0.792,0.808-1.14,1.309c-0.188,0.252-0.3,0.528-0.491,0.815c-0.074,0.106-0.271,0.231-0.329,0.326
					c-0.32,0.518-0.772,1.305-1.145,1.965c-1.234,2.165-2.121,4.479-2.946,7.027c-0.423,1.319-0.847,2.527-1.14,3.924
					c-0.286,1.348-0.498,2.768-0.654,4.248c-0.33,3.035-0.683,6.269-0.491,9.479c0.084,1.367,0.344,2.736,0.491,4.088
					c0.522,4.891,1.964,9.758,4.085,13.734c0.404,0.752,0.847,1.391,1.308,2.127c0.166,0.256,0.327,0.413,0.491,0.648
					c0.146,0.217,0.19,0.619,0.329,0.82c0.082,0.123,0.226,0.182,0.322,0.329c0.041,0.06,0.104,0.245,0.168,0.325
					c0.039,0.053,0.274-0.05,0.325,0c0.146,0.146,0.034,0.49,0.161,0.647c0.301,0.382,0.75,0.688,1.149,1.149
					c0.433,0.52,0.899,1.229,1.469,1.797c0.425,0.432,0.976,0.732,1.467,1.145c0.325,0.27,0.594,0.683,0.983,0.982
					c0.515,0.397,1.306,0.84,1.965,1.311c0.123,0.088,0.317,0.055,0.486,0.156c0.053,0.041-0.046,0.285,0,0.335
					c0.058,0.054,0.26-0.05,0.329,0c0.226,0.157,0.402,0.501,0.652,0.653c0.394,0.23,0.83,0.246,1.306,0.486
					c0.885,0.452,2.119,1.174,3.273,1.635c1.63,0.653,3.407,1.066,5.235,1.469c4.312,0.968,9.89,1.381,14.711,0.658
					c1.195-0.176,2.212-0.383,3.268-0.658c0.789-0.195,2.003-0.457,2.941-0.815c0.293-0.108,0.531-0.372,0.82-0.485
					c0.382-0.162,0.645-0.168,0.977-0.33c0.159-0.078,0.154-0.244,0.329-0.322c0.344-0.178,0.659-0.031,0.979-0.33
					c0.058-0.049,0.113-0.299,0.166-0.33c0.329-0.182,0.688-0.162,0.983-0.322c0.175-0.109,0.185-0.213,0.322-0.33
					c0.06-0.055,0.271,0.055,0.329,0c0.046-0.045-0.053-0.289,0-0.33c0.457-0.303,1.149-0.382,1.469-0.982c0-6.865,0-13.73,0-20.596
					c-4.9-0.379-10.515-0.049-15.695-0.162C86.163,92.446,86.389,85.6,86.074,80.534z"/>
			</g>
		</g>
	</g>
</g>
</svg>
