<?xml version="1.0" encoding="utf-8"?>
<!-- Generator: Adobe Illustrator 15.0.0, SVG Export Plug-In . SVG Version: 6.00 Build 0)  -->
<!DOCTYPE svg PUBLIC "-//W3C//DTD SVG 1.1//EN" "http://www.w3.org/Graphics/SVG/1.1/DTD/svg11.dtd">
<svg version="1.1" id="Ebene_1" xmlns="http://www.w3.org/2000/svg" xmlns:xlink="http://www.w3.org/1999/xlink" x="0px" y="0px"
	 width="128px" height="128px" viewBox="0 0 128 128" enable-background="new 0 0 128 128" xml:space="preserve">
<g>
</g>
<g>
	<path fill="#FFFFFF" d="M83.453,44.845c-2.195-2.823-6.34-4.679-11.128-3.615c-2.196,0.488-3.658,1.389-4.914,2.711
		c-1.082,1.14-1.913,2.669-2.712,4.011c-0.116,0.196-0.176,0.455-0.395,0.565c-1.197-2.002-2.162-4.146-3.954-5.536
		c-1.756-1.362-4.22-2.244-7.513-2.033c-3.127,0.2-5.613,1.597-7.23,3.446c-1.621,1.852-2.623,4.406-2.881,7.569
		c-0.258,3.162-0.057,6.752-0.057,10.394c0,3.473,0,7.024,0,10.45c2.523,0,5.046,0,7.569,0c0-5.656,0-11.458,0-17.172
		c0-2.008,0.033-3.691,0.734-5.027c0.436-0.83,1.009-1.381,1.808-1.751c1.398-0.648,3.556-0.59,4.858,0
		c2.218,1.005,2.938,3.597,2.938,6.835c0,3.23,0,6.864,0,9.829c2.523,0,5.046,0,7.569,0c0-2.287,0-5.028,0-7.626
		c0-2.675-0.083-5.11,0.791-6.891c0.45-0.917,1.19-1.669,2.09-2.09c1.37-0.641,3.715-0.772,5.196,0.057
		c0.682,0.381,1.277,1.099,1.639,1.864c0.636,1.348,0.621,3.048,0.621,5.027c0,5.688,0,11.615,0,16.946c2.523,0,5.047,0,7.569,0
		c0-4.974,0-10.21,0-15.252c0-2.754,0.114-5.192-0.282-7.343C85.375,48.072,84.624,46.35,83.453,44.845z"/>
	<path fill="#FFFFFF" d="M63.405,1.594C28.94,1.594,1,29.534,1,64c0,34.464,27.94,62.406,62.405,62.406
		c34.466,0,62.408-27.941,62.408-62.406C125.812,29.534,97.871,1.594,63.405,1.594z M98.253,55.069
		c-0.165,4.934-0.332,9.685-0.96,14.122c-0.209,1.473-0.372,2.945-0.848,4.18c-0.877,2.278-2.664,4.012-4.575,5.479
		c-3.882,2.982-8.46,4.659-14.687,5.366c-3.011,0.342-6.19,0.678-9.32,0.678c-6.517,0-12.712-0.731-18.076-1.977
		c-0.092,6.814,3.404,9.743,9.32,10.619c5.866,0.869,12.901,0.33,17.85-1.186c0.1,1.972,0.163,3.979,0.283,5.931
		c-5.036,2.339-11.896,3.42-19.149,2.881c-3.321-0.247-6.583-0.837-9.546-1.581c-3.079-0.774-5.496-1.805-7.683-3.446
		c-8.578-6.439-10.23-19.263-10.394-34.062c0-2.636,0-5.272,0-7.908c-0.099-9.938,2.718-16.526,8.304-20.731
		c2.803-2.11,6.603-3.046,10.789-3.728c4.173-0.68,8.824-0.904,13.5-1.073c0.866,0,1.732,0,2.599,0
		c4.459,0.101,8.849,0.42,12.879,1.017c4.01,0.594,7.856,1.353,10.676,3.22c2.757,1.825,4.948,4.421,6.44,7.456
		c1.517,3.087,2.409,6.823,2.598,11.241C98.253,52.734,98.253,53.902,98.253,55.069z"/>
</g>
</svg>
