<?xml version="1.0" encoding="UTF-8"?>
<svg version="1.1" width="32" height="32" viewBox="0 0 32 32" xmlns="http://www.w3.org/2000/svg">
<path d="m25.12 4.102-2.401 5.145a9.9 9.9 0 0 1 3.215 7.304c0 5.487-4.448 9.935-9.935 9.935-5.486 0-9.934-4.448-9.934-9.935a9.896 9.896 0 0 1 3.217-7.304L6.88 4.102C3.05 6.914.552 11.434.552 16.551c0 8.531 6.916 15.447 15.447 15.447s15.448-6.916 15.448-15.447c0-5.117-2.498-9.637-6.327-12.449zM14.896 17.654h2.207a2.206 2.206 0 0 0 2.206-2.207V2.207A2.207 2.207 0 0 0 17.103 0h-2.207a2.208 2.208 0 0 0-2.207 2.207v13.24c0 1.219.989 2.207 2.207 2.207z" fill="#62686a"/>
</svg>
