<?xml version="1.0" encoding="UTF-8"?>
<svg version="1.1" width="164" height="164" viewBox="0 0 164 164" xmlns="http://www.w3.org/2000/svg">
 <path d="M60.761 131.08c9.385-5.134 20.012-5.78 29.463-2.724l8.314-22.036A27.31 27.31 0 0 1 85.26 94.255a27.569 27.569 0 0 1-2.2-5.254l-56.44 6.84-13.447 30.709c7.399 11.408 17.54 20.867 29.51 27.42 2.602-9.427 8.84-17.84 18.077-22.89m74.935-41.865c-2.049 6.587-6.536 12.427-13.054 15.989-4.11 2.249-8.622 3.392-13.176 3.392-1.403 0-2.809-.128-4.209-.346l-8.623 22.853c6.093 3.317 11.347 8.33 14.916 14.855a37.208 37.208 0 0 1 3.905 10.902c24.67-11.043 42.88-33.904 47.425-61.394zM62.36 46.702c-.798.637-1.63 1.246-2.556 1.753a17.852 17.852 0 0 1-8.592 2.201c-1.54 0-3.068-.206-4.548-.592l-16.797 38.36 52.069-6.309a27.698 27.698 0 0 1 4.08-15.541zM18.586 96.815l-16.845 2.04a81.381 81.381 0 0 0 7.111 20.191z" fill="#137aa5"/>
 <path d="M66.947 24.071c3.06 5.595 2.784 12.101-.091 17.308l23.547 19.78c1.71-1.637 3.633-3.098 5.807-4.285 4.692-2.564 9.807-3.587 14.79-3.293V5.007C100.486 2.07 90.182 0 82 0c-1.473 0-2.934.043-4.387.12L62.996 19.24c1.54 1.348 2.912 2.932 3.952 4.831m11.718 109.39a30.27 30.27 0 0 0-14.56 3.73c-7.932 4.338-13.137 11.725-15.022 19.913A81.699 81.699 0 0 0 82 164c9.392 0 18.407-1.6 26.81-4.508-.506-3.481-1.592-6.93-3.375-10.192-5.526-10.105-15.989-15.84-26.77-15.84M40.848 18.1c.563-.398 1.092-.834 1.712-1.173 4.576-2.507 9.758-2.752 14.351-1.2L68.006 1.213a81.536 81.536 0 0 0-33.622 14.048zM56.46 42.347c5.322-2.913 7.285-9.609 4.374-14.933-1.996-3.652-5.777-5.72-9.671-5.72-1.782 0-3.588.432-5.258 1.344-5.324 2.912-7.287 9.608-4.376 14.933 2.91 5.32 9.607 7.274 14.931 4.376M117.97 54.9c6.436 2.1 12.128 6.531 15.625 12.926 2.519 4.606 3.548 9.62 3.308 14.516l26.818 6.167c.169-2.15.28-4.316.28-6.51V24.72s-22.49-10.35-46.031-17.655zm1.33 44.195c9.953-5.444 13.624-17.972 8.18-27.927-3.734-6.83-10.804-10.701-18.089-10.701-3.334 0-6.713.81-9.838 2.521-9.951 5.44-13.62 17.971-8.177 27.927a20.436 20.436 0 0 0 12.267 9.87 20.456 20.456 0 0 0 15.656-1.69M35.414 41.31c-3.16-5.78-2.738-12.517.411-17.803l-7.638-3.35C10.925 35.19.001 57.313.001 82c0 3.376.228 6.699.625 9.969l21.209-2.57 18.55-42.365a17.88 17.88 0 0 1-4.97-5.723" fill="#005d8b"/>
</svg>
