<?xml version="1.0" encoding="utf-8"?>
<!-- Generator: Adobe Illustrator 15.0.0, SVG Export Plug-In . SVG Version: 6.00 Build 0)  -->
<!DOCTYPE svg PUBLIC "-//W3C//DTD SVG 1.1//EN" "http://www.w3.org/Graphics/SVG/1.1/DTD/svg11.dtd">
<svg version="1.1" id="Ebene_1" xmlns="http://www.w3.org/2000/svg" xmlns:xlink="http://www.w3.org/1999/xlink" x="0px" y="0px"
	 width="164px" height="164px" viewBox="0 0 164 164" enable-background="new 0 0 164 164" xml:space="preserve">
<g>
	<defs>
		<rect id="SVGID_1_" width="164" height="164"/>
	</defs>
	<clipPath id="SVGID_2_">
		<use xlink:href="#SVGID_1_"  overflow="visible"/>
	</clipPath>
	<path clip-path="url(#SVGID_2_)" fill="#005D8B" d="M35.335,41.303c-3.153-5.767-2.732-12.489,0.41-17.764l-7.621-3.343
		C10.9,35.196,0,57.269,0,81.902c0,3.369,0.227,6.684,0.623,9.947l21.162-2.564l18.509-42.271
		C38.312,45.525,36.601,43.616,35.335,41.303"/>
	<path clip-path="url(#SVGID_2_)" fill="#137AA5" d="M18.546,96.684L1.738,98.72c1.484,7.1,3.901,13.853,7.095,20.146L18.546,96.684
		z"/>
	<path clip-path="url(#SVGID_2_)" fill="#005D8B" d="M119.034,98.958c9.932-5.432,13.595-17.932,8.163-27.865
		c-3.726-6.814-10.78-10.677-18.049-10.677c-3.327,0-6.698,0.808-9.816,2.516c-9.93,5.428-13.591,17.931-8.159,27.865
		c2.632,4.811,6.978,8.307,12.24,9.848C108.672,102.187,114.226,101.585,119.034,98.958"/>
	<path clip-path="url(#SVGID_2_)" fill="#005D8B" d="M117.707,54.861c6.423,2.096,12.102,6.517,15.591,12.897
		c2.513,4.596,3.54,9.6,3.3,14.484l26.759,6.154c0.169-2.145,0.28-4.307,0.28-6.495V24.747c0,0-22.44-10.325-45.93-17.615V54.861z"
		/>
	<path clip-path="url(#SVGID_2_)" fill="#137AA5" d="M62.223,46.682c-0.797,0.636-1.627,1.244-2.551,1.75
		c-2.723,1.49-5.668,2.196-8.573,2.196c-1.537,0-3.061-0.206-4.538-0.591l-16.76,38.275l51.954-6.295
		c-0.205-5.46,1.217-10.868,4.072-15.507L62.223,46.682z"/>
	<path clip-path="url(#SVGID_2_)" fill="#137AA5" d="M135.396,89.101c-2.045,6.573-6.522,12.399-13.025,15.954
		c-4.101,2.244-8.603,3.385-13.147,3.385c-1.4,0-2.803-0.128-4.2-0.345l-8.604,22.802c6.079,3.309,11.322,8.312,14.883,14.822
		c1.91,3.493,3.187,7.162,3.896,10.878c24.616-11.019,42.786-33.829,47.32-61.258L135.396,89.101z"/>
	<path clip-path="url(#SVGID_2_)" fill="#005D8B" d="M56.334,42.335c5.31-2.906,7.269-9.587,4.364-14.9
		c-1.992-3.643-5.764-5.707-9.65-5.707c-1.778,0-3.58,0.431-5.246,1.341c-5.312,2.906-7.271,9.587-4.366,14.9
		C44.34,43.278,51.021,45.227,56.334,42.335"/>
	<path clip-path="url(#SVGID_2_)" fill="#137AA5" d="M60.627,130.873c9.364-5.123,19.968-5.768,29.398-2.718l8.296-21.987
		c-5.627-2.41-10.267-6.585-13.249-12.038c-0.93-1.699-1.654-3.456-2.195-5.242l-56.315,6.824l-13.417,30.641
		c7.382,11.383,17.501,20.821,29.444,27.36C45.186,144.306,51.41,135.912,60.627,130.873"/>
	<path clip-path="url(#SVGID_2_)" fill="#005D8B" d="M40.757,18.143c0.562-0.398,1.089-0.833,1.708-1.171
		c4.566-2.501,9.736-2.746,14.319-1.198l11.07-14.479C55.502,3.419,44.103,8.311,34.306,15.312L40.757,18.143z"/>
	<path clip-path="url(#SVGID_2_)" fill="#005D8B" d="M78.491,133.249c-4.924,0-9.911,1.198-14.527,3.721
		c-7.915,4.329-13.109,11.7-14.99,19.87c10.056,4.413,21.159,6.88,32.844,6.88c9.372,0,18.366-1.597,26.752-4.498
		c-0.506-3.473-1.589-6.915-3.368-10.169C99.688,138.97,89.248,133.249,78.491,133.249"/>
	<path clip-path="url(#SVGID_2_)" fill="#005D8B" d="M66.799,24.101c3.053,5.583,2.778,12.074-0.091,17.27l23.495,19.736
		c1.706-1.633,3.625-3.091,5.794-4.276c4.682-2.558,9.786-3.579,14.757-3.285V5.08c-10.491-2.931-20.772-4.997-28.936-4.997
		c-1.469,0-2.927,0.043-4.377,0.119L62.856,19.28C64.392,20.626,65.762,22.206,66.799,24.101"/>
</g>
</svg>
