<?xml version="1.0" encoding="utf-8"?>
<!-- Generator: Adobe Illustrator 15.0.0, SVG Export Plug-In . SVG Version: 6.00 Build 0)  -->
<!DOCTYPE svg PUBLIC "-//W3C//DTD SVG 1.1//EN" "http://www.w3.org/Graphics/SVG/1.1/DTD/svg11.dtd">
<svg version="1.1" id="Ebene_1" xmlns="http://www.w3.org/2000/svg" xmlns:xlink="http://www.w3.org/1999/xlink" x="0px" y="0px"
	 width="32px" height="32px" viewBox="0 0 32 32" enable-background="new 0 0 32 32" xml:space="preserve">
<g>
	<path fill="#62686A" d="M2.122,18.195c-0.991-1.207-1.486-2.676-1.486-4.407h2.44c0.104,1.203,0.329,2.077,0.675,2.622
		c0.605,0.978,1.7,1.467,3.284,1.467c1.229,0,2.215-0.329,2.959-0.987c0.744-0.657,1.116-1.505,1.116-2.544
		c0-1.28-0.392-2.176-1.174-2.687c-0.784-0.511-1.872-0.766-3.265-0.766c-0.156,0-0.314,0.002-0.474,0.007
		c-0.161,0.004-0.323,0.011-0.487,0.019V8.856C5.954,8.882,6.157,8.9,6.321,8.908c0.165,0.009,0.342,0.013,0.532,0.013
		c0.874,0,1.592-0.139,2.155-0.416c0.986-0.484,1.479-1.35,1.479-2.596c0-0.926-0.329-1.64-0.986-2.142S8.078,3.015,7.204,3.015
		c-1.558,0-2.635,0.52-3.232,1.558c-0.329,0.571-0.515,1.385-0.558,2.44h-2.31c0-1.384,0.277-2.562,0.831-3.531
		c0.952-1.73,2.626-2.596,5.023-2.596c1.895,0,3.362,0.421,4.4,1.265c1.039,0.844,1.558,2.066,1.558,3.667
		c0,1.143-0.307,2.068-0.921,2.778c-0.381,0.441-0.874,0.788-1.48,1.039c0.978,0.268,1.742,0.785,2.291,1.551
		c0.55,0.766,0.824,1.703,0.824,2.811c0,1.774-0.584,3.219-1.752,4.335c-1.168,1.116-2.826,1.674-4.972,1.674
		C4.708,20.006,3.113,19.402,2.122,18.195z"/>
</g>
<path fill="#62686A" d="M19.583,19.973h2.834V1.001h-2.409c-0.078,1.416-1.006,3.287-4.492,3.287H15v2.254h4.583V19.973z"/>
<path fill="#62686A" d="M26.001,1.001h-0.664H25h-0.771V4.02h0.956c1.569,0.097,2.815,1.387,2.815,2.981V25c0,1.657-1.343,3-3,3H7
	c-1.656,0-3-1.343-3-3v-3H1v4c0,2.762,2.238,5,5,5h20.001c2.761,0,5-2.238,5-5V6.001C31.001,3.239,28.762,1.001,26.001,1.001z"/>
</svg>
