<?xml version="1.0" encoding="utf-8"?>
<!-- Generator: Adobe Illustrator 15.0.0, SVG Export Plug-In . SVG Version: 6.00 Build 0)  -->
<!DOCTYPE svg PUBLIC "-//W3C//DTD SVG 1.1//EN" "http://www.w3.org/Graphics/SVG/1.1/DTD/svg11.dtd">
<svg version="1.1" id="Ebene_1" xmlns="http://www.w3.org/2000/svg" xmlns:xlink="http://www.w3.org/1999/xlink" x="0px" y="0px"
	 width="32px" height="32px" viewBox="0 0 32 32" enable-background="new 0 0 32 32" xml:space="preserve">
<g>
	<path fill="#FFFFFF" d="M16,30.918c-5.618,0-10.189-4.963-10.189-11.062v-7.792C5.811,5.963,10.381,1,16,1
		c5.618,0,10.188,4.963,10.188,11.064v7.792C26.188,25.955,21.617,30.918,16,30.918z"/>
	<path fill="#62686A" d="M16,2c5.066,0,9.188,4.515,9.188,10.064v7.792c0,5.549-4.122,10.062-9.188,10.062
		c-5.067,0-9.189-4.514-9.189-10.062v-7.792C6.811,6.515,10.933,2,16,2 M16,0C9.819,0,4.811,5.402,4.811,12.064v7.792
		c0,6.662,5.009,12.062,11.189,12.062c6.178,0,11.188-5.4,11.188-12.062v-7.792C27.188,5.402,22.178,0,16,0L16,0z"/>
</g>
<path fill="#62686A" d="M12.157,17.834l3.844-6.344l3.842,6.344H12.157z"/>
<path fill="#62686A" d="M19.843,21.49l-3.842,6.344l-3.844-6.344H19.843z"/>
<path fill="#62686A" d="M17.352,6.635c0,0.984-0.604,1.782-1.352,1.782l0,0c-0.747,0-1.352-0.798-1.352-1.782V4.237
	c0-0.984,0.605-1.782,1.352-1.782l0,0c0.746,0,1.352,0.798,1.352,1.782V6.635z"/>
</svg>
