<?xml version="1.0" encoding="UTF-8"?>
<svg version="1.1" width="32" height="32" viewBox="0 0 32 32" xmlns="http://www.w3.org/2000/svg">
 <path d="M5.43.001a.51.51 0 0 0-.33.084c-.835.574-.48 4.29-.104 5.932.376 1.643 5.481 7.584 9.178 11.02l-2.356 3.233c-.953.953-3.258 1.095-4.234 1.531-3.96 1.77-4.786 4.86-4.092 7.215.435 1.475 1.656 2.315 3.002 2.717.582.174 1.19.503 3.002 0 1.112-.309 2.152-.64 2.994-1.533 1.64-1.739 1.9-3.477 1.801-5.002-.084-1.294-.578-2.982-.04-3.688L16 19.22l1.748 2.29c.538.706.045 2.394-.04 3.688-.098 1.525.162 3.263 1.802 5.002.842.892 1.882 1.224 2.994 1.533 1.812.503 2.42.174 3.002 0 1.346-.402 2.567-1.242 3.002-2.717.694-2.354-.131-5.445-4.092-7.215-.976-.436-3.281-.578-4.235-1.531l-2.355-3.233c3.696-3.435 8.802-9.376 9.178-11.02.375-1.643.731-5.358-.104-5.932-.504-.346-1.483.387-2.387 1.782L16 15.006 7.486 1.866C6.752.734 5.968.038 5.43.002zm3.31 23.563c.187-.01.375 0 .567.033 1.496.229 2.798.717 2.824 3.075.016 1.424-1.642 3.32-3.707 3.32s-3.38-1.213-3.178-3.035c.182-1.652 1.693-3.326 3.494-3.393zm14.332 0c1.883-.047 3.493 1.684 3.682 3.393.201 1.822-1.113 3.035-3.178 3.035s-3.723-1.895-3.707-3.32c.026-2.358 1.328-2.846 2.824-3.074.128-.02.254-.03.38-.033z" fill="#62686a"/>
</svg>
