<?xml version="1.0" encoding="utf-8"?>
<!-- Generator: Adobe Illustrator 15.0.0, SVG Export Plug-In . SVG Version: 6.00 Build 0)  -->
<!DOCTYPE svg PUBLIC "-//W3C//DTD SVG 1.1//EN" "http://www.w3.org/Graphics/SVG/1.1/DTD/svg11.dtd">
<svg version="1.1" id="Ebene_1" xmlns="http://www.w3.org/2000/svg" xmlns:xlink="http://www.w3.org/1999/xlink" x="0px" y="0px"
	 width="32px" height="32px" viewBox="0 0 32 32" enable-background="new 0 0 32 32" xml:space="preserve">
<g>
	<path fill="#696969" d="M12.9,26.871h-1.885c-3.239,0-5.875-2.422-5.875-5.399V10.529c0-2.978,2.636-5.4,5.875-5.4H12.9v-5h-1.885
		c-6.006,0-10.875,4.656-10.875,10.4v10.942c0,5.742,4.869,10.399,10.875,10.399H12.9V26.871z"/>
	<path fill="#696969" d="M20.986,0.129H19.1v5h1.887c3.238,0,5.873,2.423,5.873,5.4v10.942c0,2.978-2.635,5.399-5.873,5.399H19.1v5
		h1.887c6.004,0,10.873-4.657,10.873-10.399V10.529C31.859,4.785,26.99,0.129,20.986,0.129z"/>
</g>
</svg>
