<?xml version="1.0" encoding="UTF-8"?>
<svg version="1.1" width="32" height="32" viewBox="0 0 32 32" xmlns="http://www.w3.org/2000/svg">
 <path d="M12.872 26.961h-1.901c-3.268 0-5.927-2.442-5.927-5.443V10.485c0-3.002 2.66-5.444 5.927-5.444h1.901V0h-1.901C4.91 0 0 4.694 0 10.485v11.032c0 5.79 4.912 10.484 10.97 10.484h1.902zM21.03 0h-1.903v5.041h1.903c3.267 0 5.925 2.443 5.925 5.444v11.032c0 3.002-2.658 5.443-5.925 5.443h-1.903v5.041h1.903c6.057 0 10.97-4.695 10.97-10.484V10.485C31.997 4.695 27.085 0 21.03 0z" fill="#62686a"/>
</svg>
