<?xml version="1.0" encoding="utf-8"?>
<!-- Generator: Adobe Illustrator 15.0.0, SVG Export Plug-In . SVG Version: 6.00 Build 0)  -->
<!DOCTYPE svg PUBLIC "-//W3C//DTD SVG 1.1//EN" "http://www.w3.org/Graphics/SVG/1.1/DTD/svg11.dtd">
<?xml-stylesheet type="text/css" href="../less/svg.css" ?>
<svg version="1.1" id="pixelegg_new_leaf" xmlns="http://www.w3.org/2000/svg" xmlns:xlink="http://www.w3.org/1999/xlink" x="0px" y="0px"
	 width="32px" height="32px" viewBox="0 0 32 32" enable-background="new 0 0 32 32" xml:space="preserve">
<g>
	<g>
		<path fill="#696969" d="M24,18.684c-3.309,0-5.992,2.684-5.992,5.992
			s2.684,5.991,5.992,5.991s5.99-2.683,5.99-5.991S27.309,18.684,24,18.684z M28,25.676h-3v3h-2v-3h-3v-2h3v-3h2v3h3V25.676z
			 M25,7.701l-5.324-5.025H19v6h6V7.701z M24,16.676c0.34,0,0.672,0.028,1,0.069v-6.069h-8v-8H3v27h14.76
			c-1.1-1.37-1.76-3.106-1.76-5C16,20.258,19.582,16.676,24,16.676z"/>
	</g>
</g>
</svg>
