<?xml version="1.0" encoding="utf-8"?>
<!-- Generator: Adobe Illustrator 15.0.0, SVG Export Plug-In . SVG Version: 6.00 Build 0)  -->
<!DOCTYPE svg PUBLIC "-//W3C//DTD SVG 1.1//EN" "http://www.w3.org/Graphics/SVG/1.1/DTD/svg11.dtd">
<svg version="1.1" id="Ebene_1" xmlns="http://www.w3.org/2000/svg" xmlns:xlink="http://www.w3.org/1999/xlink" x="0px" y="0px"
	 width="32px" height="32px" viewBox="0 0 32 32" enable-background="new 0 0 32 32" xml:space="preserve">
<g id="XMLID_3_">
	<g>
	</g>
	<g>
	</g>
</g>
<path fill="#62686A" d="M11.544,28.35c0.358,2.05,1.646,3.165,3.557,3.67l1.331,0.008c1.904-0.469,3.164-1.585,3.574-3.558
	C17.36,28.265,14.336,28.421,11.544,28.35z"/>
<circle fill="#62686A" cx="24.238" cy="8.429" r="4.231"/>
<path fill="#62686A" d="M29.682,23.959c-3.243-1.321-4.567-5.369-5.295-9.297c-0.024-0.122-0.041-0.25-0.062-0.373
	c-2.528,0.038-4.887-1.57-5.681-4.105c-0.937-2.984,0.642-6.153,3.537-7.238C21.059,1.491,19.425,0.463,17.507,0l0.001-0.025
	l-0.085,0.002l-2.816-0.003c-3.353,0.825-5.72,3.02-6.235,6.542c-0.172,1.184-0.137,2.438-0.249,3.902
	C7.95,12.856,7.57,15.296,6.874,17.55c-0.883,2.84-1.883,5.414-4.567,6.3c0.001,0.891-0.002,1.782-0.002,2.658
	c8.925,0.129,18.218-0.019,27.29,0.109C29.789,25.885,29.633,24.823,29.682,23.959z"/>
</svg>
