<?xml version="1.0" encoding="UTF-8"?>
<svg version="1.1" width="32" height="32" viewBox="0 0 32 32" xmlns="http://www.w3.org/2000/svg">
 <path d="M6 0C2.71 0 0 2.71 0 6v20c0 3.29 2.71 6 6 6h20c3.29 0 6-2.71 6-6V6c0-3.29-2.71-6-6-6zm1 3h18a4 4 0 0 1 4 4v18a4 4 0 0 1-4 4H7a4 4 0 0 1-4-4V7a4 4 0 0 1 4-4zm9 2c-3.777 0-7 3.691-7 7h5c0-1.692 1.444-2 2-2 .562 0 2 .237 2 2 0 2.63-3.474 3-5 3v5h5v-2c2.373-.91 5-1.92 5-6 0-3.976-2.894-7-7-7zm-.5 16.5a3 3 0 0 0-3 3 3 3 0 0 0 3 3 3 3 0 0 0 3-3 3 3 0 0 0-3-3z" fill="#62686a"/>
</svg>
