<?xml version="1.0" encoding="UTF-8"?>
<svg version="1.1" width="32" height="32" viewBox="0 0 32 32" xmlns="http://www.w3.org/2000/svg">
 <path d="m.717 25.315 4.941-4.957c.985-.983 2.615-.952 3.634.068l2.49 2.498c.157-.09.318-.18.491-.275 1.572-.876 3.723-2.07 5.988-4.344 2.27-2.277 3.467-4.438 4.341-6.016l.268-.481-1.671-1.674-.822-.824c-1.02-1.022-1.048-2.657-.066-3.643L25.253.71c.983-.984 2.613-.955 3.633.07l1.393 1.404-.038.039a8.03 8.03 0 0 1 1.147 2.03 8.35 8.35 0 0 1 .511 2.058c.652 5.425-1.82 10.382-8.529 17.111-9.274 9.298-16.748 8.595-17.07 8.56a8.289 8.289 0 0 1-2.06-.516 8.058 8.058 0 0 1-2.016-1.146l-.03.027-1.412-1.388c-1.018-1.024-1.046-2.656-.065-3.645z" fill="#62686a"/>
</svg>
