<?xml version="1.0" encoding="UTF-8"?>
<svg version="1.1" width="32" height="32" viewBox="0 0 32 32" xmlns="http://www.w3.org/2000/svg">
 <path d="M6 0C2.71 0 0 2.71 0 6v20c0 3.29 2.71 6 6 6h20c3.29 0 6-2.71 6-6V6c0-3.29-2.71-6-6-6zm1 3h18a4 4 0 0 1 4 4v18a4 4 0 0 1-4 4H7a4 4 0 0 1-4-4V7a4 4 0 0 1 4-4zm10.839 9.64c.05.303 0 1.176 0 1.494 0 .237-.08.544-.223.88.603.415 1.31.696 2.11.696 1.163 0 2.138-.585 2.87-1.327a30.172 30.172 0 0 0 2.719-.415c-.444-.417-.89-1.205-1.276-2.048.021-.102.034-.196.034-.274 0-.248.04-.928 0-1.163C23.727 8.49 21.831 7 19.726 7c-1.705 0-3.247.936-3.963 2.347 1.066.805 1.845 1.956 2.076 3.293zm-1.415 4.113a6.29 6.29 0 0 1-2.08 1.436c2.668.38 4.916 1.32 4.916 1.32l1.019 2.587h6.898l-1.863-4.645s-2.822-1.162-5.588-1.162c-1.11 0-2.304.218-3.302.464zm3.303 7.665-1.864-4.645s-2.822-1.161-5.588-1.161c-2.57 0-5.588 1.161-5.588 1.161l-1.864 4.645s3.71.582 7.452.582c3.708 0 7.452-.582 7.452-.582zm-7.452-6.967c2.66 0 4.346-2.489 4.346-3.484 0-.247.042-.927 0-1.162-.345-1.994-2.242-3.483-4.346-3.483-2.133 0-4.035 1.45-4.347 3.483-.032.21 0 .942 0 1.162 0 .996 1.685 3.484 4.347 3.484z" fill="#62686a"/>
</svg>
