<?xml version="1.0" encoding="utf-8"?>
<!-- Generator: Adobe Illustrator 15.0.0, SVG Export Plug-In . SVG Version: 6.00 Build 0)  -->
<!DOCTYPE svg PUBLIC "-//W3C//DTD SVG 1.1//EN" "http://www.w3.org/Graphics/SVG/1.1/DTD/svg11.dtd">
<svg version="1.1" id="Ebene_1" xmlns="http://www.w3.org/2000/svg" xmlns:xlink="http://www.w3.org/1999/xlink" x="0px" y="0px"
	 width="32px" height="32px" viewBox="0 0 32 32" enable-background="new 0 0 32 32" xml:space="preserve">
<path fill="#62686A" d="M22.438,16.007c0,0.52-0.523,0.939-1.169,0.939H10.481c-0.646,0-1.169-0.42-1.169-0.939l0,0
	c0-0.519,0.523-0.938,1.169-0.938h10.787C21.914,15.068,22.438,15.488,22.438,16.007L22.438,16.007z"/>
<path fill="#62686A" d="M22.438,19.382c0,0.518-0.523,0.939-1.169,0.939H10.481c-0.646,0-1.169-0.422-1.169-0.939l0,0
	c0-0.52,0.523-0.939,1.169-0.939h10.787C21.914,18.442,22.438,18.862,22.438,19.382L22.438,19.382z"/>
<path fill="#62686A" d="M22.438,22.756c0,0.519-0.523,0.939-1.169,0.939H10.481c-0.646,0-1.169-0.421-1.169-0.939l0,0
	c0-0.519,0.523-0.939,1.169-0.939h10.787C21.914,21.816,22.438,22.237,22.438,22.756L22.438,22.756z"/>
<path fill="#62686A" d="M22.438,26.13c0,0.519-0.523,0.939-1.169,0.939H10.481c-0.646,0-1.169-0.421-1.169-0.939l0,0
	c0-0.519,0.523-0.938,1.169-0.938h10.787C21.914,25.191,22.438,25.611,22.438,26.13L22.438,26.13z"/>
<g>
	<g>
		<polygon fill="#62686A" points="19.375,0.443 19.375,7.5 26.473,7.5 		"/>
	</g>
	<g>
		<path fill="#62686A" d="M20.645,2L25,6.355v23.332H6.75V2H20.645 M21.473,0H4.75v31.688H27V5.527L21.473,0L21.473,0z"/>
	</g>
</g>
</svg>
