<?xml version="1.0" encoding="UTF-8"?>
<svg version="1.1" width="32" height="32" viewBox="0 0 32 32" xmlns="http://www.w3.org/2000/svg">
 <path d="M22.628 16.165c0 .525-.528.948-1.18.948H10.554c-.653 0-1.181-.424-1.181-.948s.528-.947 1.18-.947h10.894c.652-.001 1.181.423 1.181.947zm0 3.408c0 .523-.528.948-1.18.948H10.554c-.653 0-1.181-.426-1.181-.948 0-.525.528-.948 1.18-.948h10.894c.652-.001 1.181.423 1.181.948zm0 3.407c0 .524-.528.948-1.18.948H10.554c-.653 0-1.181-.425-1.181-.948 0-.524.528-.948 1.18-.948h10.894c.652-.001 1.181.424 1.181.948zm0 3.407c0 .524-.528.948-1.18.948H10.554c-.653 0-1.181-.425-1.181-.948 0-.524.528-.947 1.18-.947h10.894c.652-.001 1.181.423 1.181.947z" fill="#62686a"/><g fill="#62686a"><path d="M19.534.447v7.126H26.7z"/><path d="m20.816 2.02 4.398 4.397v23.56H6.784V2.02h14.032M21.652 0H4.765v31.999h22.468V5.58z"/></g>
</svg>
