<?xml version="1.0" encoding="utf-8"?>
<!-- Generator: Adobe Illustrator 15.0.0, SVG Export Plug-In . SVG Version: 6.00 Build 0)  -->
<!DOCTYPE svg PUBLIC "-//W3C//DTD SVG 1.1//EN" "http://www.w3.org/Graphics/SVG/1.1/DTD/svg11.dtd">
<?xml-stylesheet type="text/css" href="../less/svg.css" ?>
<svg version="1.1" id="pixelegg_preferences" xmlns="http://www.w3.org/2000/svg" xmlns:xlink="http://www.w3.org/1999/xlink" x="0px" y="0px"
	 width="32px" height="32px" viewBox="0 0 32 32" enable-background="new 0 0 32 32" xml:space="preserve">
<g>
	<g>
		<path fill="#696969" d="M17.7,7.779l1.106,0.297c0.006,0.391,0.052,0.775,0.142,1.146
			l-1.029,0.595c-0.454,0.263-0.609,0.843-0.348,1.298l0.475,0.822c0.263,0.455,0.844,0.611,1.299,0.349l1.011-0.585
			c0.293,0.289,0.622,0.544,0.982,0.759l-0.296,1.107c-0.136,0.504,0.164,1.022,0.668,1.157l0.912,0.244
			c0.505,0.136,1.023-0.164,1.158-0.668l0.297-1.106c0.404-0.006,0.803-0.057,1.188-0.153l0.567,0.983
			c0.264,0.454,0.844,0.61,1.299,0.349l0.822-0.476c0.455-0.263,0.61-0.844,0.348-1.298l-0.568-0.984
			c0.277-0.285,0.521-0.604,0.728-0.952l1.107,0.296c0.504,0.136,1.022-0.164,1.157-0.668l0.244-0.913
			c0.136-0.504-0.164-1.022-0.668-1.157l-1.106-0.297c-0.007-0.42-0.062-0.832-0.166-1.229l1.012-0.584
			c0.454-0.262,0.61-0.843,0.348-1.297l-0.476-0.823c-0.262-0.454-0.843-0.61-1.297-0.348l-1.029,0.594
			c-0.277-0.264-0.588-0.496-0.924-0.696l0.297-1.107c0.135-0.504-0.164-1.022-0.668-1.157L25.379,1.03
			c-0.504-0.135-1.022,0.165-1.157,0.668l-0.297,1.107c-0.404,0.006-0.804,0.057-1.188,0.154l-0.61-1.057
			c-0.262-0.455-0.844-0.61-1.298-0.348L20.006,2.03c-0.454,0.262-0.61,0.843-0.349,1.298l0.611,1.057
			c-0.277,0.285-0.521,0.604-0.729,0.952L18.434,5.04c-0.504-0.135-1.022,0.164-1.157,0.668l-0.245,0.913
			C16.896,7.125,17.196,7.644,17.7,7.779z M20.349,7.021c0.541-2.017,2.613-3.214,4.631-2.673c2.017,0.541,3.213,2.613,2.674,4.63
			c-0.541,2.017-2.614,3.213-4.631,2.673S19.809,9.038,20.349,7.021z M23.267,10.738c1.514,0.406,3.068-0.492,3.473-2.004
			c0.406-1.514-0.492-3.068-2.004-3.473c-1.514-0.405-3.068,0.492-3.473,2.004C20.856,8.779,21.755,10.333,23.267,10.738z
			 M23.088,7.755c0.136-0.505,0.653-0.804,1.157-0.669c0.505,0.136,0.804,0.653,0.669,1.157c-0.136,0.505-0.653,0.804-1.157,0.669
			C23.252,8.777,22.953,8.259,23.088,7.755z M18.954,25.227c0.721,0.193,1.461-0.234,1.653-0.953l0.35-1.305
			c0.193-0.721-0.234-1.461-0.954-1.654l-1.582-0.424c-0.008-0.6-0.088-1.188-0.236-1.756l1.445-0.836
			c0.648-0.373,0.871-1.203,0.496-1.853l-0.678-1.176c-0.375-0.649-1.205-0.872-1.854-0.497l-1.47,0.85
			c-0.396-0.378-0.84-0.709-1.318-0.995l0.423-1.581c0.193-0.721-0.234-1.461-0.954-1.654l-1.305-0.349
			c-0.721-0.193-1.461,0.234-1.654,0.954l-0.424,1.582c-0.578,0.008-1.147,0.08-1.697,0.219L8.323,12.29
			c-0.375-0.649-1.205-0.872-1.854-0.497l-1.175,0.679c-0.65,0.374-0.872,1.205-0.498,1.854l0.872,1.509
			c-0.396,0.407-0.743,0.865-1.039,1.361l-1.581-0.424c-0.72-0.193-1.461,0.234-1.654,0.955l-0.35,1.305
			c-0.193,0.721,0.235,1.461,0.955,1.652l1.582,0.424c0.008,0.559,0.073,1.107,0.202,1.641l-1.47,0.848
			c-0.649,0.375-0.872,1.205-0.497,1.854l0.679,1.176c0.375,0.65,1.205,0.873,1.854,0.498l1.445-0.836
			c0.418,0.414,0.888,0.777,1.402,1.084l-0.424,1.582c-0.192,0.721,0.235,1.461,0.955,1.652l1.305,0.35
			c0.721,0.193,1.461-0.234,1.653-0.953l0.424-1.582c0.579-0.008,1.147-0.08,1.698-0.219l0.812,1.404
			c0.374,0.65,1.204,0.873,1.854,0.498l1.175-0.68c0.649-0.375,0.872-1.205,0.497-1.854l-0.812-1.406
			c0.396-0.406,0.742-0.863,1.038-1.359L18.954,25.227z M16.218,22.396c-0.771,2.883-3.734,4.592-6.615,3.82
			s-4.591-3.734-3.818-6.615c0.771-2.881,3.733-4.591,6.614-3.819C15.28,16.555,16.989,19.516,16.218,22.396z M12.05,17.088
			c-2.161-0.58-4.383,0.703-4.961,2.863c-0.58,2.16,0.703,4.383,2.863,4.961c2.161,0.578,4.383-0.703,4.961-2.863
			C15.493,19.887,14.21,17.666,12.05,17.088z M12.306,21.35c-0.193,0.721-0.934,1.146-1.654,0.955
			c-0.721-0.193-1.147-0.934-0.955-1.654c0.193-0.721,0.934-1.148,1.654-0.955S12.498,20.629,12.306,21.35z M4.001,8.172
			c0-2.305,1.869-4.174,4.174-4.174h8.826v-3h-10c-3.313,0-6,2.687-6,6V14h3V8.172z M28.001,16v7.827
			c0,2.305-1.869,4.174-4.174,4.174h-4.826l-0.084,3h6.084c3.313,0,6-2.688,6-6v-8.918L28.001,16z"/>
	</g>
</g>
</svg>
