<?xml version="1.0" encoding="utf-8"?>
<!-- Generator: Adobe Illustrator 15.0.0, SVG Export Plug-In . SVG Version: 6.00 Build 0)  -->
<!DOCTYPE svg PUBLIC "-//W3C//DTD SVG 1.1//EN" "http://www.w3.org/Graphics/SVG/1.1/DTD/svg11.dtd">
<svg version="1.1" id="Ebene_1" xmlns="http://www.w3.org/2000/svg" xmlns:xlink="http://www.w3.org/1999/xlink" x="0px" y="0px"
	 width="32px" height="32px" viewBox="0 0 32 32" enable-background="new 0 0 32 32" xml:space="preserve">
<g>
	<g>
		<path fill="#62686A" d="M4.041,19.775l6.342,8.341c1.828,1.829,4.792,1.832,6.616,0.008l1.676-1.678l-0.011-2.976h5.191
			c2.669,0,4.833-2.167,4.833-4.84v-4.322c0-2.673-2.164-4.84-4.833-4.84h-5.24l-0.011-2.973l-1.643-1.645
			c-1.83-1.826-4.792-1.832-6.615-0.007l-6.312,8.312C2.209,14.984,2.211,17.946,4.041,19.775z M6.681,14.486l4.991-6.992
			C12.767,6.4,14.545,6.4,15.642,7.5l0.008,4.874h7.239c1.602,0,2.899,1.3,2.899,2.901v2.389c0,1.604-1.299,2.903-2.899,2.903
			h-7.225l0.008,4.908c-1.095,1.096-2.871,1.094-3.968-0.005l-5.019-7.017C5.586,17.358,5.584,15.58,6.681,14.486z"/>
	</g>
</g>
</svg>
