<?xml version="1.0" encoding="utf-8"?>
<!-- Generator: Adobe Illustrator 15.0.0, SVG Export Plug-In . SVG Version: 6.00 Build 0)  -->
<!DOCTYPE svg PUBLIC "-//W3C//DTD SVG 1.1//EN" "http://www.w3.org/Graphics/SVG/1.1/DTD/svg11.dtd">
<?xml-stylesheet type="text/css" href="../less/svg.css" ?>
<svg version="1.1" id="pixelegg_projectmanager" xmlns="http://www.w3.org/2000/svg" xmlns:xlink="http://www.w3.org/1999/xlink" x="0px" y="0px"
	 width="32px" height="32px" viewBox="0 0 32 32" enable-background="new 0 0 32 32" xml:space="preserve">
<g>
	<g>
		<path fill="#696969" d="M3.75,6l2-2V3l-4,1v24l4,1v-1l-2-2V6z M23.75,10V9
			c0-1.104-0.896-2-2-2h-14c-1.104,0-2,0.896-2,2v1c0,1.104,0.896,2,2,2h14C22.854,12,23.75,11.104,23.75,10z M28.75,15h-8
			c-1.104,0-2,0.896-2,2s0.896,2,2,2h8c1.104,0,2-0.896,2-2S29.854,15,28.75,15z M18.75,22h-6c-1.104,0-2,0.896-2,2s0.896,2,2,2h6
			c1.104,0,2-0.896,2-2S19.854,22,18.75,22z"/>
	</g>
</g>
</svg>
