<?xml version="1.0" encoding="utf-8"?>
<!-- Generator: Adobe Illustrator 15.0.0, SVG Export Plug-In . SVG Version: 6.00 Build 0)  -->
<!DOCTYPE svg PUBLIC "-//W3C//DTD SVG 1.1//EN" "http://www.w3.org/Graphics/SVG/1.1/DTD/svg11.dtd">
<svg version="1.1" id="Ebene_1" xmlns="http://www.w3.org/2000/svg" xmlns:xlink="http://www.w3.org/1999/xlink" x="0px" y="0px"
	 width="32px" height="32px" viewBox="0 0 32 32" enable-background="new 0 0 32 32" xml:space="preserve">
<path fill="#62686A" d="M23.09,16.892c4.918,0,8.91-3.781,8.91-8.447C32,3.78,28.01,0,23.09,0c-4.922,0-8.911,3.781-8.911,8.445
	C14.179,13.109,18.168,16.892,23.09,16.892z"/>
<path fill="#FEFEFE" d="M21.594,9.684c3.604-0.257,5.827,1.414,7.72,3.285c-0.14-4.591-4.031-8.087-7.865-8.003l-0.07-2.314
	l-5.27,4.857l5.556,4.507L21.594,9.684z"/>
<ellipse fill="#A5A5A5" cx="-103.75" cy="21.812" rx="0.125" ry="1.312"/>
<path fill="#62686A" d="M25.072,17.767V26.4c0,1.238-0.935,2.241-2.09,2.241c-1.153,0-2.091-1.003-2.091-2.241v-8.683
	c-1.129-0.239-2.183-0.661-3.132-1.227v9.91c0,1.238-0.937,2.241-2.091,2.241S13.58,27.639,13.58,26.4V12.962
	c0-0.346,0.08-0.67,0.21-0.963c-0.468-1.099-0.731-2.296-0.731-3.554c0-1.17,0.234-2.287,0.642-3.322H9.952
	c0.256-1.577,2.614-2.819,5.571-2.907c0.708-0.772,1.545-1.432,2.48-1.955c-0.689-0.107-1.408-0.17-2.153-0.17
	c-4.658,0-8.445,2.238-8.618,5.033H2.089C0.935,5.123,0,6.124,0,7.363c0,1.234,0.935,2.238,2.089,2.238h1.044V32h25.073V16.612
	C27.251,17.152,26.198,17.553,25.072,17.767z M10.446,26.4c0,1.238-0.936,2.241-2.087,2.241c-1.156,0-2.091-1.003-2.091-2.241
	V12.962c0-1.237,0.935-2.242,2.091-2.242c1.152,0,2.087,1.004,2.087,2.242V26.4z"/>
</svg>
