<?xml version="1.0" encoding="utf-8"?>
<!-- Generator: Adobe Illustrator 15.0.0, SVG Export Plug-In . SVG Version: 6.00 Build 0)  -->
<!DOCTYPE svg PUBLIC "-//W3C//DTD SVG 1.1//EN" "http://www.w3.org/Graphics/SVG/1.1/DTD/svg11.dtd">
<?xml-stylesheet type="text/css" href="../less/svg.css" ?>
<svg version="1.1" id="pixelegg_save_new" xmlns="http://www.w3.org/2000/svg" xmlns:xlink="http://www.w3.org/1999/xlink" x="0px" y="0px"
	 width="32px" height="32px" viewBox="0 0 32 32" enable-background="new 0 0 32 32" xml:space="preserve">
<g>
	<g>
		<path fill="#696969" d="M9.315,26.748h13.092v-1.062H9.315V26.748z M22.407,22.496H9.315
			v1.064h13.092V22.496z M23.039,16.84c4.611,0,8.354-3.545,8.354-7.919c0-4.373-3.74-7.917-8.354-7.917s-8.353,3.545-8.353,7.917
			C14.686,13.294,18.426,16.84,23.039,16.84z M21.405,2.968l2.951,0.08l0.116,4.424l4.426,0.118l0.077,2.949l-4.422-0.118
			l0.117,4.423l-2.948-0.079l-0.119-4.425l-4.423-0.117l-0.079-2.951l4.424,0.12L21.405,2.968z M26.771,20.371v8.502H4.951v-8.502
			c0-1.762,1.465-3.189,3.273-3.189h7.866c-2.067-1.563-3.529-3.808-4.017-6.375H8.224v-7.44h5.339
			c0.512-0.783,1.125-1.497,1.829-2.125H1.678V31h28.367V17.143c-1.061,0.812-2.279,1.445-3.607,1.849
			C26.646,19.41,26.771,19.873,26.771,20.371z M22.407,19.463c-0.479-0.025-0.952-0.074-1.414-0.154H9.315v1.062h13.092V19.463z"/>
	</g>
</g>
</svg>
