<?xml version="1.0" encoding="utf-8"?>
<!-- Generator: Adobe Illustrator 15.0.0, SVG Export Plug-In . SVG Version: 6.00 Build 0)  -->
<!DOCTYPE svg PUBLIC "-//W3C//DTD SVG 1.1//EN" "http://www.w3.org/Graphics/SVG/1.1/DTD/svg11.dtd">
<svg version="1.1" id="pixelegg_save_zip" xmlns="http://www.w3.org/2000/svg" xmlns:xlink="http://www.w3.org/1999/xlink" x="0px"
	 y="0px" width="28.348px" height="28.348px" viewBox="0 0 28.348 28.348" enable-background="new 0 0 28.348 28.348"
	 xml:space="preserve">
<g>
	<g>
		<defs>
			<rect id="SVGID_1_" x="0.042" y="0.046" width="28.263" height="28.255"/>
		</defs>
		<clipPath id="SVGID_2_">
			<use xlink:href="#SVGID_1_"  overflow="visible"/>
		</clipPath>
		<path clip-path="url(#SVGID_2_)" fill="#ECECED" d="M15.108,17.001"/>
	</g>
</g>
<polygon fill="#62686A" points="0.761,0.045 0.761,1.641 6.409,1.641 0.042,7.753 0.042,9.471 9.89,9.471 9.89,7.882 2.994,7.882 
	9.634,1.524 9.634,0.045 "/>
<rect x="12.8" y="0.045" fill="#62686A" width="2.447" height="9.425"/>
<rect x="0.042" y="0.046" fill="none" width="28.263" height="28.255"/>
<path fill="#62686A" d="M21.466,9.471V5.915h1.597c1.106,0,1.954-0.045,2.539-0.136c0.43-0.071,0.854-0.221,1.27-0.445
	c0.415-0.227,0.758-0.535,1.028-0.93c0.27-0.396,0.405-0.881,0.405-1.46c0-0.75-0.234-1.361-0.702-1.835
	c-0.471-0.475-1.051-0.781-1.745-0.923c-0.452-0.095-1.422-0.142-2.91-0.142h-3.928v9.425h2.446V9.471z M22.648,1.64
	c0.882,0,1.469,0.021,1.761,0.063c0.396,0.056,0.725,0.194,0.984,0.418c0.259,0.223,0.389,0.506,0.389,0.85
	c0,0.278-0.093,0.522-0.277,0.732c-0.184,0.21-0.438,0.363-0.765,0.463c-0.325,0.099-0.97,0.146-1.935,0.146h-1.341V1.64H22.648z"/>
<rect x="0.042" y="0.046" fill="none" width="28.263" height="28.255"/>
<path fill="#62686A" d="M18.12,15.763c-6.784,0.249-10.867-2.85-14.315-6.295c0,8.187,7.109,14.635,14.315,14.707v4.125
	l10.177-8.348L18.12,11.605V15.763z"/>
</svg>
