<svg width="32" height="32" xmlns="http://www.w3.org/2000/svg">

 <g>
  <title>background</title>
  <rect fill="none" id="canvas_background" height="402" width="582" y="-1" x="-1"/>
 </g>
 <g>
  <title>Layer 1</title>
  <path id="svg_2" d="m30.695,26.655l-4.929,-4.613c-0.037,-0.034 -0.081,-0.05 -0.121,-0.078l-1.991,-1.861c1.366,-2.06 2.132,-4.547 2.044,-7.207c-0.225,-6.808 -5.926,-12.144 -12.732,-11.919c-6.808,0.226 -12.144,5.926 -11.919,12.735c0.225,6.807 5.926,12.143 12.734,11.918c2.117,-0.071 4.084,-0.678 5.792,-1.678l2.349,2.199c0.002,0 0.002,0.001 0.002,0.001l4.929,4.616c0.453,0.421 1.166,0.397 1.592,-0.053l2.305,-2.468c0.423,-0.454 0.4,-1.167 -0.055,-1.592zm-17.081,-3.829c-5.258,0.175 -9.661,-3.946 -9.836,-9.205c-0.173,-5.258 3.948,-9.662 9.207,-9.835c5.257,-0.174 9.662,3.947 9.836,9.206c0.173,5.258 -3.948,9.66 -9.207,9.834z" fill="#62686A"/>
  <line id="svg_3" y2="54.75" x2="14.958" y1="29.125" x1="14.958" fill="none"/>
 </g>
</svg>