<?xml version="1.0" encoding="utf-8"?>
<!-- Generator: Adobe Illustrator 15.0.0, SVG Export Plug-In . SVG Version: 6.00 Build 0)  -->
<!DOCTYPE svg PUBLIC "-//W3C//DTD SVG 1.1//EN" "http://www.w3.org/Graphics/SVG/1.1/DTD/svg11.dtd">
<?xml-stylesheet type="text/css" href="../less/svg.css" ?>
<svg version="1.1" id="pixelegg_setup" xmlns="http://www.w3.org/2000/svg" xmlns:xlink="http://www.w3.org/1999/xlink" x="0px" y="0px"
	 width="32px" height="32px" viewBox="0 0 32 32" enable-background="new 0 0 32 32" xml:space="preserve">
<g>
	<g>
		<path fill="#696969" d="M27.114,11.493c1.295-3.006,1.63-3.999,0.526-5.111l-2.021-2.006
			c-0.396-0.395-0.959-0.628-1.518-0.628c-0.377,0-0.767,0-3.553,1.264c-1.219-3.064-1.68-4.007-3.202-4.007h-2.86
			c-1.505,0-1.958,0.852-3.137,4.026C8.516,3.834,8.119,3.834,7.764,3.834c-0.559,0-1.125,0.233-1.513,0.623L4.224,6.472
			c-1.131,1.132-0.742,2.193,0.589,5.074c-3.122,1.238-3.985,1.667-3.985,3.23v2.853c0,1.602,0.946,2.045,4.009,3.167
			c-1.292,3.003-1.626,3.996-0.526,5.103l2.014,2.008c0.392,0.396,0.964,0.635,1.525,0.635c0.374,0,0.763,0,3.552-1.265
			c1.222,3.063,1.679,4.01,3.205,4.01h2.86c1.505,0,1.96-0.855,3.141-4.03c2.835,1.201,3.232,1.201,3.585,1.201
			c0.557,0,1.119-0.234,1.513-0.623l2.039-2.028c1.118-1.133,0.729-2.194-0.601-5.062c3.043-1.21,3.981-1.674,3.981-3.233v-2.851
			C31.124,13.054,30.178,12.616,27.114,11.493z M28.662,17.339c-0.603,0.352-2.314,1.024-3.006,1.299l-0.487,0.195l-0.771,1.869
			l0.234,0.501c0.276,0.594,1.053,2.261,1.254,2.939L24.1,25.928c-0.271-0.075-1.033-0.328-3.063-1.203l-0.467-0.204l-1.867,0.771
			l-0.192,0.51c-0.225,0.621-0.866,2.363-1.207,2.975h-2.541c-0.347-0.592-1.023-2.298-1.298-2.986l-0.195-0.492l-1.866-0.768
			l-0.481,0.222c-2.013,0.928-2.75,1.189-2.981,1.263L6.15,24.23c0.181-0.678,0.903-2.346,1.196-3.021l0.215-0.494L6.788,18.85
			l-0.509-0.185c-0.686-0.249-2.383-0.868-2.99-1.204v-2.521c0.593-0.34,2.249-0.993,3.004-1.293l0.488-0.191l0.773-1.867
			L7.32,11.083c-0.279-0.595-1.053-2.264-1.253-2.945L7.853,6.36c0.27,0.073,1.032,0.325,3.069,1.2l0.468,0.203l1.862-0.768
			l0.189-0.515c0.225-0.62,0.866-2.358,1.205-2.975h2.543c0.345,0.594,1.022,2.298,1.296,2.989l0.194,0.491l1.865,0.769l0.482-0.223
			c2.015-0.929,2.749-1.19,2.982-1.261l1.791,1.781c-0.18,0.674-0.905,2.344-1.195,3.021l-0.215,0.496l0.776,1.87l0.506,0.184
			c0.687,0.251,2.38,0.868,2.989,1.201V17.339z M15.977,11.636c-2.493,0-4.521,2.022-4.521,4.508c0,2.487,2.028,4.51,4.521,4.51
			s4.521-2.023,4.521-4.51C20.497,13.659,18.47,11.636,15.977,11.636z M15.977,18.151c-1.137,0-2.064-0.901-2.064-2.007
			c0-1.105,0.927-2.005,2.064-2.005c1.138,0,2.062,0.9,2.062,2.005C18.039,17.25,17.114,18.151,15.977,18.151z"/>
	</g>
</g>
</svg>
