<?xml version="1.0" encoding="UTF-8"?>
<svg version="1.1" width="32" height="32" viewBox="0 0 32 32" xmlns="http://www.w3.org/2000/svg">
 <path d="M15.471-.01c-.507.002-.955.037-1.422.082-.794.078-3.63.48-3.818 2.903-.07.892-.086 1.668-.123 2.527-.06 1.752 1.142 3.515 1.734 5.273C13.03 13.652 14.05 16.557 12 20h8c-2.05-3.443-1.028-6.348.158-9.225.593-1.758 1.795-3.52 1.735-5.273-.038-.859-.054-1.635-.123-2.527C21.582.552 18.746.15 17.95.072A13.49 13.49 0 0 0 16.001 0a13.98 13.98 0 0 0-.53-.01zM4 21c-.554 0-1 .446-1 1v6c0 .554.446 1 1 1h24c.554 0 1-.446 1-1v-6c0-.554-.446-1-1-1zm9 3h6l-3 3zm-7 6v2h20v-2z" fill="#62686a"/>
</svg>
