<?xml version="1.0" encoding="utf-8"?>
<!-- Generator: Adobe Illustrator 15.0.0, SVG Export Plug-In . SVG Version: 6.00 Build 0)  -->
<!DOCTYPE svg PUBLIC "-//W3C//DTD SVG 1.1//EN" "http://www.w3.org/Graphics/SVG/1.1/DTD/svg11.dtd">
<?xml-stylesheet type="text/css" href="../less/svg.css" ?>
<svg version="1.1" id="pixelegg_timesheet" xmlns="http://www.w3.org/2000/svg" xmlns:xlink="http://www.w3.org/1999/xlink" x="0px" y="0px"
	 width="32px" height="32px" viewBox="0 0 32 32" enable-background="new 0 0 32 32" xml:space="preserve">
<g>
	<g>
		<path fill="#696969" d="M16,23.486c-1.471,0-1.337,2.807,0,2.807S17.471,23.486,16,23.486z
			 M5.708,16c0,1.47,2.807,1.47,2.807,0C8.515,14.53,5.708,14.53,5.708,16z M16,1.01C7.721,1.01,1.01,7.721,1.01,16
			c0,8.279,6.711,14.99,14.99,14.99S30.99,24.279,30.99,16C30.99,7.721,24.279,1.01,16,1.01z M16,27.871
			c-6.027,0-11.849-5.793-11.849-11.787C4.151,10.092,9.973,4.298,16,4.298s11.849,5.794,11.849,11.786
			C27.849,22.078,22.027,27.871,16,27.871z M20.259,8.512c-0.685-0.315-1.494-0.02-1.809,0.66l-2.844,6.161
			c-0.021,0.044-0.03,0.089-0.046,0.134l-3.03-0.01c-0.751-0.002-1.359,0.606-1.357,1.357c0.003,0.752,0.613,1.363,1.365,1.365
			l4.083,0.012c0.752,0.002,1.359-0.605,1.357-1.357c0-0.051-0.01-0.1-0.016-0.15c0.045-0.064,0.088-0.133,0.122-0.207l2.844-6.161
			C21.243,9.636,20.943,8.828,20.259,8.512z M23.485,16c0,1.47,2.807,1.47,2.807,0C26.292,14.53,23.485,14.53,23.485,16z M16,8.515
			c1.471,0,0.936-2.807,0-2.807S14.529,8.515,16,8.515z"/>
	</g>
</g>
</svg>
