<?xml version="1.0" encoding="UTF-8"?>
<svg version="1.1" width="32" height="32" viewBox="0 0 32 32" xmlns="http://www.w3.org/2000/svg">
 <path d="M18.632 11.19c.073.434 0 1.683 0 2.139 0 .34-.113.778-.32 1.26.864.593 1.877.995 3.022.995 1.664 0 3.06-.837 4.107-1.9a43.202 43.202 0 0 0 3.893-.593c-.636-.596-1.273-1.725-1.827-2.931.03-.147.05-.282.05-.394 0-.354.057-1.327 0-1.664-.496-2.853-3.21-4.986-6.223-4.986-2.44 0-4.65 1.34-5.674 3.36 1.527 1.152 2.641 2.8 2.972 4.714zm-2.026 5.887c-.79.816-1.793 1.564-2.976 2.056 3.818.543 7.037 1.89 7.037 1.89l1.458 3.703H32l-2.667-6.649s-4.04-1.663-8-1.663c-1.588 0-3.297.312-4.727.663zm4.728 10.973-2.667-6.649s-4.04-1.663-8-1.663c-3.679 0-8 1.663-8 1.663l-2.668 6.65s5.31.832 10.667.832c5.309 0 10.667-.833 10.667-.833zm-10.667-9.973c3.81 0 6.22-3.563 6.22-4.988 0-.354.062-1.326 0-1.663-.493-2.854-3.208-4.986-6.22-4.986-3.053 0-5.776 2.077-6.223 4.986-.046.3 0 1.348 0 1.663.001 1.427 2.412 4.988 6.223 4.988z" fill="#62686a"/>
</svg>
