<?xml version="1.0" encoding="UTF-8" standalone="no"?>
<!DOCTYPE svg PUBLIC "-//W3C//DTD SVG 20010904//EN"
"http://www.w3.org/TR/2001/REC-SVG-20010904/DTD/svg10.dtd">
<!-- Created with Sodipodi ("http://www.sodipodi.com/") -->
<svg
   i:viewOrigin="87 453"
   i:rulerOrigin="0 0"
   i:pageBounds="0 842 595 0"
   width="420.467"
   height="66.227"
   viewBox="0 0 420.467 66.227"
   style="overflow:visible;enable-background:new 0 0 420.467 66.227"
   xml:space="preserve"
   xmlns="http://www.w3.org/2000/svg"
   xmlns:ns="http://ns.adobe.com/Variables/1.0/"
   xmlns:ns0="http://ns.adobe.com/SaveForWeb/1.0/"
   xmlns:i="http://ns.adobe.com/AdobeIllustrator/10.0/"
   xmlns:xml="http://www.w3.org/XML/1998/namespace"
   xmlns:sodipodi="http://sodipodi.sourceforge.net/DTD/sodipodi-0.dtd"
   xmlns:xlink="http://www.w3.org/1999/xlink"
   id="svg548"
   sodipodi:version="0.33pre"
   sodipodi:docname="/home/pim/Desktop/E-GROUPW.EPS.svg"
   sodipodi:docbase="/home/pim/Desktop/">
  <defs
     id="defs564" />
  <sodipodi:namedview
     id="base" />
  <metadata
     id="metadata549">
    <ns:variableSets>
      <ns:variableSet
         varSetName="binding1"
         locked="none">
        <ns:variables />
        <ns:sampleDataSets />
      </ns:variableSet>
    </ns:variableSets>
    <ns0:sfw>
      <ns0:slices />
      <ns0:sliceSourceBounds
         y="386.773"
         x="87"
         width="420.467"
         height="66.227"
         bottomLeftOrigin="true" />
    </ns0:sfw>
  </metadata>
  <g
     id="Layer_1"
     i:layer="yes"
     i:dimmedPercent="50"
     i:rgbTrio="#4F008000FFFF"
     transform="translate(0.627537,-79.70049)"
     style="fill:#002572;fill-opacity:0.996078;">
    <g
       id="g551"
       style="fill:#002572;fill-opacity:0.996078;">
      <path
         i:knockout="Off"
         style="fill:#002572;fill-opacity:0.996078;"
         d="M107.059,31.714v-7.821H88.404v6.601H99.31v2.871     c0,3.301-0.718,5.883-2.583,8.035c-2.009,2.297-4.951,3.588-8.323,3.588c-3.014,0-5.74-1.148-7.534-3.084     c-2.512-2.727-3.085-5.67-3.085-15.93s0.574-13.13,3.085-15.857c1.793-1.938,4.52-3.157,7.534-3.157     c5.74,0,9.471,3.301,10.763,8.897h7.821C105.553,7.104,99.238,0,88.404,0c-5.453,0-9.902,1.938-13.417,5.453     c-5.023,5.023-4.951,10.691-4.951,20.521c0,9.831-0.072,15.499,4.951,20.522c3.516,3.516,8.108,5.453,13.417,5.453     c5.381,0,10.188-1.723,14.063-5.812C105.839,42.549,107.059,38.316,107.059,31.714z"
         id="path552" />
      <path
         i:knockout="Off"
         style="fill:#002572;fill-opacity:0.996078;"
         d="M141.99,18.153c-2.511-2.511-5.166-3.444-8.682-3.444     c-4.09,0-7.821,1.794-9.687,4.377V15.14h-7.175v36.378h7.319V29.418c0-5.022,3.301-8.18,7.247-8.18     c2.511,0,3.803,0.79,5.453,2.439L141.99,18.153z"
         id="path553" />
      <path
         i:knockout="Off"
         style="fill-rule:evenodd;clip-rule:evenodd;fill:#002572;fill-opacity:0.996078;"
         d="M173.977,33.293     c0-6.099-0.861-10.691-4.305-14.278c-2.368-2.44-5.956-4.305-10.906-4.305c-4.951,0-8.467,1.865-10.834,4.305     c-3.444,3.587-4.305,8.18-4.305,14.278c0,6.17,0.861,10.764,4.305,14.35c2.368,2.441,5.883,4.307,10.834,4.307     c4.951,0,8.539-1.865,10.906-4.307C173.116,44.057,173.977,39.463,173.977,33.293z M166.658,33.293     c0,3.947-0.287,7.75-2.511,9.975c-1.363,1.361-3.229,2.152-5.381,2.152c-2.153,0-3.947-0.791-5.31-2.152     c-2.225-2.225-2.511-6.027-2.511-9.975c0-3.946,0.287-7.749,2.511-9.974c1.363-1.363,3.157-2.081,5.31-2.081     c2.152,0,4.018,0.717,5.381,2.081C166.371,25.544,166.658,29.347,166.658,33.293z"
         id="path554" />
      <path
         i:knockout="Off"
         style="fill:#002572;fill-opacity:0.996078;"
         d="M211.836,51.518V15.14h-7.319v22.171c0,5.598-3.444,8.109-7.534,8.109     c-4.09,0-7.319-2.439-7.319-8.109V15.14h-7.319v23.247c0,4.09,0.861,7.535,3.66,10.262c2.152,2.08,5.238,3.301,8.969,3.301     c3.66,0,7.175-1.363,9.687-4.09v3.658H211.836z"
         id="path555" />
      <path
         i:knockout="Off"
         style="fill-rule:evenodd;clip-rule:evenodd;fill:#002572;fill-opacity:0.996078;"
         d="M252.07,33.293     c0-5.525-0.431-11.695-4.09-15.355c-2.01-2.009-5.238-3.229-8.897-3.229c-3.946,0-6.889,1.004-9.615,4.305V15.14h-7.175v51.087     h7.318V47.787c2.655,3.156,5.669,4.162,9.543,4.162c3.66,0,6.816-1.221,8.826-3.23C251.64,45.061,252.07,38.818,252.07,33.293z      M244.751,33.293c0,6.457-0.933,12.127-7.533,12.127c-6.602,0-7.606-5.67-7.606-12.127c0-6.458,1.005-12.054,7.606-12.054     C243.818,21.239,244.751,26.835,244.751,33.293z"
         id="path556" />
      <path
         i:knockout="Off"
         style="fill:#002572;fill-opacity:0.996078;"
         d="M318.137,0.431h-8.18l-8.897,36.522L290.799,0.431h-6.242l-10.261,36.522     l-8.897-36.522h-8.18l13.346,51.087h6.745l10.332-35.804l10.404,35.804h6.744L318.137,0.431z"
         id="path557" />
      <path
         i:knockout="Off"
         style="fill-rule:evenodd;clip-rule:evenodd;fill:#002572;fill-opacity:0.996078;"
         d="M352.485,51.518V27.194     c0-8.251-5.022-12.485-14.996-12.485c-6.027,0-9.614,1.22-13.059,5.238l4.808,4.521c2.009-2.583,3.946-3.516,7.964-3.516     c5.668,0,7.965,2.225,7.965,6.816v2.583h-9.615c-8.323,0-12.557,4.377-12.557,10.475c0,3.086,1.005,5.885,2.87,7.822     c2.225,2.225,5.238,3.301,9.759,3.301s7.031-1.076,9.687-3.732v3.301H352.485z M345.167,38.387c0,2.584-0.503,4.307-1.579,5.383     c-1.938,1.865-4.018,2.08-6.816,2.08c-4.592,0-6.673-1.865-6.673-5.166s2.225-5.238,6.53-5.238h8.538V38.387z"
         id="path558" />
      <path
         i:knockout="Off"
         style="fill:#002572;fill-opacity:0.996078;"
         d="M386.687,18.153c-2.512-2.511-5.166-3.444-8.683-3.444     c-4.09,0-7.82,1.794-9.687,4.377V15.14h-7.175v36.378h7.319V29.418c0-5.022,3.3-8.18,7.246-8.18c2.512,0,3.804,0.79,5.453,2.439     L386.687,18.153z"
         id="path559" />
      <path
         i:knockout="Off"
         style="fill-rule:evenodd;clip-rule:evenodd;fill:#002572;fill-opacity:0.996078;"
         d="M420.467,35.445v-3.229     c0-10.333-5.668-17.507-15.427-17.507c-9.327,0-15.427,6.816-15.427,18.583c0,13.848,7.247,18.656,16.359,18.656     c6.387,0,9.902-1.938,13.633-5.67l-4.663-4.375c-2.583,2.582-4.736,3.73-8.826,3.73c-5.955,0-9.256-3.947-9.256-10.189H420.467z      M413.22,30.351H396.86c0.072-2.224,0.215-3.3,0.933-4.951c1.148-2.727,3.804-4.592,7.247-4.592c3.444,0,6.027,1.866,7.175,4.592     C412.933,27.051,413.148,28.127,413.22,30.351z"
         id="path560" />
      <path
         i:knockout="Off"
         style="fill:#002572;fill-opacity:0.996078;"
         d="M24.039,21.584h20.644c0.976,0,1.767,0.791,1.767,1.767v3.934     c0,0.976-0.791,1.766-1.767,1.766H24.039c-0.976,0-1.767-0.791-1.767-1.766v-3.934C22.272,22.375,23.063,21.584,24.039,21.584z"
         id="path561" />
      <path
         i:knockout="Off"
         style="fill-rule:evenodd;clip-rule:evenodd;fill:#002572;fill-opacity:0.996078;"
         d="M7.285,7.937V44.27h25.508h0.019h0.305     c0.355,0,1.555,0.416,1.558,1.311l0.009,0.656l-0.002,3.936c0.002,0.867-1.204,1.311-1.558,1.311l-2.175,0.004H3.069     C1.851,51.496,0,49.66,0,48.459V3.736C0,2.21,2.095,0.7,3.329,0.709h29.472h0.002h0.305c0.354,0,1.554,0.416,1.558,1.312     l-0.006,0.653v3.951c0.002,0.868-1.203,1.311-1.558,1.311h-0.305L7.285,7.937z"
         id="path562" />
    </g>
  </g>
  <g
     id="g565"
     i:layer="yes"
     i:dimmedPercent="50"
     i:rgbTrio="#4F008000FFFF"
     transform="matrix(0.962096,0.000000,0.000000,0.962096,7.530728,1.882702)"
     style="fill:#2572fe;fill-opacity:1;overflow:visible;enable-background:new 0 0 420.467 66.227;">
    <g
       id="g566"
       style="fill:#2572fe;fill-opacity:1;">
      <path
         i:knockout="Off"
         style="fill:#2572fe;fill-opacity:1;"
         d="M107.059,31.714v-7.821H88.404v6.601H99.31v2.871     c0,3.301-0.718,5.883-2.583,8.035c-2.009,2.297-4.951,3.588-8.323,3.588c-3.014,0-5.74-1.148-7.534-3.084     c-2.512-2.727-3.085-5.67-3.085-15.93s0.574-13.13,3.085-15.857c1.793-1.938,4.52-3.157,7.534-3.157     c5.74,0,9.471,3.301,10.763,8.897h7.821C105.553,7.104,99.238,0,88.404,0c-5.453,0-9.902,1.938-13.417,5.453     c-5.023,5.023-4.951,10.691-4.951,20.521c0,9.831-0.072,15.499,4.951,20.522c3.516,3.516,8.108,5.453,13.417,5.453     c5.381,0,10.188-1.723,14.063-5.812C105.839,42.549,107.059,38.316,107.059,31.714z"
         id="path567" />
      <path
         i:knockout="Off"
         style="fill:#2572fe;fill-opacity:1;"
         d="M141.99,18.153c-2.511-2.511-5.166-3.444-8.682-3.444     c-4.09,0-7.821,1.794-9.687,4.377V15.14h-7.175v36.378h7.319V29.418c0-5.022,3.301-8.18,7.247-8.18     c2.511,0,3.803,0.79,5.453,2.439L141.99,18.153z"
         id="path568" />
      <path
         i:knockout="Off"
         style="fill-rule:evenodd;clip-rule:evenodd;fill:#2572fe;fill-opacity:1;"
         d="M173.977,33.293     c0-6.099-0.861-10.691-4.305-14.278c-2.368-2.44-5.956-4.305-10.906-4.305c-4.951,0-8.467,1.865-10.834,4.305     c-3.444,3.587-4.305,8.18-4.305,14.278c0,6.17,0.861,10.764,4.305,14.35c2.368,2.441,5.883,4.307,10.834,4.307     c4.951,0,8.539-1.865,10.906-4.307C173.116,44.057,173.977,39.463,173.977,33.293z M166.658,33.293     c0,3.947-0.287,7.75-2.511,9.975c-1.363,1.361-3.229,2.152-5.381,2.152c-2.153,0-3.947-0.791-5.31-2.152     c-2.225-2.225-2.511-6.027-2.511-9.975c0-3.946,0.287-7.749,2.511-9.974c1.363-1.363,3.157-2.081,5.31-2.081     c2.152,0,4.018,0.717,5.381,2.081C166.371,25.544,166.658,29.347,166.658,33.293z"
         id="path569" />
      <path
         i:knockout="Off"
         style="fill:#2572fe;fill-opacity:1;"
         d="M211.836,51.518V15.14h-7.319v22.171c0,5.598-3.444,8.109-7.534,8.109     c-4.09,0-7.319-2.439-7.319-8.109V15.14h-7.319v23.247c0,4.09,0.861,7.535,3.66,10.262c2.152,2.08,5.238,3.301,8.969,3.301     c3.66,0,7.175-1.363,9.687-4.09v3.658H211.836z"
         id="path570" />
      <path
         i:knockout="Off"
         style="fill-rule:evenodd;clip-rule:evenodd;fill:#2572fe;fill-opacity:1;"
         d="M252.07,33.293     c0-5.525-0.431-11.695-4.09-15.355c-2.01-2.009-5.238-3.229-8.897-3.229c-3.946,0-6.889,1.004-9.615,4.305V15.14h-7.175v51.087     h7.318V47.787c2.655,3.156,5.669,4.162,9.543,4.162c3.66,0,6.816-1.221,8.826-3.23C251.64,45.061,252.07,38.818,252.07,33.293z      M244.751,33.293c0,6.457-0.933,12.127-7.533,12.127c-6.602,0-7.606-5.67-7.606-12.127c0-6.458,1.005-12.054,7.606-12.054     C243.818,21.239,244.751,26.835,244.751,33.293z"
         id="path571" />
      <path
         i:knockout="Off"
         style="fill:#2572fe;fill-opacity:1;"
         d="M318.137,0.431h-8.18l-8.897,36.522L290.799,0.431h-6.242l-10.261,36.522     l-8.897-36.522h-8.18l13.346,51.087h6.745l10.332-35.804l10.404,35.804h6.744L318.137,0.431z"
         id="path572" />
      <path
         i:knockout="Off"
         style="fill-rule:evenodd;clip-rule:evenodd;fill:#2572fe;fill-opacity:1;"
         d="M352.485,51.518V27.194     c0-8.251-5.022-12.485-14.996-12.485c-6.027,0-9.614,1.22-13.059,5.238l4.808,4.521c2.009-2.583,3.946-3.516,7.964-3.516     c5.668,0,7.965,2.225,7.965,6.816v2.583h-9.615c-8.323,0-12.557,4.377-12.557,10.475c0,3.086,1.005,5.885,2.87,7.822     c2.225,2.225,5.238,3.301,9.759,3.301s7.031-1.076,9.687-3.732v3.301H352.485z M345.167,38.387c0,2.584-0.503,4.307-1.579,5.383     c-1.938,1.865-4.018,2.08-6.816,2.08c-4.592,0-6.673-1.865-6.673-5.166s2.225-5.238,6.53-5.238h8.538V38.387z"
         id="path573" />
      <path
         i:knockout="Off"
         style="fill:#2572fe;fill-opacity:1;"
         d="M386.687,18.153c-2.512-2.511-5.166-3.444-8.683-3.444     c-4.09,0-7.82,1.794-9.687,4.377V15.14h-7.175v36.378h7.319V29.418c0-5.022,3.3-8.18,7.246-8.18c2.512,0,3.804,0.79,5.453,2.439     L386.687,18.153z"
         id="path574" />
      <path
         i:knockout="Off"
         style="fill-rule:evenodd;clip-rule:evenodd;fill:#2572fe;fill-opacity:1;"
         d="M420.467,35.445v-3.229     c0-10.333-5.668-17.507-15.427-17.507c-9.327,0-15.427,6.816-15.427,18.583c0,13.848,7.247,18.656,16.359,18.656     c6.387,0,9.902-1.938,13.633-5.67l-4.663-4.375c-2.583,2.582-4.736,3.73-8.826,3.73c-5.955,0-9.256-3.947-9.256-10.189H420.467z      M413.22,30.351H396.86c0.072-2.224,0.215-3.3,0.933-4.951c1.148-2.727,3.804-4.592,7.247-4.592c3.444,0,6.027,1.866,7.175,4.592     C412.933,27.051,413.148,28.127,413.22,30.351z"
         id="path575" />
      <path
         i:knockout="Off"
         style="fill:#2572fe;fill-opacity:1;"
         d="M24.039,21.584h20.644c0.976,0,1.767,0.791,1.767,1.767v3.934     c0,0.976-0.791,1.766-1.767,1.766H24.039c-0.976,0-1.767-0.791-1.767-1.766v-3.934C22.272,22.375,23.063,21.584,24.039,21.584z"
         id="path576" />
      <path
         i:knockout="Off"
         style="fill-rule:evenodd;clip-rule:evenodd;fill:#2572fe;fill-opacity:1;"
         d="M7.285,7.937V44.27h25.508h0.019h0.305     c0.355,0,1.555,0.416,1.558,1.311l0.009,0.656l-0.002,3.936c0.002,0.867-1.204,1.311-1.558,1.311l-2.175,0.004H3.069     C1.851,51.496,0,49.66,0,48.459V3.736C0,2.21,2.095,0.7,3.329,0.709h29.472h0.002h0.305c0.354,0,1.554,0.416,1.558,1.312     l-0.006,0.653v3.951c0.002,0.868-1.203,1.311-1.558,1.311h-0.305L7.285,7.937z"
         id="path577" />
    </g>
  </g>
</svg>
