<?xml version="1.0" encoding="utf-8"?>
<!-- Generator: Adobe Illustrator 16.2.1, SVG Export Plug-In . SVG Version: 6.00 Build 0)  -->
<!DOCTYPE svg PUBLIC "-//W3C//DTD SVG 1.1//EN" "http://www.w3.org/Graphics/SVG/1.1/DTD/svg11.dtd">
<svg version="1.1" id="Ebene_1" xmlns="http://www.w3.org/2000/svg" xmlns:xlink="http://www.w3.org/1999/xlink" x="0px" y="0px"
	 width="28.347px" height="28.347px" viewBox="0 0 28.347 28.347" enable-background="new 0 0 28.347 28.347" xml:space="preserve">
<g>
	<path fill-rule="evenodd" clip-rule="evenodd" fill="#ECEDED" d="M24.804,0H3.543C1.586,0,0,1.586,0,3.543v21.259
		c0,1.957,1.586,3.543,3.543,3.543h21.261c1.957,0,3.543-1.586,3.543-3.543V3.543C28.347,1.586,26.761,0,24.804,0z M21.203,3.053
		h3.521v7.041l-3.521-3.52V3.053z M26.484,16.255h-2.641v9.681h-7.041v-7.92h-5.279v7.92H4.482v-9.681c0.062,0.077-2.641,0-2.641,0
		c-0.688-0.688-1.216-0.88-0.528-1.567L12.515,3.485c0.452-0.452,1.083-0.577,1.662-0.434c0.579-0.143,1.211-0.018,1.662,0.434
		l11.201,11.202C27.728,15.375,27.171,15.567,26.484,16.255z"/>
</g>
</svg>
