<?xml version="1.0" encoding="utf-8"?>
<!-- Generator: Adobe Illustrator 16.0.4, SVG Export Plug-In . SVG Version: 6.00 Build 0)  -->
<!DOCTYPE svg PUBLIC "-//W3C//DTD SVG 1.1//EN" "http://www.w3.org/Graphics/SVG/1.1/DTD/svg11.dtd">
<svg version="1.1" id="Capa_1" xmlns="http://www.w3.org/2000/svg" xmlns:xlink="http://www.w3.org/1999/xlink" x="0px" y="0px"
	 width="612px" height="792px" viewBox="0 0 612 792" enable-background="new 0 0 612 792" xml:space="preserve">
<path d="M458.388,320.724c0-3.672-1.428-6.528-4.284-8.568L313.344,203.22c-4.08-3.264-8.568-3.264-13.464,0L164.016,312.156
	c-2.448,2.04-3.672,4.896-3.672,8.568v196.452c0,3.266,1.02,5.916,3.06,7.956c2.04,2.04,4.488,3.062,7.344,3.062h80.784
	c3.264,0,5.916-1.021,7.956-3.062c2.04-2.04,3.06-4.69,3.06-7.956V396.613h93.024v120.562c0,3.266,1.02,5.916,3.06,7.956
	s4.692,3.062,7.956,3.062h80.784c3.264,0,5.916-1.021,7.956-3.062s3.06-4.69,3.06-7.956V320.724z M306,90
	c42.024,0,81.702,8.058,119.034,24.174c37.332,16.116,69.768,37.944,97.308,65.484s49.368,59.976,65.484,97.308S612,353.976,612,396
	c0,28.152-3.672,55.284-11.016,81.396c-7.346,26.11-17.646,50.488-30.906,73.134c-13.26,22.644-29.172,43.248-47.736,61.812
	c-18.562,18.564-39.168,34.478-61.812,47.736c-22.646,13.26-47.022,23.562-73.135,30.906C361.284,698.328,334.152,702,306,702
	c-28.152,0-55.284-3.672-81.396-11.016c-26.112-7.346-50.49-17.646-73.134-30.906c-22.644-13.26-43.248-29.172-61.812-47.736
	c-18.564-18.562-34.476-39.168-47.736-61.812c-13.26-22.646-23.562-47.022-30.906-73.134C3.672,451.284,0,424.152,0,396
	c0-28.152,3.672-55.284,11.016-81.396c7.344-26.112,17.646-50.49,30.906-73.134c13.26-22.644,29.172-43.248,47.736-61.812
	c18.564-18.564,39.168-34.476,61.812-47.736c22.644-13.26,47.022-23.562,73.134-30.906C250.716,93.672,277.848,90,306,90z"/>
</svg>
