<svg width="20.774" xmlns="http://www.w3.org/2000/svg" height="20.774"><g fill="#231f20"><path d="M10.331 0c-5.736.03-10.362 4.706-10.331 10.443.031 5.736 4.708 10.361 10.443 10.331 5.739-.032 10.362-4.706 10.331-10.443-.032-5.737-4.704-10.361-10.443-10.331zm.103 19.082c-4.802.025-8.711-3.845-8.738-8.648-.025-4.801 3.842-8.716 8.644-8.742 4.802-.027 8.716 3.847 8.743 8.647.025 4.803-3.848 8.716-8.649 8.743zM11.973 14.932l-.043-7.764-2.92.017v.005l-1.087.004.008 1.699 1.088-.006.032 6.062-1.154.004.009 1.623 1.154-.005v.013l2.921-.017v-.012l.953-.006-.009-1.622zM10.446 6.022c.98-.004 1.57-.66 1.565-1.466-.025-.826-.601-1.456-1.544-1.452-.94.006-1.553.643-1.549 1.469.005.806.603 1.456 1.528 1.449z"/></g></svg>