<?xml version="1.0" encoding="utf-8"?>
<!-- Generator: Adobe Illustrator 15.0.0, SVG Export Plug-In . SVG Version: 6.00 Build 0)  -->
<!DOCTYPE svg PUBLIC "-//W3C//DTD SVG 1.1//EN" "http://www.w3.org/Graphics/SVG/1.1/DTD/svg11.dtd">
<svg version="1.1" id="Layer_1" xmlns="http://www.w3.org/2000/svg" xmlns:xlink="http://www.w3.org/1999/xlink" x="0px" y="0px"
	 width="26px" height="26px" viewBox="0 0 26 26" enable-background="new 0 0 26 26" xml:space="preserve">
<rect fill="none" width="26" height="26"/>
<path fill="#000000" d="M21,19.547V23c0,0.552-0.449,1-1,1H6c-0.551,0-1-0.448-1-1V3c0-0.552,0.449-1,1-1h14c0.551,0,1,0.448,1,1
	v3.453l2,1.733V3c0-1.656-1.344-3-3-3H6C4.344,0,3,1.344,3,3v20c0,1.656,1.344,3,3,3h14c1.656,0,3-1.344,3-3v-5.187L21,19.547z"/>
<g>
	<path fill="#000000" d="M17,19.5c0,0-1,0.281-1-1c0-0.29,0-1.257,0-2.5h-6c-0.552,0-1-0.449-1-1v-4c0-0.551,0.448-1,1-1h6
		c0-1.196,0-2.155,0-2.531C16,6.125,17,6.5,17,6.5l7.5,6.5L17,19.5z"/>
</g>
</svg>
