<?xml version="1.0" encoding="utf-8"?>
<!-- Generator: Adobe Illustrator 16.0.4, SVG Export Plug-In . SVG Version: 6.00 Build 0)  -->
<!DOCTYPE svg PUBLIC "-//W3C//DTD SVG 1.1//EN" "http://www.w3.org/Graphics/SVG/1.1/DTD/svg11.dtd">
<svg version="1.1" id="Capa_1" xmlns="http://www.w3.org/2000/svg" xmlns:xlink="http://www.w3.org/1999/xlink" x="0px" y="0px"
	 width="23.2px" height="24.422px" viewBox="0 0 23.2 24.422" enable-background="new 0 0 23.2 24.422" xml:space="preserve">
<g>
	<path d="M0,6.084v12.253h23.2V6.084H0z M7.242,13.362c0.157,0.18,0.283,0.328,0.375,0.438l-1.01,0.666l-0.884-1.461
		c-0.266,0.479-0.576,0.982-0.923,1.518L3.803,13.75c0.321-0.356,0.65-0.692,0.997-1.02c0.136-0.128,0.224-0.216,0.257-0.248
		c-0.108-0.02-0.424-0.091-0.946-0.221c-0.376-0.096-0.624-0.16-0.743-0.206l0.403-1.164c0.577,0.234,1.089,0.497,1.535,0.775
		c-0.103-0.722-0.157-1.31-0.157-1.764h1.162c0,0.321-0.06,0.912-0.178,1.771c0.09-0.035,0.276-0.119,0.567-0.257
		c0.395-0.18,0.761-0.333,1.096-0.46l0.351,1.201c-0.489,0.108-1.056,0.217-1.7,0.323L7.242,13.362z M13.084,13.364
		c0.16,0.179,0.285,0.326,0.377,0.438l-1.01,0.666l-0.885-1.462c-0.269,0.479-0.58,0.979-0.925,1.518l-0.993-0.771
		c0.319-0.357,0.649-0.693,0.995-1.021c0.135-0.128,0.224-0.215,0.258-0.249c-0.11-0.02-0.425-0.092-0.946-0.222
		c-0.378-0.095-0.625-0.159-0.742-0.206l0.401-1.162c0.577,0.235,1.088,0.497,1.535,0.775c-0.105-0.721-0.155-1.309-0.155-1.763
		h1.16c0,0.32-0.058,0.911-0.177,1.771c0.088-0.036,0.276-0.12,0.567-0.257c0.396-0.18,0.761-0.334,1.094-0.462l0.35,1.202
		c-0.488,0.109-1.056,0.217-1.697,0.323L13.084,13.364z M18.928,13.364c0.156,0.179,0.283,0.326,0.375,0.438l-1.01,0.666
		l-0.883-1.462c-0.27,0.479-0.576,0.979-0.926,1.518l-0.994-0.771c0.317-0.356,0.647-0.692,0.994-1.021
		c0.137-0.127,0.227-0.214,0.26-0.248c-0.109-0.02-0.428-0.092-0.947-0.222c-0.375-0.096-0.623-0.16-0.741-0.207l0.403-1.163
		c0.576,0.235,1.088,0.496,1.533,0.775c-0.104-0.721-0.154-1.309-0.154-1.763h1.16c0,0.32-0.062,0.911-0.18,1.771
		c0.09-0.036,0.276-0.121,0.567-0.257c0.396-0.18,0.762-0.334,1.096-0.462l0.351,1.202c-0.486,0.108-1.058,0.217-1.699,0.323
		L18.928,13.364z"/>
</g>
</svg>
