<?xml version="1.0" encoding="utf-8"?>
<!-- Generator: Adobe Illustrator 16.2.1, SVG Export Plug-In . SVG Version: 6.00 Build 0)  -->
<!DOCTYPE svg PUBLIC "-//W3C//DTD SVG 1.1//EN" "http://www.w3.org/Graphics/SVG/1.1/DTD/svg11.dtd">
<?xml-stylesheet type="text/css" href="../less/svg.css" ?>
<svg version="1.1" id="Ebene_1" xmlns="http://www.w3.org/2000/svg" xmlns:xlink="http://www.w3.org/1999/xlink" x="0px" y="0px"
	 width="32px" height="32px" viewBox="0 0 32 32" enable-background="new 0 0 32 32" xml:space="preserve">
<path fill="#696969" d="M1.935,31h3.739c0.438,0,0.818-0.305,0.914-0.734l0.62-2.796l4.262-0.132c0.479-0.015,0.87-0.393,0.902-0.87
	l0.248-3.572l3.549,0.079c0.409,0.01,0.775-0.246,0.907-0.634l1.081-3.182c0.852,0.33,1.881,0.622,3.411,0.622
	c5.154,0,9.349-4.194,9.349-9.349s-4.194-9.349-9.349-9.349c-5.155,0-9.35,4.194-9.35,9.349c0,0.671,0.186,1.704,0.328,2.372
	L1.232,25.707C1.082,25.88,1,26.1,1,26.325v3.74C1,30.581,1.42,31,1.935,31z M19.932,9.38c0-1.42,1.151-2.571,2.571-2.571
	s2.571,1.151,2.571,2.571c0,1.42-1.151,2.571-2.571,2.571S19.932,10.8,19.932,9.38z"/>
</svg>
