<?xml version="1.0" encoding="utf-8"?>
<!-- Generator: Adobe Illustrator 16.0.4, SVG Export Plug-In . SVG Version: 6.00 Build 0)  -->
<!DOCTYPE svg PUBLIC "-//W3C//DTD SVG 1.1//EN" "http://www.w3.org/Graphics/SVG/1.1/DTD/svg11.dtd">
<svg version="1.1" id="Capa_1" xmlns="http://www.w3.org/2000/svg" xmlns:xlink="http://www.w3.org/1999/xlink" x="0px" y="0px"
	 width="612px" height="792px" viewBox="0 0 612 792" enable-background="new 0 0 612 792" xml:space="preserve">
<path d="M406.369,338.166c3.672,9.588,5.508,19.38,5.508,29.376s-1.836,19.788-5.508,29.376s-9.384,18.258-17.136,26.01
	s-16.424,13.566-26.012,17.442s-19.48,5.812-29.682,5.812s-20.094-1.938-29.682-5.812c-9.588-3.876-18.258-9.69-26.01-17.442
	s-13.566-16.422-17.442-26.01c-3.876-9.588-5.814-19.38-5.814-29.376s1.938-19.788,5.814-29.376
	c3.876-9.588,9.69-18.258,17.442-26.01c7.752-7.752,16.422-13.464,26.01-17.136c9.588-3.672,19.482-5.508,29.682-5.508
	s20.094,1.836,29.682,5.508s18.26,9.384,26.012,17.136C396.985,319.908,402.697,328.578,406.369,338.166z M612,396
	c0,28.152-3.672,55.284-11.016,81.396c-7.346,26.11-17.646,50.488-30.906,73.134c-13.26,22.644-29.172,43.248-47.736,61.812
	c-18.562,18.564-39.168,34.478-61.812,47.736c-22.646,13.26-47.022,23.562-73.135,30.906C361.284,698.328,334.152,702,306,702
	c-28.152,0-55.284-3.672-81.396-11.016c-26.112-7.346-50.49-17.646-73.134-30.906c-22.644-13.26-43.248-29.172-61.812-47.736
	c-18.564-18.562-34.476-39.168-47.736-61.812c-13.26-22.646-23.562-47.022-30.906-73.134C3.672,451.284,0,424.152,0,396
	c0-28.152,3.672-55.284,11.016-81.396c7.344-26.112,17.646-50.49,30.906-73.134c13.26-22.644,29.172-43.248,47.736-61.812
	c18.564-18.564,39.168-34.476,61.812-47.736c22.644-13.26,47.022-23.562,73.134-30.906C250.716,93.672,277.848,90,306,90
	c42.024,0,81.702,8.058,119.034,24.174c37.332,16.116,69.768,37.944,97.308,65.484s49.368,59.976,65.484,97.308S612,353.976,612,396
	z M474.3,367.849c0-17.952-3.366-35.598-10.098-52.938c-6.732-17.34-17.034-32.946-30.906-46.818
	c-13.872-13.872-29.478-24.174-46.818-30.906c-17.34-6.732-34.984-10.098-52.938-10.098s-35.598,3.366-52.938,10.098
	s-32.946,17.034-46.818,30.906c-11.832,11.832-21.114,24.99-27.846,39.474s-10.914,29.58-12.546,45.288
	c-1.632,15.708-0.714,31.314,2.754,46.818c3.468,15.504,9.486,29.988,18.054,43.452l-61.2,61.2
	c-7.344,7.344-11.016,16.116-11.016,26.314c0,10.2,3.672,18.77,11.016,25.704c6.936,7.346,15.606,11.018,26.01,11.018
	c10.404,0,19.074-3.672,26.01-11.018l63.648-63.646c13.464,6.936,27.438,11.628,41.922,14.076c14.484,2.446,28.968,2.65,43.452,0.61
	s28.56-6.426,42.228-13.157c13.668-6.732,26.011-15.606,37.026-26.623c13.872-13.87,24.174-29.478,30.906-46.816
	C470.933,403.447,474.3,385.801,474.3,367.849z"/>
</svg>
