<?xml version="1.0" encoding="utf-8"?>
<!-- Generator: Adobe Illustrator 16.0.4, SVG Export Plug-In . SVG Version: 6.00 Build 0)  -->
<!DOCTYPE svg PUBLIC "-//W3C//DTD SVG 1.1//EN" "http://www.w3.org/Graphics/SVG/1.1/DTD/svg11.dtd">
<svg version="1.1" id="Capa_1" xmlns="http://www.w3.org/2000/svg" xmlns:xlink="http://www.w3.org/1999/xlink" x="0px" y="0px"
	 width="32px" height="32px" viewBox="0 0 32 32" enable-background="new 0 0 32 32" xml:space="preserve">
<g>
	<path d="M23,14c-1.055,0-2.061,0.19-3,0.522V12h-8v2H8v-4h2V2H2v8h4v15.999h6V30h5.35c1.545,1.248,3.51,1.999,5.65,2
		c4.971-0.002,8.998-4.029,9-9C31.998,18.027,27.971,14,23,14z M14.059,22H12v2H8.001L8,15.998h4V20h2.522
		C14.297,20.639,14.135,21.307,14.059,22z M23,29.883c-3.801-0.009-6.876-3.084-6.885-6.883c0.009-3.801,3.084-6.876,6.885-6.885
		c3.799,0.009,6.874,3.084,6.883,6.885C29.874,26.799,26.799,29.874,23,29.883z"/>
	<path d="M26.337,21.999c-0.063-0.212-0.146-0.413-0.245-0.606l1.188-1.187l-1.416-1.415l-1.165,1.166
		c-0.22-0.123-0.452-0.221-0.697-0.294V18h-2v1.662c-0.229,0.068-0.446,0.158-0.651,0.27l-1.142-1.14l-1.415,1.415l1.141,1.141
		C19.82,21.555,19.73,21.771,19.662,22H18v2h1.662c0.072,0.246,0.172,0.479,0.295,0.698l-1.165,1.163l1.413,1.416l1.188-1.188
		c0.192,0.102,0.395,0.182,0.605,0.245V28H24v-1.665c0.229-0.067,0.445-0.158,0.65-0.271l1.213,1.213l1.414-1.416l-1.213-1.211
		c0.111-0.205,0.201-0.422,0.271-0.65H28v-2.001H26.337z M22.999,24.499c-0.829-0.002-1.498-0.671-1.501-1.5
		c0.003-0.829,0.672-1.498,1.501-1.501c0.829,0.003,1.498,0.672,1.5,1.501C24.497,23.828,23.828,24.497,22.999,24.499z"/>
</g>
</svg>
