<?xml version="1.0" encoding="utf-8"?>
<!-- Generator: Adobe Illustrator 16.0.0, SVG Export Plug-In . SVG Version: 6.00 Build 0)  -->
<!DOCTYPE svg PUBLIC "-//W3C//DTD SVG 1.1//EN" "http://www.w3.org/Graphics/SVG/1.1/DTD/svg11.dtd">
<svg version="1.1" id="Layer_1" xmlns="http://www.w3.org/2000/svg" xmlns:xlink="http://www.w3.org/1999/xlink" x="0px" y="0px"
	 width="100px" height="100px" viewBox="0 0 100 100" enable-background="new 0 0 100 100" xml:space="preserve">
<path d="M65.427,46.866h-2.081h-20.5v-17.08c0-2.575,2.096-4.67,4.67-4.67h10.161c2.575,0,4.669,2.095,4.669,4.67v7.234
	c0,0.553,0.448,1,1,1c0.553,0,1-0.447,1-1v-7.234c0-3.678-2.991-6.67-6.669-6.67H47.516c-3.678,0-6.67,2.992-6.67,6.67v17.08h-1.08
	c-3.678,0-6.67,2.991-6.67,6.669v16.68c0,3.678,2.992,6.669,6.67,6.669h25.661c3.678,0,6.669-2.991,6.669-6.669v-16.68
	C72.096,49.857,69.105,46.866,65.427,46.866z"/>
</svg>
